<?xml version="1.0" encoding="UTF-8"?>
<svg enable-background="new 0 0 141.2 144.1" version="1.1" viewBox="0 0 141.2 144.1" xml:space="preserve" xmlns="http://www.w3.org/2000/svg">
<style type="text/css">
	.st0{fill:#DDDDDD;}
</style>
<path class="st0" d="m21.9 23h5.7v-3.4l-0.1-0.1-7.6 0.1-0.1 0.1c-0.2 0.4-0.3 0.7-0.5 1.1-0.2 0.3-0.3 0.5-0.5 0.7s-0.3 0.2-0.5 0.3c-0.3 0.2-0.5 0.3-0.7 0.6s-0.3 0.6-0.4 0.9c-0.1 0.4 0 0.6-0.1 1s0.1 0.8-0.2 1c-0.2 0.1-0.3 0-0.5 0.1-0.4 0.2-0.4 0.5-0.7 0.8-0.2 0.2-0.4 0.3-0.5 0.5-0.2 0.3-0.2 0.5-0.3 0.7-0.1 0.3-0.2 0.5-0.3 0.9l-0.5 1c-0.1 0.2-0.2 0.4-0.4 0.6s-0.4 0.2-0.5 0.3c-0.3 0.3-0.3 0.5-0.3 0.9-0.1 0.2 0 0.4-0.1 0.6l0.3 0.2h7v-2.5c-0.1-0.3-0.1-0.5 0.1-0.8 0.1-0.2 0.2-0.3 0.4-0.4 0.3-0.2 0.5-0.1 0.8-0.2 0.2-0.1 0.4-0.1 0.6-0.1l-0.1-4.9"/>
<path class="st0" d="m80.8 10.8c-0.1-0.2 0.1-0.3 0-0.5s-0.2-0.3-0.3-0.4c-0.3-0.2-0.6 0-0.9-0.3-0.2-0.2-0.1-0.5-0.3-0.6-0.3-0.2-0.6-0.1-0.9 0s-0.3 0.4-0.5 0.5c-0.3 0.2-0.6 0.2-0.9 0.3-0.4 0.2-0.7 0.1-1 0.5-0.2 0.3-0.2 0.6-0.2 1s0.3 0.5 0.3 0.9c0.1 0.4 0.1 0.8-0.1 1.1s-0.3 0.4-0.6 0.6-0.6 0.3-0.9 0.3c-0.5 0-0.7-0.3-1.1-0.5-0.3-0.2-0.4-0.4-0.7-0.5-0.6-0.3-1.1 0-1.8-0.2-0.4-0.1-0.6-0.3-0.9-0.4-0.4-0.2-0.7-0.1-1.1-0.4l-0.3-0.3c-0.2-0.3-0.3-0.5-0.5-0.9-0.1-0.3 0-0.6-0.3-0.8-0.2-0.2-0.5-0.2-0.8-0.3s-0.4-0.1-0.7-0.1c-0.4-0.1-0.7 0.1-1.1-0.1-0.2-0.2-0.2-0.4-0.4-0.5-0.3-0.2-0.5-0.2-0.9-0.3-0.7-0.2-1.1-0.1-1.8-0.2h-0.5v0.2c0 0.3-0.1 0.5-0.1 0.9 0 0.3 0.2 0.5 0 0.7l-0.3 0.3c-0.2 0.1-0.3-0.1-0.5 0s-0.2 0.2-0.3 0.3c-0.3 0.3-0.3 0.6-0.6 0.7-0.1 0.1-0.3 0-0.4 0.1-0.3 0.2 0 0.5 0 0.9s0.2 0.7 0 1.1c-0.1 0.2-0.2 0.4-0.4 0.5s-0.4 0-0.6 0l-0.3 0.1c0.1 0.3-0.1 0.6 0.1 0.8 0.1 0.1 0.2 0.1 0.3 0.3 0.2 0.3-0.1 0.6 0 0.9s0.3 0.5 0.3 0.8c0.1 0.3 0 0.5 0 0.9v1c0 0.4-0.1 0.7-0.1 1.1v1c0 0.4 0.1 0.7 0.1 1.1v0.1c0 0.5 0 0.8 0.1 1.3 0 0.3 0 0.5 0.1 0.8 0.1 0.4 0.1 0.7 0.5 1 0.2 0.1 0.3 0.2 0.5 0.3s0.3 0.1 0.5 0.1c0.2 0.1 0.3 0 0.5 0.1 0.3 0.1 0.3 0.3 0.5 0.5 0.2 0.1 0.4 0.2 0.5 0.3 0.3 0.3 0.2 0.6 0.3 1 0.3-0.1 0.5 0 0.9 0.1 0.3 0.1 0.4 0.2 0.6 0.3 0.3 0.1 0.5 0.1 0.7 0.2 0.3 0.1 0.5 0.1 0.7 0.2 0.3 0.1 0.4 0.1 0.6 0.3s0.1 0.6 0.3 0.7c0.3 0.1 0.5-0.1 0.7-0.3 0.2-0.1 0.3-0.2 0.5-0.3l0.1-0.1 0.6-0.3c0.2-0.1 0.4 0 0.5-0.2 0.1-0.1 0-0.4 0.2-0.5s0.4 0.2 0.6 0.3c0.4 0.2 0.7 0.3 1.1 0.5 0.6 0.3 0.9 0.6 1.5 0.9 0.5 0.2 0.9 0.1 1.3 0.4 0.2 0.2 0.2 0.4 0.5 0.6 0.2 0.1 0.3 0.2 0.5 0.3 0.5 0.3 0.7 0.5 1.1 0.7 0.6 0.4 0.9 0.7 1.6 0.9 0.3 0.1 0.5 0.1 0.7 0.3 0.2 0.1 0.3 0.3 0.5 0.4 0.3 0.2 0.5 0.3 0.8 0.5 0.4 0.3 0.7 0.5 1.1 0.7s0.6 0.2 1 0.3c0.3 0.1 0.4 0.2 0.7 0.3 0.4 0.2 0.6 0.4 0.9 0.7l0.7-0.8h1.8v-4s-0.2-4.4-0.3-8.4c-0.1-3.2-0.3-6.2-0.3-6.2 0-0.2 0-0.4-0.1-0.6-0.1-0.9-0.3-1.4-0.4-2.3 0-0.2-0.1-0.3-0.1-0.5 0-0.3 0-0.5 0.1-0.7 0.1-0.1 0.1-0.2 0.3-0.3h0.3c-0.2-0.2-0.2-0.4-0.4-0.6-0.4-0.3-0.7-0.1-1.2-0.1-0.4-0.1-0.7-0.1-1.1-0.2-0.4-0.2-0.9 0.1-1.1-0.3"/>
<path class="st0" d="m83.5 36.2c-0.1 0-0.1 0 0 0v0.4-0.4"/>
<path class="st0" d="m89 62.9c-0.3-0.2-0.5-0.2-0.9-0.3l-0.5-1.1c-0.2-0.2-0.3-0.4-0.5-0.6-0.4-0.3-0.9-0.1-1.1-0.5-0.3-0.5 0.4-1 0.1-1.4-0.1-0.1-0.3-0.2-0.4-0.3-0.4-0.3-0.5-0.7-1-1-0.4-0.3-0.7-0.2-1.1-0.5-0.2-0.1-0.4-0.2-0.5-0.4-0.3-0.4 0-0.7 0-1.1s0.1-0.6 0-1-0.3-0.5-0.5-0.8c-0.2-0.4-0.4-0.6-0.6-1l-0.3 0.1h-0.7c-0.3 0-0.5 0.1-0.7 0.3-0.2 0.1-0.3 0.2-0.3 0.4-0.1 0.2 0 0.3-0.1 0.5s-0.2 0.3-0.4 0.5-0.3 0.2-0.5 0.3l-0.5 0.7-0.3 0.3c-0.2 0.2-0.2 0.4-0.4 0.5s-0.3 0-0.5 0.1-0.4 0.1-0.6 0.2c-0.3 0.1-0.4 0.1-0.7 0.2s-0.5 0.2-0.8 0.2-0.5-0.1-0.8 0-0.5 0.1-0.7 0.3c-0.3 0.2-0.3 0.5-0.5 0.8-0.1 0.2-0.1 0.5-0.3 0.6-0.2 0.2-0.5-0.1-0.7 0-0.4 0.1-0.3 0.8-0.7 0.7-0.2-0.1-0.2-0.4-0.4-0.4s-0.2 0.2-0.4 0.3-0.4 0.1-0.7 0.1-0.4 0-0.7-0.1h-0.1c-0.1 0.2-0.2 0.3-0.3 0.5-0.2 0.3-0.4 0.5-0.5 0.8s0.1 0.6-0.1 0.9c-0.1 0.2-0.2 0.3-0.4 0.4s-0.5 0-0.5 0.2c-0.1 0.2 0.3 0.3 0.3 0.5 0.1 0.3 0.3 0.7 0 0.9-0.1 0.1-0.3 0-0.4 0.1-0.1 0.2 0.3 0.3 0.3 0.5 0.1 0.3 0 0.5 0.1 0.7 0.1 0.3 0.4 0.4 0.6 0.7 0.3 0.4 0.6 0.5 0.8 0.9s0.3 0.6 0.4 1c0.1 0.3 0.2 0.5 0.3 0.8 0.2 0.5 0.3 0.8 0.5 1.3l0.1 0.1c0.2-0.4 0.3-0.7 0.5-1.1 0.2-0.3 0.3-0.5 0.4-0.8 0.2-0.4-0.1-0.9 0.3-1.1s0.7 0.1 1.1 0.2c0.4 0 0.6 0.1 0.9 0.1s0.5 0 0.9-0.1l-0.1 0.2c0.1-0.1 0.3-0.2 0.3-0.3 0.1-0.3 0-0.5 0-0.7 0-0.3 0-0.5 0.1-0.7 0.1-0.3 0.3-0.4 0.6-0.7 0.2-0.2 0.4-0.4 0.7-0.5s0.5 0 0.7 0.1c0.3 0.1 0.4 0.3 0.7 0.5 0.2 0.2 0.2 0.5 0.5 0.7 0.1 0.1 0.2 0 0.4 0.1 0.3 0.1 0.5 0.2 0.9 0.3h0.7c0.3 0 0.4 0 0.7 0.1 0.4 0.1 0.7 0.2 0.9 0.3l0.2-1.1 0.3-0.3c0.3-0.1 0.4 0.3 0.7 0.3s0.4 0 0.7-0.1 0.4-0.1 0.6-0.3c0.2-0.1 0.3-0.3 0.5-0.4h0.5c0.2 0 0.2 0.1 0.4 0.1 0.4 0 0.6-0.2 0.9-0.5 0.2-0.2 0.2-0.4 0.4-0.5 0.3 0 0.3 0.4 0.5 0.5s0.3 0 0.5 0.1c0.3 0.1 0.4 0.2 0.7 0.2s0.5 0 0.7-0.1c0.2 0 0.2-0.1 0.4-0.1l0.1-0.1c-0.1-0.3 0-0.6-0.1-0.9-0.3-0.1-0.4-0.2-0.6-0.3"/>
<path class="st0" d="m61.9 80.5v-0.7c0-0.3-0.1-0.6 0.1-0.8 0.2-0.1 0.4 0 0.6 0s0.3 0.1 0.5 0.1c0.2-0.1 0.3-0.2 0.4-0.3 0.1-0.2-0.1-0.5 0.1-0.5 0.2-0.1 0.3 0.1 0.4 0.2 0.2 0.2 0.2 0.3 0.3 0.5s0.1 0.3 0.3 0.4 0.3-0.1 0.5-0.2c0.1-0.1 0.2-0.3 0.3-0.3s0.1 0.3 0.2 0.3c0.2 0.1 0.3 0.1 0.5 0 0.3-0.1 0.1-0.5 0.2-0.8 0.1-0.4 0.1-0.6 0.1-1 0-0.5-0.2-0.8-0.2-1.3 0-0.4 0.2-0.8-0.1-1.1-0.2-0.3-0.5-0.2-0.6-0.5-0.2-0.3-0.1-0.6 0.1-0.9s0.6 0 0.9-0.3c0.2-0.2 0.2-0.4 0.2-0.6 0-0.3-0.3-0.3-0.5-0.5-0.1-0.2-0.2-0.3-0.3-0.4-0.3-0.2-0.5-0.1-0.8 0-0.2 0.1-0.4 0.5-0.5 0.3-0.1-0.1-0.1-0.2-0.1-0.3 0-0.3 0.1-0.5 0.1-0.9 0-0.3 0-0.5 0.1-0.8l0.1-0.1c-0.5-0.1-0.7-0.1-1.2-0.1h-0.6c-0.3 0-0.6-0.1-0.9 0-0.2 0.1-0.2 0.2-0.4 0.3h-0.1c0 0.4 0.1 0.6 0 1 0 0.3-0.1 0.5-0.2 0.7s0 0.3-0.1 0.5c-0.2 0.2-0.4 0.1-0.7 0.1h-0.9c-0.3 0-0.4 0.1-0.7 0.1h-0.6l-0.1-0.1c-0.1 0.5 0 0.7-0.1 1.2-0.1 0.7-0.4 1.1-0.5 1.8-0.1 0.4-0.2 0.7-0.2 1.1 0 0.5 0.2 0.7 0.3 1.1 0.2 0.4 0.3 0.6 0.5 0.9s0.3 0.4 0.5 0.6c0.2 0.3 0.3 0.6 0.5 0.9s0.3 0.5 0.5 0.8c0.2 0.2 0.4 0.3 0.5 0.5 0.2 0.2 0.3 0.4 0.4 0.7v-0.2c0.2-0.1 0.3-0.2 0.5-0.3 0.2-0.2 0.4-0.3 0.5-0.6 0.2-0.2 0.2-0.3 0.2-0.5"/>
<path class="st0" d="m28.1 62.6c-0.1-0.2 0.1-0.4-0.1-0.6-0.2-0.3-0.6 0.1-0.9-0.1-0.2-0.1-0.4-0.2-0.5-0.5-0.1-0.4 0.8-0.5 0.7-0.9 0-0.3-0.4-0.3-0.4-0.5s0.2-0.3 0.3-0.5l0.3-0.3-0.3 0.1c-0.3 0-0.5-0.2-0.8 0s-0.1 0.7-0.4 0.8-0.5 0-0.7-0.1c-0.3-0.2-0.2-0.5-0.3-0.8-0.1-0.4 0-0.7-0.1-1.1-0.1-0.2 0-0.4-0.2-0.5-0.3-0.2-0.6-0.1-0.9 0.1-0.1 0.1-0.2 0.1-0.3 0.2l-0.1 0.2c-0.1 0.2 0 0.4-0.1 0.6s-0.2 0.3-0.4 0.5-0.3 0.2-0.5 0.4-0.3 0.4-0.5 0.7-0.4 0.5-0.7 0.8h0.1l0.5 0.5 0.5 0.5c0.2 0.2 0.4 0.2 0.7 0.3l0.6 0.3c0.3 0.2 0.4 0.3 0.7 0.5 0.3 0.3 0.5 0.4 0.7 0.8 0.1 0.3 0 0.5 0.3 0.7 0.2 0.2 0.6-0.1 0.8 0.1 0.2 0.1 0.1 0.3 0.3 0.5 0.3 0.2 0.5 0.1 0.9 0.2s0.5 0.4 0.8 0.4h0.3v-0.9c0-0.3 0.2-0.5 0.2-0.9s0.1-0.7-0.1-1c0-0.3-0.3-0.3-0.4-0.5"/>
<path class="st0" d="m45.5 49.4c-0.2 0-0.2 0.1-0.4 0.1-0.4 0.1-0.8 0.2-1.1-0.2-0.2-0.2-0.1-0.5-0.1-0.7 0-0.3 0.2-0.5 0.1-0.8s-0.4-0.4-0.6-0.6c-0.3-0.2-0.5-0.3-0.7-0.5-0.2-0.3-0.2-0.4-0.2-0.7v-0.8-0.2c-0.4-0.1-0.7 0-1.1-0.1-0.2 0-0.3-0.2-0.5-0.1-0.3 0-0.3 0.5-0.6 0.5-0.2 0-0.3-0.1-0.5 0s-0.2 0.2-0.4 0.3-0.3 0.1-0.5 0.2l-1 1c-0.1 0.2-0.1 0.4-0.3 0.6s-0.4 0.1-0.7 0.1c-0.5 0-0.8-0.5-1.3-0.3-0.4 0.2-0.6 0.5-0.8 0.9-0.2 0.2-0.3 0.4-0.3 0.7-0.1 0.4 0.1 0.6-0.1 1-0.1 0.3-0.1 0.7-0.5 0.8-0.3 0.1-0.5-0.2-0.7-0.1-0.3 0.2-0.2 0.4-0.3 0.7 0 0.3 0.2 0.5 0.1 0.8-0.1 0.2-0.2 0.3-0.3 0.5-0.3 0.5-0.2 0.8-0.3 1.3l0.1 0.1c0.2 0.1 0.4 0.1 0.6 0.3s0.1 0.4 0.3 0.6 0.5 0.3 0.8 0.3c0.2 0 0.4 0 0.6-0.1s0.2-0.3 0.4-0.4c0.3-0.1 0.5 0.1 0.9 0.3 0.4 0.1 0.5 0.2 0.9 0.4 0.2-0.2 0.3-0.2 0.4-0.5 0.1-0.4-0.3-0.6-0.3-0.9-0.1-0.3-0.1-0.4-0.1-0.7 0.1-0.3 0.2-0.5 0.5-0.7 0.4-0.3 0.8-0.1 1.3-0.1s0.8-0.1 1.3 0.1c0.2 0.1 0.4 0.1 0.6 0.2 0.1 0 0.2 0.1 0.3 0.1 0.3 0 0.3-0.4 0.6-0.5s0.5 0.1 0.8 0.1h0.7 0.6l0.1 0.1c0.2-0.3 0.1-0.5 0.4-0.7 0.2-0.1 0.3-0.1 0.5-0.1 0.3 0 0.5 0.2 0.8 0 0.2-0.1 0.3-0.3 0.4-0.5 0.2-0.4 0-0.6 0.1-1l0.1 0.1c0-0.3 0.1-0.5-0.1-0.7-0.3-0.1-0.4-0.2-0.5-0.2"/>
<path class="st0" d="m103.4 103.4c-0.1-0.3-0.2-0.4-0.3-0.7 0-0.2 0-0.3-0.1-0.4-0.1-0.3-0.3-0.4-0.5-0.6v0.1c0-0.3 0-0.4-0.1-0.7 0-0.3-0.1-0.5-0.1-0.7-0.1-0.3-0.2-0.4-0.2-0.7-0.1-0.4-0.2-0.7 0-0.9 0.1-0.1 0.3-0.1 0.4-0.3s0.1-0.3 0.1-0.5c0-0.1 0-0.3 0.1-0.4s0-0.2-0.1-0.4-0.2-0.2-0.3-0.3c-0.2-0.3-0.1-0.6-0.1-1 0-0.3 0.1-0.6-0.1-0.9-0.1-0.2-0.2-0.3-0.3-0.5l-0.5-0.5c-0.3-0.2-0.5-0.4-0.8-0.2-0.3-0.1-0.5-0.2-0.8-0.3l-0.6-0.3v0.1c0.1 0.2 0.1 0.3 0.3 0.5 0.1 0.2 0.4 0.2 0.5 0.5s-0.1 0.6 0 0.9 0.7 0.3 0.6 0.7c-0.1 0.2-0.4 0.1-0.5 0.3s0 0.4-0.1 0.6c-0.1 0.3-0.4 0.3-0.4 0.6 0 0.2 0.1 0.2 0.1 0.4v0.5c0 0.3 0.2 0.4 0.3 0.7 0 0.3 0.2 0.6-0.1 0.7-0.2 0.2-0.4-0.1-0.6 0.1s0 0.4-0.1 0.6c-0.1 0.4-0.1 0.7-0.3 1.1-0.1 0.2-0.3 0.4-0.3 0.6 0 0.3 0.3 0.3 0.5 0.5h-0.1c0.2 0 0.3 0 0.5 0.1s0 0.4 0.1 0.6 0.1 0.4 0.3 0.5 0.4 0 0.7 0c0.2 0 0.4-0.2 0.6-0.1 0.4 0.1 0.5 0.4 0.6 0.8s0.1 0.6 0.1 1c-0.1 0.3-0.4 0.5-0.3 0.8 0.1 0.2 0.3 0.3 0.5 0.4s0.4 0.1 0.7 0 0.4-0.4 0.6-0.6c0.3-0.3 0.5-0.5 0.6-0.9s0.2-0.7 0-1.1c-0.2-0.3-0.4-0.4-0.5-0.7"/>
<path class="st0" d="m83 109.4c-0.3 0-0.4 0-0.7 0.1s-0.4 0.1-0.7 0.2h-0.1c-0.2 0.1-0.4 0.1-0.6 0.2-0.4 0.1-0.6 0.1-0.9 0.2-0.6 0.1-0.9 0.1-1.5 0.3-0.2 0-0.3 0.1-0.5 0.1-0.3 0-0.4 0.1-0.7 0-0.2 0-0.3-0.1-0.5-0.2-0.5-0.2-0.9-0.2-1.4-0.2s-0.8 0.3-1.3 0.1c-0.2-0.1-0.3-0.3-0.5-0.5s-0.3-0.4-0.5-0.5c-0.4-0.2-0.7-0.1-1.1-0.1-0.5 0-0.7 0.1-1.2 0.1-0.4 0-0.6-0.1-1-0.1h-1.4-1.3c-0.5 0-0.8 0.2-1.3 0.1-0.3-0.1-0.4-0.2-0.7-0.3s-0.4-0.2-0.7-0.3c-0.2-0.1-0.2-0.1-0.4-0.1-0.3 0-0.4 0.3-0.7 0.4-0.2 0.1-0.4 0.2-0.6 0.2-0.3 0-0.5-0.2-0.8-0.3l-0.1-0.1c-0.1 0.4-0.1 0.8 0 1.4 0.1 0.5 0.1 0.9 0.4 1.3 0.2 0.3 0.5 0.3 0.7 0.5 0.3 0.3 0.3 0.6 0.5 1 0.1 0.3 0.1 0.4 0.3 0.7 0.1 0.2 0.3 0.2 0.5 0.4l-0.1 0.1c0.2 0.3 0.3 0.4 0.4 0.7 0.1 0.2 0.1 0.3 0.1 0.5 0.1 0.3 0.1 0.5 0.1 0.8 0.1 0.3 0.1 0.5 0.2 0.7 0.2 0.4 0.3 0.6 0.6 1 0.2 0.3 0.4 0.5 0.6 0.8s0.4 0.4 0.5 0.7c0.1 0.2 0.1 0.3 0.1 0.5 0 0.5-0.2 0.8-0.2 1.3 0 0.6 0.1 1 0.3 1.5 0.1 0.2 0.1 0.4 0.2 0.6 0.1 0.4 0.1 0.6 0.1 1s-0.1 0.6-0.1 0.9c0 0.5 0.3 0.8 0.4 1.3 0.1 0.4 0 0.6 0.1 0.9 0.1 0.4 0.1 0.6 0.2 1 0.1 0.5 0.1 0.8 0.3 1.2 0.2 0.3 0.3 0.5 0.5 0.8s0.2 0.6 0.5 0.9c0.2 0.2 0.5 0.2 0.7 0.5l-0.1-0.3c0.2-0.2 0.5-0.2 0.6-0.5 0.1-0.2-0.1-0.4 0.1-0.5s0.3 0 0.5 0.1c0.2 0.2 0 0.4 0.1 0.6 0.1 0.3 0.2 0.4 0.5 0.5 0.3 0.2 0.5 0.1 0.9 0.1 0.3 0 0.5 0 0.8 0.1 0.2 0 0.4 0.1 0.6 0.1 0.3-0.1 0.4-0.3 0.6-0.4 0.3-0.1 0.4-0.3 0.7-0.3h0.6c0.1-2.9 0.2-4.5 0.3-7.4l0.1 0.1 0.3-5.7 1.3-0.1 0.1-4.4c0.1-0.5 0.1-0.8 0.1-1.3v-0.9c0-0.2-0.2-0.4 0-0.5 0.1-0.1 0.2 0 0.4-0.1 0.4-0.1 0.7 0 1.1-0.1 0.3-0.1 0.5-0.2 0.8-0.3 0.4-0.1 0.6 0.1 0.9-0.1 0.2-0.1 0.3-0.3 0.5-0.3s0.2 0.2 0.4 0.4l0.5 0.7c0.3-0.3 0.4-0.5 0.7-0.7 0.2-0.1 0.4-0.1 0.6-0.2s0.3-0.1 0.5-0.1c0.2-0.1 0.3-0.2 0.5-0.3l0.3-0.1c-0.4-0.1-0.6-0.2-0.9-0.3-0.6 0.1-0.8-0.1-1.1-0.1"/>
<path class="st0" d="m130.9 52.2c-0.1-0.3 0.1-0.6-0.1-0.8-0.1-0.1-0.2-0.2-0.4-0.3-0.3-0.1-0.4 0.2-0.7 0.3l-0.6 0.3c-0.3 0.1-0.5 0.2-0.7 0.3-0.3 0.1-0.5 0.2-0.8 0.3-0.3 0-0.5-0.1-0.9-0.1-0.3 0.1-0.5 0.3-0.8 0.3-0.2 0.1-0.4 0-0.6 0.1-0.3 0-0.5-0.1-0.8 0.1-0.3 0.1-0.3 0.4-0.6 0.6-0.4 0.2-0.6 0.1-1 0.1s-0.6-0.2-0.9-0.1c-0.2 0-0.4 0.1-0.6 0.2-0.4 0.1-0.7 0.2-1.1 0.3s-0.6 0.2-0.9 0.2-0.5 0-0.7-0.1c-0.4-0.2-0.3-0.6-0.5-1-0.2-0.3-0.1-0.6-0.4-0.7l-0.3 0.1c-0.1 0.2-0.2 0.2-0.3 0.4-0.2 0.2-0.1 0.7-0.4 0.6l-0.2 0.1c0.1 0.3 0.1 0.5 0.3 0.8s0.4 0.3 0.6 0.5c0.3 0.5-0.2 0.8-0.1 1.3 0.1 0.4 0.2 0.7 0.6 0.9 0.3 0.2 0.6 0.2 0.9 0.3 0.4 0.1 0.6 0.2 1 0.3 0.5 0.1 0.7 0.2 1.2 0.3 0.6 0.2 0.9 0.2 1.4 0.4 0.2 0.1 0.3 0.1 0.5 0.2 0.2 0.2 0.2 0.4 0.5 0.5 0.3 0.2 0.6 0 0.9-0.1 0.4 0 0.6-0.2 1-0.1 0.1 0 0.2 0 0.3 0.1s-0.1 0.2-0.1 0.3c-0.1 0.2-0.2 0.3-0.4 0.5-0.3 0.3-0.5 0.4-0.7 0.7-0.3 0.3-0.4 0.5-0.6 0.7-0.2 0.3-0.4 0.4-0.6 0.7s-0.3 0.5-0.6 0.8-0.5 0.3-0.8 0.6-0.4 0.5-0.6 0.8c-0.1 0.1-0.1 0.2-0.1 0.2-0.1 0.1-0.1 0.3-0.3 0.4-0.1 0.1-0.2 0.2-0.4 0.2-0.3 0.1-0.4 0-0.7 0-0.4 0-0.6-0.2-1-0.1-0.3 0-0.5 0-0.7 0.1-0.1 0.1-0.2 0.3-0.3 0.4l-0.5 0.5c-0.2 0.2-0.3 0.3-0.5 0.4-0.3 0.1-0.5 0-0.9 0.1-0.3 0.1-0.5 0.2-0.7 0.3 0 0.2 0.1 0.4 0 0.6s-0.3 0.2-0.4 0.3c-0.2 0.2-0.2 0.4-0.4 0.6s-0.4 0.1-0.6 0.3c-0.3 0.3-0.1 0.7-0.1 1.1s0.1 0.6 0.1 1c0 0.5 0 0.7-0.1 1.2 0 0.5-0.1 0.8-0.1 1.3 0 0.4-0.1 0.6-0.1 1-0.1 0.7-0.3 1.1-0.1 1.8 0.1 0.3 0.2 0.5 0.4 0.7 0.1 0.2 0.2 0.3 0.3 0.5 0.2 0.2 0.2 0.3 0.4 0.5l0.3-0.1c0.3-0.4 0.5-0.6 0.9-0.9 0.4-0.4 0.7-0.5 1-0.9 0.4-0.5 0.5-0.8 0.9-1.3s0.7-0.7 1.1-1.1c0.3-0.3 0.4-0.6 0.7-0.9 0.2-0.2 0.4-0.3 0.7-0.5 0.4-0.4 0.7-0.6 1.1-0.9 0.4-0.2 0.6-0.3 0.9-0.5 0.4-0.3 0.7-0.4 0.9-0.8 0.2-0.3 0.2-0.6 0.4-0.9 0.3-0.5 0.6-0.6 1-1 0.3-0.3 0.5-0.4 0.8-0.7 0.3-0.4 0.5-0.6 0.7-1.1 0.2-0.4 0.1-0.8 0.3-1.2 0.1-0.1 0.1-0.3 0.2-0.4s0.2-0.3 0.3-0.4c0.2-0.3 0.5-0.4 0.7-0.7s0.3-0.5 0.4-0.8c0.1-0.4 0-0.7 0.1-1.1 0.1-0.3 0.2-0.4 0.3-0.7s0.1-0.5 0.3-0.8l0.5-1c0.2-0.3 0.3-0.5 0.5-0.9 0.1-0.2 0.2-0.3 0.3-0.5 0.2-0.3 0.3-0.4 0.5-0.6 0.2-0.3 0.3-0.4 0.4-0.7s0.2-0.5 0.2-0.9c0.1-0.4-0.1-0.7 0-1.1l0.2-0.4c0.1-0.3 0.2-0.5 0.1-0.9-0.1 0-0.3-0.1-0.3-0.4"/>
<path class="st0" d="m21.9 48.3c-0.2-0.3-0.5-0.3-0.6-0.6-0.1-0.2-0.1-0.3-0.1-0.5v-0.7c0-0.3-0.1-0.4-0.2-0.7l-0.3-0.6c-0.1-0.2-0.2-0.3-0.4-0.5-0.2-0.3-0.5-0.3-0.6-0.7-0.1-0.2 0-0.3-0.1-0.4-0.1-0.3-0.6 0-0.7-0.3-0.1-0.2 0.2-0.3 0.1-0.5s-0.2-0.2-0.4-0.3-0.5 0-0.7-0.1c-0.3-0.2-0.1-0.5-0.3-0.7-0.3-0.2-0.6 0-0.9-0.1s-0.4-0.3-0.7-0.3c-0.2 0-0.3 0.2-0.5 0.3-0.3 0.1-0.4 0.2-0.7 0.3s-0.5-0.1-0.7 0-0.2 0.4-0.4 0.6v0.1c0 0.3 0.2 0.5 0.1 0.9-0.2 0.5-0.6 0.5-1 0.8-0.3 0.2-0.6 0.3-0.7 0.7s0 0.7 0.2 1.1c0.2 0.3 0.5 0.3 0.7 0.6v0.6c0.3 0.1 0.5 0.1 0.9 0.1 0.3 0 0.5 0.1 0.9 0 0.3-0.1 0.5-0.3 0.8-0.4s0.6-0.1 0.9 0c0.2 0.1 0.3 0.2 0.5 0.3 0.3 0.1 0.5 0.1 0.8 0.2 0.2 0.1 0.4 0.1 0.4 0.3s-0.3 0.2-0.5 0.3c-0.3 0.1-0.5 0.1-0.8 0-0.2-0.1-0.3-0.3-0.5-0.4h-0.4c-0.2 0.1-0.2 0.2-0.3 0.3-0.2 0-0.3-0.2-0.5-0.1s-0.1 0.3-0.3 0.4-0.4 0-0.6 0-0.3 0-0.5-0.1l-0.7 0.2c0 0.3-0.1 0.4-0.1 0.7s0 0.6 0.1 0.9l0.1-0.1c0.3 0 0.5-0.1 0.7-0.1 0.3 0 0.5 0.1 0.9 0 0.2 0 0.4-0.1 0.6-0.2s0.3-0.2 0.5-0.3c0.4-0.1 0.7 0 1.2 0h0.9v0.1c0.3 0 0.6 0 0.9 0.1s0.4 0.2 0.6 0.3c0.4 0.1 0.7 0.2 1.1 0.1 0.3 0 0.5-0.2 0.7-0.1l0.2 0.1c0.3-0.1 0.5 0 0.7-0.2s0.2-0.5 0.1-0.9c-0.2-0.2-0.3-0.3-0.4-0.5"/>
<path class="st0" d="m13 47.5v-0.2 0.2"/>
<path class="st0" d="m13.6 42.4v0-0.1 0.1"/>
<path class="st0" d="m66.8 50c-0.1-0.1-0.3 0-0.4-0.1-0.2-0.1-0.2-0.3-0.2-0.5v-0.5l0.6-0.5c-0.3-0.1-0.4-0.3-0.5-0.5s0.1-0.4-0.1-0.6l-0.3-0.3h-0.2l-0.2 0.6c-0.2 0.1-0.2 0.2-0.4 0.3-0.3 0.2-0.5 0.1-0.8 0.3-0.2 0.1-0.3 0.1-0.5 0.3-0.3 0.2-0.3 0.6-0.6 0.6s-0.4-0.1-0.7-0.3c-0.3-0.1-0.4-0.3-0.7-0.4s-0.4 0-0.7-0.1c-0.3 0-0.5-0.1-0.7-0.1-0.3 0-0.5 0.1-0.7 0.2-0.3 0.2-0.4 0.4-0.7 0.6-0.2 0.1-0.4 0.3-0.7 0.3-0.2 0-0.3-0.1-0.5-0.1-0.4-0.1-0.6-0.2-0.9-0.4-0.2-0.2-0.3-0.4-0.5-0.5-0.3-0.1-0.6-0.2-0.9-0.1s-0.3 0.4-0.5 0.5c-0.4 0.2-0.7 0.1-1-0.1s-0.2-0.7-0.6-0.8c-0.2-0.1-0.4 0.1-0.6 0s-0.3-0.3-0.5-0.5l-0.3-0.3c-0.3-0.1-0.4 0.2-0.6 0.3s-0.2 0.2-0.4 0.2c-0.3 0.1-0.4-0.1-0.7-0.1-0.3 0.1-0.4 0.3-0.6 0.5s-0.3 0.3-0.4 0.5c-0.2 0.3 0.1 0.7-0.2 1-0.2 0.3-0.6 0.1-0.7 0.4-0.2 0.3 0 0.5 0 0.9l-0.1 0.3v0.7c0 0.4 0.1 0.6 0.3 0.9 0.1 0.3 0.5 0.4 0.5 0.7s-0.3 0.3-0.5 0.6c-0.1 0.3 0 0.5-0.1 0.7-0.1 0.3-0.3 0.4-0.5 0.6-0.2 0.3-0.6 0.3-0.5 0.7 0 0.2 0.2 0.2 0.2 0.3 0 0.2-0.2 0.3-0.4 0.4-0.1 0-0.2 0.1-0.2 0.2-0.3 0.5-0.2 0.9-0.2 1.4v1.3c0 0.4 0.1 0.7 0.1 1.1v1.4l0.3 0.1h1 0.9c0.2 0 0.4 0 0.6 0.1 0.3 0.1 0.5 0 0.7 0.3 0.1 0.1 0 0.3 0.1 0.4s0.3 0.1 0.4 0.1c0.2 0.1 0.3 0.2 0.5 0.4s0.4 0.4 0.5 0.7-0.1 0.5 0 0.9c0 0.3 0 0.5 0.2 0.7 0.1 0.1 0.2 0.1 0.4 0.2 0.1 0.1 0.2 0.1 0.3 0.1 0.2 0.1 0.2 0.3 0.4 0.3 0.3 0.1 0.5-0.1 0.9-0.3s0.6-0.5 1.1-0.5c0.4-0.1 0.6 0.1 1 0.1 0.2 0 0.3-0.1 0.5-0.1l0.1-0.3c0.1-0.1 0.1-0.2 0.2-0.3 0.1-0.2 0.3-0.2 0.4-0.4s0.2-0.3 0.2-0.5-0.1-0.4 0-0.6c0.1-0.3 0.2-0.4 0.3-0.6l0.5-0.5c0.2-0.2 0.4-0.2 0.6-0.4s0.2-0.3 0.4-0.5c0.2-0.3 0.3-0.8 0.7-0.7 0.2 0 0.2 0.2 0.4 0.3 0.2 0 0.3-0.1 0.5-0.1 0.3 0 0.4 0.3 0.7 0.5l0.3 0.3c0.3 0.1 0.4-0.3 0.5-0.6s0.1-0.5 0.2-0.7 0.1-0.4 0.1-0.6c0.1-0.3 0.2-0.4 0.3-0.6 0.2-0.4 0.2-0.6 0.3-1 0.1-0.2 0.1-0.3 0.3-0.5s0.4-0.2 0.6-0.5c0.1-0.1 0.1-0.2 0.1-0.3s0-0.2 0.1-0.3c0.1-0.3-0.1-0.5 0.1-0.7s0.4 0 0.5-0.2c0.2-0.3-0.1-0.6 0-0.9 0.1-0.2 0.3-0.2 0.5-0.5 0.1-0.2 0-0.4 0.1-0.7s0.3-0.4 0.4-0.6c0.1-0.3 0-0.6 0.3-0.7 0.2 0 0.2 0.1 0.4 0.1 0.3 0 0.4-0.4 0.5-0.7s0.1-0.5 0.1-0.8c-0.5-0.5-0.5-0.7-0.7-0.9"/>
<path class="st0" d="m98.3 108.2c-0.1-0.3-0.4-0.3-0.7-0.4-0.4-0.2-0.6-0.2-0.9-0.3-0.4-0.2-0.7-0.3-1.1-0.5s-0.7-0.3-1.1-0.5c-0.3-0.2-0.4-0.3-0.6-0.5v-0.1c-0.2 0-0.4 0.1-0.6 0.1h-0.5c-0.2 0-0.3 0.1-0.5 0.2s-0.3 0.1-0.5 0.1c-0.3 0.1-0.4 0.1-0.6 0.3-0.3 0.3-0.2 0.6-0.3 1 0 0.2 0 0.3-0.1 0.4-0.1 0.2-0.3 0.1-0.5 0.1-0.3 0.1-0.5 0.2-0.7 0.5-0.1 0.1-0.1 0.2-0.1 0.3-0.2 0.3-0.4 0.4-0.7 0.7-0.2 0.2-0.4 0.2-0.5 0.4-0.2 0.2 0.1 0.6-0.2 0.7h-0.3c-0.2 0-0.3-0.2-0.5-0.3-0.2 0-0.2 0.1-0.4 0.1s-0.4-0.1-0.6-0.1-0.3-0.1-0.5-0.1c-0.2-0.1-0.3-0.1-0.5-0.1-0.2-0.1-0.3-0.1-0.5-0.2l0.1 0.1c0.1 0.3 0.1 0.5 0.3 0.8 0.2 0.2 0.4 0.2 0.5 0.5s0 0.5 0 0.7c0.1 0.6 0.4 0.9 0.7 1.4 0.2 0.3 0.2 0.5 0.5 0.8 0.2 0.3 0.3 0.4 0.6 0.6 0.2 0.2 0.4 0.3 0.7 0.4s0.6 0 0.7 0.3c0.1 0.2-0.1 0.3-0.1 0.5 0 0.4 0 0.8 0.3 1.1s0.6 0.2 0.9 0.3c0.4 0.1 0.7 0 1 0.3s0.2 0.6 0.3 0.9 0.2 0.5 0.4 0.6c0.4 0.2 0.7-0.1 1.1-0.1 0.5 0 0.7 0.1 1.2 0.1h0.9 0.1c0.1-0.3 0.3-0.4 0.6-0.7 0.3-0.2 0.6-0.2 0.8-0.5 0.1-0.2 0.1-0.3 0.2-0.5 0.1-0.3 0.3-0.4 0.5-0.7s0.3-0.5 0.5-0.9c0.1-0.3 0.1-0.4 0.2-0.7 0.2-0.6 0.3-0.9 0.4-1.4s0.1-0.8 0.1-1.3c0-0.6 0.1-1 0.1-1.6v-1.3-1.2c-0.1 0.1 0.1-0.1-0.1-0.3"/>
<path class="st0" d="m102.9 70.3c0-0.4 0.1-0.7 0-1.1-0.1-0.3-0.1-0.5-0.3-0.7-0.2-0.3-0.5-0.4-0.7-0.7-0.1-0.2-0.1-0.4-0.3-0.6-0.1-0.2-0.2-0.3-0.4-0.5l-0.3-0.1-0.5 0.5c-0.2 0.1-0.3 0.2-0.5 0.2-0.3 0.1-0.5-0.1-0.7 0-0.2 0-0.4 0.2-0.6 0.2h-0.7c-0.4 0-0.6 0-0.9-0.1-0.3 0-0.5-0.1-0.8-0.1s-0.5 0.2-0.8 0.3l0.1 0.1c0 0.4-0.1 0.6 0 0.9 0.1 0.4 0.1 0.6 0.3 0.9s0.4 0.5 0.5 0.8c0.1 0.1 0.1 0.2 0.2 0.3-0.2 0.1-0.3 0.2-0.5 0.4l-0.3 0.3c-0.1 0.2-0.3 0.2-0.3 0.4-0.1 0.2 0 0.4 0 0.6l-0.3-0.1c-0.2 0.2-0.4 0.3-0.6 0.5-0.4 0.4-0.4 0.8-0.5 1.3-0.1 0.6 0 0.9-0.1 1.5-0.1 0.7-0.3 1.1-0.5 1.8l-0.1-0.1c0.3 0.2 0.4 0.6 0.7 0.6 0.4 0 0.5-0.5 0.9-0.7 0.3-0.2 0.5-0.3 0.8-0.3 0.5-0.1 0.7 0.1 1.2 0.1h0.5 0.2c0-0.3 0.1-0.4 0.2-0.7s0-0.5 0.1-0.8c0.1-0.2 0.1-0.4 0.3-0.5 0.2-0.2 0.4-0.2 0.7-0.3s0.5-0.2 0.9-0.3c0.2-0.1 0.3-0.2 0.5-0.1 0.2 0 0.3 0.3 0.5 0.4 0.1 0.1 0.2 0.1 0.2 0.1h0.1c0-0.3-0.1-0.5 0-0.8 0.1-0.4 0.4-0.4 0.6-0.7s0.2-0.6 0.5-0.8c0.2-0.1 0.4-0.1 0.5-0.3 0.3-0.3 0.1-0.6 0.1-1 0.2-0.4 0.1-0.5 0.1-0.8"/>
<path class="st0" d="m12.2 17.4c0-0.2-0.3-0.1-0.5-0.1-0.1 0-0.2 0.2-0.2 0.3h0.4c0.1 0.1 0.3-0.1 0.3-0.2"/>
<path class="st0" d="m11.4 17.7v0c0 0.2 0 0.1 0.1-0.1-0.1 0-0.1 0.1-0.1 0.1"/>
<path class="st0" d="m13.6 18.5c0.1 0.1 0.2 0.3 0.3 0.3 0.2 0.1 0.4-0.1 0.5-0.3 0.2-0.2 0.3-0.3 0.3-0.5s0.1-0.3 0-0.4c-0.1-0.2-0.3 0-0.5 0s-0.4 0-0.6 0.1-0.4 0.3-0.3 0.5c0 0.1 0.2 0.2 0.3 0.3"/>
<path class="st0" d="m15.9 19.5c0.2 0 0.3-0.1 0.3-0.3 0.1-0.2 0-0.4-0.1-0.5l-0.3-0.3c-0.2-0.1-0.3-0.1-0.5 0.1-0.1 0.1-0.1 0.2-0.1 0.3 0 0.2 0 0.3 0.1 0.4 0.2 0.2 0.3 0.3 0.6 0.3"/>
<path class="st0" d="m18.2 18.8c0.2 0 0.2-0.1 0.3-0.2l0.3-0.3c0.1-0.1 0.1-0.2 0.1-0.4s-0.1-0.3-0.3-0.5c-0.1-0.1-0.2-0.3-0.4-0.2s-0.1 0.2-0.2 0.4-0.3 0.3-0.3 0.5-0.1 0.3 0 0.5c0.2 0.2 0.3 0.2 0.5 0.2"/>
<path class="st0" d="m18.9 17c0.2 0 0.2-0.2 0.3-0.4 0.1-0.1 0.3-0.3 0.2-0.4s-0.2-0.1-0.3-0.1c-0.3 0-0.6 0.2-0.5 0.5v0.1c0 0.2 0.1 0.3 0.3 0.3"/>
<path class="st0" d="m57.7 31.3c0.6-0.4 1.2-0.2 1.8-0.7 0.4-0.3 0.5-0.6 0.9-0.9 0.2-0.2 0.3-0.2 0.5-0.4s0.4-0.3 0.6-0.5 0.4-0.2 0.6-0.4 0.3-0.3 0.5-0.4c-0.1-0.4-0.1-0.7-0.3-1-0.2-0.2-0.3-0.2-0.5-0.3l-0.5-0.5c-0.2-0.1-0.3-0.1-0.5-0.1s-0.3-0.1-0.5-0.1c-0.2-0.1-0.4-0.1-0.5-0.3-0.3-0.3-0.4-0.6-0.5-1-0.1-0.3-0.1-0.5-0.1-0.8-0.2-0.5-0.2-0.9-0.2-1.4 0-0.4-0.1-0.7-0.1-1.1v-1c0-0.4 0.1-0.7 0.1-1.1v-0.4-0.6c0-0.3 0.1-0.5 0-0.9-0.1-0.3-0.3-0.5-0.3-0.8-0.1-0.4 0.2-0.6 0-0.9-0.1-0.1-0.2-0.1-0.3-0.3-0.2-0.3-0.1-0.5-0.1-0.8h0.3c0-0.3-0.1-0.4-0.1-0.7-0.1-0.4-0.2-0.6-0.3-0.9-0.1-0.4-0.1-0.7-0.3-1.1-0.1-0.3 0-0.7-0.3-0.9-0.2-0.2-0.5 0-0.7-0.1s-0.3-0.3-0.4-0.5c-0.2-0.3 0-0.6-0.1-0.9-0.4-0.4-0.5-0.5-0.8-0.7-0.2-0.2-0.5-0.1-0.7-0.3s-0.1-0.5-0.1-0.7c0-0.3-0.1-0.5 0-0.7 0.1-0.4 0.6-0.4 0.9-0.8 0.2-0.3 0.3-0.4 0.4-0.7 0.1-0.4 0.1-0.7 0-1.1s-0.5-0.6-0.5-1c0.1-0.4 0.5-0.4 0.7-0.8 0.1-0.3 0.1-0.5 0.1-0.7 0-0.3-0.2-0.4-0.3-0.6l-0.1-0.1c-0.5 0.1-0.7-0.2-1.1-0.3s-0.6-0.2-0.9-0.3l-0.6 0.2c-0.3-0.1-0.4-0.4-0.7-0.2-0.2 0.1-0.1 0.3-0.2 0.5-0.2 0.2-0.6-0.1-0.8 0.1-0.1 0.1-0.1 0.4-0.3 0.4s-0.2-0.1-0.4-0.2c-0.3-0.1-0.4-0.3-0.7-0.3-0.4-0.1-0.7-0.1-1.1-0.1h-1.1c-0.5 0-0.8-0.2-1.2 0.1-0.2 0.1-0.2 0.3-0.3 0.5-0.3 0.2-0.5 0.1-0.8 0.1-0.4 0.1-0.7 0-1.1 0.1-0.3 0-0.5 0-0.9 0.1-0.3 0-0.5 0-0.7 0.2-0.3 0.2-0.1 0.7-0.5 0.9-0.3 0.2-0.6-0.1-1-0.1-0.3 0-0.5 0-0.8 0.1s-0.4 0.1-0.7 0.3c-0.2 0.1-0.3 0.2-0.5 0.4-0.3 0.2-0.3 0.5-0.7 0.6v0.1c0.1 0.3 0 0.5 0.1 0.8 0.1 0.4 0.5 0.5 0.5 0.9 0.1 0.4-0.1 0.6-0.1 0.9 0 0.2 0.1 0.3 0.1 0.5 0.1 0.4 0 0.7 0 1.1s-0.2 0.7 0.1 1c0.2 0.3 0.6 0.1 0.7 0.4 0 0.2-0.1 0.4-0.3 0.5-0.2 0.2-0.3 0.3-0.5 0.4-0.3 0.1-0.5-0.2-0.8-0.2h-0.8c-0.6 0.1-1 0.2-1.3 0.6-0.2 0.3-0.3 0.5-0.3 0.8-0.1 0.5 0.6 0.7 0.3 1.1-0.2 0.4-0.6 0.2-1 0.4-0.3 0.1-0.4 0.4-0.7 0.4-0.2 0-0.4-0.2-0.6-0.1-0.4 0-0.5 0.4-0.8 0.6s-0.6 0.3-0.9 0.4-0.5 0.1-0.9 0.2-0.6 0.3-1 0.5c-0.3 0.2-0.6 0.2-0.9 0.4s-0.4 0.5-0.8 0.6c-0.2 0.1-0.3 0-0.5 0.1-0.3 0.1-0.3 0.3-0.5 0.5-0.2 0.1-0.3 0.2-0.5 0.3v1 0.8l-0.1-0.1 6.5 5.5-0.1 0.1 10.4 7.7c-0.2 0.2-0.2 0.5 0 0.7 0.1 0.2 0.3 0 0.5 0.2 0.1 0.1 0.1 0.2 0.1 0.3l1.1 0.3c0.1 0.2 0 0.5 0.2 0.6s0.4 0 0.6 0c0.3 0 0.5 0.1 0.7 0.3 0.3 0.3 0.1 0.6 0.1 0.9 0 0.2-0.1 0.4 0 0.5 0.3 0.6 0.5 0.6 0.7 0.6 0.3 0.1 0.5 0 0.9-0.1l-0.1-0.1 1.5-0.5c0.6-0.2 1 0 1.5-0.3 0.2-0.1 0.3-0.2 0.5-0.3l1.5-1c0.5-0.4 0.7-0.6 1.1-1 0.6-0.5 0.9-0.7 1.5-1.2 0.4-0.5 0.5-0.8 1.1-1.2"/>
<path class="st0" d="m93.9 11.8c-0.1 0-0.2 0-0.3 0.1-0.2 0.1-0.2 0.2-0.4 0.4-0.3 0.2-0.5 0.1-0.8 0.3s-0.2 0.6-0.5 0.8-0.6 0.1-1 0.1c-0.6 0-0.9-0.2-1.4-0.3-0.4-0.1-0.6 0-1-0.2-0.3-0.1-0.4-0.3-0.8-0.5-0.2-0.1-0.4-0.1-0.6-0.2-0.4-0.1-0.7-0.1-1.1-0.2-0.3-0.1-0.4-0.2-0.7-0.1-0.2 0.1-0.1 0.4-0.3 0.4-0.3 0-0.3-0.3-0.5-0.5h-0.3l-0.3 0.3c-0.1 0.3-0.1 0.5-0.1 0.8 0 0.2 0 0.3 0.1 0.5 0.1 0.9 0.3 1.4 0.4 2.3 0 0.2 0 0.4 0.1 0.6l0.7 14.6 0.1 0.1 14.1 0.1c0.1 0.2 0.2 0.2 0.3 0.4s0 0.4 0.3 0.5c0.2 0 0.3-0.2 0.4-0.3 0.3-0.3 0.2-0.6 0.5-0.9 0.1-0.1 0.3-0.1 0.4-0.2s0.2-0.1 0.3-0.3c0.2-0.2-0.1-0.6 0.1-0.8s0.4 0 0.6-0.1c0.3-0.1 0.4-0.2 0.6-0.3s0.3-0.2 0.5-0.3l-0.1-0.1c-0.2-0.3-0.2-0.5-0.2-0.8-0.1-0.5 0.4-0.9 0.1-1.3-0.2-0.2-0.4-0.1-0.6-0.3-0.2-0.3-0.1-0.5-0.2-0.9-0.2-0.4-0.3-0.6-0.5-0.9l-0.3-0.6c-0.2-0.4-0.5-0.4-0.7-0.8-0.1-0.2-0.1-0.3-0.2-0.4-0.1-0.2-0.3-0.3-0.5-0.5s-0.4-0.3-0.5-0.7c-0.1-0.3 0-0.5 0-0.8 0-0.2 0-0.4-0.1-0.6-0.1-0.3-0.4-0.3-0.6-0.5s-0.3-0.4-0.5-0.7-0.4-0.4-0.6-0.7c-0.3-0.4-0.3-0.6-0.5-1-0.1-0.3-0.2-0.5-0.3-0.8-0.1-0.4-0.3-0.6-0.2-0.9 0-0.1 0.1-0.3 0.2-0.3l-1.3-2.8c0.2 0 0.6 0.1 1.1 0.1-0.3-0.1-0.6-0.1-0.9-0.3-0.5-0.1-0.7-0.3-1.2-0.3-0.3 0-0.5-0.2-0.8-0.2z"/>
<path class="st0" d="m63 69.8h0.6c0.5 0 0.7 0.1 1.2 0.1 0.3 0 0.5 0.1 0.8 0.1h0.7s0.5 0 0.7 0c0.4 0.1 0.6 0.2 0.9 0.3 0.2 0.1 0.3 0.1 0.5 0.3s0 0.6 0.3 0.8c0.2 0.2 0.5 0.3 0.7 0.2s0.4-0.2 0.5-0.4 0.1-0.4 0.1-0.6v-0.7c-0.2-0.5-0.3-0.8-0.5-1.3-0.1-0.3-0.2-0.5-0.3-0.8-0.1-0.4-0.2-0.6-0.4-1s-0.5-0.6-0.8-0.9c-0.2-0.3-0.5-0.3-0.6-0.7-0.1-0.3 0-0.5-0.1-0.7s-0.4-0.3-0.3-0.5c0.1-0.1 0.3 0 0.4-0.1 0.3-0.2 0.1-0.6 0-0.9-0.1-0.2-0.4-0.3-0.3-0.5s0.4-0.1 0.5-0.2c0.2-0.1 0.3-0.2 0.4-0.4 0.2-0.3 0-0.6 0.1-0.9s0.3-0.4 0.4-0.6c0-0.1 0.1-0.1 0.1-0.2 0.1-0.2 0.2-0.3 0.3-0.5v-0.1c-0.2-0.4-0.3-0.6-0.4-1-0.1-0.3 0-0.4-0.1-0.7-0.2-0.4-0.6-0.4-1-0.7-0.2-0.1-0.3-0.1-0.5-0.3s-0.1-0.4-0.2-0.6c-0.1-0.3-0.4-0.3-0.5-0.6 0-0.3 0-0.5 0.3-0.7 0.2-0.2 0.5-0.1 0.7-0.1 0.4 0 0.6 0.1 0.9 0.1 0.2 0 0.5 0.1 0.6-0.1 0.2-0.3-0.1-0.5-0.3-0.7-0.1-0.1-0.2-0.1-0.3-0.2-0.2-0.2-0.2-0.4-0.3-0.7-0.1-0.5 0.5-0.8 0.3-1.3-0.1-0.1-0.1-0.2-0.2-0.3-0.1-0.2-0.2-0.4-0.2-0.7-0.1-0.3 0-0.5-0.1-0.7-0.1-0.3-0.4-0.4-0.6-0.7s-0.2-0.6-0.5-0.7c-0.2 0-0.3 0-0.5 0.1h0.2v0.5c0 0.2 0 0.4 0.2 0.5 0.1 0.1 0.3 0 0.4 0.1 0.2 0.1 0.3 0.3 0.3 0.6 0.1 0.3 0 0.5-0.1 0.8s-0.1 0.7-0.5 0.7c-0.2 0-0.2-0.2-0.4-0.1-0.3 0-0.2 0.4-0.3 0.7-0.1 0.2-0.3 0.3-0.4 0.6-0.1 0.2 0 0.4-0.1 0.7-0.1 0.2-0.4 0.2-0.5 0.5s0.2 0.6 0 0.9c-0.2 0.2-0.4 0-0.5 0.2-0.2 0.2-0.1 0.5-0.1 0.7-0.1 0.2-0.1 0.4-0.2 0.6-0.2 0.2-0.4 0.2-0.6 0.5-0.1 0.2-0.2 0.3-0.3 0.5-0.2 0.4-0.2 0.6-0.3 1l-0.3 0.6c-0.1 0.2-0.1 0.4-0.1 0.6v0.1c0 0.2-0.1 0.4-0.2 0.6-0.1 0.3-0.2 0.7-0.5 0.6-0.2 0-0.2-0.2-0.3-0.3-0.3-0.2-0.3-0.5-0.7-0.5-0.2 0-0.3 0.1-0.5 0.1s-0.2-0.2-0.4-0.3c-0.4-0.1-0.4 0.4-0.7 0.7-0.2 0.2-0.2 0.4-0.4 0.5-0.2 0.2-0.4 0.2-0.6 0.4l-0.5 0.5c-0.2 0.2-0.3 0.3-0.3 0.6-0.1 0.2 0 0.4 0 0.6s-0.1 0.4-0.2 0.5c-0.1 0.2-0.3 0.2-0.4 0.4-0.1 0.1-0.1 0.2-0.2 0.3l-0.1 0.3c0.2 0 0.3 0 0.5 0.1 0.3 0.1 0.3 0.3 0.5 0.5 0.3 0.3 0.5 0.5 0.7 0.9 0.3 0.4 0.4 0.6 0.6 1.1 0.2 0.4 0.2 0.7 0.2 1.1 0 0.5 0.1 0.7 0 1.2l0.2-0.1c0.3 0 0.5 0.1 0.7 0.1 0.4 0 0.6 0 1-0.1 0.3 0 0.5 0 0.8-0.1l0.1 0.1c0.2-0.1 0.2-0.2 0.4-0.3 0.3-0.1 0.6 0 0.9 0"/>
<path class="st0" d="m27.9 56.8c-0.1-0.2 0.3-0.3 0.3-0.6 0-0.2-0.3-0.3-0.3-0.5-0.1-0.2-0.1-0.4-0.1-0.6 0-0.4 0-0.6 0.1-0.9l0.1-0.1c-0.2-0.2-0.5-0.3-0.5-0.6-0.1-0.3 0.4-0.6 0.1-0.8-0.1-0.1-0.2-0.1-0.3-0.1-0.3-0.2-0.1-0.6-0.3-0.9-0.1-0.2-0.3-0.2-0.5-0.5s0.1-0.6-0.1-0.9c-0.1-0.2-0.2-0.3-0.3-0.3-0.3-0.1-0.3 0.3-0.5 0.5-0.3 0.2-0.4 0.2-0.7 0.3-0.4 0-0.6-0.3-0.9-0.1-0.2 0.1-0.2 0.6-0.5 0.5-0.2-0.1-0.1-0.3-0.2-0.4-0.2-0.2-0.4-0.1-0.7-0.1-0.2 0-0.3-0.1-0.5-0.1-0.3-0.1-0.3-0.3-0.6-0.4s-0.4 0.1-0.7 0.1c-0.4 0-0.7 0-1.1-0.1-0.3-0.1-0.3-0.3-0.6-0.3-0.3-0.1-0.4-0.1-0.7-0.1v0.3c0 0.1-0.2 0.2-0.2 0.3-0.1 0.3 0.1 0.5 0.1 0.7s-0.1 0.3-0.2 0.4c-0.2 0.2-0.5-0.1-0.8 0.1-0.2 0.1-0.2 0.2-0.3 0.3-0.3 0.2-0.5 0.2-0.7 0.5-0.2 0.2-0.2 0.4-0.3 0.6 0.1 0 0.2 0.1 0.3 0.2 0.3 0.3 0.3 0.6 0.5 0.9l0.3 0.6c0.1 0.2 0 0.4 0.1 0.5 0.2 0.2 0.5 0 0.7 0.1 0.1 0.1 0.1 0.3 0.3 0.4l0.3 0.3c0.1 0.1 0.3 0.1 0.4 0.3 0.1 0.1 0.1 0.3 0 0.4l-0.1 0.1c0.3-0.1 0.5 0 0.8-0.1 0.3-0.2 0.3-0.4 0.5-0.7s0.3-0.7 0.7-0.8c0.2 0 0.3 0.1 0.5 0.1 0.4 0 0.5-0.3 0.9-0.3 0.3 0 0.4 0.2 0.6 0.3s0.5 0.1 0.6 0.3c0.2 0.2 0 0.5 0.1 0.7s0.4 0.3 0.4 0.5 0 0.3-0.1 0.4c-0.1 0.2-0.6 0.2-0.5 0.5 0.1 0.2 0.3 0.1 0.5 0.2h0.1c0.1-0.1 0.2-0.1 0.3-0.2 0.3-0.1 0.6-0.3 0.9-0.1-0.1 0-0.1 0.2-0.1 0.4 0.1 0.4 0 0.7 0.1 1.1 0.1 0.3 0 0.6 0.3 0.8 0.2 0.2 0.4 0.2 0.7 0.1s0.1-0.6 0.4-0.8 0.5 0 0.8 0h0.3c0.1-0.2 0.4-0.2 0.4-0.5 0-0.2-0.1-0.3-0.2-0.5-0.2-0.3-0.7-0.3-0.5-0.5 0.1-0.2 0.4 0 0.6 0s0.5 0.2 0.6 0c0.2-0.2 0-0.4-0.1-0.6-0.2-0.2-0.5-0.1-0.5-0.3"/>
<path class="st0" d="m17.9 49.4h0.2-0.2"/>
<path class="st0" d="m15.6 52.7v0 0"/>
<path class="st0" d="m43.4 60.7c0-0.4 0.1-0.6 0.1-1v-0.9c0-0.4 0-0.7-0.1-1.1-0.1-0.5-0.2-0.8-0.2-1.3v-0.9c0-0.3-0.1-0.5-0.1-0.9v-0.9c0-0.3-0.1-0.5-0.2-0.9l-0.1-0.2h-0.7c-0.3 0-0.5-0.2-0.8-0.1s-0.3 0.5-0.6 0.5c-0.1 0-0.2 0-0.3-0.1-0.2-0.1-0.4-0.1-0.6-0.2-0.5-0.1-0.8-0.1-1.3-0.1s-0.9-0.2-1.3 0.1c-0.3 0.2-0.4 0.4-0.5 0.7s0 0.4 0.1 0.7c0.1 0.4 0.5 0.6 0.3 0.9-0.1 0.2-0.2 0.3-0.4 0.5l0.1 0.1c0.2 0.2 0.4 0.3 0.5 0.6 0.1 0.4-0.3 0.6-0.5 0.9-0.1 0.2-0.2 0.3-0.3 0.5-0.1 0.4 0.1 0.7 0.1 1.1 0 0.3 0 0.5-0.1 0.9s0 0.6-0.2 0.9c-0.1 0.2-0.2 0.3-0.3 0.5-0.2 0.4-0.1 0.7-0.1 1.1 0.1 0.4 0.1 0.7 0.3 1 0.2 0.2 0.4 0.3 0.5 0.5 0.1 0.3 0 0.5-0.1 0.7v0.1c0.2 0.1 0.3 0.1 0.5 0.3 0.2 0.1 0.2 0.3 0.4 0.4 0.3 0.1 0.4-0.3 0.7-0.4 0.4-0.1 0.6 0 1-0.2 0.3-0.1 0.4-0.3 0.7-0.5 0.2-0.1 0.3-0.2 0.5-0.3s0.3 0 0.5-0.1 0.3-0.3 0.5-0.4c0.3-0.2 0.5-0.1 0.9-0.2 0.2 0 0.4 0 0.6-0.1 0.3-0.1 0.5 0 0.7-0.2 0.1-0.1 0-0.3 0.1-0.4v-0.1c-0.2-0.3-0.3-0.4-0.4-0.7 0.1-0.3 0.1-0.5 0.1-0.8"/>
<path class="st0" d="m63.9 84c0.3-0.2 0.5-0.1 0.9-0.1h0.6l0.3-0.3c-0.1-0.3-0.1-0.5-0.3-0.7-0.2-0.1-0.4 0-0.6 0-0.3 0.1-0.4 0.2-0.7 0.3-0.3 0.2-0.4 0.4-0.7 0.5-0.2 0.1-0.4 0-0.6 0.2-0.1 0.1-0.1 0.3-0.1 0.5l-0.2 0.1s0 0.1 0.1 0.1c0.1 0.3 0.2 0.4 0.3 0.7v0.4l0.2-0.1c0.2-0.1 0.3-0.1 0.4-0.2 0.2-0.2 0-0.5 0.1-0.9 0-0.1 0.1-0.4 0.3-0.5"/>
<path class="st0" d="m83.3 98.5v-0.2c0-0.3 0-0.5 0.1-0.9v-0.9-0.1c-0.3-0.1-0.5-0.2-0.8-0.2-0.4 0-0.6 0.4-0.9 0.3-0.2 0-0.3-0.1-0.5-0.1-0.3 0-0.6 0.3-0.7 0-0.1-0.1 0-0.2 0-0.3 0-0.3 0.1-0.4 0.1-0.7 0-0.4-0.1-0.6-0.2-1-0.2-0.4-0.6-0.5-0.7-1-0.1-0.4 0.2-0.7 0.2-1.1 0.1-0.5 0.1-0.8 0-1.3-0.1-0.2-0.2-0.4-0.2-0.6-0.1-0.4 0-0.6 0-1 0-0.2 0.1-0.3 0-0.5-0.2-0.3-0.5 0-0.9 0s-0.7 0.3-0.9 0c-0.1-0.2 0-0.3-0.1-0.5-0.2-0.2-0.5-0.1-0.7-0.1-0.4 0-0.7-0.2-1 0.1-0.2 0.2-0.1 0.4-0.2 0.6s-0.3 0.3-0.3 0.5c-0.1 0.2 0.2 0.5 0 0.7-0.1 0.1-0.3 0.1-0.5 0.1h-0.9c-0.3 0-0.4-0.1-0.7 0s-0.3 0.3-0.6 0.3c-0.4 0.1-0.7-0.2-1-0.5-0.2-0.3-0.1-0.5-0.3-0.8-0.1-0.2-0.2-0.2-0.3-0.4-0.2-0.3-0.1-0.6-0.1-0.9-0.1-0.3-0.2-0.4-0.2-0.7 0-0.2 0.1-0.4 0.1-0.6 0-0.1-0.1-0.2-0.2-0.3-0.2-0.2-0.5-0.1-0.7-0.1-0.5 0-0.8 0.1-1.3 0.1-0.4 0-0.6-0.1-1-0.1h-1c-0.5 0-0.7 0.1-1.2 0.1-0.4 0-0.6-0.2-0.9-0.1s-0.2 0.5-0.5 0.5h-0.3l-0.2-0.1c-0.1 0.1-0.4 0.2-0.5 0.3-0.1 0.4 0.1 0.6 0.3 0.9 0.1 0.2 0.2 0.2 0.3 0.4 0.2 0.4 0.1 0.7 0.3 1.1 0.1 0.3 0.2 0.5 0.4 0.8 0.1 0.2 0.2 0.3 0.3 0.5 0.2 0.4 0.4 0.7 0.3 1.1-0.1 0.2-0.2 0.3-0.3 0.5-0.2 0.3-0.2 0.6-0.2 0.9 0 0.4 0.2 0.7 0.4 1.1 0.1 0.3 0.3 0.5 0.4 0.9 0.1 0.3 0.2 0.5 0.3 0.8 0.1 0.4 0.3 0.6 0.3 1.1s-0.1 0.9-0.5 1.2c0 0-0.1 0-0.1 0.1l-0.6 0.3c-0.2 0.1-0.3 0.2-0.4 0.4-0.3 0.4-0.4 0.7-0.5 1.2-0.1 0.3 0.1 0.6-0.1 0.9-0.1 0.2-0.2 0.2-0.3 0.4-0.2 0.3-0.1 0.6-0.1 1 0 0.3 0 0.5-0.1 0.9 0 0.2-0.1 0.3-0.1 0.5-0.1 0.3-0.3 0.4-0.5 0.7s-0.2 0.5-0.3 0.9c-0.1 0.5 0 0.8-0.1 1.3 0 0.5-0.1 0.7-0.1 1.2 0 0.2-0.1 0.5-0.1 0.7l0.1 0.1c0.3 0.1 0.5 0.3 0.8 0.3 0.2 0 0.4-0.1 0.6-0.2 0.3-0.1 0.4-0.4 0.7-0.4 0.2 0 0.2 0.1 0.4 0.1 0.3 0.1 0.4 0.2 0.7 0.3s0.4 0.2 0.7 0.3c0.5 0.1 0.8-0.1 1.3-0.1h1.3 1.4c0.4 0 0.6 0.1 1 0.1 0.5 0 0.7-0.1 1.2-0.1 0.4 0 0.8-0.1 1.1 0.1 0.3 0.1 0.3 0.3 0.5 0.5s0.2 0.3 0.5 0.5c0.4 0.2 0.8-0.1 1.3-0.1 0.6 0 0.9 0 1.4 0.2 0.2 0.1 0.3 0.2 0.5 0.2 0.3 0.1 0.4 0 0.7 0 0.2 0 0.3-0.1 0.5-0.1 0.6-0.1 0.9-0.2 1.5-0.3 0.4-0.1 0.6-0.1 0.9-0.2 0.2-0.1 0.4-0.1 0.6-0.2v-0.1l-2.2-2.8v-2c0-0.8 0-1.2 0.1-2 0.1-0.5 0.1-0.8 0.2-1.3 0-0.4-0.2-0.7 0.1-0.9 0.2-0.1 0.4-0.1 0.6-0.1h1.1 0.9c0.4 0 0.8 0.3 1 0 0.1-0.3-0.1-0.4-0.1-0.7-0.4-0.7-0.3-0.9-0.3-1.4"/>
<path class="st0" d="m111.3 95c-0.3-0.3-0.3-0.6-0.4-1s0.1-0.6-0.1-1c-0.1-0.3-0.2-0.4-0.3-0.6-0.1-0.3-0.1-0.6-0.1-0.9s-0.1-0.4-0.1-0.7 0-0.6 0.1-0.9 0.3-0.4 0.4-0.7 0-0.6-0.1-0.9c-0.1-0.2-0.2-0.3-0.4-0.5s-0.5-0.3-0.5-0.6 0.1-0.4 0.2-0.7c0.1-0.1 0.1-0.2 0.1-0.3s0.1-0.1 0.1-0.2c0.3-0.3 0.5-0.3 0.9-0.4 0.2 0 0.4 0.2 0.6 0 0.2-0.1 0.1-0.3 0.1-0.5 0-0.3 0-0.5-0.3-0.7-0.1-0.1-0.2-0.1-0.3-0.1-0.1-0.1-0.3 0-0.3-0.1h-0.1c-0.2-0.1-0.4-0.1-0.6-0.2-0.3-0.1-0.5-0.2-0.9-0.4s-0.6-0.3-0.9-0.5c-0.4-0.4-0.7-0.7-0.9-1.2-0.2-0.4 0.2-0.8-0.1-1.2-0.3-0.3-0.6-0.3-0.9-0.5-0.5-0.3-0.7-0.4-1.1-0.8s-0.5-0.7-0.9-1c-0.6-0.4-1.1-0.3-1.7-0.5s-0.8-0.5-1.3-0.7l0.1-0.3c0.1-0.2-0.1-0.4-0.1-0.6 0.1-0.2 0.2-0.2 0.3-0.4s0.4-0.2 0.3-0.5c0-0.2-0.3-0.2-0.5-0.3s-0.3-0.1-0.5-0.3c-0.2-0.1-0.2-0.4-0.5-0.4-0.2 0-0.3 0.1-0.5 0.1-0.3 0.1-0.5 0.2-0.9 0.3-0.3 0.1-0.5 0.1-0.7 0.3s-0.2 0.3-0.3 0.5c-0.1 0.3-0.1 0.5-0.1 0.8-0.1 0.3-0.2 0.4-0.2 0.7h-0.2-0.5c-0.5 0-0.7-0.2-1.2-0.1-0.3 0.1-0.5 0.2-0.8 0.3l0.2 0.3c0.3 0.2 0.5 0.2 0.7 0.5 0.1 0.2 0.1 0.3 0.1 0.5 0 0.3 0.1 0.5 0 0.7s-0.2 0.4-0.4 0.4-0.2-0.4-0.4-0.4l0.1 0.5c0 0.3-0.1 0.5 0.1 0.8 0.1 0.2 0.3 0.2 0.3 0.4 0 0.3-0.4 0.2-0.5 0.5-0.2 0.3 0 0.5-0.1 0.9 0 0.2 0 0.4-0.1 0.6-0.1 0.3-0.4 0.4-0.7 0.5-0.2 0.1-0.3 0.1-0.4 0.1-0.1-0.1-0.1-0.2-0.2-0.3-0.1-0.3-0.2-0.4-0.4-0.7-0.1-0.2-0.1-0.4-0.3-0.4-0.1 0-0.2 0.1-0.3 0.2-0.2 0.3 0.2 0.6 0.3 0.9s0.1 0.4 0.1 0.7v0.7c0 0.6 0.1 0.9 0.1 1.4v0.2 0.8c0 0.3 0 0.4 0.1 0.7 0.1 0.2 0.1 0.4 0.2 0.5 0.2 0.2 0.4 0.1 0.6 0.3 0.3 0.3 0.2 0.6 0.3 0.9 0.1 0.4 0.2 0.6 0.3 0.9 0.1 0.2 0.1 0.4 0.3 0.6 0.1 0.2 0.3 0.3 0.4 0.6 0.1 0.2-0.1 0.3 0.1 0.4 0.1 0.1 0.2 0 0.3 0 0.2 0 0.4 0 0.5-0.2l0.1 0.1c0.4 0.2 0.6 0.3 0.9 0.5 0.5 0.3 0.8 0.4 1.3 0.7 0.4 0.2 0.6 0.2 0.9 0.4 0.3 0.1 0.5 0.2 0.8 0.3 0.3-0.2 0.5 0.1 0.8 0.2 0.2 0.1 0.4 0.3 0.5 0.5 0.2 0.2 0.2 0.3 0.3 0.5 0.1 0.3 0 0.5 0.1 0.9 0 0.4-0.1 0.7 0.1 1 0.1 0.2 0.3 0.2 0.3 0.3 0.1 0.1 0.1 0.2 0.1 0.4l-0.1 0.2c0.1 0 0.2 0 0.3-0.1 0.3-0.1 0.5 0 0.8-0.1 0.2 0 0.4-0.2 0.6-0.1 0.1 0.1 0.1 0.2 0.3 0.3s0.4 0.1 0.6 0.1c0.2-0.1 0.2-0.2 0.4-0.3 0.2 0 0.3 0.1 0.5 0.1 0.3 0.1 0.4 0.3 0.7 0.2s0.3-0.3 0.5-0.5 0.2-0.4 0.5-0.5c0.2 0 0.3 0 0.5 0.1s0.3 0.3 0.5 0.3c0.3-0.1 0.1-0.5 0.3-0.6 0.2-0.2 0.5 0 0.7 0s0.3 0.1 0.4 0c0.2-0.1 0.1-0.4 0.3-0.5 0.2 0 0.2 0.2 0.4 0.1 0.2 0 0.2-0.1 0.3-0.2 0.2-0.2 0.2-0.3 0.4-0.5l0.3-0.3-0.1-0.1c-0.1 0.1-0.3 0-0.5-0.2"/>
<path class="st0" d="m100.6 93.9c-0.1 0-0.1-0.1-0.2-0.1l0.2 0.1"/>
<path class="st0" d="m125.3 58.9c-0.4-0.1-0.6 0-1 0.1-0.4 0-0.6 0.2-0.9 0.1s-0.2-0.4-0.5-0.5c-0.2-0.1-0.3-0.1-0.5-0.2-0.5-0.2-0.9-0.2-1.4-0.4-0.5-0.1-0.7-0.2-1.2-0.3-0.4-0.1-0.6-0.2-1-0.3s-0.6 0-0.9-0.3c-0.1 0-0.1-0.1-0.2-0.1-0.2-0.2-0.3-0.5-0.4-0.8-0.1-0.5 0.3-0.9 0.1-1.3-0.2-0.3-0.4-0.3-0.6-0.5-0.2-0.3-0.2-0.5-0.3-0.8l0.2-0.1c-0.3 0 0-0.6-0.3-0.6-0.2 0-0.2 0.5-0.4 0.5s-0.2-0.2-0.3-0.2c-0.2 0-0.2 0.4-0.5 0.3-0.2 0-0.2-0.2-0.3-0.4-0.2-0.4-0.1-0.7 0-1.1s0.3-0.5 0.5-0.9c0.2-0.3 0.1-0.6 0.4-0.7h-0.3c-0.2-0.2-0.3-0.3-0.4-0.5-0.2-0.3-0.1-0.5-0.3-0.8s-0.4-0.4-0.6-0.6l-0.7-0.7c-0.2-0.2-0.4-0.3-0.6-0.5-0.3-0.2-0.6-0.3-0.9-0.4-0.2-0.1-0.4 0-0.6-0.1s-0.2-0.3-0.4-0.3c-0.2-0.1-0.4 0.1-0.6 0.2s-0.3 0.2-0.5 0.3c-0.3 0.1-0.5 0.4-0.8 0.3-0.2-0.1-0.2-0.4-0.3-0.6-0.2-0.2-0.2-0.4-0.5-0.5-0.4-0.1-0.5 0.4-0.6 0.7s0 0.5-0.1 0.7-0.1 0.3-0.3 0.4-0.3-0.1-0.5-0.1h-0.7c-0.3 0-0.5 0-0.8 0.1v-0.1c0 0.3 0 0.5-0.1 0.9-0.1 0.3 0 0.6-0.3 0.8-0.2 0.2-0.5 0-0.7 0.1s-0.1 0.3-0.3 0.5c-0.2 0.3-0.6 0.3-0.6 0.6 0 0.2 0.2 0.3 0.1 0.5s-0.3 0.1-0.4 0.2c-0.2 0.2-0.1 0.5-0.1 0.8s0.1 0.4 0 0.7c-0.1 0.2-0.2 0.3-0.4 0.5s-0.5 0-0.7 0.3c-0.2 0.2-0.1 0.5-0.2 0.8-0.1 0.2-0.1 0.4-0.2 0.6-0.1 0.5-0.1 0.9-0.1 1.4 0 0.2 0.1 0.4 0.1 0.6v0.4c0 0.2 0.1 0.4-0.1 0.6-0.1 0.2-0.3 0.2-0.5 0.2s-0.3-0.2-0.5-0.2-0.3 0-0.4 0.1c-0.3 0.2 0 0.5-0.1 0.9 0 0.1-0.1 0.2-0.1 0.3 0.1 0.3 0.4 0.1 0.7 0.3 0.4 0.2 0.6 0.3 0.9 0.6 0.2 0.2 0.2 0.4 0.4 0.7 0.2 0.2 0.4 0.3 0.6 0.5s0.4 0.2 0.5 0.4c0.2 0.3 0 0.5 0.1 0.8s0.1 0.4 0.2 0.7 0.2 0.5 0.5 0.6c0.2 0.1 0.4 0 0.6 0.1s0.2 0.3 0.3 0.5 0.1 0.3 0.1 0.5c0 0.3-0.1 0.4-0.2 0.7l0.2 0.1c0.3 0.1 0.5 0.2 0.9 0.2h0.8c0.2 0 0.3 0.1 0.5 0.1 0.3 0.1 0.5 0.3 0.7 0.5 0.3 0.2 0.4 0.5 0.7 0.7 0.2 0.1 0.3 0.2 0.5 0.3 0.3 0.1 0.5-0.1 0.8-0.1 0.2 0 0.3 0 0.5 0.1s0.2 0.3 0.4 0.3c0.2 0.1 0.4 0.1 0.6 0 0.3-0.1 0.3-0.4 0.5-0.7 0.1-0.2 0.2-0.3 0.3-0.4 0.2-0.2 0.4-0.2 0.7-0.3 0.1-0.1 0.2-0.3 0.3-0.3 0.2 0 0.2 0.3 0.4 0.5 0.3 0.2 0.5 0.3 0.8 0.3s0.4-0.1 0.7-0.2h0.1c0.3-0.1 0.4-0.2 0.7-0.3s0.6 0.1 0.9-0.1c0.2-0.1 0.3-0.2 0.5-0.4l0.5-0.5c0.1-0.2 0.1-0.3 0.3-0.4 0.2-0.2 0.4-0.1 0.7-0.1 0.4 0 0.6 0.1 1 0.1 0.3 0 0.4 0.1 0.7 0 0.2 0 0.3-0.1 0.4-0.2 0.2-0.2 0.2-0.4 0.4-0.6 0.2-0.3 0.3-0.5 0.6-0.8s0.5-0.3 0.8-0.6 0.4-0.5 0.6-0.8 0.4-0.5 0.6-0.7c0.2-0.3 0.3-0.5 0.6-0.7 0.3-0.3 0.5-0.4 0.7-0.7 0.2-0.2 0.3-0.3 0.4-0.5 0.1-0.1 0.2-0.2 0.1-0.3 0.3-0.5 0.1-0.5 0-0.5"/>
<path class="st0" d="m110.3 86.7c-0.2 0.1-0.1 0.3 0 0.5 0.1 0.1 0.1 0.3 0.3 0.3s0.1-0.3 0.1-0.5-0.2-0.3-0.4-0.3"/>
<path class="st0" d="m32.4 44c0.1 0 0.2-0.1 0.3-0.2 0.2-0.2 0.1-0.4 0.1-0.6 0.1-0.2 0.3-0.3 0.3-0.5 0-0.3-0.1-0.5-0.3-0.6s-0.3-0.1-0.5-0.1l-0.3-5.4-0.5-6.9-0.2-4.6 2.5-0.1 0.2 0.1-6.4-5.4v3.3h-5.7l-0.1 5.2c-0.2 0-0.4 0.1-0.6 0.1-0.3 0.1-0.5 0-0.8 0.2-0.2 0.1-0.3 0.2-0.4 0.4-0.2 0.3-0.2 0.5-0.1 0.8v2.5h-7l-0.3-0.2 0.3 0.7c0.1 0.2 0.1 0.4 0.3 0.6s0.4 0.2 0.6 0.5 0.2 0.6 0.3 0.9c0 0.3 0.1 0.6-0.1 0.9-0.1 0.2-0.4 0.2-0.5 0.4-0.1 0.3 0.1 0.5 0.1 0.8l0.1-0.1c0.2 0.2 0.2 0.3 0.4 0.4 0.2 0.2 0.5 0.2 0.5 0.4s-0.2 0.2-0.3 0.4v0.4c0 0.4 0.2 0.6 0.1 1-0.1 0.5-0.5 0.7-0.6 1.2-0.1 0.2 0 0.4-0.1 0.6-0.1 0.4-0.2 0.7-0.3 1v0.1c0.2-0.2 0.2-0.5 0.4-0.6 0.3-0.1 0.5 0.1 0.7 0 0.3-0.1 0.4-0.1 0.7-0.3 0.2-0.1 0.3-0.2 0.5-0.3 0.3 0 0.4 0.2 0.7 0.3 0.4 0.1 0.6-0.2 0.9 0.1 0.3 0.2 0.1 0.6 0.3 0.7 0.2 0.2 0.4 0 0.7 0.1 0.2 0.1 0.3 0.1 0.4 0.3s-0.1 0.3-0.1 0.5c0.1 0.3 0.6 0.1 0.7 0.3 0.1 0.1 0 0.3 0.1 0.4 0.1 0.3 0.4 0.4 0.6 0.7 0.2 0.2 0.3 0.3 0.4 0.5l0.3 0.1c0.2-0.1 0.5 0 0.6-0.2 0.2-0.2 0-0.4 0-0.7 0-0.2 0-0.4 0.1-0.5l0.3-0.3c0.2-0.1 0.4 0 0.5 0.1 0.2 0.2 0 0.5 0.3 0.6 0.2 0.1 0.3-0.1 0.5-0.2s0.2-0.4 0.5-0.4c0.2 0 0.3 0.1 0.5 0.1 0.2 0.1 0.3 0.3 0.5 0.3s0.3-0.1 0.5-0.3 0.2-0.4 0.5-0.5c0.3 0 0.5 0.1 0.6 0.4l5.6 0.1 0.7 0.5"/>
<polyline class="st0" points="27.4 19.6 27.6 19.7 27.6 19.7 27.4 19.6"/>
<path class="st0" d="m70.3 81.3c0.1-0.2 0.1-0.3 0.1-0.5v-0.9c0-0.3 0-0.5-0.1-0.7 0-0.2-0.1-0.3-0.1-0.5s0.1-0.4 0.2-0.5 0.3-0.1 0.4-0.3c0.2-0.2 0.2-0.3 0.3-0.5 0.2-0.4 0.1-0.7 0.4-1 0.2-0.2 0.3-0.2 0.5-0.4 0.1-0.1 0.2-0.1 0.2-0.2 0.1-0.1 0.3-0.2 0.4-0.4 0.3-0.5-0.1-0.9 0.1-1.3 0.1-0.3 0.3-0.3 0.4-0.6 0.1-0.4-0.1-0.6-0.1-0.9 0-0.4-0.1-0.7 0-1.1 0-0.2 0.1-0.4 0.1-0.6 0.1-0.4-0.1-0.7 0.1-1s0.4-0.3 0.6-0.6 0.3-0.5 0.3-0.9c0.1-0.4 0-0.6 0.1-0.9l0.1-0.2c-0.3 0-0.5 0.1-0.9 0.1s-0.6 0-0.9-0.1c-0.4-0.1-0.8-0.4-1.1-0.2-0.4 0.2-0.2 0.7-0.3 1.1-0.1 0.3-0.2 0.5-0.4 0.8-0.2 0.4-0.3 0.7-0.5 1.1v0.7c0 0.2 0 0.4-0.1 0.6s-0.2 0.3-0.5 0.4-0.5 0-0.7-0.2 0-0.6-0.3-0.8c-0.1-0.2-0.3-0.2-0.5-0.3-0.4-0.2-0.6-0.3-0.9-0.3h-0.7s-0.5 0-0.7 0c-0.3 0-0.5-0.1-0.8-0.1l0.1 0.1c0 0.3 0 0.5-0.1 0.8 0 0.3-0.2 0.5-0.1 0.9 0 0.1 0 0.2 0.1 0.3 0.2 0.2 0.3-0.3 0.5-0.3 0.3-0.1 0.5-0.2 0.8 0 0.2 0.1 0.2 0.2 0.3 0.4 0.2 0.2 0.4 0.3 0.5 0.5 0 0.2 0 0.4-0.2 0.6-0.2 0.3-0.7 0-0.9 0.3s-0.2 0.6-0.1 0.9 0.4 0.2 0.6 0.5 0.1 0.6 0.1 0.9v0.3c0.1 0.5 0.2 0.8 0.2 1.3 0 0.4-0.1 0.6-0.1 1-0.1 0.3 0.1 0.7-0.2 0.8-0.2 0.1-0.3 0.1-0.5 0-0.1-0.1-0.1-0.3-0.2-0.3-0.2 0-0.2 0.2-0.3 0.3-0.2 0.1-0.3 0.3-0.5 0.2s-0.2-0.2-0.3-0.4-0.1-0.4-0.3-0.5c-0.1-0.1-0.2-0.3-0.4-0.2s0 0.4-0.1 0.5c-0.1 0.2-0.2 0.3-0.4 0.3-0.2 0.1-0.3-0.1-0.5-0.1s-0.4-0.1-0.6 0c-0.3 0.2-0.1 0.5-0.1 0.8v0.7c0 0.2-0.1 0.3-0.1 0.5-0.1 0.3-0.3 0.4-0.5 0.6-0.2 0.1-0.3 0.2-0.5 0.3v0.2c0.1 0.3 0 0.6 0.2 0.8s0.4 0 0.6 0.2 0 0.4 0.1 0.7c0.1 0.2 0.3 0.2 0.4 0.4s0.2 0.3 0.3 0.4l0.2-0.1c0.1-0.2 0-0.3 0.1-0.5 0.2-0.2 0.4-0.1 0.6-0.2 0.3-0.2 0.4-0.4 0.7-0.5 0.3-0.2 0.4-0.3 0.7-0.3 0.2 0 0.4-0.1 0.6 0 0.3 0.1 0.2 0.4 0.3 0.7v0.1l0.3-0.3c0.2-0.1 0.3-0.3 0.5-0.3s0.3 0.1 0.4 0.3-0.1 0.5 0.1 0.6 0.3-0.1 0.5-0.1c0.3-0.1 0.5-0.2 0.7-0.5 0.3-0.3 0.4-0.6 0.7-0.9s0.5-0.4 0.7-0.6c0-0.5 0.2-0.6 0.4-0.9"/>
<path class="st0" d="m70.1 70"/>
<path class="st0" d="m36.8 57c0.2-0.4 0.6-0.5 0.5-0.9-0.1-0.3-0.3-0.4-0.5-0.6l-0.1-0.1c-0.3-0.2-0.5-0.3-0.9-0.4-0.3-0.1-0.5-0.4-0.9-0.3-0.2 0.1-0.2 0.3-0.4 0.4s-0.4 0.1-0.6 0.1c-0.3 0-0.6 0-0.8-0.3-0.2-0.2-0.1-0.4-0.3-0.6s-0.4-0.2-0.6-0.3l-0.2-0.3c-0.2 0.1-0.3 0.2-0.6 0.3-0.2 0-0.4 0.1-0.5-0.1s0.2-0.4 0-0.5c-0.1-0.1-0.2-0.1-0.3-0.1-0.2 0-0.3 0.1-0.5 0.3s-0.2 0.5-0.5 0.5c-0.2 0-0.3-0.1-0.5-0.1-0.2-0.1-0.3-0.3-0.6-0.3s-0.4 0.2-0.6 0.3h-0.1c0 0.4-0.1 0.6-0.1 0.9 0 0.2 0 0.4 0.1 0.6s0.3 0.3 0.3 0.5c0 0.3-0.4 0.4-0.3 0.6s0.3 0.2 0.5 0.3c0.1 0.2 0.3 0.4 0.1 0.6s-0.4 0-0.6 0-0.5-0.2-0.6 0c-0.2 0.2 0.4 0.3 0.5 0.5s0.2 0.3 0.2 0.5-0.2 0.3-0.4 0.5l0.1-0.1-0.3 0.3c-0.1 0.4-0.3 0.5-0.3 0.8s0.4 0.3 0.4 0.5c0.1 0.4-0.8 0.5-0.7 0.9 0.1 0.3 0.2 0.3 0.5 0.5s0.7-0.2 0.9 0.1c0.1 0.2 0 0.4 0.1 0.6s0.3 0.2 0.5 0.4c0.2 0.3 0.1 0.6 0.1 1 0 0.3-0.2 0.5-0.2 0.9v0.9c0.2-0.1 0.4-0.2 0.6-0.4 0.2-0.1 0.4-0.1 0.6-0.3 0.3-0.2 0.4-0.3 0.7-0.5 0.3-0.1 0.5-0.1 0.8-0.1 0.3-0.1 0.5 0 0.8-0.1 0.2-0.1 0.3-0.3 0.5-0.4 0.3-0.1 0.4-0.1 0.7-0.1 0.6 0 0.9 0.1 1.4 0.1 0.4 0 0.7 0 1.1 0.1s0.6 0.2 1 0.3v-0.1c0-0.3 0.2-0.5 0.1-0.7-0.1-0.3-0.4-0.3-0.5-0.5-0.2-0.3-0.3-0.6-0.3-1-0.1-0.4-0.1-0.7 0.1-1.1 0.1-0.2 0.2-0.3 0.3-0.5 0.2-0.3 0.1-0.6 0.2-0.9 0-0.3 0.1-0.5 0.1-0.9s-0.3-0.7-0.1-1.1c-0.1-0.3 0-0.4 0.1-0.6"/>
<path class="st0" d="m61.6 48.3c0.3 0.1 0.4 0.3 0.7 0.4s0.4 0.3 0.7 0.3 0.3-0.4 0.6-0.6c0.2-0.1 0.3-0.2 0.5-0.3 0.3-0.1 0.5-0.1 0.8-0.3 0.2-0.1 0.2-0.2 0.4-0.3h-0.1c0.1-0.3 0.2-0.4 0.3-0.7s0.1-0.5 0.1-0.9c0-0.3-0.1-0.5 0-0.8 0.1-0.4 0.3-0.6 0.6-0.9 0.2-0.2 0.3-0.2 0.5-0.4 0.3-0.2 0.5-0.4 0.5-0.7 0-0.2-0.1-0.3 0-0.4 0.1-0.2 0.3-0.2 0.5-0.4s0.3-0.2 0.5-0.4 0.3-0.3 0.4-0.5c0.5-0.7 0.5-1.3 0.4-2s-0.4-1.4-0.4-2.4c0-0.7 0.1-1.1 0.3-1.8 0.1-0.4 0.3-0.6 0.2-0.9 0-0.2-0.1-0.3-0.1-0.4-0.1-0.2-0.4-0.2-0.5-0.4s0.1-0.3 0.1-0.5c-0.1-0.2-0.3-0.2-0.5-0.4-0.2-0.3-0.2-0.5-0.2-0.9v-0.9c0-0.3 0-0.5-0.1-0.8-0.1-0.2-0.2-0.3-0.3-0.5l0.1-0.2c-0.2 0.1-0.3 0.2-0.5 0.3-0.3 0.1-0.5 0.4-0.7 0.3-0.3-0.1-0.1-0.5-0.3-0.7-0.1-0.2-0.3-0.2-0.6-0.3s-0.4-0.1-0.7-0.2-0.5-0.1-0.7-0.2-0.3-0.3-0.6-0.3c-0.3-0.1-0.6-0.2-0.9-0.1-0.2 0.1-0.3 0.3-0.5 0.4-0.2 0.2-0.4 0.2-0.6 0.4s-0.4 0.3-0.6 0.5-0.3 0.2-0.5 0.4c-0.4 0.3-0.5 0.6-0.9 0.9-0.6 0.4-1.1 0.3-1.8 0.7-0.5 0.4-0.7 0.7-1.1 1.1-0.6 0.5-0.9 0.7-1.5 1.2-0.5 0.4-0.7 0.6-1.1 1-0.5 0.4-0.9 0.6-1.5 1-0.2 0.1-0.3 0.2-0.5 0.3-0.5 0.3-0.9 0.2-1.5 0.3l-1.5 0.5 0.2 0.2c0.1 0.3 0.1 0.5 0.1 0.9 0.1 0.6 0 1 0 1.5v0.6c0 0.7 0.3 1 0.1 1.7-0.1 0.4-0.3 0.6-0.4 0.9s0 0.4-0.1 0.7-0.3 0.3-0.5 0.5-0.2 0.3-0.5 0.4c-0.4 0.1-0.6-0.4-0.9-0.3-0.2 0.1-0.3 0.2-0.5 0.3-0.4 0.2-0.7 0.1-1.2 0.1-0.3 0-0.6-0.1-0.9 0-0.2 0.1-0.3 0.3-0.5 0.4s-0.4 0.2-0.6 0.2c-0.3 0-0.5 0-0.7-0.1v0.2 0.8c0 0.3 0 0.5 0.2 0.7 0.2 0.3 0.4 0.3 0.7 0.5 0.2 0.2 0.5 0.3 0.6 0.6s-0.1 0.5-0.1 0.8-0.1 0.5 0.1 0.7c0.2 0.4 0.7 0.3 1.1 0.2 0.2 0 0.2-0.2 0.4-0.1 0.2 0 0.2 0.1 0.3 0.2 0.2 0.2 0 0.5 0.1 0.7v0.1c0.2-0.2 0.3-0.7 0.6-0.6 0.2 0 0.3 0.2 0.4 0.3 0.2 0.2 0.2 0.4 0.4 0.5 0.3 0.2 0.5 0 0.8 0l-0.1-0.1c0-0.3-0.2-0.6 0-0.9s0.5-0.1 0.7-0.4c0.3-0.3 0-0.7 0.2-1 0.1-0.2 0.2-0.3 0.4-0.5s0.3-0.4 0.6-0.5 0.4 0.1 0.7 0.1c0.2 0 0.2-0.1 0.4-0.2s0.4-0.3 0.6-0.3 0.2 0.2 0.3 0.3c0.2 0.2 0.2 0.4 0.5 0.5 0.2 0.1 0.4-0.1 0.6 0 0.4 0.1 0.3 0.6 0.6 0.8s0.6 0.3 1 0.1c0.3-0.1 0.3-0.4 0.5-0.5 0.3-0.1 0.6-0.1 0.9 0.1 0.3 0.1 0.3 0.3 0.5 0.5 0.3 0.2 0.5 0.3 0.9 0.4 0.2 0.1 0.3 0.1 0.5 0.1 0.3 0 0.4-0.1 0.7-0.3s0.4-0.4 0.7-0.6c0.3-0.1 0.4-0.2 0.7-0.2s0.5 0 0.7 0.1c0.4 0.3 0.6 0.3 0.8 0.4"/>
<path class="st0" d="m95.2 79.6l-0.2-0.5c-0.2 0-0.3 0.2-0.5 0.3s-0.2 0.3-0.4 0.4c-0.2 0.2-0.3 0.4-0.6 0.4-0.2 0-0.2-0.3-0.5-0.3-0.2 0-0.2 0.1-0.4 0.2l-0.1 0.2c0.1 0.3 0.1 0.5 0.1 0.7 0 0.3 0.1 0.4 0.1 0.7l-0.1 0.3c0.1-0.1 0.1-0.2 0.3-0.2s0.2 0.2 0.3 0.4c0.2 0.2 0.3 0.4 0.4 0.7 0.1 0.1 0.1 0.2 0.2 0.3 0.1 0 0.3 0 0.4-0.1 0.3-0.1 0.5-0.2 0.7-0.5 0.1-0.2 0-0.4 0.1-0.6 0-0.3-0.1-0.6 0.1-0.9 0.1-0.2 0.5-0.2 0.5-0.5 0-0.2-0.2-0.2-0.3-0.4-0.2-0.1-0.1-0.3-0.1-0.6"/>
<path class="st0" d="m93.9 83.3h-0.2 0.2"/>
<path class="st0" d="m99.7 95.2c-0.1-0.3 0.1-0.6 0-0.9-0.1-0.2-0.3-0.3-0.5-0.5-0.1-0.2-0.2-0.3-0.3-0.5v-0.1c-0.1 0-0.2-0.1-0.3-0.1-0.5-0.2-0.8-0.4-1.3-0.7-0.4-0.2-0.6-0.3-0.9-0.5l-0.1-0.1c-0.1 0.2-0.3 0.2-0.5 0.2-0.1 0-0.2 0.1-0.3 0s0-0.3-0.1-0.4c-0.1-0.3-0.3-0.4-0.4-0.6h-0.1c-0.2 0-0.3 0-0.5 0.1-0.2 0-0.3 0.1-0.5 0.1-0.4 0.1-0.7-0.2-1.1 0-0.3 0.2-0.4 0.4-0.6 0.7l-0.5 0.5c-0.3 0.3-0.5 0.4-0.7 0.8-0.1 0.2-0.4 0.4-0.3 0.7s0.5 0.1 0.6 0.4c0.1 0.2 0 0.3 0 0.5 0 0.4 0 0.6-0.1 0.9-0.1 0.4-0.3 0.6-0.3 1-0.1 0.7-0.3 1.2 0.2 1.7 0.3 0.3 0.6 0.3 1 0.3 0.7 0 0.1 0.4 0.2 1 0 0 0 0.6-0.1 0.6-0.7 0.1-1 0.1-1.3 0-0.5-0.2-0.3-0.8-0.7-1.2-0.3-0.3-0.5-0.3-0.8-0.5-0.2-0.2-0.3-0.5-0.5-0.6-0.1-0.1-0.2-0.2-0.4-0.1-0.2 0-0.1 0.4-0.3 0.5-0.3 0.1-0.5 0-0.7-0.1-0.3-0.1-0.4-0.3-0.7-0.4-0.4-0.1-0.8 0.3-1.1 0-0.3-0.2 0.1-0.6-0.2-0.9-0.1-0.1-0.2-0.2-0.4-0.2-0.3 0-0.3 0.4-0.6 0.3-0.2 0-0.3-0.3-0.5-0.4-0.1-0.1-0.2-0.1-0.3-0.2h-0.2v0.9c0 0.4 0 0.7-0.1 1.1 0 0.5-0.1 0.7-0.1 1.2 0 0.3 0.3 0.5 0.1 0.7-0.2 0.3-0.6 0-1 0h-0.9-1.1c-0.2 0-0.4-0.1-0.6 0.1-0.1 0.1-0.2 0.2-0.1 0.4 0 0.2 0.1 0.4 0.1 0.6-0.1 0.5-0.1 0.8-0.2 1.3-0.1 0.8-0.1 1.2-0.1 2v2l2.2 2.8 0.1 0.1c0.3-0.1 0.4-0.1 0.7-0.2s0.4-0.1 0.7-0.1c0.4 0 0.5 0.2 0.9 0.3s0.6 0.2 0.9 0.3c0.2 0.1 0.3 0.1 0.5 0.2s0.3 0.1 0.5 0.1c0.2 0.1 0.3 0.1 0.5 0.1 0.2 0.1 0.4 0.1 0.6 0.1s0.2-0.1 0.4-0.1 0.3 0.2 0.5 0.3h0.3c0.3-0.1 0-0.5 0.2-0.7s0.3-0.2 0.5-0.4c0.3-0.2 0.6-0.3 0.7-0.7 0.1-0.1 0.1-0.2 0.1-0.3 0.2-0.3 0.4-0.4 0.7-0.5 0.2-0.1 0.4 0 0.5-0.1s0-0.2 0.1-0.4c0.1-0.4 0-0.7 0.3-1 0.2-0.2 0.4-0.2 0.6-0.3s0.3-0.1 0.5-0.1c0.2-0.1 0.3-0.2 0.5-0.2h0.5c0.2 0 0.4 0 0.6-0.1l0.1-0.1c0.1-0.2 0.2-0.2 0.2-0.4s-0.4-0.1-0.5-0.3 0-0.4 0.1-0.5c0.1-0.2 0.3-0.2 0.5-0.3 0.3-0.1 0.4-0.2 0.7-0.3s0.5 0.1 0.7 0c0.3-0.1 0.4-0.3 0.7-0.4 0.2-0.1 0.3-0.1 0.5-0.2s0.4 0 0.6-0.1c0.3 0 0.5 0.1 0.7-0.1 0.1-0.2 0.1-0.3 0.1-0.5h0.3c-0.2-0.2-0.4-0.2-0.5-0.5 0-0.3 0.2-0.4 0.3-0.6s0.1-0.4 0.2-0.6c0-0.1 0.1-0.3 0.1-0.4 0-0.2-0.1-0.4 0.1-0.6s0.4 0.1 0.6-0.1 0.1-0.5 0.1-0.7c0-0.3-0.2-0.4-0.3-0.7v-0.5c0-0.2-0.1-0.2-0.1-0.4 0-0.3 0.3-0.3 0.4-0.6 0.1-0.2-0.1-0.4 0.1-0.6 0.1-0.2 0.5-0.1 0.5-0.3 0.2-0.6-0.4-0.6-0.6-0.9"/>
<path class="st0" d="m95 119.5"/>
<path class="st0" d="m95.8 126.8c0-0.3-0.1-0.4-0.1-0.7 0-0.5 0.1-0.7 0.1-1.2v-0.8c0-0.3 0.1-0.5 0.1-0.9-0.1-0.3-0.2-0.5-0.3-0.8-0.2-0.4-0.5-0.6-0.5-1.1-0.1-0.4 0.1-0.6 0.1-1 0-0.3-0.3-0.4-0.2-0.7h-0.9c-0.5 0-0.7-0.1-1.2-0.1-0.4 0-0.7 0.3-1.1 0.1v-0.1c-0.3 0.2-0.4 0.3-0.7 0.5-0.3 0.3-0.5 0.4-0.9 0.7-0.5 0.4-0.8 0.6-1.3 0.9s-0.7 0.7-1.2 0.9c-0.3 0.1-0.5 0.1-0.8 0.2-0.4 0.2-0.5 0.5-0.9 0.8-0.3 0.3-0.7 0.4-0.9 0.9-0.1 0.3 0.1 0.5 0 0.8 0 0.2-0.1 0.4-0.2 0.5-0.2 0.3-0.6 0.3-0.9 0.4-0.5 0.1-0.8 0.1-1.2 0-0.3-0.1-0.4-0.2-0.7-0.3-0.3-0.2-0.4-0.4-0.8-0.5-0.3-0.1-0.4-0.2-0.7-0.1s-0.4 0.4-0.5 0.7c-0.2 0.3-0.1 0.5-0.3 0.7-0.2 0.3-0.5 0.2-0.8 0.5-0.4 0.3-0.4 0.8-0.9 0.9-0.3 0.1-0.5 0.1-0.7 0.1-0.4 0-0.8 0.2-1-0.1-0.1-0.2-0.1-0.3-0.1-0.5 0.1-0.2 0.2-0.2 0.3-0.4 0.1-0.3 0.1-0.4 0.1-0.7 0-0.4-0.1-0.6-0.3-1-0.1-0.4-0.3-0.5-0.5-0.9l-0.3-0.1c-0.1 2.9-0.2 4.5-0.3 7.4h-0.6c-0.2 0-0.3 0.1-0.5 0.2-0.1 0-0.1 0.1-0.2 0.1-0.2 0.1-0.3 0.3-0.6 0.4-0.2 0-0.4 0-0.6-0.1-0.3 0-0.5 0-0.8-0.1-0.3 0-0.6 0-0.9-0.1-0.1-0.1-0.2-0.1-0.3-0.2s-0.1-0.2-0.2-0.3c-0.1-0.2 0.1-0.4-0.1-0.6-0.1-0.1-0.3-0.2-0.5-0.1s0 0.4-0.1 0.5c-0.1 0.3-0.4 0.3-0.6 0.5 0 0.1 0.1 0.2 0.1 0.2 0.1 0.2 0.1 0.3 0.2 0.5 0.2 0.4 0.3 0.6 0.4 1 0.1 0.2 0.1 0.3 0.1 0.5 0 0.3-0.1 0.5-0.1 0.8 0 0.4 0.1 0.6 0.3 0.9s0.5 0.4 0.7 0.7 0.2 0.5 0.3 0.8c0.2 0.3 0.3 0.3 0.5 0.6 0.1 0.2 0.2 0.4 0.2 0.7s0 0.4-0.1 0.7c-0.1 0.2 0 0.4-0.2 0.5s-0.4-0.1-0.6 0c-0.3 0.2-0.2 0.5-0.1 0.9s0.3 0.6 0.5 0.9c0.1 0.2 0.3 0.2 0.3 0.4s-0.4 0.3-0.3 0.5c0 0.3 0.4 0.3 0.7 0.4s0.5 0 0.7 0.2c0.3 0.2 0.3 0.4 0.5 0.6s0.3 0.4 0.6 0.4 0.4-0.1 0.6-0.3c0.2-0.1 0.4-0.2 0.6-0.4l0.9-0.1c0.2-0.1 0.3-0.1 0.5-0.1 0.3-0.1 0.6 0.1 0.9-0.1 0.2-0.1 0.3-0.3 0.5-0.4s0.4-0.1 0.6-0.1 0.4 0.2 0.6 0.2h0.5c0.2 0 0.3-0.1 0.5-0.2s0.3-0.1 0.5-0.1c0.4 0 0.6 0.1 0.9 0.1s0.4 0.1 0.7 0.1c0.2 0 0.3-0.1 0.5-0.1 0.3-0.1 0.4-0.2 0.7-0.3s0.5-0.2 0.8-0.3c0.4-0.1 0.6 0.1 0.9 0s0.3-0.4 0.6-0.5c0.3-0.2 0.6 0.1 0.9-0.1 0.3-0.1 0.4-0.3 0.6-0.5s0.4-0.3 0.7-0.5c0.4-0.3 0.5-0.5 0.9-0.8 0.5-0.5 0.8-0.7 1.1-1.2 0.2-0.3 0.2-0.5 0.5-0.7s0.6-0.1 0.9-0.3 0.4-0.4 0.6-0.7 0.3-0.5 0.5-0.9c0.3-0.4 0.5-0.6 0.7-0.9s0.3-0.5 0.5-0.9 0.3-0.6 0.5-0.9c0.3-0.4 0.3-0.9 0.7-1.1 0.2-0.1 0.4 0 0.6-0.1l0.1-0.1c0.1-0.2 0-0.4 0.1-0.7 0.2-0.5 0.5-0.7 0.7-1.2 0.1-0.3 0.1-0.5 0.2-0.9s0.2-0.7 0.2-1l-1.6-0.2c0.6-0.6 0.6-0.8 0.6-1.1"/>
<path class="st0" d="m103.3 28.8v0 0"/>
<path class="st0" d="m108.6 38.1c-0.2-0.1-0.5 0.1-0.7-0.1-0.1-0.2 0-0.4-0.1-0.5-0.2-0.2-0.5 0-0.7-0.2-0.2-0.1-0.3-0.4-0.3-0.4-0.2-0.4-0.3-0.6-0.4-0.9-0.1-0.4-0.1-0.7-0.1-1.1s0.1-0.7 0-1.1c0-0.5-0.1-0.8-0.3-1.2-0.1-0.4-0.2-0.6-0.4-0.9-0.2-0.4-0.3-0.6-0.5-0.9l-0.6-0.9c-0.3-0.1-0.5-0.1-0.8-0.3-0.2-0.1-0.3-0.2-0.4-0.4-0.2 0.1-0.3 0.2-0.5 0.3l-0.6 0.3c-0.2 0.1-0.4 0-0.6 0.1-0.2 0.2 0 0.5-0.1 0.7l-0.3 0.3c-0.1 0.1-0.3 0.1-0.4 0.2-0.3 0.2-0.2 0.6-0.5 0.9-0.1 0.1-0.2 0.3-0.4 0.3s-0.2-0.3-0.3-0.5-0.2-0.3-0.3-0.4l-14.1-0.1-0.1-0.3v4h-1.8l0.1 1.6-0.1-0.1 0.1 7.1-1.3 0.1c-0.2 0-0.3 0.1-0.4 0.3s-0.1 0.3-0.1 0.5l-0.2 0.7c-0.3 0.3-0.5 0.4-0.7 0.7-0.1 0.2-0.3 0.3-0.3 0.5 0 0.3 0.3 0.4 0.5 0.7s0.2 0.6 0.2 0.9c0 0.1 0 0.2-0.1 0.3s-0.1 0.2-0.2 0.4c-0.1 0.4 0.1 0.6 0.1 1s-0.1 0.6-0.1 0.9c0 0.2 0.1 0.2 0.1 0.4s-0.1 0.3-0.1 0.5-0.1 0.3 0 0.5c0.1 0.1 0.3 0 0.5 0.1s0.3 0.3 0.3 0.5-0.1 0.2-0.1 0.4l0.1-0.1c0.2 0.4 0.4 0.6 0.6 1 0.2 0.3 0.4 0.4 0.5 0.8s0 0.6 0 1-0.3 0.8 0 1.1c0.1 0.2 0.3 0.3 0.5 0.4 0.4 0.2 0.7 0.2 1.1 0.5 0.5 0.3 0.6 0.7 1 1 0.2 0.1 0.3 0.1 0.4 0.3 0.4 0.4-0.4 1-0.1 1.4s0.8 0.2 1.1 0.5c0.2 0.2 0.3 0.4 0.5 0.6l0.5 1.1c0.3 0.1 0.6 0.1 0.9 0.3 0.2 0.1 0.3 0.2 0.4 0.4 0.2 0.3 0.1 0.5 0.1 0.9l-0.1 0.2 0.5 0.5c0.2 0.2 0.2 0.4 0.5 0.6 0.2 0.2 0.4 0.3 0.7 0.4h0.6c0.3 0 0.5-0.3 0.8-0.2 0.2 0 0.2 0.2 0.4 0.2 0.3 0 0.4-0.4 0.7-0.3 0.2 0 0.3 0.2 0.5 0.4s0.2 0.4 0.3 0.5c0.2 0.2 0.3 0.2 0.5 0.4 0.2 0.1 0.2 0.2 0.4 0.4l0.1 0.1c0.3-0.1 0.5-0.3 0.8-0.3s0.5 0 0.8 0.1c0.4 0 0.6 0.1 0.9 0.1h0.7c0.2 0 0.4-0.2 0.6-0.2 0.3-0.1 0.5 0.1 0.7 0 0.2 0 0.3-0.1 0.5-0.2s0.3-0.3 0.5-0.5c0 0 0.5-0.6 0.7-1 0.1-0.2 1.2-0.2 1.2-0.2l0.7 0.1 0.8 0.3c0.1-0.3 0.2-0.4 0.2-0.7 0-0.2-0.1-0.3-0.1-0.5-0.1-0.2-0.1-0.4-0.3-0.5s-0.4 0-0.6-0.1c-0.3-0.2-0.3-0.3-0.5-0.6-0.1-0.2-0.2-0.4-0.2-0.7-0.1-0.3 0.1-0.5-0.1-0.8-0.1-0.2-0.3-0.2-0.5-0.4s-0.4-0.3-0.6-0.5-0.2-0.4-0.4-0.7c-0.3-0.3-0.5-0.4-0.9-0.6-0.3-0.1-0.6 0-0.7-0.3 0-0.1 0-0.2 0.1-0.3 0.1-0.3-0.2-0.7 0.1-0.9 0.1-0.1 0.2-0.1 0.4-0.1s0.3 0.2 0.5 0.2 0.4 0 0.5-0.2 0.1-0.4 0.1-0.6c0-0.4-0.1-0.6-0.1-1 0-0.6-0.1-0.9 0.1-1.4 0.1-0.2 0.1-0.4 0.2-0.6 0.1-0.3 0-0.6 0.2-0.8s0.5-0.1 0.7-0.3c0.2-0.1 0.3-0.2 0.4-0.5 0.1-0.2 0-0.4 0-0.7s-0.1-0.6 0.1-0.8c0.1-0.1 0.3 0 0.4-0.2s-0.2-0.3-0.1-0.5c0-0.3 0.4-0.3 0.6-0.6 0.1-0.2 0.1-0.3 0.3-0.5s0.5 0 0.7-0.1c0.3-0.2 0.2-0.5 0.3-0.8v-0.3-0.5c0-0.2 0-0.4 0.1-0.6 0-0.2 0.1-0.3 0.1-0.5 0-0.3 0-0.5-0.1-0.8-0.1-0.2-0.3-0.3-0.3-0.5 0-0.3 0.2-0.4 0.3-0.7 0.2-0.4 0.3-0.6 0.4-1.1 0.1-0.3 0.1-0.5 0.1-0.8s-0.4-0.5-0.2-0.8c0.1-0.1 0.3-0.1 0.3-0.3 0.1-0.2-0.1-0.3-0.1-0.5 0.1-0.3 0.6 0.2 0.8-0.1 0.2-0.2-0.1-0.6 0.1-0.7s0.3 0 0.5-0.1c0.2 0 0.3-0.1 0.4-0.1 0.3-0.1 0.4-0.1 0.6-0.3 0.1-0.1 0.1-0.3 0.2-0.4 0.1-0.2 0.2-0.3 0.3-0.5l0.1 0.1c0.6-0.4 0.6-0.7 0.3-0.9"/>
<path class="st0" d="m117 97.8c-0.1 0-0.3 0.1-0.3 0.3 0 0.1 0 0.2 0.1 0.3 0.2 0.1 0.4 0 0.4-0.2 0.1-0.3 0-0.4-0.2-0.4"/>
<path class="st0" d="m140.7 114.9c-0.3 0-0.5 0.1-0.7 0.3-0.1 0.2-0.2 0.3-0.2 0.5s-0.1 0.3 0 0.4c0.1 0.2 0.4-0.1 0.6-0.2s0.3-0.3 0.4-0.5 0.4-0.3 0.3-0.5h-0.4"/>
<path class="st0" d="m136.5 116.7c-0.2 0-0.5 0.2-0.5 0.4 0 0.3 0.4 0.3 0.7 0.3 0.1 0 0.2 0 0.3-0.1s0.1-0.2 0.1-0.3c-0.1-0.3-0.4-0.3-0.6-0.3"/>
<path class="st0" d="m61.3 8.5c-0.2-0.1-0.3-0.2-0.4-0.3s0-0.3-0.1-0.4c-0.2-0.2-0.4 0-0.7 0v0.1l-0.3-0.3c-0.2-0.2-0.4-0.1-0.5-0.3-0.2-0.3-0.3-0.4-0.3-0.7s0.2-0.5 0.5-0.7c0.2-0.1 0.3 0 0.5-0.1 0.2-0.2 0.2-0.4 0.3-0.6s0.3-0.2 0.4-0.4c0.1-0.3 0.1-0.5 0.1-0.7-0.1-0.2-0.1-0.3-0.3-0.5s-0.3-0.1-0.5-0.3c-0.1-0.1-0.1-0.2-0.1-0.4-0.1-0.4 0-0.7 0.1-1 0.1-0.2 0.3-0.3 0.5-0.5 0.1-0.1 0.2-0.3 0.1-0.4s-0.3-0.2-0.4-0.1l-0.5 0.5-0.3-0.3-0.3-0.3c-0.2-0.3-0.3-0.4-0.5-0.5-0.3-0.2-0.5-0.3-0.8-0.3s-0.4 0.2-0.6 0.4-0.3 0.4-0.6 0.6c-0.1 0.1-0.3 0.2-0.4 0.3 0.1 0.2 0.2 0.3 0.2 0.6 0.1 0.3 0 0.5-0.1 0.7-0.1 0.4-0.6 0.4-0.7 0.8s0.4 0.6 0.5 1 0.1 0.7 0 1.1c-0.1 0.3-0.2 0.5-0.4 0.7-0.3 0.4-0.7 0.4-0.9 0.8-0.1 0.3 0 0.5 0 0.7s0 0.6 0.2 0.8 0.4 0.2 0.7 0.3c0.2 0.2 0.3 0.3 0.4 0.6 0.2 0.3 0 0.6 0.1 0.9 0.1 0.2 0.2 0.3 0.4 0.5s0.5 0 0.7 0.1c0.3 0.2 0.2 0.5 0.3 0.9s0.2 0.7 0.3 1.1 0.2 0.6 0.3 0.9 0.1 0.4 0.1 0.7l0.1-0.1c0.2 0 0.4 0.1 0.6 0s0.3-0.3 0.4-0.5c0.2-0.4 0-0.7 0-1.1 0-0.3-0.3-0.7 0-0.9 0.1-0.1 0.3-0.1 0.4-0.1 0.3-0.2 0.4-0.5 0.6-0.7 0.1-0.1 0.2-0.3 0.3-0.3s0.3 0.1 0.5 0 0.2-0.1 0.3-0.3c0.2-0.2 0-0.5 0-0.7 0-0.3 0-0.5 0.1-0.9v-0.2c-0.1-0.1-0.2-0.2-0.3-0.2"/>
<path class="st0" d="m60.8 70.1c-0.4 0-0.6 0.1-1 0.1-0.3 0-0.5 0-0.7-0.1l-0.2 0.1c-0.1 0.5-0.2 0.7-0.3 1.1s-0.2 0.6-0.3 1l0.1 0.1h0.5c0.3 0 0.5-0.1 0.7-0.1h0.9c0.3 0 0.5 0.1 0.7-0.1 0.1-0.1 0.1-0.3 0.1-0.5 0.1-0.3 0.2-0.4 0.2-0.7 0.1-0.4 0-0.6 0-1l0.1-0.1c-0.3 0.2-0.4 0.2-0.8 0.2"/>
<path class="st0" d="m17.7 47.5c-0.3-0.1-0.5-0.1-0.8-0.2-0.2-0.1-0.3-0.3-0.5-0.3-0.3-0.1-0.5-0.1-0.9 0-0.3 0.1-0.5 0.3-0.8 0.4s-0.5 0-0.9 0c-0.3 0-0.5-0.1-0.9-0.1v0.2c0 0.3 0 0.5-0.1 0.9l0.7-0.2c0.2 0 0.3 0.1 0.5 0.1s0.4 0.1 0.6 0 0.1-0.3 0.3-0.4 0.3 0.2 0.5 0.1c0.2 0 0.2-0.2 0.3-0.3h0.4c0.3 0.1 0.3 0.3 0.5 0.4 0.3 0.1 0.5 0.1 0.8 0 0.2-0.1 0.6 0 0.5-0.3 0.2-0.2 0-0.2-0.2-0.3"/>
<path class="st0" d="m18.5 56.5h0.1-0.1"/>
<path class="st0" d="m21.4 60.9"/>
<path class="st0" d="m23.5 57c0.1-0.1 0.1-0.2 0.1-0.4 0-0.3-0.3-0.3-0.4-0.5-0.1-0.3 0.1-0.5-0.1-0.7s-0.4-0.2-0.6-0.3-0.3-0.3-0.6-0.3c-0.4-0.1-0.5 0.3-0.9 0.3-0.2 0-0.3-0.1-0.5-0.1-0.5 0-0.5 0.4-0.7 0.7s-0.2 0.5-0.5 0.7c-0.2 0.1-0.4 0.1-0.7 0.1-0.1 0.1-0.1 0.3-0.1 0.4 0 0.3 0 0.6 0.1 0.9 0.1 0.2 0.3 0.3 0.5 0.5l0.5 0.5c0.2 0.2 0.3 0.2 0.4 0.4 0.2 0.2 0.2 0.5 0.4 0.7s0.5 0.1 0.7 0.3 0.1 0.4 0.2 0.6c0 0.1 0.1 0.1 0.1 0.2 0.2-0.3 0.4-0.5 0.6-0.8s0.3-0.4 0.5-0.7c0.2-0.2 0.3-0.2 0.5-0.4s0.3-0.3 0.4-0.5 0.1-0.4 0.1-0.6v-0.2c-0.2-0.1-0.5 0-0.5-0.2-0.1-0.3 0.4-0.3 0.5-0.6"/>
<path class="st0" d="m45 59.7c0-0.5 0.1-0.8 0.1-1.3 0-0.6 0.3-1 0.1-1.5-0.1-0.3-0.3-0.3-0.3-0.6-0.2-0.4 0.2-0.8 0-1.2-0.1-0.3-0.2-0.4-0.4-0.7l-0.5-0.5c-0.1-0.3 0-0.5-0.1-0.7-0.1-0.3-0.3-0.3-0.5-0.5h-0.5l0.1 0.2c0.1 0.3 0.2 0.5 0.2 0.9v0.9c0 0.3 0.1 0.5 0.1 0.9v0.9c0 0.5 0.1 0.8 0.2 1.3 0 0.4 0.1 0.7 0.1 1.1v0.9c0 0.4-0.1 0.6-0.1 1 0 0.3 0 0.5 0.1 0.8s0.2 0.5 0.4 0.7v0.1c0.1-0.2 0.4-0.1 0.7-0.1 0.3-0.1 0.5-0.1 0.8-0.2-0.1-0.4-0.2-0.6-0.3-1-0.1-0.6-0.2-0.9-0.2-1.4"/>
<path class="st0" d="m95.8 77.9c-0.1-0.3-0.4-0.3-0.7-0.5l-0.2-0.3c-0.4 0.2-0.4 0.8-0.9 0.7-0.4 0-0.4-0.4-0.7-0.6l-0.1 0.3c-0.1 0.2-0.2 0.3-0.2 0.5-0.1 0.3 0.1 0.4 0 0.7s-0.5 0.2-0.6 0.5c-0.1 0.1-0.1 0.2-0.1 0.4s0.2 0.3 0.3 0.5c0.2-0.1 0.2-0.2 0.4-0.2s0.2 0.3 0.5 0.3 0.4-0.2 0.6-0.4c0.2-0.1 0.2-0.3 0.4-0.4 0.2-0.2 0.3-0.4 0.5-0.3 0.2 0 0.2 0.4 0.4 0.4s0.3-0.2 0.4-0.4c0.1-0.3 0-0.5 0-0.7v-0.5"/>
<path class="st0" d="m91.8 119.4"/>
<path class="st0" d="m91.4 118.8c-0.2-0.3-0.1-0.7-0.3-0.9-0.3-0.3-0.6-0.1-1-0.3-0.4-0.1-0.7-0.1-0.9-0.3-0.3-0.3-0.3-0.6-0.3-1.1 0-0.2 0.1-0.3 0.1-0.5-0.1-0.3-0.5-0.2-0.7-0.3-0.3-0.1-0.4-0.2-0.7-0.4s-0.4-0.3-0.6-0.6-0.3-0.5-0.5-0.8c-0.3-0.5-0.6-0.8-0.7-1.4 0-0.3 0.1-0.5 0-0.7-0.1-0.3-0.4-0.2-0.5-0.5-0.2-0.3-0.2-0.5-0.3-0.8l-0.4 0.1c-0.2 0.1-0.3 0.2-0.5 0.3s-0.3 0.1-0.5 0.1c-0.2 0.1-0.4 0.1-0.6 0.2-0.3 0.2-0.5 0.4-0.7 0.7l-0.5-0.7c-0.2-0.2-0.2-0.4-0.4-0.4s-0.3 0.2-0.5 0.3c-0.3 0.1-0.6 0-0.9 0.1s-0.5 0.2-0.8 0.3c-0.4 0.1-0.7 0.1-1.1 0.1-0.2 0-0.3 0-0.4 0.1-0.2 0.1 0 0.3 0 0.5v0.9c0 0.5-0.1 0.8-0.1 1.3l-0.1 4.4-1.3 0.1-0.3 5.7 0.2 0.1c0.2 0.3 0.3 0.5 0.5 0.9s0.2 0.6 0.3 1c0 0.3 0.1 0.5-0.1 0.7-0.1 0.2-0.3 0.2-0.3 0.4-0.1 0.2 0 0.4 0.1 0.5 0.2 0.3 0.6 0.1 1 0.1 0.3 0 0.5 0 0.7-0.1 0.5-0.2 0.5-0.6 0.9-0.9 0.3-0.2 0.6-0.2 0.8-0.5 0.2-0.2 0.2-0.5 0.3-0.7 0.2-0.3 0.2-0.6 0.5-0.7 0.2-0.1 0.4 0 0.7 0.1 0.4 0.1 0.5 0.4 0.8 0.5s0.4 0.3 0.7 0.3c0.5 0.1 0.8 0.1 1.2 0s0.7-0.1 0.9-0.4c0.1-0.2 0.2-0.3 0.2-0.5 0.1-0.3-0.1-0.5 0-0.8 0.1-0.5 0.5-0.5 0.9-0.9 0.3-0.3 0.5-0.6 0.9-0.8 0.3-0.1 0.5-0.1 0.8-0.2 0.5-0.2 0.7-0.5 1.2-0.9s0.8-0.6 1.3-0.9c0.3-0.3 0.5-0.4 0.9-0.7 0.2-0.2 0.4-0.3 0.6-0.4-0.3-0.2-0.4-0.4-0.5-0.7"/>
<path class="st0" d="m116.2 50.2c0.3-0.1 0.3-0.3 0.5-0.5l0.4-0.2c-0.2-0.2-0.4-0.1-0.6-0.3s-0.2-0.3-0.3-0.5c-0.2-0.3-0.3-0.5-0.5-0.8-0.1-0.2-0.1-0.4-0.3-0.6-0.2-0.1-0.3-0.1-0.5-0.2-0.4-0.1-0.7 0-1-0.3-0.2-0.2-0.2-0.5-0.3-0.7-0.2-0.3-0.4-0.4-0.7-0.6-0.2-0.2-0.3-0.3-0.5-0.4-0.3-0.2-0.5-0.3-0.7-0.5-0.3-0.2-0.4-0.4-0.7-0.6s-0.7-0.2-0.9-0.5 0-0.6-0.1-1c-0.1-0.5-0.2-0.8-0.3-1.3s-0.1-0.8-0.3-1.3c-0.1-0.4-0.2-0.5-0.4-0.9l-0.1-0.1c-0.1 0.2-0.2 0.3-0.3 0.5s-0.1 0.3-0.2 0.4c-0.2 0.2-0.4 0.2-0.6 0.3s-0.2 0.1-0.4 0.1-0.4-0.1-0.5 0.1c-0.2 0.2 0.1 0.5-0.1 0.7s-0.7-0.2-0.8 0.1c-0.1 0.2 0.1 0.3 0.1 0.5-0.1 0.2-0.3 0.1-0.3 0.3-0.2 0.3 0.2 0.5 0.2 0.8s-0.1 0.5-0.1 0.8c-0.1 0.4-0.2 0.7-0.4 1.1-0.1 0.3-0.4 0.4-0.3 0.7 0 0.2 0.2 0.3 0.3 0.5 0.1 0.3 0.1 0.5 0.1 0.8 0 0.2-0.1 0.3-0.1 0.5s0 0.4-0.1 0.6v0.1c0.3 0 0.5-0.1 0.8-0.1h0.7c0.2 0 0.3 0.2 0.5 0.1s0.2-0.2 0.3-0.4c0.1-0.3 0-0.5 0.1-0.7 0.1-0.3 0.2-0.8 0.6-0.7 0.3 0 0.3 0.3 0.5 0.5s0.1 0.5 0.3 0.6c0.3 0.1 0.5-0.1 0.8-0.3 0.2-0.1 0.3-0.2 0.5-0.3s0.4-0.3 0.6-0.2c0.2 0 0.2 0.3 0.4 0.3 0.2 0.1 0.4 0 0.6 0.1 0.4 0.1 0.6 0.2 0.9 0.4s0.4 0.3 0.6 0.5c0.3 0.2 0.4 0.4 0.7 0.7 0.2 0.2 0.4 0.3 0.6 0.6s0.2 0.5 0.3 0.8c0.1 0.2 0.2 0.3 0.4 0.5h0.3c0-0.2 0.1 0.1 0.3 0"/>
<path class="st0" d="m56.7 66.9c-0.3 0.1-0.5 0.2-0.5 0.5-0.1 0.2 0 0.4 0.1 0.6 0 0 0.4 0.2 0.6 0.1s0.3-0.3 0.4-0.5c0.1-0.3 0.2-0.5-0.1-0.7-0.2-0.2-0.3 0-0.5 0"/>
<path class="st0" d="m1.3 44.1c-0.2-0.1-0.4 0-0.5 0.1s-0.3 0.2-0.3 0.3 0 0.2 0.1 0.3c0 0.1 0 0.3 0.1 0.3 0.1 0.1 0.3 0 0.4-0.1 0.2-0.1 0.4-0.2 0.5-0.5 0-0.1-0.1-0.3-0.3-0.4"/>
<path class="st0" d="m0.9 42.2c0-0.2-0.2-0.2-0.3-0.3-0.2-0.1-0.4-0.2-0.5-0.1s0 0.3 0.1 0.4c0.1 0.3 0.7 0.3 0.7 0"/>
<path class="st0" d="m44.4 81.1c-0.2 0-0.5 0-0.5 0.2s0.2 0.2 0.3 0.3c0.2 0.1 0.5 0.1 0.5-0.1 0.2-0.2-0.1-0.3-0.3-0.4"/>
<path class="st0" d="m129.2 104.6c-0.1-0.3-0.3-0.5-0.4-0.8-0.2-0.6 0-1 0-1.7v-0.7c-0.1-0.5-0.3-0.7-0.5-1.1s-0.1-0.8-0.4-1c-0.2-0.2-0.4-0.3-0.7-0.2-0.2 0.1-0.3 0.2-0.5 0.4s-0.5 0.4-0.4 0.7c0.1 0.2 0.4 0.2 0.5 0.4 0.1 0.3-0.2 0.5-0.4 0.8s-0.4 0.4-0.7 0.5c-0.2 0.1-0.4 0-0.6 0.2s-0.1 0.5-0.2 0.8-0.4 0.4-0.5 0.7c-0.1 0.2 0.1 0.4-0.1 0.5s-0.3-0.2-0.5-0.1c-0.1 0-0.2 0.1-0.3 0.1-0.3 0.2-0.1 0.6-0.4 0.7-0.2 0.1-0.4-0.1-0.5 0-0.2 0.1 0 0.3-0.1 0.5-0.2 0.4-0.6 0.5-1 0.7-0.3 0.1-0.5 0.1-0.7 0.3-0.3 0.1-0.3 0.3-0.6 0.4-0.2 0.1-0.4 0-0.7 0.1-0.2 0.1-0.3 0.3-0.5 0.4s-0.4 0-0.5 0.1c-0.3 0.2 0.1 0.6-0.1 0.9-0.1 0.2-0.3 0.3-0.5 0.5-0.3 0.4-0.4 0.8-0.5 1.3-0.1 0.6-0.3 1-0.1 1.5 0.1 0.3 0.4 0.3 0.5 0.6 0.2 0.3 0.2 0.5 0.3 0.9 0.1 0.3 0.2 0.5 0.2 0.8 0 0.4 0 0.7-0.2 1.1-0.1 0.3-0.4 0.5-0.5 0.8-0.2 0.4-0.1 0.7-0.3 1.1-0.2 0.3-0.3 0.4-0.5 0.6-0.3 0.4-0.6 0.6-0.8 1-0.2 0.5-0.3 0.9-0.2 1.4 0.1 0.4 0.2 0.5 0.4 0.9 0.2 0.3 0.3 0.5 0.4 0.9 0.1 0.3 0 0.4 0.1 0.7 0.1 0.5 0.1 0.8 0.2 1.3 0.1 0.4 0.1 0.6 0.3 0.9s0.4 0.4 0.6 0.6c0.3 0.3 0.5 0.6 0.9 0.7 0.3 0.1 0.5 0 0.7 0 0.4 0 0.6-0.1 1-0.3 0.7-0.3 1.1-0.6 1.7-1 0.2-0.2 0.4-0.2 0.6-0.5 0.3-0.3 0.2-0.7 0.3-1.1 0.2-0.7 0.1-1.2 0.4-1.8 0.2-0.3 0.3-0.4 0.5-0.7 0.1-0.3 0.1-0.5 0.2-0.8 0.1-0.5 0.1-0.9 0.3-1.3s0.4-0.5 0.5-0.9-0.1-0.7 0.1-1.1 0.6-0.5 0.7-0.9c0.1-0.2 0.1-0.3 0.1-0.5 0.1-0.4 0.3-0.5 0.4-0.9 0.1-0.2 0-0.4 0.1-0.6 0.1-0.3 0.4-0.4 0.6-0.7 0.1-0.3 0.2-0.5 0.2-0.9 0.1-0.4 0-0.7 0-1.1 0-0.5 0.1-0.8 0.3-1.3 0.1-0.3 0.2-0.5 0.4-0.8s0.4-0.4 0.5-0.7-0.1-0.6 0-0.9c0-0.1 0-0.2 0.1-0.3 0.2-0.3 0.5 0.4 0.8 0.3 0.3-0.2 0-0.6 0.1-0.9-0.2-0.8 0-1.1-0.1-1.5"/>
<path class="st0" d="m100.6 9.4l0.1-0.1-0.1 0.1"/>
<path class="st0" d="m27.4 19.6l0.1 0.1v-1.8c0.2-0.1 0.3-0.2 0.5-0.3 0.2-0.2 0.3-0.4 0.5-0.5s0.3 0 0.5-0.1c0.4-0.1 0.5-0.4 0.8-0.6s0.5-0.2 0.9-0.4l1-0.5c0.3-0.1 0.5-0.1 0.9-0.2s0.6-0.2 0.9-0.4 0.4-0.6 0.8-0.6c0.2 0 0.4 0.2 0.6 0.1 0.3 0 0.4-0.3 0.7-0.4 0.4-0.2 0.8 0 1-0.4s-0.4-0.7-0.3-1.1c0-0.3 0.1-0.5 0.3-0.8 0.4-0.5 0.8-0.5 1.3-0.6h0.8c0.3 0 0.5 0.3 0.8 0.2s0.4-0.2 0.5-0.4 0.3-0.3 0.3-0.5c0-0.3-0.5-0.2-0.7-0.4-0.2-0.3-0.1-0.6-0.1-1s0.1-0.7 0-1.1c0-0.2-0.1-0.3-0.1-0.5 0-0.4 0.1-0.6 0.1-0.9-0.1-0.4-0.4-0.5-0.5-0.9-0.1-0.3-0.1-0.5-0.1-0.8v-0.3c-0.4 0.1-0.6 0-1 0l-0.6-0.3c-0.2-0.1-0.7 0-1.1 0.1-0.3 0-0.5 0-0.7 0.1-0.3 0.1-0.5 0.3-0.8 0.3-0.4 0-0.6-0.3-0.9-0.5-0.3-0.3-0.3-0.6-0.7-0.8-0.1-0.3-0.2-0.4-0.4-0.4s-0.3 0.2-0.4 0.4c-0.3 0.4-0.1 0.8-0.3 1.2s-0.3 0.5-0.5 0.9l-0.5 1c-0.1 0.2-0.2 0.3-0.4 0.5-0.2 0.3-0.4 0.4-0.7 0.6s-0.6 0.2-0.9 0.4c-0.4 0.2-0.6 0.3-1.1 0.4-0.5 0.2-0.9 0.1-1.3 0.3s-0.8 0.3-0.9 0.7 0.4 0.6 0.3 1.1c0 0.2-0.1 0.4-0.1 0.6s0 0.3-0.1 0.5-0.3 0.3-0.4 0.5-0.1 0.4-0.1 0.7c0 0.2 0.1 0.3 0.2 0.5 0.1 0.3 0.3 0.4 0.3 0.7 0.1 0.3 0 0.6-0.1 0.9s-0.3 0.4-0.5 0.7c-0.3 0.4-0.3 0.7-0.7 1-0.2 0.2-0.4 0.3-0.7 0.5-0.2 0.2-0.3 0.4-0.5 0.5-0.2 0.2-0.4 0.3-0.6 0.4-0.3 0.2-0.6 0.3-0.9 0.4s-0.5 0-0.7 0.1c-0.3 0.1-0.5 0.1-0.8 0.3-0.3 0.3-0.3 0.6-0.5 0.9l0.1-0.1h7.5"/>
<path class="st0" d="m133.9 41.7v0l-0.1-0.1 0.1 0.1"/>
<path class="st0" d="m44.7 33.8c-0.1-0.2-0.3 0-0.5-0.2s-0.2-0.5 0-0.7l-10.4-7.7-0.1-0.1-2.5 0.1 0.2 4.6 0.5 6.9s0.1 1.6 0.2 3.1c0.1 1.2 0.1 2.3 0.1 2.3 0.2 0 0.3 0 0.5 0.1s0.3 0.3 0.3 0.6c0 0.2-0.2 0.3-0.3 0.5s0 0.4-0.1 0.6c-0.1 0.1-0.2 0.2-0.3 0.2l-0.5-0.1-5.6-0.1c-0.1-0.3-0.3-0.4-0.6-0.4s-0.3 0.3-0.5 0.5c-0.2 0.1-0.3 0.3-0.5 0.3s-0.3-0.2-0.5-0.3-0.3-0.2-0.5-0.1c-0.2 0-0.3 0.3-0.5 0.4s-0.3 0.3-0.5 0.2-0.1-0.4-0.3-0.6c-0.2-0.1-0.3-0.2-0.5-0.1-0.2 0-0.2 0.1-0.3 0.3s-0.1 0.3-0.1 0.5c0 0.3 0.2 0.5 0 0.7-0.1 0.2-0.4 0.1-0.6 0.2l-0.3-0.1 0.3 0.6c0.1 0.3 0.2 0.4 0.2 0.7v0.7c0 0.2 0 0.3 0.1 0.5 0.1 0.3 0.4 0.3 0.6 0.6 0.1 0.2 0.2 0.3 0.3 0.5 0.1 0.3 0.2 0.6-0.1 0.9-0.2 0.2-0.4 0.1-0.7 0.2l-0.2-0.1c0.3 0.1 0.3 0.3 0.6 0.4 0.2 0.1 0.3 0.1 0.5 0.1 0.3 0.1 0.5 0 0.7 0.1 0.1 0.1 0 0.3 0.2 0.4s0.2-0.4 0.5-0.5 0.6 0.2 0.9 0.1c0.3 0 0.5-0.1 0.7-0.3 0.2-0.1 0.3-0.5 0.5-0.5s0.2 0.2 0.3 0.3c0.2 0.3-0.1 0.6 0.1 0.9 0.1 0.2 0.3 0.3 0.5 0.5 0.2 0.3 0 0.7 0.3 0.9 0.1 0.1 0.2 0 0.3 0.1 0.2 0.2-0.2 0.5-0.1 0.8s0.3 0.4 0.5 0.6v0.1c0.2-0.1 0.3-0.3 0.6-0.3s0.4 0.2 0.6 0.3 0.3 0.2 0.5 0.1c0.3-0.1 0.3-0.4 0.5-0.5s0.3-0.3 0.5-0.3c0.1 0 0.2 0 0.3 0.1 0.2 0.1-0.1 0.4 0 0.5 0.1 0.2 0.3 0.1 0.5 0.1 0.3 0 0.4-0.2 0.6-0.3l0.1 0.1c0.1-0.5 0.1-0.9 0.3-1.3 0.1-0.2 0.3-0.3 0.3-0.5 0.1-0.3-0.1-0.5-0.1-0.8s0-0.6 0.3-0.7c0.2-0.2 0.5 0.2 0.7 0.1 0.3-0.1 0.4-0.5 0.5-0.8 0.1-0.4 0-0.6 0.1-1 0.1-0.3 0.2-0.4 0.3-0.7 0.3-0.4 0.4-0.7 0.8-0.9 0.5-0.2 0.8 0.3 1.3 0.3 0.3 0 0.5 0 0.7-0.1 0.2-0.2 0.2-0.4 0.3-0.6l1-1c0.2-0.1 0.3-0.1 0.5-0.2s0.2-0.3 0.4-0.3c0.2-0.1 0.3 0 0.5 0 0.3-0.1 0.3-0.5 0.6-0.5 0.2 0 0.3 0.1 0.5 0.1 0.4 0.1 0.7 0.1 1.1 0.1v-0.1c0.3 0 0.5 0.1 0.7 0.1s0.4-0.1 0.6-0.2 0.3-0.3 0.5-0.4c0.3-0.1 0.5 0 0.9 0 0.5 0 0.8 0.1 1.2-0.1 0.2-0.1 0.3-0.3 0.5-0.3 0.4-0.1 0.6 0.4 0.9 0.3 0.2-0.1 0.3-0.2 0.5-0.4s0.4-0.3 0.5-0.5 0-0.4 0.1-0.7c0.1-0.4 0.3-0.6 0.4-0.9 0.1-0.6-0.1-1-0.1-1.7v-0.4c0-0.6 0.1-1 0-1.7 0-0.3-0.1-0.5-0.1-0.9l0.7-0.1c-0.3 0-0.5 0.1-0.9 0.1-0.2 0-0.4 0-0.5-0.2s0-0.3 0-0.5c0-0.4 0.1-0.7-0.1-0.9s-0.4-0.2-0.7-0.3c-0.2 0-0.4 0.1-0.6 0s-0.1-0.4-0.2-0.6l-1.1-0.3c-0.2-0.3-0.2-0.4-0.3-0.5"/>
<path class="st0" d="m13.5 50.6c0.3 0.1 0.5 0 0.7 0.1 0.3 0.1 0.5 0.3 0.8 0.5l0.1 1.3c0.1 0.1 0.3 0.1 0.4 0.1v0.1c0.1-0.3 0.1-0.5 0.3-0.7 0.2-0.3 0.5-0.3 0.7-0.5l0.3-0.3c0.3-0.1 0.6 0.1 0.8-0.1 0.1-0.1 0.2-0.2 0.2-0.4 0.1-0.3-0.2-0.5-0.1-0.7 0-0.1 0.2-0.2 0.2-0.3v-0.3l-0.2-0.1h-0.9c-0.5 0-0.8-0.1-1.2 0-0.2 0.1-0.3 0.2-0.5 0.3s-0.4 0.2-0.6 0.2c-0.3 0.1-0.5 0-0.9 0-0.3 0-0.5 0-0.7 0.1l-0.1 0.1c0.3 0.2 0.4 0.4 0.7 0.6"/>
<path class="st0" d="m47.6 55.2c0.2-0.2 0.4-0.3 0.5-0.6s0-0.5 0.1-0.7c0.1-0.3 0.4-0.3 0.5-0.6 0-0.3-0.3-0.4-0.5-0.7-0.2-0.4-0.2-0.6-0.3-1v-0.7l0.2-0.2c-0.3 0-0.5 0.2-0.8 0-0.2-0.1-0.2-0.4-0.4-0.5-0.1-0.1-0.2-0.3-0.4-0.3-0.3-0.1-0.4 0.4-0.6 0.6l-0.1-0.1c0 0.4 0.1 0.7-0.1 1-0.1 0.2-0.2 0.4-0.4 0.5-0.3 0.2-0.5 0-0.8 0-0.2 0-0.4 0-0.5 0.1-0.3 0.2-0.2 0.4-0.4 0.7l-0.2-0.1 0.5 0.5c0.1 0.3 0 0.5 0.1 0.7 0.1 0.3 0.3 0.3 0.5 0.5s0.3 0.4 0.4 0.7c0.2 0.4-0.2 0.8 0 1.2 0.1 0.3 0.2 0.4 0.3 0.6 0.2 0.6 0 0.9-0.1 1.5 0 0.5-0.1 0.8-0.1 1.3s0 0.8 0.1 1.3c0.1 0.4 0.2 0.6 0.3 1h0.2c0.5-0.1 0.7 0 1.2 0l-0.3-0.1v-1.4c0-0.4-0.1-0.7-0.1-1.1v-1.3c0-0.6-0.1-1 0.2-1.4 0.2-0.3 0.6-0.2 0.6-0.5 0-0.2-0.2-0.2-0.2-0.3 0-0.2 0.4-0.3 0.6-0.6"/>
<path class="st0" d="m63.4 86.4c0 0.1 0 0.2-0.1 0.2l0.2 0.1h0.3c0.3-0.1 0.3-0.4 0.5-0.5 0.3-0.1 0.6 0.1 0.9 0.1 0.5 0 0.7-0.1 1.2-0.1h1c0.4 0 0.6 0.1 1 0.1 0.5 0 0.8-0.1 1.3-0.1 0.3 0 0.5-0.1 0.7 0.1 0.1 0.1 0.2 0.2 0.2 0.3 0.1 0.2-0.1 0.4-0.1 0.6 0 0.3 0.1 0.4 0.2 0.7 0.1 0.4 0 0.6 0.1 0.9 0.1 0.2 0.2 0.2 0.3 0.4 0.2 0.3 0.1 0.5 0.3 0.8 0.3 0.3 0.6 0.6 1 0.5 0.3 0 0.3-0.3 0.6-0.3 0.3-0.1 0.4 0 0.7 0h0.9c0.2 0 0.3 0.1 0.5-0.1s-0.1-0.4 0-0.7c0.1-0.2 0.2-0.3 0.3-0.5s0-0.4 0.2-0.6c0.3-0.3 0.6-0.1 1-0.1 0.3 0 0.6-0.2 0.7 0.1 0.1 0.1 0 0.3 0.1 0.5 0.2 0.3 0.6 0 0.9 0s0.7-0.3 0.9 0c0.1 0.2 0 0.3 0 0.5 0 0.4-0.1 0.6 0 1 0 0.2 0.1 0.4 0.2 0.6v0.2c0.1 0.4 0 0.7 0 1.2 0 0.4-0.3 0.7-0.2 1.1 0.1 0.5 0.6 0.6 0.7 1 0.2 0.4 0.2 0.6 0.2 1 0 0.3-0.1 0.4-0.1 0.7 0 0.1-0.1 0.2 0 0.3 0.1 0.3 0.5 0 0.7 0s0.3 0.1 0.5 0.1c0.4 0 0.6-0.3 0.9-0.3s0.5 0.1 0.8 0.2l0.2 0.1c0.1 0.1 0.2 0.1 0.3 0.2 0.2 0.1 0.2 0.4 0.5 0.4s0.3-0.4 0.6-0.3c0.2 0 0.3 0.1 0.4 0.2 0.3 0.2-0.1 0.6 0.2 0.9s0.7-0.1 1.1 0c0.3 0.1 0.4 0.3 0.7 0.4s0.5 0.2 0.7 0.1 0.1-0.5 0.3-0.5 0.3 0.1 0.4 0.1c0.3 0.2 0.3 0.4 0.5 0.6 0.3 0.3 0.5 0.3 0.8 0.5 0.4 0.4 0.2 1 0.7 1.2 0.3 0.1 0.7 0.1 1.3 0l0.1-0.6c-0.1-0.6 0.5-1-0.2-1-0.4 0-0.7-0.1-1-0.3-0.5-0.4-0.3-1-0.2-1.7 0.1-0.4 0.3-0.6 0.3-1 0.1-0.4 0.1-0.6 0.1-0.9 0-0.2 0.1-0.3 0-0.5-0.1-0.3-0.5-0.1-0.6-0.4s0.1-0.4 0.3-0.7c0.2-0.4 0.4-0.5 0.7-0.8l0.5-0.5c0.2-0.2 0.3-0.5 0.6-0.7 0.4-0.2 0.7 0.1 1.1 0 0.2 0 0.3-0.1 0.5-0.1s0.3 0 0.5-0.1h0.7l-0.3-0.6c-0.1-0.4-0.2-0.6-0.3-0.9-0.1-0.4-0.1-0.7-0.3-0.9s-0.4-0.1-0.6-0.3c-0.1-0.2-0.2-0.3-0.2-0.5-0.1-0.3-0.1-0.4-0.1-0.7v-1.1c0-0.6-0.1-0.9-0.1-1.4v-0.7c0-0.3 0-0.5-0.1-0.7-0.1-0.4-0.5-0.6-0.3-0.9 0-0.1 0.1-0.3 0.1-0.3-0.1-0.3-0.1-0.4-0.1-0.7-0.1-0.3-0.1-0.5-0.1-0.7l0.1-0.2c-0.1-0.2-0.2-0.3-0.3-0.5 0-0.2 0-0.3 0.1-0.4 0.1-0.3 0.5-0.2 0.6-0.5 0.1-0.2-0.1-0.4 0-0.7 0-0.2 0.1-0.3 0.2-0.5l0.1-0.2c0.2-0.7 0.4-1.1 0.5-1.8 0.1-0.6 0-0.9 0.1-1.5s0.2-0.9 0.5-1.3c0.2-0.2 0.4-0.3 0.6-0.5l1.5-1.5c-0.1-0.2-0.1-0.3-0.2-0.4-0.2-0.3-0.4-0.5-0.5-0.8-0.2-0.3-0.2-0.5-0.3-0.9s0-0.6 0-0.9l-0.2-0.3c-0.2-0.2-0.2-0.3-0.4-0.4-0.2-0.2-0.4-0.2-0.5-0.4-0.2-0.2-0.2-0.3-0.3-0.5-0.2-0.2-0.2-0.4-0.5-0.4-0.3-0.1-0.4 0.4-0.7 0.3-0.2 0-0.2-0.2-0.4-0.2-0.3-0.1-0.5 0.2-0.8 0.2h-0.6c-0.3-0.1-0.5-0.2-0.7-0.4s-0.3-0.4-0.5-0.6l-0.5-0.5 0.1-0.1c-0.2 0.1-0.2 0.1-0.4 0.1-0.3 0.1-0.5 0.1-0.7 0.1-0.3 0-0.4-0.1-0.7-0.2-0.2 0-0.3 0-0.5-0.1-0.3-0.1-0.3-0.5-0.5-0.5s-0.2 0.3-0.4 0.5c-0.3 0.3-0.5 0.5-0.9 0.5-0.2 0-0.2-0.1-0.4-0.1h-0.5c-0.3 0.1-0.3 0.3-0.5 0.4l-0.6 0.3c-0.3 0.1-0.4 0.1-0.7 0.1s-0.4-0.4-0.7-0.3c-0.2 0-0.2 0.2-0.3 0.3l-0.2 1.1c-0.3-0.1-0.6-0.2-0.9-0.3-0.3 0-0.4-0.1-0.7-0.1h-0.7c-0.4 0-0.5-0.2-0.9-0.3-0.2 0-0.3 0-0.4-0.1-0.3-0.1-0.3-0.4-0.5-0.7-0.2-0.2-0.4-0.4-0.7-0.5s-0.5-0.1-0.7-0.1c-0.3 0.1-0.4 0.3-0.7 0.5s-0.5 0.4-0.6 0.7-0.1 0.4-0.1 0.7 0.1 0.5 0 0.7-0.2 0.2-0.3 0.3h0.1c0 0.4 0 0.6-0.1 0.9-0.1 0.4-0.1 0.6-0.3 0.9s-0.4 0.3-0.6 0.6c-0.2 0.4-0.1 0.6-0.1 1 0 0.2-0.1 0.4-0.1 0.6-0.1 0.4 0 0.7 0 1.1s0.2 0.6 0.1 0.9-0.3 0.3-0.4 0.6c-0.2 0.5 0.2 0.9-0.1 1.3-0.2 0.3-0.4 0.4-0.6 0.6s-0.3 0.2-0.5 0.4c-0.3 0.3-0.2 0.6-0.4 1-0.1 0.2-0.2 0.3-0.3 0.5-0.1 0.1-0.3 0.1-0.4 0.3s-0.2 0.3-0.2 0.5 0.1 0.3 0.1 0.5c0.1 0.3 0.1 0.5 0.1 0.7v0.9c0 0.2 0 0.3-0.1 0.5-0.1 0.3-0.4 0.4-0.6 0.6l-0.1 0.1c-0.2 0.2-0.4 0.3-0.6 0.5-0.3 0.3-0.3 0.6-0.7 0.9-0.3 0.2-0.4 0.3-0.7 0.5-0.2 0.1-0.3 0.2-0.5 0.1s0.1-0.4-0.1-0.6c-0.1-0.2-0.2-0.2-0.4-0.3-0.2 0-0.3 0.1-0.5 0.3l-0.3 0.3-0.3 0.1h-0.6c-0.3 0-0.6-0.1-0.9 0.1s-0.3 0.4-0.4 0.7 0.1 0.6-0.1 0.9c-0.1 0.1-0.2 0.1-0.4 0.2l-0.2 0.1c0 0.1 0 0.2 0.1 0.3-0.2 0 0-0.1 0.1 0.1"/>
<path class="st0" d="m102.6 97.9c0-0.1 0.1-0.2 0.1-0.2l-0.1 0.2"/>
<path class="st0" d="m95.8 104c-0.3 0.1-0.5-0.1-0.7 0-0.3 0.1-0.4 0.1-0.7 0.3-0.2 0.1-0.3 0.1-0.5 0.3-0.1 0.2-0.2 0.3-0.1 0.5s0.4 0.1 0.5 0.3c0 0.2-0.1 0.2-0.2 0.4l-0.1 0.1c0.2 0.2 0.4 0.3 0.6 0.5 0.4 0.3 0.7 0.3 1.1 0.5s0.6 0.4 1.1 0.5c0.4 0.2 0.6 0.2 0.9 0.3s0.5 0.1 0.7 0.4c0.1 0.2 0 0.4 0 0.7v1.2 1.3 0.3c0 0.4 0 0.8-0.1 1.3 0 0.5 0 0.8-0.1 1.3-0.1 0.6-0.2 0.9-0.4 1.4-0.1 0.3-0.1 0.4-0.2 0.7-0.1 0.4-0.3 0.5-0.5 0.9-0.2 0.3-0.3 0.4-0.5 0.7-0.1 0.2-0.1 0.3-0.2 0.5-0.2 0.3-0.5 0.2-0.8 0.5-0.3 0.2-0.5 0.3-0.6 0.7-0.1 0.3 0.2 0.4 0.2 0.7 0 0.4-0.1 0.6-0.1 1 0.1 0.5 0.3 0.6 0.5 1.1 0.1 0.3 0.3 0.5 0.3 0.8 0.1 0.3-0.1 0.5-0.1 0.9v0.8c0 0.5-0.1 0.7-0.1 1.2 0 0.3 0.1 0.4 0.1 0.7s0 0.5-0.1 0.9l1.6 0.2v-0.5-0.6c0-0.4 0.1-0.7 0.3-1 0.1-0.2 0.3-0.2 0.5-0.4 0.3-0.2 0.4-0.4 0.7-0.5 0.3-0.2 0.5-0.3 0.9-0.4 0.4-0.2 0.7-0.1 1.1-0.3 0.3-0.1 0.4-0.3 0.7-0.5 0.2-0.2 0.4-0.3 0.5-0.5 0.1-0.3 0.1-0.5 0.1-0.8 0-0.4-0.1-0.7 0-1.1s0.2-0.5 0.3-0.9c0.1-0.3 0.2-0.4 0.1-0.7 0-0.4-0.3-0.5-0.4-0.9s0.1-0.6 0-1c-0.1-0.3-0.2-0.4-0.3-0.7-0.1-0.4 0.1-0.6-0.1-0.9-0.1-0.2-0.4-0.2-0.5-0.4-0.2-0.3-0.1-0.6 0.1-0.9 0.1-0.2 0.2-0.2 0.3-0.3 0.3-0.2 0.5-0.1 0.8-0.2s0.5-0.1 0.7-0.3c0.3-0.3 0.2-0.6 0.4-0.9 0.3-0.4 0.6-0.5 0.9-0.9l0.4-0.4 0.1-0.1 0.7-0.7c0.3-0.3 0.4-0.6 0.7-0.9 0.4-0.3 0.6-0.5 1.1-0.7s0.9-0.2 1.3-0.4c0.5-0.3 0.8-0.6 1.2-1 0.3-0.3 0.6-0.4 0.7-0.8 0.1-0.3-0.1-0.6 0.1-0.9 0.2-0.5 0.5-0.6 0.9-0.9 0.2-0.2 0.4-0.3 0.5-0.6 0.2-0.3 0.3-0.5 0.4-0.8 0.1-0.4-0.1-0.7-0.1-1.1v-1.3c0-0.6 0-0.9 0.1-1.5 0-0.5 0.1-0.7 0.1-1.2s-0.2-0.8 0-1.3c0.1-0.3 0.3-0.4 0.3-0.7s0-0.5-0.2-0.7-0.4-0.2-0.6-0.3l-0.3-0.3 0.1 0.1-0.3 0.3c-0.2 0.2-0.2 0.3-0.4 0.5-0.1 0.1-0.2 0.2-0.3 0.2-0.2 0-0.2-0.2-0.4-0.1s-0.1 0.4-0.3 0.5c-0.1 0.1-0.2 0-0.4 0-0.3 0-0.5-0.2-0.7 0-0.2 0.1-0.1 0.5-0.3 0.6s-0.3-0.2-0.5-0.3-0.3-0.1-0.5-0.1c-0.3 0.1-0.3 0.3-0.5 0.5s-0.3 0.5-0.5 0.5c-0.3 0.1-0.4-0.1-0.7-0.2-0.2-0.1-0.3-0.2-0.5-0.1-0.2 0-0.2 0.2-0.4 0.3s-0.4 0.1-0.6-0.1c-0.1-0.1-0.1-0.3-0.3-0.3-0.2-0.1-0.4 0-0.6 0.1-0.3 0-0.5 0-0.8 0.1-0.1 0-0.2 0-0.3 0.1v0.1c0 0.2 0 0.3-0.1 0.5s-0.3 0.1-0.4 0.3c-0.2 0.3-0.1 0.6 0 0.9 0 0.3 0.1 0.4 0.2 0.7s0.1 0.4 0.1 0.7 0.1 0.4 0.1 0.7v-0.1c0.2 0.2 0.4 0.3 0.5 0.6 0.1 0.1 0 0.2 0.1 0.4 0.1 0.3 0.1 0.4 0.3 0.7 0.1 0.3 0.4 0.4 0.5 0.7 0.2 0.4 0.1 0.7 0 1.1s-0.3 0.6-0.6 0.9c-0.2 0.3-0.3 0.5-0.6 0.6-0.2 0.1-0.4 0.1-0.7 0s-0.4-0.2-0.5-0.4c-0.1-0.3 0.2-0.5 0.3-0.8 0.1-0.4 0.1-0.6-0.1-1-0.1-0.4-0.2-0.7-0.6-0.8-0.2 0-0.4 0.1-0.6 0.1-0.3 0-0.4 0.1-0.7 0-0.2-0.1-0.2-0.3-0.3-0.5s0.1-0.5-0.1-0.6c-0.1-0.1-0.3 0-0.5-0.1h-0.2c-0.1 0.2 0 0.4-0.1 0.5-0.2 0.2-0.4 0.1-0.7 0.1-0.2 0-0.4 0-0.6 0.1s-0.3 0.1-0.5 0.2c-0.5-0.2-0.6 0-1 0.1"/>
<path class="st0" d="m66.2 47.3c0.1 0.2 0 0.4 0.1 0.6 0.1 0.3 0.3 0.4 0.5 0.5l-0.5 0.3c0.2 0 0.3-0.1 0.5-0.1 0.3 0.1 0.3 0.4 0.5 0.7s0.5 0.3 0.6 0.7c0.1 0.3 0 0.5 0.1 0.7 0.1 0.3 0.1 0.4 0.2 0.7 0.1 0.1 0.1 0.2 0.2 0.3 0.2 0.5-0.4 0.8-0.3 1.3 0 0.3 0.1 0.5 0.3 0.7 0.1 0.1 0.2 0.1 0.3 0.2 0.2 0.2 0.5 0.5 0.3 0.7-0.1 0.2-0.4 0.1-0.6 0.1-0.4 0-0.6-0.1-0.9-0.1s-0.5-0.1-0.7 0.1-0.3 0.4-0.3 0.7 0.3 0.3 0.5 0.6c0.1 0.2 0 0.4 0.2 0.6 0.1 0.2 0.3 0.2 0.5 0.3 0.4 0.2 0.8 0.2 1 0.7 0.1 0.2 0 0.4 0.1 0.7 0.1 0.4 0.2 0.6 0.4 1l0.1 0.1c0.3 0 0.4 0.1 0.7 0.1s0.4 0 0.7-0.1c0.2-0.1 0.2-0.3 0.4-0.3s0.2 0.3 0.4 0.4c0.4 0.1 0.3-0.6 0.7-0.7 0.3-0.1 0.5 0.2 0.7 0 0.2-0.1 0.2-0.4 0.3-0.6 0.2-0.3 0.2-0.6 0.5-0.8 0.2-0.2 0.4-0.3 0.7-0.3 0.3-0.1 0.5 0 0.8 0s0.5-0.1 0.8-0.2 0.5-0.1 0.7-0.2 0.4-0.1 0.6-0.2c0.2 0 0.3 0 0.5-0.1s0.2-0.3 0.4-0.5l0.3-0.3 0.5-0.7c0.2-0.1 0.3-0.2 0.5-0.3 0.2-0.2 0.3-0.2 0.4-0.5 0.1-0.2 0-0.3 0.1-0.5s0.2-0.3 0.3-0.4c0.2-0.2 0.4-0.2 0.7-0.3h0.7 0.2c0.1-0.2 0.1-0.2 0.1-0.4s-0.1-0.4-0.3-0.5-0.4 0.1-0.5-0.1c-0.1-0.1 0-0.3 0-0.5s0.1-0.3 0.1-0.5-0.1-0.2-0.1-0.4c-0.1-0.4 0.1-0.6 0.1-0.9 0-0.4-0.2-0.6-0.1-1 0-0.3 0.2-0.4 0.3-0.7 0-0.4 0-0.6-0.2-0.9-0.1-0.3-0.5-0.4-0.5-0.7 0-0.2 0.1-0.3 0.3-0.5 0.2-0.3 0.4-0.4 0.7-0.7l0.2-0.7c0.1-0.2 0-0.3 0.1-0.5 0.1-0.1 0.2-0.2 0.4-0.2l1.3-0.1-0.1-7.1 0.1-0.3c-0.4-0.3-0.5-0.5-0.9-0.7-0.3-0.2-0.4-0.2-0.7-0.3-0.4-0.2-0.6-0.2-1-0.3-0.5-0.2-0.7-0.4-1.1-0.7-0.3-0.2-0.5-0.3-0.8-0.5-0.2-0.2-0.3-0.3-0.5-0.4-0.3-0.2-0.5-0.1-0.7-0.3-0.7-0.3-1-0.6-1.6-0.9-0.4-0.3-0.7-0.5-1.1-0.7-0.2-0.1-0.4-0.1-0.5-0.3-0.2-0.2-0.2-0.4-0.5-0.6-1-0.5-1.4-0.3-1.9-0.5-0.6-0.3-0.9-0.6-1.5-0.9-0.4-0.2-0.7-0.3-1.1-0.5-0.2-0.1-0.4-0.5-0.6-0.3-0.2 0.1-0.1 0.3-0.2 0.5-0.2 0.2-0.3 0.1-0.5 0.2l-0.6 0.3-0.2 0.3c0.1 0.2 0.2 0.3 0.3 0.5 0.1 0.3 0.1 0.5 0.1 0.8v0.9c0 0.3 0 0.6 0.2 0.9 0.1 0.2 0.4 0.2 0.5 0.4s-0.1 0.3-0.1 0.5c0.1 0.2 0.3 0.2 0.5 0.4 0.1 0.1 0.1 0.2 0.1 0.4 0.1 0.4-0.1 0.6-0.2 0.9-0.1 0.7-0.3 1.1-0.3 1.8 0.1 1.8 1 2.9 0 4.3-0.1 0.2-0.2 0.3-0.4 0.5s-0.3 0.3-0.5 0.4c-0.2 0.2-0.4 0.2-0.5 0.4-0.1 0.1 0 0.3 0 0.4-0.1 0.4-0.3 0.5-0.5 0.7l-0.1 0.1c-0.1 0.1-0.3 0.2-0.4 0.3-0.3 0.3-0.5 0.5-0.6 0.9-0.1 0.3 0 0.5 0 0.8s0 0.5-0.1 0.9c-0.1 0.3-0.2 0.5-0.3 0.7l0.6-0.5c-0.1 0.1 0 0.1 0.1 0.3"/>
<path class="st0" d="m101.1 66.4l0.2 0.1c0.2 0.2 0.3 0.3 0.4 0.5s0.1 0.4 0.3 0.6c0.2 0.3 0.5 0.4 0.7 0.7s0.2 0.4 0.3 0.7c0.1 0.4 0 0.7 0 1.1 0 0.3 0.1 0.4 0.1 0.7 0 0.4 0.2 0.7-0.1 1-0.2 0.2-0.4 0.1-0.5 0.3-0.3 0.2-0.3 0.5-0.5 0.8s-0.5 0.4-0.6 0.7 0 0.5 0 0.8h-0.1c0.1 0 0.2 0.1 0.3 0.1 0.2 0.1 0.5 0.1 0.5 0.3s-0.2 0.3-0.3 0.5-0.2 0.2-0.3 0.4 0.2 0.4 0.1 0.6l-0.1 0.3c0.5 0.3 0.8 0.5 1.3 0.7 0.6 0.3 1.1 0.2 1.7 0.5 0.4 0.3 0.5 0.7 0.9 1 0.4 0.4 0.7 0.5 1.1 0.8 0.4 0.2 0.7 0.1 0.9 0.5 0.3 0.4 0 0.8 0.1 1.2 0.2 0.5 0.4 0.8 0.9 1.2 0.3 0.3 0.5 0.4 0.9 0.5 0.3 0.2 0.5 0.3 0.9 0.4 0.2 0.1 0.4 0.1 0.6 0.2h0.1c-0.1-0.2 0.2-0.2 0.3-0.4s0.2-0.4 0.3-0.7 0-0.5 0.1-0.9c0.1-0.3 0.1-0.5 0.3-0.8 0.1-0.2 0.3-0.2 0.4-0.3 0.2-0.2 0.2-0.3 0.3-0.5s0.1-0.4 0.3-0.6 0.4-0.2 0.5-0.3 0.1-0.2 0.2-0.3c0.1-0.2 0.3-0.2 0.4-0.4s0.1-0.3 0.1-0.5c0.1-0.3 0.3-0.4 0.5-0.6l-0.3 0.1c-0.2-0.2-0.2-0.3-0.4-0.5-0.1-0.2-0.2-0.3-0.3-0.5-0.2-0.3-0.3-0.4-0.4-0.7-0.2-0.6 0-1.1 0.1-1.8 0-0.4 0.1-0.6 0.1-1 0.1-0.5 0.1-0.8 0.1-1.3s0.1-0.7 0.1-1.2c0-0.4-0.1-0.6-0.1-1s-0.2-0.8 0.1-1.1c0.2-0.2 0.4-0.2 0.6-0.3 0.2-0.2 0.2-0.4 0.4-0.6 0.1-0.1 0.3-0.2 0.4-0.3 0.1-0.2 0-0.4 0-0.6h-0.1c-0.3 0.1-0.4 0.2-0.7 0.2s-0.5-0.1-0.8-0.3c-0.2-0.2-0.2-0.5-0.4-0.5s-0.2 0.2-0.3 0.3c-0.2 0.2-0.4 0.1-0.7 0.3-0.2 0.1-0.2 0.2-0.3 0.4-0.2 0.3-0.2 0.6-0.5 0.7-0.2 0.1-0.4 0.1-0.6 0s-0.2-0.3-0.4-0.3c-0.2-0.1-0.3-0.1-0.5-0.1-0.3 0-0.5 0.2-0.8 0.1-0.2-0.1-0.3-0.1-0.5-0.3-0.3-0.2-0.4-0.4-0.7-0.7-0.3-0.2-0.4-0.4-0.7-0.5-0.2-0.1-0.3-0.1-0.5-0.1h-0.8c-0.3 0-0.5-0.1-0.9-0.2l-0.2-0.1-0.8-0.3-0.7-0.1s-1.1 0-1.2 0.2c-0.4 0.5-0.8 1.2-0.8 1.2"/>
<path class="st0" d="m117.1 49.5l-0.4 0.2c-0.2 0.2-0.2 0.5-0.5 0.5-0.2 0.1-0.4-0.2-0.6-0.1-0.3 0.1-0.2 0.5-0.4 0.7-0.2 0.3-0.4 0.5-0.5 0.9s-0.2 0.7 0 1.1c0.1 0.2 0.1 0.4 0.3 0.4s0.2-0.4 0.5-0.3c0.2 0 0.2 0.2 0.3 0.2 0.2 0 0.2-0.5 0.4-0.5 0.3 0 0 0.6 0.3 0.6s0.2-0.4 0.4-0.6c0.1-0.2 0.2-0.2 0.3-0.4l0.3-0.1c-0.2-0.1-0.3-0.1-0.5-0.1s-0.4 0.2-0.5 0.1c-0.2-0.1-0.3-0.4-0.2-0.6 0.1-0.3 0.6 0 0.8-0.3 0.1-0.1 0.2-0.2 0.3-0.4 0-0.3-0.2-0.4-0.3-0.6 0-0.2 0.2-0.5 0-0.7"/>
<path class="st0" d="m90.3 132.2c-0.3-0.3-0.5-0.5-0.9-0.5-0.3-0.1-0.6-0.1-0.9 0.1-0.4 0.1-0.6 0.4-0.8 0.7-0.2 0.2-0.2 0.4-0.4 0.7-0.2 0.2-0.5 0.2-0.5 0.5-0.1 0.3 0.1 0.5 0.3 0.7 0.1 0.2 0.3 0.3 0.4 0.5 0.2 0.3 0.1 0.7 0.5 0.7 0.2 0 0.4-0.1 0.5-0.2 0.2-0.2 0.2-0.5 0.4-0.6 0.3-0.1 0.5 0.1 0.7 0 0.3-0.1 0.3-0.3 0.5-0.5s0.3-0.4 0.5-0.7c0.1-0.3 0.3-0.4 0.2-0.7-0.1-0.4-0.3-0.5-0.5-0.7"/>
<path class="st0" d="m95.6 126.8c0-0.3 0.1-0.5-0.1-0.7s-0.5-0.1-0.8 0-0.4 0.3-0.5 0.5c-0.2 0.2-0.3 0.4-0.4 0.7s-0.1 0.5 0 0.7c0.1 0.3 0.1 0.5 0.3 0.7s0.3 0.3 0.5 0.3c0.2 0.1 0.4 0 0.6-0.1s0.3-0.2 0.5-0.4c0.1-0.2 0.2-0.3 0.3-0.5 0-0.3-0.2-0.4-0.3-0.7-0.1-0.2-0.1-0.3-0.1-0.5"/>
</svg>
