<?xml version="1.0" encoding="UTF-8"?>
<svg enable-background="new 0 0 1208 975.2" version="1.1" viewBox="0 0 1208 975.2" xml:space="preserve" xmlns="http://www.w3.org/2000/svg">
<style type="text/css">
	.st0{fill-rule:evenodd;clip-rule:evenodd;fill:#DDDDDD;}
	.st1{fill:#DDDDDD;stroke:#DDDDDD;stroke-width:6.29;stroke-linecap:round;}
	.st2{fill:#DDDDDD;stroke:#DDDDDD;stroke-width:8.6884;stroke-linecap:round;}
	.st3{fill:#DDDDDD;stroke:#DDDDDD;stroke-width:6.9993;stroke-linecap:round;}
	.st4{fill:#DDDDDD;stroke:#DDDDDD;stroke-width:10.7516;stroke-linecap:round;}
	.st5{fill:#DDDDDD;stroke:#DDDDDD;stroke-width:7.5193;stroke-linecap:round;}
	.st6{fill:#DDDDDD;stroke:#DDDDDD;stroke-width:10.4029;stroke-linecap:round;}
</style>
		<path class="st0" d="m361.9 0h14.6c2.6 7.6 14.8 5.6 22.6 8 3.4 6.7-3.6 15.7 0 25.3 2 5.1 6.5 2.7 9.3 6.7 2.6 3.7 1.3 13.4 8 14.6 12.1 2.2 15-18.6 21.3-21.3 3.1-1.3 8.4 1.4 10.6 0 1.4-0.9 1.1-4.6 2.7-6.7 12.9-16.6 30.6 4.4 46.6 9.3 8.2 2.5 20.7 2.7 31.9 5.3 5.8 1.4 9.7 7.2 16 9.3 6.6 2.3 14.8 0.7 20 2.7 4.7 1.8 7.8 7.3 12 9.3 2.7 1.3 6.9-0.9 9.3 0 11.1 3.9 17.4 18.6 27.9 14.6 1.6 6.8-6.5 7.5-2.7 14.6 0 0.1 14.6 7 20 9.3 9.5 4.2 22.6 4.1 17.3 16-2.8 6.2-10.8 1.1-16 2.7-1.6 13.4 16.7 15.8 21.3 21.3 1 1.2-0.6 5.1 0 6.7 0.6 1.5 8.9 11.7 6.7 10.6 4.4 2 9.1-4.6 12-1.3 2.3 2.2 3.3 5.6 2.7 10.6 4.1 5.9 13.6-6 10.6-5.3 7.6-1.7 19.6 3.4 17.3 9.3-3.2 8.1-11.9-3-14.6-2.7 4.2-0.6-6.1 3.6-4 6.7 2.6 3.9 9.7-0.6 16 4 1.6 1.2 4 10.7 4 10.6-0.2 0.3-16.2 3-18.6 2.7-3.4-0.5-4.6-5.1-8-6.7-10.6-5-26.4-0.5-35.9-5.3-3-1.5-20.8-20-22.6-22.6-4.8-6.7-3.1-12.7-10.6-16-6.9-3-18.4 3.7-18.6-8-3.6 5.9-6.8 3.3-12 5.3-10.8 4.3-5.4 13.5-12 21.3-6.8 8-18 4.5-23.9 4-10.1-0.9-17.3 2.4-25.3-2.7s-7-14.6-17.3-17.3c-15.9-4.1-23.7 9.7-41.2 5.3 2.3-8.4 5.8-18.1 12-21.3 3.2-1.6 5.3 1.4 6.7-1.3 3.8-7.4-6.9-27.1-10.6-31.9-9.2-11.7-37.8-13.9-55.9-20-9.6-3.2-16.4-9.1-21.3-13.3-5.8 4.7-5.6 9.2-10.6 9.3-12.3 0.3-5.3-10.8-6.7-13.3-3.7-6.9-11.5-6.9-17.3-10.6-0.1-10.7 17.9-1.2 20-6.7-5.4-7.7-6.5 0.1-13.3-4-4-2.4-3.2-10.5-5.3-12-5.3-3.8-13 0.3-18.6-4 1.3-13.2 15.8-13.7 23.5-21.1z"/>
		<path class="st0" d="m620 35.9c-0.5-11.6 19.4-10 20-4 0.6 7.5-12.7 6.2-20 4z"/>
		<path class="st0" d="m737 65.2c9.7 2.4 11.2 14.1 4 20-3.4 2.7-4.9-3.6-9.3-2.7 1.2-0.3-7.6 6.5-6.7 5.3-1 1.2 2.4 5.1 1.3 8-1.6 4.4-6.4 1.4-9.3 2.7-9 3.9-22.3 16.3-38.6 13.3-3.7-0.7-3.8-3.9-6.7-5.3-3-1.5-10.3-0.5-14.6-2.7-3.5-1.8-5.7-6.6-13.3-4v-6.7c2.9-3.6 6.5 3.9 8 4 0.3 0 2.5-3.5 4-4 5.4-1.7 20 1.8 23.9 0 5.1-2.3 3.4-13 10.6-9.3-2 21.5 15.6 0.1 22.6-1.3 1.1-6.5-3.8-6.8-2.7-13.3 11.1 0.9 13.4 1.7 21.3 1.3l4.7-0.7 0.8-4.6z"/>
		<path class="st0" d="m784.9 103.8c13.2 2.3 13.1 22.6 1.3 26.6 6-12.1-12.2-7-9.3-20l4.9-2.2 3.1-4.4z"/>
		<path class="st0" d="m401.8 94.5c17.4-7.4 5.6 27.6-1.3 27.9-12.2 0.7-3.6-25.9 1.3-27.9z"/>
		<path class="st0" d="m802.2 113.1c9.8 3 20.9 10.5 20 20-10.7-1.9-22.8-9-20-20z"/>
		<path class="st0" d="m351.2 122.4c8.3 7.8-3.2 25.4-9.3 21.3-8.1-5.5 6.5-17.8 9.3-21.3z"/>
		<path class="st0" d="m820.9 138.4c21.1 9.2-2.4 27.3 0 0z"/>
		<path class="st0" d="m892.7 173c-7.8-1.7-24.6-27.1-13.3-29.3 6.5-1.2 4.3 6.4 6.7 10.6 3.8 7.1 12.7 14.8 6.6 18.7z"/>
		<path class="st0" d="m883.4 176.9c-7.1 1.5-22.8 0.8-25.3-4-7.7-14.8 27.8-12.1 25.3 4z"/>
		<path class="st0" d="m888.7 179.6c10.5-2.2 29.5 9.2 20 16-5.3 3.7-21.2-10.6-20-16z"/>
		<path class="st0" d="m441.7 244.8c2.5-1.2 6.3-1.5 8 1.3-0.2-0.3-2.5 13.2-2.7 13.3-9.7 4.3-15.7-9.6-5.3-14.6z"/>
		<path class="st0" d="m960.5 396.5c-11.9-5.9-16.8-18.7-23.9-29.3 12.8-1.6 24 9.6 30.6 18.6l-5.1 4.2-1.6 6.5z"/>
		<path class="st0" d="m993.8 379.2c8-8 12.7 7.6 8 10.6-5.1 3.3-13.8-4.9-8-10.6z"/>
		<path class="st0" d="m1008.4 391.1c2.1-2.1 10.8 3.1 8 8-2.5 4.4-14.3-1.6-8-8z"/>
		<path class="st0" d="m574.7 780.9c10.3-5.3 6.8 19.9-2.7 13.3-4.2-2.9 1.1-12.4 2.7-13.3z"/>
		<path class="st0" d="m646.6 783.6c2.2-1 15.5 4.8 10.6 12-4.5 6.7-20.5-7.7-10.6-12z"/>
		<path class="st0" d="m588 803.6c2.6 3.5 7 0.4 10.6 1.3 6.6 1.7 10.7 8.4 16 9.3 5.5 0.9 8-2.5 14.6-4 2.5-0.5 4.7 2 6.7 1.3 3.7-1.2 10.6-7.1 13.3-6.7 9.3 1.5 12.9 21.7 8 37.3-0.2 0.5-4.8-0.4-5.3 0-7.5 5.5 5.1 18.9-2.7 26.6-4 4.1-7.5-5.3-8-5.3-5.7-0.2-7.3 13-10.6 14.6-4.1 1.9-16.5 0-18.6-1.3-3.6-2.2-14.7-21.5-16-27.9-0.9-4.8 1.2-8.3 0-12-3.1-9.2-17.2-20.3-8-33.2z"/>
		<path class="st0" d="m1001.8 972.5c5-3.6 0.7-12.8 4-16 3.7-3.5 15.8 0.5 12 10.6-1.9 4.9-10 5.5-16 5.4z"/>
		<path class="st0" d="m456.3 662.5c-6.9-6.9 7.5-16.8 8-21.3 0-0.1-3-6.7-2.7-6.7-6.1-1.2-2.3 5.3-5.3 9.3-4.8 6.5-32.9 18.7-25.3 31.9-9.8 1.1-10.5-6.1-18.6-9.3 9-10.6-0.3-11.8-5.3-21.3-0.8-1.5 1.1-5.4 0-6.7-3.1-3.7-7.1-2.1-10.6-5.3-5.7-5.1-5.8-14.8-8-20-6.9 4.6-11.7-3.1-17.3-4-3.1-0.5-6.3 2.3-9.3 1.3-5.3-1.7-10.5-9.7-17.3-10.6-2.9-0.4-5 3.7-8 4-2.3 0.2-4.8-2.2-8-2.7-21-2.8-44.8 17.3-65.2 17.3-4.1 0-8.3-2-12-1.3-6.3 1.1-18.1 12.2-25.3 14.6-1.6 0.5-5.3-1-6.7 0-5.1 3.8-5.7 18.3-12 21.3-15 7.2-34.3-3.3-46.6-2.7-2.7 0.1-7.8 3.8-12 4-3.6 0.2-7.5-2.2-9.3-1.3-4.1 1.9-4.7 10.4-9.3 13.3-2.5 1.6-5.2-1.8-8-1.3-6.6 1.2-9.9 12.8-17.3 14.6-5.4 1.3-7.4-2-12-2.7-7.1-1-12.8 1.7-18.6 0-7-2.1-7.4-8.8-14.6-13.3-8.2-5.1-18.9-3.6-12-22.6 15.1 5.2 9.8-6.3 10.6-20 0.3-4.8 3.2-8.6 2.7-14.6-0.9-9.6-12.9-22.2-14.6-35.9-0.8-6.1 1-12.8 0-17.3-1.4-6-12.9-21.6-14.6-26.6-1.1-3.1 0.7-7.3 0-10.6-3.5-18.3-28-28.5-20-43.9 4.3 1 4 6.6 6.7 9.3 2.9-0.2 0.6-5.6 1.3-8 4.4-3.1 6.3 5.5 10.6 6.7-2.3-13.6-17.7-24.2-13.3-37.3 1.4-4.2 7.1-5.2 8-9.3 2.4-11-5.3-27.8 5.3-34.6 3.3-2.1 5.1 2.7 6.7 2.7 13.5-0.1 33.6-26.6 43.9-27.9 4.7-0.6 9.4 4.5 13.3 4 2.5-0.3 6.2-6.5 12-8 3-0.8 7.1 0.9 9.3 0 3.1-1.3 5.3-5.8 8-6.7 6.7-2.1 14.8 0 22.6-2.7 5.6-1.9 12.2-4.6 14.6-6.7 7.8-6.6 6.6-20.8 20-23.9-2.8-4.6-6.4-13.9-1.3-22.6 2.9-4.9 3.2 1.4 6.7-1.3 4.2-3.3 2.3-11.6 6.7-12 6.3-0.5 5.3 10.4 10.6 13.3-1-6.4-3.2-15.4 4-18.6 2.7-1.2 4.9 5.4 8 5.3 4.8-0.1 3.8-8.5 8-6.7 1-3.6-6.3 1-5.3-2.7 5.4-11.9 15-19.6 22.6-29.3 4.2-0.6 5.9 1.2 5.3 5.3 6.8-3.3 0-7.9 2.7-12 12.2 3.7 16.4-7.5 27.9 0 5.8 3.8 7.1 12.6 14.6 16 4.9 2.2 16.2-0.6 22.6 4-0.2-1.5 0.3-2.4 1.3-2.7-11.5-6.1-2.4-23.3 9.3-25.3 0.3-3.9-3-4.1-2.7-8 7.6-3.4 11.1-11.1 16-17.3-2.6-3.6-13.2 0.8-16-2.7 3.1-2.3 1.5-12.6 5.3-14.6 1.3-0.7 23.5 3.4 23.9 4 4.3 6.3-11.4 10.3-2.7 16 5.8 3.7 19.2 0.5 20-4 1.9-11.1-26-1.3-16-14.6 4.4-5.8 15.3-2.1 16 4 5 1.4 3.8-3.3 8-2.7 2.6 8.4 6.3 6.9 14.6 8 2.1 0.3 4.1 3.1 8 4 3.2 0.7 6.9-0.8 9.3 0 3.2 1.1 6.7 5.3 8 5.3 4.4 0.2 6.4-4.3 10.6-5.3 2.8-0.7 1.9 2.5 5.3 2.7 6.5 0.4 6-4.7 10.6-2.7 3.3 1.4 2.5 11.4 8 8-4.9 4.4-7.2 11.4-8 20-5.6 0.3-6.3-2.2-10.6 0 7.1 17.7-10.9 16-9.3 26.6 0.3 1.7 12.3 11.8 16 14.6 6 4.7 15.6 4.7 22.6 9.3 5.5 3.6 7.2 10.3 14.6 12 3.1 0.7 7.8-0.8 9.3 0 5.4 3 18.1 27.2 31.9 12 1.4-1.5 0.3-6.6 1.3-9.3 2.1-5.6 7.4-9.6 8-12 1.1-4.7-1.1-8.5 0-12 0.8-2.5 5-5.4 5.3-8 0.9-6.4-4.4-18.7-4-27.9 0.2-3.5 2.6-1.7 4-6.7 1.4-5.1-2.1-14-1.3-17.3 0.6-2.5 5.2-4.1 8-12 2.4-7 2.4-20.8 10.6-20 5.4 0.5 6.4 10.1 8 18.6 1.8 9.9 11.8 17 13.3 22.6 1.9 6.9-0.9 19.4 2.7 26.6 6.8 0.6 6.5-5.9 13.3-5.3 0 8.7 13.5 10.4 16 16 1.5 3.4-2.6 5-2.7 8-0.1 2.1 4.8 8.1 5.3 13.3 0.5 4.6-2.5 3.7-1.3 6.7 3.5 8.7 12.3 11.8 13.3 23.9 0.3 3-2.1 7.4-1.3 10.6 0.9 3.9 3.2 1 5.3 5.3 2.9 6 1 12.5 8 14.6 2.8 0.9 7-2.7 12 0 2.6 1.4 0.1 5.2 2.7 8 4.1 4.5 18.4 5.4 21.3 9.3 3.1 4.2-1.6 6.8 0 10.6 1.2 2.9 6.9 4.1 8 6.7 0.7 1.8-0.9 4.9 0 6.7 0.6 1.1 5.2 1 5.3 1.3 1.4 4-1 8.9 0 13.3 3.8 3.9 4.2-2.6 9.3-1.3 1.8 6.2 7.7 8.3 14.6 9.3-4.8 30.5 25.5 28.2 31.9 51.9 4.1 0 8.7-3.1 12 0-4 9.7-0.6 20.6-1.3 30.6-0.2 2.9-3.1 7.6-2.7 10.6 1.6 10.9 9.7 14.2 10.6 21.3 1.7 13-7.8 36.1-10.6 50.6-1.1 5.8 0.3 13.4-1.3 18.6-1.2 4.1-6.8 7.8-8 12-2 7.4-0.4 12.7-6.7 17.3-1.7 1.3-6.2 0.7-8 2.7-3.7 4.1-2.6 11.6-6.7 20-1.9 4-8 7.3-9.3 10.6-1.3 3.5 1.1 9.7 0 13.3-2.3 7.1-9.6 13-12 20-5.8 17.2 2.9 39.9-14.6 45.2-5.8 1.8-12.1-0.6-17.3 0-18.8 2.3-23.4 19.8-38.6 21.3-2.6 1 3.6 4.2 1.3 9.3-4.2 3.7-3.7-3.5-6.7-5.3-1.1-0.7-4.3 0.9-5.3 0-0.7-0.6-0.7-5-1.3-5.3-0.7-0.4-6 1.6-6.7 1.3-1.7-0.6-1.2-4.6-2.7-5.3-2.6-1.4-15.5-3.8-13.3-4-7.2 0.6-10.8 11.1-16 12-7.7 1.3-20.7-12.4-30.6-12-1 0-7.7 2.7-8 2.7-4.1-1.2-3-5.7-6.7-8-2.5-1.5-6.7 0.7-9.3 0-7.7-2.1-19.1-19.3-20-25.3-0.5-3.4 3-8.7 2.7-13.3-0.7-8.7-7.8-20.9-20-18.6l0.7-5.3-4.7-2.7c2.8-7.3 0.5-19.6-5.3-17.3l-6-0.7-5.4-0.3z"/>
		<path class="st0" d="m458.3 692.5l3.3 4.7c0.7 2.5-15.5 5-17.3 4-16.3-9 10.3-21.4 18.6-12l-4.6 3.3z"/>
		<path class="st0" d="m1145.5 717.1c0.8-5-3.4-8.4 0-12 7.9 5.4 12 10.2 13.3 14.6 0.8 2.9-1.9 7.7 0 10.6 3.2 4.8 16.9 9.8 21.3 9.3 4.9-0.6 21-20.2 26.6-5.3-0.9-2.3-4 16.4-5.3 20-2.5 6.9-10.4 8.4-6.7 18.6-5.3-3.6-14.9-7.1-18.6 1.3-0.9 2 4.1 6.3 4 9.3 0 1-6.9 14.7-9.3 18.6-7.3 11.9-19.8 28.2-26.6 27.9-5.9-0.2-14.9-16.8-21.3-5.3-1.6 2.9 3.7 4.1 4 8 0.6 8.8-21.4 29.4-25.3 35.9-4.1 6.9 11.7 12.9 2.7 17.3-3.9 1.9-24.6 0.6-27.9 4-3.7 3.9 0 9.1-2.7 18.6-3.3 11.9-13.7 16.8-9.3 27.9-15.2 4.4-21.4 29.1-46.6 20-2.7-1 1.1-4.8-1.3-6.7-2.3-1.8-4.4 2.5-9.3 0-0.9-0.5-2.3-5.3-2.7-5.3-4.1-0.8-8.6 3.8-13.3 2.7-11.8-3-7.6-12.3-4-20 2.4-5.1 2.9-14.5 5.3-17.3 0.7-0.8 4.3 0.5 5.3 0 7.1-3.7 11-19.1 21.3-25.3 6.8-4.1 13.5-4.5 21.3-9.3 2.9-1.8 9.8-5.7 10.6-6.7 0.6-0.6 0.3-5.8 1.3-6.7 1.2-1 5.6 1.1 6.7 0 2.2-2.4 1.3-7.2 2.7-9.3 2.9-4.4 7.5-5 9.3-9.3 3.6-8.7-0.5-9.9 8-14.6 11.9-6.6 3.2-35.7 25.3-29.3-2.4 2-2.1 14.5 1.3 16 4.6 1.9 15.3-8.1 21.3-5.3-3.9-1.8 6.9 5 5.3 5.3 7-1.5 11.7-17.1 8-22.6-6-8.8-31.2-10.6-23.9-25.3 1.4-2.9 11.4-1.7 14.6-8 1.8-3.5 2.9-26.2 1.3-30.6-5.3-15.1-17.5-30.2-25.3-41.2-2-2.9-0.3-8.1-2.7-13.3-0.1-0.3-17.4-21 0-16 4 1.1-1.1 5.4 4 10.6 3.3 3.4 11.5 2.2 14.6 4 1.9 1.1 7.6 5.9 9.3 9.3 1.6 3.2-0.3 9.1 1.3 13.3 2.1 5.5 7.7 6 4 13.3-3.5 7.5 0.5 2.9 8.1 8.3z"/>
			<path class="st1" d="m689.5 40.9c17.6 5.2 34.9 14.4 46.9 29"/>
			<path class="st2" d="m781.8 108.2c-5.2-5.8-11-12.1-12.7-19.7"/>
			<path class="st3" d="m840.7 133.2c6.4 6.9 15 9.6 22.3 15"/>
			<path class="st4" d="m991.1 406.4c-10.6-3.6-19.8-10.2-29-16.4"/>
			<path class="st5" d="m458.3 692.5c8.7 3.8 12.9-5.9 20-8.6"/>
			<path class="st6" d="m449.8 677.8c6.3-3.3 14.1-4.7 12.5-14.6"/>
</svg>
