<?xml version="1.0" encoding="UTF-8"?>
<svg enable-background="new 0 0 100.2 142.8" version="1.1" viewBox="0 0 100.2 142.8" xml:space="preserve" xmlns="http://www.w3.org/2000/svg">
<style type="text/css">
	.st0{fill:#DDDDDD;}
</style>
<g>
	<title>Layer 1</title>
	<path class="st0" d="m54.9 1.8c0.1-0.1 0.2-0.3 0.1-0.4-0.1-0.2-0.5-0.3-0.7-0.1-0.1 0.1-0.1 0.3 0 0.5s0.4 0.2 0.6 0"/>
	<path class="st0" d="m66.6 28.1c0.3-0.1 0.4-0.2 0.7-0.2s0.5 0.2 0.9 0.1 0.6-0.2 0.8-0.5c0.2-0.2 0.2-0.4 0.3-0.6 0.2-0.4 0.3-0.7 0.5-1.1s0.3-0.5 0.5-0.9c0.2-0.3 0.3-0.5 0.5-0.8l0.1-0.1c-0.3-0.2-0.3-0.4-0.5-0.7s-0.1-0.7-0.5-0.9c-0.3-0.1-0.5 0.1-0.8 0-0.2-0.1-0.3-0.3-0.5-0.4-0.3-0.2-0.6 0-0.9-0.1-0.3-0.2-0.2-0.4-0.5-0.6-0.2-0.3-0.3-0.3-0.5-0.4v0.2c-0.1 0.3-0.2 0.5-0.3 0.7l-0.3 0.6c-0.3 0.7-0.3 1.2-0.1 1.9 0.1 0.4 0.4 0.6 0.5 1.1 0.1 0.4 0.2 0.6 0.1 0.9s-0.2 0.4-0.4 0.7-0.3 0.5-0.5 0.9h-0.1c0.2 0.1 0.3 0.3 0.5 0.3 0.1 0.1 0.2 0 0.5-0.1"/>
	<path class="st0" d="m56.6 15.3c-0.2-0.1-0.3-0.2-0.5-0.2-0.4-0.1-0.7 0.3-1.1 0.1-0.3-0.1-0.5-0.2-0.5-0.5-0.1-0.3 0.4-0.4 0.5-0.7s0.2-0.6 0.1-0.9-0.4-0.4-0.7-0.5c-0.2-0.1-0.4-0.2-0.7-0.2s-0.5 0-0.9 0.1l0.1-0.1c-0.1 0-0.2 0.1-0.3 0.1-0.2 0-0.3-0.2-0.3-0.3-0.1-0.3 0-0.5 0.1-0.7 0.2-0.3 1 0 0.9-0.4-0.1-0.2-0.3-0.3-0.5-0.4s-0.3-0.2-0.5-0.2c-0.4 0-0.5 0.2-0.9 0.3-0.2 0.1-0.3 0.2-0.5 0.3-0.3 0.1-0.6-0.1-0.9 0-0.2 0.1-0.3 0.2-0.5 0.3s-0.5 0-0.7 0.2-0.1 0.5-0.4 0.7c-0.4 0.2-0.7-0.2-1.1-0.3-0.4-0.2-0.5-0.3-0.9-0.5-0.2-0.1-0.2-0.2-0.4-0.3-0.3-0.1-0.6 0-0.9 0-0.5 0-0.8 0.1-1.3 0.1-0.6 0-1.2 0.3-1.5-0.1-0.2-0.3 0-0.5-0.1-0.8-0.1-0.2-0.1-0.3-0.3-0.5-0.3-0.2-0.5-0.2-0.9-0.2s-0.7 0.2-0.9 0c-0.3-0.3 0.3-0.7 0-1.1-0.2-0.2-0.3-0.3-0.6-0.3-0.3-0.1-0.8-0.1-0.8 0.2s0.3 0.3 0.5 0.5c0.1 0.2 0.3 0.3 0.3 0.5s-0.3 0.2-0.5 0.3c-0.4 0.2-0.7 0-1.1 0.1-0.3 0.1-0.4 0.3-0.7 0.5-0.3 0.3-0.5 0.9-0.7 0.7s0.1-0.5 0-0.7-0.2-0.3-0.3-0.4h-0.2c-0.4 0.1-0.8 0-1.1 0.3s-0.2 0.6-0.3 0.9-0.1 0.5-0.1 0.8c-0.1 0.4-0.1 0.6-0.3 0.9s-0.5 0.3-0.5 0.6c0 0.4 0.4 0.4 0.6 0.7 0.1 0.3 0.1 0.5 0.2 0.8 0.1 0.4 0.3 0.5 0.4 0.9s0 0.6 0 1c0.1 0.5 0 0.9 0.3 1.2s0.6 0.3 0.9 0.3c0.7 0.2 1.1-0.1 1.8 0 0.4 0.1 0.7 0 1 0.2s0.2 0.6 0.3 0.9c0 0.1 0.1 0.1 0.1 0.2 0.1 0.2 0.2 0.2 0.4 0.3 0.4 0.2 0.7 0 1.1 0 0.5 0 0.8 0.1 1.3 0 0.3 0 0.5-0.3 0.8-0.2 0.2 0.1 0.2 0.1 0.3 0.3 0.3 0.4-0.3 0.8-0.4 1.3-0.1 0.4-0.2 0.7-0.3 1.1-0.1 0.5-0.3 0.8-0.2 1.3 0.1 0.3 0.2 0.5 0.3 0.8 0.2 0.4 0.7 0.5 0.6 0.9s-0.6 0.3-0.7 0.7c-0.1 0.3 0.1 0.5 0.2 0.7 0.2 0.4 0.7 0.3 0.9 0.7 0.2 0.3 0.2 0.5 0.3 0.9s0 0.6 0.1 0.9c0.1 0.6 0.2 0.6 0.3 0.8l0.1 0.2c0.4 0.2 0.6 0.3 1 0.4s0.7 0.1 1.1 0 0.6-0.5 0.9-0.7c0.5-0.4 0.8-0.6 1.2-0.9 0.3-0.3 0.5-0.4 0.7-0.7 0.3-0.4 0.8-0.7 0.5-1.1-0.2-0.4-0.9 0.2-1.2-0.1s0-0.7-0.1-1.1c0-0.3 0-0.5-0.1-0.9-0.2-0.5-1.1-0.8-0.7-1.1 0.2-0.1 0.3-0.1 0.5-0.1 0.3 0 0.5 0.1 0.9 0.2 0.3 0 0.4 0 0.7 0.1 0.2 0 0.3 0.1 0.5 0.1 0.3 0.1 0.3 0.5 0.7 0.5s0.4-0.6 0.7-0.8c0.2-0.1 0.3-0.1 0.5-0.1 0.4-0.1 0.6-0.3 0.9-0.4 0.2-0.1 0.4-0.1 0.6-0.2 0.3-0.2 0.4-0.3 0.6-0.5s0.3-0.4 0.5-0.7v-0.1c-0.2-0.4-0.3-0.7-0.4-1.1s-0.3-0.7-0.3-1.1c0-0.2-0.1-0.4-0.1-0.5-0.1-0.2-0.1-0.5 0.1-0.7 0.3-0.3 0.6-0.1 0.9-0.3 0.2-0.1 0.4-0.1 0.5-0.3 0-0.2-0.3-0.2-0.4-0.5s0-0.5 0.1-0.7c0.2-0.3 0.4-0.4 0.7-0.6 0.2-0.2 0.4-0.2 0.5-0.4s0-0.3 0-0.5v-0.2"/>
	<path class="st0" d="m71.9 97.8c-0.3-0.3-0.2-0.6-0.4-0.9-0.2-0.4-0.2-0.8-0.6-1-0.2-0.1-0.4 0-0.6-0.1-0.4-0.1-0.4-0.4-0.7-0.6s-0.4-0.2-0.6-0.3c-0.3-0.1-0.5-0.2-0.7-0.4-0.2-0.3-0.1-0.7-0.4-0.8s-0.5-0.1-0.7 0.1c-0.1 0.1-0.1 0.3-0.2 0.3-0.2 0.1-0.2-0.4-0.3-0.6-0.1-0.3-0.1-0.5-0.3-0.7s-0.4-0.2-0.6-0.3-0.4-0.1-0.6-0.1c-0.3 0-0.4 0.1-0.7 0.1l-0.5-0.1-0.1 0.3-0.3 0.3c0 0.2 0.1 0.3 0.1 0.5 0.1 0.5-0.1 0.7-0.1 1.2 0 0.3 0.1 0.5 0.1 0.9 0 0.5-0.2 0.7-0.1 1.2 0.1 0.3 0.3 0.4 0.3 0.7v0.7c0 0.3-0.2 0.5-0.2 0.8s0 0.4 0.1 0.7 0.2 0.5 0.3 0.7l0.3-0.1c0.3-0.1 0.4 0.2 0.6 0.3 0.1 0.1 0.2 0.3 0.3 0.3 0.2 0.1 0.3 0 0.5 0.1 0.2 0 0.4 0.1 0.6 0.1l0.9 0.4c0.2 0.2 0.3 0.4 0.6 0.5s0.5-0.1 0.8-0.2c0.2-0.1 0.3-0.3 0.5-0.3s0.3 0.1 0.5 0.2 0.3 0.2 0.5 0.3c0.4 0.1 0.5-0.4 0.9-0.6l0.6-0.3c0.3-0.2 0.5-0.3 0.6-0.7 0.1-0.3-0.1-0.5 0-0.7 0.1-0.4 0.5-0.5 0.7-0.8 0.2-0.2 0.3-0.4 0.4-0.6h-0.1c-0.6-0.2-1-0.1-1.4-0.5"/>
	<path class="st0" d="m39.6 54.3h0.2-0.2"/>
	<path class="st0" d="m61.2 67.7c-0.1-0.2-0.1-0.4-0.3-0.6-0.3-0.3-0.7 0-1-0.3-0.2-0.3-0.2-0.5-0.2-0.9 0-0.3 0.3-0.4 0.2-0.7-0.1-0.2-0.4-0.1-0.7-0.1-0.7-0.1-1-0.1-1.7-0.1l-0.8-0.3v-0.2-0.5c0-0.3 0-0.5-0.1-0.8-0.2-0.3-0.6-0.2-0.7-0.5-0.2-0.4 0.3-0.8 0.2-1.3 0-0.2-0.1-0.3-0.2-0.5-0.1-0.3 0-0.5-0.1-0.8s-0.3-0.4-0.5-0.5c-0.3-0.1-0.4-0.1-0.7-0.2s-0.6 0.1-0.9-0.1c-0.3-0.1-0.3-0.3-0.5-0.5s-0.4-0.3-0.7-0.4c-0.4-0.2-0.6-0.2-1-0.5-0.3-0.2-0.4-0.4-0.7-0.5-0.2-0.1-0.4-0.1-0.7-0.1-0.2 0-0.4 0.2-0.6 0.1-0.3 0-0.4-0.1-0.6-0.3s-0.2-0.4-0.4-0.6c-0.3-0.2-0.6-0.1-0.9-0.3-0.2-0.3-0.1-0.6-0.2-0.9-0.1-0.4-0.1-0.7-0.1-1.1s-0.1-0.7-0.1-1.1v-0.9c0-0.2 0.1-0.4-0.1-0.5s-0.2 0.1-0.4 0.2c-0.3 0.1-0.4 0.2-0.7 0.2h-0.5c-0.4 0-0.6 0.1-0.9 0.3s-0.3 0.5-0.5 0.7c-0.1 0.1-0.2 0.1-0.3 0.2-0.3 0.2-0.7 0-0.9 0.2l-0.3 0.3c-0.2 0.2-0.3 0.4-0.6 0.5-0.4 0.2-0.7 0-1.1-0.1-0.3 0-0.5 0-0.8-0.1 0.2 0.3 0.5 0.4 0.6 0.8 0.1 0.3 0 0.5 0.1 0.7 0.1 0.4 0.4 0.5 0.5 0.9 0.1 0.3 0.1 0.5 0.1 0.9 0.1 0.5 0.1 0.8 0.1 1.3 0 0.3-0.1 0.5-0.1 0.8s0.1 0.6 0.2 0.9 0.4 0.4 0.4 0.7-0.4 0.3-0.6 0.5c-0.2 0.3-0.5 0.5-0.5 0.9s0.3 0.5 0.5 0.9c0.1 0.3 0.3 0.4 0.3 0.7 0 0.1 0 0.2 0.1 0.3v0.1 0.2 0.1h-0.1l0.1 0.1c0 0.2-0.1 0.3-0.1 0.6-0.1 0.4-0.3 0.5-0.6 0.8l0.2-0.2c0.4 0.2 0.4 0.2 0.7 0.5 0.2 0.2 0.4 0.5 0.5 0.7 0.2 0.2 0.7 0.6 1 0.9 0.3 0.2 0.6 0.6 0.9 0.8 0.6 0.3 0.3 0.2 0.5 0.8 0.2 0.7 0.2 0.1 0.3 0.9 0 0.4 0.2 0.7 0.4 1 0.1 0.3 0.5 0.2 0.7 0.4 0.2 0.3 0.3 0.2 0.3 0.6 0.1 0.4 0 0.7-0.1 1.1-0.1 0.3-0.1 0.5-0.2 0.7-0.1 0.4-0.3 0.6-0.3 1s0.1 0.5 0.3 0.9c0.1 0.3 0.2 0.5 0.3 0.7l0.1-0.1c0.1-0.1 0.2-0.2 0.3-0.4 0.1-0.1 0.2-0.2 0.4-0.3 0.3-0.2 0.5-0.2 0.8-0.2 0.4 0 0.6 0.3 0.9 0.4s0.6 0.2 0.9 0.3c0.2 0.1 0.3 0.4 0.5 0.3s0.2-0.3 0.3-0.4c0.2-0.3 0.4-0.5 0.7-0.6s0.4-0.1 0.7-0.1 0.5 0 0.8 0.1c0.2 0.1 0.2 0.2 0.3 0.4l0.2-0.1v-0.5c0-0.3 0-0.5 0.1-0.7 0-0.5 0-0.8 0.1-1.3 0.1-0.6 0.1-0.9 0.3-1.4 0.2-0.4 0.3-0.6 0.7-0.8 0.3-0.2 0.5-0.2 0.8-0.3 0.5-0.2 0.8-0.3 1.3-0.5 0.3-0.1 0.5-0.2 0.9-0.2 0.6-0.1 0.9 0 1.5 0.2 0.4 0.1 0.6 0.2 0.9 0.4s0.4 0.5 0.7 0.7l-0.1 0.1c0.3 0 0.5 0.2 0.7 0 0.1-0.2-0.2-0.4-0.3-0.6-0.1-0.4 0.2-0.7 0.3-1.1 0.1-0.5 0.1-0.8 0.1-1.3 0-0.4 0.3-0.6 0.1-0.9 0-0.2-0.2-0.2-0.4-0.5"/>
	<path class="st0" d="m54 12.3c0.2 0 0.3 0.1 0.5 0s0-0.3 0.1-0.5 0.4-0.2 0.4-0.5c0-0.2 0-0.4-0.1-0.5-0.2-0.1-0.3-0.1-0.5 0s-0.4 0.1-0.5 0.3 0.2 0.3 0.1 0.5c0 0.2-0.5 0.2-0.4 0.5 0 0.1 0.2 0.1 0.4 0.2"/>
	<path class="st0" d="m99.5 44.6c-0.1-0.4 0-0.7-0.1-1.1-0.1-0.2-0.2-0.3-0.4-0.5-0.3-0.3-0.5-0.5-0.9-0.6s-0.6 0-1 0c-0.5 0-0.8 0.1-1.1-0.2-0.2-0.1-0.1-0.3-0.3-0.5s-0.5 0-0.7-0.1-0.2-0.3-0.3-0.5c0 0 0-0.1-0.1-0.1-0.2-0.3-0.3-0.4-0.5-0.7-0.2-0.2-0.2-0.3-0.4-0.5-0.3-0.3-0.5-0.4-0.8-0.6s-0.4-0.4-0.7-0.5c-0.2-0.2-0.5-0.1-0.7-0.3s-0.1-0.4-0.3-0.6c-0.3-0.2-0.6-0.1-0.9 0-0.4 0.1-0.6 0.2-0.9 0.3-0.4 0.1-0.7 0.2-1.1 0.1-0.3 0-0.5-0.1-0.7-0.2-0.3-0.1-0.4-0.2-0.7-0.3s-0.5-0.1-0.8-0.2c-0.4-0.1-0.5-0.4-0.9-0.4-0.1 0-0.2 0-0.3 0.1-0.5 0.1-0.7 0.2-1.1 0.4-0.2 0.1-0.3 0.3-0.5 0.3-0.3-0.1 0.3-0.3 0.3-0.6 0.1-0.3 0.1-0.5-0.1-0.7-0.1-0.2-0.3-0.3-0.5-0.5s-0.2-0.4-0.4-0.5c-0.3-0.2-0.5-0.1-0.8-0.3-0.2-0.2-0.2-0.3-0.4-0.5-0.4-0.3-0.8 0-1.3-0.2-0.3-0.2-0.3-0.4-0.6-0.5s-0.5 0-0.7-0.1c-0.3-0.1-0.4-0.2-0.7-0.2-0.4 0-0.6-0.1-0.9 0.1-0.2 0.1-0.2 0.3-0.3 0.5-0.2 0.3-0.2 0.6-0.5 0.9-0.2 0.2-0.4 0.3-0.6 0.5s-0.2 0.3-0.4 0.4-0.3 0.2-0.5 0.3c-0.2 0-0.3 0-0.4-0.1s0-0.3 0-0.5l-0.1 0.1c0.1-0.2 0.2-0.3 0.3-0.4 0.2-0.1 0.4 0 0.6-0.1 0.3-0.1 0.4-0.4 0.6-0.7s0.2-0.6 0.4-0.9c0.1-0.3 0.4-0.4 0.3-0.7-0.1-0.2-0.1-0.2-0.3-0.3-0.3-0.2-0.5 0-0.9-0.1-0.3 0-0.4-0.1-0.7-0.1s-0.5 0.1-0.8 0.1h-0.9c-0.2 0-0.4-0.1-0.6 0.1-0.2 0.1-0.2 0.3-0.3 0.5-0.1 0.4 0 0.7 0 1.1 0 0.2 0.1 0.4-0.1 0.5-0.2 0.2-0.5 0-0.7 0.1s-0.2 0.2-0.4 0.3c-0.2 0.2-0.3 0.3-0.5 0.4-0.3 0.1-0.5-0.1-0.7-0.1-0.3 0 0.3-0.3 0.5-0.5s0.2-0.3 0.4-0.5 0.4-0.2 0.5-0.5c0.2-0.3 0.2-0.5 0.3-0.9 0.2-0.4 0.2-0.6 0.5-0.9s0.6-0.2 0.8-0.5c0.1-0.1 0.1-0.2 0.1-0.2 0.1-0.2 0.1-0.4 0.2-0.6 0.2-0.4 0.6-0.5 0.7-0.9 0.1-0.3 0.3-0.6 0.1-0.9-0.1-0.2-0.4-0.2-0.6-0.3-0.4-0.2-0.7-0.1-0.9-0.4-0.1-0.3 0-0.5-0.1-0.7 0-0.4 0-0.7-0.1-1 0-0.1-0.1-0.3-0.2-0.5s-0.3-0.3-0.4-0.5c-0.2-0.4-0.1-0.7-0.1-1.1 0-0.2 0.1-0.4 0-0.6s-0.4 0-0.6-0.2l-0.1 0.1c-0.2 0.3-0.3 0.5-0.5 0.8s-0.3 0.5-0.5 0.9-0.3 0.7-0.4 1.1v0.1c-0.1 0.2-0.1 0.4-0.3 0.6-0.2 0.3-0.4 0.5-0.8 0.5-0.3 0.1-0.5-0.2-0.9-0.1-0.3 0-0.4 0.1-0.7 0.2-0.2 0-0.4 0.1-0.6 0.1-0.2-0.1-0.3-0.2-0.5-0.3l-0.6-0.3c-0.3-0.1-0.5-0.2-0.8-0.1s-0.3 0.3-0.5 0.5c-0.2 0.1-0.3 0-0.5 0.1-0.2 0.2 0 0.4-0.2 0.6s-0.3 0.2-0.5 0.3l0.2-0.1c-0.5-0.1-0.7-0.5-1.2-0.3-0.3 0.1-0.4 0.2-0.6 0.3-0.4 0.2-0.5 0.5-0.9 0.6-0.3 0.1-0.6-0.1-0.9 0.1-0.2 0.1-0.2 0.5-0.5 0.5-0.2 0-0.3-0.1-0.5-0.2-0.3-0.1-0.5-0.1-0.7-0.3-0.3-0.2-0.4-0.4-0.5-0.7s0.1-0.7-0.1-0.9c-0.1-0.1-0.3-0.1-0.5-0.2-0.2-0.2-0.1-0.5 0-0.8 0-0.1 0.1-0.2 0.1-0.3 0-0.4-0.1-0.6 0.1-0.9 0.1-0.2 0.2-0.3 0.3-0.5 0.2-0.2 0.5-0.3 0.5-0.6s-0.3-0.3-0.5-0.5-0.4-0.4-0.5-0.7 0.1-0.5 0.1-0.8c0-0.2 0-0.3-0.1-0.5-0.2-0.3-0.5 0.1-0.9 0.1l-0.1 0.2c-0.2 0.3-0.3 0.4-0.5 0.7-0.2 0.2-0.3 0.4-0.6 0.5-0.2 0.1-0.4 0.1-0.6 0.2-0.4 0.1-0.6 0.3-0.9 0.4-0.2 0.1-0.3 0-0.5 0.1-0.4 0.2-0.3 0.8-0.7 0.8-0.3 0-0.4-0.4-0.7-0.5-0.2-0.1-0.3-0.1-0.5-0.1-0.3-0.1-0.4 0-0.7-0.1s-0.5-0.2-0.9-0.2c-0.2 0-0.3 0-0.5 0.1-0.4 0.2 0.5 0.6 0.7 1.1 0.1 0.3 0.1 0.5 0.1 0.9 0 0.2 0 0.4-0.1 0.6 0 0.2 0 0.4 0.1 0.6 0.3 0.4 1-0.3 1.2 0.1s-0.2 0.7-0.5 1.1c-0.2 0.3-0.4 0.4-0.7 0.7-0.5 0.4-0.7 0.6-1.2 0.9-0.4 0.3-0.5 0.6-0.9 0.7s-0.7 0.1-1.1 0-0.6-0.2-1-0.4c-0.3-0.1-0.6-0.1-0.8-0.3s-0.1-0.4-0.2-0.7c-0.1-0.4 0-0.9-0.5-1-0.3-0.1-0.5 0.2-0.7 0.3l-1.9-0.1c-0.5-0.1-0.8-0.4-1.3-0.1-0.2 0.1-0.3 0.2-0.4 0.3-0.3 0.3-0.5 0.7-0.3 1s0.6 0 0.7 0.3c0.1 0.2 0.2 0.4 0.1 0.6-0.2 0.3-0.6 0-0.9 0.2l-0.3 0.3s-0.1 0.1-0.1 0.2c-0.1 0.3-0.1 0.5 0 0.9 0.1 0.3 0.4 0.4 0.5 0.7 0.2 0.4 0.2 0.7 0.3 1.2s0.1 0.7 0.1 1.2c0 0.6 0.2 0.9 0.1 1.4-0.1 0.4-0.2 0.5-0.3 0.9s0 0.7-0.1 1.1-0.4 0.6-0.3 0.9c0 0.2 0.2 0.3 0.1 0.5-0.1 0.3-0.5 0.1-0.7 0.1s-0.2 0-0.4-0.1l-0.1 0.1c-0.1 0.2-0.1 0.3-0.3 0.4h-0.1c-0.2 0.1-0.3 0-0.5 0-0.1 0-0.2-0.1-0.3-0.1-0.3 0-0.4-0.1-0.7 0-0.1 0-0.1 0.1-0.2 0.1-0.2 0.1-0.3 0.3-0.4 0.5-0.2 0.2-0.2 0.4-0.5 0.5s-0.6-0.2-0.8 0 0 0.5 0 0.7c0 0.4-0.2 0.6-0.3 0.9-0.2 0.5-0.1 0.8-0.5 1.2-0.2 0.2-0.4 0.2-0.5 0.4-0.3 0.4-0.1 0.8-0.2 1.3 0 0.3-0.2 0.4-0.1 0.7s0.3 0.4 0.5 0.7c0.1 0.2 0.2 0.3 0.3 0.5 0.1 0.3 0 0.5 0.2 0.8 0.1 0.2 0.3 0.3 0.5 0.5 0.1 0.1 0.2 0.2 0.2 0.3 0 0.2-0.4 0.3-0.3 0.5s0.4 0.1 0.6 0.1c0.3 0.1 0.5 0 0.7 0.2s0.2 0.5 0.4 0.7c0.3 0.2 0.6 0.2 0.9 0.3 0.3 0 0.4 0.1 0.7 0s0.4-0.3 0.6-0.5c0 0 0.5-0.2 0.3 0.7-0.1 0.4 0.1 0.7 0.1 1.1 0 0.3-0.3 0.6-0.1 0.9s0.5 0 0.9 0c0.2 0 0.3-0.1 0.5-0.1 0.3 0 0.4 0.1 0.7 0.1h-0.1c0.4 0 0.6 0 1 0.1 0.4 0 0.7 0.2 1.1 0.1 0.3-0.1 0.4-0.3 0.6-0.5 0.1-0.1 0.1-0.2 0.3-0.3 0.3-0.2 0.6 0 0.9-0.2 0.1-0.1 0.2-0.1 0.3-0.2 0.3-0.2 0.3-0.5 0.5-0.7 0.3-0.2 0.5-0.3 0.9-0.3h0.5c0.3 0 0.5-0.1 0.7-0.2s0.2-0.3 0.4-0.2 0 0.3 0.1 0.5v0.9c0 0.4 0 0.7 0.1 1.1 0 0.4 0.1 0.7 0.1 1.1 0.1 0.4 0 0.7 0.2 0.9 0.2 0.3 0.6 0.1 0.9 0.3 0.2 0.2 0.2 0.4 0.4 0.6s0.3 0.2 0.6 0.3c0.2 0 0.4-0.1 0.6-0.1 0.3 0 0.4 0 0.7 0.1s0.4 0.4 0.7 0.5l1 0.5c0.3 0.1 0.4 0.2 0.7 0.4 0.2 0.2 0.3 0.4 0.5 0.5 0.3 0.1 0.5 0 0.9 0.1 0.3 0.1 0.5 0.1 0.7 0.2 0.3 0.1 0.4 0.3 0.5 0.5v0.1c0.1 0.2 0 0.4 0.1 0.7 0.1 0.2 0.2 0.3 0.2 0.5 0.1 0.5-0.4 0.8-0.2 1.3 0.2 0.3 0.6 0.2 0.7 0.5 0.2 0.3 0.1 0.5 0.1 0.8v0.7l0.8 0.3c0.7 0.1 1 0 1.7 0.1 0.3 0 0.5-0.1 0.7 0.1 0.1 0.2-0.2 0.4-0.2 0.7s0 0.6 0.2 0.9c0.3 0.3 0.7 0 1 0.3 0.2 0.2 0.1 0.4 0.3 0.6 0.1 0.2 0.3 0.3 0.4 0.5 0.1 0.4-0.1 0.6-0.1 0.9-0.1 0.5 0 0.8-0.1 1.3s-0.4 0.7-0.3 1.1c0 0.3 0.4 0.4 0.3 0.6s-0.4 0-0.7 0l0.1 0.3c0.1 0.6 0.3 0.9 0.2 1.4 0 0.2-0.2 0.4-0.2 0.6 0 0.3 0.2 0.4 0.4 0.7 0.1 0.2 0.2 0.2 0.3 0.4s-0.2 0.4-0.1 0.6c0.1 0.3 0.6 0.1 0.9 0.1h0.7c0.4 0 0.6-0.1 1 0 0.2 0 0.3 0.1 0.5 0.1 0.3 0.1 0.6 0 0.9 0.2 0.3 0.3 0.1 0.6 0.1 0.9v0.9 0.7c0 0.2 0.1 0.4 0.3 0.5 0.2 0.2 0.4 0.2 0.7 0.2s0.4-0.1 0.7-0.1c0.2 0 0.4 0 0.5 0.1 0.3 0.2 0.2 0.5 0.3 0.8 0.1 0.4 0.1 0.6 0.1 1-0.1 0.4-0.3 0.6-0.3 0.9s-0.1 0.5 0 0.8l0.3-0.1c0.3 0 0.5-0.1 0.8 0.1 0.2 0.1 0.3 0.1 0.5 0.3s0 0.5 0.1 0.7c0 0.4 0.1 0.7 0.1 1.1 0 0.3 0 0.4-0.1 0.7-0.2 0.4-0.5 0.4-0.9 0.5-0.2 0.1-0.4 0-0.5 0.1-0.2 0.1-0.1 0.4-0.3 0.5-0.1 0.2-0.3 0.2-0.5 0.4s-0.3 0.2-0.5 0.4c-0.3 0.3-0.3 0.5-0.5 0.8-0.2 0.2-0.3 0.3-0.4 0.5-0.2 0.3-0.2 0.5-0.3 0.7-0.2 0.3-0.3 0.4-0.5 0.6l-0.5 0.8-0.6 0.6 0.5 0.3c0.3-0.1 0.4-0.1 0.7-0.1 0.2 0 0.4 0 0.6 0.1 0.3 0.1 0.4 0.1 0.6 0.3s0.2 0.4 0.3 0.7c0.1 0.2 0 0.7 0.3 0.6 0.1-0.1 0.1-0.2 0.2-0.3 0.2-0.2 0.5-0.2 0.7-0.1 0.3 0.1 0.2 0.6 0.4 0.8s0.4 0.3 0.7 0.4c0.2 0.1 0.3 0.1 0.5 0.3 0.3 0.2 0.4 0.5 0.7 0.6 0.2 0.1 0.4 0 0.6 0.1 0.4 0.2 0.4 0.6 0.6 1s0.1 0.6 0.4 0.9c0.4 0.4 0.8 0.4 1.3 0.6h0.1l0.3-0.6c0.1-0.4 0.1-0.7 0.3-1.1 0.1-0.4 0.1-0.6 0.4-0.9 0.2-0.2 0.5 0 0.7-0.2s0.1-0.3 0.2-0.5c0.2-0.3 0.5-0.3 0.7-0.7s0.1-0.6 0.2-1 0.1-0.7 0.3-1.1c0.1-0.3 0.2-0.5 0.3-0.9 0.2-0.4 0.4-0.7 0.7-1.1 0.2-0.3 0.2-0.4 0.4-0.7 0.3-0.5 0.6-0.6 0.7-1.1 0.2-0.6 0-1.1 0-1.8 0-0.3 0.1-0.5 0-0.7-0.1-0.4-0.4-0.5-0.5-0.8-0.2-0.6-0.2-1.1 0.1-1.7 0.1-0.2 0.2-0.3 0.4-0.5 0.2-0.3 0.4-0.4 0.6-0.6s0.4-0.3 0.6-0.5 0.4-0.3 0.6-0.5c0.3-0.3 0.3-0.6 0.6-0.8s0.5-0.3 0.9-0.4 0.7 0.1 1.1-0.1 0.4-0.4 0.7-0.7l0.1-0.1c0.2-0.1 0.3-0.2 0.5-0.4 0.3-0.2 0.4-0.3 0.7-0.5 0.3-0.1 0.4-0.1 0.7-0.2 0.6-0.1 0.9 0 1.5 0 0.5 0 0.9 0.2 1.3-0.1 0.2-0.1 0.2-0.3 0.3-0.5s0.2-0.3 0.3-0.4c0.2-0.3 0.3-0.4 0.5-0.6s0.4-0.2 0.6-0.4c0.3-0.3 0.1-0.7 0.2-1.1s-0.2-0.8 0.1-1.1c0.2-0.2 0.4-0.1 0.6-0.3 0.2-0.1 0.3-0.3 0.3-0.5 0.2-0.4-0.2-0.7 0-1 0.1-0.2 0.2-0.3 0.4-0.4 0.2-0.2 0.4-0.2 0.6-0.3 0.6-0.5 0-1.2 0-2 0-0.5-0.2-0.8 0.1-1.3 0.2-0.3 0.5-0.3 0.6-0.6 0.1-0.4-0.2-0.6-0.2-1 0-0.3-0.1-0.6 0.1-0.9 0.1-0.2 0.3-0.3 0.4-0.5 0.3-0.5-0.1-0.9-0.2-1.5 0-0.4 0-0.6-0.1-0.9 0-0.4 0-0.6-0.1-1s-0.3-0.5-0.3-0.9c0-0.3 0.2-0.5 0.3-0.7v-0.2c0-0.4-0.3-0.5-0.3-0.9s0.1-0.7 0.4-0.9c0.2-0.2 0.4-0.2 0.6-0.3s0.4-0.1 0.6-0.2c0.3-0.2 0.2-0.5 0.4-0.8 0.1-0.2 0.2-0.2 0.3-0.4 0.2-0.3 0.2-0.6 0.4-0.9 0.2-0.5 0.4-0.8 0.6-1.3 0.1-0.2 0.1-0.4 0.3-0.5s0.3 0 0.5-0.1c0.3-0.1 0.3-0.5 0.5-0.7 0.3-0.4 0.4-0.6 0.7-1s0.5-0.5 0.7-0.9c0.2-0.2 0.3-0.3 0.4-0.5 0.1-0.3 0-0.5 0.1-0.9 0-0.4 0-0.7 0.1-1.1s0.2-0.5 0.3-0.9c0.1-0.5 0.3-0.7 0.3-1.2 0-0.4-0.2-0.6-0.3-0.9 0.7-0.1 0.6-0.3 0.5-0.7"/>
	<path class="st0" d="m43.3 29.6c0.1 0.3 0 0.5 0.2 0.7 0.2 0.3 0.5 0.2 0.8 0.3l-0.1-0.2c-0.1-0.3-0.2-0.5-0.3-0.8-0.1-0.4-0.1-0.6-0.1-0.9-0.1-0.3-0.1-0.6-0.3-0.9-0.2-0.4-0.7-0.3-0.9-0.7-0.1-0.3-0.3-0.4-0.2-0.7 0.1-0.4 0.6-0.3 0.7-0.7s-0.4-0.6-0.6-0.9c-0.1-0.2-0.2-0.3-0.2-0.4s-0.1-0.2-0.1-0.4c-0.1-0.5 0.1-0.8 0.2-1.3 0.1-0.4 0.2-0.7 0.3-1.1 0.1-0.5 0.7-0.9 0.4-1.3l-0.3-0.3c-0.3-0.1-0.5 0.2-0.8 0.2-0.5 0.1-0.8 0-1.3 0-0.4 0-0.7 0.2-1.1 0-0.2-0.1-0.3-0.2-0.4-0.3-0.3-0.3-0.1-0.8-0.5-1.1-0.3-0.2-0.6-0.2-1-0.2-0.7-0.1-1.1 0.2-1.8 0-0.4-0.1-0.7-0.1-0.9-0.3-0.4-0.3-0.3-0.7-0.3-1.2 0-0.4 0.1-0.6 0-1s-0.3-0.5-0.4-0.9c-0.1-0.3-0.1-0.5-0.2-0.8-0.2-0.3-0.6-0.3-0.6-0.7 0-0.3 0.4-0.3 0.5-0.6 0.2-0.3 0.2-0.5 0.3-0.9 0.1-0.3 0.1-0.5 0.1-0.8 0.1-0.4 0-0.7 0.3-0.9 0.3-0.3 0.7-0.2 1.1-0.3h0.2c0-0.1-0.1-0.1-0.1-0.2s0.1-0.2 0.2-0.3c0.2-0.2 0.3-0.1 0.5-0.3 0.3-0.2 0.7-0.3 0.7-0.7 0-0.2 0.1-0.4-0.1-0.5-0.2-0.2-0.4-0.1-0.7-0.1s-0.6 0-0.8 0.3c-0.2 0.2 0 0.5-0.2 0.7-0.3 0.3-0.6 0-1 0.1-0.4 0.2-0.4 0.5-0.7 0.7-0.4 0.2-0.7 0.2-1.1 0.3-0.4-0.2-0.7-0.4-1-0.2-0.1 0.1-0.1 0.3-0.3 0.4s-0.3 0.1-0.5 0.2c-0.3 0.1-0.5 0-0.8 0.1s-0.4 0.2-0.6 0.4c-0.5 0.5-0.5 1-0.5 1.7 0 0.3 0.2 0.6 0 0.8-0.2 0.3-0.6-0.1-0.9 0.1-0.2 0.2-0.3 0.3-0.4 0.6s0.1 0.4 0 0.7c-0.2 0.3-0.7 0-0.9 0.3-0.1 0.2 0.2 0.5-0.1 0.7-0.2 0.1-0.4-0.1-0.6-0.2v0.1c-0.1 0.3 0 0.5-0.1 0.7-0.1 0.3-0.3 0.4-0.5 0.6-0.2 0.1-0.3 0.2-0.5 0.3l-0.1 0.1c0.1 0 0.1 0.1 0.2 0.1 0.2 0.3 0 0.6 0.1 0.9 0.1 0.2 0.4 0.3 0.5 0.5 0.2 0.4-0.1 0.7-0.1 1.1 0 0.6 0.1 0.9 0.1 1.4 0 0.4 0.2 0.6 0 0.9-0.1 0.2-0.3 0.3-0.5 0.5-0.2 0.4-0.1 0.7-0.1 1v0.2c-0.1 0.7-0.2 1.1-0.3 1.8 0 0.5 0.3 0.9 0 1.2s-0.7 0-1.1 0.2c-0.4 0.3-0.5 0.7-0.6 1.2v0.5l-0.1 0.3c0.2 0.2 0.4 0.3 0.6 0.5 0.2 0.3 0.2 0.6 0.5 0.8 0.2 0.2 0.4 0.2 0.7 0.3s0.5 0.1 0.7 0.3c0.3 0.2 0.3 0.5 0.7 0.5 0.3 0.1 0.4 0 0.7-0.1s0.3-0.3 0.6-0.3c0.4 0 0.4 0.4 0.7 0.6 0.3 0.3 0.5 0.4 0.7 0.7l0.1-0.1c0.2 0 0.4-0.1 0.6 0 0.3 0.1 0.4 0.2 0.5 0.4 0.2 0.2 0.2 0.3 0.3 0.5s0.1 0.4 0.3 0.7c0.3 0.5 1.1 0.1 1.3 0.6 0.1 0.2 0.1 0.3 0.1 0.5 0.1 0.3 0.3 0.4 0.4 0.6 0.2 0.3 0.2 0.5 0.5 0.8 0.1 0.2 0.2 0.3 0.4 0.4 0.3 0.1 0.5 0 0.7 0 0.3 0 0.4 0.2 0.7 0.1 0.2-0.1 0.2-0.4 0.5-0.5 0.2-0.1 0.4 0.2 0.6 0.2 0.4 0 0.8-0.5 1-0.2 0.1 0.1 0 0.3 0.1 0.4 0.2 0.1 0.3 0.1 0.5 0.1 0.3 0 0.6-0.3 0.8 0s-0.2 0.5-0.3 0.7c-0.1 0.3-0.2 0.4-0.4 0.7-0.1 0.2-0.2 0.2-0.3 0.4s-0.1 0.4-0.1 0.6c0 0.4 0.1 0.5 0.2 0.9h0.1c0.2 0 0.2 0.1 0.4 0.1 0.3 0 0.6 0.2 0.7-0.1 0.1-0.2-0.1-0.3-0.1-0.5 0-0.4 0.2-0.6 0.3-0.9 0.1-0.4 0-0.7 0.1-1.1s0.3-0.5 0.3-0.9c0.1-0.5 0-0.9-0.1-1.4 0-0.5 0-0.7-0.1-1.2s-0.1-0.8-0.3-1.2c-0.2-0.3-0.4-0.4-0.5-0.7s-0.1-0.6 0-0.9c0.1-0.2 0.2-0.3 0.4-0.5 0.3-0.2 0.8 0.1 0.9-0.2 0.1-0.2 0.1-0.4-0.1-0.6-0.2-0.3-0.6 0-0.7-0.3-0.2-0.3 0-0.7 0.3-1 0.1-0.2 0.2-0.2 0.4-0.3 0.4-0.2 0.8 0.1 1.3 0.1l1.5-0.1c0.3-0.1 0.4-0.4 0.7-0.3 0.4 0.1 0.3 0.7 0.4 1.1"/>
	<path class="st0" d="m69.5 84.5c0-0.3 0.1-0.5-0.1-0.7-0.1-0.2-0.3-0.2-0.5-0.3-0.3-0.1-0.5 0-0.8-0.1l-0.3 0.1c0 0.1 0.1 0.2 0.1 0.3 0.1 0.3 0.1 0.6 0.1 0.9s0 0.5-0.1 0.8c-0.2 0.4-0.5 0.5-0.9 0.8-0.3 0.2-0.5 0.3-0.7 0.5-0.2 0.1-0.3 0.2-0.5 0.3-0.4 0.2-0.7 0.1-1.1 0.1-0.3 0-0.5 0-0.7-0.1-0.4 0-0.6-0.1-1-0.1-0.3 0-0.5 0.1-0.7 0.1h-0.5l0.1 0.3-0.3-0.6c-0.1-0.4-0.1-0.6 0.1-0.9 0.1-0.2 0.3-0.2 0.5-0.3 0.3-0.4 0-0.8 0.1-1.3 0-0.2 0-0.4 0.1-0.6s0.3-0.3 0.3-0.5c0-0.3-0.1-0.5-0.3-0.7-0.2-0.1-0.4-0.1-0.6-0.1-0.4-0.1-0.5-0.3-0.9-0.5-0.5-0.2-0.7-0.4-1.2-0.5-0.3-0.1-0.5 0-0.7-0.1-0.3-0.2-0.3-0.5-0.5-0.7-0.4-0.4-0.8-0.5-1.2-0.8-0.3-0.2-0.4-0.4-0.7-0.5-0.8-0.5-1.8 0-2.2-0.8-0.1-0.2 0-0.3-0.1-0.5s-0.3-0.3-0.5-0.5-0.2-0.4-0.4-0.6v0.1c-0.1-0.2-0.2-0.3-0.3-0.4-0.3-0.2-0.5-0.1-0.8-0.1s-0.5 0-0.7 0.1c-0.3 0.1-0.4 0.3-0.7 0.6-0.1 0.2-0.1 0.4-0.3 0.4-0.2 0.1-0.3-0.2-0.5-0.3-0.3-0.2-0.5-0.2-0.9-0.3s-0.5-0.4-0.9-0.4c-0.3 0-0.5 0-0.8 0.2-0.2 0.1-0.3 0.2-0.4 0.3s-0.2 0.2-0.3 0.4l0.4-0.3c0.1 0.8 0.2 1.3 0.2 2.1 0 0.4 0.1 0.6 0 0.9s-0.5 0.3-0.7 0.7 0.2 0.7 0.2 1.2c0 0.4 0 0.7-0.1 1.1s-0.3 0.7-0.5 1.1l-0.5 1c-0.3 0.5-0.5 0.7-0.8 1.2-0.4 0.7-0.6 1.1-1.1 1.8-0.3 0.5-0.6 0.7-0.9 1.3-0.3 0.7-0.2 1.3-0.2 2.1 0 0.9 0.2 1.4 0.3 2.2 0.1 0.9 0.2 1.4 0.3 2.2s0.3 1.2 0.4 2c0.1 0.7 0 1 0.1 1.7 0.1 0.8 0.5 1.2 0.6 2.1 0.1 0.5 0 0.9 0.1 1.4 0 0.4 0.4 0.8 0.1 1.1-0.1 0.2-0.3 0.1-0.5 0.3-0.4 0.4-0.2 0.8-0.3 1.3 0 0.2-0.1 0.5-0.1 0.7 0 0.3 0 0.5 0.1 0.8 0.2 0.3 0.4 0.3 0.6 0.5 0.4 0.5 1 0.8 0.9 1.4-0.1 0.4-0.5 0.4-0.7 0.8-0.5 0.9 0.1 1.5 0 2.5 0 0.3-0.1 0.5-0.1 0.8 0 0.5 0.3 0.8 0.4 1.3 0 0.2 0 0.4 0.1 0.6 0.1 0.3 0.1 0.5 0.3 0.7 0.1 0.3 0.2 0.4 0.3 0.7 0.2 0.5-0.1 0.9 0.2 1.3 0.2 0.3 0.5 0.3 0.7 0.6s0 0.6 0.1 0.9c0.2 0.4 0.5 0.4 0.7 0.7 0.1 0.3 0 0.6 0.2 0.7 0.2 0.2 0.6-0.2 0.7 0.1 0.1 0.2-0.4 0.3-0.6 0.4-0.1 0-0.1 0.1-0.1 0.2 0 0.4 0.8 0.1 1 0.5 0.1 0.2 0 0.4 0 0.7 0 0.4 0 0.7 0.1 1.1 0.1 0.3 0.1 0.4 0.2 0.7 0.1 0.2 0.3 0.3 0.3 0.5-0.1 0.2-0.5 0.1-0.5 0.3-0.1 0.3 0.3 0.3 0.3 0.6 0.1 0.3 0.1 0.5 0.1 0.7-0.1 0.3-0.3 0.3-0.3 0.6-0.1 0.4 0.3 0.6 0.4 0.9 0.1 0.5 0.2 0.9-0.1 1.3-0.2 0.4-0.8 0.3-0.8 0.7 0 0.3 0.2 0.4 0.3 0.7s0 0.7 0.3 0.9 0.7-0.2 0.9 0.1c0.2 0.2-0.2 0.6 0 0.8 0.2 0.3 0.5 0.1 0.9 0.1 0.2 0 0.3-0.1 0.5 0s0.3 0.2 0.5 0.3c0.2 0.3 0 0.6 0 0.9 0 0.2 0 0.4 0.1 0.6 0.2 0.2 0.4 0.1 0.6 0.2 0.3 0.2 0.4 0.4 0.7 0.6 0.7 0.3 1.3 0.4 2 0.1 0.2-0.1 0.2-0.2 0.4-0.3 0.5-0.2 0.9 0.2 1.4 0.3 0.3 0.1 0.5 0.2 0.9 0.3l0.8 0.4c0.2-0.3-0.1-0.5-0.3-0.7-0.3-0.2-0.7 0.2-0.8-0.1-0.1-0.1 0-0.3 0-0.4-0.1-0.3-0.3-0.3-0.5-0.5-0.1-0.2-0.2-0.3-0.3-0.5-0.2-0.5-0.2-0.9 0-1.3 0.1-0.2 0.2-0.4 0.3-0.5 0.2-0.1 0.3-0.1 0.5-0.3s0.1-0.4 0.1-0.7-0.1-0.5-0.1-0.9c0-0.3-0.1-0.5 0.1-0.7 0.1-0.2 0.2-0.3 0.4-0.5s0.4-0.3 0.7-0.5 0.5-0.2 0.7-0.5c0.2-0.4 0.2-0.7 0.1-1.1-0.1-0.2-0.1-0.3-0.2-0.5-0.2-0.2-0.4-0.2-0.6-0.2-0.3 0-0.4 0.1-0.7 0-0.2-0.1-0.3-0.1-0.5-0.3-0.3-0.2-0.4-0.4-0.7-0.6-0.1-0.1-0.3-0.1-0.4-0.2-0.2-0.1-0.4-0.2-0.5-0.5-0.2-0.3-0.2-0.5-0.2-0.9 0-0.3 0-0.5 0.1-0.7 0.2-0.3 0.5-0.4 0.8-0.6 0.4-0.2 0.8 0 1-0.3 0.1-0.2 0-0.4 0.1-0.6 0-0.1 0-0.1 0.1-0.2 0.1-0.2 0.2-0.3 0.2-0.5 0-0.4-0.3-0.5-0.3-0.9 0-0.2 0.1-0.3 0.1-0.5 0-0.3-0.2-0.5-0.1-0.7s0.5 0 0.6-0.2-0.3-0.3-0.4-0.5c-0.1-0.1-0.2-0.2-0.2-0.4 0-0.3 0.7 0 0.7-0.3 0-0.2-0.1-0.3-0.2-0.4-0.2-0.2-0.4 0-0.7-0.1-0.2 0-0.4 0-0.5-0.1-0.1-0.2-0.1-0.3-0.1-0.5s0.1-0.4 0-0.6-0.3-0.2-0.5-0.3c-0.2-0.2-0.5-0.2-0.6-0.5s-0.1-0.5 0.1-0.7c0.3-0.3 0.6-0.1 1-0.1 0.4 0.1 0.6 0.4 1 0.5 0.3 0.1 0.5 0.1 0.7 0.1 0.3 0 0.5 0.1 0.8 0s0.6 0 0.8-0.3c0.1-0.1 0.1-0.2 0.1-0.4s0-0.4-0.1-0.6l-0.1 0.1c-0.1-0.5-0.2-0.8-0.2-1.3s-0.1-0.8 0.1-1.3c0.1-0.3 0.2-0.5 0.4-0.6 0.3-0.2 0.6 0.1 0.9 0.1 0.3 0.1 0.4 0.2 0.7 0.2s0.4-0.2 0.7-0.3c0.4-0.1 0.6-0.1 0.9-0.2 0.4-0.1 0.6-0.3 1.1-0.4 0.4-0.1 0.8 0 1.1-0.2 0.5-0.3 0.6-0.8 0.9-1.3 0.2-0.4 0.3-0.6 0.5-0.9 0.1-0.3 0.3-0.5 0.3-0.8v-0.1c0-0.3-0.1-0.4-0.2-0.7-0.2-0.4-0.4-0.5-0.6-0.8s-0.4-0.4-0.5-0.7 0.1-0.4 0-0.7c-0.1-0.2-0.2-0.3-0.3-0.5s0-0.4-0.1-0.5c-0.3-0.3-0.7 0.1-1.1 0s-0.6-0.3-0.8-0.6-0.3-0.5-0.3-0.8c0-0.2 0.1-0.4 0.3-0.5l-0.3 0.1c-0.1-0.3-0.3-0.4-0.3-0.7-0.1-0.3-0.1-0.4-0.1-0.7s0.2-0.5 0.2-0.8 0.1-0.4 0-0.7-0.3-0.4-0.3-0.7c-0.1-0.5 0.1-0.7 0.1-1.2 0-0.3-0.1-0.5-0.1-0.9 0-0.5 0.2-0.7 0.1-1.2 0-0.2-0.2-0.3-0.1-0.5 0-0.2 0.2-0.2 0.3-0.3l0.1-0.3 0.6-0.6s0.2-0.3 0.3-0.6c0.1-0.1 0.1-0.2 0.1-0.2 0.2-0.2 0.4-0.3 0.5-0.6 0.2-0.3 0.2-0.5 0.3-0.7s0.3-0.3 0.4-0.5c0.2-0.3 0.3-0.5 0.5-0.8 0.2-0.2 0.3-0.2 0.5-0.4s0.3-0.2 0.5-0.4c0.1-0.2 0.1-0.4 0.3-0.5s0.3-0.1 0.5-0.1c0.4-0.1 0.7-0.2 0.9-0.5 0.1-0.2 0.1-0.4 0.1-0.7 0.6-1 0.5-1.3 0.5-1.7"/>
	<path class="st0" d="m64.5 140.4c-0.2-0.1-0.3-0.3-0.5-0.3h-0.5c-0.4 0-0.6-0.1-0.9-0.3-0.3-0.1-0.5-0.2-0.7-0.3-0.3-0.1-0.4-0.2-0.7-0.4l-0.5-0.5-0.5-0.5c-0.2-0.1-0.5 0-0.7-0.2s0.1-0.4 0-0.7-0.3-0.3-0.6-0.4h-0.5 0.2c0.2 0.3 0.4 0.4 0.5 0.7 0.2 0.3 0.2 0.5 0.3 0.8s0.1 0.5 0.2 0.7c0.1 0.4 0.2 0.6 0.5 0.9 0.2 0.3 0.5 0.3 0.7 0.5l0.4 0.1c0.1 0 0.1-0.1 0.2-0.1 0.4-0.1 0.7 0 1.1 0.1l0.6 0.3c0.4 0.1 0.7 0.2 1.1 0.1 0.3-0.1 0.7 0 0.8-0.3 0.1-0.2 0.1-0.3 0-0.5 0.1 0.1-0.3 0.4-0.5 0.3"/>
	<path class="st0" d="m58.6 117.3c0.1 0.2 0.3 0.2 0.5 0.3s0.4 0.2 0.6 0.1c0.1-0.1 0.2-0.3 0.1-0.5 0-0.2-0.3-0.2-0.3-0.3-0.1-0.2 0.2-0.4 0.1-0.5s-0.2-0.1-0.3-0.1c-0.2 0-0.5-0.1-0.6 0.1s0 0.3 0 0.5c-0.1 0.2-0.2 0.3-0.1 0.4"/>
	<path class="st0" d="m53.8 8.7c0.2 0 0.3-0.4 0.1-0.5-0.1-0.1-0.3 0-0.3 0.1 0 0.2 0.1 0.4 0.2 0.4"/>
	<path class="st0" d="m55.1 3.8s0.1 0.2 0.3-0.2c0.1-0.2 0.2-0.5 0-0.6h-0.4c-0.2 0.1-0.3 0.2-0.3 0.4 0 0.3 0.2 0.4 0.4 0.4"/>
	<path class="st0" d="m54 0.8c0.2 0 0.4 0 0.5-0.2s0.1-0.3-0.1-0.5c0-0.1-0.2-0.1-0.4 0s-0.4 0.3-0.3 0.5c0.1 0.1 0.2 0.1 0.3 0.2"/>
	<path class="st0" d="m62.5 28.8c-0.1 0-0.2-0.1-0.2-0.1 0 0.1 0.1 0.1 0.1 0.2l0.1-0.1"/>
	<path class="st0" d="m55.3 17.1c-0.1 0.3-0.2 0.5-0.1 0.7s0.4 0.2 0.4 0.5c0 0.2-0.3 0.2-0.5 0.3-0.3 0.2-0.7 0-0.9 0.3-0.3 0.4-0.1 0.7 0 1.2s0.2 0.7 0.3 1.1 0.2 0.7 0.4 1.1l0.1-0.1c0.3-0.1 0.6-0.4 0.9-0.1 0.1 0.1 0.1 0.3 0.1 0.5 0 0.3-0.2 0.5-0.1 0.8s0.3 0.4 0.5 0.7c0.2 0.2 0.5 0.2 0.5 0.5s-0.3 0.4-0.5 0.6c-0.1 0.2-0.2 0.3-0.3 0.5-0.1 0.3 0 0.6-0.1 0.9 0 0.4-0.4 0.8-0.1 1.1 0.1 0.1 0.3 0.1 0.5 0.2 0.3 0.3 0 0.6 0.1 0.9s0.2 0.5 0.5 0.7c0.2 0.2 0.4 0.2 0.7 0.3 0.2 0.1 0.3 0.2 0.5 0.2 0.3 0 0.2-0.4 0.5-0.5 0.3-0.2 0.6 0.1 0.9-0.1 0.4-0.1 0.5-0.4 0.9-0.6 0.2-0.1 0.3-0.3 0.6-0.3 0.4-0.1 0.6 0.1 1 0.2-0.1-0.2-0.2-0.4-0.4-0.7s-0.4-0.4-0.5-0.7-0.2-0.5-0.3-0.7c-0.1-0.3 0-0.5-0.3-0.7-0.2-0.2-0.4 0-0.7-0.1-0.3-0.2-0.4-0.5-0.5-0.8-0.2-0.7 0-1.1 0.2-1.8 0.1-0.3 0-0.6 0.3-0.7s0.4 0.3 0.7 0.3c0.4-0.1 0.4-0.5 0.3-0.9 0-0.3-0.3-0.4-0.3-0.7s0.2-0.4 0.3-0.7h0.2c-0.3-0.2-0.2-0.5-0.4-0.7-0.2-0.3-0.5-0.3-0.7-0.6 0-0.2 0-0.5-0.2-0.5-0.2-0.1-0.3 0-0.5 0-0.3-0.1-0.5-0.1-0.7-0.4s0-0.5-0.1-0.9-0.3-0.6-0.5-0.9-0.4-0.4-0.6-0.6c-0.3-0.3-0.5-0.4-0.8-0.6v0.3c0 0.2 0.1 0.3 0 0.5s-0.3 0.2-0.5 0.4c-0.3 0.2-0.6 0.3-0.8 0.6"/>
	<path class="st0" d="m18.7 36.6c0.1 0.2 0 0.4 0.2 0.6 0.2 0.3 0.5 0.2 0.8 0.3 0.4 0.1 0.9-0.1 0.9 0.3 0 0.3-0.2 0.3-0.4 0.5l-0.3 0.3-0.1 0.1c0.2 0.2 0.3 0.2 0.5 0.5 0.1 0.2 0.3 0.4 0.2 0.7s-0.4 0.2-0.5 0.5c-0.1 0.2-0.1 0.5 0.1 0.7s0.4 0 0.6 0.1c0.3 0.1 0.5 0 0.8 0.2s0.1 0.7 0.5 0.7c0.3 0.1 0.5-0.1 0.7-0.4s0-0.6 0.1-1c0.1-0.5 0.3-0.7 0.6-1.1 0.2-0.3 0.4-0.5 0.6-0.8s0.3-0.5 0.6-0.7 0.5-0.1 0.8-0.3c0.3-0.1 0.4-0.2 0.7-0.3s0.5 0 0.8-0.2c0.3-0.1 0.3-0.3 0.5-0.5 0.3-0.2 0.5-0.3 0.7-0.6 0.3-0.3 0.3-0.6 0.4-1s0.1-0.6 0.2-1c0.1-0.2 0.2-0.4 0.2-0.6 0-0.4-0.3-0.5-0.5-0.8l0.2 0.1c-0.3-0.3-0.5-0.4-0.7-0.7-0.3-0.2-0.3-0.6-0.7-0.6-0.3 0-0.3 0.3-0.6 0.3-0.3 0.1-0.4 0.1-0.7 0.1-0.3-0.1-0.4-0.4-0.7-0.5s-0.5-0.2-0.7-0.3c-0.1-0.2-0.3-0.2-0.5-0.4-0.3-0.2-0.2-0.5-0.5-0.8-0.2-0.2-0.4-0.3-0.6-0.5l0.1-0.3c-0.1 0.5-0.4 0.8-0.9 1.1-0.4 0.2-0.9-0.1-1.1 0.2-0.2 0.2-0.1 0.5-0.2 0.7-0.1 0.4 0 0.8-0.3 1.1-0.2 0.2-0.3 0.2-0.5 0.3s-0.4 0-0.6 0.1c-0.4 0.2-0.6 0.6-0.7 1-0.2 0.4-0.2 0.7-0.2 1.1 0 0.3-0.1 0.5 0 0.9 0 0.5 0.1 0.6 0.2 0.9"/>
	<path class="st0" d="m55.5 139c0.1-0.2 0-0.4 0-0.6 0.1-0.4 0.2-0.6 0.4-0.9l0.3-0.3c0.1-0.1 0.1-0.2 0.2-0.3 0.2-0.3 0.2-0.6 0.5-0.7s0.5 0 0.7 0c0.3 0 0.7 0.3 0.9 0l-0.8-0.4c-0.3-0.1-0.5-0.2-0.9-0.3-0.5-0.2-0.9-0.6-1.4-0.3-0.2 0.1-0.2 0.2-0.4 0.3-0.7 0.3-1.3 0.3-2-0.1-0.3-0.2-0.4-0.4-0.7-0.6-0.2-0.1-0.4 0-0.6-0.2s-0.1-0.4-0.1-0.6c0-0.4 0.2-0.6 0-0.9-0.1-0.2-0.3-0.3-0.5-0.3-0.2-0.1-0.3 0-0.5 0-0.3 0-0.7 0.2-0.9-0.1-0.2-0.2 0.2-0.6 0-0.8-0.2-0.3-0.6 0.1-0.9-0.1s-0.1-0.5-0.3-0.9c-0.1-0.3-0.4-0.4-0.3-0.7v-0.1c0.1-0.3 0.6-0.3 0.8-0.6 0.3-0.5 0.2-0.8 0.1-1.3-0.1-0.4-0.5-0.5-0.4-0.9 0-0.3 0.3-0.3 0.3-0.6 0.1-0.3 0-0.5-0.1-0.7-0.1-0.3-0.4-0.4-0.3-0.6s0.5 0 0.5-0.3c0.1-0.2-0.2-0.3-0.3-0.5-0.1-0.3-0.1-0.4-0.2-0.7-0.1-0.4-0.1-0.7-0.1-1.1 0-0.3 0.1-0.4 0-0.7-0.2-0.4-1-0.1-1-0.5s0.9-0.3 0.7-0.6v-0.1c-0.1-0.1-0.2 0-0.3 0s-0.2 0.1-0.3 0c-0.2-0.2-0.1-0.5-0.2-0.7-0.2-0.3-0.5-0.4-0.7-0.7-0.1-0.3 0-0.6-0.1-0.9-0.2-0.3-0.5-0.3-0.7-0.6-0.3-0.4 0-0.8-0.2-1.3-0.1-0.3-0.2-0.4-0.3-0.7s-0.2-0.4-0.3-0.7c0-0.2 0-0.4-0.1-0.6-0.1-0.5-0.4-0.8-0.4-1.3 0-0.3 0-0.5 0.1-0.8 0.1-1-0.5-1.6 0-2.5 0.2-0.4 0.6-0.4 0.7-0.8 0.1-0.6-0.4-0.9-0.9-1.4-0.2-0.2-0.4-0.3-0.6-0.5-0.3-0.5-0.1-0.9 0-1.5 0.1-0.5-0.1-0.9 0.3-1.3 0.2-0.1 0.3-0.1 0.5-0.3 0.3-0.3-0.1-0.7-0.1-1.1v-0.7-0.7c-0.1-0.8-0.5-1.3-0.6-2.1-0.1-0.6 0-1-0.1-1.7-0.1-0.8-0.3-1.2-0.4-2-0.2-0.9-0.2-1.4-0.3-2.2-0.1-0.9-0.3-1.3-0.3-2.2 0-0.8-0.1-1.3 0.2-2.1 0.2-0.6 0.5-0.8 0.9-1.3 0.4-0.7 0.6-1.1 1.1-1.8 0.3-0.5 0.5-0.7 0.8-1.2l0.5-1c0.2-0.4 0.4-0.6 0.5-1.1 0.1-0.4 0.1-0.7 0.1-1.1 0-0.5-0.4-0.8-0.2-1.2 0.1-0.3 0.5-0.3 0.7-0.7 0.1-0.3 0-0.6 0-0.9 0-0.8-0.1-1.3-0.2-2.1l-0.5 0.4c-0.1-0.3-0.2-0.4-0.3-0.7s-0.3-0.5-0.3-0.9 0.2-0.6 0.3-1c0.1-0.3 0.1-0.4 0.2-0.7 0.1-0.4 0.1-0.7 0.1-1.1-0.1-0.4-0.1-0.6-0.3-0.9-0.2-0.2-0.4-0.3-0.5-0.5-0.2-0.4 0-0.6 0-1 0-0.7-0.1-1.1-0.3-1.8-0.7-1-0.7-1.6-1.2-1.9-0.3-0.2-0.6 0-0.9-0.2s-0.2-0.5-0.4-0.7-0.4-0.3-0.6-0.5c-0.4-0.3-0.6-0.4-0.9-0.6l0.1 0.1c0 0.2-0.1 0.3-0.1 0.5-0.1 0.4-0.3 0.5-0.6 0.8s-0.5 0.5-0.9 0.8c-0.2 0.2-0.4 0.2-0.6 0.4s-0.2 0.4-0.3 0.6l-0.3 0.6-0.3-0.1c0.1 0 0.2 0.1 0.3 0.1 0.3 0.1 0.5 0 0.7 0.2s0 0.5 0.1 0.9 0.3 0.6 0.4 0.9c0.2 0.6 0.3 0.9 0.3 1.5 0.1 0.8-0.1 1.2 0.1 2 0.1 0.3 0.2 0.4 0.2 0.7 0.1 0.6-0.2 0.9-0.3 1.4s-0.2 0.7-0.3 1.2c-0.1 0.4-0.3 0.6-0.3 1 0 0.3 0.2 0.4 0.3 0.7s0.1 0.4 0.1 0.7c0.1 0.4 0.1 0.6 0.1 1 0 0.5-0.2 0.8 0 1.2 0.1 0.3 0.4 0.3 0.4 0.6s-0.2 0.4-0.2 0.7v0.8c0 0.3 0 0.5 0.1 0.9 0 0.5 0.1 0.7 0.1 1.2 0 0.2 0.1 0.4 0.1 0.6 0 0.4 0 0.6-0.1 1 0 0.5 0.2 0.8-0.1 1.2-0.2 0.3-0.5 0.3-0.6 0.6 0 0.2 0 0.3 0.1 0.5s0.3 0.2 0.4 0.5 0 0.5 0 0.9c0 0.3 0 0.4-0.1 0.7-0.1 0.2-0.3 0.3-0.4 0.5-0.1 0.4 0.1 0.6 0.1 1 0.1 0.5 0.1 0.7 0.3 1.1 0.1 0.4 0.3 0.6 0.4 1s0.1 0.7 0.2 1.1c0.1 0.3 0.4 0.5 0.4 0.8 0.1 0.3 0 0.6-0.1 0.9s-0.3 0.4-0.4 0.7c-0.2 0.5-0.1 0.9-0.1 1.5 0 0.4 0.1 0.6 0.1 1v0.9c0 0.5-0.1 0.8-0.1 1.3 0 0.3 0.1 0.5 0.1 0.8s-0.1 0.5-0.2 0.9c-0.1 0.5-0.3 0.8-0.2 1.2 0.1 0.3 0.3 0.4 0.5 0.7 0.2 0.4 0.3 0.6 0.4 1.1s-0.1 0.8 0 1.3c0.1 0.3 0.3 0.5 0.3 0.8s-0.4 0.4-0.4 0.7 0.3 0.5 0.3 0.8c0.1 0.3 0 0.5 0.1 0.7 0.1 0.3 0.2 0.5 0.3 0.7 0.2 0.3 0.2 0.5 0.4 0.8 0.1 0.2 0.2 0.3 0.4 0.3 0.3 0.1 0.4-0.3 0.7-0.3 0.2 0 0.4 0.1 0.5 0.2 0.2 0.2 0.1 0.5 0.3 0.7 0.1 0.2 0.3 0.2 0.5 0.3 0.1 0.1 0.2 0.2 0.2 0.4 0 0.3-0.2 0.4-0.2 0.7 0 0.2 0.2 0.3 0.2 0.5 0 0.3-0.2 0.4-0.3 0.7 0 0.2-0.1 0.3 0 0.5s0.3 0 0.5 0.1c0.3 0.3-0.3 0.7-0.1 1.1l0.3 0.3c0.2 0.2 0.4 0.1 0.6 0.3v0.1c0.1 0.2 0.2 0.3 0.2 0.5 0 0.3-0.1 0.4-0.1 0.7-0.1 0.2-0.1 0.3-0.2 0.5-0.1 0.3-0.3 0.5-0.3 0.8 0 0.2 0.2 0.3 0.3 0.5 0.2 0.4 0.1 0.7 0.1 1.2 0 0.4 0.1 0.7 0 1.1-0.1 0.3-0.4 0.3-0.4 0.6s0.3 0.3 0.4 0.5 0.1 0.4 0.3 0.5c0.2 0.2 0.5-0.1 0.7 0s0.5 0.1 0.5 0.3c0 0.3-0.4 0.2-0.5 0.4-0.2 0.2-0.2 0.4-0.2 0.7s-0.2 0.6-0.1 0.8c0 0 0 0.1 0.1 0.1 0.1 0.2 0.2 0.2 0.4 0.3 0.2 0.2 0.4 0.2 0.5 0.5 0.2 0.3-0.1 0.6 0.1 0.9 0.1 0.2 0.1 0.3 0.2 0.4s0.3 0.1 0.4 0.2c0.3 0.2 0.2 0.6 0.3 0.9s0.2 0.4 0.4 0.6c0.2 0.1 0.4 0.1 0.5 0.2 0.3 0.2 0.3 0.4 0.5 0.7 0.2 0.2 0.5 0.2 0.6 0.5 0.1 0.2 0.1 0.4 0.1 0.6 0.1 0.2 0.1 0.4 0.3 0.6 0.1 0.2 0.2 0.4 0.4 0.4s0.3-0.2 0.5-0.3c0.3-0.2 0.6-0.2 0.9-0.2 0.2 0 0.3 0 0.5 0.1 0.3 0.1 0.5 0.1 0.7 0.2 0.3 0.1 0.7 0.2 0.7 0.5s-0.1 0.5-0.4 0.6c-0.2 0.1-0.4 0.1-0.7-0.1s-0.2-0.6-0.5-0.7-0.7-0.2-0.9 0.1c-0.1 0.1-0.1 0.2-0.1 0.3 0 0.3 0.2 0.4 0.4 0.6s0.7 0 0.7 0.3-0.7-0.1-0.7 0.2 0.4 0.2 0.7 0.3c0.4 0.2 0.6 0.3 0.9 0.4s0.4 0.1 0.7 0.1c0.3 0.2 0.4 0.2 0.5 0"/>
	<path class="st0" d="m1.1 32.5c-0.2-0.2-0.4-0.5-0.7-0.4-0.2 0-0.3 0.1-0.4 0.3s0 0.3 0.1 0.5 0.3 0.2 0.3 0.4-0.3 0.2-0.3 0.4c-0.1 0.3-0.2 0.5 0 0.7 0.1 0.1 0.1 0.2 0.3 0.3s0.4 0 0.6-0.1 0.3-0.2 0.4-0.4c0.2-0.3 0.1-0.5 0.1-0.9-0.1-0.3-0.2-0.5-0.4-0.8"/>
	<path class="st0" d="m2.1 33.7c-0.1 0.2 0 0.3 0.1 0.5 0.2 0.1 0.4 0.2 0.5 0.1 0.1-0.2 0-0.4-0.1-0.5-0.2-0.2-0.4-0.2-0.5-0.1"/>
	<path class="st0" d="m3.8 33.9c-0.2 0.1-0.3 0.5-0.1 0.5 0.1 0 0.2 0 0.3-0.1 0.2-0.1 0.5-0.3 0.3-0.5 0-0.1-0.3-0.1-0.5 0.1"/>
	<path class="st0" d="m43.7 118.9c0.3-0.2 0.1-0.5 0.1-0.8 0-0.2 0.1-0.4 0-0.6s-0.2-0.3-0.3-0.5c-0.1-0.3 0-0.4-0.1-0.7-0.1-0.2-0.2-0.3-0.4-0.4s-0.3-0.1-0.5 0-0.3 0.2-0.3 0.4c-0.1 0.2 0.1 0.3 0.1 0.5 0.1 0.2 0.2 0.3 0.3 0.5 0.1 0.3-0.1 0.4-0.1 0.7s-0.2 0.5 0 0.7 0.4 0 0.6 0.1c0.3 0.1 0.4 0.2 0.6 0.1"/>
	<path class="st0" d="m45.8 121.2c-0.1-0.1-0.2-0.2-0.3-0.2-0.2 0-0.2 0.1-0.4 0.1 0 0 0.3 0.1 0.2 0.4s0.3 0.2 0.3 0.2v0.1c0 0.1 0.3-0.4 0.2-0.6"/>
	<path class="st0" d="m44.3 121.5c-0.2 0.1-0.3 0.3-0.4 0.5s-0.2 0.3-0.1 0.5c0.1 0.3 0.4 0.3 0.7 0.3s0.7 0 0.7-0.3c0-0.2-0.1-0.3-0.1-0.4-0.2-0.3-0.4-0.7-0.8-0.6"/>
	<path class="st0" d="m44.9 125.4c0.3 0 0.5 0.1 0.7-0.1 0.3-0.3 0.2-0.7-0.1-1.1-0.2-0.2-0.3-0.3-0.5-0.3-0.2-0.1-0.4-0.1-0.5 0-0.2 0.1-0.1 0.3-0.3 0.4-0.1 0.1-0.3 0.2-0.4 0.3-0.3 0.2-1 0.3-0.7 0.6 0.2 0.2 0.4 0.1 0.6 0.1s0.3-0.1 0.5-0.1c0.3 0 0.4 0.2 0.7 0.2"/>
	<path class="st0" d="m45.3 128.8c0.1-0.1 0.1-0.2 0.1-0.4s0-0.5-0.3-0.5c-0.2 0-0.3 0.1-0.4 0.1-0.2 0.1-0.6 0-0.5 0.3 0 0.2 0.3 0.2 0.5 0.3 0.2 0 0.4 0.3 0.6 0.2"/>
	<path class="st0" d="m46.2 129.5c-0.2-0.1-0.4 0-0.6 0.1-0.4 0-0.8-0.2-0.9 0.1-0.2 0.3 0.5 0.5 0.5 0.9 0 0.2-0.2 0.3-0.1 0.5s0.3 0.2 0.5 0.3c0.2 0 0.4 0.1 0.5-0.1s-0.2-0.3-0.3-0.5c0-0.2 0-0.3 0.1-0.5s0.4-0.2 0.4-0.4c0.1-0.2 0-0.3-0.1-0.4"/>
	<path class="st0" d="m47.6 135.2c-0.1 0.2 0.1 0.6 0.3 0.5 0.1-0.1 0.2-0.2 0.2-0.3 0.1-0.2 0.1-0.3 0-0.5-0.2-0.1-0.5 0.1-0.5 0.3"/>
	<path class="st0" d="m51.1 137.3c-0.2-0.1-0.3-0.1-0.5-0.2-0.3-0.1-0.4-0.1-0.7-0.1-0.2 0-0.5-0.1-0.5 0.1 0 0.1 0.1 0.2 0.2 0.3 0.2 0.3 0.4 0.4 0.7 0.5s0.5 0 0.8-0.1c0.3 0 0.6 0.2 0.7-0.1 0-0.2-0.5-0.2-0.7-0.4"/>
	<path class="st0" d="m52.8 139c-0.1-0.1-0.1-0.3-0.3-0.4-0.2-0.2-0.4-0.3-0.6-0.2-0.2 0.2-0.1 0.5 0.1 0.7s0.5-0.1 0.6 0.1c0.1 0.1-0.1 0.3 0.1 0.5s0.5 0.2 0.7-0.1c0.1-0.2 0.1-0.3 0-0.5-0.2-0.1-0.5 0.1-0.6-0.1"/>
	<path class="st0" d="m56.3 137.9c-0.2-0.1-0.3 0.1-0.4 0.2-0.2 0.2-0.2 0.5 0 0.7 0.1 0.1 0.2 0.2 0.4 0.1s0.2-0.4 0.2-0.6 0-0.4-0.2-0.4"/>
	<path class="st0" d="m63.9 142c-0.2 0-0.4 0.1-0.6 0.1-0.3 0.1-0.7 0.1-0.7 0.4s0.5 0.3 0.8 0.3c0.2 0 0.4-0.1 0.6-0.1 0.3-0.1 0.6 0.1 0.7-0.1s0-0.3-0.1-0.5c-0.1-0.3-0.4-0.1-0.7-0.1"/>
	<path class="st0" d="m62.7 141.1c-0.2-0.2-0.4-0.1-0.7-0.1-0.2 0-0.4 0-0.6 0.1-0.3 0.1-0.6 0.1-0.9 0.2-0.2 0.1-0.3 0.2-0.5 0.3s-0.4 0-0.7 0.1l0.3 0.5c0.3 0 0.5 0 0.8 0.1s0.4 0.2 0.7 0.3c0.2 0 0.3 0.1 0.5 0s-0.2-0.4-0.1-0.5c0.2-0.2 0.5 0 0.7 0s0.3 0 0.5-0.1c0.3-0.4 0.2-0.7 0-0.9"/>
	<path class="st0" d="m60.2 141c0.3-0.1 0.5 0 0.8-0.1 0.1 0 0.2-0.1 0.3-0.1l-0.4-0.1c-0.3-0.2-0.5-0.3-0.7-0.5-0.3-0.3-0.3-0.5-0.5-0.9-0.1-0.3-0.1-0.5-0.2-0.7-0.1-0.3-0.1-0.5-0.3-0.8s-0.3-0.5-0.5-0.7h-0.2-0.2-0.7-0.4c-0.3 0.1-0.4 0.4-0.5 0.7 0 0.2 0 0.4 0.1 0.6l0.4 0.2c0.1 0 0.2 0 0.3-0.1 0.3 0 0.6-0.3 0.7-0.1 0 0.1 0 0.2-0.1 0.3-0.1 0.2-0.4 0.2-0.5 0.4-0.1 0.1-0.1 0.3-0.1 0.4 0.1 0.3 0.4 0.2 0.6 0.3 0.3 0.1 0.8 0 0.7 0.3-0.1 0.2-0.4 0.2-0.6 0.2-0.3 0-0.5 0-0.7-0.1-0.1-0.1-0.2-0.1-0.3-0.2-0.3-0.1-0.5 0-0.7 0-0.4 0-0.9-0.3-1.1 0.1-0.1 0.2-0.1 0.5 0.1 0.6s0.3 0 0.5 0c0.3 0 0.5 0.2 0.8 0.3 0.4 0.1 0.7 0.1 1.1 0.1s0.6-0.1 0.9 0c0.2 0.1 0.3 0.2 0.5 0.3 0.4-0.1 0.6-0.4 0.9-0.4"/>
	<path class="st0" d="m62.3 29v0 0"/>
	<path class="st0" d="m60.1 25.7c0.2 0.1 0.5 0 0.7 0.1 0.2 0.2 0.2 0.5 0.3 0.7 0.1 0.3 0.1 0.5 0.3 0.7 0.2 0.3 0.3 0.4 0.5 0.7s0.3 0.6 0.5 0.9c0.2-0.1 0.3-0.1 0.5-0.3s0-0.4 0.2-0.6c0.1-0.1 0.3-0.1 0.5-0.1 0.3-0.1 0.3-0.4 0.5-0.5 0.3-0.1 0.5 0 0.8 0.1s0.4 0.2 0.6 0.3h0.1c0.2-0.3 0.3-0.5 0.5-0.9 0.2-0.3 0.3-0.4 0.4-0.7 0.1-0.4 0-0.6-0.1-0.9-0.1-0.4-0.4-0.6-0.5-1.1-0.2-0.7-0.1-1.2 0.1-1.9 0.1-0.3 0.2-0.4 0.3-0.6 0.1-0.3 0.2-0.5 0.3-0.7v-0.2c-0.1 0-0.2-0.1-0.3-0.1-0.5-0.1-0.7 0.1-1.2 0-0.4-0.1-0.5-0.2-0.9-0.3-0.3-0.1-0.5-0.1-0.7-0.1-0.3 0-0.4 0.1-0.7 0.1-0.3 0.1-0.5 0.2-0.8 0.1-0.3 0-0.6-0.1-0.8-0.3h-0.2c-0.1 0.3-0.3 0.4-0.3 0.7s0.3 0.4 0.3 0.7c0 0.4 0 0.8-0.3 0.9s-0.4-0.4-0.7-0.3-0.2 0.4-0.3 0.7c-0.2 0.7-0.4 1.1-0.2 1.8 0.2 0.6 0.3 0.9 0.6 1.1"/>
	<path class="st0" d="m34.7 65.7c0.5 0.3 0.8 0.3 1.3 0.5 0.3 0.2 0.5 0.4 0.8 0.5s0.5 0.1 0.7 0.3c0.3 0.3 0 0.8 0.2 1.1s0.5 0.4 0.9 0.6l0.3 0.1 0.3-0.6c0.1-0.2 0.1-0.4 0.3-0.6s0.4-0.2 0.6-0.4c0.4-0.3 0.6-0.5 0.9-0.8s0.5-0.4 0.6-0.8c0.2-0.5 0.2-0.8 0.1-1.3-0.1-0.3-0.2-0.4-0.3-0.7-0.2-0.3-0.5-0.5-0.5-0.9s0.2-0.6 0.5-0.9c0.2-0.2 0.6-0.2 0.6-0.5s-0.3-0.4-0.4-0.7-0.2-0.5-0.2-0.9c0-0.3 0.1-0.5 0.1-0.8 0-0.5 0-0.8-0.1-1.3 0-0.3 0-0.5-0.1-0.9s-0.4-0.5-0.5-0.9c-0.1-0.3 0-0.5-0.1-0.7-0.1-0.4-0.4-0.5-0.6-0.8h-0.1c-0.3-0.1-0.4-0.1-0.7-0.1-0.2 0-0.3 0.1-0.5 0.1-0.3 0-0.6 0.3-0.9 0-0.2-0.3 0.1-0.5 0.1-0.9s-0.2-0.7-0.1-1.1c0.2-0.9-0.3-0.7-0.3-0.7-0.2 0.2-0.3 0.4-0.6 0.5-0.2 0.1-0.4 0-0.7 0-0.4 0-0.6 0-0.9-0.3-0.2-0.2-0.2-0.5-0.4-0.7s-0.4-0.1-0.7-0.2c-0.2-0.1-0.5 0.1-0.6-0.1v-0.2c0.1-0.1 0.3-0.2 0.3-0.4s-0.1-0.2-0.2-0.3l-0.5-0.5c-0.2-0.3-0.1-0.5-0.2-0.8-0.1-0.2-0.2-0.3-0.3-0.5-0.2-0.3-0.4-0.4-0.5-0.7 0-0.3 0.1-0.4 0.1-0.7 0.1-0.5-0.1-0.9 0.2-1.3 0.2-0.2 0.4-0.2 0.5-0.4 0.3-0.4 0.3-0.7 0.5-1.2 0.1-0.4 0.2-0.6 0.3-0.9 0-0.3-0.2-0.5 0-0.7s0.5 0.1 0.8 0c0.2-0.1 0.3-0.3 0.5-0.5s0.3-0.5 0.6-0.6c0.2-0.1 0.4 0 0.7 0s0.5 0.3 0.8 0.1c0.2-0.1 0.2-0.3 0.3-0.5l0.1-0.1c-0.1-0.3-0.2-0.5-0.2-0.9 0-0.2 0-0.4 0.1-0.6s0.2-0.2 0.3-0.4c0.2-0.2 0.3-0.4 0.4-0.7s0.5-0.5 0.3-0.7c-0.2-0.3-0.5 0-0.8 0-0.2 0-0.4 0.1-0.5-0.1-0.1-0.1 0-0.3-0.1-0.4-0.3-0.3-0.6 0.3-1 0.2-0.2 0-0.4-0.3-0.6-0.2-0.3 0.1-0.2 0.4-0.5 0.5-0.2 0.1-0.4-0.1-0.7-0.1s-0.5 0.1-0.7 0-0.3-0.2-0.4-0.4c-0.2-0.3-0.3-0.5-0.5-0.8-0.2-0.2-0.3-0.3-0.4-0.6-0.1-0.2 0-0.3-0.1-0.5-0.3-0.5-1-0.1-1.3-0.6-0.2-0.2-0.1-0.4-0.3-0.7-0.1-0.2-0.2-0.3-0.3-0.5-0.2-0.2-0.3-0.3-0.5-0.4s-0.4 0-0.6 0l-0.3-0.1c0.2 0.3 0.5 0.4 0.5 0.8 0 0.2-0.1 0.4-0.2 0.6-0.1 0.4-0.1 0.6-0.2 1s-0.2 0.7-0.4 1-0.4 0.4-0.7 0.6c-0.2 0.2-0.3 0.4-0.5 0.5-0.3 0.2-0.5 0.1-0.8 0.2s-0.4 0.2-0.7 0.3-0.5 0.1-0.8 0.3-0.4 0.4-0.6 0.7c-0.3 0.3-0.4 0.5-0.6 0.8-0.3 0.4-0.5 0.7-0.6 1.1s0.2 0.7-0.1 1c-0.2 0.3-0.4 0.5-0.7 0.4s-0.2-0.5-0.5-0.7-0.5-0.1-0.8-0.2c-0.2 0-0.4 0.1-0.6-0.1s-0.2-0.4-0.1-0.7c0.1-0.2 0.4-0.2 0.5-0.5s-0.1-0.4-0.2-0.7c-0.1-0.2-0.3-0.3-0.5-0.5l0.1-0.1c-0.1 0.1-0.2 0.2-0.4 0.3-0.3 0.3-0.6 0.3-0.7 0.7-0.1 0.2-0.1 0.3-0.1 0.5-0.1 0.3-0.3 0.4-0.4 0.7s-0.3 0.4-0.2 0.7 0.4 0.2 0.5 0.5c0.1 0.2-0.1 0.4-0.1 0.7s0.2 0.5 0.2 0.8-0.3 0.6-0.1 0.9c0.1 0.4 0.4 0.4 0.7 0.6s0.5 0.2 0.8 0.3 0.6-0.1 0.9 0.1c0.4 0.3 0.2 0.7 0.4 1.1 0.3 0.8 0.5 1.3 1 2 0.3 0.4 0.6 0.5 0.9 1 0.2 0.3 0.1 0.5 0.3 0.8 0.1 0.2 0.2 0.3 0.3 0.4 0.2 0.2 0.4 0.3 0.6 0.6 0.3 0.6 0.2 1 0.5 1.6 0.2 0.5 0.4 0.8 0.6 1.3s0.3 0.8 0.6 1.3 0.6 0.8 0.9 1.3c0.2 0.4 0.4 0.6 0.5 0.9 0.2 0.4 0.2 0.6 0.4 1l0.3 0.6c0.2 0.5 0 0.9 0.3 1.3 0.2 0.4 0.4 0.5 0.7 0.8 0.3 0.4 0.5 0.6 0.8 1s0.6 0.6 0.9 0.9 0.5 0.4 0.9 0.7 0.5 0.5 0.9 0.7c0.3 0.1 0.6 0 0.9 0.1-0.2 0.5 0 0.9 0.4 1.1"/>
	<path class="st0" d="m54.6 71.8c-0.3 0.2-0.5 0.4-0.7 0.8-0.3 0.5-0.3 0.9-0.3 1.4-0.1 0.5 0 0.8-0.1 1.3 0 0.3-0.1 0.5-0.1 0.7v0.5l-0.2 0.1c0.2 0.2 0.2 0.4 0.4 0.6s0.3 0.2 0.5 0.5c0.1 0.2 0.1 0.3 0.1 0.5 0.4 0.8 1.5 0.3 2.2 0.8 0.3 0.2 0.4 0.3 0.7 0.5 0.5 0.3 0.8 0.4 1.2 0.8 0.2 0.3 0.2 0.6 0.5 0.7s0.5 0.1 0.7 0.1c0.5 0.1 0.7 0.3 1.2 0.5 0.3 0.2 0.5 0.3 0.9 0.5 0.2 0.1 0.4 0 0.6 0.1 0.2 0.2 0.4 0.4 0.3 0.7 0 0.2-0.2 0.3-0.3 0.5s-0.1 0.4-0.1 0.6c-0.1 0.5 0.2 0.9-0.1 1.3-0.1 0.2-0.3 0.2-0.5 0.3-0.2 0.3-0.2 0.6-0.1 0.9 0 0.3 0.2 0.4 0.3 0.6l-0.1-0.3h0.5c0.3 0 0.5-0.1 0.7-0.1 0.4 0 0.6 0 1 0.1 0.3 0 0.5 0.1 0.7 0.1 0.4 0 0.7 0.1 1.1-0.1 0.2-0.1 0.3-0.2 0.5-0.3 0.3-0.2 0.5-0.3 0.7-0.5 0.4-0.3 0.7-0.4 0.9-0.8 0.3 0 0.3-0.2 0.3-0.5 0-0.4 0.1-0.6-0.1-0.9 0-0.1-0.1-0.2-0.1-0.3-0.1-0.3 0-0.5 0-0.8 0.1-0.4 0.3-0.6 0.3-0.9 0.1-0.4 0-0.6-0.1-1-0.1-0.3 0-0.6-0.3-0.8-0.2-0.1-0.3-0.1-0.5-0.1-0.3 0-0.4 0.1-0.7 0.1s-0.5 0-0.7-0.2c-0.4-0.3-0.2-0.7-0.3-1.2v-0.9c0-0.4 0.1-0.7-0.1-0.9-0.2-0.3-0.5-0.1-0.9-0.2-0.2 0-0.3-0.1-0.5-0.1-0.4-0.1-0.6 0-1 0h-0.7c-0.4 0-0.8 0.2-0.9-0.1-0.1-0.2 0.2-0.4 0.1-0.6 0-0.2-0.2-0.2-0.3-0.4-0.2-0.3-0.4-0.4-0.4-0.7 0-0.2 0.2-0.4 0.2-0.6 0.1-0.5-0.1-0.9-0.2-1.4l-0.1-0.3c-0.3-0.3-0.4-0.5-0.7-0.7s-0.6-0.3-0.9-0.4c-0.6-0.2-0.9-0.3-1.5-0.2-0.3 0-0.5 0.1-0.9 0.2-0.5 0.1-0.8 0.3-1.3 0.5-0.3-0.2-0.5-0.2-0.8 0"/>
	<path class="st0" d="m70.6 135.7c0.1-0.1 0.1-0.2 0.2-0.3 0.1-0.2 0.3-0.2 0.4-0.4 0.1-0.1 0.3-0.2 0.3-0.4-0.1-0.2-0.2-0.2-0.4-0.2s-0.3 0.1-0.5 0.1-0.4 0-0.4 0.1c-0.1 0.2 0.3 0.2 0.3 0.3 0.1 0.3-0.7 0.3-0.5 0.6 0.1 0.2 0.4 0.3 0.6 0.2"/>
	<path class="st0" d="m72.3 135.7c0.2 0 0.3 0 0.4-0.1s0-0.2 0.1-0.3c0.1-0.2 0.4 0 0.5-0.1 0.2-0.1 0.4-0.2 0.3-0.3 0-0.2-0.3 0-0.5-0.1-0.3 0-0.4-0.2-0.7-0.1-0.2 0-0.4 0.1-0.5 0.3-0.2 0.2-0.4 0.6-0.2 0.8 0.2-0.1 0.4-0.1 0.6-0.1"/>
</g>
</svg>
