<?xml version="1.0" encoding="UTF-8"?>
<svg width="62px" height="57px" viewBox="0 0 62 57" version="1.1" xmlns="http://www.w3.org/2000/svg" xmlns:xlink="http://www.w3.org/1999/xlink">
    <!-- Generator: Sketch 61.2 (89653) - https://sketch.com -->
    <title>Clean Fat icon</title>
    <desc>Created with Sketch.</desc>
    <defs>
        <polygon id="path-1" points="4.98027987e-05 0.013545841 61.897025 0.013545841 61.897025 57 4.98027987e-05 57"></polygon>
    </defs>
    <g id="Page-1" stroke="none" stroke-width="1" fill="none" fill-rule="evenodd">
        <g id="Meal-Plan---desktop" transform="translate(-479.000000, -2513.000000)">
            <g id="Clean-Fat-icon" transform="translate(478.104545, 2513.000000)">
                <path d="M13.9332646,45.5169936 C13.4690917,44.6321013 12.9345897,43.6480298 12.3630722,42.5604239 C11.8794663,41.6511822 11.3784632,40.6627556 10.8876393,39.6190974 C10.3962602,38.5665309 9.92246332,37.4480428 9.51751509,36.2668007 C8.86956091,34.3610159 8.40094622,32.2515277 8.31025855,30.0480073 C8.30618686,30.0123741 8.30933316,29.9670407 8.30526147,29.9314074 C8.20643041,27.2874206 8.62285341,24.7200451 9.20214407,22.3931941 C9.44829634,21.370124 9.87563887,20.3777381 10.306868,19.4207875 C10.8189758,18.2821073 11.3616212,17.1937096 11.8006236,16.1546045 C12.066394,15.5254797 12.3079193,14.8995224 12.4935515,14.3078125 C12.6793687,13.7163006 12.8185465,13.1578485 12.9094192,12.6235477 C13.0130623,12.0514362 13.0530389,11.5149578 13.0513732,11.0556849 C13.0417492,10.5977977 12.9969606,10.2072177 12.9366255,9.89997992 C12.8749949,9.58363588 12.7905999,9.3603342 12.7224916,9.2073092 C12.6460548,9.05507605 12.5712837,8.99291583 12.5131696,9.00063637 C12.4548704,9.00815894 12.4139684,9.09447059 12.3730664,9.25303853 C12.3319793,9.41140852 12.2979252,9.63213668 12.2548023,9.91680673 C12.1676311,10.4865428 12.0140172,11.2902704 11.676437,12.252962 C11.515235,12.6882815 11.3162774,13.1645792 11.0784536,13.6729468 C10.8398895,14.1724062 10.5628294,14.7039354 10.2483837,15.276245 C9.73701628,16.1985522 9.11811917,17.2162773 8.49922205,18.3775252 C7.97545446,19.3378412 7.4409524,20.4250511 7.05525217,21.7092338 C6.32216262,24.1647604 5.80172641,27.0069077 5.90962623,30.0278152 C5.90647992,30.0729506 5.911477,30.1174922 5.91684423,30.1620337 C6.02844559,32.6961515 6.59478087,35.0720972 7.38987118,37.157236 C7.8838414,38.4523065 8.4572096,39.6299853 9.03464949,40.6981909 C9.61375507,41.7757006 10.2146997,42.7512598 10.7795544,43.6321928 C11.4654493,44.686343 12.1113677,45.6106298 12.6932494,46.4177229 C13.2740207,47.2155117 13.7988987,47.894523 14.2421579,48.4490159 C15.1266403,49.540581 15.6966772,50.0966576 15.8528821,49.9861945 C16.0081616,49.8670211 15.7340627,49.0918001 15.1059117,47.8050439 C14.7959079,47.1612699 14.3963269,46.3933735 13.9332646,45.5169936" id="Fill-1" fill="#000000"></path>
                <path d="M30.7513105,40.0033995 C31.3942337,38.2021933 31.7924901,36.1826649 31.8767366,34.0755753 C31.966572,31.9409774 31.727494,29.888323 31.2787311,28.035781 C30.8635012,26.3029579 30.3298708,24.7419642 29.7846487,23.3853448 C29.2474994,22.0188457 28.6981374,20.8476162 28.2249492,19.8968396 C27.7412043,18.9385081 27.3228696,18.1930745 26.9945771,17.7016075 C26.6646288,17.2016168 26.4251368,16.9557865 26.2901767,17.006541 C26.1537677,17.0485782 26.1316193,17.386038 26.2073791,17.9677784 C26.2831389,18.5495188 26.4760573,19.3737963 26.7403886,20.3925685 C27.0150695,21.4097909 27.3617844,22.622089 27.7378924,23.9889756 C28.1057207,25.3574118 28.5000442,26.8633891 28.7896287,28.5049703 C29.1057085,30.2052485 29.2721317,32.0634083 29.2003048,33.9754222 C29.1253729,35.8612839 28.8119841,37.6595843 28.3249273,39.2845055 C28.2651061,39.6963537 27.7436883,40.1878207 27.2564245,40.8693267 C26.9970611,41.1984566 26.7143073,41.5657492 26.4665356,41.9818592 C26.2514688,42.2883239 26.0486148,42.7608063 25.9827907,43.3411907 C25.9544325,43.9967383 25.9115848,44.6098613 25.8238193,45.1660307 C25.7449546,45.7218126 25.6211722,46.2208347 25.4721366,46.6694896 C25.3007456,47.164831 25.0933376,47.6028314 24.8882066,47.9875588 C24.6836966,48.3726736 24.4810495,48.7037407 24.3187663,48.9780478 C23.9923368,49.5177511 23.8190828,49.8548234 23.9279617,49.9658248 C24.0355985,50.0681089 24.4164674,49.9452905 24.9863218,49.5365419 C25.2705245,49.3279057 25.594056,49.0528237 25.9426339,48.6866933 C26.2916257,48.3211442 26.6478623,47.8660965 26.9800876,47.2994662 C27.27257,46.7899833 27.5176509,46.2068869 27.7174,45.5672243 C27.9185982,44.9362791 28.0641149,44.2406315 28.1589182,43.5161196 C28.1446356,43.4822187 28.2694529,43.3535888 28.4182816,43.1162821 C28.6006433,42.8485614 28.8581437,42.5812281 29.1384136,42.2672084 C29.3801825,42.0192471 29.6635572,41.7315733 29.9554187,41.3633121 C30.2383794,40.9962132 30.5306549,40.5568568 30.7513105,40.0033995" id="Fill-3" fill="#000000"></path>
                <path d="M17.80091,44.5570184 C17.7656109,44.4201221 17.7271602,44.2484646 17.6926491,44.0402884 C17.6513618,43.8422671 17.6203176,43.5979628 17.5873823,43.3366685 C17.5623263,43.0829904 17.5418402,42.8013862 17.5257665,42.4930276 C17.5037046,42.1942381 17.4920434,41.8583441 17.4778607,41.4960863 C17.4652539,41.2228794 17.4572171,40.9217465 17.4337369,40.6055764 C17.4167177,40.2886253 17.384728,39.9642532 17.3434407,39.6150796 C17.2676423,39.0669083 17.1426774,38.4550734 16.8769891,37.8731174 C16.5115495,37.084157 16.1930702,36.1817346 15.9733967,35.1931906 C15.7825612,34.3513073 15.6637421,33.4363866 15.6210366,32.4921728 C15.5921985,31.7590645 15.6038598,31.0021312 15.6503474,30.2309419 C15.718109,29.092222 15.8536321,27.9876774 15.999871,26.917308 C16.1532012,25.8459622 16.3107862,24.8181655 16.4515096,23.8370424 C16.5923906,22.8561146 16.709949,21.932406 16.7901597,21.0670882 C16.8784074,20.1384974 16.9170157,19.2886073 16.9226887,18.5416336 C16.9280466,17.7944647 16.8935355,17.1509932 16.8479934,16.6161015 C16.8032393,16.0896071 16.7346898,15.6824332 16.6785896,15.4064923 C16.6228045,15.1305514 16.573638,14.9958032 16.5452727,15 C16.5169074,15.0045912 16.5102888,15.1565246 16.5159618,15.4310985 C16.5150163,15.715632 16.5262049,16.1226106 16.52652,16.6379736 C16.5279383,17.161734 16.518168,17.7940741 16.4677408,18.521519 C16.4240898,19.2477923 16.346558,20.0679987 16.2337271,20.9645624 C16.1223145,21.8076174 15.9820638,22.7176559 15.818333,23.6841325 C15.6618511,24.6496326 15.4828346,25.6807492 15.315952,26.7630311 C15.1567912,27.8445318 15.0092916,28.9773931 14.9386935,30.1608338 C14.8888967,30.9681512 14.8805447,31.7598457 14.9218319,32.5445098 C14.9703681,33.5500438 15.1092005,34.5241365 15.3274557,35.4240201 C15.5832162,36.4873592 15.9496013,37.4358693 16.3616861,38.2619343 C16.5933361,38.7157818 16.7168827,39.2393469 16.8089124,39.7402587 C16.8623337,40.0611156 16.9004693,40.3753328 16.9367138,40.6715835 C16.9668125,40.9781845 16.9953354,41.2670143 17.0229128,41.5472515 C17.0580543,41.9061895 17.0908319,42.2389589 17.1289675,42.5527855 C17.1672607,42.867198 17.2168999,43.1529032 17.2638603,43.4120494 C17.3198029,43.6879902 17.3864614,43.9268265 17.4505985,44.1391037 C17.5137901,44.3425931 17.5807637,44.5103448 17.6439553,44.6429448 C17.7071469,44.7755449 17.7593075,44.8657676 17.8078437,44.9206433 C17.8500765,44.9852834 17.874187,45.0083272 17.8872665,44.9973912 C17.9008189,44.9864551 17.8964065,44.9427107 17.8823814,44.8735791 C17.8675684,44.79605 17.836209,44.6939148 17.80091,44.5570184" id="Fill-5" fill="#000000"></path>
                <path d="M20.6465984,17.0008684 C20.6714524,17.0692598 20.7049025,17.1364721 20.7297564,17.2048636 C21.0960256,18.1591998 21.393339,19.1046922 21.6289846,20.0311215 C21.854726,20.9500827 22.0105772,21.850767 22.0999021,22.6977993 C22.2069797,23.7661212 22.2110909,24.7581906 22.1768933,25.638436 C22.143817,26.5281147 22.0625277,27.2985014 21.9840414,27.9435037 C21.9051814,28.5883095 21.8278164,29.0988872 21.7911895,29.4433994 C21.7470877,29.797738 21.7433502,29.9860111 21.7788559,29.9993749 C21.8229577,30.0117561 21.9053683,29.8399913 22.019734,29.5037333 C22.143817,29.1747467 22.2817285,28.6737988 22.4286099,28.0295826 C22.5683902,27.3947997 22.7145241,26.5978819 22.8057177,25.6922845 C22.8967243,24.7860975 22.9301744,23.75374 22.8507538,22.6282286 C22.7896467,21.7330472 22.6457552,20.7859825 22.4220694,19.8131728 C22.1983836,18.8405596 21.8876154,17.8520277 21.5084521,16.8634958 C21.4835981,16.7953009 21.458931,16.7269094 21.4252941,16.6595006 C21.01511,15.6212473 20.5701677,14.6502063 20.1224224,13.7330138 C19.6748639,12.8158213 19.2431896,11.9591592 18.8343136,11.1533976 C18.3889976,10.253696 17.9760104,9.41255952 17.6245042,8.66182556 C17.2827152,7.91895268 16.9835331,7.25095668 16.7417208,6.70972073 C16.4987871,6.15964105 16.3122889,5.7274777 16.1754986,5.4320973 C16.0392689,5.13671689 15.9534946,4.98676663 15.9125696,5.00091659 C15.8800539,5.01388739 15.8922006,5.19135146 15.9633988,5.51306651 C16.0261878,5.8357642 16.1575588,6.30192675 16.3349004,6.87814455 C16.520838,7.45318318 16.7643323,8.15537492 17.0754742,8.92910257 C17.3798887,9.71265658 17.7528852,10.5767867 18.1770847,11.5148111 C18.5534449,12.33374 18.9705433,13.2102514 19.3915659,14.1219412 C19.8223059,15.0412955 20.2571571,15.9958282 20.6465984,17.0008684" id="Fill-7" fill="#000000"></path>
                <path d="M22.0817241,37.6630459 C22.2506228,37.1639745 22.4487354,36.6876856 22.6578757,36.2279479 C22.8672096,35.7685997 23.0856364,35.3158721 23.2970984,34.8740489 C23.5565408,34.3190924 23.8094052,33.7836081 24.0291863,33.268959 C24.2420026,32.7644354 24.4203813,32.2729581 24.56084,31.8305507 C24.7399926,31.2681948 24.8375012,30.760361 24.8746473,30.3391782 C24.9193387,29.9084541 24.886062,29.55815 24.8313101,29.3256524 C24.7864253,29.1009438 24.7202587,28.9938469 24.6682155,29.0002727 C24.6248784,29.0055302 24.6035967,29.1233367 24.5683853,29.3402566 C24.532787,29.5571764 24.4815176,29.8648365 24.3780115,30.2494116 C24.2727642,30.6166565 24.1148932,31.0615952 23.8935643,31.5670924 C23.7140248,31.9789286 23.5029498,32.421336 23.2516331,32.8948988 C22.9999295,33.3688511 22.7263639,33.8807741 22.4301623,34.4221001 C22.19916,34.8493192 21.9609992,35.285885 21.719356,35.7672367 C21.4852582,36.2392418 21.2554166,36.7457126 21.0567236,37.2926855 C20.9042698,37.7101685 20.7734845,38.1603648 20.7198935,38.6631359 C20.663207,39.0689356 20.6833278,39.5269208 20.8353947,39.9780906 C20.8487441,40.0203452 20.8630608,40.0629892 20.8781514,40.1145905 C21.1902174,41.0860564 21.3440256,42.0680372 21.2784395,42.9799184 C21.2532884,43.4260255 21.1733856,43.8610335 21.0654297,44.2814373 C20.9574738,44.7022306 20.8290102,45.0990732 20.6819735,45.4889058 C20.5003058,45.9546798 20.3074169,46.4033183 20.1201386,46.8250852 C19.9417599,47.2454891 19.761253,47.6487574 19.6134424,48.030217 C19.436805,48.4683405 19.2907356,48.8671303 19.1851014,49.2345699 C19.0788867,49.593247 19.0103986,49.9024649 18.9626116,50.1651443 C18.9152117,50.4282131 18.8962517,50.6342285 18.8954545,50.7761806 C18.8947039,50.9179379 18.913277,50.995437 18.9488753,50.9997209 C18.9850541,51.004589 19.0307128,50.945783 19.0953316,50.8223296 C19.1607242,50.7078333 19.2441095,50.5207059 19.3483895,50.2864558 C19.4532498,50.0609682 19.5772637,49.7710278 19.7322326,49.4507108 C19.8866211,49.1216314 20.0713843,48.7536076 20.2867157,48.3458607 C20.4749613,48.0041243 20.675976,47.6250014 20.899433,47.2077131 C21.1145709,46.800745 21.3432517,46.3561957 21.5667087,45.8682234 C21.7472156,45.4647603 21.9149535,45.0276104 22.0521233,44.5591103 C22.1906473,44.0993727 22.2978293,43.5987435 22.3485183,43.069685 C22.3980464,42.5320587 22.3837297,41.9759339 22.3073093,41.4182514 C22.2394016,40.8595952 22.1107445,40.3083384 21.9302376,39.7635075 C21.9149535,39.7124904 21.9000564,39.6610839 21.8847723,39.6096774 C21.7948091,39.3725066 21.7868768,39.090355 21.8116409,38.7861999 C21.855365,38.4172025 21.9596449,38.0413899 22.0817241,37.6630459" id="Fill-9" fill="#000000"></path>
                <g id="Group-13" transform="translate(0.895455, 0.000000)">
                    <mask id="mask-2" fill="white">
                        <use xlink:href="#path-1"></use>
                    </mask>
                    <g id="Clip-12"></g>
                    <path d="M58.9963764,11.4888495 C58.9160134,11.8337876 58.7817459,12.3291588 58.6119369,12.957334 C58.4508159,13.5853134 58.2541535,14.3460969 58.0484083,15.2218598 C57.8426631,16.0976227 57.6280325,17.0883649 57.404714,18.1676433 C57.1989688,19.1231278 57.0021089,20.1491278 56.7608223,21.2372206 C56.5195357,22.3163031 56.2510006,23.4490557 55.8934146,24.6076639 C55.8754465,24.6871897 55.8487904,24.7580969 55.8219369,24.8376227 C55.4821217,25.9347258 55.0706312,26.9783546 54.5969433,27.9424577 C54.1228605,28.9069526 53.5952682,29.8001485 53.0321344,30.5875711 C52.3256503,31.5785093 51.5743446,32.4009938 50.8589752,33.0908701 C50.1526885,33.7811381 49.4817459,34.3295918 48.9095293,34.763066 C48.3375102,35.1877258 47.8632299,35.4972103 47.5234146,35.6919113 C47.1926822,35.8864165 46.9962172,35.9659423 46.9691662,35.9218701 C46.9421153,35.8864165 47.0854656,35.7359835 47.3624911,35.4709629 C47.639714,35.2141691 48.0600898,34.8423959 48.569714,34.3648495 C49.0886185,33.8871072 49.6963764,33.3032 50.3402682,32.5956948 C50.9843573,31.8879938 51.6637904,31.0651175 52.3074847,30.1012103 C52.8263892,29.3314165 53.3089624,28.4732825 53.7382236,27.544633 C54.1765675,26.6155918 54.561007,25.6074165 54.8919369,24.5545814 C54.9189879,24.4746639 54.9365611,24.4043443 54.9636121,24.3246227 C55.3123127,23.2098907 55.5895357,22.0951588 55.8399051,21.0248907 C56.0991599,19.963633 56.3315611,18.9372412 56.5641599,17.9819526 C56.8323,16.9026742 57.1006376,15.9117361 57.3689752,15.0449835 C57.6369178,14.1692206 57.896765,13.4172515 58.1376567,12.806901 C58.3704529,12.1875402 58.5850834,11.7188082 58.746007,11.4003134 C58.907128,11.0818186 59.0141471,10.9225711 59.0587713,10.9402 C59.103593,10.9580247 59.0769369,11.1527258 58.9963764,11.4888495 M59.0230325,29.1899938 C58.9337841,29.8179732 58.746007,30.7203753 58.4597013,31.8347155 C58.173593,32.9494474 57.7802682,34.2853237 57.2526758,35.7892619 C56.7339688,37.2841897 56.0721089,38.9473753 55.1869306,40.6718701 C54.2389624,42.5209423 52.9869178,44.405468 51.4223064,46.1391691 C49.8752682,47.8554371 48.1404529,49.2794577 46.3612108,50.3761691 C45.7976822,50.6948598 45.2523191,50.8807464 44.769351,51.0047361 C44.2865803,51.1195196 43.8484338,51.1727979 43.481765,51.2254887 C43.0345357,51.3050144 42.6412108,51.3671072 42.3013955,51.4642619 C42.0152873,51.5794371 41.8273127,51.6062722 41.8006567,51.6501485 C41.2193573,52.1899835 40.6112045,52.6765402 40.0121344,53.0833753 C39.404179,53.4904062 38.7958287,53.8179113 38.2058414,54.0564887 C37.5439815,54.3217052 36.9360261,54.4633237 36.3995484,54.5520557 C35.8717586,54.6315814 35.4067586,54.6492103 35.0404847,54.6403959 C34.289179,54.6135608 33.8956567,54.4719423 33.8866135,54.3128907 C33.877886,54.1624577 34.2445548,53.9945918 34.8971344,53.7558186 C35.219179,53.6318289 35.6125038,53.4904062 36.0508478,53.3043237 C36.4889943,53.1188289 36.9719624,52.8888701 37.4545357,52.5789938 C37.8928796,52.304767 38.3399115,51.9600247 38.804714,51.5529938 C39.2610261,51.1371485 39.7258287,50.6505918 40.2176822,50.1199629 C40.6737968,49.6688598 41.1565675,49.412066 41.5589752,49.2970866 C42.0421408,49.1113959 42.5249115,48.9877979 42.9721408,48.8814371 C43.8391535,48.6336536 44.6086248,48.5627464 44.9484401,48.2444474 C46.486593,47.2008186 48.0065803,45.8913856 49.3924975,44.3433753 C50.7963828,42.7863546 51.9676694,41.1057361 52.9156376,39.4691897 C53.8278669,37.9033546 54.5787777,36.3641588 55.2317522,34.9750041 C55.8934146,33.586633 56.4567459,32.3302825 56.9574847,31.2952722 C57.4582236,30.2602619 57.8785994,29.4465918 58.2184146,28.9069526 C58.5580325,28.358499 58.8085994,28.0930866 58.9515548,28.1459732 C59.0947076,28.1902412 59.1128732,28.5620144 59.0230325,29.1899938 M32.4112108,50.9248186 C31.9464083,51.1107052 31.5349178,51.2963959 31.168249,51.4554474 C30.8106631,51.6237052 30.4978987,51.7653237 30.2473318,51.8893134 C29.9971599,52.0133031 29.8001025,52.1104577 29.6573446,52.1631485 C29.5228796,52.2252412 29.4334338,52.2428701 29.4069752,52.2076124 C29.389007,52.1811691 29.4245484,52.1016433 29.5228796,51.9776536 C29.6212108,51.8624784 29.7823318,51.7034268 29.9971599,51.5173443 C30.2206758,51.3314577 30.5063892,51.1195196 30.8552873,50.8983753 C31.1951025,50.6684165 31.5973127,50.4294474 32.0627076,50.1818598 C32.4560325,49.9783443 32.8852936,49.7572 33.3412108,49.5360557 C33.7973255,49.3149113 34.2712108,49.076334 34.7543764,48.8107258 C35.1475038,48.5895814 35.5501089,48.3417979 35.9345484,48.067767 C36.3189879,47.7935402 36.6856567,47.4836639 37.025472,47.1301072 C37.7139879,46.4132 38.2684338,45.4843546 38.6795293,44.4407258 C38.6976949,44.3966536 38.7154656,44.3521897 38.7334338,44.3083134 C38.9300962,43.8211691 39.2250898,43.4233443 39.5560197,43.1226742 C39.9584274,42.7420866 40.3876885,42.4592412 40.8080643,42.2114577 C41.3621153,41.8931588 41.9169561,41.6363649 42.444351,41.3975918 C42.9810261,41.1678289 43.4995357,40.9641175 43.9913892,40.7782309 C44.6263955,40.5220247 45.2252682,40.292066 45.7708287,40.0705299 C46.3161917,39.8493856 46.8169306,39.6282412 47.2552745,39.4074887 C47.7919497,39.1420763 48.2389815,38.8852825 48.5965675,38.6463134 C48.954351,38.3987258 49.2138032,38.1775814 49.3924975,38.018334 C49.5713892,37.8680969 49.6788032,37.7793649 49.7141471,37.8060041 C49.7593637,37.8324474 49.7411981,37.974066 49.6248987,38.1952103 C49.5176822,38.4255608 49.2939688,38.7350454 48.9632363,39.0707773 C48.6325038,39.3982825 48.1852745,39.7522309 47.6485994,40.0973649 C47.2193382,40.3715918 46.7185994,40.6542412 46.1734338,40.9286639 C45.6367586,41.2028907 45.0376885,41.4773134 44.4206503,41.7603546 C43.9376822,41.981499 43.4369433,42.2026433 42.9362045,42.4416124 C42.4265803,42.6799938 41.9258414,42.9456021 41.4339879,43.2378495 C41.0582363,43.4678082 40.7097331,43.7063856 40.4147395,43.9984371 C40.1819433,44.2283959 39.9854783,44.4757876 39.895835,44.7325814 C39.8780643,44.7856639 39.8602936,44.8389423 39.8332427,44.891633 C39.6097268,45.4755402 39.3325038,46.0328082 39.0015739,46.5460041 C38.6708414,47.0593959 38.2950898,47.5367464 37.8749115,47.9525918 C37.463421,48.3592309 37.025472,48.7043649 36.5875229,48.9966124 C36.1402936,49.2882722 35.6928669,49.5360557 35.2551153,49.7483856 C34.7184401,50.0051794 34.2088159,50.2083031 33.7347331,50.4030041 C33.2606503,50.588499 32.8138159,50.765767 32.4112108,50.9248186 M26.4807331,51.6295814 C22.1150643,54.8043443 15.6824656,54.7986639 12.942421,53.2498701 C4.21680955,48.2992928 3.08343376,41.6455711 2.2235293,34.5043134 C1.01689873,24.5445918 4.38405159,14.2716639 10.5074401,5.60844742 C12.3139306,0.666684536 14.6369561,4.1728701 15.7286694,4.77166392 C27.3815102,14.5545093 30.7956567,20.6382309 32.5233637,31.9786845 C33.5578159,38.7064474 32.2111917,47.4605505 26.4807331,51.6295814 M38.8228796,18.8665299 C40.0478732,18.096932 41.2728669,17.5927464 42.4084146,17.176901 C43.7587904,16.6815299 45.0106376,16.2921278 46.1108414,15.9031175 C46.7815866,15.6641485 47.4075102,15.4253753 47.9617586,15.1864062 C48.5250898,14.947633 49.0258287,14.7000454 49.473058,14.4522619 C50.4387968,13.9038082 51.1271153,13.3463443 51.6010006,12.9483237 C51.8337968,12.7450041 52.0124911,12.5855608 52.1556439,12.4884062 C52.2985994,12.3822412 52.3969306,12.3467876 52.4597204,12.3734268 C52.5132299,12.4086845 52.5313955,12.5148495 52.4954592,12.6919216 C52.450835,12.8687979 52.3702745,13.1163856 52.209351,13.4172515 C52.0484274,13.7179216 51.8249115,14.0718701 51.5117522,14.4522619 C51.1987904,14.8326536 50.7963828,15.2394887 50.3045293,15.6377052 C49.8663828,16.0002722 49.3478732,16.3630351 48.7665739,16.7081691 C48.1941599,17.0619216 47.559351,17.3978495 46.8797204,17.7165402 C45.7708287,18.2473649 44.5369497,18.7425402 43.2849051,19.3088186 C42.2386057,19.7777464 41.1745357,20.281932 40.2447331,20.9453649 C38.1252809,22.4314784 35.9704847,24.244901 34.2445548,26.5008082 C34.2177013,26.5358701 34.1906503,26.5713237 34.1639943,26.5979629 C33.888351,26.9609216 33.6318605,27.3334784 33.3850452,27.7099526 C33.1261854,26.5346948 32.8373127,25.4095814 32.5097395,24.3234474 C34.4078478,22.0313031 36.6489306,20.2453031 38.8228796,18.8665299 M52.8623255,18.5215918 C52.8976694,18.5392206 52.8441599,18.6986639 52.7189752,18.9723031 C52.5847076,19.2557361 52.3702745,19.6447464 52.0484274,20.131499 C51.7354656,20.6092412 51.3152873,21.184334 50.7874975,21.803499 C50.2597076,22.4226639 49.6248987,23.0949113 48.8917586,23.7847876 C48.2030452,24.4396021 47.4250834,25.1208598 46.5936121,25.8107361 C45.7619433,26.5096227 44.8765675,27.2349526 43.9736185,27.9955402 C43.070472,28.7565196 42.1493573,29.5703856 41.2910325,30.4549629 C40.7008478,31.056499 40.1641726,31.6756639 39.6900898,32.321468 C39.0734465,33.1441485 38.5636248,34.0022825 38.1699051,34.8690351 C37.7139879,35.8864165 37.4280771,36.9124165 37.2576758,37.8945402 C37.132886,38.6022412 36.8465803,39.2216021 36.533421,39.7434165 C36.3458414,40.0705299 36.1402936,40.3715918 35.9434338,40.6456227 C35.7469688,40.9286639 35.5501089,41.1852619 35.3621344,41.4332412 C35.1297331,41.742334 34.9153,42.0345814 34.7184401,42.3001897 C34.5215803,42.5740247 34.3517713,42.8216124 34.2088159,43.0607773 C34.0476949,43.3085608 33.9225102,43.5381278 33.8239815,43.7328289 C33.7169624,43.9363443 33.6362045,44.1136124 33.5826949,44.2550351 C33.5204975,44.405468 33.4756758,44.5114371 33.4393446,44.5909629 C33.4269051,44.6279835 33.4144656,44.6546227 33.4022236,44.6734268 C33.6004656,44.0103856 33.7684975,43.3350041 33.9120452,42.6529629 C34.0170898,42.4494474 34.132007,42.2384887 34.2623255,42.0079423 C34.4412172,41.7158907 34.6378796,41.4064062 34.8525102,41.078901 C35.0134338,40.8226948 35.192128,40.5570866 35.3714146,40.2740454 C35.5412236,39.9910041 35.7199178,39.6991485 35.8810389,39.389468 C36.1402936,38.8852825 36.3724975,38.3458392 36.4441726,37.7705505 C36.5875229,36.7269216 36.864351,35.6123856 37.3295484,34.5156742 C37.7319561,33.5688082 38.259351,32.6399629 38.9123255,31.7551897 C39.4130643,31.0741278 39.9761981,30.4195093 40.5845484,29.791334 C41.4874975,28.8624887 42.4354656,28.0400041 43.3565803,27.2792206 C44.2865803,26.5182412 45.1897268,25.8107361 46.0391662,25.1384887 C46.8797204,24.4746639 47.666765,23.8378701 48.3639688,23.2275196 C49.1152745,22.5730969 49.768249,21.9537361 50.3224975,21.3878495 C50.8767459,20.8213753 51.3328605,20.3085711 51.6995293,19.874901 C52.0571153,19.4412309 52.3256503,19.0874784 52.5221153,18.8577155 C52.7100898,18.6187464 52.8263892,18.5035711 52.8623255,18.5215918 M60.3556376,10.6130866 C59.8548987,9.37456082 60.3287841,4.86294227 55.3656248,7.7292 C46.0654274,10.2223134 37.6020325,14.9556639 31.6200197,21.7165299 C29.0006185,14.9098289 24.4027459,9.40237526 15.4273573,1.95633402 C14.2118414,1.30132371 11.6185038,-2.57330515 9.5883,2.89458144 C2.71321083,12.477633 -1.06918408,23.8433546 0.265987898,34.8482722 C1.2186949,42.7444371 2.48396879,50.1040969 12.2258669,55.5555299 C15.2923,57.2698392 22.4892363,57.2629835 27.3809178,53.7481794 C27.5544783,53.6230144 27.7227076,53.4923649 27.8889624,53.3601485 C30.2562172,55.2366433 33.4746885,56.7779938 36.8465803,56.975633 C44.5904592,57.4445608 51.8067459,51.0844577 55.6161917,44.7856639 C62.0365484,34.161334 63.3778414,26.7574062 60.3556376,10.6130866" id="Fill-11" fill="#000000" mask="url(#mask-2)"></path>
                </g>
            </g>
        </g>
    </g>
</svg>