<?xml version="1.0" encoding="UTF-8"?>
<svg width="70px" height="71px" viewBox="0 0 70 71" version="1.1" xmlns="http://www.w3.org/2000/svg" xmlns:xlink="http://www.w3.org/1999/xlink">
    <!-- Generator: Sketch 61.2 (89653) - https://sketch.com -->
    <title>Keto low carb icon</title>
    <desc>Created with Sketch.</desc>
    <defs>
        <polygon id="path-1" points="0 0.151069767 69.8490116 0.151069767 69.8490116 70 0 70"></polygon>
    </defs>
    <g id="Page-1" stroke="none" stroke-width="1" fill="none" fill-rule="evenodd">
        <g id="Meal-Plan---desktop" transform="translate(-620.000000, -2508.000000)">
            <g id="Keto-low-carb-icon" transform="translate(620.000000, 2508.000000)">
                <g id="Group-3" transform="translate(0.000000, 0.255988)">
                    <mask id="mask-2" fill="white">
                        <use xlink:href="#path-1"></use>
                    </mask>
                    <g id="Clip-2"></g>
                    <path d="M-0.000162790698,35.0753721 C-0.000162790698,54.3636279 15.6362907,70.0000814 34.9245465,70.0000814 C54.2128023,70.0000814 69.8492558,54.3636279 69.8492558,35.0753721 C69.8492558,15.7871163 54.2128023,0.151069767 34.9245465,0.151069767 C15.6362907,0.151069767 -0.000162790698,15.7871163 -0.000162790698,35.0753721" id="Fill-1" fill="#000000" mask="url(#mask-2)"></path>
                </g>
                <path d="M34.9223081,35.3313605 L63.063936,14.6492093 C59.8199244,10.2343256 55.5812616,6.64397674 50.692657,4.17037209 C45.8040523,1.69636047 40.401436,0.40705814 34.9223081,0.40705814 L34.9223081,35.3313605 Z" id="Fill-4" fill="#FFB83C"></path>
                <path d="M19.0323488,45.6488314 L19.0323488,28.9062151 C18.766593,29.2269128 18.3913605,29.4751686 17.9066512,29.6505756 C17.4219419,29.8267965 16.9453721,29.9147035 16.4765349,29.9147035 L16.4765349,27.5815058 C17.1407209,27.4874942 17.7719419,27.2180756 18.3697907,26.772436 C18.9680465,26.3267965 19.4230465,25.7370872 19.7360116,25.0020872 L22.1746163,25.0020872 L22.1746163,45.6488314 L19.0323488,45.6488314 Z" id="Fill-6" fill="#F2F2F2"></path>
                <path d="M29.4551453,45.8833314 C26.7275872,45.8833314 25.3634012,44.4646105 25.3634012,41.6271686 L25.3634012,39.0363547 L28.306657,39.0363547 L28.306657,41.2991453 C28.306657,42.2526919 28.4897965,42.8428081 28.8572965,43.0694942 C28.9981105,43.1553663 29.2207267,43.1985058 29.5259593,43.1985058 L29.5959593,43.1985058 C30.28375,43.1985058 30.6276453,42.5225174 30.6276453,41.1701337 L30.6276453,35.8940872 C30.6276453,35.1436221 30.5495058,34.5828081 30.3932267,34.2116453 C30.2369477,33.8404826 29.9321221,33.6549012 29.479157,33.6549012 C28.6660174,33.6549012 28.2594477,34.323157 28.2594477,35.6596686 L25.4928198,35.5424593 L25.4928198,25.0139709 L33.1252616,25.0139709 L33.1252616,27.8278081 L28.3884593,27.8278081 L28.3884593,32.013157 C28.5365988,31.7242035 28.8043895,31.4897849 29.1918314,31.3099012 C29.5784593,31.1304244 30.0025291,31.0400756 30.4640407,31.0400756 C31.6674709,31.0400756 32.5034012,31.5699593 32.9726453,32.6289128 C33.4414826,33.6882733 33.6759012,35.3686802 33.6759012,37.6701337 C33.6759012,39.9724012 33.5961337,41.5705988 33.4357849,42.4659477 C33.275436,43.3608895 33.0389826,44.0425756 32.7264244,44.5114128 C32.1245058,45.4258895 31.0342151,45.8833314 29.4551453,45.8833314" id="Fill-8" fill="#F2F2F2"></path>
                <path d="M49.6227558,43.2276453 C49.7664186,43.5365407 50.0240349,43.6907849 50.3964186,43.6907849 C50.7683953,43.6907849 51.0264186,43.5345058 51.1704884,43.2219477 C51.3137442,42.9093895 51.3857791,42.3974128 51.3857791,41.6860174 L51.3857791,35.9175291 C51.3857791,35.2142733 51.316593,34.7197965 51.1790349,34.4345058 C51.0410698,34.1492151 50.7806047,34.0063663 50.3964186,34.0063663 C50.0122326,34.0063663 49.7513605,34.1492151 49.6142093,34.4345058 C49.4762442,34.7197965 49.4074651,35.2142733 49.4074651,35.9175291 L49.4074651,41.6860174 C49.4074651,42.4051453 49.478686,42.919157 49.6227558,43.2276453 L49.6227558,43.2276453 Z M52.665314,44.6935756 C52.192814,45.4945058 51.4370581,45.8949709 50.3964186,45.8949709 C49.3557791,45.8949709 48.5996163,45.4945058 48.1275233,44.6935756 C47.6558372,43.8922384 47.4197907,42.6318314 47.4197907,40.9123547 L47.4197907,36.7147965 C47.4197907,34.9717151 47.6472907,33.7194477 48.1014767,32.9571802 C48.5556628,32.1953198 49.3191512,31.8139826 50.3923488,31.8139826 C51.4647326,31.8139826 52.2298488,32.1953198 52.6868837,32.9571802 C53.1443256,33.7194477 53.3730465,34.9717151 53.3730465,36.7147965 L53.3730465,40.9123547 C53.3730465,42.6318314 53.137,43.8922384 52.665314,44.6935756 L52.665314,44.6935756 Z M40.904093,45.64875 L46.9273488,25.0020058 L48.7213023,25.0020058 L42.777,45.64875 L40.904093,45.64875 Z M38.4288605,36.181657 C38.5725233,36.4901453 38.8289186,36.6443895 39.1980465,36.6443895 C39.5675814,36.6443895 39.8239767,36.4901453 39.9672326,36.181657 C40.1113023,35.8727616 40.1829302,35.35875 40.1829302,34.6396221 L40.1829302,28.8711337 C40.1829302,28.1678779 40.1157791,27.6734012 39.9810698,27.3881105 C39.8459535,27.1028198 39.5863023,26.9599709 39.2025233,26.9599709 C38.8183372,26.9599709 38.5578721,27.1028198 38.419907,27.3881105 C38.2823488,27.6734012 38.2131628,28.1678779 38.2131628,28.8711337 L38.2131628,34.6396221 C38.2131628,35.35875 38.2851977,35.8727616 38.4288605,36.181657 L38.4288605,36.181657 Z M41.4624651,37.6467733 C40.9903721,38.4481105 40.2358372,38.8485756 39.1980465,38.8485756 C38.1606628,38.8485756 37.405314,38.4481105 36.9336279,37.6467733 C36.4619419,36.845843 36.2258953,35.585436 36.2258953,33.8659593 L36.2258953,29.6684012 C36.2258953,27.9253198 36.4533953,26.6726453 36.9075814,25.9107849 C37.3617674,25.1485174 38.1252558,24.7675872 39.1980465,24.7675872 C40.2708372,24.7675872 41.0343256,25.1485174 41.4889186,25.9107849 C41.9431047,26.6726453 42.1701977,27.9253198 42.1701977,29.6684012 L42.1701977,33.8659593 C42.1701977,35.585436 41.9341512,36.845843 41.4624651,37.6467733 L41.4624651,37.6467733 Z" id="Fill-10" fill="#F2F2F2"></path>
            </g>
        </g>
    </g>
</svg>