<?xml version="1.0" encoding="UTF-8"?>
<svg width="81px" height="54px" viewBox="0 0 81 54" version="1.1" xmlns="http://www.w3.org/2000/svg" xmlns:xlink="http://www.w3.org/1999/xlink">
    <!-- Generator: Sketch 61.2 (89653) - https://sketch.com -->
    <title>Premium protein - salmon black</title>
    <desc>Created with Sketch.</desc>
    <defs>
        <polygon id="path-1" points="0 0 81 0 81 54 0 54"></polygon>
    </defs>
    <g id="Page-1" stroke="none" stroke-width="1" fill="none" fill-rule="evenodd">
        <g id="Premium-protein---salmon-black">
            <mask id="mask-2" fill="white">
                <use xlink:href="#path-1"></use>
            </mask>
            <g id="Clip-2"></g>
            <path d="M50.3388668,45.6817545 C50.924173,45.4433956 51.5001187,45.1642095 52.0661533,44.8625083 C53.1018645,44.3101401 54.1006844,43.686024 55.0425153,43.1063376 C57.2796736,41.7305203 61.7314147,38.6723816 62.2572543,35.3341561 C63.7764075,36.2236491 65.1515743,37.0431955 66.3070448,37.7318546 L66.4094596,37.7951968 C66.5936411,37.9044696 66.7530448,37.9984323 66.9196066,38.0968979 C66.6420954,40.7845897 65.7401842,43.0739159 63.9699495,45.1212809 C63.3260025,45.8651768 62.4260185,46.9567045 61.4225184,47.9461641 C61.200069,48.1644096 60.972664,48.3772515 60.7414047,48.5807872 C58.2377477,47.9311541 55.4675919,47.201968 52.6297102,46.4352568 C51.805436,46.2131087 50.9773076,45.9891594 50.1461507,45.7601067 C50.2102976,45.7357905 50.2741692,45.7087725 50.3388668,45.6817545 M22.3531901,17.2377919 C21.9113197,17.8505003 21.4675221,18.4956304 21.0897986,19.1779853 C20.8087085,19.1644763 20.5256912,19.1521681 20.2457023,19.1386591 C19.4473071,19.1023349 18.6599243,19.0675117 17.8774971,19.0281855 C18.9121071,17.3746831 20.5072455,15.8760841 21.5798481,14.5975317 C24.6894595,10.8921614 27.9012104,6.76140761 31.4689354,3.34212809 C32.5508985,3.20073382 33.6138652,3.06654436 34.6892209,2.95276851 C30.1810414,7.23842562 25.9748756,12.2109406 22.3531901,17.2377919 M38.3018212,21.067445 C36.4121025,20.6387592 34.5342221,20.3247498 32.6676293,20.0767845 C31.7525033,16.0006671 37.3935779,13.5828552 39.9451386,11.627952 C43.0175834,9.27498332 45.6192503,6.45880587 47.9778196,3.35293529 C48.7698827,3.48262175 49.5792901,3.62521681 50.4206334,3.79242829 C50.6868569,3.84496331 50.9445458,3.90980654 51.2063644,3.96894596 C46.6131146,9.33082055 42.6271957,15.5014343 38.3018212,21.067445 M52.0895546,16.2708472 C50.596005,18.836958 48.6974765,21.9236157 46.4011269,23.9688793 C43.9841921,22.8893596 41.6845388,21.9971648 39.6557892,21.4177785 C39.7166324,21.3328219 39.7683905,21.2454636 39.8350152,21.1602068 C41.6198413,18.8825884 43.3884241,16.5902602 45.1344317,14.2775183 C47.5976184,11.0134423 49.9594914,7.49869913 52.5746484,4.30577051 C53.8986078,4.66420947 55.1757647,5.09169446 56.4030908,5.58642428 C55.7208759,9.41847899 54.0090066,12.9785524 52.0895546,16.2708472 M51.8214039,26.58002 C50.3520816,25.8286191 48.8811074,25.1063376 47.4406924,24.4419947 C52.1052472,20.0701801 56.4944932,13.1064376 57.8228576,6.19462975 C59.1509466,6.79382922 60.4212208,7.46147432 61.6474456,8.17114743 C60.4297553,15.226451 56.6282933,21.4204803 51.8214039,26.58002 M66.1605806,11.0779853 C66.0543114,17.17505 63.4454865,22.959006 59.6798145,27.437992 C59.0000774,28.247932 58.2063625,28.897565 57.4462353,29.5862241 C55.9879253,28.7762842 54.483914,27.9636424 52.9686151,27.1726151 C55.0906944,24.1862241 57.6381255,21.5618746 59.5239898,18.3005003 C61.256232,15.3084056 62.4395086,12.2493662 63.0658358,9.02281521 C64.1304544,9.6844563 65.1587323,10.3761174 66.1605806,11.0779853 M70.5864427,14.335457 C70.8837761,17.9435624 70.1855933,21.4411941 68.7349919,24.8322548 C67.5616264,27.5754837 65.3319015,31.1832889 62.5232024,32.4786524 C61.2840381,31.7557705 59.9628318,30.9971648 58.587665,30.2238492 C58.6267589,30.1926284 58.6622737,30.1563042 58.7021934,30.1265844 C63.7733791,26.2182789 67.1979436,19.0041694 67.6329313,12.1292862 C68.64414,12.8677785 69.6256154,13.6077718 70.5864427,14.335457 M16.8437131,34.7829887 C16.68486,34.299066 16.5527118,33.8058372 16.449471,33.2978986 C15.686866,29.5471981 16.3277846,25.209006 16.873997,21.6351234 C17.9559601,21.6918612 19.0525145,21.7410941 20.1661381,21.7909273 C20.24818,21.7951301 20.3310479,21.7990327 20.4130899,21.8032355 C20.4794393,22.6615077 20.6671998,23.6386591 20.6925282,24.2183456 C20.8458752,27.8165444 21.0143641,32.2303869 23.4714939,34.9580053 C25.0121212,36.6685457 27.9328709,36.6724483 29.9294093,36.1873249 C32.7920688,35.4890594 34.3839036,33.691461 35.5790185,31.3988326 C35.1657802,33.9730487 34.8684468,36.5697799 34.6682974,39.1752168 C34.6330579,39.624016 34.6027739,40.075517 34.5735912,40.525517 C34.5606517,40.7263509 34.5438579,40.9256838 34.531469,41.1265177 C29.8206624,39.532455 23.4599309,37.2263175 17.6074193,35.0660774 C17.3511069,34.9703135 17.096997,34.8760507 16.8437131,34.7829887 M14.8389153,32.7668446 C14.9187549,33.2357572 15.0156635,33.6980654 15.1373499,34.1495664 C12.777404,33.2735824 10.5619952,32.4447298 8.64502095,31.7251501 C8.66291601,31.4018346 8.68631725,31.077018 8.71494935,30.7452969 C8.98227406,27.556571 9.69009265,24.0274183 10.8480409,21.1899266 C12.3355336,21.3451301 13.8389943,21.4595063 15.3686092,21.550467 C14.7733919,25.0754169 14.2241511,29.1455304 14.8389153,32.7668446 M37.8772952,27.3065043 C38.6715607,30.9137091 40.4530831,34.2762508 44.0802748,34.7316544 C47.5684356,35.1711474 49.7846704,32.4417278 51.4827743,29.4610407 C51.5014953,29.4283189 51.5229693,29.3988993 51.5422409,29.3649767 C52.9209867,30.0806538 54.2953276,30.8206471 55.6388339,31.5606404 C54.5442066,32.9823883 53.4330609,34.3774183 52.2233546,35.6871915 C50.3160161,37.7546698 48.111069,39.533956 45.5193132,40.4015344 C42.0980524,41.5473983 39.9944189,39.1791194 38.9174114,36.0213142 C38.0719385,33.5443629 37.6807248,30.3262175 37.8772952,27.3065043 M29.8553513,31.9460974 C31.6770687,31.9460974 33.4792393,31.0121748 34.9906839,29.6051368 C34.5810246,30.542962 34.151543,31.4540694 33.7231628,32.2937292 C32.4311392,34.8262175 29.6711698,35.9030354 27.1441115,35.7598399 C24.8527175,35.6307538 23.7495557,33.4053702 23.113868,31.3153769 C22.2221432,28.3761174 22.2694963,25.1348566 22.1200037,22.0794196 C22.1169753,22.0106738 22.119453,21.9461308 22.1183518,21.8785857 C23.5290334,21.9461308 24.9518286,22.021481 26.3815065,22.1199466 C26.286525,22.8017011 26.1287732,23.4918612 25.892283,24.278986 C24.9867928,27.2767845 26.6157942,31.9460974 29.8553513,31.9460974 M31.7519527,26.9756838 C33.1015158,27.1528019 34.7572221,26.5701134 36.1505593,25.606471 C33.8566875,29.7492328 28.9344438,33.8568712 27.5025634,27.939026 C27.034814,26.005437 27.3605041,24.2588726 28.0262005,22.4363576 C28.0490511,22.3745163 28.0639178,22.3138759 28.0823635,22.2520347 C28.7565944,22.3072715 29.4324772,22.3721147 30.1105624,22.4420614 C29.5302118,23.1571381 29.2923451,23.7632422 29.3157463,24.8637759 C29.3479574,26.3281521 30.6859575,26.8381921 31.7519527,26.9756838 M34.755295,25.2492328 C33.7209603,26.0012342 31.6492626,27.2371581 30.8368267,24.8622748 C30.5469267,24.0148099 30.9590637,23.2384923 31.5424428,22.6023682 C33.2617454,22.8119079 34.9882061,23.0874917 36.7174198,23.442028 C36.1822198,24.1604069 35.4746765,24.7247832 34.755295,25.2492328 M40.7250881,25.9459973 C40.4247263,25.3921281 40.1750214,24.8151434 39.9143041,24.2480654 C41.4629153,24.7403936 43.1618451,25.4035357 44.9419909,26.1831554 C44.4205563,27.969046 41.693624,27.7303869 40.7250881,25.9459973 M46.2494318,26.7694463 C47.5618282,27.370447 48.9072617,28.0242829 50.2587519,28.7090394 C49.3816185,30.1602068 48.6303012,31.7251501 47.4511541,32.9637759 C43.1406463,37.4946965 40.4142646,31.1319546 39.3499213,26.1543362 C40.0538856,27.4445964 40.9312943,28.4730821 42.6456414,28.6021681 C43.7110859,28.6820213 44.6776946,28.2209139 45.5479453,27.6064043 C45.8862997,27.3650434 46.0958096,27.076551 46.2494318,26.7694463 M7.29518255,20.7264176 C7.98428014,20.8380921 8.67585552,20.9326551 9.36990867,21.0203135 C8.74495799,22.593062 8.45202957,24.5134423 8.06714805,26.056471 C7.72108506,27.4433956 7.45155787,28.8504336 7.27673687,30.2706805 C7.2395702,30.56998 7.19634674,30.8692795 7.16854056,31.1697799 C5.04398358,30.3691461 3.41856121,29.7531354 2.59015743,29.4379253 C3.01385746,27.1170781 4.29486869,22.5834556 6.61104051,21.0782522 C6.83128745,20.9350567 7.05676524,20.8098732 7.29518255,20.7264176 M48.8824839,45.4136758 C44.119644,44.096998 39.4204003,42.7316878 35.7260333,41.5227819 C35.737321,41.3180454 35.7508111,41.1145097 35.7632,40.9097732 C35.7904555,40.459473 35.8232173,40.0082722 35.8565296,39.5567712 C36.0263951,37.2305203 36.2730716,34.9081721 36.6092235,32.6026351 C36.8768235,34.3383923 37.3137384,36.0042028 37.8960162,37.4715811 C39.7703176,42.1940294 44.5928996,42.1643095 48.3533406,40.3096731 C50.8969174,39.0566378 53.0313855,36.7841227 54.9089906,34.592962 C55.5545895,33.8382588 56.1393451,32.9904937 56.7590649,32.1832555 C58.156807,32.9649767 59.5099491,33.7370914 60.783527,34.4755837 C60.9784455,38.1401268 55.4304252,42.4377919 51.0497137,44.5280854 C50.3964063,44.8408939 49.770905,45.1008672 49.1913802,45.3059039 C49.0886901,45.3422282 48.9829716,45.3800534 48.8824839,45.4136758 M62.5485308,48.3193129 C63.2725926,47.6390594 63.9523297,46.9068712 64.5915965,46.2317211 C66.0457768,44.6952969 67.1775708,43.1252502 67.9151227,41.043062 C68.1510622,40.3721147 68.2771536,39.6672448 68.3685561,38.9569713 C69.2473413,39.4742161 69.6837056,39.7182789 69.9369895,39.8329553 C70.4892587,40.6479987 70.8287143,44.7049033 70.4350229,50.9232488 C70.4319945,50.9637759 70.4303427,51.0001001 70.4275896,51.0406271 C68.9668018,50.6791861 65.8373682,49.8962642 61.9191752,48.8854903 C62.1330901,48.7008672 62.3434259,48.5120414 62.5485308,48.3193129 M75.4332518,17.9201468 C75.0836098,24.5593729 73.6288788,32.6239493 68.44344,35.9822882 C68.1546412,35.8099733 67.862814,35.6373582 67.5775943,35.4662442 L67.4669202,35.4002001 C66.3199843,34.7169446 64.9616113,33.9070047 63.4598025,33.0271181 C69.2065957,30.6831554 72.1419367,22.2262175 72.0987132,15.4816211 C73.22858,16.3341895 74.336422,17.1549366 75.4332518,17.9201468 M46.5550244,3.13859239 C43.8828785,6.67254837 40.8930264,9.85286858 37.2729927,12.3085057 C34.8417419,13.9566044 30.5400439,16.1966978 31.0813008,19.8774516 C30.0863353,19.765477 29.0957747,19.6736157 28.109619,19.5928619 C27.9978437,18.6886591 27.9493894,17.7883589 28.5630524,16.7976985 C30.0783513,14.3546698 33.0825195,12.2907939 35.0785073,10.3584056 C37.735236,7.78809206 40.4117868,5.23969313 43.1522093,2.77625083 C44.253444,2.85580387 45.3822095,2.97558372 46.5550244,3.13859239 M39.9178831,2.65346898 C40.4745572,2.65346898 41.0364622,2.66847899 41.6027721,2.6900934 C38.107178,5.839493 34.7101443,9.12278185 31.3304551,12.4150767 C29.9065587,13.8032021 28.4402647,15.1562041 27.0973091,16.6373916 C26.4602448,17.3410607 26.3688423,18.3068045 26.4404226,19.2344229 C26.4464794,19.313976 26.4489572,19.3893262 26.4539127,19.4676785 C25.1847398,19.381521 23.9213483,19.3112742 22.667042,19.2512342 C23.2768507,17.8937292 24.2996224,16.72505 25.285778,15.4501001 C28.6927228,11.0428619 32.4699577,6.61430954 36.5302099,2.78555704 C37.6135495,2.7021014 38.7313027,2.65346898 39.9178831,2.65346898 M29.6378574,3.57538359 C26.2229287,6.92981988 23.1347914,10.882555 20.1135541,14.4609406 C19.2556923,15.4756171 17.1903267,17.3098399 16.1645266,18.9387258 C14.8155141,18.863976 13.4843967,18.7763175 12.175304,18.6574383 C13.4565905,16.7769847 15.2474734,15.1138759 16.6966982,13.554036 C19.5893664,10.4367578 22.7603716,6.79803202 26.2229287,3.94613075 C27.4205214,3.83955971 28.5470845,3.71137425 29.6378574,3.57538359 M24.5116101,4.07671781 C20.9725171,7.03098732 17.7403934,10.7855904 14.7692622,13.9863242 C13.4331893,15.4272849 12.0365484,16.9057705 10.8461137,18.5241494 C10.2258433,18.4581054 9.60722474,18.3845564 8.99411234,18.3005003 C15.5170006,11.0536691 20.4835689,6.0787525 23.1213013,4.15296865 C23.5984112,4.13195464 24.058452,4.10493662 24.5116101,4.07671781 M78.1301755,29.6765844 C78.1202644,29.7168112 78.1117298,29.7546364 78.1042965,29.7936624 C77.2618519,34.5335223 74.9255826,41.0322548 73.0515565,45.7922282 C73.0424713,39.038926 71.8250564,38.0389593 71.3396872,37.6441961 L71.2502119,37.5766511 C71.1508255,37.4985991 71.0393254,37.4394596 70.9234205,37.3989326 L70.8639538,37.3788192 C70.694639,37.3058706 70.0966686,36.9594396 69.358566,36.5241494 C69.7552858,36.2440627 70.2175291,36.0243162 70.6186538,35.7115077 C75.0602085,32.2465977 76.4838297,25.102435 76.8967927,18.9057038 C77.3898705,19.2257171 77.8829483,19.5349233 78.3749249,19.824016 C78.7989002,24.4488993 78.4305372,28.5430287 78.1301755,29.6765844 M80.7233078,18.8213476 C80.67623,18.3815544 80.4303794,17.9957972 80.0680732,17.7949633 C79.0673262,17.2371915 78.057494,16.5890594 77.0314186,15.8826885 C76.5333852,15.5404603 76.0328741,15.1844229 75.527132,14.8166778 C74.4938986,14.0661775 73.4446973,13.2715477 72.3693416,12.4553035 C72.1722206,12.3058039 71.9726218,12.1542028 71.7727477,12.0038025 C71.4710094,11.7756504 71.1678946,11.5462975 70.861476,11.3166444 C69.8108982,10.5256171 68.7327894,9.72768512 67.6172387,8.94206137 C67.338351,8.74513009 67.0567103,8.55 66.7742436,8.35426951 C65.7063213,7.62118079 64.6026088,6.90550367 63.4611791,6.22104736 C62.9760852,5.93135424 62.4846592,5.64706471 61.9844234,5.36937959 C60.764806,4.69272849 59.4981108,4.060507 58.1782811,3.48772515 C57.6923613,3.27878586 57.1992834,3.07675117 56.6987723,2.88522348 C55.976913,2.60783856 55.240187,2.34876584 54.4850153,2.11250834 C54.0646189,1.98252168 53.6381658,1.86034023 53.208409,1.74326217 C52.4394719,1.53372248 51.660899,1.340994 50.8561717,1.18188793 C50.4657841,1.10503669 50.0861334,1.03478986 49.7067581,0.965443629 C49.2304741,0.878685791 48.7624493,0.799132755 48.3015826,0.723482322 C45.2894305,0.234156104 42.5740611,0 39.9173325,0 C38.0801977,0 36.4176087,0.11317545 34.8009962,0.276184123 C34.2564356,0.330820547 33.7151788,0.390260173 33.1769504,0.455403602 C32.4619738,0.54036024 31.7483737,0.633122081 31.0240366,0.727685123 C30.7589143,0.761907939 30.4918649,0.796130754 30.2242649,0.830053369 C29.8008402,0.885290193 29.3741117,0.937825217 28.9407759,0.99036024 C27.0361905,1.22151434 25.0184533,1.42655103 22.6959494,1.51480987 C22.4790062,1.52261508 22.2689457,1.59376251 22.0861407,1.72104736 C18.4003083,4.2709473 11.2805508,11.9224483 5.95690712,17.8937292 C5.61552437,18.2767845 5.29864409,18.6589393 4.99993419,19.0404937 C1.34355978,21.7951301 0.225531282,28.6820213 0.0964115174,29.5619079 L0.0154707692,30.1091728 C-0.077858869,30.7437959 0.258843631,31.3610073 0.815793065,31.5726484 L1.37191657,31.7857905 C4.95313172,33.1495997 23.351184,40.128052 33.9153282,43.6953302 C34.0725295,43.7493662 34.2393665,43.8031021 34.4004221,43.8556371 C34.694727,43.9556037 34.992611,44.0525684 35.2993049,44.1534356 C41.3382005,46.1158439 49.8835062,48.4610073 57.084755,50.3543696 C57.6125217,50.493062 58.1312033,50.6281521 58.6427268,50.762942 C64.6667557,52.3353903 69.4772241,53.5283856 70.5845155,53.8006671 L71.2664551,53.9678786 C71.3540033,53.9891928 71.4434786,54 71.5324033,54 L71.5332292,54 C71.6551909,54 71.7755008,53.9756838 71.8897539,53.9366578 C71.925544,53.9258506 71.9563786,53.9045364 71.9910675,53.8880254 C72.0684292,53.8544029 72.1449651,53.8168779 72.2148935,53.7628419 C72.2272823,53.7535357 72.242149,53.7505337 72.2539873,53.7412275 C72.3057453,53.6994997 72.3495194,53.6496664 72.3941194,53.5998332 C72.4089861,53.5848232 72.4257799,53.5728152 72.4384441,53.5563042 C72.5053441,53.4743496 72.5628836,53.3800867 72.6102367,53.2789193 C72.6151923,53.2681121 72.6226256,53.2627085 72.6264799,53.2519013 C72.8836182,52.6752168 78.9216879,39.0497332 80.4821374,30.3556371 C80.9876041,28.3707138 81.2227177,23.440527 80.7233078,18.8213476" id="Fill-1" fill="#000000" mask="url(#mask-2)"></path>
        </g>
    </g>
</svg>