<?xml version="1.0" encoding="UTF-8"?>
<svg width="70px" height="69px" viewBox="0 0 70 69" version="1.1" xmlns="http://www.w3.org/2000/svg" xmlns:xlink="http://www.w3.org/1999/xlink">
    <!-- Generator: Sketch 61.2 (89653) - https://sketch.com -->
    <title>protein plus protein icon</title>
    <desc>Created with Sketch.</desc>
    <defs>
        <polygon id="path-1" points="0 0.146876952 69.8489302 0.146876952 69.8489302 68.0938967 0 68.0938967"></polygon>
        <polygon id="path-3" points="0.0599005556 0.146876952 67.9827506 0.146876952 67.9827506 68.0938967 0.0599005556 68.0938967"></polygon>
    </defs>
    <g id="Page-1" stroke="none" stroke-width="1" fill="none" fill-rule="evenodd">
        <g id="Meal-Plan---desktop" transform="translate(-609.000000, -1049.000000)">
            <g id="protein-plus-protein-icon" transform="translate(609.000000, 1049.000000)">
                <g id="Group-3">
                    <mask id="mask-2" fill="white">
                        <use xlink:href="#path-1"></use>
                    </mask>
                    <g id="Clip-2"></g>
                    <path d="M-8.13953488e-05,34.1201889 C-8.13953488e-05,52.8836205 15.6363721,68.0938967 34.9246279,68.0938967 C54.2128837,68.0938967 69.8489302,52.8836205 69.8489302,34.1201889 C69.8489302,15.3571532 54.2128837,0.146876952 34.9246279,0.146876952 C15.6363721,0.146876952 -8.13953488e-05,15.3571532 -8.13953488e-05,34.1201889" id="Fill-1" fill="#000000" mask="url(#mask-2)"></path>
                </g>
                <g id="Group-6" transform="translate(1.866667, 0.000000)">
                    <mask id="mask-4" fill="white">
                        <use xlink:href="#path-3"></use>
                    </mask>
                    <g id="Clip-5"></g>
                    <path d="M33.1804061,34.1201889 L0.0599005556,44.5551827 C4.68647833,58.5480825 18.1176672,68.0938967 33.1804061,68.0938967 C52.272745,68.0938967 67.9827506,52.757726 67.9827506,34.1201889 C67.9827506,15.4830477 52.272745,0.146876952 33.1804061,0.146876952 L33.1735117,0.146876952 L33.1804061,34.1201889 Z" id="Fill-4" fill="#D0021B" mask="url(#mask-4)"></path>
                </g>
                <path d="M19.6898518,43.8666667 L16.1825032,43.8666667 C16.3747152,41.2068056 16.7891594,38.7684647 17.4254188,36.5520489 C18.0625121,34.335228 18.6349788,32.5112308 19.1432358,31.0800571 C19.6514928,29.6492883 20.011734,28.6396913 20.2243764,28.0524808 C20.4366019,27.4652703 20.6046311,27.0064362 20.7288809,26.6759784 C20.8527139,26.3451157 20.9227608,26.1450591 20.9390217,26.0749988 L14.9333333,26.0749988 L14.9333333,23.3333333 L24.2666667,23.3333333 L24.2666667,25.6084702 C24.2262229,25.9737557 24.0978036,26.4463589 23.8822426,27.0258749 C23.6654307,27.6053909 23.3814906,28.3424413 23.0291713,29.2366211 C21.1149728,34.0898145 20.0021443,38.9664964 19.6898518,43.8666667" id="Fill-7" fill="#F2F2F2"></path>
                <path d="M51.3923022,41.2743398 C51.5330564,41.5745497 51.7854572,41.7244569 52.1503018,41.7244569 C52.5147477,41.7244569 52.7675472,41.5725721 52.9087002,41.2684068 C53.0490558,40.9650325 53.1196323,40.4674513 53.1196323,39.7760587 L53.1196323,34.1697661 C53.1196323,33.4862841 53.0518469,33.0057108 52.9170737,32.7284418 C52.7819018,32.4507773 52.5267099,32.3123405 52.1503018,32.3123405 C51.7738938,32.3123405 51.5183032,32.4507773 51.3839287,32.7284418 C51.2487567,33.0057108 51.1813701,33.4862841 51.1813701,34.1697661 L51.1813701,39.7760587 C51.1813701,40.4749665 51.2511491,40.9741298 51.3923022,41.2743398 L51.3923022,41.2743398 Z M54.3732624,42.6990516 C53.9103284,43.4774617 53.1698732,43.8666667 52.1503018,43.8666667 C51.1307305,43.8666667 50.3898765,43.4774617 49.9273412,42.6990516 C49.4652046,41.9202461 49.233937,40.6952786 49.233937,39.0241494 L49.233937,34.9446163 C49.233937,33.2505461 49.4568311,32.0334894 49.901822,31.292655 C50.3468129,30.5522162 51.0948441,30.1816013 52.1463144,30.1816013 C53.1969873,30.1816013 53.9466135,30.5522162 54.3943955,31.292655 C54.8425763,32.0334894 55.0666667,33.2505461 55.0666667,34.9446163 L55.0666667,39.0241494 C55.0666667,40.6952786 54.835399,41.9202461 54.3732624,42.6990516 L54.3732624,42.6990516 Z M42.8501523,43.6273689 L48.7514648,23.5611607 L50.509099,23.5611607 L44.6851415,43.6273689 L42.8501523,43.6273689 Z M40.4250318,34.4264674 C40.5657861,34.7262818 40.8169906,34.876189 41.1786454,34.876189 C41.5406989,34.876189 41.7919034,34.7262818 41.932259,34.4264674 C42.073412,34.1262574 42.1435897,33.6266985 42.1435897,32.9273952 L42.1435897,27.3214981 C42.1435897,26.6376206 42.0777981,26.1574429 41.945816,25.8801739 C41.8134352,25.6029049 41.5590408,25.4640726 41.1830315,25.4640726 C40.8066235,25.4640726 40.5514316,25.6029049 40.4162596,25.8801739 C40.2814864,26.1574429 40.2137011,26.6376206 40.2137011,27.3214981 L40.2137011,32.9273952 C40.2137011,33.6266985 40.2842776,34.1262574 40.4250318,34.4264674 L40.4250318,34.4264674 Z M43.3972199,35.8503881 C42.9346846,36.6291937 42.1954256,37.0183987 41.1786454,37.0183987 C40.1622639,37.0183987 39.4222075,36.6291937 38.9600709,35.8503881 C38.4979343,35.0715826 38.2666667,33.8470107 38.2666667,32.1754859 L38.2666667,28.0963484 C38.2666667,26.4022782 38.4895608,25.1848259 38.9345517,24.4443871 C39.3795426,23.7035527 40.1275738,23.3333333 41.1786454,23.3333333 C42.229717,23.3333333 42.9777482,23.7035527 43.4231378,24.4443871 C43.8681287,25.1848259 44.0906241,26.4022782 44.0906241,28.0963484 L44.0906241,32.1754859 C44.0906241,33.8470107 43.8593565,35.0715826 43.3972199,35.8503881 L43.3972199,35.8503881 Z" id="Fill-9" fill="#F2F2F2"></path>
                <path d="M29.1598505,43.8666667 L29.1598505,27.2160162 C28.9421994,27.5345476 28.634888,27.7818445 28.2379163,27.9562879 C27.8409447,28.1315409 27.4506392,28.218965 27.0666667,28.218965 L27.0666667,25.8981787 C27.6106278,25.8050882 28.1275909,25.5371495 28.6172226,25.0939578 C29.1071876,24.6507661 29.4798276,24.0638913 29.7361427,23.3333333 L31.7333333,23.3333333 L31.7333333,43.8666667 L29.1598505,43.8666667 Z" id="Fill-11" fill="#F2F2F2"></path>
            </g>
        </g>
    </g>
</svg>