<?xml version="1.0" encoding="UTF-8"?>
<svg width="70px" height="69px" viewBox="0 0 70 69" version="1.1" xmlns="http://www.w3.org/2000/svg" xmlns:xlink="http://www.w3.org/1999/xlink">
    <!-- Generator: Sketch 61.2 (89653) - https://sketch.com -->
    <title>Running1</title>
    <desc>Created with Sketch.</desc>
    <defs>
        <polygon id="path-1" points="3.67439909e-06 0.0870834031 68.9129922 0.0870834031 68.9129922 69 3.67439909e-06 69"></polygon>
    </defs>
    <g id="Page-1" stroke="none" stroke-width="1" fill="none" fill-rule="evenodd">
        <g id="Meal-Plan---desktop" transform="translate(-461.000000, -1086.000000)">
            <g id="Running1" transform="translate(461.000000, 1086.000000)">
                <g id="Group-3" transform="translate(0.575000, 0.000000)">
                    <mask id="mask-2" fill="white">
                        <use xlink:href="#path-1"></use>
                    </mask>
                    <g id="Clip-2"></g>
                    <path d="M34.8998791,38.1592822 L41.5122899,39.6639101 L38.1000884,40.5043907 L31.8248326,44.1521194 L34.8998791,38.1592822 Z M68.8309411,32.1853442 C68.6458713,29.4902434 68.1553829,26.8891039 67.3962047,24.4127705 L67.3111581,24.4742822 L64.2446698,26.3645612 C64.784724,28.3334682 65.132755,30.3637085 65.2744992,32.4292512 C65.8391581,40.6611116 63.1643829,48.6201814 57.7431581,54.8403442 C52.3215767,61.0601504 44.802538,64.7966698 36.5706775,65.361507 C35.1512744,65.4588558 33.717786,65.459569 32.3099721,65.3634682 C26.4868713,64.9662279 20.9190884,62.9094217 16.2352899,59.4847395 L27.7099721,50.0094527 L29.3941426,56.1836155 L30.7199411,56.3726078 L33.2494062,47.7624062 L46.8639798,43.4770961 L50.9116233,40.5068868 L48.6201814,35.9944295 L39.2893132,29.5720806 L48.3778791,22.7524915 L49.081786,25.7501581 L52.8298946,31.0622667 L57.6342202,28.6326465 L66.549662,22.260755 L68.9117085,20.2959488 L67.2102434,16.6721116 L65.2853752,17.7928713 L65.0598326,16.1527395 L64.4334837,17.5480729 C63.7060419,16.2672047 62.9012202,15.0378636 62.0222279,13.8684295 L61.4991116,15.4434837 L60.5751891,15.4146 L59.5300264,16.4993442 C60.6728946,18.0867008 61.6579721,19.7760419 62.4772357,21.5424062 L54.7795457,24.7502822 L52.4836465,16.1538093 L54.6941426,14.5803597 L57.5368713,15.6750884 L59.2121271,13.6806853 L60.1358713,13.646631 L60.620476,11.769724 L62.1391891,8.63655349 L59.8570186,4.86580155 L57.1053984,3.75877054 L54.066724,5.29032093 L53.7716465,6.01241395 C48.8562434,2.67955349 43.055786,0.590654264 36.845786,0.167204651 C35.2871349,0.0607627907 33.7008481,0.0593364341 32.0983364,0.169165891 C13.1140651,1.47160775 -1.22010543,17.9173209 0.0821581395,36.9015922 C0.602956589,44.4928403 3.54517364,51.3404217 8.10220465,56.7420341 L8.10024341,56.7138636 L11.5334837,55.2495302 C6.90317364,50.1273054 4.11393333,43.5887085 3.63842171,36.6576853 C3.07376279,28.4258248 5.74853798,20.4669333 11.1699411,14.2469488 C16.5913442,8.02678605 24.1105612,4.29026667 32.3424217,3.72560775 C33.7611116,3.62825891 35.1947783,3.62754574 36.6041969,3.72364651 L36.6049101,3.72364651 C42.221724,4.10697984 47.6012279,6.03470078 52.1787628,9.24507287 L49.2718481,11.3170341 L45.0699798,8.73318915 L41.3252589,8.50532868 L39.7707085,7.32644496 L33.690507,7.30915039 L30.5926388,7.73491783 L22.5474527,14.0397705 L20.8538326,14.5511194 L17.8903984,16.6294992 L17.3334062,18.6556388 L19.663538,20.7489953 L22.0517938,19.2137008 L22.2648558,20.762724 L23.8343829,16.6480419 L33.1322667,12.027538 L38.9790806,14.3979643 L27.7033752,29.0298868 L27.2012977,34.8323054 L23.4014837,45.6815302 L18.8036233,49.3772202 L13.6616078,56.4230651 L9.6710186,58.4570496 L10.5227318,64.6526078 L13.3483442,68.9987163 L16.5373209,68.5602899 L17.8037473,67.6433209 L15.6556543,65.5250031 L15.7093209,63.4519721 C20.5009876,66.5648171 26.0949798,68.5123287 32.0671349,68.9199101 C33.625786,69.0263519 35.2120729,69.0277783 36.8145845,68.9179488 C55.7990341,67.615507 70.1332047,51.1697938 68.8309411,32.1853442 L68.8309411,32.1853442 Z" id="Fill-1" fill="#FEFEFE" mask="url(#mask-2)"></path>
                </g>
                <polygon id="Fill-4" fill="#FEFEFE" points="24.575 33.5848588 24.575 32 7.575 33.3946933 24.1003425 35"></polygon>
                <polygon id="Fill-6" fill="#FEFEFE" points="23.575 38 8.575 39.3945084 22.5102642 41"></polygon>
            </g>
        </g>
    </g>
</svg>