<svg width="648" height="1062" viewBox="0 0 648 1062" fill="none" xmlns="http://www.w3.org/2000/svg">
<g clip-path="url(#clip0)">
<rect x="648" width="1062" height="648" transform="rotate(90 648 0)" fill="#030087"/>
<path d="M546.853 181.914C507.547 123.176 476.792 143.967 470.899 166.572C465.005 189.178 447.746 191.568 430.727 199.025C409.028 208.533 402.654 238.254 428.282 252.251C449.937 264.079 479.302 253.279 490.458 281.699C507.936 326.23 557.086 324.378 566.858 289.111C575.305 258.621 563.675 207.053 546.853 181.914Z" fill="url(#paint0_linear)"/>
<path d="M418.041 155.082C434.632 155.082 448.082 141.632 448.082 125.041C448.082 108.45 434.632 94.9999 418.041 94.9999C401.45 94.9999 388 108.45 388 125.041C388 141.632 401.45 155.082 418.041 155.082Z" fill="url(#paint1_linear)"/>
<path d="M170.297 933.211C175.788 933.211 180.239 928.76 180.239 923.269C180.239 917.779 175.788 913.328 170.297 913.328C164.806 913.328 160.355 917.779 160.355 923.269C160.355 928.76 164.806 933.211 170.297 933.211Z" fill="url(#paint2_linear)"/>
<path d="M163.143 804.999C182.292 818.523 196.003 865.745 165.442 884.002C125.876 907.639 129.168 940.044 110.54 938.579C81.1833 936.27 85.7217 840.659 103.467 814.419C121.213 788.178 144.064 791.523 163.143 804.999Z" fill="url(#paint3_linear)"/>
<ellipse cx="498.84" cy="534.435" rx="15.16" ry="17.055" fill="url(#paint4_linear)"/>
<path d="M184.831 494.056H172.157V551.376H143.785V494.056H135V470.581H143.785V469.861C143.785 459.492 146.81 451.57 152.858 446.098C159.003 440.529 167.789 437.745 179.214 437.745C181.518 437.745 183.295 437.793 184.543 437.889V461.94C183.775 461.844 182.719 461.796 181.374 461.796C178.302 461.796 176.046 462.516 174.605 463.956C173.165 465.3 172.349 467.509 172.157 470.581H184.831V494.056Z" fill="url(#paint5_linear)"/>
<path d="M209.177 463.092C204.184 463.092 200.152 461.748 197.079 459.059C194.103 456.275 192.615 452.819 192.615 448.69C192.615 444.465 194.103 440.961 197.079 438.177C200.152 435.392 204.184 434 209.177 434C214.074 434 218.01 435.392 220.987 438.177C224.059 440.961 225.595 444.465 225.595 448.69C225.595 452.819 224.059 456.275 220.987 459.059C218.01 461.748 214.074 463.092 209.177 463.092ZM223.147 470.581V551.376H194.919V470.581H223.147Z" fill="url(#paint6_linear)"/>
<path d="M267.45 444.802V551.376H239.222V444.802H267.45Z" fill="url(#paint7_linear)"/>
<path d="M278.916 510.907C278.916 502.554 280.405 495.257 283.381 489.016C286.454 482.775 290.582 477.974 295.767 474.614C301.048 471.253 306.904 469.573 313.337 469.573C318.906 469.573 323.707 470.677 327.739 472.885C331.772 475.094 334.892 478.07 337.101 481.815V470.581H365.328V551.376H337.101V540.143C334.892 543.887 331.724 546.864 327.595 549.072C323.563 551.28 318.81 552.384 313.337 552.384C306.904 552.384 301.048 550.704 295.767 547.344C290.582 543.983 286.454 539.183 283.381 532.942C280.405 526.605 278.916 519.26 278.916 510.907ZM337.101 510.907C337.101 505.722 335.66 501.641 332.78 498.665C295.767 570.44 326.539 494.2 322.411 494.2C318.186 494.2 314.681 495.689 311.897 498.665C309.113 501.545 307.72 505.626 307.72 510.907C307.72 516.091 309.113 520.22 311.897 523.292C314.681 526.269 318.186 527.757 322.411 527.757C326.539 527.757 329.996 526.269 332.78 523.292C335.66 520.316 337.101 516.187 337.101 510.907Z" fill="url(#paint8_linear)"/>
<path d="M409.642 484.839C412.81 480.23 416.651 476.582 421.163 473.894C425.676 471.205 430.525 469.861 435.709 469.861V499.961H427.788C421.643 499.961 417.083 501.161 414.106 503.562C411.13 505.962 409.642 510.139 409.642 516.091V551.376H381.414V470.581H409.642V484.839Z" fill="url(#paint9_linear)"/>
<path d="M460.087 463.092C455.094 463.092 451.062 461.748 447.989 459.059C445.013 456.275 443.525 452.819 443.525 448.69C443.525 444.465 445.013 440.961 447.989 438.177C451.062 435.392 455.094 434 460.087 434C464.984 434 468.92 435.392 471.897 438.177C474.969 440.961 476.505 444.465 476.505 448.69C476.505 452.819 474.969 456.275 471.897 459.059C468.92 461.748 464.984 463.092 460.087 463.092ZM474.057 470.581V551.376H445.829V470.581H474.057Z" fill="url(#paint10_linear)"/>
<path d="M146.928 615.808H140.256L139.152 619H135.624L141.648 602.224H145.56L151.584 619H148.032L146.928 615.808ZM146.016 613.12L143.592 606.112L141.168 613.12H146.016ZM158.69 612.304C158.69 610.96 158.954 609.768 159.482 608.728C160.026 607.688 160.762 606.888 161.69 606.328C162.618 605.768 163.65 605.488 164.786 605.488C165.65 605.488 166.474 605.68 167.258 606.064C168.042 606.432 168.666 606.928 169.13 607.552V601.24H172.538V619H169.13V617.032C168.714 617.688 168.13 618.216 167.378 618.616C166.626 619.016 165.754 619.216 164.762 619.216C163.642 619.216 162.618 618.928 161.69 618.352C160.762 617.776 160.026 616.968 159.482 615.928C158.954 614.872 158.69 613.664 158.69 612.304ZM169.154 612.352C169.154 611.536 168.994 610.84 168.674 610.264C168.354 609.672 167.922 609.224 167.378 608.92C166.834 608.6 166.25 608.44 165.626 608.44C165.002 608.44 164.426 608.592 163.898 608.896C163.37 609.2 162.938 609.648 162.602 610.24C162.282 610.816 162.122 611.504 162.122 612.304C162.122 613.104 162.282 613.808 162.602 614.416C162.938 615.008 163.37 615.464 163.898 615.784C164.442 616.104 165.018 616.264 165.626 616.264C166.25 616.264 166.834 616.112 167.378 615.808C167.922 615.488 168.354 615.04 168.674 614.464C168.994 613.872 169.154 613.168 169.154 612.352ZM188.18 612.064C188.18 612.544 188.148 612.976 188.084 613.36H178.364C178.444 614.32 178.78 615.072 179.372 615.616C179.964 616.16 180.692 616.432 181.556 616.432C182.804 616.432 183.692 615.896 184.22 614.824H187.844C187.46 616.104 186.724 617.16 185.636 617.992C184.548 618.808 183.212 619.216 181.628 619.216C180.348 619.216 179.196 618.936 178.172 618.376C177.164 617.8 176.372 616.992 175.796 615.952C175.236 614.912 174.956 613.712 174.956 612.352C174.956 610.976 175.236 609.768 175.796 608.728C176.356 607.688 177.14 606.888 178.148 606.328C179.156 605.768 180.316 605.488 181.628 605.488C182.892 605.488 184.02 605.76 185.012 606.304C186.02 606.848 186.796 607.624 187.34 608.632C187.9 609.624 188.18 610.768 188.18 612.064ZM184.7 611.104C184.684 610.24 184.372 609.552 183.764 609.04C183.156 608.512 182.412 608.248 181.532 608.248C180.7 608.248 179.996 608.504 179.42 609.016C178.86 609.512 178.516 610.208 178.388 611.104H184.7ZM195.721 619.216C194.633 619.216 193.657 619.024 192.793 618.64C191.929 618.24 191.241 617.704 190.729 617.032C190.233 616.36 189.961 615.616 189.913 614.8H193.297C193.361 615.312 193.609 615.736 194.041 616.072C194.489 616.408 195.041 616.576 195.697 616.576C196.337 616.576 196.833 616.448 197.185 616.192C197.553 615.936 197.737 615.608 197.737 615.208C197.737 614.776 197.513 614.456 197.065 614.248C196.633 614.024 195.937 613.784 194.977 613.528C193.985 613.288 193.169 613.04 192.529 612.784C191.905 612.528 191.361 612.136 190.897 611.608C190.449 611.08 190.225 610.368 190.225 609.472C190.225 608.736 190.433 608.064 190.849 607.456C191.281 606.848 191.889 606.368 192.673 606.016C193.473 605.664 194.409 605.488 195.481 605.488C197.065 605.488 198.329 605.888 199.273 606.688C200.217 607.472 200.737 608.536 200.833 609.88H197.617C197.569 609.352 197.345 608.936 196.945 608.632C196.561 608.312 196.041 608.152 195.385 608.152C194.777 608.152 194.305 608.264 193.969 608.488C193.649 608.712 193.489 609.024 193.489 609.424C193.489 609.872 193.713 610.216 194.161 610.456C194.609 610.68 195.305 610.912 196.249 611.152C197.209 611.392 198.001 611.64 198.625 611.896C199.249 612.152 199.785 612.552 200.233 613.096C200.697 613.624 200.937 614.328 200.953 615.208C200.953 615.976 200.737 616.664 200.305 617.272C199.889 617.88 199.281 618.36 198.481 618.712C197.697 619.048 196.777 619.216 195.721 619.216ZM205.415 604.12C204.823 604.12 204.327 603.936 203.927 603.568C203.543 603.184 203.351 602.712 203.351 602.152C203.351 601.592 203.543 601.128 203.927 600.76C204.327 600.376 204.823 600.184 205.415 600.184C206.007 600.184 206.495 600.376 206.879 600.76C207.279 601.128 207.479 601.592 207.479 602.152C207.479 602.712 207.279 603.184 206.879 603.568C206.495 603.936 206.007 604.12 205.415 604.12ZM207.071 605.704V619H203.711V605.704H207.071ZM215.598 605.488C216.59 605.488 217.462 605.688 218.214 606.088C218.966 606.472 219.558 606.976 219.99 607.6V605.704H223.374V619.096C223.374 620.328 223.126 621.424 222.63 622.384C222.134 623.36 221.39 624.128 220.398 624.688C219.406 625.264 218.206 625.552 216.798 625.552C214.91 625.552 213.358 625.112 212.142 624.232C210.942 623.352 210.262 622.152 210.102 620.632H213.438C213.614 621.24 213.99 621.72 214.566 622.072C215.158 622.44 215.87 622.624 216.702 622.624C217.678 622.624 218.47 622.328 219.078 621.736C219.686 621.16 219.99 620.28 219.99 619.096V617.032C219.558 617.656 218.958 618.176 218.19 618.592C217.438 619.008 216.574 619.216 215.598 619.216C214.478 619.216 213.454 618.928 212.526 618.352C211.598 617.776 210.862 616.968 210.318 615.928C209.79 614.872 209.526 613.664 209.526 612.304C209.526 610.96 209.79 609.768 210.318 608.728C210.862 607.688 211.59 606.888 212.502 606.328C213.43 605.768 214.462 605.488 215.598 605.488ZM219.99 612.352C219.99 611.536 219.83 610.84 219.51 610.264C219.19 609.672 218.758 609.224 218.214 608.92C217.67 608.6 217.086 608.44 216.462 608.44C215.838 608.44 215.262 608.592 214.734 608.896C214.206 609.2 213.774 609.648 213.438 610.24C213.118 610.816 212.958 611.504 212.958 612.304C212.958 613.104 213.118 613.808 213.438 614.416C213.774 615.008 214.206 615.464 214.734 615.784C215.278 616.104 215.854 616.264 216.462 616.264C217.086 616.264 217.67 616.112 218.214 615.808C218.758 615.488 219.19 615.04 219.51 614.464C219.83 613.872 219.99 613.168 219.99 612.352ZM234.024 605.512C235.608 605.512 236.888 606.016 237.864 607.024C238.84 608.016 239.328 609.408 239.328 611.2V619H235.968V611.656C235.968 610.6 235.704 609.792 235.176 609.232C234.648 608.656 233.928 608.368 233.016 608.368C232.088 608.368 231.352 608.656 230.808 609.232C230.28 609.792 230.016 610.6 230.016 611.656V619H226.656V605.704H230.016V607.36C230.464 606.784 231.032 606.336 231.72 606.016C232.424 605.68 233.192 605.512 234.024 605.512ZM261.13 619L259.306 617.2C257.754 618.592 255.858 619.288 253.618 619.288C252.386 619.288 251.298 619.08 250.354 618.664C249.426 618.232 248.706 617.632 248.194 616.864C247.682 616.08 247.426 615.176 247.426 614.152C247.426 613.048 247.738 612.056 248.362 611.176C248.986 610.296 249.906 609.584 251.122 609.04C250.69 608.512 250.378 608.008 250.186 607.528C249.994 607.032 249.898 606.504 249.898 605.944C249.898 605.176 250.098 604.488 250.498 603.88C250.898 603.256 251.466 602.768 252.202 602.416C252.954 602.064 253.826 601.888 254.818 601.888C255.826 601.888 256.69 602.08 257.41 602.464C258.13 602.848 258.666 603.36 259.018 604C259.37 604.64 259.522 605.352 259.474 606.136H256.21C256.226 605.608 256.098 605.208 255.826 604.936C255.554 604.648 255.186 604.504 254.722 604.504C254.274 604.504 253.898 604.64 253.594 604.912C253.306 605.168 253.162 605.504 253.162 605.92C253.162 606.32 253.282 606.72 253.522 607.12C253.762 607.504 254.154 607.984 254.698 608.56L258.922 612.736C258.954 612.704 258.978 612.672 258.994 612.64C259.01 612.608 259.026 612.576 259.042 612.544L260.41 610.264H263.914L262.234 613.216C261.914 613.84 261.57 614.432 261.202 614.992L265.258 619H261.13ZM253.714 616.504C255.026 616.504 256.186 616.04 257.194 615.112L253.066 611.032C251.514 611.72 250.738 612.696 250.738 613.96C250.738 614.68 251.01 615.288 251.554 615.784C252.098 616.264 252.818 616.504 253.714 616.504ZM276.552 608.464V614.896C276.552 615.344 276.656 615.672 276.864 615.88C277.088 616.072 277.456 616.168 277.968 616.168H279.528V619H277.416C274.584 619 273.168 617.624 273.168 614.872V608.464H271.584V605.704H273.168V602.416H276.552V605.704H279.528V608.464H276.552ZM294.305 612.064C294.305 612.544 294.273 612.976 294.209 613.36H284.489C284.569 614.32 284.905 615.072 285.497 615.616C286.089 616.16 286.817 616.432 287.681 616.432C288.929 616.432 289.817 615.896 290.345 614.824H293.969C293.585 616.104 292.849 617.16 291.761 617.992C290.673 618.808 289.337 619.216 287.753 619.216C286.473 619.216 285.321 618.936 284.297 618.376C283.289 617.8 282.497 616.992 281.921 615.952C281.361 614.912 281.081 613.712 281.081 612.352C281.081 610.976 281.361 609.768 281.921 608.728C282.481 607.688 283.265 606.888 284.273 606.328C285.281 605.768 286.441 605.488 287.753 605.488C289.017 605.488 290.145 605.76 291.137 606.304C292.145 606.848 292.921 607.624 293.465 608.632C294.025 609.624 294.305 610.768 294.305 612.064ZM290.825 611.104C290.809 610.24 290.497 609.552 289.889 609.04C289.281 608.512 288.537 608.248 287.657 608.248C286.825 608.248 286.121 608.504 285.545 609.016C284.985 609.512 284.641 610.208 284.513 611.104H290.825ZM295.894 612.352C295.894 610.976 296.174 609.776 296.734 608.752C297.294 607.712 298.07 606.912 299.062 606.352C300.054 605.776 301.19 605.488 302.47 605.488C304.118 605.488 305.478 605.904 306.55 606.736C307.638 607.552 308.366 608.704 308.734 610.192H305.11C304.918 609.616 304.59 609.168 304.126 608.848C303.678 608.512 303.118 608.344 302.446 608.344C301.486 608.344 300.726 608.696 300.166 609.4C299.606 610.088 299.326 611.072 299.326 612.352C299.326 613.616 299.606 614.6 300.166 615.304C300.726 615.992 301.486 616.336 302.446 616.336C303.806 616.336 304.694 615.728 305.11 614.512H308.734C308.366 615.952 307.638 617.096 306.55 617.944C305.462 618.792 304.102 619.216 302.47 619.216C301.19 619.216 300.054 618.936 299.062 618.376C298.07 617.8 297.294 617 296.734 615.976C296.174 614.936 295.894 613.728 295.894 612.352ZM318.683 605.512C319.691 605.512 320.587 605.736 321.371 606.184C322.155 606.616 322.763 607.264 323.195 608.128C323.643 608.976 323.867 610 323.867 611.2V619H320.507V611.656C320.507 610.6 320.243 609.792 319.715 609.232C319.187 608.656 318.467 608.368 317.555 608.368C316.627 608.368 315.891 608.656 315.347 609.232C314.819 609.792 314.555 610.6 314.555 611.656V619H311.195V601.24H314.555V607.36C314.987 606.784 315.563 606.336 316.283 606.016C317.003 605.68 317.803 605.512 318.683 605.512ZM334.43 605.512C336.014 605.512 337.294 606.016 338.27 607.024C339.246 608.016 339.734 609.408 339.734 611.2V619H336.374V611.656C336.374 610.6 336.11 609.792 335.582 609.232C335.054 608.656 334.334 608.368 333.422 608.368C332.494 608.368 331.758 608.656 331.214 609.232C330.686 609.792 330.422 610.6 330.422 611.656V619H327.062V605.704H330.422V607.36C330.87 606.784 331.438 606.336 332.126 606.016C332.83 605.68 333.598 605.512 334.43 605.512ZM348.833 619.216C347.553 619.216 346.401 618.936 345.377 618.376C344.353 617.8 343.545 616.992 342.953 615.952C342.377 614.912 342.089 613.712 342.089 612.352C342.089 610.992 342.385 609.792 342.977 608.752C343.585 607.712 344.409 606.912 345.449 606.352C346.489 605.776 347.649 605.488 348.929 605.488C350.209 605.488 351.369 605.776 352.409 606.352C353.449 606.912 354.265 607.712 354.857 608.752C355.465 609.792 355.769 610.992 355.769 612.352C355.769 613.712 355.457 614.912 354.833 615.952C354.225 616.992 353.393 617.8 352.337 618.376C351.297 618.936 350.129 619.216 348.833 619.216ZM348.833 616.288C349.441 616.288 350.009 616.144 350.537 615.856C351.081 615.552 351.513 615.104 351.833 614.512C352.153 613.92 352.313 613.2 352.313 612.352C352.313 611.088 351.977 610.12 351.305 609.448C350.649 608.76 349.841 608.416 348.881 608.416C347.921 608.416 347.113 608.76 346.457 609.448C345.817 610.12 345.497 611.088 345.497 612.352C345.497 613.616 345.809 614.592 346.433 615.28C347.073 615.952 347.873 616.288 348.833 616.288ZM361.594 601.24V619H358.234V601.24H361.594ZM370.818 619.216C369.538 619.216 368.386 618.936 367.362 618.376C366.338 617.8 365.53 616.992 364.938 615.952C364.362 614.912 364.074 613.712 364.074 612.352C364.074 610.992 364.37 609.792 364.962 608.752C365.57 607.712 366.394 606.912 367.434 606.352C368.474 605.776 369.634 605.488 370.914 605.488C372.194 605.488 373.354 605.776 374.394 606.352C375.434 606.912 376.25 607.712 376.842 608.752C377.45 609.792 377.754 610.992 377.754 612.352C377.754 613.712 377.442 614.912 376.818 615.952C376.21 616.992 375.378 617.8 374.322 618.376C373.282 618.936 372.114 619.216 370.818 619.216ZM370.818 616.288C371.426 616.288 371.994 616.144 372.522 615.856C373.066 615.552 373.498 615.104 373.818 614.512C374.138 613.92 374.298 613.2 374.298 612.352C374.298 611.088 373.962 610.12 373.29 609.448C372.634 608.76 371.826 608.416 370.866 608.416C369.906 608.416 369.098 608.76 368.442 609.448C367.802 610.12 367.482 611.088 367.482 612.352C367.482 613.616 367.794 614.592 368.418 615.28C369.058 615.952 369.858 616.288 370.818 616.288ZM385.426 605.488C386.418 605.488 387.29 605.688 388.042 606.088C388.794 606.472 389.386 606.976 389.818 607.6V605.704H393.202V619.096C393.202 620.328 392.954 621.424 392.458 622.384C391.962 623.36 391.218 624.128 390.226 624.688C389.234 625.264 388.034 625.552 386.626 625.552C384.738 625.552 383.186 625.112 381.97 624.232C380.77 623.352 380.09 622.152 379.93 620.632H383.266C383.442 621.24 383.818 621.72 384.394 622.072C384.986 622.44 385.698 622.624 386.53 622.624C387.506 622.624 388.298 622.328 388.906 621.736C389.514 621.16 389.818 620.28 389.818 619.096V617.032C389.386 617.656 388.786 618.176 388.018 618.592C387.266 619.008 386.402 619.216 385.426 619.216C384.306 619.216 383.282 618.928 382.354 618.352C381.426 617.776 380.69 616.968 380.146 615.928C379.618 614.872 379.354 613.664 379.354 612.304C379.354 610.96 379.618 609.768 380.146 608.728C380.69 607.688 381.418 606.888 382.33 606.328C383.258 605.768 384.29 605.488 385.426 605.488ZM389.818 612.352C389.818 611.536 389.658 610.84 389.338 610.264C389.018 609.672 388.586 609.224 388.042 608.92C387.498 608.6 386.914 608.44 386.29 608.44C385.666 608.44 385.09 608.592 384.562 608.896C384.034 609.2 383.602 609.648 383.266 610.24C382.946 610.816 382.786 611.504 382.786 612.304C382.786 613.104 382.946 613.808 383.266 614.416C383.602 615.008 384.034 615.464 384.562 615.784C385.106 616.104 385.682 616.264 386.29 616.264C386.914 616.264 387.498 616.112 388.042 615.808C388.586 615.488 389.018 615.04 389.338 614.464C389.658 613.872 389.818 613.168 389.818 612.352ZM409.204 605.704L400.972 625.288H397.396L400.276 618.664L394.948 605.704H398.716L402.148 614.992L405.628 605.704H409.204ZM415.87 612.304C415.87 610.96 416.134 609.768 416.662 608.728C417.206 607.688 417.934 606.888 418.846 606.328C419.774 605.768 420.806 605.488 421.942 605.488C422.934 605.488 423.798 605.688 424.534 606.088C425.286 606.488 425.886 606.992 426.334 607.6V605.704H429.718V619H426.334V617.056C425.902 617.68 425.302 618.2 424.534 618.616C423.782 619.016 422.91 619.216 421.918 619.216C420.798 619.216 419.774 618.928 418.846 618.352C417.934 617.776 417.206 616.968 416.662 615.928C416.134 614.872 415.87 613.664 415.87 612.304ZM426.334 612.352C426.334 611.536 426.174 610.84 425.854 610.264C425.534 609.672 425.102 609.224 424.558 608.92C424.014 608.6 423.43 608.44 422.806 608.44C422.182 608.44 421.606 608.592 421.078 608.896C420.55 609.2 420.118 609.648 419.782 610.24C419.462 610.816 419.302 611.504 419.302 612.304C419.302 613.104 419.462 613.808 419.782 614.416C420.118 615.008 420.55 615.464 421.078 615.784C421.622 616.104 422.198 616.264 422.806 616.264C423.43 616.264 424.014 616.112 424.558 615.808C425.102 615.488 425.534 615.04 425.854 614.464C426.174 613.872 426.334 613.168 426.334 612.352ZM438.208 605.488C439.2 605.488 440.072 605.688 440.824 606.088C441.576 606.472 442.168 606.976 442.6 607.6V605.704H445.984V619.096C445.984 620.328 445.736 621.424 445.24 622.384C444.744 623.36 444 624.128 443.008 624.688C442.016 625.264 440.816 625.552 439.408 625.552C437.52 625.552 435.968 625.112 434.752 624.232C433.552 623.352 432.872 622.152 432.712 620.632H436.048C436.224 621.24 436.6 621.72 437.176 622.072C437.768 622.44 438.48 622.624 439.312 622.624C440.288 622.624 441.08 622.328 441.688 621.736C442.296 621.16 442.6 620.28 442.6 619.096V617.032C442.168 617.656 441.568 618.176 440.8 618.592C440.048 619.008 439.184 619.216 438.208 619.216C437.088 619.216 436.064 618.928 435.136 618.352C434.208 617.776 433.472 616.968 432.928 615.928C432.4 614.872 432.136 613.664 432.136 612.304C432.136 610.96 432.4 609.768 432.928 608.728C433.472 607.688 434.2 606.888 435.112 606.328C436.04 605.768 437.072 605.488 438.208 605.488ZM442.6 612.352C442.6 611.536 442.44 610.84 442.12 610.264C441.8 609.672 441.368 609.224 440.824 608.92C440.28 608.6 439.696 608.44 439.072 608.44C438.448 608.44 437.872 608.592 437.344 608.896C436.816 609.2 436.384 609.648 436.048 610.24C435.728 610.816 435.568 611.504 435.568 612.304C435.568 613.104 435.728 613.808 436.048 614.416C436.384 615.008 436.816 615.464 437.344 615.784C437.888 616.104 438.464 616.264 439.072 616.264C439.696 616.264 440.28 616.112 440.824 615.808C441.368 615.488 441.8 615.04 442.12 614.464C442.44 613.872 442.6 613.168 442.6 612.352ZM461.625 612.064C461.625 612.544 461.593 612.976 461.529 613.36H451.809C451.889 614.32 452.225 615.072 452.817 615.616C453.409 616.16 454.137 616.432 455.001 616.432C456.249 616.432 457.137 615.896 457.665 614.824H461.289C460.905 616.104 460.169 617.16 459.081 617.992C457.993 618.808 456.657 619.216 455.073 619.216C453.793 619.216 452.641 618.936 451.617 618.376C450.609 617.8 449.817 616.992 449.241 615.952C448.681 614.912 448.401 613.712 448.401 612.352C448.401 610.976 448.681 609.768 449.241 608.728C449.801 607.688 450.585 606.888 451.593 606.328C452.601 605.768 453.761 605.488 455.073 605.488C456.337 605.488 457.465 605.76 458.457 606.304C459.465 606.848 460.241 607.624 460.785 608.632C461.345 609.624 461.625 610.768 461.625 612.064ZM458.145 611.104C458.129 610.24 457.817 609.552 457.209 609.04C456.601 608.512 455.857 608.248 454.977 608.248C454.145 608.248 453.441 608.504 452.865 609.016C452.305 609.512 451.961 610.208 451.833 611.104H458.145ZM471.446 605.512C473.03 605.512 474.31 606.016 475.286 607.024C476.262 608.016 476.75 609.408 476.75 611.2V619H473.39V611.656C473.39 610.6 473.126 609.792 472.598 609.232C472.07 608.656 471.35 608.368 470.438 608.368C469.51 608.368 468.774 608.656 468.23 609.232C467.702 609.792 467.438 610.6 467.438 611.656V619H464.078V605.704H467.438V607.36C467.886 606.784 468.454 606.336 469.142 606.016C469.846 605.68 470.614 605.512 471.446 605.512ZM479.081 612.352C479.081 610.976 479.361 609.776 479.921 608.752C480.481 607.712 481.257 606.912 482.249 606.352C483.241 605.776 484.377 605.488 485.657 605.488C487.305 605.488 488.665 605.904 489.737 606.736C490.825 607.552 491.553 608.704 491.921 610.192H488.297C488.105 609.616 487.777 609.168 487.313 608.848C486.865 608.512 486.305 608.344 485.633 608.344C484.673 608.344 483.913 608.696 483.353 609.4C482.793 610.088 482.513 611.072 482.513 612.352C482.513 613.616 482.793 614.6 483.353 615.304C483.913 615.992 484.673 616.336 485.633 616.336C486.993 616.336 487.881 615.728 488.297 614.512H491.921C491.553 615.952 490.825 617.096 489.737 617.944C488.649 618.792 487.289 619.216 485.657 619.216C484.377 619.216 483.241 618.936 482.249 618.376C481.257 617.8 480.481 617 479.921 615.976C479.361 614.936 479.081 613.728 479.081 612.352ZM507.103 605.704L498.871 625.288H495.295L498.175 618.664L492.847 605.704H496.615L500.047 614.992L503.527 605.704H507.103ZM510.402 619.168C509.794 619.168 509.29 618.984 508.89 618.616C508.506 618.232 508.314 617.76 508.314 617.2C508.314 616.64 508.506 616.176 508.89 615.808C509.29 615.424 509.794 615.232 510.402 615.232C510.994 615.232 511.482 615.424 511.866 615.808C512.25 616.176 512.442 616.64 512.442 617.2C512.442 617.76 512.25 618.232 511.866 618.616C511.482 618.984 510.994 619.168 510.402 619.168Z" fill="url(#paint11_linear)"/>
</g>
<defs>
<linearGradient id="paint0_linear" x1="555.114" y1="128.776" x2="408.778" y2="299.906" gradientUnits="userSpaceOnUse">
<stop stop-color="#BD58A0"/>
<stop offset="1" stop-color="#FFC864"/>
</linearGradient>
<linearGradient id="paint1_linear" x1="384.756" y1="156.343" x2="445.739" y2="99.0254" gradientUnits="userSpaceOnUse">
<stop stop-color="#BD58A0"/>
<stop offset="1" stop-color="#FFC864"/>
</linearGradient>
<linearGradient id="paint2_linear" x1="159.281" y1="933.629" x2="179.463" y2="914.66" gradientUnits="userSpaceOnUse">
<stop stop-color="#BD58A0"/>
<stop offset="1" stop-color="#FFC864"/>
</linearGradient>
<linearGradient id="paint3_linear" x1="169.291" y1="953.202" x2="56.4045" y2="854.523" gradientUnits="userSpaceOnUse">
<stop stop-color="#BD58A0"/>
<stop offset="1" stop-color="#FFC864"/>
</linearGradient>
<linearGradient id="paint4_linear" x1="483.514" y1="551.49" x2="483.514" y2="517.38" gradientUnits="userSpaceOnUse">
<stop stop-color="#F39A82"/>
<stop offset="1" stop-color="#FDD5B0"/>
</linearGradient>
<linearGradient id="paint5_linear" x1="133.128" y1="552.384" x2="133.128" y2="434" gradientUnits="userSpaceOnUse">
<stop stop-color="#F39A82"/>
<stop offset="1" stop-color="#FDD5B0"/>
</linearGradient>
<linearGradient id="paint6_linear" x1="133.128" y1="552.384" x2="133.128" y2="434" gradientUnits="userSpaceOnUse">
<stop stop-color="#F39A82"/>
<stop offset="1" stop-color="#FDD5B0"/>
</linearGradient>
<linearGradient id="paint7_linear" x1="133.128" y1="552.384" x2="133.128" y2="434" gradientUnits="userSpaceOnUse">
<stop stop-color="#F39A82"/>
<stop offset="1" stop-color="#FDD5B0"/>
</linearGradient>
<linearGradient id="paint8_linear" x1="133.128" y1="552.384" x2="133.128" y2="434" gradientUnits="userSpaceOnUse">
<stop stop-color="#F39A82"/>
<stop offset="1" stop-color="#FDD5B0"/>
</linearGradient>
<linearGradient id="paint9_linear" x1="133.128" y1="552.384" x2="133.128" y2="434" gradientUnits="userSpaceOnUse">
<stop stop-color="#F39A82"/>
<stop offset="1" stop-color="#FDD5B0"/>
</linearGradient>
<linearGradient id="paint10_linear" x1="133.128" y1="552.384" x2="133.128" y2="434" gradientUnits="userSpaceOnUse">
<stop stop-color="#F39A82"/>
<stop offset="1" stop-color="#FDD5B0"/>
</linearGradient>
<linearGradient id="paint11_linear" x1="132.922" y1="629" x2="132.922" y2="593" gradientUnits="userSpaceOnUse">
<stop stop-color="#F39A82"/>
<stop offset="1" stop-color="#FDD5B0"/>
</linearGradient>
<clipPath id="clip0">
<rect x="648" width="1062" height="648" rx="5" transform="rotate(90 648 0)" fill="white"/>
</clipPath>
</defs>
</svg>
