<svg width="648" height="1062" viewBox="0 0 648 1062" fill="none" xmlns="http://www.w3.org/2000/svg">
<g clip-path="url(#clip0)">
<rect x="648" width="1062" height="648" transform="rotate(90 648 0)" fill="white"/>
<path d="M550.513 878.018C581.728 814.61 548.346 798.371 525.822 804.57C503.298 810.769 492.598 797.017 477.631 786.007C458.547 771.968 429.622 781.308 430.314 810.502C430.898 835.169 454.934 855.2 435.899 879.072C406.073 916.473 432.251 958.112 467.68 948.941C498.308 941.012 537.153 905.157 550.513 878.018Z" fill="#F1F1F1"/>
<path d="M507.04 767.057C515.336 781.425 533.708 786.348 548.077 778.053C562.445 769.757 567.368 751.384 559.072 737.016C550.777 722.648 532.404 717.725 518.036 726.02C503.667 734.316 498.744 752.689 507.04 767.057Z" fill="#F1F1F1"/>
<path d="M113.91 163H107.241L96.087 146.113V163H89.418V135.622H96.087L107.241 152.587V135.622H113.91V163ZM117.418 152.08C117.418 149.844 117.834 147.881 118.666 146.191C119.524 144.501 120.681 143.201 122.137 142.291C123.593 141.381 125.218 140.926 127.012 140.926C128.546 140.926 129.885 141.238 131.029 141.862C132.199 142.486 133.096 143.305 133.72 144.319V141.238H140.389V163H133.72V159.919C133.07 160.933 132.16 161.752 130.99 162.376C129.846 163 128.507 163.312 126.973 163.312C125.205 163.312 123.593 162.857 122.137 161.947C120.681 161.011 119.524 159.698 118.666 158.008C117.834 156.292 117.418 154.316 117.418 152.08ZM133.72 152.119C133.72 150.455 133.252 149.142 132.316 148.18C131.406 147.218 130.288 146.737 128.962 146.737C127.636 146.737 126.505 147.218 125.569 148.18C124.659 149.116 124.204 150.416 124.204 152.08C124.204 153.744 124.659 155.07 125.569 156.058C126.505 157.02 127.636 157.501 128.962 157.501C130.288 157.501 131.406 157.02 132.316 156.058C133.252 155.096 133.72 153.783 133.72 152.119ZM172.982 141.004C175.686 141.004 177.831 141.823 179.417 143.461C181.029 145.099 181.835 147.374 181.835 150.286V163H175.205V151.183C175.205 149.779 174.828 148.7 174.074 147.946C173.346 147.166 172.332 146.776 171.032 146.776C169.732 146.776 168.705 147.166 167.951 147.946C167.223 148.7 166.859 149.779 166.859 151.183V163H160.229V151.183C160.229 149.779 159.852 148.7 159.098 147.946C158.37 147.166 157.356 146.776 156.056 146.776C154.756 146.776 153.729 147.166 152.975 147.946C152.247 148.7 151.883 149.779 151.883 151.183V163H145.214V141.238H151.883V143.968C152.559 143.058 153.443 142.343 154.535 141.823C155.627 141.277 156.862 141.004 158.24 141.004C159.878 141.004 161.334 141.355 162.608 142.057C163.908 142.759 164.922 143.76 165.65 145.06C166.404 143.864 167.431 142.889 168.731 142.135C170.031 141.381 171.448 141.004 172.982 141.004ZM193.168 144.865C193.948 143.669 194.923 142.733 196.093 142.057C197.263 141.355 198.563 141.004 199.993 141.004V148.063H198.16C196.496 148.063 195.248 148.427 194.416 149.155C193.584 149.857 193.168 151.105 193.168 152.899V163H186.499V141.238H193.168V144.865ZM201.855 152.08C201.855 149.844 202.271 147.881 203.103 146.191C203.961 144.501 205.118 143.201 206.574 142.291C208.03 141.381 209.655 140.926 211.449 140.926C212.983 140.926 214.322 141.238 215.466 141.862C216.636 142.486 217.533 143.305 218.157 144.319V141.238H224.826V163H218.157V159.919C217.507 160.933 216.597 161.752 215.427 162.376C214.283 163 212.944 163.312 211.41 163.312C209.642 163.312 208.03 162.857 206.574 161.947C205.118 161.011 203.961 159.698 203.103 158.008C202.271 156.292 201.855 154.316 201.855 152.08ZM218.157 152.119C218.157 150.455 217.689 149.142 216.753 148.18C215.843 147.218 214.725 146.737 213.399 146.737C212.073 146.737 210.942 147.218 210.006 148.18C209.096 149.116 208.641 150.416 208.641 152.08C208.641 153.744 209.096 155.07 210.006 156.058C210.942 157.02 212.073 157.501 213.399 157.501C214.725 157.501 215.843 157.02 216.753 156.058C217.689 155.096 218.157 153.783 218.157 152.119ZM241.779 157.345V163H238.386C235.968 163 234.083 162.415 232.731 161.245C231.379 160.049 230.703 158.112 230.703 155.434V146.776H228.051V141.238H230.703V135.934H237.372V141.238H241.74V146.776H237.372V155.512C237.372 156.162 237.528 156.63 237.84 156.916C238.152 157.202 238.672 157.345 239.4 157.345H241.779ZM244.168 152.08C244.168 149.844 244.584 147.881 245.416 146.191C246.274 144.501 247.431 143.201 248.887 142.291C250.343 141.381 251.968 140.926 253.762 140.926C255.296 140.926 256.635 141.238 257.779 141.862C258.949 142.486 259.846 143.305 260.47 144.319V141.238H267.139V163H260.47V159.919C259.82 160.933 258.91 161.752 257.74 162.376C256.596 163 255.257 163.312 253.723 163.312C251.955 163.312 250.343 162.857 248.887 161.947C247.431 161.011 246.274 159.698 245.416 158.008C244.584 156.292 244.168 154.316 244.168 152.08ZM260.47 152.119C260.47 150.455 260.002 149.142 259.066 148.18C258.156 147.218 257.038 146.737 255.712 146.737C254.386 146.737 253.255 147.218 252.319 148.18C251.409 149.116 250.954 150.416 250.954 152.08C250.954 153.744 251.409 155.07 252.319 156.058C253.255 157.02 254.386 157.501 255.712 157.501C257.038 157.501 258.156 157.02 259.066 156.058C260.002 155.096 260.47 153.783 260.47 152.119ZM297.389 135.622V154.264C297.389 157.15 296.57 159.373 294.932 160.933C293.32 162.493 291.136 163.273 288.38 163.273C285.494 163.273 283.18 162.454 281.438 160.816C279.696 159.178 278.825 156.851 278.825 153.835H285.455C285.455 154.979 285.689 155.85 286.157 156.448C286.625 157.02 287.301 157.306 288.185 157.306C288.991 157.306 289.615 157.046 290.057 156.526C290.499 156.006 290.72 155.252 290.72 154.264V135.622H297.389ZM301.449 152.08C301.449 149.844 301.865 147.881 302.697 146.191C303.555 144.501 304.712 143.201 306.168 142.291C307.624 141.381 309.249 140.926 311.043 140.926C312.577 140.926 313.916 141.238 315.06 141.862C316.23 142.486 317.127 143.305 317.751 144.319V141.238H324.42V163H317.751V159.919C317.101 160.933 316.191 161.752 315.021 162.376C313.877 163 312.538 163.312 311.004 163.312C309.236 163.312 307.624 162.857 306.168 161.947C304.712 161.011 303.555 159.698 302.697 158.008C301.865 156.292 301.449 154.316 301.449 152.08ZM317.751 152.119C317.751 150.455 317.283 149.142 316.347 148.18C315.437 147.218 314.319 146.737 312.993 146.737C311.667 146.737 310.536 147.218 309.6 148.18C308.69 149.116 308.235 150.416 308.235 152.08C308.235 153.744 308.69 155.07 309.6 156.058C310.536 157.02 311.667 157.501 312.993 157.501C314.319 157.501 315.437 157.02 316.347 156.058C317.283 155.096 317.751 153.783 317.751 152.119ZM332.599 138.976C331.429 138.976 330.467 138.638 329.713 137.962C328.985 137.26 328.621 136.402 328.621 135.388C328.621 134.348 328.985 133.49 329.713 132.814C330.467 132.112 331.429 131.761 332.599 131.761C333.743 131.761 334.679 132.112 335.407 132.814C336.161 133.49 336.538 134.348 336.538 135.388C336.538 136.402 336.161 137.26 335.407 137.962C334.679 138.638 333.743 138.976 332.599 138.976ZM335.914 141.238V163H329.245V141.238H335.914ZM349.6 163.312C347.702 163.312 346.012 162.987 344.53 162.337C343.048 161.687 341.878 160.803 341.02 159.685C340.162 158.541 339.681 157.267 339.577 155.863H346.168C346.246 156.617 346.597 157.228 347.221 157.696C347.845 158.164 348.612 158.398 349.522 158.398C350.354 158.398 350.991 158.242 351.433 157.93C351.901 157.592 352.135 157.163 352.135 156.643C352.135 156.019 351.81 155.564 351.16 155.278C350.51 154.966 349.457 154.628 348.001 154.264C346.441 153.9 345.141 153.523 344.101 153.133C343.061 152.717 342.164 152.08 341.41 151.222C340.656 150.338 340.279 149.155 340.279 147.673C340.279 146.425 340.617 145.294 341.293 144.28C341.995 143.24 343.009 142.421 344.335 141.823C345.687 141.225 347.286 140.926 349.132 140.926C351.862 140.926 354.007 141.602 355.567 142.954C357.153 144.306 358.063 146.1 358.297 148.336H352.135C352.031 147.582 351.693 146.984 351.121 146.542C350.575 146.1 349.847 145.879 348.937 145.879C348.157 145.879 347.559 146.035 347.143 146.347C346.727 146.633 346.519 147.036 346.519 147.556C346.519 148.18 346.844 148.648 347.494 148.96C348.17 149.272 349.21 149.584 350.614 149.896C352.226 150.312 353.539 150.728 354.553 151.144C355.567 151.534 356.451 152.184 357.205 153.094C357.985 153.978 358.388 155.174 358.414 156.682C358.414 157.956 358.05 159.1 357.322 160.114C356.62 161.102 355.593 161.882 354.241 162.454C352.915 163.026 351.368 163.312 349.6 163.312ZM393.733 141.238L387.844 163H380.473L377.041 148.882L373.492 163H366.16L360.232 141.238H366.901L369.982 156.799L373.648 141.238H380.707L384.412 156.721L387.454 141.238H393.733ZM394.95 152.08C394.95 149.844 395.366 147.881 396.198 146.191C397.056 144.501 398.213 143.201 399.669 142.291C401.125 141.381 402.75 140.926 404.544 140.926C406.078 140.926 407.417 141.238 408.561 141.862C409.731 142.486 410.628 143.305 411.252 144.319V141.238H417.921V163H411.252V159.919C410.602 160.933 409.692 161.752 408.522 162.376C407.378 163 406.039 163.312 404.505 163.312C402.737 163.312 401.125 162.857 399.669 161.947C398.213 161.011 397.056 159.698 396.198 158.008C395.366 156.292 394.95 154.316 394.95 152.08ZM411.252 152.119C411.252 150.455 410.784 149.142 409.848 148.18C408.938 147.218 407.82 146.737 406.494 146.737C405.168 146.737 404.037 147.218 403.101 148.18C402.191 149.116 401.736 150.416 401.736 152.08C401.736 153.744 402.191 155.07 403.101 156.058C404.037 157.02 405.168 157.501 406.494 157.501C407.82 157.501 408.938 157.02 409.848 156.058C410.784 155.096 411.252 153.783 411.252 152.119ZM429.415 134.14V163H422.746V134.14H429.415Z" fill="#030087"/>
<path d="M98.622 198.718C99.5927 198.891 100.416 199.403 101.092 200.252C101.768 201.101 102.106 202.063 102.106 203.138C102.106 204.057 101.863 204.889 101.378 205.634C100.91 206.362 100.225 206.943 99.324 207.376C98.4227 207.792 97.374 208 96.178 208H88.95V189.93H95.84C97.0707 189.93 98.128 190.138 99.012 190.554C99.896 190.97 100.563 191.533 101.014 192.244C101.465 192.937 101.69 193.717 101.69 194.584C101.69 195.624 101.413 196.491 100.858 197.184C100.303 197.877 99.558 198.389 98.622 198.718ZM91.914 197.522H95.58C96.5507 197.522 97.3047 197.305 97.842 196.872C98.3967 196.421 98.674 195.78 98.674 194.948C98.674 194.133 98.3967 193.501 97.842 193.05C97.3047 192.582 96.5507 192.348 95.58 192.348H91.914V197.522ZM95.918 205.582C96.9233 205.582 97.712 205.339 98.284 204.854C98.856 204.369 99.142 203.693 99.142 202.826C99.142 201.942 98.8387 201.24 98.232 200.72C97.6253 200.2 96.8193 199.94 95.814 199.94H91.914V205.582H95.918ZM118.301 193.674V208H115.337V206.31C114.869 206.899 114.254 207.367 113.491 207.714C112.746 208.043 111.948 208.208 111.099 208.208C109.972 208.208 108.958 207.974 108.057 207.506C107.173 207.038 106.471 206.345 105.951 205.426C105.448 204.507 105.197 203.398 105.197 202.098V193.674H108.135V201.656C108.135 202.939 108.456 203.927 109.097 204.62C109.738 205.296 110.614 205.634 111.723 205.634C112.832 205.634 113.708 205.296 114.349 204.62C115.008 203.927 115.337 202.939 115.337 201.656V193.674H118.301ZM127.412 208.234C126.285 208.234 125.271 208.035 124.37 207.636C123.486 207.22 122.784 206.665 122.264 205.972C121.744 205.261 121.466 204.473 121.432 203.606H124.5C124.552 204.213 124.838 204.724 125.358 205.14C125.895 205.539 126.562 205.738 127.36 205.738C128.192 205.738 128.833 205.582 129.284 205.27C129.752 204.941 129.986 204.525 129.986 204.022C129.986 203.485 129.726 203.086 129.206 202.826C128.703 202.566 127.897 202.28 126.788 201.968C125.713 201.673 124.838 201.387 124.162 201.11C123.486 200.833 122.896 200.408 122.394 199.836C121.908 199.264 121.666 198.51 121.666 197.574C121.666 196.811 121.891 196.118 122.342 195.494C122.792 194.853 123.434 194.35 124.266 193.986C125.115 193.622 126.086 193.44 127.178 193.44C128.807 193.44 130.116 193.856 131.104 194.688C132.109 195.503 132.646 196.621 132.716 198.042H129.752C129.7 197.401 129.44 196.889 128.972 196.508C128.504 196.127 127.871 195.936 127.074 195.936C126.294 195.936 125.696 196.083 125.28 196.378C124.864 196.673 124.656 197.063 124.656 197.548C124.656 197.929 124.794 198.25 125.072 198.51C125.349 198.77 125.687 198.978 126.086 199.134C126.484 199.273 127.074 199.455 127.854 199.68C128.894 199.957 129.743 200.243 130.402 200.538C131.078 200.815 131.658 201.231 132.144 201.786C132.629 202.341 132.88 203.077 132.898 203.996C132.898 204.811 132.672 205.539 132.222 206.18C131.771 206.821 131.13 207.324 130.298 207.688C129.483 208.052 128.521 208.234 127.412 208.234ZM137.608 191.776C137.071 191.776 136.62 191.594 136.256 191.23C135.892 190.866 135.71 190.415 135.71 189.878C135.71 189.341 135.892 188.89 136.256 188.526C136.62 188.162 137.071 187.98 137.608 187.98C138.128 187.98 138.57 188.162 138.934 188.526C139.298 188.89 139.48 189.341 139.48 189.878C139.48 190.415 139.298 190.866 138.934 191.23C138.57 191.594 138.128 191.776 137.608 191.776ZM139.064 193.674V208H136.1V193.674H139.064ZM150.184 193.44C151.311 193.44 152.316 193.674 153.2 194.142C154.101 194.61 154.803 195.303 155.306 196.222C155.809 197.141 156.06 198.25 156.06 199.55V208H153.122V199.992C153.122 198.709 152.801 197.73 152.16 197.054C151.519 196.361 150.643 196.014 149.534 196.014C148.425 196.014 147.541 196.361 146.882 197.054C146.241 197.73 145.92 198.709 145.92 199.992V208H142.956V193.674H145.92V195.312C146.405 194.723 147.021 194.263 147.766 193.934C148.529 193.605 149.335 193.44 150.184 193.44ZM172.971 200.486C172.971 201.023 172.936 201.509 172.867 201.942H161.921C162.007 203.086 162.432 204.005 163.195 204.698C163.957 205.391 164.893 205.738 166.003 205.738C167.597 205.738 168.724 205.071 169.383 203.736H172.581C172.147 205.053 171.359 206.137 170.215 206.986C169.088 207.818 167.684 208.234 166.003 208.234C164.633 208.234 163.403 207.931 162.311 207.324C161.236 206.7 160.387 205.833 159.763 204.724C159.156 203.597 158.853 202.297 158.853 200.824C158.853 199.351 159.147 198.059 159.737 196.95C160.343 195.823 161.184 194.957 162.259 194.35C163.351 193.743 164.599 193.44 166.003 193.44C167.355 193.44 168.559 193.735 169.617 194.324C170.674 194.913 171.497 195.745 172.087 196.82C172.676 197.877 172.971 199.099 172.971 200.486ZM169.877 199.55C169.859 198.458 169.469 197.583 168.707 196.924C167.944 196.265 166.999 195.936 165.873 195.936C164.85 195.936 163.975 196.265 163.247 196.924C162.519 197.565 162.085 198.441 161.947 199.55H169.877ZM181.088 208.234C179.961 208.234 178.947 208.035 178.046 207.636C177.162 207.22 176.46 206.665 175.94 205.972C175.42 205.261 175.142 204.473 175.108 203.606H178.176C178.228 204.213 178.514 204.724 179.034 205.14C179.571 205.539 180.238 205.738 181.036 205.738C181.868 205.738 182.509 205.582 182.96 205.27C183.428 204.941 183.662 204.525 183.662 204.022C183.662 203.485 183.402 203.086 182.882 202.826C182.379 202.566 181.573 202.28 180.464 201.968C179.389 201.673 178.514 201.387 177.838 201.11C177.162 200.833 176.572 200.408 176.07 199.836C175.584 199.264 175.342 198.51 175.342 197.574C175.342 196.811 175.567 196.118 176.018 195.494C176.468 194.853 177.11 194.35 177.942 193.986C178.791 193.622 179.762 193.44 180.854 193.44C182.483 193.44 183.792 193.856 184.78 194.688C185.785 195.503 186.322 196.621 186.392 198.042H183.428C183.376 197.401 183.116 196.889 182.648 196.508C182.18 196.127 181.547 195.936 180.75 195.936C179.97 195.936 179.372 196.083 178.956 196.378C178.54 196.673 178.332 197.063 178.332 197.548C178.332 197.929 178.47 198.25 178.748 198.51C179.025 198.77 179.363 198.978 179.762 199.134C180.16 199.273 180.75 199.455 181.53 199.68C182.57 199.957 183.419 200.243 184.078 200.538C184.754 200.815 185.334 201.231 185.82 201.786C186.305 202.341 186.556 203.077 186.574 203.996C186.574 204.811 186.348 205.539 185.898 206.18C185.447 206.821 184.806 207.324 183.974 207.688C183.159 208.052 182.197 208.234 181.088 208.234ZM194.976 208.234C193.85 208.234 192.836 208.035 191.934 207.636C191.05 207.22 190.348 206.665 189.828 205.972C189.308 205.261 189.031 204.473 188.996 203.606H192.064C192.116 204.213 192.402 204.724 192.922 205.14C193.46 205.539 194.127 205.738 194.924 205.738C195.756 205.738 196.398 205.582 196.848 205.27C197.316 204.941 197.55 204.525 197.55 204.022C197.55 203.485 197.29 203.086 196.77 202.826C196.268 202.566 195.462 202.28 194.352 201.968C193.278 201.673 192.402 201.387 191.726 201.11C191.05 200.833 190.461 200.408 189.958 199.836C189.473 199.264 189.23 198.51 189.23 197.574C189.23 196.811 189.456 196.118 189.906 195.494C190.357 194.853 190.998 194.35 191.83 193.986C192.68 193.622 193.65 193.44 194.742 193.44C196.372 193.44 197.68 193.856 198.668 194.688C199.674 195.503 200.211 196.621 200.28 198.042H197.316C197.264 197.401 197.004 196.889 196.536 196.508C196.068 196.127 195.436 195.936 194.638 195.936C193.858 195.936 193.26 196.083 192.844 196.378C192.428 196.673 192.22 197.063 192.22 197.548C192.22 197.929 192.359 198.25 192.636 198.51C192.914 198.77 193.252 198.978 193.65 199.134C194.049 199.273 194.638 199.455 195.418 199.68C196.458 199.957 197.308 200.243 197.966 200.538C198.642 200.815 199.223 201.231 199.708 201.786C200.194 202.341 200.445 203.077 200.462 203.996C200.462 204.811 200.237 205.539 199.786 206.18C199.336 206.821 198.694 207.324 197.862 207.688C197.048 208.052 196.086 208.234 194.976 208.234ZM216.321 189.93C218.245 189.93 219.926 190.303 221.365 191.048C222.821 191.776 223.939 192.833 224.719 194.22C225.516 195.589 225.915 197.193 225.915 199.03C225.915 200.867 225.516 202.462 224.719 203.814C223.939 205.166 222.821 206.206 221.365 206.934C219.926 207.645 218.245 208 216.321 208H210.419V189.93H216.321ZM216.321 205.582C218.435 205.582 220.056 205.01 221.183 203.866C222.309 202.722 222.873 201.11 222.873 199.03C222.873 196.933 222.309 195.295 221.183 194.116C220.056 192.937 218.435 192.348 216.321 192.348H213.383V205.582H216.321ZM241.982 200.486C241.982 201.023 241.948 201.509 241.878 201.942H230.932C231.019 203.086 231.444 204.005 232.206 204.698C232.969 205.391 233.905 205.738 235.014 205.738C236.609 205.738 237.736 205.071 238.394 203.736H241.592C241.159 205.053 240.37 206.137 239.226 206.986C238.1 207.818 236.696 208.234 235.014 208.234C233.645 208.234 232.414 207.931 231.322 207.324C230.248 206.7 229.398 205.833 228.774 204.724C228.168 203.597 227.864 202.297 227.864 200.824C227.864 199.351 228.159 198.059 228.748 196.95C229.355 195.823 230.196 194.957 231.27 194.35C232.362 193.743 233.61 193.44 235.014 193.44C236.366 193.44 237.571 193.735 238.628 194.324C239.686 194.913 240.509 195.745 241.098 196.82C241.688 197.877 241.982 199.099 241.982 200.486ZM238.888 199.55C238.871 198.458 238.481 197.583 237.718 196.924C236.956 196.265 236.011 195.936 234.884 195.936C233.862 195.936 232.986 196.265 232.258 196.924C231.53 197.565 231.097 198.441 230.958 199.55H238.888ZM250.437 205.348L254.493 193.674H257.639L252.179 208H248.643L243.209 193.674H246.381L250.437 205.348ZM273.01 200.486C273.01 201.023 272.975 201.509 272.906 201.942H261.96C262.046 203.086 262.471 204.005 263.234 204.698C263.996 205.391 264.932 205.738 266.042 205.738C267.636 205.738 268.763 205.071 269.422 203.736H272.62C272.186 205.053 271.398 206.137 270.254 206.986C269.127 207.818 267.723 208.234 266.042 208.234C264.672 208.234 263.442 207.931 262.35 207.324C261.275 206.7 260.426 205.833 259.802 204.724C259.195 203.597 258.892 202.297 258.892 200.824C258.892 199.351 259.186 198.059 259.776 196.95C260.382 195.823 261.223 194.957 262.298 194.35C263.39 193.743 264.638 193.44 266.042 193.44C267.394 193.44 268.598 193.735 269.656 194.324C270.713 194.913 271.536 195.745 272.126 196.82C272.715 197.877 273.01 199.099 273.01 200.486ZM269.916 199.55C269.898 198.458 269.508 197.583 268.746 196.924C267.983 196.265 267.038 195.936 265.912 195.936C264.889 195.936 264.014 196.265 263.286 196.924C262.558 197.565 262.124 198.441 261.986 199.55H269.916ZM278.891 188.76V208H275.927V188.76H278.891ZM288.996 208.234C287.644 208.234 286.422 207.931 285.33 207.324C284.238 206.7 283.38 205.833 282.756 204.724C282.132 203.597 281.82 202.297 281.82 200.824C281.82 199.368 282.141 198.077 282.782 196.95C283.423 195.823 284.299 194.957 285.408 194.35C286.517 193.743 287.757 193.44 289.126 193.44C290.495 193.44 291.735 193.743 292.844 194.35C293.953 194.957 294.829 195.823 295.47 196.95C296.111 198.077 296.432 199.368 296.432 200.824C296.432 202.28 296.103 203.571 295.444 204.698C294.785 205.825 293.884 206.7 292.74 207.324C291.613 207.931 290.365 208.234 288.996 208.234ZM288.996 205.66C289.759 205.66 290.469 205.478 291.128 205.114C291.804 204.75 292.35 204.204 292.766 203.476C293.182 202.748 293.39 201.864 293.39 200.824C293.39 199.784 293.191 198.909 292.792 198.198C292.393 197.47 291.865 196.924 291.206 196.56C290.547 196.196 289.837 196.014 289.074 196.014C288.311 196.014 287.601 196.196 286.942 196.56C286.301 196.924 285.789 197.47 285.408 198.198C285.027 198.909 284.836 199.784 284.836 200.824C284.836 202.367 285.226 203.563 286.006 204.412C286.803 205.244 287.8 205.66 288.996 205.66ZM302.326 195.78C302.829 195.121 303.513 194.567 304.38 194.116C305.247 193.665 306.226 193.44 307.318 193.44C308.566 193.44 309.701 193.752 310.724 194.376C311.764 194.983 312.579 195.841 313.168 196.95C313.757 198.059 314.052 199.333 314.052 200.772C314.052 202.211 313.757 203.502 313.168 204.646C312.579 205.773 311.764 206.657 310.724 207.298C309.701 207.922 308.566 208.234 307.318 208.234C306.226 208.234 305.255 208.017 304.406 207.584C303.557 207.133 302.863 206.579 302.326 205.92V214.812H299.362V193.674H302.326V195.78ZM311.036 200.772C311.036 199.784 310.828 198.935 310.412 198.224C310.013 197.496 309.476 196.95 308.8 196.586C308.141 196.205 307.431 196.014 306.668 196.014C305.923 196.014 305.212 196.205 304.536 196.586C303.877 196.967 303.34 197.522 302.924 198.25C302.525 198.978 302.326 199.836 302.326 200.824C302.326 201.812 302.525 202.679 302.924 203.424C303.34 204.152 303.877 204.707 304.536 205.088C305.212 205.469 305.923 205.66 306.668 205.66C307.431 205.66 308.141 205.469 308.8 205.088C309.476 204.689 310.013 204.117 310.412 203.372C310.828 202.627 311.036 201.76 311.036 200.772ZM334.325 193.44C335.452 193.44 336.457 193.674 337.341 194.142C338.243 194.61 338.945 195.303 339.447 196.222C339.967 197.141 340.227 198.25 340.227 199.55V208H337.289V199.992C337.289 198.709 336.969 197.73 336.327 197.054C335.686 196.361 334.811 196.014 333.701 196.014C332.592 196.014 331.708 196.361 331.049 197.054C330.408 197.73 330.087 198.709 330.087 199.992V208H327.149V199.992C327.149 198.709 326.829 197.73 326.187 197.054C325.546 196.361 324.671 196.014 323.561 196.014C322.452 196.014 321.568 196.361 320.909 197.054C320.268 197.73 319.947 198.709 319.947 199.992V208H316.983V193.674H319.947V195.312C320.433 194.723 321.048 194.263 321.793 193.934C322.539 193.605 323.336 193.44 324.185 193.44C325.329 193.44 326.352 193.683 327.253 194.168C328.155 194.653 328.848 195.355 329.333 196.274C329.767 195.407 330.443 194.723 331.361 194.22C332.28 193.7 333.268 193.44 334.325 193.44ZM357.129 200.486C357.129 201.023 357.094 201.509 357.025 201.942H346.079C346.165 203.086 346.59 204.005 347.353 204.698C348.115 205.391 349.051 205.738 350.161 205.738C351.755 205.738 352.882 205.071 353.541 203.736H356.739C356.305 205.053 355.517 206.137 354.373 206.986C353.246 207.818 351.842 208.234 350.161 208.234C348.791 208.234 347.561 207.931 346.469 207.324C345.394 206.7 344.545 205.833 343.921 204.724C343.314 203.597 343.011 202.297 343.011 200.824C343.011 199.351 343.305 198.059 343.895 196.95C344.501 195.823 345.342 194.957 346.417 194.35C347.509 193.743 348.757 193.44 350.161 193.44C351.513 193.44 352.717 193.735 353.775 194.324C354.832 194.913 355.655 195.745 356.245 196.82C356.834 197.877 357.129 199.099 357.129 200.486ZM354.035 199.55C354.017 198.458 353.627 197.583 352.865 196.924C352.102 196.265 351.157 195.936 350.031 195.936C349.008 195.936 348.133 196.265 347.405 196.924C346.677 197.565 346.243 198.441 346.105 199.55H354.035ZM367.274 193.44C368.4 193.44 369.406 193.674 370.29 194.142C371.191 194.61 371.893 195.303 372.396 196.222C372.898 197.141 373.15 198.25 373.15 199.55V208H370.212V199.992C370.212 198.709 369.891 197.73 369.25 197.054C368.608 196.361 367.733 196.014 366.624 196.014C365.514 196.014 364.63 196.361 363.972 197.054C363.33 197.73 363.01 198.709 363.01 199.992V208H360.046V193.674H363.01V195.312C363.495 194.723 364.11 194.263 364.856 193.934C365.618 193.605 366.424 193.44 367.274 193.44ZM380.388 196.092V204.022C380.388 204.559 380.51 204.949 380.752 205.192C381.012 205.417 381.446 205.53 382.052 205.53H383.872V208H381.532C380.198 208 379.175 207.688 378.464 207.064C377.754 206.44 377.398 205.426 377.398 204.022V196.092H375.708V193.674H377.398V190.112H380.388V193.674H383.872V196.092H380.388ZM412.39 189.93V208H409.426V195.624L403.914 208H401.86L396.322 195.624V208H393.358V189.93H396.556L402.9 204.1L409.218 189.93H412.39ZM415.298 200.772C415.298 199.333 415.593 198.059 416.182 196.95C416.789 195.841 417.603 194.983 418.626 194.376C419.666 193.752 420.81 193.44 422.058 193.44C423.185 193.44 424.164 193.665 424.996 194.116C425.845 194.549 426.521 195.095 427.024 195.754V193.674H430.014V208H427.024V205.868C426.521 206.544 425.837 207.107 424.97 207.558C424.103 208.009 423.115 208.234 422.006 208.234C420.775 208.234 419.649 207.922 418.626 207.298C417.603 206.657 416.789 205.773 416.182 204.646C415.593 203.502 415.298 202.211 415.298 200.772ZM427.024 200.824C427.024 199.836 426.816 198.978 426.4 198.25C426.001 197.522 425.473 196.967 424.814 196.586C424.155 196.205 423.445 196.014 422.682 196.014C421.919 196.014 421.209 196.205 420.55 196.586C419.891 196.95 419.354 197.496 418.938 198.224C418.539 198.935 418.34 199.784 418.34 200.772C418.34 201.76 418.539 202.627 418.938 203.372C419.354 204.117 419.891 204.689 420.55 205.088C421.226 205.469 421.937 205.66 422.682 205.66C423.445 205.66 424.155 205.469 424.814 205.088C425.473 204.707 426.001 204.152 426.4 203.424C426.816 202.679 427.024 201.812 427.024 200.824ZM441.135 193.44C442.262 193.44 443.267 193.674 444.151 194.142C445.052 194.61 445.754 195.303 446.257 196.222C446.76 197.141 447.011 198.25 447.011 199.55V208H444.073V199.992C444.073 198.709 443.752 197.73 443.111 197.054C442.47 196.361 441.594 196.014 440.485 196.014C439.376 196.014 438.492 196.361 437.833 197.054C437.192 197.73 436.871 198.709 436.871 199.992V208H433.907V193.674H436.871V195.312C437.356 194.723 437.972 194.263 438.717 193.934C439.48 193.605 440.286 193.44 441.135 193.44ZM449.804 200.772C449.804 199.333 450.098 198.059 450.688 196.95C451.294 195.841 452.109 194.983 453.132 194.376C454.172 193.752 455.316 193.44 456.564 193.44C457.69 193.44 458.67 193.665 459.502 194.116C460.351 194.549 461.027 195.095 461.53 195.754V193.674H464.52V208H461.53V205.868C461.027 206.544 460.342 207.107 459.476 207.558C458.609 208.009 457.621 208.234 456.512 208.234C455.281 208.234 454.154 207.922 453.132 207.298C452.109 206.657 451.294 205.773 450.688 204.646C450.098 203.502 449.804 202.211 449.804 200.772ZM461.53 200.824C461.53 199.836 461.322 198.978 460.906 198.25C460.507 197.522 459.978 196.967 459.32 196.586C458.661 196.205 457.95 196.014 457.188 196.014C456.425 196.014 455.714 196.205 455.056 196.586C454.397 196.95 453.86 197.496 453.444 198.224C453.045 198.935 452.846 199.784 452.846 200.772C452.846 201.76 453.045 202.627 453.444 203.372C453.86 204.117 454.397 204.689 455.056 205.088C455.732 205.469 456.442 205.66 457.188 205.66C457.95 205.66 458.661 205.469 459.32 205.088C459.978 204.707 460.507 204.152 460.906 203.424C461.322 202.679 461.53 201.812 461.53 200.824ZM474.185 193.44C475.294 193.44 476.274 193.665 477.123 194.116C477.99 194.549 478.666 195.095 479.151 195.754V193.674H482.141V208.234C482.141 209.551 481.864 210.721 481.309 211.744C480.754 212.784 479.948 213.599 478.891 214.188C477.851 214.777 476.603 215.072 475.147 215.072C473.206 215.072 471.594 214.613 470.311 213.694C469.028 212.793 468.3 211.562 468.127 210.002H471.065C471.29 210.747 471.767 211.345 472.495 211.796C473.24 212.264 474.124 212.498 475.147 212.498C476.343 212.498 477.305 212.134 478.033 211.406C478.778 210.678 479.151 209.621 479.151 208.234V205.842C478.648 206.518 477.964 207.09 477.097 207.558C476.248 208.009 475.277 208.234 474.185 208.234C472.937 208.234 471.793 207.922 470.753 207.298C469.73 206.657 468.916 205.773 468.309 204.646C467.72 203.502 467.425 202.211 467.425 200.772C467.425 199.333 467.72 198.059 468.309 196.95C468.916 195.841 469.73 194.983 470.753 194.376C471.793 193.752 472.937 193.44 474.185 193.44ZM479.151 200.824C479.151 199.836 478.943 198.978 478.527 198.25C478.128 197.522 477.6 196.967 476.941 196.586C476.282 196.205 475.572 196.014 474.809 196.014C474.046 196.014 473.336 196.205 472.677 196.586C472.018 196.95 471.481 197.496 471.065 198.224C470.666 198.935 470.467 199.784 470.467 200.772C470.467 201.76 470.666 202.627 471.065 203.372C471.481 204.117 472.018 204.689 472.677 205.088C473.353 205.469 474.064 205.66 474.809 205.66C475.572 205.66 476.282 205.469 476.941 205.088C477.6 204.707 478.128 204.152 478.527 203.424C478.943 202.679 479.151 201.812 479.151 200.824ZM499.164 200.486C499.164 201.023 499.129 201.509 499.06 201.942H488.114C488.201 203.086 488.625 204.005 489.388 204.698C490.151 205.391 491.087 205.738 492.196 205.738C493.791 205.738 494.917 205.071 495.576 203.736H498.774C498.341 205.053 497.552 206.137 496.408 206.986C495.281 207.818 493.877 208.234 492.196 208.234C490.827 208.234 489.596 207.931 488.504 207.324C487.429 206.7 486.58 205.833 485.956 204.724C485.349 203.597 485.046 202.297 485.046 200.824C485.046 199.351 485.341 198.059 485.93 196.95C486.537 195.823 487.377 194.957 488.452 194.35C489.544 193.743 490.792 193.44 492.196 193.44C493.548 193.44 494.753 193.735 495.81 194.324C496.867 194.913 497.691 195.745 498.28 196.82C498.869 197.877 499.164 199.099 499.164 200.486ZM496.07 199.55C496.053 198.458 495.663 197.583 494.9 196.924C494.137 196.265 493.193 195.936 492.066 195.936C491.043 195.936 490.168 196.265 489.44 196.924C488.712 197.565 488.279 198.441 488.14 199.55H496.07ZM505.045 195.754C505.478 195.026 506.05 194.463 506.761 194.064C507.489 193.648 508.347 193.44 509.335 193.44V196.508H508.581C507.42 196.508 506.536 196.803 505.929 197.392C505.34 197.981 505.045 199.004 505.045 200.46V208H502.081V193.674H505.045V195.754Z" fill="#444444"/>
<ellipse cx="260.76" cy="917.965" rx="7.24" ry="8.145" fill="#030087"/>
<path d="M110.798 898.681H104.745V926.056H91.1956V898.681H87V887.47H91.1956V887.126C91.1956 882.174 92.64 878.391 95.5287 875.778C98.4633 873.118 102.659 871.788 108.115 871.788C109.216 871.788 110.064 871.811 110.66 871.857V883.343C110.293 883.297 109.789 883.275 109.147 883.275C107.68 883.275 106.602 883.618 105.915 884.306C105.227 884.948 104.837 886.003 104.745 887.47H110.798V898.681Z" fill="#030087"/>
<path d="M122.425 883.894C120.041 883.894 118.115 883.252 116.647 881.968C115.226 880.638 114.515 878.987 114.515 877.016C114.515 874.998 115.226 873.324 116.647 871.995C118.115 870.665 120.041 870 122.425 870C124.763 870 126.643 870.665 128.065 871.995C129.532 873.324 130.266 874.998 130.266 877.016C130.266 878.987 129.532 880.638 128.065 881.968C126.643 883.252 124.763 883.894 122.425 883.894ZM129.097 887.47V926.056H115.616V887.47H129.097Z" fill="#030087"/>
<path d="M150.254 875.159V926.056H136.774V875.159H150.254Z" fill="#030087"/>
<path d="M155.731 906.729C155.731 902.739 156.441 899.254 157.863 896.274C159.33 893.293 161.302 891.001 163.778 889.396C166.3 887.791 169.097 886.989 172.169 886.989C174.828 886.989 177.121 887.516 179.047 888.571C180.973 889.625 182.463 891.047 183.518 892.835V887.47H196.999V926.056H183.518V920.691C182.463 922.479 180.95 923.901 178.978 924.955C177.052 926.01 174.783 926.537 172.169 926.537C169.097 926.537 166.3 925.735 163.778 924.13C161.302 922.525 159.33 920.232 157.863 917.252C156.441 914.226 155.731 910.718 155.731 906.729ZM183.518 906.729C183.518 904.252 182.83 902.304 181.454 900.882C163.778 935.16 178.474 898.75 176.502 898.75C174.485 898.75 172.811 899.461 171.481 900.882C170.151 902.258 169.487 904.207 169.487 906.729C169.487 909.205 170.151 911.176 171.481 912.644C172.811 914.065 174.485 914.776 176.502 914.776C178.474 914.776 180.125 914.065 181.454 912.644C182.83 911.222 183.518 909.25 183.518 906.729Z" fill="#030087"/>
<path d="M218.161 894.279C219.674 892.078 221.509 890.336 223.664 889.052C225.819 887.768 228.134 887.126 230.61 887.126V901.501H226.828C223.893 901.501 221.715 902.074 220.294 903.221C218.872 904.367 218.161 906.362 218.161 909.205V926.056H204.68V887.47H218.161V894.279Z" fill="#030087"/>
<path d="M242.253 883.894C239.868 883.894 237.942 883.252 236.475 881.968C235.054 880.638 234.343 878.987 234.343 877.016C234.343 874.998 235.054 873.324 236.475 871.995C237.942 870.665 239.868 870 242.253 870C244.591 870 246.471 870.665 247.893 871.995C249.36 873.324 250.094 874.998 250.094 877.016C250.094 878.987 249.36 880.638 247.893 881.968C246.471 883.252 244.591 883.894 242.253 883.894ZM248.924 887.47V926.056H235.443V887.47H248.924Z" fill="#030087"/>
<path d="M109.8 334.008C109.698 333.997 109.595 333.997 109.493 334.008H88.4925C88.3579 334.01 88.2242 334.03 88.095 334.068L98.9325 344.86L109.8 334.008Z" fill="#030087"/>
<path d="M110.91 335.05L99.99 345.925C99.709 346.205 99.3288 346.362 98.9325 346.362C98.5362 346.362 98.156 346.205 97.875 345.925L87.0525 335.133C87.0192 335.255 87.0016 335.381 87 335.508V350.508C87 350.906 87.158 351.287 87.4393 351.569C87.7206 351.85 88.1022 352.008 88.5 352.008H109.5C109.898 352.008 110.279 351.85 110.561 351.569C110.842 351.287 111 350.906 111 350.508V335.508C110.994 335.352 110.964 335.197 110.91 335.05ZM89.5275 350.508H88.485V349.435L93.9375 344.028L94.995 345.085L89.5275 350.508ZM109.485 350.508H108.435L102.967 345.085L104.025 344.028L109.477 349.435L109.485 350.508Z" fill="#030087"/>
<path d="M108.474 474.367H111C111 467.887 106.108 463 99.6191 463V465.526C104.75 465.526 108.474 469.244 108.474 474.367Z" fill="#030087"/>
<path d="M99.6318 470.579C102.288 470.579 103.421 471.712 103.421 474.368H105.947C105.947 470.295 103.705 468.053 99.6318 468.053V470.579ZM103.954 477.454C103.712 477.234 103.393 477.116 103.065 477.126C102.737 477.136 102.426 477.273 102.197 477.508L99.1745 480.617C98.447 480.478 96.9842 480.022 95.4786 478.52C93.9729 477.013 93.5169 475.547 93.3818 474.824L96.4878 471.8C96.7233 471.572 96.8606 471.261 96.8708 470.933C96.8809 470.605 96.763 470.286 96.5421 470.043L91.8748 464.911C91.6538 464.668 91.3467 464.52 91.0186 464.5C90.6905 464.479 90.3674 464.587 90.1178 464.801L87.3768 467.152C87.1584 467.371 87.028 467.663 87.0105 467.972C86.9915 468.288 86.6303 475.768 92.4306 481.571C97.4908 486.63 103.829 487 105.575 487C105.83 487 105.987 486.992 106.028 486.99C106.337 486.972 106.629 486.841 106.847 486.622L109.196 483.88C109.41 483.63 109.519 483.307 109.498 482.979C109.478 482.651 109.331 482.344 109.088 482.123L103.954 477.454Z" fill="#030087"/>
<path d="M140.36 337.44C141.452 337.44 142.423 337.674 143.272 338.142C144.139 338.61 144.815 339.303 145.3 340.222C145.803 341.141 146.054 342.25 146.054 343.55V352H143.116V343.992C143.116 342.709 142.795 341.73 142.154 341.054C141.513 340.361 140.637 340.014 139.528 340.014C138.419 340.014 137.535 340.361 136.876 341.054C136.235 341.73 135.914 342.709 135.914 343.992V352H132.95V332.76H135.914V339.338C136.417 338.731 137.049 338.263 137.812 337.934C138.592 337.605 139.441 337.44 140.36 337.44ZM162.965 344.486C162.965 345.023 162.93 345.509 162.861 345.942H151.915C152.001 347.086 152.426 348.005 153.189 348.698C153.951 349.391 154.887 349.738 155.997 349.738C157.591 349.738 158.718 349.071 159.377 347.736H162.575C162.141 349.053 161.353 350.137 160.209 350.986C159.082 351.818 157.678 352.234 155.997 352.234C154.627 352.234 153.397 351.931 152.305 351.324C151.23 350.7 150.381 349.833 149.757 348.724C149.15 347.597 148.847 346.297 148.847 344.824C148.847 343.351 149.141 342.059 149.731 340.95C150.337 339.823 151.178 338.957 152.253 338.35C153.345 337.743 154.593 337.44 155.997 337.44C157.349 337.44 158.553 337.735 159.611 338.324C160.668 338.913 161.491 339.745 162.081 340.82C162.67 341.877 162.965 343.099 162.965 344.486ZM159.871 343.55C159.853 342.458 159.463 341.583 158.701 340.924C157.938 340.265 156.993 339.936 155.867 339.936C154.844 339.936 153.969 340.265 153.241 340.924C152.513 341.565 152.079 342.441 151.941 343.55H159.871ZM168.846 332.76V352H165.882V332.76H168.846ZM175.701 332.76V352H172.737V332.76H175.701ZM185.807 352.234C184.455 352.234 183.233 351.931 182.141 351.324C181.049 350.7 180.191 349.833 179.567 348.724C178.943 347.597 178.631 346.297 178.631 344.824C178.631 343.368 178.951 342.077 179.593 340.95C180.234 339.823 181.109 338.957 182.219 338.35C183.328 337.743 184.567 337.44 185.937 337.44C187.306 337.44 188.545 337.743 189.655 338.35C190.764 338.957 191.639 339.823 192.281 340.95C192.922 342.077 193.243 343.368 193.243 344.824C193.243 346.28 192.913 347.571 192.255 348.698C191.596 349.825 190.695 350.7 189.551 351.324C188.424 351.931 187.176 352.234 185.807 352.234ZM185.807 349.66C186.569 349.66 187.28 349.478 187.939 349.114C188.615 348.75 189.161 348.204 189.577 347.476C189.993 346.748 190.201 345.864 190.201 344.824C190.201 343.784 190.001 342.909 189.603 342.198C189.204 341.47 188.675 340.924 188.017 340.56C187.358 340.196 186.647 340.014 185.885 340.014C185.122 340.014 184.411 340.196 183.753 340.56C183.111 340.924 182.6 341.47 182.219 342.198C181.837 342.909 181.647 343.784 181.647 344.824C181.647 346.367 182.037 347.563 182.817 348.412C183.614 349.244 184.611 349.66 185.807 349.66ZM209.511 335.204C211.487 335.204 213.194 335.568 214.633 336.296C216.071 337.024 217.163 338.047 217.909 339.364C218.671 340.664 219.053 342.181 219.053 343.914C219.053 345.301 218.81 346.627 218.325 347.892C217.857 349.157 217.172 350.189 216.271 350.986C215.387 351.783 214.338 352.182 213.125 352.182C212.241 352.182 211.547 351.991 211.045 351.61C210.542 351.211 210.23 350.657 210.109 349.946C209.571 350.639 208.895 351.185 208.081 351.584C207.266 351.983 206.417 352.182 205.533 352.182C204.198 352.182 203.149 351.783 202.387 350.986C201.641 350.171 201.269 349.071 201.269 347.684C201.269 346.367 201.537 345.136 202.075 343.992C202.629 342.848 203.401 341.938 204.389 341.262C205.377 340.569 206.486 340.222 207.717 340.222C209.225 340.222 210.282 340.733 210.889 341.756L211.123 340.456H213.697L212.397 347.892C212.345 348.256 212.319 348.577 212.319 348.854C212.319 349.305 212.405 349.643 212.579 349.868C212.769 350.093 213.099 350.206 213.567 350.206C214.225 350.206 214.789 349.885 215.257 349.244C215.725 348.585 216.071 347.779 216.297 346.826C216.539 345.873 216.661 344.945 216.661 344.044C216.661 341.843 216.019 340.161 214.737 339C213.454 337.839 211.591 337.258 209.147 337.258C207.101 337.258 205.264 337.743 203.635 338.714C202.023 339.685 200.757 341.019 199.839 342.718C198.92 344.417 198.461 346.306 198.461 348.386C198.461 350.605 199.119 352.295 200.437 353.456C201.754 354.617 203.635 355.198 206.079 355.198C207.725 355.198 209.164 354.895 210.395 354.288L210.785 356.264C209.207 356.94 207.439 357.278 205.481 357.278C203.591 357.278 201.936 356.923 200.515 356.212C199.093 355.501 197.993 354.487 197.213 353.17C196.433 351.87 196.043 350.353 196.043 348.62C196.043 346.141 196.615 343.879 197.759 341.834C198.92 339.789 200.523 338.177 202.569 336.998C204.614 335.802 206.928 335.204 209.511 335.204ZM206.443 349.894C207.171 349.894 207.829 349.686 208.419 349.27C209.025 348.837 209.502 348.273 209.849 347.58C210.195 346.869 210.369 346.115 210.369 345.318C210.369 344.486 210.135 343.81 209.667 343.29C209.216 342.753 208.575 342.484 207.743 342.484C206.997 342.484 206.339 342.718 205.767 343.186C205.212 343.637 204.779 344.226 204.467 344.954C204.172 345.682 204.025 346.445 204.025 347.242C204.025 348.057 204.224 348.707 204.623 349.192C205.021 349.66 205.628 349.894 206.443 349.894ZM228.839 340.092H226.187V352H223.197V340.092H221.507V337.674H223.197V336.66C223.197 335.013 223.63 333.817 224.497 333.072C225.381 332.309 226.759 331.928 228.631 331.928V334.398C227.729 334.398 227.097 334.571 226.733 334.918C226.369 335.247 226.187 335.828 226.187 336.66V337.674H228.839V340.092ZM232.974 335.776C232.436 335.776 231.986 335.594 231.622 335.23C231.258 334.866 231.076 334.415 231.076 333.878C231.076 333.341 231.258 332.89 231.622 332.526C231.986 332.162 232.436 331.98 232.974 331.98C233.494 331.98 233.936 332.162 234.3 332.526C234.664 332.89 234.846 333.341 234.846 333.878C234.846 334.415 234.664 334.866 234.3 335.23C233.936 335.594 233.494 335.776 232.974 335.776ZM234.43 337.674V352H231.466V337.674H234.43ZM241.285 332.76V352H238.321V332.76H241.285ZM244.189 344.772C244.189 343.333 244.483 342.059 245.073 340.95C245.679 339.841 246.494 338.983 247.517 338.376C248.557 337.752 249.701 337.44 250.949 337.44C252.075 337.44 253.055 337.665 253.887 338.116C254.736 338.549 255.412 339.095 255.915 339.754V337.674H258.905V352H255.915V349.868C255.412 350.544 254.727 351.107 253.861 351.558C252.994 352.009 252.006 352.234 250.897 352.234C249.666 352.234 248.539 351.922 247.517 351.298C246.494 350.657 245.679 349.773 245.073 348.646C244.483 347.502 244.189 346.211 244.189 344.772ZM255.915 344.824C255.915 343.836 255.707 342.978 255.291 342.25C254.892 341.522 254.363 340.967 253.705 340.586C253.046 340.205 252.335 340.014 251.573 340.014C250.81 340.014 250.099 340.205 249.441 340.586C248.782 340.95 248.245 341.496 247.829 342.224C247.43 342.935 247.231 343.784 247.231 344.772C247.231 345.76 247.43 346.627 247.829 347.372C248.245 348.117 248.782 348.689 249.441 349.088C250.117 349.469 250.827 349.66 251.573 349.66C252.335 349.66 253.046 349.469 253.705 349.088C254.363 348.707 254.892 348.152 255.291 347.424C255.707 346.679 255.915 345.812 255.915 344.824ZM265.762 339.754C266.195 339.026 266.767 338.463 267.478 338.064C268.206 337.648 269.064 337.44 270.052 337.44V340.508H269.298C268.136 340.508 267.252 340.803 266.646 341.392C266.056 341.981 265.762 343.004 265.762 344.46V352H262.798V337.674H265.762V339.754ZM274.284 335.776C273.747 335.776 273.296 335.594 272.932 335.23C272.568 334.866 272.386 334.415 272.386 333.878C272.386 333.341 272.568 332.89 272.932 332.526C273.296 332.162 273.747 331.98 274.284 331.98C274.804 331.98 275.246 332.162 275.61 332.526C275.974 332.89 276.156 333.341 276.156 333.878C276.156 334.415 275.974 334.866 275.61 335.23C275.246 335.594 274.804 335.776 274.284 335.776ZM275.74 337.674V352H272.776V337.674H275.74ZM280.828 352.182C280.29 352.182 279.84 352 279.476 351.636C279.112 351.272 278.93 350.821 278.93 350.284C278.93 349.747 279.112 349.296 279.476 348.932C279.84 348.568 280.29 348.386 280.828 348.386C281.348 348.386 281.79 348.568 282.154 348.932C282.518 349.296 282.7 349.747 282.7 350.284C282.7 350.821 282.518 351.272 282.154 351.636C281.79 352 281.348 352.182 280.828 352.182ZM284.915 344.772C284.915 343.333 285.21 342.059 285.799 340.95C286.406 339.841 287.22 338.983 288.243 338.376C289.283 337.752 290.427 337.44 291.675 337.44C292.802 337.44 293.781 337.665 294.613 338.116C295.462 338.549 296.138 339.095 296.641 339.754V337.674H299.631V352H296.641V349.868C296.138 350.544 295.454 351.107 294.587 351.558C293.72 352.009 292.732 352.234 291.623 352.234C290.392 352.234 289.266 351.922 288.243 351.298C287.22 350.657 286.406 349.773 285.799 348.646C285.21 347.502 284.915 346.211 284.915 344.772ZM296.641 344.824C296.641 343.836 296.433 342.978 296.017 342.25C295.618 341.522 295.09 340.967 294.431 340.586C293.772 340.205 293.062 340.014 292.299 340.014C291.536 340.014 290.826 340.205 290.167 340.586C289.508 340.95 288.971 341.496 288.555 342.224C288.156 342.935 287.957 343.784 287.957 344.772C287.957 345.76 288.156 346.627 288.555 347.372C288.971 348.117 289.508 348.689 290.167 349.088C290.843 349.469 291.554 349.66 292.299 349.66C293.062 349.66 293.772 349.469 294.431 349.088C295.09 348.707 295.618 348.152 296.017 347.424C296.433 346.679 296.641 345.812 296.641 344.824ZM309.296 337.44C310.406 337.44 311.385 337.665 312.234 338.116C313.101 338.549 313.777 339.095 314.262 339.754V337.674H317.252V352.234C317.252 353.551 316.975 354.721 316.42 355.744C315.866 356.784 315.06 357.599 314.002 358.188C312.962 358.777 311.714 359.072 310.258 359.072C308.317 359.072 306.705 358.613 305.422 357.694C304.14 356.793 303.412 355.562 303.238 354.002H306.176C306.402 354.747 306.878 355.345 307.606 355.796C308.352 356.264 309.236 356.498 310.258 356.498C311.454 356.498 312.416 356.134 313.144 355.406C313.89 354.678 314.262 353.621 314.262 352.234V349.842C313.76 350.518 313.075 351.09 312.208 351.558C311.359 352.009 310.388 352.234 309.296 352.234C308.048 352.234 306.904 351.922 305.864 351.298C304.842 350.657 304.027 349.773 303.42 348.646C302.831 347.502 302.536 346.211 302.536 344.772C302.536 343.333 302.831 342.059 303.42 340.95C304.027 339.841 304.842 338.983 305.864 338.376C306.904 337.752 308.048 337.44 309.296 337.44ZM314.262 344.824C314.262 343.836 314.054 342.978 313.638 342.25C313.24 341.522 312.711 340.967 312.052 340.586C311.394 340.205 310.683 340.014 309.92 340.014C309.158 340.014 308.447 340.205 307.788 340.586C307.13 340.95 306.592 341.496 306.176 342.224C305.778 342.935 305.578 343.784 305.578 344.772C305.578 345.76 305.778 346.627 306.176 347.372C306.592 348.117 307.13 348.689 307.788 349.088C308.464 349.469 309.175 349.66 309.92 349.66C310.683 349.66 311.394 349.469 312.052 349.088C312.711 348.707 313.24 348.152 313.638 347.424C314.054 346.679 314.262 345.812 314.262 344.824ZM334.275 344.486C334.275 345.023 334.241 345.509 334.171 345.942H323.225C323.312 347.086 323.737 348.005 324.499 348.698C325.262 349.391 326.198 349.738 327.307 349.738C328.902 349.738 330.029 349.071 330.687 347.736H333.885C333.452 349.053 332.663 350.137 331.519 350.986C330.393 351.818 328.989 352.234 327.307 352.234C325.938 352.234 324.707 351.931 323.615 351.324C322.541 350.7 321.691 349.833 321.067 348.724C320.461 347.597 320.157 346.297 320.157 344.824C320.157 343.351 320.452 342.059 321.041 340.95C321.648 339.823 322.489 338.957 323.563 338.35C324.655 337.743 325.903 337.44 327.307 337.44C328.659 337.44 329.864 337.735 330.921 338.324C331.979 338.913 332.802 339.745 333.391 340.82C333.981 341.877 334.275 343.099 334.275 344.486ZM331.181 343.55C331.164 342.458 330.774 341.583 330.011 340.924C329.249 340.265 328.304 339.936 327.177 339.936C326.155 339.936 325.279 340.265 324.551 340.924C323.823 341.565 323.39 342.441 323.251 343.55H331.181ZM344.42 337.44C345.547 337.44 346.552 337.674 347.436 338.142C348.338 338.61 349.04 339.303 349.542 340.222C350.045 341.141 350.296 342.25 350.296 343.55V352H347.358V343.992C347.358 342.709 347.038 341.73 346.396 341.054C345.755 340.361 344.88 340.014 343.77 340.014C342.661 340.014 341.777 340.361 341.118 341.054C340.477 341.73 340.156 342.709 340.156 343.992V352H337.192V337.674H340.156V339.312C340.642 338.723 341.257 338.263 342.002 337.934C342.765 337.605 343.571 337.44 344.42 337.44ZM353.089 344.824C353.089 343.351 353.384 342.059 353.973 340.95C354.58 339.823 355.412 338.957 356.469 338.35C357.526 337.743 358.74 337.44 360.109 337.44C361.842 337.44 363.272 337.856 364.399 338.688C365.543 339.503 366.314 340.673 366.713 342.198H363.515C363.255 341.487 362.839 340.933 362.267 340.534C361.695 340.135 360.976 339.936 360.109 339.936C358.896 339.936 357.925 340.369 357.197 341.236C356.486 342.085 356.131 343.281 356.131 344.824C356.131 346.367 356.486 347.571 357.197 348.438C357.925 349.305 358.896 349.738 360.109 349.738C361.825 349.738 362.96 348.984 363.515 347.476H366.713C366.297 348.932 365.517 350.093 364.373 350.96C363.229 351.809 361.808 352.234 360.109 352.234C358.74 352.234 357.526 351.931 356.469 351.324C355.412 350.7 354.58 349.833 353.973 348.724C353.384 347.597 353.089 346.297 353.089 344.824ZM382.563 337.674L373.775 358.734H370.707L373.619 351.766L367.977 337.674H371.279L375.309 348.594L379.495 337.674H382.563ZM138.956 407.092H136.304V419H133.314V407.092H131.624V404.674H133.314V403.66C133.314 402.013 133.747 400.817 134.614 400.072C135.498 399.309 136.876 398.928 138.748 398.928V401.398C137.847 401.398 137.214 401.571 136.85 401.918C136.486 402.247 136.304 402.828 136.304 403.66V404.674H138.956V407.092ZM143.091 402.776C142.553 402.776 142.103 402.594 141.739 402.23C141.375 401.866 141.193 401.415 141.193 400.878C141.193 400.341 141.375 399.89 141.739 399.526C142.103 399.162 142.553 398.98 143.091 398.98C143.611 398.98 144.053 399.162 144.417 399.526C144.781 399.89 144.963 400.341 144.963 400.878C144.963 401.415 144.781 401.866 144.417 402.23C144.053 402.594 143.611 402.776 143.091 402.776ZM144.547 404.674V419H141.583V404.674H144.547ZM151.402 399.76V419H148.438V399.76H151.402ZM154.306 411.772C154.306 410.333 154.6 409.059 155.19 407.95C155.796 406.841 156.611 405.983 157.634 405.376C158.674 404.752 159.818 404.44 161.066 404.44C162.192 404.44 163.172 404.665 164.004 405.116C164.853 405.549 165.529 406.095 166.032 406.754V404.674H169.022V419H166.032V416.868C165.529 417.544 164.844 418.107 163.978 418.558C163.111 419.009 162.123 419.234 161.014 419.234C159.783 419.234 158.656 418.922 157.634 418.298C156.611 417.657 155.796 416.773 155.19 415.646C154.6 414.502 154.306 413.211 154.306 411.772ZM166.032 411.824C166.032 410.836 165.824 409.978 165.408 409.25C165.009 408.522 164.48 407.967 163.822 407.586C163.163 407.205 162.452 407.014 161.69 407.014C160.927 407.014 160.216 407.205 159.558 407.586C158.899 407.95 158.362 408.496 157.946 409.224C157.547 409.935 157.348 410.784 157.348 411.772C157.348 412.76 157.547 413.627 157.946 414.372C158.362 415.117 158.899 415.689 159.558 416.088C160.234 416.469 160.944 416.66 161.69 416.66C162.452 416.66 163.163 416.469 163.822 416.088C164.48 415.707 165.009 415.152 165.408 414.424C165.824 413.679 166.032 412.812 166.032 411.824ZM175.879 406.754C176.312 406.026 176.884 405.463 177.595 405.064C178.323 404.648 179.181 404.44 180.169 404.44V407.508H179.415C178.254 407.508 177.37 407.803 176.763 408.392C176.174 408.981 175.879 410.004 175.879 411.46V419H172.915V404.674H175.879V406.754ZM184.401 402.776C183.864 402.776 183.413 402.594 183.049 402.23C182.685 401.866 182.503 401.415 182.503 400.878C182.503 400.341 182.685 399.89 183.049 399.526C183.413 399.162 183.864 398.98 184.401 398.98C184.921 398.98 185.363 399.162 185.727 399.526C186.091 399.89 186.273 400.341 186.273 400.878C186.273 401.415 186.091 401.866 185.727 402.23C185.363 402.594 184.921 402.776 184.401 402.776ZM185.857 404.674V419H182.893V404.674H185.857ZM190.945 419.182C190.407 419.182 189.957 419 189.593 418.636C189.229 418.272 189.047 417.821 189.047 417.284C189.047 416.747 189.229 416.296 189.593 415.932C189.957 415.568 190.407 415.386 190.945 415.386C191.465 415.386 191.907 415.568 192.271 415.932C192.635 416.296 192.817 416.747 192.817 417.284C192.817 417.821 192.635 418.272 192.271 418.636C191.907 419 191.465 419.182 190.945 419.182ZM195.032 411.772C195.032 410.333 195.327 409.059 195.916 407.95C196.523 406.841 197.338 405.983 198.36 405.376C199.4 404.752 200.544 404.44 201.792 404.44C202.919 404.44 203.898 404.665 204.73 405.116C205.58 405.549 206.256 406.095 206.758 406.754V404.674H209.748V419H206.758V416.868C206.256 417.544 205.571 418.107 204.704 418.558C203.838 419.009 202.85 419.234 201.74 419.234C200.51 419.234 199.383 418.922 198.36 418.298C197.338 417.657 196.523 416.773 195.916 415.646C195.327 414.502 195.032 413.211 195.032 411.772ZM206.758 411.824C206.758 410.836 206.55 409.978 206.134 409.25C205.736 408.522 205.207 407.967 204.548 407.586C203.89 407.205 203.179 407.014 202.416 407.014C201.654 407.014 200.943 407.205 200.284 407.586C199.626 407.95 199.088 408.496 198.672 409.224C198.274 409.935 198.074 410.784 198.074 411.772C198.074 412.76 198.274 413.627 198.672 414.372C199.088 415.117 199.626 415.689 200.284 416.088C200.96 416.469 201.671 416.66 202.416 416.66C203.179 416.66 203.89 416.469 204.548 416.088C205.207 415.707 205.736 415.152 206.134 414.424C206.55 413.679 206.758 412.812 206.758 411.824ZM219.413 404.44C220.523 404.44 221.502 404.665 222.351 405.116C223.218 405.549 223.894 406.095 224.379 406.754V404.674H227.369V419.234C227.369 420.551 227.092 421.721 226.537 422.744C225.983 423.784 225.177 424.599 224.119 425.188C223.079 425.777 221.831 426.072 220.375 426.072C218.434 426.072 216.822 425.613 215.539 424.694C214.257 423.793 213.529 422.562 213.355 421.002H216.293C216.519 421.747 216.995 422.345 217.723 422.796C218.469 423.264 219.353 423.498 220.375 423.498C221.571 423.498 222.533 423.134 223.261 422.406C224.007 421.678 224.379 420.621 224.379 419.234V416.842C223.877 417.518 223.192 418.09 222.325 418.558C221.476 419.009 220.505 419.234 219.413 419.234C218.165 419.234 217.021 418.922 215.981 418.298C214.959 417.657 214.144 416.773 213.537 415.646C212.948 414.502 212.653 413.211 212.653 411.772C212.653 410.333 212.948 409.059 213.537 407.95C214.144 406.841 214.959 405.983 215.981 405.376C217.021 404.752 218.165 404.44 219.413 404.44ZM224.379 411.824C224.379 410.836 224.171 409.978 223.755 409.25C223.357 408.522 222.828 407.967 222.169 407.586C221.511 407.205 220.8 407.014 220.037 407.014C219.275 407.014 218.564 407.205 217.905 407.586C217.247 407.95 216.709 408.496 216.293 409.224C215.895 409.935 215.695 410.784 215.695 411.772C215.695 412.76 215.895 413.627 216.293 414.372C216.709 415.117 217.247 415.689 217.905 416.088C218.581 416.469 219.292 416.66 220.037 416.66C220.8 416.66 221.511 416.469 222.169 416.088C222.828 415.707 223.357 415.152 223.755 414.424C224.171 413.679 224.379 412.812 224.379 411.824ZM244.393 411.486C244.393 412.023 244.358 412.509 244.289 412.942H233.343C233.429 414.086 233.854 415.005 234.617 415.698C235.379 416.391 236.315 416.738 237.425 416.738C239.019 416.738 240.146 416.071 240.805 414.736H244.002C243.569 416.053 242.781 417.137 241.637 417.986C240.51 418.818 239.106 419.234 237.425 419.234C236.055 419.234 234.825 418.931 233.733 418.324C232.658 417.7 231.809 416.833 231.185 415.724C230.578 414.597 230.275 413.297 230.275 411.824C230.275 410.351 230.569 409.059 231.159 407.95C231.765 406.823 232.606 405.957 233.681 405.35C234.773 404.743 236.021 404.44 237.425 404.44C238.777 404.44 239.981 404.735 241.039 405.324C242.096 405.913 242.919 406.745 243.509 407.82C244.098 408.877 244.393 410.099 244.393 411.486ZM241.299 410.55C241.281 409.458 240.891 408.583 240.129 407.924C239.366 407.265 238.421 406.936 237.295 406.936C236.272 406.936 235.397 407.265 234.669 407.924C233.941 408.565 233.507 409.441 233.369 410.55H241.299ZM254.537 404.44C255.664 404.44 256.669 404.674 257.553 405.142C258.455 405.61 259.157 406.303 259.659 407.222C260.162 408.141 260.413 409.25 260.413 410.55V419H257.475V410.992C257.475 409.709 257.155 408.73 256.513 408.054C255.872 407.361 254.997 407.014 253.887 407.014C252.778 407.014 251.894 407.361 251.235 408.054C250.594 408.73 250.273 409.709 250.273 410.992V419H247.309V404.674H250.273V406.312C250.759 405.723 251.374 405.263 252.119 404.934C252.882 404.605 253.688 404.44 254.537 404.44ZM263.206 411.824C263.206 410.351 263.501 409.059 264.09 407.95C264.697 406.823 265.529 405.957 266.586 405.35C267.643 404.743 268.857 404.44 270.226 404.44C271.959 404.44 273.389 404.856 274.516 405.688C275.66 406.503 276.431 407.673 276.83 409.198H273.632C273.372 408.487 272.956 407.933 272.384 407.534C271.812 407.135 271.093 406.936 270.226 406.936C269.013 406.936 268.042 407.369 267.314 408.236C266.603 409.085 266.248 410.281 266.248 411.824C266.248 413.367 266.603 414.571 267.314 415.438C268.042 416.305 269.013 416.738 270.226 416.738C271.942 416.738 273.077 415.984 273.632 414.476H276.83C276.414 415.932 275.634 417.093 274.49 417.96C273.346 418.809 271.925 419.234 270.226 419.234C268.857 419.234 267.643 418.931 266.586 418.324C265.529 417.7 264.697 416.833 264.09 415.724C263.501 414.597 263.206 413.297 263.206 411.824ZM292.68 404.674L283.892 425.734H280.824L283.736 418.766L278.094 404.674H281.396L285.426 415.594L289.612 404.674H292.68ZM146.912 477.862H141.66V483.244H138.904V477.862H133.652V475.366H138.904V469.984H141.66V475.366H146.912V477.862ZM154.813 480.852C154.986 481.719 155.359 482.377 155.931 482.828C156.503 483.279 157.274 483.504 158.245 483.504C159.475 483.504 160.377 483.019 160.949 482.048C161.521 481.077 161.807 479.422 161.807 477.082C161.391 477.671 160.801 478.131 160.039 478.46C159.293 478.772 158.479 478.928 157.595 478.928C156.468 478.928 155.445 478.703 154.527 478.252C153.608 477.784 152.88 477.099 152.343 476.198C151.823 475.279 151.563 474.17 151.563 472.87C151.563 470.963 152.117 469.447 153.227 468.32C154.353 467.176 155.896 466.604 157.855 466.604C160.212 466.604 161.885 467.393 162.873 468.97C163.878 470.53 164.381 472.931 164.381 476.172C164.381 478.408 164.19 480.237 163.809 481.658C163.445 483.079 162.803 484.154 161.885 484.882C160.966 485.61 159.692 485.974 158.063 485.974C156.208 485.974 154.778 485.489 153.773 484.518C152.767 483.547 152.204 482.325 152.083 480.852H154.813ZM158.115 476.432C159.155 476.432 159.969 476.111 160.559 475.47C161.165 474.811 161.469 473.945 161.469 472.87C161.469 471.674 161.148 470.747 160.507 470.088C159.883 469.412 159.025 469.074 157.933 469.074C156.841 469.074 155.974 469.421 155.333 470.114C154.709 470.79 154.397 471.683 154.397 472.792C154.397 473.849 154.7 474.725 155.307 475.418C155.931 476.094 156.867 476.432 158.115 476.432ZM167.234 469.75V467.046H172.642V486H169.652V469.75H167.234ZM187.16 480.852C187.334 481.719 187.706 482.377 188.278 482.828C188.85 483.279 189.622 483.504 190.592 483.504C191.823 483.504 192.724 483.019 193.296 482.048C193.868 481.077 194.154 479.422 194.154 477.082C193.738 477.671 193.149 478.131 192.386 478.46C191.641 478.772 190.826 478.928 189.942 478.928C188.816 478.928 187.793 478.703 186.874 478.252C185.956 477.784 185.228 477.099 184.69 476.198C184.17 475.279 183.91 474.17 183.91 472.87C183.91 470.963 184.465 469.447 185.574 468.32C186.701 467.176 188.244 466.604 190.202 466.604C192.56 466.604 194.232 467.393 195.22 468.97C196.226 470.53 196.728 472.931 196.728 476.172C196.728 478.408 196.538 480.237 196.156 481.658C195.792 483.079 195.151 484.154 194.232 484.882C193.314 485.61 192.04 485.974 190.41 485.974C188.556 485.974 187.126 485.489 186.12 484.518C185.115 483.547 184.552 482.325 184.43 480.852H187.16ZM190.462 476.432C191.502 476.432 192.317 476.111 192.906 475.47C193.513 474.811 193.816 473.945 193.816 472.87C193.816 471.674 193.496 470.747 192.854 470.088C192.23 469.412 191.372 469.074 190.28 469.074C189.188 469.074 188.322 469.421 187.68 470.114C187.056 470.79 186.744 471.683 186.744 472.792C186.744 473.849 187.048 474.725 187.654 475.418C188.278 476.094 189.214 476.432 190.462 476.432ZM199.92 471.726C200.024 470.114 200.639 468.857 201.766 467.956C202.91 467.055 204.366 466.604 206.134 466.604C207.347 466.604 208.396 466.821 209.28 467.254C210.164 467.687 210.831 468.277 211.282 469.022C211.733 469.767 211.958 470.608 211.958 471.544C211.958 472.619 211.672 473.537 211.1 474.3C210.528 475.063 209.843 475.574 209.046 475.834V475.938C210.069 476.25 210.866 476.822 211.438 477.654C212.01 478.469 212.296 479.517 212.296 480.8C212.296 481.823 212.062 482.733 211.594 483.53C211.126 484.327 210.433 484.96 209.514 485.428C208.595 485.879 207.495 486.104 206.212 486.104C204.34 486.104 202.797 485.627 201.584 484.674C200.388 483.703 199.747 482.317 199.66 480.514H202.52C202.589 481.433 202.945 482.187 203.586 482.776C204.227 483.348 205.094 483.634 206.186 483.634C207.243 483.634 208.058 483.348 208.63 482.776C209.202 482.187 209.488 481.433 209.488 480.514C209.488 479.301 209.098 478.443 208.318 477.94C207.555 477.42 206.377 477.16 204.782 477.16H204.106V474.716H204.808C206.212 474.699 207.278 474.465 208.006 474.014C208.751 473.563 209.124 472.853 209.124 471.882C209.124 471.05 208.855 470.391 208.318 469.906C207.781 469.403 207.018 469.152 206.03 469.152C205.059 469.152 204.305 469.403 203.768 469.906C203.231 470.391 202.91 470.998 202.806 471.726H199.92ZM215.02 469.75V467.046H220.428V486H217.438V469.75H215.02ZM224.499 476.276C224.499 473.277 225.002 470.937 226.007 469.256C227.03 467.557 228.781 466.708 231.259 466.708C233.738 466.708 235.48 467.557 236.485 469.256C237.508 470.937 238.019 473.277 238.019 476.276C238.019 479.309 237.508 481.684 236.485 483.4C235.48 485.099 233.738 485.948 231.259 485.948C228.781 485.948 227.03 485.099 226.007 483.4C225.002 481.684 224.499 479.309 224.499 476.276ZM235.107 476.276C235.107 474.872 235.012 473.685 234.821 472.714C234.648 471.743 234.284 470.955 233.729 470.348C233.175 469.724 232.351 469.412 231.259 469.412C230.167 469.412 229.344 469.724 228.789 470.348C228.235 470.955 227.862 471.743 227.671 472.714C227.498 473.685 227.411 474.872 227.411 476.276C227.411 477.732 227.498 478.954 227.671 479.942C227.845 480.93 228.209 481.727 228.763 482.334C229.335 482.941 230.167 483.244 231.259 483.244C232.351 483.244 233.175 482.941 233.729 482.334C234.301 481.727 234.674 480.93 234.847 479.942C235.021 478.954 235.107 477.732 235.107 476.276ZM241.156 476.276C241.156 473.277 241.658 470.937 242.664 469.256C243.686 467.557 245.437 466.708 247.916 466.708C250.394 466.708 252.136 467.557 253.142 469.256C254.164 470.937 254.676 473.277 254.676 476.276C254.676 479.309 254.164 481.684 253.142 483.4C252.136 485.099 250.394 485.948 247.916 485.948C245.437 485.948 243.686 485.099 242.664 483.4C241.658 481.684 241.156 479.309 241.156 476.276ZM251.764 476.276C251.764 474.872 251.668 473.685 251.478 472.714C251.304 471.743 250.94 470.955 250.386 470.348C249.831 469.724 249.008 469.412 247.916 469.412C246.824 469.412 246 469.724 245.446 470.348C244.891 470.955 244.518 471.743 244.328 472.714C244.154 473.685 244.068 474.872 244.068 476.276C244.068 477.732 244.154 478.954 244.328 479.942C244.501 480.93 244.865 481.727 245.42 482.334C245.992 482.941 246.824 483.244 247.916 483.244C249.008 483.244 249.831 482.941 250.386 482.334C250.958 481.727 251.33 480.93 251.504 479.942C251.677 478.954 251.764 477.732 251.764 476.276ZM257.422 469.75V467.046H262.83V486H259.84V469.75H257.422ZM266.85 471.726C266.954 470.114 267.569 468.857 268.696 467.956C269.84 467.055 271.296 466.604 273.064 466.604C274.277 466.604 275.326 466.821 276.21 467.254C277.094 467.687 277.761 468.277 278.212 469.022C278.662 469.767 278.888 470.608 278.888 471.544C278.888 472.619 278.602 473.537 278.03 474.3C277.458 475.063 276.773 475.574 275.976 475.834V475.938C276.998 476.25 277.796 476.822 278.368 477.654C278.94 478.469 279.226 479.517 279.226 480.8C279.226 481.823 278.992 482.733 278.524 483.53C278.056 484.327 277.362 484.96 276.444 485.428C275.525 485.879 274.424 486.104 273.142 486.104C271.27 486.104 269.727 485.627 268.514 484.674C267.318 483.703 266.676 482.317 266.59 480.514H269.45C269.519 481.433 269.874 482.187 270.516 482.776C271.157 483.348 272.024 483.634 273.116 483.634C274.173 483.634 274.988 483.348 275.56 482.776C276.132 482.187 276.418 481.433 276.418 480.514C276.418 479.301 276.028 478.443 275.248 477.94C274.485 477.42 273.306 477.16 271.712 477.16H271.036V474.716H271.738C273.142 474.699 274.208 474.465 274.936 474.014C275.681 473.563 276.054 472.853 276.054 471.882C276.054 471.05 275.785 470.391 275.248 469.906C274.71 469.403 273.948 469.152 272.96 469.152C271.989 469.152 271.235 469.403 270.698 469.906C270.16 470.391 269.84 470.998 269.736 471.726H266.85ZM282.287 471.726C282.391 470.114 283.007 468.857 284.133 467.956C285.277 467.055 286.733 466.604 288.501 466.604C289.715 466.604 290.763 466.821 291.647 467.254C292.531 467.687 293.199 468.277 293.649 469.022C294.1 469.767 294.325 470.608 294.325 471.544C294.325 472.619 294.039 473.537 293.467 474.3C292.895 475.063 292.211 475.574 291.413 475.834V475.938C292.436 476.25 293.233 476.822 293.805 477.654C294.377 478.469 294.663 479.517 294.663 480.8C294.663 481.823 294.429 482.733 293.961 483.53C293.493 484.327 292.8 484.96 291.881 485.428C290.963 485.879 289.862 486.104 288.579 486.104C286.707 486.104 285.165 485.627 283.951 484.674C282.755 483.703 282.114 482.317 282.027 480.514H284.887C284.957 481.433 285.312 482.187 285.953 482.776C286.595 483.348 287.461 483.634 288.553 483.634C289.611 483.634 290.425 483.348 290.997 482.776C291.569 482.187 291.855 481.433 291.855 480.514C291.855 479.301 291.465 478.443 290.685 477.94C289.923 477.42 288.744 477.16 287.149 477.16H286.473V474.716H287.175C288.579 474.699 289.645 474.465 290.373 474.014C291.119 473.563 291.491 472.853 291.491 471.882C291.491 471.05 291.223 470.391 290.685 469.906C290.148 469.403 289.385 469.152 288.397 469.152C287.427 469.152 286.673 469.403 286.135 469.906C285.598 470.391 285.277 470.998 285.173 471.726H282.287ZM300.975 476.094C299.172 475.193 298.271 473.771 298.271 471.83C298.271 470.894 298.505 470.036 298.973 469.256C299.441 468.476 300.143 467.861 301.079 467.41C302.015 466.942 303.159 466.708 304.511 466.708C305.845 466.708 306.981 466.942 307.917 467.41C308.87 467.861 309.581 468.476 310.049 469.256C310.517 470.036 310.751 470.894 310.751 471.83C310.751 472.801 310.499 473.659 309.997 474.404C309.511 475.132 308.861 475.695 308.047 476.094C309.035 476.458 309.815 477.056 310.387 477.888C310.959 478.703 311.245 479.665 311.245 480.774C311.245 481.901 310.959 482.897 310.387 483.764C309.815 484.631 309.017 485.298 307.995 485.766C306.972 486.234 305.811 486.468 304.511 486.468C303.211 486.468 302.049 486.234 301.027 485.766C300.021 485.298 299.233 484.631 298.661 483.764C298.089 482.897 297.803 481.901 297.803 480.774C297.803 479.647 298.089 478.677 298.661 477.862C299.233 477.047 300.004 476.458 300.975 476.094ZM307.917 472.194C307.917 471.223 307.613 470.478 307.007 469.958C306.4 469.438 305.568 469.178 304.511 469.178C303.471 469.178 302.647 469.438 302.041 469.958C301.434 470.478 301.131 471.232 301.131 472.22C301.131 473.087 301.443 473.797 302.067 474.352C302.708 474.889 303.523 475.158 304.511 475.158C305.499 475.158 306.313 474.881 306.955 474.326C307.596 473.771 307.917 473.061 307.917 472.194ZM304.511 477.394C303.367 477.394 302.431 477.68 301.703 478.252C300.992 478.807 300.637 479.613 300.637 480.67C300.637 481.658 300.983 482.464 301.677 483.088C302.37 483.695 303.315 483.998 304.511 483.998C305.689 483.998 306.617 483.686 307.293 483.062C307.986 482.438 308.333 481.641 308.333 480.67C308.333 479.63 307.977 478.824 307.267 478.252C306.573 477.68 305.655 477.394 304.511 477.394ZM317.555 476.094C315.752 475.193 314.851 473.771 314.851 471.83C314.851 470.894 315.085 470.036 315.553 469.256C316.021 468.476 316.723 467.861 317.659 467.41C318.595 466.942 319.739 466.708 321.091 466.708C322.426 466.708 323.561 466.942 324.497 467.41C325.45 467.861 326.161 468.476 326.629 469.256C327.097 470.036 327.331 470.894 327.331 471.83C327.331 472.801 327.08 473.659 326.577 474.404C326.092 475.132 325.442 475.695 324.627 476.094C325.615 476.458 326.395 477.056 326.967 477.888C327.539 478.703 327.825 479.665 327.825 480.774C327.825 481.901 327.539 482.897 326.967 483.764C326.395 484.631 325.598 485.298 324.575 485.766C323.552 486.234 322.391 486.468 321.091 486.468C319.791 486.468 318.63 486.234 317.607 485.766C316.602 485.298 315.813 484.631 315.241 483.764C314.669 482.897 314.383 481.901 314.383 480.774C314.383 479.647 314.669 478.677 315.241 477.862C315.813 477.047 316.584 476.458 317.555 476.094ZM324.497 472.194C324.497 471.223 324.194 470.478 323.587 469.958C322.98 469.438 322.148 469.178 321.091 469.178C320.051 469.178 319.228 469.438 318.621 469.958C318.014 470.478 317.711 471.232 317.711 472.22C317.711 473.087 318.023 473.797 318.647 474.352C319.288 474.889 320.103 475.158 321.091 475.158C322.079 475.158 322.894 474.881 323.535 474.326C324.176 473.771 324.497 473.061 324.497 472.194ZM321.091 477.394C319.947 477.394 319.011 477.68 318.283 478.252C317.572 478.807 317.217 479.613 317.217 480.67C317.217 481.658 317.564 482.464 318.257 483.088C318.95 483.695 319.895 483.998 321.091 483.998C322.27 483.998 323.197 483.686 323.873 483.062C324.566 482.438 324.913 481.641 324.913 480.67C324.913 479.63 324.558 478.824 323.847 478.252C323.154 477.68 322.235 477.394 321.091 477.394Z" fill="#444444"/>
<path d="M107.25 412H105.75C105.551 412 105.36 412.079 105.22 412.22C105.079 412.36 105 412.551 105 412.75V418H90V403H96.75C96.9489 403 97.1397 402.921 97.2803 402.78C97.421 402.64 97.5 402.449 97.5 402.25V400.75C97.5 400.551 97.421 400.36 97.2803 400.22C97.1397 400.079 96.9489 400 96.75 400H89.25C88.6533 400 88.081 400.237 87.659 400.659C87.2371 401.081 87 401.653 87 402.25V418.75C87 419.347 87.2371 419.919 87.659 420.341C88.081 420.763 88.6533 421 89.25 421H105.75C106.347 421 106.919 420.763 107.341 420.341C107.763 419.919 108 419.347 108 418.75V412.75C108 412.551 107.921 412.36 107.78 412.22C107.64 412.079 107.449 412 107.25 412ZM109.875 397H103.875C102.873 397 102.373 398.215 103.078 398.922L104.753 400.597L93.3281 412.017C93.2232 412.122 93.14 412.246 93.0832 412.383C93.0265 412.52 92.9972 412.666 92.9972 412.814C92.9972 412.962 93.0265 413.109 93.0832 413.246C93.14 413.382 93.2232 413.507 93.3281 413.611L94.3908 414.672C94.4953 414.777 94.6195 414.86 94.7562 414.917C94.893 414.974 95.0396 415.003 95.1877 415.003C95.3357 415.003 95.4823 414.974 95.6191 414.917C95.7558 414.86 95.88 414.777 95.9845 414.672L107.404 403.249L109.078 404.922C109.781 405.625 111 405.133 111 404.125V398.125C111 397.827 110.881 397.54 110.67 397.33C110.46 397.119 110.173 397 109.875 397V397Z" fill="#030087"/>
<path d="M146.912 518.862H141.66V524.244H138.904V518.862H133.652V516.366H138.904V510.984H141.66V516.366H146.912V518.862ZM154.813 521.852C154.986 522.719 155.359 523.377 155.931 523.828C156.503 524.279 157.274 524.504 158.245 524.504C159.475 524.504 160.377 524.019 160.949 523.048C161.521 522.077 161.807 520.422 161.807 518.082C161.391 518.671 160.801 519.131 160.039 519.46C159.293 519.772 158.479 519.928 157.595 519.928C156.468 519.928 155.445 519.703 154.527 519.252C153.608 518.784 152.88 518.099 152.343 517.198C151.823 516.279 151.563 515.17 151.563 513.87C151.563 511.963 152.117 510.447 153.227 509.32C154.353 508.176 155.896 507.604 157.855 507.604C160.212 507.604 161.885 508.393 162.873 509.97C163.878 511.53 164.381 513.931 164.381 517.172C164.381 519.408 164.19 521.237 163.809 522.658C163.445 524.079 162.803 525.154 161.885 525.882C160.966 526.61 159.692 526.974 158.063 526.974C156.208 526.974 154.778 526.489 153.773 525.518C152.767 524.547 152.204 523.325 152.083 521.852H154.813ZM158.115 517.432C159.155 517.432 159.969 517.111 160.559 516.47C161.165 515.811 161.469 514.945 161.469 513.87C161.469 512.674 161.148 511.747 160.507 511.088C159.883 510.412 159.025 510.074 157.933 510.074C156.841 510.074 155.974 510.421 155.333 511.114C154.709 511.79 154.397 512.683 154.397 513.792C154.397 514.849 154.7 515.725 155.307 516.418C155.931 517.094 156.867 517.432 158.115 517.432ZM167.234 510.75V508.046H172.642V527H169.652V510.75H167.234ZM187.16 521.852C187.334 522.719 187.706 523.377 188.278 523.828C188.85 524.279 189.622 524.504 190.592 524.504C191.823 524.504 192.724 524.019 193.296 523.048C193.868 522.077 194.154 520.422 194.154 518.082C193.738 518.671 193.149 519.131 192.386 519.46C191.641 519.772 190.826 519.928 189.942 519.928C188.816 519.928 187.793 519.703 186.874 519.252C185.956 518.784 185.228 518.099 184.69 517.198C184.17 516.279 183.91 515.17 183.91 513.87C183.91 511.963 184.465 510.447 185.574 509.32C186.701 508.176 188.244 507.604 190.202 507.604C192.56 507.604 194.232 508.393 195.22 509.97C196.226 511.53 196.728 513.931 196.728 517.172C196.728 519.408 196.538 521.237 196.156 522.658C195.792 524.079 195.151 525.154 194.232 525.882C193.314 526.61 192.04 526.974 190.41 526.974C188.556 526.974 187.126 526.489 186.12 525.518C185.115 524.547 184.552 523.325 184.43 521.852H187.16ZM190.462 517.432C191.502 517.432 192.317 517.111 192.906 516.47C193.513 515.811 193.816 514.945 193.816 513.87C193.816 512.674 193.496 511.747 192.854 511.088C192.23 510.412 191.372 510.074 190.28 510.074C189.188 510.074 188.322 510.421 187.68 511.114C187.056 511.79 186.744 512.683 186.744 513.792C186.744 514.849 187.048 515.725 187.654 516.418C188.278 517.094 189.214 517.432 190.462 517.432ZM203.17 517.094C201.367 516.193 200.466 514.771 200.466 512.83C200.466 511.894 200.7 511.036 201.168 510.256C201.636 509.476 202.338 508.861 203.274 508.41C204.21 507.942 205.354 507.708 206.706 507.708C208.041 507.708 209.176 507.942 210.112 508.41C211.065 508.861 211.776 509.476 212.244 510.256C212.712 511.036 212.946 511.894 212.946 512.83C212.946 513.801 212.695 514.659 212.192 515.404C211.707 516.132 211.057 516.695 210.242 517.094C211.23 517.458 212.01 518.056 212.582 518.888C213.154 519.703 213.44 520.665 213.44 521.774C213.44 522.901 213.154 523.897 212.582 524.764C212.01 525.631 211.213 526.298 210.19 526.766C209.167 527.234 208.006 527.468 206.706 527.468C205.406 527.468 204.245 527.234 203.222 526.766C202.217 526.298 201.428 525.631 200.856 524.764C200.284 523.897 199.998 522.901 199.998 521.774C199.998 520.647 200.284 519.677 200.856 518.862C201.428 518.047 202.199 517.458 203.17 517.094ZM210.112 513.194C210.112 512.223 209.809 511.478 209.202 510.958C208.595 510.438 207.763 510.178 206.706 510.178C205.666 510.178 204.843 510.438 204.236 510.958C203.629 511.478 203.326 512.232 203.326 513.22C203.326 514.087 203.638 514.797 204.262 515.352C204.903 515.889 205.718 516.158 206.706 516.158C207.694 516.158 208.509 515.881 209.15 515.326C209.791 514.771 210.112 514.061 210.112 513.194ZM206.706 518.394C205.562 518.394 204.626 518.68 203.898 519.252C203.187 519.807 202.832 520.613 202.832 521.67C202.832 522.658 203.179 523.464 203.872 524.088C204.565 524.695 205.51 524.998 206.706 524.998C207.885 524.998 208.812 524.686 209.488 524.062C210.181 523.438 210.528 522.641 210.528 521.67C210.528 520.63 210.173 519.824 209.462 519.252C208.769 518.68 207.85 518.394 206.706 518.394ZM220.244 521.852C220.418 522.719 220.79 523.377 221.362 523.828C221.934 524.279 222.706 524.504 223.676 524.504C224.907 524.504 225.808 524.019 226.38 523.048C226.952 522.077 227.238 520.422 227.238 518.082C226.822 518.671 226.233 519.131 225.47 519.46C224.725 519.772 223.91 519.928 223.026 519.928C221.9 519.928 220.877 519.703 219.958 519.252C219.04 518.784 218.312 518.099 217.774 517.198C217.254 516.279 216.994 515.17 216.994 513.87C216.994 511.963 217.549 510.447 218.658 509.32C219.785 508.176 221.328 507.604 223.286 507.604C225.644 507.604 227.316 508.393 228.304 509.97C229.31 511.53 229.812 513.931 229.812 517.172C229.812 519.408 229.622 521.237 229.24 522.658C228.876 524.079 228.235 525.154 227.316 525.882C226.398 526.61 225.124 526.974 223.494 526.974C221.64 526.974 220.21 526.489 219.204 525.518C218.199 524.547 217.636 523.325 217.514 521.852H220.244ZM223.546 517.432C224.586 517.432 225.401 517.111 225.99 516.47C226.597 515.811 226.9 514.945 226.9 513.87C226.9 512.674 226.58 511.747 225.938 511.088C225.314 510.412 224.456 510.074 223.364 510.074C222.272 510.074 221.406 510.421 220.764 511.114C220.14 511.79 219.828 512.683 219.828 513.792C219.828 514.849 220.132 515.725 220.738 516.418C221.362 517.094 222.298 517.432 223.546 517.432ZM236.748 521.852C236.921 522.719 237.294 523.377 237.866 523.828C238.438 524.279 239.209 524.504 240.18 524.504C241.411 524.504 242.312 524.019 242.884 523.048C243.456 522.077 243.742 520.422 243.742 518.082C243.326 518.671 242.737 519.131 241.974 519.46C241.229 519.772 240.414 519.928 239.53 519.928C238.403 519.928 237.381 519.703 236.462 519.252C235.543 518.784 234.815 518.099 234.278 517.198C233.758 516.279 233.498 515.17 233.498 513.87C233.498 511.963 234.053 510.447 235.162 509.32C236.289 508.176 237.831 507.604 239.79 507.604C242.147 507.604 243.82 508.393 244.808 509.97C245.813 511.53 246.316 513.931 246.316 517.172C246.316 519.408 246.125 521.237 245.744 522.658C245.38 524.079 244.739 525.154 243.82 525.882C242.901 526.61 241.627 526.974 239.998 526.974C238.143 526.974 236.713 526.489 235.708 525.518C234.703 524.547 234.139 523.325 234.018 521.852H236.748ZM240.05 517.432C241.09 517.432 241.905 517.111 242.494 516.47C243.101 515.811 243.404 514.945 243.404 513.87C243.404 512.674 243.083 511.747 242.442 511.088C241.818 510.412 240.96 510.074 239.868 510.074C238.776 510.074 237.909 510.421 237.268 511.114C236.644 511.79 236.332 512.683 236.332 513.792C236.332 514.849 236.635 515.725 237.242 516.418C237.866 517.094 238.802 517.432 240.05 517.432ZM249.56 517.276C249.56 514.277 250.063 511.937 251.068 510.256C252.091 508.557 253.841 507.708 256.32 507.708C258.799 507.708 260.541 508.557 261.546 510.256C262.569 511.937 263.08 514.277 263.08 517.276C263.08 520.309 262.569 522.684 261.546 524.4C260.541 526.099 258.799 526.948 256.32 526.948C253.841 526.948 252.091 526.099 251.068 524.4C250.063 522.684 249.56 520.309 249.56 517.276ZM260.168 517.276C260.168 515.872 260.073 514.685 259.882 513.714C259.709 512.743 259.345 511.955 258.79 511.348C258.235 510.724 257.412 510.412 256.32 510.412C255.228 510.412 254.405 510.724 253.85 511.348C253.295 511.955 252.923 512.743 252.732 513.714C252.559 514.685 252.472 515.872 252.472 517.276C252.472 518.732 252.559 519.954 252.732 520.942C252.905 521.93 253.269 522.727 253.824 523.334C254.396 523.941 255.228 524.244 256.32 524.244C257.412 524.244 258.235 523.941 258.79 523.334C259.362 522.727 259.735 521.93 259.908 520.942C260.081 519.954 260.168 518.732 260.168 517.276ZM269.414 517.094C267.612 516.193 266.71 514.771 266.71 512.83C266.71 511.894 266.944 511.036 267.412 510.256C267.88 509.476 268.582 508.861 269.518 508.41C270.454 507.942 271.598 507.708 272.95 507.708C274.285 507.708 275.42 507.942 276.356 508.41C277.31 508.861 278.02 509.476 278.488 510.256C278.956 511.036 279.19 511.894 279.19 512.83C279.19 513.801 278.939 514.659 278.436 515.404C277.951 516.132 277.301 516.695 276.486 517.094C277.474 517.458 278.254 518.056 278.826 518.888C279.398 519.703 279.684 520.665 279.684 521.774C279.684 522.901 279.398 523.897 278.826 524.764C278.254 525.631 277.457 526.298 276.434 526.766C275.412 527.234 274.25 527.468 272.95 527.468C271.65 527.468 270.489 527.234 269.466 526.766C268.461 526.298 267.672 525.631 267.1 524.764C266.528 523.897 266.242 522.901 266.242 521.774C266.242 520.647 266.528 519.677 267.1 518.862C267.672 518.047 268.444 517.458 269.414 517.094ZM276.356 513.194C276.356 512.223 276.053 511.478 275.446 510.958C274.84 510.438 274.008 510.178 272.95 510.178C271.91 510.178 271.087 510.438 270.48 510.958C269.874 511.478 269.57 512.232 269.57 513.22C269.57 514.087 269.882 514.797 270.506 515.352C271.148 515.889 271.962 516.158 272.95 516.158C273.938 516.158 274.753 515.881 275.394 515.326C276.036 514.771 276.356 514.061 276.356 513.194ZM272.95 518.394C271.806 518.394 270.87 518.68 270.142 519.252C269.432 519.807 269.076 520.613 269.076 521.67C269.076 522.658 269.423 523.464 270.116 524.088C270.81 524.695 271.754 524.998 272.95 524.998C274.129 524.998 275.056 524.686 275.732 524.062C276.426 523.438 276.772 522.641 276.772 521.67C276.772 520.63 276.417 519.824 275.706 519.252C275.013 518.68 274.094 518.394 272.95 518.394ZM294.808 510.334L287.58 527H284.59L291.896 510.646H282.276V508.124H294.808V510.334ZM297.345 517.276C297.345 514.277 297.848 511.937 298.853 510.256C299.876 508.557 301.626 507.708 304.105 507.708C306.584 507.708 308.326 508.557 309.331 510.256C310.354 511.937 310.865 514.277 310.865 517.276C310.865 520.309 310.354 522.684 309.331 524.4C308.326 526.099 306.584 526.948 304.105 526.948C301.626 526.948 299.876 526.099 298.853 524.4C297.848 522.684 297.345 520.309 297.345 517.276ZM307.953 517.276C307.953 515.872 307.858 514.685 307.667 513.714C307.494 512.743 307.13 511.955 306.575 511.348C306.02 510.724 305.197 510.412 304.105 510.412C303.013 510.412 302.19 510.724 301.635 511.348C301.08 511.955 300.708 512.743 300.517 513.714C300.344 514.685 300.257 515.872 300.257 517.276C300.257 518.732 300.344 519.954 300.517 520.942C300.69 521.93 301.054 522.727 301.609 523.334C302.181 523.941 303.013 524.244 304.105 524.244C305.197 524.244 306.02 523.941 306.575 523.334C307.147 522.727 307.52 521.93 307.693 520.942C307.866 519.954 307.953 518.732 307.953 517.276ZM317.693 521.852C317.867 522.719 318.239 523.377 318.811 523.828C319.383 524.279 320.155 524.504 321.125 524.504C322.356 524.504 323.257 524.019 323.829 523.048C324.401 522.077 324.687 520.422 324.687 518.082C324.271 518.671 323.682 519.131 322.919 519.46C322.174 519.772 321.359 519.928 320.475 519.928C319.349 519.928 318.326 519.703 317.407 519.252C316.489 518.784 315.761 518.099 315.223 517.198C314.703 516.279 314.443 515.17 314.443 513.87C314.443 511.963 314.998 510.447 316.107 509.32C317.234 508.176 318.777 507.604 320.735 507.604C323.093 507.604 324.765 508.393 325.753 509.97C326.759 511.53 327.261 513.931 327.261 517.172C327.261 519.408 327.071 521.237 326.689 522.658C326.325 524.079 325.684 525.154 324.765 525.882C323.847 526.61 322.573 526.974 320.943 526.974C319.089 526.974 317.659 526.489 316.653 525.518C315.648 524.547 315.085 523.325 314.963 521.852H317.693ZM320.995 517.432C322.035 517.432 322.85 517.111 323.439 516.47C324.046 515.811 324.349 514.945 324.349 513.87C324.349 512.674 324.029 511.747 323.387 511.088C322.763 510.412 321.905 510.074 320.813 510.074C319.721 510.074 318.855 510.421 318.213 511.114C317.589 511.79 317.277 512.683 317.277 513.792C317.277 514.849 317.581 515.725 318.187 516.418C318.811 517.094 319.747 517.432 320.995 517.432ZM342.725 510.594H334.015V515.768C334.379 515.283 334.917 514.875 335.627 514.546C336.355 514.217 337.127 514.052 337.941 514.052C339.397 514.052 340.576 514.364 341.477 514.988C342.396 515.612 343.046 516.401 343.427 517.354C343.826 518.307 344.025 519.313 344.025 520.37C344.025 521.653 343.774 522.797 343.271 523.802C342.786 524.79 342.049 525.57 341.061 526.142C340.091 526.714 338.895 527 337.473 527C335.584 527 334.067 526.532 332.923 525.596C331.779 524.66 331.095 523.421 330.869 521.878H333.755C333.946 522.693 334.371 523.343 335.029 523.828C335.688 524.296 336.511 524.53 337.499 524.53C338.73 524.53 339.649 524.157 340.255 523.412C340.879 522.667 341.191 521.679 341.191 520.448C341.191 519.2 340.879 518.247 340.255 517.588C339.631 516.912 338.713 516.574 337.499 516.574C336.65 516.574 335.931 516.791 335.341 517.224C334.769 517.64 334.353 518.212 334.093 518.94H331.285V507.994H342.725V510.594Z" fill="#444444"/>
</g>
<defs>
<clipPath id="clip0">
<rect x="648" width="1062" height="648" rx="5" transform="rotate(90 648 0)" fill="white"/>
</clipPath>
</defs>
</svg>
