<?xml version="1.0" encoding="utf-8"?>
<!-- Generator: Adobe Illustrator 23.0.1, SVG Export Plug-In . SVG Version: 6.00 Build 0)  -->
<svg version="1.1"
	 id="svg4107" inkscape:version="0.48.0 r9654" sodipodi:docname="continents_colored.svg" xmlns:cc="http://creativecommons.org/ns#" xmlns:dc="http://purl.org/dc/elements/1.1/" xmlns:inkscape="http://www.inkscape.org/namespaces/inkscape" xmlns:rdf="http://www.w3.org/1999/02/22-rdf-syntax-ns#" xmlns:sodipodi="http://sodipodi.sourceforge.net/DTD/sodipodi-0.dtd" xmlns:svg="http://www.w3.org/2000/svg"
	 xmlns="http://www.w3.org/2000/svg" xmlns:xlink="http://www.w3.org/1999/xlink" x="0px" y="0px" viewBox="0 0 141.2 144.1"
	 style="enable-background:new 0 0 141.2 144.1;" xml:space="preserve">
<style type="text/css">
	.st0{fill:#DDDDDD;}
</style>
<sodipodi:namedview  bordercolor="#666666" borderopacity="1" fit-margin-bottom="0" fit-margin-left="0" fit-margin-right="0" fit-margin-top="0" gridtolerance="10" guidetolerance="10" id="namedview5223" inkscape:current-layer="svg4107" inkscape:cx="42.35867" inkscape:cy="68.913475" inkscape:pageopacity="0" inkscape:pageshadow="2" inkscape:window-height="998" inkscape:window-maximized="1" inkscape:window-width="1680" inkscape:window-x="-8" inkscape:window-y="-8" inkscape:zoom="2.4089381" objecttolerance="10" pagecolor="#ffffff" showgrid="false">
	</sodipodi:namedview>
<path id="path4152" inkscape:connector-curvature="0" class="st0" d="M21.9,23h5.7v-3.4l-0.1-0.1l-7.6,0.1l-0.1,0.1
	c-0.2,0.4-0.3,0.7-0.5,1.1c-0.2,0.3-0.3,0.5-0.5,0.7c-0.2,0.2-0.3,0.2-0.5,0.3c-0.3,0.2-0.5,0.3-0.7,0.6c-0.2,0.3-0.3,0.6-0.4,0.9
	c-0.1,0.4,0,0.6-0.1,1c-0.1,0.4,0.1,0.8-0.2,1c-0.2,0.1-0.3,0-0.5,0.1c-0.4,0.2-0.4,0.5-0.7,0.8c-0.2,0.2-0.4,0.3-0.5,0.5
	c-0.2,0.3-0.2,0.5-0.3,0.7c-0.1,0.3-0.2,0.5-0.3,0.9c-0.2,0.4-0.3,0.6-0.5,1c-0.1,0.2-0.2,0.4-0.4,0.6c-0.2,0.2-0.4,0.2-0.5,0.3
	c-0.3,0.3-0.3,0.5-0.3,0.9c-0.1,0.2,0,0.4-0.1,0.6l0.3,0.2h7v-2.5c-0.1-0.3-0.1-0.5,0.1-0.8c0.1-0.2,0.2-0.3,0.4-0.4
	c0.3-0.2,0.5-0.1,0.8-0.2c0.2-0.1,0.4-0.1,0.6-0.1L21.9,23"/>
<path id="path4156" inkscape:connector-curvature="0" class="st0" d="M80.8,10.8c-0.1-0.2,0.1-0.3,0-0.5c-0.1-0.2-0.2-0.3-0.3-0.4
	c-0.3-0.2-0.6,0-0.9-0.3c-0.2-0.2-0.1-0.5-0.3-0.6C79,8.8,78.7,8.9,78.4,9c-0.3,0.1-0.3,0.4-0.5,0.5c-0.3,0.2-0.6,0.2-0.9,0.3
	c-0.4,0.2-0.7,0.1-1,0.5c-0.2,0.3-0.2,0.6-0.2,1c0,0.4,0.3,0.5,0.3,0.9c0.1,0.4,0.1,0.8-0.1,1.1c-0.2,0.3-0.3,0.4-0.6,0.6
	c-0.3,0.2-0.6,0.3-0.9,0.3c-0.5,0-0.7-0.3-1.1-0.5c-0.3-0.2-0.4-0.4-0.7-0.5c-0.6-0.3-1.1,0-1.8-0.2c-0.4-0.1-0.6-0.3-0.9-0.4
	c-0.4-0.2-0.7-0.1-1.1-0.4c-0.1-0.1-0.2-0.2-0.3-0.3c-0.2-0.3-0.3-0.5-0.5-0.9c-0.1-0.3,0-0.6-0.3-0.8c-0.2-0.2-0.5-0.2-0.8-0.3
	c-0.3-0.1-0.4-0.1-0.7-0.1c-0.4-0.1-0.7,0.1-1.1-0.1c-0.2-0.2-0.2-0.4-0.4-0.5c-0.3-0.2-0.5-0.2-0.9-0.3c-0.7-0.2-1.1-0.1-1.8-0.2
	c-0.2,0-0.3,0-0.5,0l0,0.2c0,0.3-0.1,0.5-0.1,0.9c0,0.3,0.2,0.5,0,0.7c-0.1,0.1-0.2,0.2-0.3,0.3c-0.2,0.1-0.3-0.1-0.5,0
	s-0.2,0.2-0.3,0.3c-0.3,0.3-0.3,0.6-0.6,0.7c-0.1,0.1-0.3,0-0.4,0.1c-0.3,0.2,0,0.5,0,0.9c0,0.4,0.2,0.7,0,1.1
	c-0.1,0.2-0.2,0.4-0.4,0.5c-0.2,0.1-0.4,0-0.6,0l-0.3,0.1c0.1,0.3-0.1,0.6,0.1,0.8c0.1,0.1,0.2,0.1,0.3,0.3c0.2,0.3-0.1,0.6,0,0.9
	c0.1,0.3,0.3,0.5,0.3,0.8c0.1,0.3,0,0.5,0,0.9c0,0.4,0,0.6,0,1c0,0.4-0.1,0.7-0.1,1.1c0,0.4,0,0.6,0,1c0,0.4,0.1,0.7,0.1,1.1
	c0,0,0,0.1,0,0.1c0,0.5,0,0.8,0.1,1.3c0,0.3,0,0.5,0.1,0.8c0.1,0.4,0.1,0.7,0.5,1c0.2,0.1,0.3,0.2,0.5,0.3c0.2,0.1,0.3,0.1,0.5,0.1
	c0.2,0.1,0.3,0,0.5,0.1c0.3,0.1,0.3,0.3,0.5,0.5c0.2,0.1,0.4,0.2,0.5,0.3c0.3,0.3,0.2,0.6,0.3,1c0.3-0.1,0.5,0,0.9,0.1
	c0.3,0.1,0.4,0.2,0.6,0.3c0.3,0.1,0.5,0.1,0.7,0.2c0.3,0.1,0.5,0.1,0.7,0.2c0.3,0.1,0.4,0.1,0.6,0.3c0.2,0.2,0.1,0.6,0.3,0.7
	c0.3,0.1,0.5-0.1,0.7-0.3c0.2-0.1,0.3-0.2,0.5-0.3l0.1-0.1c0.2-0.1,0.4-0.2,0.6-0.3c0.2-0.1,0.4,0,0.5-0.2c0.1-0.1,0-0.4,0.2-0.5
	c0.2-0.1,0.4,0.2,0.6,0.3c0.4,0.2,0.7,0.3,1.1,0.5c0.6,0.3,0.9,0.6,1.5,0.9c0.5,0.2,0.9,0.1,1.3,0.4c0.2,0.2,0.2,0.4,0.5,0.6
	c0.2,0.1,0.3,0.2,0.5,0.3c0.5,0.3,0.7,0.5,1.1,0.7c0.6,0.4,0.9,0.7,1.6,0.9c0.3,0.1,0.5,0.1,0.7,0.3c0.2,0.1,0.3,0.3,0.5,0.4
	c0.3,0.2,0.5,0.3,0.8,0.5c0.4,0.3,0.7,0.5,1.1,0.7c0.4,0.2,0.6,0.2,1,0.3c0.3,0.1,0.4,0.2,0.7,0.3c0.4,0.2,0.6,0.4,0.9,0.7L83.3,35
	h1.8v-4c0,0-0.2-4.4-0.3-8.4c-0.1-3.2-0.3-6.2-0.3-6.2c0-0.2,0-0.4-0.1-0.6c-0.1-0.9-0.3-1.4-0.4-2.3c0-0.2-0.1-0.3-0.1-0.5
	c0-0.3,0-0.5,0.1-0.7c0.1-0.1,0.1-0.2,0.3-0.3h0.3c-0.2-0.2-0.2-0.4-0.4-0.6c-0.4-0.3-0.7-0.1-1.2-0.1c-0.4-0.1-0.7-0.1-1.1-0.2
	C81.5,10.9,81,11.2,80.8,10.8"/>
<path id="path4158" inkscape:connector-curvature="0" class="st0" d="M83.5,36.2C83.4,36.2,83.4,36.2,83.5,36.2v0.4V36.2"/>
<path id="path4162" inkscape:connector-curvature="0" class="st0" d="M89,62.9c-0.3-0.2-0.5-0.2-0.9-0.3l-0.5-1.1
	c-0.2-0.2-0.3-0.4-0.5-0.6c-0.4-0.3-0.9-0.1-1.1-0.5c-0.3-0.5,0.4-1,0.1-1.4c-0.1-0.1-0.3-0.2-0.4-0.3c-0.4-0.3-0.5-0.7-1-1
	c-0.4-0.3-0.7-0.2-1.1-0.5c-0.2-0.1-0.4-0.2-0.5-0.4c-0.3-0.4,0-0.7,0-1.1c0-0.4,0.1-0.6,0-1c-0.1-0.4-0.3-0.5-0.5-0.8
	c-0.2-0.4-0.4-0.6-0.6-1l-0.3,0.1c-0.3,0-0.4,0-0.7,0c-0.3,0-0.5,0.1-0.7,0.3c-0.2,0.1-0.3,0.2-0.3,0.4c-0.1,0.2,0,0.3-0.1,0.5
	c-0.1,0.2-0.2,0.3-0.4,0.5c-0.2,0.2-0.3,0.2-0.5,0.3l-0.5,0.7c-0.1,0.1-0.2,0.2-0.3,0.3c-0.2,0.2-0.2,0.4-0.4,0.5
	c-0.2,0.1-0.3,0-0.5,0.1c-0.2,0.1-0.4,0.1-0.6,0.2c-0.3,0.1-0.4,0.1-0.7,0.2c-0.3,0.1-0.5,0.2-0.8,0.2c-0.3,0-0.5-0.1-0.8,0
	c-0.3,0.1-0.5,0.1-0.7,0.3c-0.3,0.2-0.3,0.5-0.5,0.8c-0.1,0.2-0.1,0.5-0.3,0.6c-0.2,0.2-0.5-0.1-0.7,0c-0.4,0.1-0.3,0.8-0.7,0.7
	c-0.2-0.1-0.2-0.4-0.4-0.4c-0.2,0-0.2,0.2-0.4,0.3c-0.2,0.1-0.4,0.1-0.7,0.1c-0.3,0-0.4,0-0.7-0.1h-0.1c-0.1,0.2-0.2,0.3-0.3,0.5
	c-0.2,0.3-0.4,0.5-0.5,0.8c-0.1,0.3,0.1,0.6-0.1,0.9c-0.1,0.2-0.2,0.3-0.4,0.4s-0.5,0-0.5,0.2c-0.1,0.2,0.3,0.3,0.3,0.5
	c0.1,0.3,0.3,0.7,0,0.9c-0.1,0.1-0.3,0-0.4,0.1c-0.1,0.2,0.3,0.3,0.3,0.5c0.1,0.3,0,0.5,0.1,0.7c0.1,0.3,0.4,0.4,0.6,0.7
	c0.3,0.4,0.6,0.5,0.8,0.9c0.2,0.4,0.3,0.6,0.4,1c0.1,0.3,0.2,0.5,0.3,0.8c0.2,0.5,0.3,0.8,0.5,1.3l0.1,0.1c0.2-0.4,0.3-0.7,0.5-1.1
	c0.2-0.3,0.3-0.5,0.4-0.8c0.2-0.4-0.1-0.9,0.3-1.1c0.4-0.2,0.7,0.1,1.1,0.2c0.4,0,0.6,0.1,0.9,0.1c0.3,0,0.5,0,0.9-0.1l-0.1,0.2
	c0.1-0.1,0.3-0.2,0.3-0.3c0.1-0.3,0-0.5,0-0.7c0-0.3,0-0.5,0.1-0.7c0.1-0.3,0.3-0.4,0.6-0.7c0.2-0.2,0.4-0.4,0.7-0.5
	c0.3-0.1,0.5,0,0.7,0.1c0.3,0.1,0.4,0.3,0.7,0.5c0.2,0.2,0.2,0.5,0.5,0.7c0.1,0.1,0.2,0,0.4,0.1c0.3,0.1,0.5,0.2,0.9,0.3
	c0.3,0,0.5,0,0.7,0c0.3,0,0.4,0,0.7,0.1c0.4,0.1,0.7,0.2,0.9,0.3l0.2-1.1c0.1-0.1,0.2-0.2,0.3-0.3c0.3-0.1,0.4,0.3,0.7,0.3
	c0.3,0,0.4,0,0.7-0.1c0.3-0.1,0.4-0.1,0.6-0.3c0.2-0.1,0.3-0.3,0.5-0.4c0.2,0,0.3,0,0.5,0c0.2,0,0.2,0.1,0.4,0.1
	c0.4,0,0.6-0.2,0.9-0.5c0.2-0.2,0.2-0.4,0.4-0.5c0.3,0,0.3,0.4,0.5,0.5c0.2,0.1,0.3,0,0.5,0.1c0.3,0.1,0.4,0.2,0.7,0.2
	c0.3,0,0.5,0,0.7-0.1c0.2,0,0.2-0.1,0.4-0.1l0.1-0.1c-0.1-0.3,0-0.6-0.1-0.9C89.3,63.1,89.2,63,89,62.9"/>
<path id="path4164" inkscape:connector-curvature="0" class="st0" d="M61.9,80.5c0-0.3,0-0.4,0-0.7c0-0.3-0.1-0.6,0.1-0.8
	c0.2-0.1,0.4,0,0.6,0c0.2,0,0.3,0.1,0.5,0.1c0.2-0.1,0.3-0.2,0.4-0.3c0.1-0.2-0.1-0.5,0.1-0.5c0.2-0.1,0.3,0.1,0.4,0.2
	c0.2,0.2,0.2,0.3,0.3,0.5c0.1,0.2,0.1,0.3,0.3,0.4c0.2,0.1,0.3-0.1,0.5-0.2c0.1-0.1,0.2-0.3,0.3-0.3c0.1,0,0.1,0.3,0.2,0.3
	c0.2,0.1,0.3,0.1,0.5,0c0.3-0.1,0.1-0.5,0.2-0.8c0.1-0.4,0.1-0.6,0.1-1c0-0.5-0.2-0.8-0.2-1.3c0-0.4,0.2-0.8-0.1-1.1
	c-0.2-0.3-0.5-0.2-0.6-0.5c-0.2-0.3-0.1-0.6,0.1-0.9c0.2-0.3,0.6,0,0.9-0.3c0.2-0.2,0.2-0.4,0.2-0.6c0-0.3-0.3-0.3-0.5-0.5
	c-0.1-0.2-0.2-0.3-0.3-0.4c-0.3-0.2-0.5-0.1-0.8,0c-0.2,0.1-0.4,0.5-0.5,0.3c-0.1-0.1-0.1-0.2-0.1-0.3c0-0.3,0.1-0.5,0.1-0.9
	c0-0.3,0-0.5,0.1-0.8L64.8,70c-0.5-0.1-0.7-0.1-1.2-0.1c-0.2,0-0.4,0-0.6,0c-0.3,0-0.6-0.1-0.9,0c-0.2,0.1-0.2,0.2-0.4,0.3h-0.1
	c0,0.4,0.1,0.6,0,1c0,0.3-0.1,0.5-0.2,0.7c-0.1,0.2,0,0.3-0.1,0.5c-0.2,0.2-0.4,0.1-0.7,0.1c-0.3,0-0.5,0-0.9,0
	c-0.3,0-0.4,0.1-0.7,0.1c-0.3,0-0.2,0-0.6,0l-0.1-0.1c-0.1,0.5,0,0.7-0.1,1.2c-0.1,0.7-0.4,1.1-0.5,1.8c-0.1,0.4-0.2,0.7-0.2,1.1
	c0,0.5,0.2,0.7,0.3,1.1c0.2,0.4,0.3,0.6,0.5,0.9c0.2,0.3,0.3,0.4,0.5,0.6c0.2,0.3,0.3,0.6,0.5,0.9c0.2,0.3,0.3,0.5,0.5,0.8
	c0.2,0.2,0.4,0.3,0.5,0.5c0.2,0.2,0.3,0.4,0.4,0.7v-0.2c0.2-0.1,0.3-0.2,0.5-0.3c0.2-0.2,0.4-0.3,0.5-0.6
	C61.9,80.8,61.9,80.7,61.9,80.5"/>
<path id="path4166" inkscape:connector-curvature="0" class="st0" d="M28.1,62.6c-0.1-0.2,0.1-0.4-0.1-0.6c-0.2-0.3-0.6,0.1-0.9-0.1
	c-0.2-0.1-0.4-0.2-0.5-0.5c-0.1-0.4,0.8-0.5,0.7-0.9c0-0.3-0.4-0.3-0.4-0.5c0-0.2,0.2-0.3,0.3-0.5c0.1-0.1,0.2-0.2,0.3-0.3l-0.3,0.1
	c-0.3,0-0.5-0.2-0.8,0c-0.3,0.2-0.1,0.7-0.4,0.8c-0.3,0.1-0.5,0-0.7-0.1c-0.3-0.2-0.2-0.5-0.3-0.8c-0.1-0.4,0-0.7-0.1-1.1
	c-0.1-0.2,0-0.4-0.2-0.5c-0.3-0.2-0.6-0.1-0.9,0.1c-0.1,0.1-0.2,0.1-0.3,0.2l-0.1,0.2c-0.1,0.2,0,0.4-0.1,0.6
	c-0.1,0.2-0.2,0.3-0.4,0.5c-0.2,0.2-0.3,0.2-0.5,0.4c-0.2,0.2-0.3,0.4-0.5,0.7c-0.2,0.3-0.4,0.5-0.7,0.8h0.1
	c0.2,0.2,0.3,0.3,0.5,0.5c0.2,0.2,0.3,0.3,0.5,0.5c0.2,0.2,0.4,0.2,0.7,0.3c0.2,0.1,0.4,0.2,0.6,0.3c0.3,0.2,0.4,0.3,0.7,0.5
	c0.3,0.3,0.5,0.4,0.7,0.8c0.1,0.3,0,0.5,0.3,0.7c0.2,0.2,0.6-0.1,0.8,0.1c0.2,0.1,0.1,0.3,0.3,0.5c0.3,0.2,0.5,0.1,0.9,0.2
	s0.5,0.4,0.8,0.4c0.1,0,0.2,0,0.3,0l0,0c0-0.4,0-0.6,0-0.9c0-0.3,0.2-0.5,0.2-0.9c0-0.4,0.1-0.7-0.1-1
	C28.5,62.8,28.2,62.8,28.1,62.6"/>
<path id="path4168" inkscape:connector-curvature="0" class="st0" d="M45.5,49.4c-0.2,0-0.2,0.1-0.4,0.1c-0.4,0.1-0.8,0.2-1.1-0.2
	c-0.2-0.2-0.1-0.5-0.1-0.7c0-0.3,0.2-0.5,0.1-0.8c-0.1-0.3-0.4-0.4-0.6-0.6c-0.3-0.2-0.5-0.3-0.7-0.5c-0.2-0.3-0.2-0.4-0.2-0.7
	c0-0.3,0-0.5,0-0.8V45c-0.4-0.1-0.7,0-1.1-0.1c-0.2,0-0.3-0.2-0.5-0.1c-0.3,0-0.3,0.5-0.6,0.5c-0.2,0-0.3-0.1-0.5,0
	c-0.2,0.1-0.2,0.2-0.4,0.3c-0.2,0.1-0.3,0.1-0.5,0.2l-1,1c-0.1,0.2-0.1,0.4-0.3,0.6c-0.2,0.2-0.4,0.1-0.7,0.1
	c-0.5,0-0.8-0.5-1.3-0.3c-0.4,0.2-0.6,0.5-0.8,0.9c-0.2,0.2-0.3,0.4-0.3,0.7c-0.1,0.4,0.1,0.6-0.1,1c-0.1,0.3-0.1,0.7-0.5,0.8
	c-0.3,0.1-0.5-0.2-0.7-0.1c-0.3,0.2-0.2,0.4-0.3,0.7c0,0.3,0.2,0.5,0.1,0.8c-0.1,0.2-0.2,0.3-0.3,0.5c-0.3,0.5-0.2,0.8-0.3,1.3
	l0.1,0.1c0.2,0.1,0.4,0.1,0.6,0.3c0.2,0.2,0.1,0.4,0.3,0.6c0.2,0.2,0.5,0.3,0.8,0.3c0.2,0,0.4,0,0.6-0.1c0.2-0.1,0.2-0.3,0.4-0.4
	c0.3-0.1,0.5,0.1,0.9,0.3c0.4,0.1,0.5,0.2,0.9,0.4c0.2-0.2,0.3-0.2,0.4-0.5c0.1-0.4-0.3-0.6-0.3-0.9c-0.1-0.3-0.1-0.4-0.1-0.7
	c0.1-0.3,0.2-0.5,0.5-0.7c0.4-0.3,0.8-0.1,1.3-0.1c0.5,0,0.8-0.1,1.3,0.1c0.2,0.1,0.4,0.1,0.6,0.2c0.1,0,0.2,0.1,0.3,0.1
	c0.3,0,0.3-0.4,0.6-0.5c0.3-0.1,0.5,0.1,0.8,0.1c0.3,0,0.5,0,0.7,0c0.2,0,0.4,0,0.6,0l0.1,0.1c0.2-0.3,0.1-0.5,0.4-0.7
	c0.2-0.1,0.3-0.1,0.5-0.1c0.3,0,0.5,0.2,0.8,0c0.2-0.1,0.3-0.3,0.4-0.5c0.2-0.4,0-0.6,0.1-1l0.1,0.1c0-0.3,0.1-0.5-0.1-0.7
	C45.7,49.5,45.6,49.4,45.5,49.4"/>
<path id="path4170" inkscape:connector-curvature="0" class="st0" d="M103.4,103.4c-0.1-0.3-0.2-0.4-0.3-0.7c0-0.2,0-0.3-0.1-0.4
	c-0.1-0.3-0.3-0.4-0.5-0.6v0.1c0-0.3,0-0.4-0.1-0.7c0-0.3-0.1-0.5-0.1-0.7c-0.1-0.3-0.2-0.4-0.2-0.7c-0.1-0.4-0.2-0.7,0-0.9
	c0.1-0.1,0.3-0.1,0.4-0.3c0.1-0.2,0.1-0.3,0.1-0.5c0-0.1,0-0.3,0.1-0.4s0-0.2-0.1-0.4c-0.1-0.2-0.2-0.2-0.3-0.3
	c-0.2-0.3-0.1-0.6-0.1-1c0-0.3,0.1-0.6-0.1-0.9c-0.1-0.2-0.2-0.3-0.3-0.5c-0.2-0.2-0.3-0.3-0.5-0.5c-0.3-0.2-0.5-0.4-0.8-0.2
	c-0.3-0.1-0.5-0.2-0.8-0.3c-0.2-0.1-0.4-0.2-0.6-0.3l0,0.1c0.1,0.2,0.1,0.3,0.3,0.5c0.1,0.2,0.4,0.2,0.5,0.5c0.1,0.3-0.1,0.6,0,0.9
	c0.1,0.3,0.7,0.3,0.6,0.7c-0.1,0.2-0.4,0.1-0.5,0.3c-0.1,0.2,0,0.4-0.1,0.6c-0.1,0.3-0.4,0.3-0.4,0.6c0,0.2,0.1,0.2,0.1,0.4
	c0,0.2,0,0.3,0,0.5c0,0.3,0.2,0.4,0.3,0.7c0,0.3,0.2,0.6-0.1,0.7c-0.2,0.2-0.4-0.1-0.6,0.1c-0.2,0.2,0,0.4-0.1,0.6
	c-0.1,0.4-0.1,0.7-0.3,1.1c-0.1,0.2-0.3,0.4-0.3,0.6c0,0.3,0.3,0.3,0.5,0.5h-0.1c0.2,0,0.3,0,0.5,0.1c0.2,0.1,0,0.4,0.1,0.6
	c0.1,0.2,0.1,0.4,0.3,0.5c0.2,0.1,0.4,0,0.7,0c0.2,0,0.4-0.2,0.6-0.1c0.4,0.1,0.5,0.4,0.6,0.8c0.1,0.4,0.1,0.6,0.1,1
	c-0.1,0.3-0.4,0.5-0.3,0.8c0.1,0.2,0.3,0.3,0.5,0.4c0.2,0.1,0.4,0.1,0.7,0c0.3-0.1,0.4-0.4,0.6-0.6c0.3-0.3,0.5-0.5,0.6-0.9
	c0.1-0.4,0.2-0.7,0-1.1C103.7,103.8,103.5,103.7,103.4,103.4"/>
<path id="path4172" inkscape:connector-curvature="0" class="st0" d="M83,109.4c-0.3,0-0.4,0-0.7,0.1c-0.3,0.1-0.4,0.1-0.7,0.2h-0.1
	c-0.2,0.1-0.4,0.1-0.6,0.2c-0.4,0.1-0.6,0.1-0.9,0.2c-0.6,0.1-0.9,0.1-1.5,0.3c-0.2,0-0.3,0.1-0.5,0.1c-0.3,0-0.4,0.1-0.7,0
	c-0.2,0-0.3-0.1-0.5-0.2c-0.5-0.2-0.9-0.2-1.4-0.2c-0.5,0-0.8,0.3-1.3,0.1c-0.2-0.1-0.3-0.3-0.5-0.5c-0.2-0.2-0.3-0.4-0.5-0.5
	c-0.4-0.2-0.7-0.1-1.1-0.1c-0.5,0-0.7,0.1-1.2,0.1c-0.4,0-0.6-0.1-1-0.1c-0.6,0-0.9,0-1.4,0c-0.5,0-0.8,0-1.3,0
	c-0.5,0-0.8,0.2-1.3,0.1c-0.3-0.1-0.4-0.2-0.7-0.3c-0.3-0.1-0.4-0.2-0.7-0.3c-0.2-0.1-0.2-0.1-0.4-0.1c-0.3,0-0.4,0.3-0.7,0.4
	c-0.2,0.1-0.4,0.2-0.6,0.2c-0.3,0-0.5-0.2-0.8-0.3l-0.1-0.1c-0.1,0.4-0.1,0.8,0,1.4c0.1,0.5,0.1,0.9,0.4,1.3
	c0.2,0.3,0.5,0.3,0.7,0.5c0.3,0.3,0.3,0.6,0.5,1c0.1,0.3,0.1,0.4,0.3,0.7c0.1,0.2,0.3,0.2,0.5,0.4l-0.1,0.1c0.2,0.3,0.3,0.4,0.4,0.7
	c0.1,0.2,0.1,0.3,0.1,0.5c0.1,0.3,0.1,0.5,0.1,0.8c0.1,0.3,0.1,0.5,0.2,0.7c0.2,0.4,0.3,0.6,0.6,1c0.2,0.3,0.4,0.5,0.6,0.8
	c0.2,0.3,0.4,0.4,0.5,0.7c0.1,0.2,0.1,0.3,0.1,0.5c0,0.5-0.2,0.8-0.2,1.3c0,0.6,0.1,1,0.3,1.5c0.1,0.2,0.1,0.4,0.2,0.6
	c0.1,0.4,0.1,0.6,0.1,1c0,0.4-0.1,0.6-0.1,0.9c0,0.5,0.3,0.8,0.4,1.3c0.1,0.4,0,0.6,0.1,0.9c0.1,0.4,0.1,0.6,0.2,1
	c0.1,0.5,0.1,0.8,0.3,1.2c0.2,0.3,0.3,0.5,0.5,0.8c0.2,0.3,0.2,0.6,0.5,0.9c0.2,0.2,0.5,0.2,0.7,0.5l-0.1-0.3
	c0.2-0.2,0.5-0.2,0.6-0.5c0.1-0.2-0.1-0.4,0.1-0.5c0.2-0.1,0.3,0,0.5,0.1c0.2,0.2,0,0.4,0.1,0.6c0.1,0.3,0.2,0.4,0.5,0.5
	c0.3,0.2,0.5,0.1,0.9,0.1c0.3,0,0.5,0,0.8,0.1c0.2,0,0.4,0.1,0.6,0.1c0.3-0.1,0.4-0.3,0.6-0.4c0.3-0.1,0.4-0.3,0.7-0.3
	c0.2,0,0.4,0,0.6,0c0.1-2.9,0.2-4.5,0.3-7.4l0.1,0.1l0.3-5.7l1.3-0.1l0.1-4.4c0.1-0.5,0.1-0.8,0.1-1.3c0-0.4,0-0.6,0-0.9
	c0-0.2-0.2-0.4,0-0.5c0.1-0.1,0.2,0,0.4-0.1c0.4-0.1,0.7,0,1.1-0.1c0.3-0.1,0.5-0.2,0.8-0.3c0.4-0.1,0.6,0.1,0.9-0.1
	c0.2-0.1,0.3-0.3,0.5-0.3c0.2,0,0.2,0.2,0.4,0.4l0.5,0.7c0.3-0.3,0.4-0.5,0.7-0.7c0.2-0.1,0.4-0.1,0.6-0.2c0.2-0.1,0.3-0.1,0.5-0.1
	c0.2-0.1,0.3-0.2,0.5-0.3l0.3-0.1c-0.4-0.1-0.6-0.2-0.9-0.3C83.5,109.6,83.3,109.4,83,109.4"/>
<path id="path4174" inkscape:connector-curvature="0" class="st0" d="M130.9,52.2c-0.1-0.3,0.1-0.6-0.1-0.8
	c-0.1-0.1-0.2-0.2-0.4-0.3c-0.3-0.1-0.4,0.2-0.7,0.3c-0.2,0.1-0.4,0.2-0.6,0.3c-0.3,0.1-0.5,0.2-0.7,0.3c-0.3,0.1-0.5,0.2-0.8,0.3
	c-0.3,0-0.5-0.1-0.9-0.1c-0.3,0.1-0.5,0.3-0.8,0.3c-0.2,0.1-0.4,0-0.6,0.1c-0.3,0-0.5-0.1-0.8,0.1c-0.3,0.1-0.3,0.4-0.6,0.6
	c-0.4,0.2-0.6,0.1-1,0.1c-0.4,0-0.6-0.2-0.9-0.1c-0.2,0-0.4,0.1-0.6,0.2c-0.4,0.1-0.7,0.2-1.1,0.3c-0.4,0.1-0.6,0.2-0.9,0.2
	c-0.3,0-0.5,0-0.7-0.1c-0.4-0.2-0.3-0.6-0.5-1c-0.2-0.3-0.1-0.6-0.4-0.7l-0.3,0.1c-0.1,0.2-0.2,0.2-0.3,0.4
	c-0.2,0.2-0.1,0.7-0.4,0.6l-0.2,0.1c0.1,0.3,0.1,0.5,0.3,0.8c0.2,0.3,0.4,0.3,0.6,0.5c0.3,0.5-0.2,0.8-0.1,1.3
	c0.1,0.4,0.2,0.7,0.6,0.9c0.3,0.2,0.6,0.2,0.9,0.3c0.4,0.1,0.6,0.2,1,0.3c0.5,0.1,0.7,0.2,1.2,0.3c0.6,0.2,0.9,0.2,1.4,0.4
	c0.2,0.1,0.3,0.1,0.5,0.2c0.2,0.2,0.2,0.4,0.5,0.5c0.3,0.2,0.6,0,0.9-0.1c0.4,0,0.6-0.2,1-0.1c0.1,0,0.2,0,0.3,0.1
	c0.1,0.1-0.1,0.2-0.1,0.3c-0.1,0.2-0.2,0.3-0.4,0.5c-0.3,0.3-0.5,0.4-0.7,0.7c-0.3,0.3-0.4,0.5-0.6,0.7c-0.2,0.3-0.4,0.4-0.6,0.7
	c-0.2,0.3-0.3,0.5-0.6,0.8c-0.3,0.3-0.5,0.3-0.8,0.6c-0.3,0.3-0.4,0.5-0.6,0.8c-0.1,0.1-0.1,0.2-0.1,0.2c-0.1,0.1-0.1,0.3-0.3,0.4
	c-0.1,0.1-0.2,0.2-0.4,0.2c-0.3,0.1-0.4,0-0.7,0c-0.4,0-0.6-0.2-1-0.1c-0.3,0-0.5,0-0.7,0.1c-0.1,0.1-0.2,0.3-0.3,0.4
	c-0.2,0.2-0.3,0.3-0.5,0.5c-0.2,0.2-0.3,0.3-0.5,0.4c-0.3,0.1-0.5,0-0.9,0.1c-0.3,0.1-0.5,0.2-0.7,0.3c0,0.2,0.1,0.4,0,0.6
	c-0.1,0.2-0.3,0.2-0.4,0.3c-0.2,0.2-0.2,0.4-0.4,0.6c-0.2,0.2-0.4,0.1-0.6,0.3c-0.3,0.3-0.1,0.7-0.1,1.1c0,0.4,0.1,0.6,0.1,1
	c0,0.5,0,0.7-0.1,1.2c0,0.5-0.1,0.8-0.1,1.3c0,0.4-0.1,0.6-0.1,1c-0.1,0.7-0.3,1.1-0.1,1.8c0.1,0.3,0.2,0.5,0.4,0.7
	c0.1,0.2,0.2,0.3,0.3,0.5c0.2,0.2,0.2,0.3,0.4,0.5l0.3-0.1c0.3-0.4,0.5-0.6,0.9-0.9c0.4-0.4,0.7-0.5,1-0.9c0.4-0.5,0.5-0.8,0.9-1.3
	c0.4-0.5,0.7-0.7,1.1-1.1c0.3-0.3,0.4-0.6,0.7-0.9c0.2-0.2,0.4-0.3,0.7-0.5c0.4-0.4,0.7-0.6,1.1-0.9c0.4-0.2,0.6-0.3,0.9-0.5
	c0.4-0.3,0.7-0.4,0.9-0.8c0.2-0.3,0.2-0.6,0.4-0.9c0.3-0.5,0.6-0.6,1-1c0.3-0.3,0.5-0.4,0.8-0.7c0.3-0.4,0.5-0.6,0.7-1.1
	c0.2-0.4,0.1-0.8,0.3-1.2c0.1-0.1,0.1-0.3,0.2-0.4c0.1-0.1,0.2-0.3,0.3-0.4c0.2-0.3,0.5-0.4,0.7-0.7c0.2-0.3,0.3-0.5,0.4-0.8
	c0.1-0.4,0-0.7,0.1-1.1c0.1-0.3,0.2-0.4,0.3-0.7c0.1-0.3,0.1-0.5,0.3-0.8c0.2-0.4,0.3-0.6,0.5-1c0.2-0.3,0.3-0.5,0.5-0.9
	c0.1-0.2,0.2-0.3,0.3-0.5c0.2-0.3,0.3-0.4,0.5-0.6c0.2-0.3,0.3-0.4,0.4-0.7c0.1-0.3,0.2-0.5,0.2-0.9c0.1-0.4-0.1-0.7,0-1.1
	c0.1-0.2,0.1-0.2,0.2-0.4c0.1-0.3,0.2-0.5,0.1-0.9C131.1,52.6,130.9,52.5,130.9,52.2"/>
<path id="path4222" inkscape:connector-curvature="0" class="st0" d="M21.9,48.3c-0.2-0.3-0.5-0.3-0.6-0.6c-0.1-0.2-0.1-0.3-0.1-0.5
	c0-0.3,0-0.5,0-0.7c0-0.3-0.1-0.4-0.2-0.7c-0.1-0.2-0.2-0.4-0.3-0.6c-0.1-0.2-0.2-0.3-0.4-0.5c-0.2-0.3-0.5-0.3-0.6-0.7
	c-0.1-0.2,0-0.3-0.1-0.4c-0.1-0.3-0.6,0-0.7-0.3c-0.1-0.2,0.2-0.3,0.1-0.5c-0.1-0.2-0.2-0.2-0.4-0.3c-0.2-0.1-0.5,0-0.7-0.1
	c-0.3-0.2-0.1-0.5-0.3-0.7c-0.3-0.2-0.6,0-0.9-0.1c-0.3-0.1-0.4-0.3-0.7-0.3c-0.2,0-0.3,0.2-0.5,0.3c-0.3,0.1-0.4,0.2-0.7,0.3
	c-0.3,0.1-0.5-0.1-0.7,0c-0.2,0.1-0.2,0.4-0.4,0.6c0,0,0,0.1,0,0.1c0,0.3,0.2,0.5,0.1,0.9c-0.2,0.5-0.6,0.5-1,0.8
	c-0.3,0.2-0.6,0.3-0.7,0.7c-0.1,0.4,0,0.7,0.2,1.1c0.2,0.3,0.5,0.3,0.7,0.6C13,46.7,13,47,13,47.3c0.3,0.1,0.5,0.1,0.9,0.1
	c0.3,0,0.5,0.1,0.9,0c0.3-0.1,0.5-0.3,0.8-0.4c0.3-0.1,0.6-0.1,0.9,0c0.2,0.1,0.3,0.2,0.5,0.3c0.3,0.1,0.5,0.1,0.8,0.2
	c0.2,0.1,0.4,0.1,0.4,0.3c0,0.2-0.3,0.2-0.5,0.3c-0.3,0.1-0.5,0.1-0.8,0c-0.2-0.1-0.3-0.3-0.5-0.4c-0.2,0-0.3,0-0.4,0
	c-0.2,0.1-0.2,0.2-0.3,0.3c-0.2,0-0.3-0.2-0.5-0.1c-0.2,0.1-0.1,0.3-0.3,0.4c-0.2,0.1-0.4,0-0.6,0c-0.2,0-0.3,0-0.5-0.1l-0.7,0.2
	c0,0.3-0.1,0.4-0.1,0.7c0,0.3,0,0.6,0.1,0.9l0.1-0.1c0.3,0,0.5-0.1,0.7-0.1c0.3,0,0.5,0.1,0.9,0c0.2,0,0.4-0.1,0.6-0.2
	c0.2-0.1,0.3-0.2,0.5-0.3c0.4-0.1,0.7,0,1.2,0c0.4,0,0.6,0,0.9,0v0.1c0.3,0,0.6,0,0.9,0.1c0.3,0.1,0.4,0.2,0.6,0.3
	c0.4,0.1,0.7,0.2,1.1,0.1c0.3,0,0.5-0.2,0.7-0.1l0.2,0.1c0.3-0.1,0.5,0,0.7-0.2c0.2-0.2,0.2-0.5,0.1-0.9
	C22.1,48.6,22,48.5,21.9,48.3"/>
<path id="path4224" inkscape:connector-curvature="0" class="st0" d="M13,47.5c0-0.1,0-0.1,0-0.2c0,0,0,0,0,0V47.5"/>
<path id="path4226" inkscape:connector-curvature="0" class="st0" d="M13.6,42.4C13.6,42.4,13.6,42.3,13.6,42.4c0,0,0-0.1,0-0.1
	L13.6,42.4"/>
<path id="path4228" inkscape:connector-curvature="0" class="st0" d="M66.8,50c-0.1-0.1-0.3,0-0.4-0.1c-0.2-0.1-0.2-0.3-0.2-0.5
	c0-0.2,0-0.3,0-0.5l0.6-0.5c-0.3-0.1-0.4-0.3-0.5-0.5c-0.1-0.2,0.1-0.4-0.1-0.6c-0.1-0.1-0.2-0.2-0.3-0.3c-0.1,0-0.2,0-0.2,0
	l-0.2,0.6c-0.2,0.1-0.2,0.2-0.4,0.3c-0.3,0.2-0.5,0.1-0.8,0.3c-0.2,0.1-0.3,0.1-0.5,0.3c-0.3,0.2-0.3,0.6-0.6,0.6
	c-0.3,0-0.4-0.1-0.7-0.3c-0.3-0.1-0.4-0.3-0.7-0.4c-0.3-0.1-0.4,0-0.7-0.1c-0.3,0-0.5-0.1-0.7-0.1c-0.3,0-0.5,0.1-0.7,0.2
	c-0.3,0.2-0.4,0.4-0.7,0.6c-0.2,0.1-0.4,0.3-0.7,0.3c-0.2,0-0.3-0.1-0.5-0.1c-0.4-0.1-0.6-0.2-0.9-0.4c-0.2-0.2-0.3-0.4-0.5-0.5
	c-0.3-0.1-0.6-0.2-0.9-0.1c-0.3,0.1-0.3,0.4-0.5,0.5c-0.4,0.2-0.7,0.1-1-0.1c-0.3-0.2-0.2-0.7-0.6-0.8c-0.2-0.1-0.4,0.1-0.6,0
	c-0.2-0.1-0.3-0.3-0.5-0.5c-0.1-0.1-0.2-0.2-0.3-0.3c-0.3-0.1-0.4,0.2-0.6,0.3c-0.2,0.1-0.2,0.2-0.4,0.2c-0.3,0.1-0.4-0.1-0.7-0.1
	c-0.3,0.1-0.4,0.3-0.6,0.5c-0.2,0.2-0.3,0.3-0.4,0.5c-0.2,0.3,0.1,0.7-0.2,1c-0.2,0.3-0.6,0.1-0.7,0.4c-0.2,0.3,0,0.5,0,0.9
	l-0.1,0.3c0,0.3,0,0.5,0,0.7c0,0.4,0.1,0.6,0.3,0.9c0.1,0.3,0.5,0.4,0.5,0.7c0,0.3-0.3,0.3-0.5,0.6c-0.1,0.3,0,0.5-0.1,0.7
	c-0.1,0.3-0.3,0.4-0.5,0.6c-0.2,0.3-0.6,0.3-0.5,0.7c0,0.2,0.2,0.2,0.2,0.3c0,0.2-0.2,0.3-0.4,0.4c-0.1,0-0.2,0.1-0.2,0.2
	c-0.3,0.5-0.2,0.9-0.2,1.4c0,0.5,0,0.8,0,1.3c0,0.4,0.1,0.7,0.1,1.1c0,0.6,0,0.9,0,1.4l0.3,0.1c0.4,0,0.6,0,1,0c0.4,0,0.6,0,0.9,0
	c0.2,0,0.4,0,0.6,0.1c0.3,0.1,0.5,0,0.7,0.3c0.1,0.1,0,0.3,0.1,0.4c0.1,0.1,0.3,0.1,0.4,0.1c0.2,0.1,0.3,0.2,0.5,0.4
	c0.2,0.2,0.4,0.4,0.5,0.7c0.1,0.3-0.1,0.5,0,0.9c0,0.3,0,0.5,0.2,0.7c0.1,0.1,0.2,0.1,0.4,0.2c0.1,0.1,0.2,0.1,0.3,0.1
	c0.2,0.1,0.2,0.3,0.4,0.3c0.3,0.1,0.5-0.1,0.9-0.3c0.4-0.2,0.6-0.5,1.1-0.5c0.4-0.1,0.6,0.1,1,0.1c0.2,0,0.3-0.1,0.5-0.1l0.1-0.3
	c0.1-0.1,0.1-0.2,0.2-0.3c0.1-0.2,0.3-0.2,0.4-0.4c0.1-0.2,0.2-0.3,0.2-0.5c0-0.2-0.1-0.4,0-0.6c0.1-0.3,0.2-0.4,0.3-0.6
	c0.2-0.2,0.3-0.3,0.5-0.5c0.2-0.2,0.4-0.2,0.6-0.4c0.2-0.2,0.2-0.3,0.4-0.5c0.2-0.3,0.3-0.8,0.7-0.7c0.2,0,0.2,0.2,0.4,0.3
	c0.2,0,0.3-0.1,0.5-0.1c0.3,0,0.4,0.3,0.7,0.5c0.1,0.1,0.2,0.2,0.3,0.3c0.3,0.1,0.4-0.3,0.5-0.6c0.1-0.3,0.1-0.5,0.2-0.7
	c0.1-0.2,0.1-0.4,0.1-0.6c0.1-0.3,0.2-0.4,0.3-0.6c0.2-0.4,0.2-0.6,0.3-1c0.1-0.2,0.1-0.3,0.3-0.5c0.2-0.2,0.4-0.2,0.6-0.5
	c0.1-0.1,0.1-0.2,0.1-0.3c0-0.1,0-0.2,0.1-0.3c0.1-0.3-0.1-0.5,0.1-0.7c0.2-0.2,0.4,0,0.5-0.2c0.2-0.3-0.1-0.6,0-0.9
	c0.1-0.2,0.3-0.2,0.5-0.5c0.1-0.2,0-0.4,0.1-0.7c0.1-0.3,0.3-0.4,0.4-0.6c0.1-0.3,0-0.6,0.3-0.7c0.2,0,0.2,0.1,0.4,0.1
	c0.3,0,0.4-0.4,0.5-0.7c0.1-0.3,0.1-0.5,0.1-0.8C67,50.4,67,50.2,66.8,50"/>
<path id="path4230" inkscape:connector-curvature="0" class="st0" d="M98.3,108.2c-0.1-0.3-0.4-0.3-0.7-0.4
	c-0.4-0.2-0.6-0.2-0.9-0.3c-0.4-0.2-0.7-0.3-1.1-0.5c-0.4-0.2-0.7-0.3-1.1-0.5c-0.3-0.2-0.4-0.3-0.6-0.5v-0.1
	c-0.2,0-0.4,0.1-0.6,0.1c-0.2,0-0.3,0-0.5,0c-0.2,0-0.3,0.1-0.5,0.2c-0.2,0.1-0.3,0.1-0.5,0.1c-0.3,0.1-0.4,0.1-0.6,0.3
	c-0.3,0.3-0.2,0.6-0.3,1c0,0.2,0,0.3-0.1,0.4c-0.1,0.2-0.3,0.1-0.5,0.1c-0.3,0.1-0.5,0.2-0.7,0.5c-0.1,0.1-0.1,0.2-0.1,0.3
	c-0.2,0.3-0.4,0.4-0.7,0.7c-0.2,0.2-0.4,0.2-0.5,0.4c-0.2,0.2,0.1,0.6-0.2,0.7c-0.1,0-0.2,0-0.3,0c-0.2,0-0.3-0.2-0.5-0.3
	c-0.2,0-0.2,0.1-0.4,0.1c-0.2,0-0.4-0.1-0.6-0.1c-0.2,0-0.3-0.1-0.5-0.1c-0.2-0.1-0.3-0.1-0.5-0.1c-0.2-0.1-0.3-0.1-0.5-0.2l0.1,0.1
	c0.1,0.3,0.1,0.5,0.3,0.8c0.2,0.2,0.4,0.2,0.5,0.5c0.1,0.3,0,0.5,0,0.7c0.1,0.6,0.4,0.9,0.7,1.4c0.2,0.3,0.2,0.5,0.5,0.8
	c0.2,0.3,0.3,0.4,0.6,0.6c0.2,0.2,0.4,0.3,0.7,0.4c0.3,0.1,0.6,0,0.7,0.3c0.1,0.2-0.1,0.3-0.1,0.5c0,0.4,0,0.8,0.3,1.1
	c0.3,0.3,0.6,0.2,0.9,0.3c0.4,0.1,0.7,0,1,0.3c0.3,0.3,0.2,0.6,0.3,0.9c0.1,0.3,0.2,0.5,0.4,0.6c0.4,0.2,0.7-0.1,1.1-0.1
	c0.5,0,0.7,0.1,1.2,0.1c0.4,0,0.6,0,0.9,0H95c0.1-0.3,0.3-0.4,0.6-0.7c0.3-0.2,0.6-0.2,0.8-0.5c0.1-0.2,0.1-0.3,0.2-0.5
	c0.1-0.3,0.3-0.4,0.5-0.7c0.2-0.3,0.3-0.5,0.5-0.9c0.1-0.3,0.1-0.4,0.2-0.7c0.2-0.6,0.3-0.9,0.4-1.4c0.1-0.5,0.1-0.8,0.1-1.3
	c0-0.6,0.1-1,0.1-1.6c0-0.5,0-0.8,0-1.3c0-0.5,0-0.7,0-1.2C98.3,108.6,98.5,108.4,98.3,108.2"/>
<path id="path4232" inkscape:connector-curvature="0" class="st0" d="M102.9,70.3c0-0.4,0.1-0.7,0-1.1c-0.1-0.3-0.1-0.5-0.3-0.7
	c-0.2-0.3-0.5-0.4-0.7-0.7c-0.1-0.2-0.1-0.4-0.3-0.6c-0.1-0.2-0.2-0.3-0.4-0.5l-0.3-0.1c-0.2,0.2-0.3,0.3-0.5,0.5
	c-0.2,0.1-0.3,0.2-0.5,0.2c-0.3,0.1-0.5-0.1-0.7,0c-0.2,0-0.4,0.2-0.6,0.2c-0.3,0-0.4,0-0.7,0c-0.4,0-0.6,0-0.9-0.1
	c-0.3,0-0.5-0.1-0.8-0.1c-0.3,0-0.5,0.2-0.8,0.3l0.1,0.1c0,0.4-0.1,0.6,0,0.9c0.1,0.4,0.1,0.6,0.3,0.9c0.2,0.3,0.4,0.5,0.5,0.8
	c0.1,0.1,0.1,0.2,0.2,0.3c0,0,0,0,0,0c-0.2,0.1-0.3,0.2-0.5,0.4c-0.1,0.1-0.2,0.2-0.3,0.3c-0.1,0.2-0.3,0.2-0.3,0.4
	c-0.1,0.2,0,0.4,0,0.6l-0.3-0.1c-0.2,0.2-0.4,0.3-0.6,0.5c-0.4,0.4-0.4,0.8-0.5,1.3c-0.1,0.6,0,0.9-0.1,1.5
	c-0.1,0.7-0.3,1.1-0.5,1.8l-0.1-0.1c0.3,0.2,0.4,0.6,0.7,0.6c0.4,0,0.5-0.5,0.9-0.7c0.3-0.2,0.5-0.3,0.8-0.3
	c0.5-0.1,0.7,0.1,1.2,0.1c0.2,0,0.3,0,0.5,0h0.2c0-0.3,0.1-0.4,0.2-0.7c0.1-0.3,0-0.5,0.1-0.8c0.1-0.2,0.1-0.4,0.3-0.5
	c0.2-0.2,0.4-0.2,0.7-0.3c0.3-0.1,0.5-0.2,0.9-0.3c0.2-0.1,0.3-0.2,0.5-0.1c0.2,0,0.3,0.3,0.5,0.4c0.1,0.1,0.2,0.1,0.2,0.1l0.1,0
	c0-0.3-0.1-0.5,0-0.8c0.1-0.4,0.4-0.4,0.6-0.7c0.2-0.3,0.2-0.6,0.5-0.8c0.2-0.1,0.4-0.1,0.5-0.3c0.3-0.3,0.1-0.6,0.1-1
	C103,70.7,102.9,70.6,102.9,70.3"/>
<path id="path4234" inkscape:connector-curvature="0" class="st0" d="M12.2,17.4c0-0.2-0.3-0.1-0.5-0.1c-0.1,0-0.2,0.2-0.2,0.3
	c0.1,0,0.2,0,0.4,0C12,17.7,12.2,17.5,12.2,17.4"/>
<path id="path4236" inkscape:connector-curvature="0" class="st0" d="M11.4,17.7C11.4,17.7,11.4,17.8,11.4,17.7c0,0.2,0,0.1,0.1-0.1
	C11.4,17.6,11.4,17.7,11.4,17.7"/>
<path id="path4238" inkscape:connector-curvature="0" class="st0" d="M13.6,18.5c0.1,0.1,0.2,0.3,0.3,0.3c0.2,0.1,0.4-0.1,0.5-0.3
	c0.2-0.2,0.3-0.3,0.3-0.5c0-0.2,0.1-0.3,0-0.4c-0.1-0.2-0.3,0-0.5,0c-0.2,0-0.4,0-0.6,0.1c-0.2,0.1-0.4,0.3-0.3,0.5
	C13.3,18.3,13.5,18.4,13.6,18.5"/>
<path id="path4240" inkscape:connector-curvature="0" class="st0" d="M15.9,19.5c0.2,0,0.3-0.1,0.3-0.3c0.1-0.2,0-0.4-0.1-0.5
	c-0.1-0.1-0.2-0.2-0.3-0.3c-0.2-0.1-0.3-0.1-0.5,0.1c-0.1,0.1-0.1,0.2-0.1,0.3c0,0.2,0,0.3,0.1,0.4C15.5,19.4,15.6,19.5,15.9,19.5"
	/>
<path id="path4242" inkscape:connector-curvature="0" class="st0" d="M18.2,18.8c0.2,0,0.2-0.1,0.3-0.2c0.1-0.1,0.2-0.2,0.3-0.3
	c0.1-0.1,0.1-0.2,0.1-0.4c0-0.2-0.1-0.3-0.3-0.5c-0.1-0.1-0.2-0.3-0.4-0.2c-0.2,0.1-0.1,0.2-0.2,0.4c-0.1,0.2-0.3,0.3-0.3,0.5
	c0,0.2-0.1,0.3,0,0.5C17.9,18.8,18,18.8,18.2,18.8"/>
<path id="path4244" inkscape:connector-curvature="0" class="st0" d="M18.9,17c0.2,0,0.2-0.2,0.3-0.4c0.1-0.1,0.3-0.3,0.2-0.4
	c-0.1-0.1-0.2-0.1-0.3-0.1c-0.3,0-0.6,0.2-0.5,0.5c0,0,0,0,0,0.1C18.6,16.9,18.7,17,18.9,17"/>
<path id="path4322" inkscape:connector-curvature="0" class="st0" d="M57.7,31.3c0.6-0.4,1.2-0.2,1.8-0.7c0.4-0.3,0.5-0.6,0.9-0.9
	c0.2-0.2,0.3-0.2,0.5-0.4c0.2-0.2,0.4-0.3,0.6-0.5c0.2-0.2,0.4-0.2,0.6-0.4c0.2-0.2,0.3-0.3,0.5-0.4c-0.1-0.4-0.1-0.7-0.3-1
	c-0.2-0.2-0.3-0.2-0.5-0.3c-0.2-0.2-0.3-0.3-0.5-0.5c-0.2-0.1-0.3-0.1-0.5-0.1c-0.2,0-0.3-0.1-0.5-0.1c-0.2-0.1-0.4-0.1-0.5-0.3
	c-0.3-0.3-0.4-0.6-0.5-1c-0.1-0.3-0.1-0.5-0.1-0.8C59,23.4,59,23,59,22.5c0-0.4-0.1-0.7-0.1-1.1c0-0.4,0-0.6,0-1
	c0-0.4,0.1-0.7,0.1-1.1c0-0.2,0-0.3,0-0.4c0-0.2,0-0.4,0-0.6c0-0.3,0.1-0.5,0-0.9c-0.1-0.3-0.3-0.5-0.3-0.8c-0.1-0.4,0.2-0.6,0-0.9
	c-0.1-0.1-0.2-0.1-0.3-0.3c-0.2-0.3-0.1-0.5-0.1-0.8h0.3c0-0.3-0.1-0.4-0.1-0.7c-0.1-0.4-0.2-0.6-0.3-0.9c-0.1-0.4-0.1-0.7-0.3-1.1
	c-0.1-0.3,0-0.7-0.3-0.9c-0.2-0.2-0.5,0-0.7-0.1c-0.2-0.1-0.3-0.3-0.4-0.5c-0.2-0.3,0-0.6-0.1-0.9C56,9.1,55.9,9,55.6,8.8
	c-0.2-0.2-0.5-0.1-0.7-0.3c-0.2-0.2-0.1-0.5-0.1-0.7c0-0.3-0.1-0.5,0-0.7c0.1-0.4,0.6-0.4,0.9-0.8c0.2-0.3,0.3-0.4,0.4-0.7
	c0.1-0.4,0.1-0.7,0-1.1c-0.1-0.4-0.5-0.6-0.5-1c0.1-0.4,0.5-0.4,0.7-0.8c0.1-0.3,0.1-0.5,0.1-0.7c0-0.3-0.2-0.4-0.3-0.6L56,1.3
	c-0.5,0.1-0.7-0.2-1.1-0.3c-0.4-0.1-0.6-0.2-0.9-0.3l-0.6,0.2c-0.3-0.1-0.4-0.4-0.7-0.2c-0.2,0.1-0.1,0.3-0.2,0.5
	c-0.2,0.2-0.6-0.1-0.8,0.1c-0.1,0.1-0.1,0.4-0.3,0.4c-0.2,0-0.2-0.1-0.4-0.2c-0.3-0.1-0.4-0.3-0.7-0.3c-0.4-0.1-0.7-0.1-1.1-0.1
	c-0.4,0-0.7,0-1.1,0c-0.5,0-0.8-0.2-1.2,0.1c-0.2,0.1-0.2,0.3-0.3,0.5c-0.3,0.2-0.5,0.1-0.8,0.1c-0.4,0.1-0.7,0-1.1,0.1
	c-0.3,0-0.5,0-0.9,0.1C43.5,2,43.3,2,43.1,2.2c-0.3,0.2-0.1,0.7-0.5,0.9C42.3,3.3,42,3,41.6,3c-0.3,0-0.5,0-0.8,0.1
	c-0.3,0.1-0.4,0.1-0.7,0.3c-0.2,0.1-0.3,0.2-0.5,0.4c-0.3,0.2-0.3,0.5-0.7,0.6v0.1c0.1,0.3,0,0.5,0.1,0.8c0.1,0.4,0.5,0.5,0.5,0.9
	c0.1,0.4-0.1,0.6-0.1,0.9c0,0.2,0.1,0.3,0.1,0.5c0.1,0.4,0,0.7,0,1.1c0,0.4-0.2,0.7,0.1,1c0.2,0.3,0.6,0.1,0.7,0.4
	c0,0.2-0.1,0.4-0.3,0.5c-0.2,0.2-0.3,0.3-0.5,0.4c-0.3,0.1-0.5-0.2-0.8-0.2c-0.3,0-0.5,0-0.8,0c-0.6,0.1-1,0.2-1.3,0.6
	c-0.2,0.3-0.3,0.5-0.3,0.8c-0.1,0.5,0.6,0.7,0.3,1.1c-0.2,0.4-0.6,0.2-1,0.4c-0.3,0.1-0.4,0.4-0.7,0.4c-0.2,0-0.4-0.2-0.6-0.1
	c-0.4,0-0.5,0.4-0.8,0.6c-0.3,0.2-0.6,0.3-0.9,0.4c-0.3,0.1-0.5,0.1-0.9,0.2c-0.4,0.1-0.6,0.3-1,0.5c-0.3,0.2-0.6,0.2-0.9,0.4
	c-0.3,0.2-0.4,0.5-0.8,0.6c-0.2,0.1-0.3,0-0.5,0.1c-0.3,0.1-0.3,0.3-0.5,0.5c-0.2,0.1-0.3,0.2-0.5,0.3c0,0,0,0.5,0,1
	c0,0.4,0,0.8,0,0.8l-0.1-0.1l6.5,5.5l-0.1,0.1l10.4,7.7c-0.2,0.2-0.2,0.5,0,0.7c0.1,0.2,0.3,0,0.5,0.2c0.1,0.1,0.1,0.2,0.1,0.3
	l1.1,0.3c0.1,0.2,0,0.5,0.2,0.6c0.2,0.1,0.4,0,0.6,0c0.3,0,0.5,0.1,0.7,0.3c0.3,0.3,0.1,0.6,0.1,0.9c0,0.2-0.1,0.4,0,0.5
	C47.8,37,48,37,48.2,37c0.3,0.1,0.5,0,0.9-0.1l-0.1-0.1c0.6-0.2,0.9-0.3,1.5-0.5c0.6-0.2,1,0,1.5-0.3c0.2-0.1,0.3-0.2,0.5-0.3
	c0.6-0.4,0.9-0.6,1.5-1c0.5-0.4,0.7-0.6,1.1-1c0.6-0.5,0.9-0.7,1.5-1.2C57,32,57.1,31.7,57.7,31.3"/>
<path id="path4324" inkscape:connector-curvature="0" class="st0" d="M93.9,11.8c-0.1,0-0.2,0-0.3,0.1c-0.2,0.1-0.2,0.2-0.4,0.4
	c-0.3,0.2-0.5,0.1-0.8,0.3c-0.3,0.2-0.2,0.6-0.5,0.8c-0.3,0.2-0.6,0.1-1,0.1c-0.6,0-0.9-0.2-1.4-0.3c-0.4-0.1-0.6,0-1-0.2
	c-0.3-0.1-0.4-0.3-0.8-0.5c-0.2-0.1-0.4-0.1-0.6-0.2c-0.4-0.1-0.7-0.1-1.1-0.2c-0.3-0.1-0.4-0.2-0.7-0.1c-0.2,0.1-0.1,0.4-0.3,0.4
	c-0.3,0-0.3-0.3-0.5-0.5h-0.3c-0.1,0.1-0.2,0.2-0.3,0.3c-0.1,0.3-0.1,0.5-0.1,0.8c0,0.2,0,0.3,0.1,0.5c0.1,0.9,0.3,1.4,0.4,2.3
	c0,0.2,0,0.4,0.1,0.6L85.1,31l0.1,0.1l14.1,0.1c0.1,0.2,0.2,0.2,0.3,0.4c0.1,0.2,0,0.4,0.3,0.5c0.2,0,0.3-0.2,0.4-0.3
	c0.3-0.3,0.2-0.6,0.5-0.9c0.1-0.1,0.3-0.1,0.4-0.2c0.1-0.1,0.2-0.1,0.3-0.3c0.2-0.2-0.1-0.6,0.1-0.8c0.2-0.2,0.4,0,0.6-0.1
	c0.3-0.1,0.4-0.2,0.6-0.3c0.2-0.1,0.3-0.2,0.5-0.3l-0.1-0.1c-0.2-0.3-0.2-0.5-0.2-0.8c-0.1-0.5,0.4-0.9,0.1-1.3
	c-0.2-0.2-0.4-0.1-0.6-0.3c-0.2-0.3-0.1-0.5-0.2-0.9c-0.2-0.4-0.3-0.6-0.5-0.9c-0.1-0.2-0.2-0.4-0.3-0.6c-0.2-0.4-0.5-0.4-0.7-0.8
	c-0.1-0.2-0.1-0.3-0.2-0.4c-0.1-0.2-0.3-0.3-0.5-0.5c-0.2-0.2-0.4-0.3-0.5-0.7c-0.1-0.3,0-0.5,0-0.8c0-0.2,0-0.4-0.1-0.6
	c-0.1-0.3-0.4-0.3-0.6-0.5c-0.2-0.2-0.3-0.4-0.5-0.7c-0.2-0.3-0.4-0.4-0.6-0.7c-0.3-0.4-0.3-0.6-0.5-1c-0.1-0.3-0.2-0.5-0.3-0.8
	c-0.1-0.4-0.3-0.6-0.2-0.9c0-0.1,0.1-0.3,0.2-0.3l-1.3-2.8c0.2,0,0.6,0.1,1.1,0.1c-0.3-0.1-0.6-0.1-0.9-0.3
	c-0.5-0.1-0.7-0.3-1.2-0.3C94.4,12,94.2,11.8,93.9,11.8L93.9,11.8z"/>
<path id="path4330" inkscape:connector-curvature="0" class="st0" d="M63,69.8c0.2,0,0.4,0,0.6,0c0.5,0,0.7,0.1,1.2,0.1
	c0.3,0,0.5,0.1,0.8,0.1c0.3,0,0.4,0,0.7,0s0.5,0,0.7,0c0.4,0.1,0.6,0.2,0.9,0.3c0.2,0.1,0.3,0.1,0.5,0.3c0.2,0.2,0,0.6,0.3,0.8
	c0.2,0.2,0.5,0.3,0.7,0.2c0.2-0.1,0.4-0.2,0.5-0.4c0.1-0.2,0.1-0.4,0.1-0.6c0-0.3,0-0.5,0-0.7L70,69.9c-0.2-0.5-0.3-0.8-0.5-1.3
	c-0.1-0.3-0.2-0.5-0.3-0.8c-0.1-0.4-0.2-0.6-0.4-1c-0.2-0.4-0.5-0.6-0.8-0.9c-0.2-0.3-0.5-0.3-0.6-0.7c-0.1-0.3,0-0.5-0.1-0.7
	c-0.1-0.2-0.4-0.3-0.3-0.5c0.1-0.1,0.3,0,0.4-0.1c0.3-0.2,0.1-0.6,0-0.9c-0.1-0.2-0.4-0.3-0.3-0.5c0.1-0.2,0.4-0.1,0.5-0.2
	c0.2-0.1,0.3-0.2,0.4-0.4c0.2-0.3,0-0.6,0.1-0.9c0.1-0.3,0.3-0.4,0.4-0.6c0-0.1,0.1-0.1,0.1-0.2c0.1-0.2,0.2-0.3,0.3-0.5v-0.1
	c-0.2-0.4-0.3-0.6-0.4-1c-0.1-0.3,0-0.4-0.1-0.7c-0.2-0.4-0.6-0.4-1-0.7c-0.2-0.1-0.3-0.1-0.5-0.3c-0.2-0.2-0.1-0.4-0.2-0.6
	c-0.1-0.3-0.4-0.3-0.5-0.6c0-0.3,0-0.5,0.3-0.7c0.2-0.2,0.5-0.1,0.7-0.1c0.4,0,0.6,0.1,0.9,0.1c0.2,0,0.5,0.1,0.6-0.1
	c0.2-0.3-0.1-0.5-0.3-0.7c-0.1-0.1-0.2-0.1-0.3-0.2c-0.2-0.2-0.2-0.4-0.3-0.7c-0.1-0.5,0.5-0.8,0.3-1.3c-0.1-0.1-0.1-0.2-0.2-0.3
	c-0.1-0.2-0.2-0.4-0.2-0.7c-0.1-0.3,0-0.5-0.1-0.7c-0.1-0.3-0.4-0.4-0.6-0.7c-0.2-0.3-0.2-0.6-0.5-0.7c-0.2,0-0.3,0-0.5,0.1L66.2,49
	c0,0.2,0,0.3,0,0.5c0,0.2,0,0.4,0.2,0.5c0.1,0.1,0.3,0,0.4,0.1c0.2,0.1,0.3,0.3,0.3,0.6c0.1,0.3,0,0.5-0.1,0.8
	c-0.1,0.3-0.1,0.7-0.5,0.7c-0.2,0-0.2-0.2-0.4-0.1c-0.3,0-0.2,0.4-0.3,0.7c-0.1,0.2-0.3,0.3-0.4,0.6c-0.1,0.2,0,0.4-0.1,0.7
	c-0.1,0.2-0.4,0.2-0.5,0.5c-0.1,0.3,0.2,0.6,0,0.9c-0.2,0.2-0.4,0-0.5,0.2c-0.2,0.2-0.1,0.5-0.1,0.7c-0.1,0.2-0.1,0.4-0.2,0.6
	c-0.2,0.2-0.4,0.2-0.6,0.5c-0.1,0.2-0.2,0.3-0.3,0.5c-0.2,0.4-0.2,0.6-0.3,1c-0.1,0.2-0.2,0.4-0.3,0.6c-0.1,0.2-0.1,0.4-0.1,0.6
	c0,0,0,0.1,0,0.1c0,0.2-0.1,0.4-0.2,0.6c-0.1,0.3-0.2,0.7-0.5,0.6c-0.2,0-0.2-0.2-0.3-0.3c-0.3-0.2-0.3-0.5-0.7-0.5
	c-0.2,0-0.3,0.1-0.5,0.1c-0.2,0-0.2-0.2-0.4-0.3c-0.4-0.1-0.4,0.4-0.7,0.7c-0.2,0.2-0.2,0.4-0.4,0.5c-0.2,0.2-0.4,0.2-0.6,0.4
	c-0.2,0.2-0.3,0.3-0.5,0.5c-0.2,0.2-0.3,0.3-0.3,0.6c-0.1,0.2,0,0.4,0,0.6c0,0.2-0.1,0.4-0.2,0.5c-0.1,0.2-0.3,0.2-0.4,0.4
	c-0.1,0.1-0.1,0.2-0.2,0.3l-0.1,0.3c0.2,0,0.3,0,0.5,0.1c0.3,0.1,0.3,0.3,0.5,0.5c0.3,0.3,0.5,0.5,0.7,0.9c0.3,0.4,0.4,0.6,0.6,1.1
	c0.2,0.4,0.2,0.7,0.2,1.1c0,0.5,0.1,0.7,0,1.2l0.2-0.1c0.3,0,0.5,0.1,0.7,0.1c0.4,0,0.6,0,1-0.1c0.3,0,0.5,0,0.8-0.1l0.1,0.1
	c0.2-0.1,0.2-0.2,0.4-0.3C62.4,69.7,62.7,69.8,63,69.8"/>
<path id="path4332" inkscape:connector-curvature="0" class="st0" d="M27.9,56.8c-0.1-0.2,0.3-0.3,0.3-0.6c0-0.2-0.3-0.3-0.3-0.5
	c-0.1-0.2-0.1-0.4-0.1-0.6c0-0.4,0-0.6,0.1-0.9l0.1-0.1c-0.2-0.2-0.5-0.3-0.5-0.6c-0.1-0.3,0.4-0.6,0.1-0.8
	c-0.1-0.1-0.2-0.1-0.3-0.1c-0.3-0.2-0.1-0.6-0.3-0.9c-0.1-0.2-0.3-0.2-0.5-0.5c-0.2-0.3,0.1-0.6-0.1-0.9c-0.1-0.2-0.2-0.3-0.3-0.3
	c-0.3-0.1-0.3,0.3-0.5,0.5c-0.3,0.2-0.4,0.2-0.7,0.3c-0.4,0-0.6-0.3-0.9-0.1c-0.2,0.1-0.2,0.6-0.5,0.5c-0.2-0.1-0.1-0.3-0.2-0.4
	c-0.2-0.2-0.4-0.1-0.7-0.1c-0.2,0-0.3-0.1-0.5-0.1c-0.3-0.1-0.3-0.3-0.6-0.4c-0.3-0.1-0.4,0.1-0.7,0.1c-0.4,0-0.7,0-1.1-0.1
	c-0.3-0.1-0.3-0.3-0.6-0.3c-0.3-0.1-0.4-0.1-0.7-0.1c0,0.1,0,0.2,0,0.3c0,0.1-0.2,0.2-0.2,0.3c-0.1,0.3,0.1,0.5,0.1,0.7
	c0,0.2-0.1,0.3-0.2,0.4c-0.2,0.2-0.5-0.1-0.8,0.1c-0.2,0.1-0.2,0.2-0.3,0.3c-0.3,0.2-0.5,0.2-0.7,0.5c-0.2,0.2-0.2,0.4-0.3,0.6
	c0.1,0,0.2,0.1,0.3,0.2c0.3,0.3,0.3,0.6,0.5,0.9c0.1,0.2,0.2,0.4,0.3,0.6c0.1,0.2,0,0.4,0.1,0.5c0.2,0.2,0.5,0,0.7,0.1
	c0.1,0.1,0.1,0.3,0.3,0.4c0.1,0.1,0.2,0.2,0.3,0.3c0.1,0.1,0.3,0.1,0.4,0.3c0.1,0.1,0.1,0.3,0,0.4l-0.1,0.1c0.3-0.1,0.5,0,0.8-0.1
	c0.3-0.2,0.3-0.4,0.5-0.7c0.2-0.3,0.3-0.7,0.7-0.8c0.2,0,0.3,0.1,0.5,0.1c0.4,0,0.5-0.3,0.9-0.3c0.3,0,0.4,0.2,0.6,0.3
	c0.2,0.1,0.5,0.1,0.6,0.3c0.2,0.2,0,0.5,0.1,0.7c0.1,0.2,0.4,0.3,0.4,0.5c0,0.2,0,0.3-0.1,0.4c-0.1,0.2-0.6,0.2-0.5,0.5
	c0.1,0.2,0.3,0.1,0.5,0.2h0.1c0.1-0.1,0.2-0.1,0.3-0.2c0.3-0.1,0.6-0.3,0.9-0.1C25,57.6,25,57.8,25,58c0.1,0.4,0,0.7,0.1,1.1
	c0.1,0.3,0,0.6,0.3,0.8c0.2,0.2,0.4,0.2,0.7,0.1c0.3-0.1,0.1-0.6,0.4-0.8c0.3-0.2,0.5,0,0.8,0h0.3C27.7,59,28,59,28,58.7
	c0-0.2-0.1-0.3-0.2-0.5c-0.2-0.3-0.7-0.3-0.5-0.5c0.1-0.2,0.4,0,0.6,0c0.2,0,0.5,0.2,0.6,0c0.2-0.2,0-0.4-0.1-0.6
	C28.2,56.9,27.9,57,27.9,56.8"/>
<path id="path4334" inkscape:connector-curvature="0" class="st0" d="M17.9,49.4c0.1,0,0.1,0,0.2,0c0,0,0,0,0,0H17.9"/>
<path id="path4336" inkscape:connector-curvature="0" class="st0" d="M15.6,52.7C15.6,52.6,15.6,52.6,15.6,52.7
	C15.6,52.6,15.6,52.6,15.6,52.7L15.6,52.7"/>
<path id="path4338" inkscape:connector-curvature="0" class="st0" d="M43.4,60.7c0-0.4,0.1-0.6,0.1-1c0-0.3,0-0.5,0-0.9
	c0-0.4,0-0.7-0.1-1.1c-0.1-0.5-0.2-0.8-0.2-1.3c0-0.4,0-0.6,0-0.9c0-0.3-0.1-0.5-0.1-0.9c0-0.4,0-0.6,0-0.9c0-0.3-0.1-0.5-0.2-0.9
	l-0.1-0.2c-0.3,0-0.5,0-0.7,0c-0.3,0-0.5-0.2-0.8-0.1c-0.3,0.1-0.3,0.5-0.6,0.5c-0.1,0-0.2,0-0.3-0.1c-0.2-0.1-0.4-0.1-0.6-0.2
	c-0.5-0.1-0.8-0.1-1.3-0.1c-0.5,0-0.9-0.2-1.3,0.1c-0.3,0.2-0.4,0.4-0.5,0.7c-0.1,0.3,0,0.4,0.1,0.7c0.1,0.4,0.5,0.6,0.3,0.9
	c-0.1,0.2-0.2,0.3-0.4,0.5l0.1,0.1c0.2,0.2,0.4,0.3,0.5,0.6c0.1,0.4-0.3,0.6-0.5,0.9c-0.1,0.2-0.2,0.3-0.3,0.5
	c-0.1,0.4,0.1,0.7,0.1,1.1c0,0.3,0,0.5-0.1,0.9c-0.1,0.4,0,0.6-0.2,0.9c-0.1,0.2-0.2,0.3-0.3,0.5c-0.2,0.4-0.1,0.7-0.1,1.1
	c0.1,0.4,0.1,0.7,0.3,1c0.2,0.2,0.4,0.3,0.5,0.5c0.1,0.3,0,0.5-0.1,0.7v0.1c0.2,0.1,0.3,0.1,0.5,0.3c0.2,0.1,0.2,0.3,0.4,0.4
	c0.3,0.1,0.4-0.3,0.7-0.4c0.4-0.1,0.6,0,1-0.2c0.3-0.1,0.4-0.3,0.7-0.5c0.2-0.1,0.3-0.2,0.5-0.3c0.2-0.1,0.3,0,0.5-0.1
	c0.2-0.1,0.3-0.3,0.5-0.4c0.3-0.2,0.5-0.1,0.9-0.2c0.2,0,0.4,0,0.6-0.1c0.3-0.1,0.5,0,0.7-0.2c0.1-0.1,0-0.3,0.1-0.4v-0.1
	c-0.2-0.3-0.3-0.4-0.4-0.7C43.4,61.2,43.4,61,43.4,60.7"/>
<path id="path4340" inkscape:connector-curvature="0" class="st0" d="M63.9,84c0.3-0.2,0.5-0.1,0.9-0.1c0.2,0,0.4,0,0.6,0l0.3-0.3
	c-0.1-0.3-0.1-0.5-0.3-0.7c-0.2-0.1-0.4,0-0.6,0c-0.3,0.1-0.4,0.2-0.7,0.3c-0.3,0.2-0.4,0.4-0.7,0.5c-0.2,0.1-0.4,0-0.6,0.2
	c-0.1,0.1-0.1,0.3-0.1,0.5l-0.2,0.1c0,0,0,0.1,0.1,0.1c0.1,0.3,0.2,0.4,0.3,0.7c0,0.1,0,0.3,0,0.4l0.2-0.1c0.2-0.1,0.3-0.1,0.4-0.2
	c0.2-0.2,0-0.5,0.1-0.9C63.6,84.4,63.7,84.1,63.9,84"/>
<path id="path4342" inkscape:connector-curvature="0" class="st0" d="M83.3,98.5c0-0.1,0-0.1,0-0.2c0-0.3,0-0.5,0.1-0.9
	c0-0.3,0-0.5,0-0.9v-0.1c-0.3-0.1-0.5-0.2-0.8-0.2c-0.4,0-0.6,0.4-0.9,0.3c-0.2,0-0.3-0.1-0.5-0.1c-0.3,0-0.6,0.3-0.7,0
	c-0.1-0.1,0-0.2,0-0.3c0-0.3,0.1-0.4,0.1-0.7c0-0.4-0.1-0.6-0.2-1c-0.2-0.4-0.6-0.5-0.7-1c-0.1-0.4,0.2-0.7,0.2-1.1
	c0.1-0.5,0.1-0.8,0-1.3c-0.1-0.2-0.2-0.4-0.2-0.6c-0.1-0.4,0-0.6,0-1c0-0.2,0.1-0.3,0-0.5c-0.2-0.3-0.5,0-0.9,0
	c-0.4,0-0.7,0.3-0.9,0c-0.1-0.2,0-0.3-0.1-0.5c-0.2-0.2-0.5-0.1-0.7-0.1c-0.4,0-0.7-0.2-1,0.1c-0.2,0.2-0.1,0.4-0.2,0.6
	c-0.1,0.2-0.3,0.3-0.3,0.5c-0.1,0.2,0.2,0.5,0,0.7c-0.1,0.1-0.3,0.1-0.5,0.1c-0.3,0-0.5,0-0.9,0c-0.3,0-0.4-0.1-0.7,0
	c-0.3,0.1-0.3,0.3-0.6,0.3c-0.4,0.1-0.7-0.2-1-0.5c-0.2-0.3-0.1-0.5-0.3-0.8c-0.1-0.2-0.2-0.2-0.3-0.4c-0.2-0.3-0.1-0.6-0.1-0.9
	c-0.1-0.3-0.2-0.4-0.2-0.7c0-0.2,0.1-0.4,0.1-0.6c0-0.1-0.1-0.2-0.2-0.3c-0.2-0.2-0.5-0.1-0.7-0.1c-0.5,0-0.8,0.1-1.3,0.1
	c-0.4,0-0.6-0.1-1-0.1c-0.4,0-0.6,0-1,0c-0.5,0-0.7,0.1-1.2,0.1c-0.4,0-0.6-0.2-0.9-0.1c-0.3,0.1-0.2,0.5-0.5,0.5
	c-0.1,0-0.2,0-0.3,0l-0.2-0.1c-0.1,0.1-0.4,0.2-0.5,0.3c-0.1,0.4,0.1,0.6,0.3,0.9c0.1,0.2,0.2,0.2,0.3,0.4c0.2,0.4,0.1,0.7,0.3,1.1
	c0.1,0.3,0.2,0.5,0.4,0.8c0.1,0.2,0.2,0.3,0.3,0.5c0.2,0.4,0.4,0.7,0.3,1.1c-0.1,0.2-0.2,0.3-0.3,0.5c-0.2,0.3-0.2,0.6-0.2,0.9
	c0,0.4,0.2,0.7,0.4,1.1c0.1,0.3,0.3,0.5,0.4,0.9c0.1,0.3,0.2,0.5,0.3,0.8c0.1,0.4,0.3,0.6,0.3,1.1c0,0.5-0.1,0.9-0.5,1.2
	c0,0-0.1,0-0.1,0.1c-0.2,0.1-0.4,0.2-0.6,0.3c-0.2,0.1-0.3,0.2-0.4,0.4c-0.3,0.4-0.4,0.7-0.5,1.2c-0.1,0.3,0.1,0.6-0.1,0.9
	c-0.1,0.2-0.2,0.2-0.3,0.4c-0.2,0.3-0.1,0.6-0.1,1c0,0.3,0,0.5-0.1,0.9c0,0.2-0.1,0.3-0.1,0.5c-0.1,0.3-0.3,0.4-0.5,0.7
	c-0.2,0.3-0.2,0.5-0.3,0.9c-0.1,0.5,0,0.8-0.1,1.3c0,0.5-0.1,0.7-0.1,1.2c0,0.2-0.1,0.5-0.1,0.7l0.1,0.1c0.3,0.1,0.5,0.3,0.8,0.3
	c0.2,0,0.4-0.1,0.6-0.2c0.3-0.1,0.4-0.4,0.7-0.4c0.2,0,0.2,0.1,0.4,0.1c0.3,0.1,0.4,0.2,0.7,0.3c0.3,0.1,0.4,0.2,0.7,0.3
	c0.5,0.1,0.8-0.1,1.3-0.1c0.5,0,0.8,0,1.3,0c0.6,0,0.9,0,1.4,0c0.4,0,0.6,0.1,1,0.1c0.5,0,0.7-0.1,1.2-0.1c0.4,0,0.8-0.1,1.1,0.1
	c0.3,0.1,0.3,0.3,0.5,0.5c0.2,0.2,0.2,0.3,0.5,0.5c0.4,0.2,0.8-0.1,1.3-0.1c0.6,0,0.9,0,1.4,0.2c0.2,0.1,0.3,0.2,0.5,0.2
	c0.3,0.1,0.4,0,0.7,0c0.2,0,0.3-0.1,0.5-0.1c0.6-0.1,0.9-0.2,1.5-0.3c0.4-0.1,0.6-0.1,0.9-0.2c0.2-0.1,0.4-0.1,0.6-0.2v-0.1
	l-2.2-2.8c0-0.8,0-1.2,0-2c0-0.8,0-1.2,0.1-2c0.1-0.5,0.1-0.8,0.2-1.3c0-0.4-0.2-0.7,0.1-0.9c0.2-0.1,0.4-0.1,0.6-0.1
	c0.4,0,0.7,0,1.1,0c0.3,0,0.5,0,0.9,0c0.4,0,0.8,0.3,1,0c0.1-0.3-0.1-0.4-0.1-0.7C83.2,99.2,83.3,99,83.3,98.5"/>
<path id="path4344" inkscape:connector-curvature="0" class="st0" d="M111.3,95c-0.3-0.3-0.3-0.6-0.4-1c-0.1-0.4,0.1-0.6-0.1-1
	c-0.1-0.3-0.2-0.4-0.3-0.6c-0.1-0.3-0.1-0.6-0.1-0.9c0-0.3-0.1-0.4-0.1-0.7c0-0.3,0-0.6,0.1-0.9c0.1-0.3,0.3-0.4,0.4-0.7
	c0.1-0.3,0-0.6-0.1-0.9c-0.1-0.2-0.2-0.3-0.4-0.5c-0.2-0.2-0.5-0.3-0.5-0.6c0-0.3,0.1-0.4,0.2-0.7c0.1-0.1,0.1-0.2,0.1-0.3
	c0-0.1,0.1-0.1,0.1-0.2c0.3-0.3,0.5-0.3,0.9-0.4c0.2,0,0.4,0.2,0.6,0c0.2-0.1,0.1-0.3,0.1-0.5c0-0.3,0-0.5-0.3-0.7
	c-0.1-0.1-0.2-0.1-0.3-0.1c-0.1-0.1-0.3,0-0.3-0.1h-0.1c-0.2-0.1-0.4-0.1-0.6-0.2c-0.3-0.1-0.5-0.2-0.9-0.4
	c-0.4-0.2-0.6-0.3-0.9-0.5c-0.4-0.4-0.7-0.7-0.9-1.2c-0.2-0.4,0.2-0.8-0.1-1.2c-0.3-0.3-0.6-0.3-0.9-0.5c-0.5-0.3-0.7-0.4-1.1-0.8
	c-0.4-0.4-0.5-0.7-0.9-1c-0.6-0.4-1.1-0.3-1.7-0.5c-0.6-0.2-0.8-0.5-1.3-0.7l0.1-0.3c0.1-0.2-0.1-0.4-0.1-0.6
	c0.1-0.2,0.2-0.2,0.3-0.4c0.1-0.2,0.4-0.2,0.3-0.5c0-0.2-0.3-0.2-0.5-0.3c-0.2-0.1-0.3-0.1-0.5-0.3c-0.2-0.1-0.2-0.4-0.5-0.4
	c-0.2,0-0.3,0.1-0.5,0.1c-0.3,0.1-0.5,0.2-0.9,0.3c-0.3,0.1-0.5,0.1-0.7,0.3c-0.2,0.2-0.2,0.3-0.3,0.5c-0.1,0.3-0.1,0.5-0.1,0.8
	c-0.1,0.3-0.2,0.4-0.2,0.7h-0.2c-0.2,0-0.3,0-0.5,0c-0.5,0-0.7-0.2-1.2-0.1c-0.3,0.1-0.5,0.2-0.8,0.3l0.2,0.3
	c0.3,0.2,0.5,0.2,0.7,0.5c0.1,0.2,0.1,0.3,0.1,0.5c0,0.3,0.1,0.5,0,0.7c-0.1,0.2-0.2,0.4-0.4,0.4s-0.2-0.4-0.4-0.4l0.1,0.5
	c0,0.3-0.1,0.5,0.1,0.8c0.1,0.2,0.3,0.2,0.3,0.4c0,0.3-0.4,0.2-0.5,0.5c-0.2,0.3,0,0.5-0.1,0.9c0,0.2,0,0.4-0.1,0.6
	c-0.1,0.3-0.4,0.4-0.7,0.5c-0.2,0.1-0.3,0.1-0.4,0.1c-0.1-0.1-0.1-0.2-0.2-0.3c-0.1-0.3-0.2-0.4-0.4-0.7c-0.1-0.2-0.1-0.4-0.3-0.4
	c-0.1,0-0.2,0.1-0.3,0.2c-0.2,0.3,0.2,0.6,0.3,0.9c0.1,0.3,0.1,0.4,0.1,0.7c0,0.3,0,0.5,0,0.7c0,0.6,0.1,0.9,0.1,1.4
	c0,0.1,0,0.2,0,0.2c0,0.3,0,0.5,0,0.8c0,0.3,0,0.4,0.1,0.7c0.1,0.2,0.1,0.4,0.2,0.5c0.2,0.2,0.4,0.1,0.6,0.3
	c0.3,0.3,0.2,0.6,0.3,0.9c0.1,0.4,0.2,0.6,0.3,0.9c0.1,0.2,0.1,0.4,0.3,0.6c0.1,0.2,0.3,0.3,0.4,0.6c0.1,0.2-0.1,0.3,0.1,0.4
	c0.1,0.1,0.2,0,0.3,0c0.2,0,0.4,0,0.5-0.2l0.1,0.1c0.4,0.2,0.6,0.3,0.9,0.5c0.5,0.3,0.8,0.4,1.3,0.7c0.4,0.2,0.6,0.2,0.9,0.4
	c0.3,0.1,0.5,0.2,0.8,0.3c0.3-0.2,0.5,0.1,0.8,0.2c0.2,0.1,0.4,0.3,0.5,0.5c0.2,0.2,0.2,0.3,0.3,0.5c0.1,0.3,0,0.5,0.1,0.9
	c0,0.4-0.1,0.7,0.1,1c0.1,0.2,0.3,0.2,0.3,0.3c0.1,0.1,0.1,0.2,0.1,0.4l-0.1,0.2c0.1,0,0.2,0,0.3-0.1c0.3-0.1,0.5,0,0.8-0.1
	c0.2,0,0.4-0.2,0.6-0.1c0.1,0.1,0.1,0.2,0.3,0.3c0.2,0.1,0.4,0.1,0.6,0.1c0.2-0.1,0.2-0.2,0.4-0.3c0.2,0,0.3,0.1,0.5,0.1
	c0.3,0.1,0.4,0.3,0.7,0.2c0.3-0.1,0.3-0.3,0.5-0.5c0.2-0.2,0.2-0.4,0.5-0.5c0.2,0,0.3,0,0.5,0.1c0.2,0.1,0.3,0.3,0.5,0.3
	c0.3-0.1,0.1-0.5,0.3-0.6c0.2-0.2,0.5,0,0.7,0c0.2,0,0.3,0.1,0.4,0c0.2-0.1,0.1-0.4,0.3-0.5c0.2,0,0.2,0.2,0.4,0.1
	c0.2,0,0.2-0.1,0.3-0.2c0.2-0.2,0.2-0.3,0.4-0.5c0.1-0.1,0.2-0.2,0.3-0.3l-0.1-0.1C111.7,95.3,111.5,95.2,111.3,95"/>
<path id="path4346" inkscape:connector-curvature="0" class="st0" d="M100.6,93.9c-0.1,0-0.1-0.1-0.2-0.1c0,0,0,0,0,0L100.6,93.9"/>
<path id="path4348" inkscape:connector-curvature="0" class="st0" d="M125.3,58.9c-0.4-0.1-0.6,0-1,0.1c-0.4,0-0.6,0.2-0.9,0.1
	c-0.3-0.1-0.2-0.4-0.5-0.5c-0.2-0.1-0.3-0.1-0.5-0.2c-0.5-0.2-0.9-0.2-1.4-0.4c-0.5-0.1-0.7-0.2-1.2-0.3c-0.4-0.1-0.6-0.2-1-0.3
	c-0.4-0.1-0.6,0-0.9-0.3c-0.1,0-0.1-0.1-0.2-0.1c-0.2-0.2-0.3-0.5-0.4-0.8c-0.1-0.5,0.3-0.9,0.1-1.3c-0.2-0.3-0.4-0.3-0.6-0.5
	c-0.2-0.3-0.2-0.5-0.3-0.8l0.2-0.1c-0.3,0,0-0.6-0.3-0.6c-0.2,0-0.2,0.5-0.4,0.5c-0.2,0-0.2-0.2-0.3-0.2c-0.2,0-0.2,0.4-0.5,0.3
	c-0.2,0-0.2-0.2-0.3-0.4c-0.2-0.4-0.1-0.7,0-1.1c0.1-0.4,0.3-0.5,0.5-0.9c0.2-0.3,0.1-0.6,0.4-0.7h-0.3c-0.2-0.2-0.3-0.3-0.4-0.5
	c-0.2-0.3-0.1-0.5-0.3-0.8c-0.2-0.3-0.4-0.4-0.6-0.6c-0.3-0.3-0.4-0.4-0.7-0.7c-0.2-0.2-0.4-0.3-0.6-0.5c-0.3-0.2-0.6-0.3-0.9-0.4
	c-0.2-0.1-0.4,0-0.6-0.1c-0.2-0.1-0.2-0.3-0.4-0.3c-0.2-0.1-0.4,0.1-0.6,0.2c-0.2,0.1-0.3,0.2-0.5,0.3c-0.3,0.1-0.5,0.4-0.8,0.3
	c-0.2-0.1-0.2-0.4-0.3-0.6c-0.2-0.2-0.2-0.4-0.5-0.5c-0.4-0.1-0.5,0.4-0.6,0.7c-0.1,0.3,0,0.5-0.1,0.7c-0.1,0.2-0.1,0.3-0.3,0.4
	c-0.2,0.1-0.3-0.1-0.5-0.1c-0.3,0-0.4,0-0.7,0c-0.3,0-0.5,0-0.8,0.1v-0.1c0,0.3,0,0.5-0.1,0.9c-0.1,0.3,0,0.6-0.3,0.8
	c-0.2,0.2-0.5,0-0.7,0.1c-0.2,0.1-0.1,0.3-0.3,0.5c-0.2,0.3-0.6,0.3-0.6,0.6c0,0.2,0.2,0.3,0.1,0.5c-0.1,0.2-0.3,0.1-0.4,0.2
	c-0.2,0.2-0.1,0.5-0.1,0.8c0,0.3,0.1,0.4,0,0.7c-0.1,0.2-0.2,0.3-0.4,0.5c-0.2,0.2-0.5,0-0.7,0.3c-0.2,0.2-0.1,0.5-0.2,0.8
	c-0.1,0.2-0.1,0.4-0.2,0.6c-0.1,0.5-0.1,0.9-0.1,1.4c0,0.2,0.1,0.4,0.1,0.6c0,0.1,0,0.2,0,0.4c0,0.2,0.1,0.4-0.1,0.6
	c-0.1,0.2-0.3,0.2-0.5,0.2s-0.3-0.2-0.5-0.2c-0.2,0-0.3,0-0.4,0.1c-0.3,0.2,0,0.5-0.1,0.9c0,0.1-0.1,0.2-0.1,0.3
	c0.1,0.3,0.4,0.1,0.7,0.3c0.4,0.2,0.6,0.3,0.9,0.6c0.2,0.2,0.2,0.4,0.4,0.7c0.2,0.2,0.4,0.3,0.6,0.5c0.2,0.2,0.4,0.2,0.5,0.4
	c0.2,0.3,0,0.5,0.1,0.8c0.1,0.3,0.1,0.4,0.2,0.7c0.1,0.3,0.2,0.5,0.5,0.6c0.2,0.1,0.4,0,0.6,0.1c0.2,0.1,0.2,0.3,0.3,0.5
	c0.1,0.2,0.1,0.3,0.1,0.5c0,0.3-0.1,0.4-0.2,0.7l0.2,0.1c0.3,0.1,0.5,0.2,0.9,0.2c0.3,0,0.5,0,0.8,0c0.2,0,0.3,0.1,0.5,0.1
	c0.3,0.1,0.5,0.3,0.7,0.5c0.3,0.2,0.4,0.5,0.7,0.7c0.2,0.1,0.3,0.2,0.5,0.3c0.3,0.1,0.5-0.1,0.8-0.1c0.2,0,0.3,0,0.5,0.1
	c0.2,0.1,0.2,0.3,0.4,0.3c0.2,0.1,0.4,0.1,0.6,0c0.3-0.1,0.3-0.4,0.5-0.7c0.1-0.2,0.2-0.3,0.3-0.4c0.2-0.2,0.4-0.2,0.7-0.3
	c0.1-0.1,0.2-0.3,0.3-0.3c0.2,0,0.2,0.3,0.4,0.5c0.3,0.2,0.5,0.3,0.8,0.3c0.3,0,0.4-0.1,0.7-0.2h0.1c0.3-0.1,0.4-0.2,0.7-0.3
	c0.3-0.1,0.6,0.1,0.9-0.1c0.2-0.1,0.3-0.2,0.5-0.4c0.2-0.2,0.3-0.3,0.5-0.5c0.1-0.2,0.1-0.3,0.3-0.4c0.2-0.2,0.4-0.1,0.7-0.1
	c0.4,0,0.6,0.1,1,0.1c0.3,0,0.4,0.1,0.7,0c0.2,0,0.3-0.1,0.4-0.2c0.2-0.2,0.2-0.4,0.4-0.6c0.2-0.3,0.3-0.5,0.6-0.8
	c0.3-0.3,0.5-0.3,0.8-0.6c0.3-0.3,0.4-0.5,0.6-0.8c0.2-0.3,0.4-0.5,0.6-0.7c0.2-0.3,0.3-0.5,0.6-0.7c0.3-0.3,0.5-0.4,0.7-0.7
	c0.2-0.2,0.3-0.3,0.4-0.5c0.1-0.1,0.2-0.2,0.1-0.3C125.6,58.9,125.4,58.9,125.3,58.9"/>
<path id="path4468" inkscape:connector-curvature="0" class="st0" d="M110.3,86.7c-0.2,0.1-0.1,0.3,0,0.5c0.1,0.1,0.1,0.3,0.3,0.3
	c0.2,0,0.1-0.3,0.1-0.5S110.5,86.7,110.3,86.7"/>
<path id="path4588" inkscape:connector-curvature="0" class="st0" d="M32.4,44c0.1,0,0.2-0.1,0.3-0.2c0.2-0.2,0.1-0.4,0.1-0.6
	c0.1-0.2,0.3-0.3,0.3-0.5c0-0.3-0.1-0.5-0.3-0.6c-0.2-0.1-0.3-0.1-0.5-0.1L32,36.6l-0.5-6.9l-0.2-4.6l2.5-0.1l0.2,0.1l-6.4-5.4V23
	h-5.7l-0.1,5.2c-0.2,0-0.4,0.1-0.6,0.1c-0.3,0.1-0.5,0-0.8,0.2c-0.2,0.1-0.3,0.2-0.4,0.4c-0.2,0.3-0.2,0.5-0.1,0.8v2.5h-7l-0.3-0.2
	l0.3,0.7c0.1,0.2,0.1,0.4,0.3,0.6c0.2,0.2,0.4,0.2,0.6,0.5c0.2,0.3,0.2,0.6,0.3,0.9c0,0.3,0.1,0.6-0.1,0.9c-0.1,0.2-0.4,0.2-0.5,0.4
	c-0.1,0.3,0.1,0.5,0.1,0.8l0.1-0.1c0.2,0.2,0.2,0.3,0.4,0.4c0.2,0.2,0.5,0.2,0.5,0.4c0,0.2-0.2,0.2-0.3,0.4c0,0.2,0,0.2,0,0.4
	c0,0.4,0.2,0.6,0.1,1c-0.1,0.5-0.5,0.7-0.6,1.2c-0.1,0.2,0,0.4-0.1,0.6c-0.1,0.4-0.2,0.7-0.3,1l0,0.1c0.2-0.2,0.2-0.5,0.4-0.6
	c0.3-0.1,0.5,0.1,0.7,0c0.3-0.1,0.4-0.1,0.7-0.3c0.2-0.1,0.3-0.2,0.5-0.3c0.3,0,0.4,0.2,0.7,0.3c0.4,0.1,0.6-0.2,0.9,0.1
	c0.3,0.2,0.1,0.6,0.3,0.7c0.2,0.2,0.4,0,0.7,0.1c0.2,0.1,0.3,0.1,0.4,0.3c0.1,0.2-0.1,0.3-0.1,0.5c0.1,0.3,0.6,0.1,0.7,0.3
	c0.1,0.1,0,0.3,0.1,0.4c0.1,0.3,0.4,0.4,0.6,0.7c0.2,0.2,0.3,0.3,0.4,0.5l0.3,0.1c0.2-0.1,0.5,0,0.6-0.2c0.2-0.2,0-0.4,0-0.7
	c0-0.2,0-0.4,0.1-0.5c0.1-0.1,0.2-0.2,0.3-0.3c0.2-0.1,0.4,0,0.5,0.1c0.2,0.2,0,0.5,0.3,0.6c0.2,0.1,0.3-0.1,0.5-0.2
	c0.2-0.1,0.2-0.4,0.5-0.4c0.2,0,0.3,0.1,0.5,0.1c0.2,0.1,0.3,0.3,0.5,0.3c0.2,0,0.3-0.1,0.5-0.3c0.2-0.2,0.2-0.4,0.5-0.5
	c0.3,0,0.5,0.1,0.6,0.4l5.6,0.1L32.4,44"/>
<polyline id="polyline4590" class="st0" points="27.4,19.6 27.6,19.7 27.6,19.7 27.4,19.6 "/>
<path id="path4592" inkscape:connector-curvature="0" class="st0" d="M70.3,81.3c0.1-0.2,0.1-0.3,0.1-0.5c0-0.3,0-0.5,0-0.9
	c0-0.3,0-0.5-0.1-0.7c0-0.2-0.1-0.3-0.1-0.5c0-0.2,0.1-0.4,0.2-0.5c0.1-0.1,0.3-0.1,0.4-0.3c0.2-0.2,0.2-0.3,0.3-0.5
	c0.2-0.4,0.1-0.7,0.4-1c0.2-0.2,0.3-0.2,0.5-0.4c0.1-0.1,0.2-0.1,0.2-0.2c0.1-0.1,0.3-0.2,0.4-0.4c0.3-0.5-0.1-0.9,0.1-1.3
	c0.1-0.3,0.3-0.3,0.4-0.6c0.1-0.4-0.1-0.6-0.1-0.9c0-0.4-0.1-0.7,0-1.1c0-0.2,0.1-0.4,0.1-0.6c0.1-0.4-0.1-0.7,0.1-1
	c0.2-0.3,0.4-0.3,0.6-0.6c0.2-0.3,0.3-0.5,0.3-0.9c0.1-0.4,0-0.6,0.1-0.9l0.1-0.2c-0.3,0-0.5,0.1-0.9,0.1c-0.4,0-0.6,0-0.9-0.1
	c-0.4-0.1-0.8-0.4-1.1-0.2c-0.4,0.2-0.2,0.7-0.3,1.1c-0.1,0.3-0.2,0.5-0.4,0.8c-0.2,0.4-0.3,0.7-0.5,1.1c0,0.2,0,0.4,0,0.7
	c0,0.2,0,0.4-0.1,0.6c-0.1,0.2-0.2,0.3-0.5,0.4c-0.3,0.1-0.5,0-0.7-0.2c-0.2-0.2,0-0.6-0.3-0.8c-0.1-0.2-0.3-0.2-0.5-0.3
	c-0.4-0.2-0.6-0.3-0.9-0.3c-0.3,0-0.5,0-0.7,0s-0.5,0-0.7,0c-0.3,0-0.5-0.1-0.8-0.1l0.1,0.1c0,0.3,0,0.5-0.1,0.8
	c0,0.3-0.2,0.5-0.1,0.9c0,0.1,0,0.2,0.1,0.3c0.2,0.2,0.3-0.3,0.5-0.3c0.3-0.1,0.5-0.2,0.8,0c0.2,0.1,0.2,0.2,0.3,0.4
	c0.2,0.2,0.4,0.3,0.5,0.5c0,0.2,0,0.4-0.2,0.6c-0.2,0.3-0.7,0-0.9,0.3c-0.2,0.3-0.2,0.6-0.1,0.9c0.1,0.3,0.4,0.2,0.6,0.5
	c0.2,0.3,0.1,0.6,0.1,0.9c0,0.1,0,0.2,0,0.3c0.1,0.5,0.2,0.8,0.2,1.3c0,0.4-0.1,0.6-0.1,1c-0.1,0.3,0.1,0.7-0.2,0.8
	c-0.2,0.1-0.3,0.1-0.5,0c-0.1-0.1-0.1-0.3-0.2-0.3c-0.2,0-0.2,0.2-0.3,0.3c-0.2,0.1-0.3,0.3-0.5,0.2c-0.2-0.1-0.2-0.2-0.3-0.4
	c-0.1-0.2-0.1-0.4-0.3-0.5c-0.1-0.1-0.2-0.3-0.4-0.2c-0.2,0.1,0,0.4-0.1,0.5c-0.1,0.2-0.2,0.3-0.4,0.3c-0.2,0.1-0.3-0.1-0.5-0.1
	c-0.2,0-0.4-0.1-0.6,0c-0.3,0.2-0.1,0.5-0.1,0.8c0,0.3,0,0.4,0,0.7c0,0.2-0.1,0.3-0.1,0.5c-0.1,0.3-0.3,0.4-0.5,0.6
	c-0.2,0.1-0.3,0.2-0.5,0.3v0.2c0.1,0.3,0,0.6,0.2,0.8c0.2,0.2,0.4,0,0.6,0.2c0.2,0.2,0,0.4,0.1,0.7c0.1,0.2,0.3,0.2,0.4,0.4
	c0.1,0.2,0.2,0.3,0.3,0.4l0.2-0.1c0.1-0.2,0-0.3,0.1-0.5c0.2-0.2,0.4-0.1,0.6-0.2c0.3-0.2,0.4-0.4,0.7-0.5c0.3-0.2,0.4-0.3,0.7-0.3
	c0.2,0,0.4-0.1,0.6,0c0.3,0.1,0.2,0.4,0.3,0.7v0.1c0.1-0.1,0.2-0.2,0.3-0.3c0.2-0.1,0.3-0.3,0.5-0.3c0.2,0,0.3,0.1,0.4,0.3
	c0.1,0.2-0.1,0.5,0.1,0.6c0.2,0.1,0.3-0.1,0.5-0.1c0.3-0.1,0.5-0.2,0.7-0.5c0.3-0.3,0.4-0.6,0.7-0.9c0.3-0.3,0.5-0.4,0.7-0.6
	C69.9,81.7,70.1,81.6,70.3,81.3"/>
<path id="path4594" inkscape:connector-curvature="0" class="st0" d="M70.1,70C70.1,70,70.1,70,70.1,70C70.1,70,70.1,70,70.1,70
	L70.1,70"/>
<path id="path4596" inkscape:connector-curvature="0" class="st0" d="M36.8,57c0.2-0.4,0.6-0.5,0.5-0.9c-0.1-0.3-0.3-0.4-0.5-0.6
	l-0.1-0.1c-0.3-0.2-0.5-0.3-0.9-0.4c-0.3-0.1-0.5-0.4-0.9-0.3c-0.2,0.1-0.2,0.3-0.4,0.4c-0.2,0.1-0.4,0.1-0.6,0.1
	c-0.3,0-0.6,0-0.8-0.3c-0.2-0.2-0.1-0.4-0.3-0.6c-0.2-0.2-0.4-0.2-0.6-0.3l-0.2-0.3c-0.2,0.1-0.3,0.2-0.6,0.3
	c-0.2,0-0.4,0.1-0.5-0.1c-0.1-0.2,0.2-0.4,0-0.5c-0.1-0.1-0.2-0.1-0.3-0.1c-0.2,0-0.3,0.1-0.5,0.3c-0.2,0.2-0.2,0.5-0.5,0.5
	c-0.2,0-0.3-0.1-0.5-0.1c-0.2-0.1-0.3-0.3-0.6-0.3c-0.3,0-0.4,0.2-0.6,0.3h-0.1c0,0.4-0.1,0.6-0.1,0.9c0,0.2,0,0.4,0.1,0.6
	c0.1,0.2,0.3,0.3,0.3,0.5c0,0.3-0.4,0.4-0.3,0.6c0.1,0.2,0.3,0.2,0.5,0.3c0.1,0.2,0.3,0.4,0.1,0.6c-0.2,0.2-0.4,0-0.6,0
	c-0.2,0-0.5-0.2-0.6,0c-0.2,0.2,0.4,0.3,0.5,0.5c0.1,0.2,0.2,0.3,0.2,0.5c0,0.2-0.2,0.3-0.4,0.5l0.1-0.1c-0.1,0.1-0.2,0.2-0.3,0.3
	C27.2,59.6,27,59.7,27,60c0,0.3,0.4,0.3,0.4,0.5c0.1,0.4-0.8,0.5-0.7,0.9c0.1,0.3,0.2,0.3,0.5,0.5c0.3,0.2,0.7-0.2,0.9,0.1
	c0.1,0.2,0,0.4,0.1,0.6c0.1,0.2,0.3,0.2,0.5,0.4c0.2,0.3,0.1,0.6,0.1,1c0,0.3-0.2,0.5-0.2,0.9c0,0.4,0,0.6,0,0.9l0,0
	c0.2-0.1,0.4-0.2,0.6-0.4c0.2-0.1,0.4-0.1,0.6-0.3c0.3-0.2,0.4-0.3,0.7-0.5c0.3-0.1,0.5-0.1,0.8-0.1c0.3-0.1,0.5,0,0.8-0.1
	c0.2-0.1,0.3-0.3,0.5-0.4c0.3-0.1,0.4-0.1,0.7-0.1c0.6,0,0.9,0.1,1.4,0.1c0.4,0,0.7,0,1.1,0.1c0.4,0.1,0.6,0.2,1,0.3v-0.1
	c0-0.3,0.2-0.5,0.1-0.7c-0.1-0.3-0.4-0.3-0.5-0.5c-0.2-0.3-0.3-0.6-0.3-1c-0.1-0.4-0.1-0.7,0.1-1.1c0.1-0.2,0.2-0.3,0.3-0.5
	c0.2-0.3,0.1-0.6,0.2-0.9c0-0.3,0.1-0.5,0.1-0.9c0-0.4-0.3-0.7-0.1-1.1C36.6,57.3,36.7,57.2,36.8,57"/>
<path id="path4598" inkscape:connector-curvature="0" class="st0" d="M61.6,48.3c0.3,0.1,0.4,0.3,0.7,0.4c0.3,0.1,0.4,0.3,0.7,0.3
	c0.3,0,0.3-0.4,0.6-0.6c0.2-0.1,0.3-0.2,0.5-0.3c0.3-0.1,0.5-0.1,0.8-0.3c0.2-0.1,0.2-0.2,0.4-0.3h-0.1c0.1-0.3,0.2-0.4,0.3-0.7
	c0.1-0.3,0.1-0.5,0.1-0.9c0-0.3-0.1-0.5,0-0.8c0.1-0.4,0.3-0.6,0.6-0.9c0.2-0.2,0.3-0.2,0.5-0.4c0.3-0.2,0.5-0.4,0.5-0.7
	c0-0.2-0.1-0.3,0-0.4c0.1-0.2,0.3-0.2,0.5-0.4c0.2-0.2,0.3-0.2,0.5-0.4c0.2-0.2,0.3-0.3,0.4-0.5c0.5-0.7,0.5-1.3,0.4-2
	c-0.1-0.7-0.4-1.4-0.4-2.4c0-0.7,0.1-1.1,0.3-1.8c0.1-0.4,0.3-0.6,0.2-0.9c0-0.2-0.1-0.3-0.1-0.4c-0.1-0.2-0.4-0.2-0.5-0.4
	c-0.1-0.2,0.1-0.3,0.1-0.5c-0.1-0.2-0.3-0.2-0.5-0.4c-0.2-0.3-0.2-0.5-0.2-0.9c0-0.3,0-0.5,0-0.9c0-0.3,0-0.5-0.1-0.8
	c-0.1-0.2-0.2-0.3-0.3-0.5l0.1-0.2c-0.2,0.1-0.3,0.2-0.5,0.3c-0.3,0.1-0.5,0.4-0.7,0.3c-0.3-0.1-0.1-0.5-0.3-0.7
	C66,29,65.8,29,65.5,28.9c-0.3-0.1-0.4-0.1-0.7-0.2c-0.3-0.1-0.5-0.1-0.7-0.2c-0.2-0.1-0.3-0.3-0.6-0.3c-0.3-0.1-0.6-0.2-0.9-0.1
	c-0.2,0.1-0.3,0.3-0.5,0.4c-0.2,0.2-0.4,0.2-0.6,0.4c-0.2,0.2-0.4,0.3-0.6,0.5c-0.2,0.2-0.3,0.2-0.5,0.4c-0.4,0.3-0.5,0.6-0.9,0.9
	c-0.6,0.4-1.1,0.3-1.8,0.7c-0.5,0.4-0.7,0.7-1.1,1.1c-0.6,0.5-0.9,0.7-1.5,1.2c-0.5,0.4-0.7,0.6-1.1,1c-0.5,0.4-0.9,0.6-1.5,1
	c-0.2,0.1-0.3,0.2-0.5,0.3c-0.5,0.3-0.9,0.2-1.5,0.3c-0.6,0.2-0.9,0.3-1.5,0.5l0.2,0.2c0.1,0.3,0.1,0.5,0.1,0.9c0.1,0.6,0,1,0,1.5
	c0,0.2,0,0.4,0,0.6c0,0.7,0.3,1,0.1,1.7c-0.1,0.4-0.3,0.6-0.4,0.9c-0.1,0.3,0,0.4-0.1,0.7c-0.1,0.3-0.3,0.3-0.5,0.5
	c-0.2,0.2-0.2,0.3-0.5,0.4c-0.4,0.1-0.6-0.4-0.9-0.3c-0.2,0.1-0.3,0.2-0.5,0.3c-0.4,0.2-0.7,0.1-1.2,0.1c-0.3,0-0.6-0.1-0.9,0
	c-0.2,0.1-0.3,0.3-0.5,0.4c-0.2,0.1-0.4,0.2-0.6,0.2c-0.3,0-0.5,0-0.7-0.1v0.2c0,0.3,0,0.5,0,0.8c0,0.3,0,0.5,0.2,0.7
	c0.2,0.3,0.4,0.3,0.7,0.5c0.2,0.2,0.5,0.3,0.6,0.6c0.1,0.3-0.1,0.5-0.1,0.8c0,0.3-0.1,0.5,0.1,0.7c0.2,0.4,0.7,0.3,1.1,0.2
	c0.2,0,0.2-0.2,0.4-0.1c0.2,0,0.2,0.1,0.3,0.2c0.2,0.2,0,0.5,0.1,0.7v0.1c0.2-0.2,0.3-0.7,0.6-0.6c0.2,0,0.3,0.2,0.4,0.3
	c0.2,0.2,0.2,0.4,0.4,0.5c0.3,0.2,0.5,0,0.8,0l-0.1-0.1c0-0.3-0.2-0.6,0-0.9c0.2-0.3,0.5-0.1,0.7-0.4c0.3-0.3,0-0.7,0.2-1
	c0.1-0.2,0.2-0.3,0.4-0.5c0.2-0.2,0.3-0.4,0.6-0.5c0.3-0.1,0.4,0.1,0.7,0.1c0.2,0,0.2-0.1,0.4-0.2c0.2-0.1,0.4-0.3,0.6-0.3
	c0.2,0,0.2,0.2,0.3,0.3c0.2,0.2,0.2,0.4,0.5,0.5c0.2,0.1,0.4-0.1,0.6,0c0.4,0.1,0.3,0.6,0.6,0.8c0.3,0.2,0.6,0.3,1,0.1
	c0.3-0.1,0.3-0.4,0.5-0.5c0.3-0.1,0.6-0.1,0.9,0.1c0.3,0.1,0.3,0.3,0.5,0.5c0.3,0.2,0.5,0.3,0.9,0.4c0.2,0.1,0.3,0.1,0.5,0.1
	c0.3,0,0.4-0.1,0.7-0.3c0.3-0.2,0.4-0.4,0.7-0.6c0.3-0.1,0.4-0.2,0.7-0.2c0.3,0,0.5,0,0.7,0.1C61.2,48.2,61.4,48.2,61.6,48.3"/>
<path id="path4600" inkscape:connector-curvature="0" class="st0" d="M95.2,79.6L95,79.1c-0.2,0-0.3,0.2-0.5,0.3
	c-0.2,0.1-0.2,0.3-0.4,0.4c-0.2,0.2-0.3,0.4-0.6,0.4c-0.2,0-0.2-0.3-0.5-0.3c-0.2,0-0.2,0.1-0.4,0.2l-0.1,0.2
	c0.1,0.3,0.1,0.5,0.1,0.7c0,0.3,0.1,0.4,0.1,0.7l-0.1,0.3c0.1-0.1,0.1-0.2,0.3-0.2c0.2,0,0.2,0.2,0.3,0.4c0.2,0.2,0.3,0.4,0.4,0.7
	c0.1,0.1,0.1,0.2,0.2,0.3c0.1,0,0.3,0,0.4-0.1c0.3-0.1,0.5-0.2,0.7-0.5c0.1-0.2,0-0.4,0.1-0.6c0-0.3-0.1-0.6,0.1-0.9
	c0.1-0.2,0.5-0.2,0.5-0.5c0-0.2-0.2-0.2-0.3-0.4C95.1,80.1,95.2,79.9,95.2,79.6"/>
<path id="path4602" inkscape:connector-curvature="0" class="st0" d="M93.9,83.3C93.9,83.3,93.9,83.3,93.9,83.3c-0.1,0-0.1,0-0.2,0
	L93.9,83.3"/>
<path id="path4604" inkscape:connector-curvature="0" class="st0" d="M99.7,95.2c-0.1-0.3,0.1-0.6,0-0.9c-0.1-0.2-0.3-0.3-0.5-0.5
	c-0.1-0.2-0.2-0.3-0.3-0.5l0-0.1c-0.1,0-0.2-0.1-0.3-0.1c-0.5-0.2-0.8-0.4-1.3-0.7c-0.4-0.2-0.6-0.3-0.9-0.5l-0.1-0.1
	C96.2,92,96,92,95.8,92c-0.1,0-0.2,0.1-0.3,0c-0.1-0.1,0-0.3-0.1-0.4c-0.1-0.3-0.3-0.4-0.4-0.6L94.9,91c-0.2,0-0.3,0-0.5,0.1
	c-0.2,0-0.3,0.1-0.5,0.1c-0.4,0.1-0.7-0.2-1.1,0c-0.3,0.2-0.4,0.4-0.6,0.7c-0.2,0.2-0.3,0.3-0.5,0.5c-0.3,0.3-0.5,0.4-0.7,0.8
	c-0.1,0.2-0.4,0.4-0.3,0.7c0.1,0.3,0.5,0.1,0.6,0.4c0.1,0.2,0,0.3,0,0.5c0,0.4,0,0.6-0.1,0.9c-0.1,0.4-0.3,0.6-0.3,1
	c-0.1,0.7-0.3,1.2,0.2,1.7c0.3,0.3,0.6,0.3,1,0.3c0.7,0,0.1,0.4,0.2,1c0,0,0,0.6-0.1,0.6c-0.7,0.1-1,0.1-1.3,0
	c-0.5-0.2-0.3-0.8-0.7-1.2c-0.3-0.3-0.5-0.3-0.8-0.5c-0.2-0.2-0.3-0.5-0.5-0.6c-0.1-0.1-0.2-0.2-0.4-0.1c-0.2,0-0.1,0.4-0.3,0.5
	c-0.3,0.1-0.5,0-0.7-0.1c-0.3-0.1-0.4-0.3-0.7-0.4c-0.4-0.1-0.8,0.3-1.1,0c-0.3-0.2,0.1-0.6-0.2-0.9c-0.1-0.1-0.2-0.2-0.4-0.2
	c-0.3,0-0.3,0.4-0.6,0.3c-0.2,0-0.3-0.3-0.5-0.4c-0.1-0.1-0.2-0.1-0.3-0.2h-0.2c0,0.3,0,0.5,0,0.9c0,0.4,0,0.7-0.1,1.1
	c0,0.5-0.1,0.7-0.1,1.2c0,0.3,0.3,0.5,0.1,0.7c-0.2,0.3-0.6,0-1,0c-0.3,0-0.5,0-0.9,0c-0.4,0-0.7,0-1.1,0c-0.2,0-0.4-0.1-0.6,0.1
	c-0.1,0.1-0.2,0.2-0.1,0.4c0,0.2,0.1,0.4,0.1,0.6c-0.1,0.5-0.1,0.8-0.2,1.3c-0.1,0.8-0.1,1.2-0.1,2c0,0.8,0,1.2,0,2l2.2,2.8l0.1,0.1
	c0.3-0.1,0.4-0.1,0.7-0.2c0.3-0.1,0.4-0.1,0.7-0.1c0.4,0,0.5,0.2,0.9,0.3c0.4,0.1,0.6,0.2,0.9,0.3c0.2,0.1,0.3,0.1,0.5,0.2
	c0.2,0.1,0.3,0.1,0.5,0.1c0.2,0.1,0.3,0.1,0.5,0.1c0.2,0.1,0.4,0.1,0.6,0.1c0.2,0,0.2-0.1,0.4-0.1c0.2,0,0.3,0.2,0.5,0.3
	c0.1,0,0.2,0,0.3,0c0.3-0.1,0-0.5,0.2-0.7c0.2-0.2,0.3-0.2,0.5-0.4c0.3-0.2,0.6-0.3,0.7-0.7c0.1-0.1,0.1-0.2,0.1-0.3
	c0.2-0.3,0.4-0.4,0.7-0.5c0.2-0.1,0.4,0,0.5-0.1c0.1-0.1,0-0.2,0.1-0.4c0.1-0.4,0-0.7,0.3-1c0.2-0.2,0.4-0.2,0.6-0.3
	c0.2-0.1,0.3-0.1,0.5-0.1c0.2-0.1,0.3-0.2,0.5-0.2c0.2,0,0.3,0,0.5,0c0.2,0,0.4,0,0.6-0.1l0.1-0.1c0.1-0.2,0.2-0.2,0.2-0.4
	c0-0.2-0.4-0.1-0.5-0.3c-0.1-0.2,0-0.4,0.1-0.5c0.1-0.2,0.3-0.2,0.5-0.3c0.3-0.1,0.4-0.2,0.7-0.3c0.3-0.1,0.5,0.1,0.7,0
	c0.3-0.1,0.4-0.3,0.7-0.4c0.2-0.1,0.3-0.1,0.5-0.2c0.2-0.1,0.4,0,0.6-0.1c0.3,0,0.5,0.1,0.7-0.1c0.1-0.2,0.1-0.3,0.1-0.5h0.3
	c-0.2-0.2-0.4-0.2-0.5-0.5c0-0.3,0.2-0.4,0.3-0.6c0.1-0.2,0.1-0.4,0.2-0.6c0-0.1,0.1-0.3,0.1-0.4c0-0.2-0.1-0.4,0.1-0.6
	c0.2-0.2,0.4,0.1,0.6-0.1c0.2-0.2,0.1-0.5,0.1-0.7c0-0.3-0.2-0.4-0.3-0.7c0-0.2,0-0.3,0-0.5c0-0.2-0.1-0.2-0.1-0.4
	c0-0.3,0.3-0.3,0.4-0.6c0.1-0.2-0.1-0.4,0.1-0.6c0.1-0.2,0.5-0.1,0.5-0.3C100.5,95.5,99.9,95.5,99.7,95.2"/>
<path id="path4606" inkscape:connector-curvature="0" class="st0" d="M95,119.5C95,119.5,95,119.5,95,119.5
	C95,119.5,95,119.5,95,119.5L95,119.5"/>
<path id="path4608" inkscape:connector-curvature="0" class="st0" d="M95.8,126.8c0-0.3-0.1-0.4-0.1-0.7c0-0.5,0.1-0.7,0.1-1.2
	c0-0.3,0-0.5,0-0.8c0-0.3,0.1-0.5,0.1-0.9c-0.1-0.3-0.2-0.5-0.3-0.8c-0.2-0.4-0.5-0.6-0.5-1.1c-0.1-0.4,0.1-0.6,0.1-1
	c0-0.3-0.3-0.4-0.2-0.7c-0.3,0-0.5,0-0.9,0c-0.5,0-0.7-0.1-1.2-0.1c-0.4,0-0.7,0.3-1.1,0.1v-0.1c-0.3,0.2-0.4,0.3-0.7,0.5
	c-0.3,0.3-0.5,0.4-0.9,0.7c-0.5,0.4-0.8,0.6-1.3,0.9c-0.5,0.3-0.7,0.7-1.2,0.9c-0.3,0.1-0.5,0.1-0.8,0.2c-0.4,0.2-0.5,0.5-0.9,0.8
	c-0.3,0.3-0.7,0.4-0.9,0.9c-0.1,0.3,0.1,0.5,0,0.8c0,0.2-0.1,0.4-0.2,0.5c-0.2,0.3-0.6,0.3-0.9,0.4c-0.5,0.1-0.8,0.1-1.2,0
	c-0.3-0.1-0.4-0.2-0.7-0.3c-0.3-0.2-0.4-0.4-0.8-0.5c-0.3-0.1-0.4-0.2-0.7-0.1c-0.3,0.1-0.4,0.4-0.5,0.7c-0.2,0.3-0.1,0.5-0.3,0.7
	c-0.2,0.3-0.5,0.2-0.8,0.5c-0.4,0.3-0.4,0.8-0.9,0.9c-0.3,0.1-0.5,0.1-0.7,0.1c-0.4,0-0.8,0.2-1-0.1c-0.1-0.2-0.1-0.3-0.1-0.5
	c0.1-0.2,0.2-0.2,0.3-0.4c0.1-0.3,0.1-0.4,0.1-0.7c0-0.4-0.1-0.6-0.3-1c-0.1-0.4-0.3-0.5-0.5-0.9l-0.3-0.1c-0.1,2.9-0.2,4.5-0.3,7.4
	c-0.2,0-0.4,0-0.6,0c-0.2,0-0.3,0.1-0.5,0.2c-0.1,0-0.1,0.1-0.2,0.1c-0.2,0.1-0.3,0.3-0.6,0.4c-0.2,0-0.4,0-0.6-0.1
	c-0.3,0-0.5,0-0.8-0.1c-0.3,0-0.6,0-0.9-0.1c-0.1-0.1-0.2-0.1-0.3-0.2c-0.1-0.1-0.1-0.2-0.2-0.3c-0.1-0.2,0.1-0.4-0.1-0.6
	c-0.1-0.1-0.3-0.2-0.5-0.1c-0.2,0.1,0,0.4-0.1,0.5c-0.1,0.3-0.4,0.3-0.6,0.5c0,0,0,0,0,0c0,0.1,0.1,0.2,0.1,0.2
	c0.1,0.2,0.1,0.3,0.2,0.5c0.2,0.4,0.3,0.6,0.4,1c0.1,0.2,0.1,0.3,0.1,0.5c0,0.3-0.1,0.5-0.1,0.8c0,0.4,0.1,0.6,0.3,0.9
	c0.2,0.3,0.5,0.4,0.7,0.7c0.2,0.3,0.2,0.5,0.3,0.8c0.2,0.3,0.3,0.3,0.5,0.6c0.1,0.2,0.2,0.4,0.2,0.7c0,0.3,0,0.4-0.1,0.7
	c-0.1,0.2,0,0.4-0.2,0.5c-0.2,0.1-0.4-0.1-0.6,0c-0.3,0.2-0.2,0.5-0.1,0.9c0.1,0.4,0.3,0.6,0.5,0.9c0.1,0.2,0.3,0.2,0.3,0.4
	c0,0.2-0.4,0.3-0.3,0.5c0,0.3,0.4,0.3,0.7,0.4c0.3,0.1,0.5,0,0.7,0.2c0.3,0.2,0.3,0.4,0.5,0.6c0.2,0.2,0.3,0.4,0.6,0.4
	c0.3,0,0.4-0.1,0.6-0.3c0.2-0.1,0.4-0.2,0.6-0.4l0.9-0.1c0.2-0.1,0.3-0.1,0.5-0.1c0.3-0.1,0.6,0.1,0.9-0.1c0.2-0.1,0.3-0.3,0.5-0.4
	c0.2-0.1,0.4-0.1,0.6-0.1c0.2,0,0.4,0.2,0.6,0.2c0.2,0,0.3,0,0.5,0c0.2,0,0.3-0.1,0.5-0.2c0.2-0.1,0.3-0.1,0.5-0.1
	c0.4,0,0.6,0.1,0.9,0.1c0.3,0,0.4,0.1,0.7,0.1c0.2,0,0.3-0.1,0.5-0.1c0.3-0.1,0.4-0.2,0.7-0.3c0.3-0.1,0.5-0.2,0.8-0.3
	c0.4-0.1,0.6,0.1,0.9,0c0.3-0.1,0.3-0.4,0.6-0.5c0.3-0.2,0.6,0.1,0.9-0.1c0.3-0.1,0.4-0.3,0.6-0.5s0.4-0.3,0.7-0.5
	c0.4-0.3,0.5-0.5,0.9-0.8c0.5-0.5,0.8-0.7,1.1-1.2c0.2-0.3,0.2-0.5,0.5-0.7c0.3-0.2,0.6-0.1,0.9-0.3c0.3-0.2,0.4-0.4,0.6-0.7
	c0.2-0.3,0.3-0.5,0.5-0.9c0.3-0.4,0.5-0.6,0.7-0.9c0.2-0.3,0.3-0.5,0.5-0.9c0.2-0.4,0.3-0.6,0.5-0.9c0.3-0.4,0.3-0.9,0.7-1.1
	c0.2-0.1,0.4,0,0.6-0.1c0,0,0.1-0.1,0.1-0.1c0.1-0.2,0-0.4,0.1-0.7c0.2-0.5,0.5-0.7,0.7-1.2c0.1-0.3,0.1-0.5,0.2-0.9
	c0.1-0.4,0.2-0.7,0.2-1l-1.6-0.2C95.8,127.3,95.8,127.1,95.8,126.8"/>
<path id="path4610" inkscape:connector-curvature="0" class="st0" d="M103.3,28.8C103.3,28.9,103.3,28.9,103.3,28.8
	C103.3,28.9,103.3,28.9,103.3,28.8L103.3,28.8"/>
<path id="path4612" inkscape:connector-curvature="0" class="st0" d="M108.6,38.1c-0.2-0.1-0.5,0.1-0.7-0.1c-0.1-0.2,0-0.4-0.1-0.5
	c-0.2-0.2-0.5,0-0.7-0.2c-0.2-0.1-0.3-0.4-0.3-0.4c-0.2-0.4-0.3-0.6-0.4-0.9c-0.1-0.4-0.1-0.7-0.1-1.1c0-0.4,0.1-0.7,0-1.1
	c0-0.5-0.1-0.8-0.3-1.2c-0.1-0.4-0.2-0.6-0.4-0.9c-0.2-0.4-0.3-0.6-0.5-0.9l-0.6-0.9c-0.3-0.1-0.5-0.1-0.8-0.3
	c-0.2-0.1-0.3-0.2-0.4-0.4c-0.2,0.1-0.3,0.2-0.5,0.3c-0.2,0.1-0.4,0.2-0.6,0.3c-0.2,0.1-0.4,0-0.6,0.1c-0.2,0.2,0,0.5-0.1,0.7
	c-0.1,0.1-0.2,0.2-0.3,0.3c-0.1,0.1-0.3,0.1-0.4,0.2c-0.3,0.2-0.2,0.6-0.5,0.9c-0.1,0.1-0.2,0.3-0.4,0.3c-0.2,0-0.2-0.3-0.3-0.5
	c-0.1-0.2-0.2-0.3-0.3-0.4l-14.1-0.1L85.1,31v4h-1.8l0.1,1.6l-0.1-0.1l0.1,7.1l-1.3,0.1c-0.2,0-0.3,0.1-0.4,0.3s-0.1,0.3-0.1,0.5
	l-0.2,0.7c-0.3,0.3-0.5,0.4-0.7,0.7c-0.1,0.2-0.3,0.3-0.3,0.5c0,0.3,0.3,0.4,0.5,0.7c0.2,0.3,0.2,0.6,0.2,0.9c0,0.1,0,0.2-0.1,0.3
	c-0.1,0.1-0.1,0.2-0.2,0.4c-0.1,0.4,0.1,0.6,0.1,1c0,0.4-0.1,0.6-0.1,0.9c0,0.2,0.1,0.2,0.1,0.4c0,0.2-0.1,0.3-0.1,0.5
	c0,0.2-0.1,0.3,0,0.5c0.1,0.1,0.3,0,0.5,0.1c0.2,0.1,0.3,0.3,0.3,0.5c0,0.2-0.1,0.2-0.1,0.4l0.1-0.1c0.2,0.4,0.4,0.6,0.6,1
	c0.2,0.3,0.4,0.4,0.5,0.8c0.1,0.4,0,0.6,0,1c0,0.4-0.3,0.8,0,1.1c0.1,0.2,0.3,0.3,0.5,0.4c0.4,0.2,0.7,0.2,1.1,0.5
	c0.5,0.3,0.6,0.7,1,1c0.2,0.1,0.3,0.1,0.4,0.3c0.4,0.4-0.4,1-0.1,1.4c0.3,0.4,0.8,0.2,1.1,0.5c0.2,0.2,0.3,0.4,0.5,0.6l0.5,1.1
	c0.3,0.1,0.6,0.1,0.9,0.3c0.2,0.1,0.3,0.2,0.4,0.4c0.2,0.3,0.1,0.5,0.1,0.9l-0.1,0.2c0.2,0.2,0.3,0.3,0.5,0.5
	c0.2,0.2,0.2,0.4,0.5,0.6c0.2,0.2,0.4,0.3,0.7,0.4c0.2,0,0.4,0,0.6,0c0.3,0,0.5-0.3,0.8-0.2c0.2,0,0.2,0.2,0.4,0.2
	c0.3,0,0.4-0.4,0.7-0.3c0.2,0,0.3,0.2,0.5,0.4c0.2,0.2,0.2,0.4,0.3,0.5c0.2,0.2,0.3,0.2,0.5,0.4c0.2,0.1,0.2,0.2,0.4,0.4l0.1,0.1
	c0.3-0.1,0.5-0.3,0.8-0.3c0.3,0,0.5,0,0.8,0.1c0.4,0,0.6,0.1,0.9,0.1c0.3,0,0.4,0,0.7,0c0.2,0,0.4-0.2,0.6-0.2
	c0.3-0.1,0.5,0.1,0.7,0c0.2,0,0.3-0.1,0.5-0.2c0.2-0.1,0.3-0.3,0.5-0.5h0c0,0,0.5-0.6,0.7-1c0.1-0.2,1.2-0.2,1.2-0.2l0.7,0.1
	l0.8,0.3c0.1-0.3,0.2-0.4,0.2-0.7c0-0.2-0.1-0.3-0.1-0.5c-0.1-0.2-0.1-0.4-0.3-0.5c-0.2-0.1-0.4,0-0.6-0.1c-0.3-0.2-0.3-0.3-0.5-0.6
	c-0.1-0.2-0.2-0.4-0.2-0.7c-0.1-0.3,0.1-0.5-0.1-0.8c-0.1-0.2-0.3-0.2-0.5-0.4c-0.2-0.2-0.4-0.3-0.6-0.5c-0.2-0.2-0.2-0.4-0.4-0.7
	c-0.3-0.3-0.5-0.4-0.9-0.6c-0.3-0.1-0.6,0-0.7-0.3c0-0.1,0-0.2,0.1-0.3c0.1-0.3-0.2-0.7,0.1-0.9c0.1-0.1,0.2-0.1,0.4-0.1
	c0.2,0,0.3,0.2,0.5,0.2s0.4,0,0.5-0.2c0.1-0.2,0.1-0.4,0.1-0.6c0-0.4-0.1-0.6-0.1-1c0-0.6-0.1-0.9,0.1-1.4c0.1-0.2,0.1-0.4,0.2-0.6
	c0.1-0.3,0-0.6,0.2-0.8c0.2-0.2,0.5-0.1,0.7-0.3c0.2-0.1,0.3-0.2,0.4-0.5c0.1-0.2,0-0.4,0-0.7c0-0.3-0.1-0.6,0.1-0.8
	c0.1-0.1,0.3,0,0.4-0.2c0.1-0.2-0.2-0.3-0.1-0.5c0-0.3,0.4-0.3,0.6-0.6c0.1-0.2,0.1-0.3,0.3-0.5c0.2-0.2,0.5,0,0.7-0.1
	c0.3-0.2,0.2-0.5,0.3-0.8c0-0.1,0-0.2,0-0.3c0-0.2,0-0.3,0-0.5c0-0.2,0-0.4,0.1-0.6c0-0.2,0.1-0.3,0.1-0.5c0-0.3,0-0.5-0.1-0.8
	c-0.1-0.2-0.3-0.3-0.3-0.5c0-0.3,0.2-0.4,0.3-0.7c0.2-0.4,0.3-0.6,0.4-1.1c0.1-0.3,0.1-0.5,0.1-0.8c0-0.3-0.4-0.5-0.2-0.8
	c0.1-0.1,0.3-0.1,0.3-0.3c0.1-0.2-0.1-0.3-0.1-0.5c0.1-0.3,0.6,0.2,0.8-0.1c0.2-0.2-0.1-0.6,0.1-0.7c0.2-0.1,0.3,0,0.5-0.1
	c0.2,0,0.3-0.1,0.4-0.1c0.3-0.1,0.4-0.1,0.6-0.3c0.1-0.1,0.1-0.3,0.2-0.4c0.1-0.2,0.2-0.3,0.3-0.5l0.1,0.1
	C108.9,38.6,108.9,38.3,108.6,38.1"/>
<path id="path4614" inkscape:connector-curvature="0" class="st0" d="M117,97.8c-0.1,0-0.3,0.1-0.3,0.3c0,0.1,0,0.2,0.1,0.3
	c0.2,0.1,0.4,0,0.4-0.2C117.3,97.9,117.2,97.8,117,97.8"/>
<path id="path4616" inkscape:connector-curvature="0" class="st0" d="M140.7,114.9c-0.3,0-0.5,0.1-0.7,0.3c-0.1,0.2-0.2,0.3-0.2,0.5
	c0,0.2-0.1,0.3,0,0.4c0.1,0.2,0.4-0.1,0.6-0.2c0.2-0.1,0.3-0.3,0.4-0.5c0.1-0.2,0.4-0.3,0.3-0.5
	C141.1,114.9,140.9,114.9,140.7,114.9"/>
<path id="path4618" inkscape:connector-curvature="0" class="st0" d="M136.5,116.7c-0.2,0-0.5,0.2-0.5,0.4c0,0.3,0.4,0.3,0.7,0.3
	c0.1,0,0.2,0,0.3-0.1c0.1-0.1,0.1-0.2,0.1-0.3C137,116.7,136.7,116.7,136.5,116.7"/>
<path id="path4848" inkscape:connector-curvature="0" class="st0" d="M61.3,8.5c-0.2-0.1-0.3-0.2-0.4-0.3c-0.1-0.1,0-0.3-0.1-0.4
	c-0.2-0.2-0.4,0-0.7,0v0.1c-0.1-0.1-0.2-0.2-0.3-0.3c-0.2-0.2-0.4-0.1-0.5-0.3C59.1,7,59,6.9,59,6.6c0-0.3,0.2-0.5,0.5-0.7
	c0.2-0.1,0.3,0,0.5-0.1c0.2-0.2,0.2-0.4,0.3-0.6C60.4,5,60.6,5,60.7,4.8c0.1-0.3,0.1-0.5,0.1-0.7c-0.1-0.2-0.1-0.3-0.3-0.5
	c-0.2-0.2-0.3-0.1-0.5-0.3c-0.1-0.1-0.1-0.2-0.1-0.4c-0.1-0.4,0-0.7,0.1-1c0.1-0.2,0.3-0.3,0.5-0.5c0.1-0.1,0.2-0.3,0.1-0.4
	c-0.1-0.1-0.3-0.2-0.4-0.1l-0.5,0.5l-0.3-0.3l-0.3-0.3c-0.2-0.3-0.3-0.4-0.5-0.5C58.3,0.1,58.1,0,57.8,0c-0.3,0-0.4,0.2-0.6,0.4
	C57,0.6,56.9,0.8,56.6,1c-0.1,0.1-0.3,0.2-0.4,0.3c0.1,0.2,0.2,0.3,0.2,0.6c0.1,0.3,0,0.5-0.1,0.7c-0.1,0.4-0.6,0.4-0.7,0.8
	c-0.1,0.4,0.4,0.6,0.5,1c0.1,0.4,0.1,0.7,0,1.1c-0.1,0.3-0.2,0.5-0.4,0.7c-0.3,0.4-0.7,0.4-0.9,0.8c-0.1,0.3,0,0.5,0,0.7
	S54.8,8.3,55,8.5c0.2,0.2,0.4,0.2,0.7,0.3C55.9,9,56,9.1,56.1,9.4c0.2,0.3,0,0.6,0.1,0.9c0.1,0.2,0.2,0.3,0.4,0.5
	c0.2,0.2,0.5,0,0.7,0.1c0.3,0.2,0.2,0.5,0.3,0.9c0.1,0.4,0.2,0.7,0.3,1.1c0.1,0.4,0.2,0.6,0.3,0.9c0.1,0.3,0.1,0.4,0.1,0.7l0.1-0.1
	c0.2,0,0.4,0.1,0.6,0c0.2-0.1,0.3-0.3,0.4-0.5c0.2-0.4,0-0.7,0-1.1c0-0.3-0.3-0.7,0-0.9c0.1-0.1,0.3-0.1,0.4-0.1
	c0.3-0.2,0.4-0.5,0.6-0.7c0.1-0.1,0.2-0.3,0.3-0.3s0.3,0.1,0.5,0c0.2-0.1,0.2-0.1,0.3-0.3c0.2-0.2,0-0.5,0-0.7c0-0.3,0-0.5,0.1-0.9
	l0-0.2C61.5,8.6,61.4,8.5,61.3,8.5"/>
<path id="path4852" inkscape:connector-curvature="0" class="st0" d="M60.8,70.1c-0.4,0-0.6,0.1-1,0.1c-0.3,0-0.5,0-0.7-0.1
	l-0.2,0.1c-0.1,0.5-0.2,0.7-0.3,1.1c-0.1,0.4-0.2,0.6-0.3,1l0.1,0.1c0.3,0,0.2,0,0.5,0c0.3,0,0.5-0.1,0.7-0.1c0.3,0,0.5,0,0.9,0
	c0.3,0,0.5,0.1,0.7-0.1c0.1-0.1,0.1-0.3,0.1-0.5c0.1-0.3,0.2-0.4,0.2-0.7c0.1-0.4,0-0.6,0-1l0.1-0.1C61.3,70.1,61.2,70.1,60.8,70.1"
	/>
<path id="path4854" inkscape:connector-curvature="0" class="st0" d="M17.7,47.5c-0.3-0.1-0.5-0.1-0.8-0.2c-0.2-0.1-0.3-0.3-0.5-0.3
	c-0.3-0.1-0.5-0.1-0.9,0c-0.3,0.1-0.5,0.3-0.8,0.4c-0.3,0.1-0.5,0-0.9,0c-0.3,0-0.5-0.1-0.9-0.1v0.2c0,0.3,0,0.5-0.1,0.9l0.7-0.2
	c0.2,0,0.3,0.1,0.5,0.1c0.2,0,0.4,0.1,0.6,0c0.2-0.1,0.1-0.3,0.3-0.4c0.2-0.1,0.3,0.2,0.5,0.1c0.2,0,0.2-0.2,0.3-0.3
	c0.1,0,0.3,0,0.4,0c0.3,0.1,0.3,0.3,0.5,0.4c0.3,0.1,0.5,0.1,0.8,0c0.2-0.1,0.6,0,0.5-0.3C18.1,47.6,17.9,47.6,17.7,47.5"/>
<path id="path4856" inkscape:connector-curvature="0" class="st0" d="M18.5,56.5c0,0,0.1,0,0.1,0c0,0,0,0,0,0L18.5,56.5"/>
<path id="path4858" inkscape:connector-curvature="0" class="st0" d="M21.4,60.9C21.4,60.9,21.4,60.9,21.4,60.9
	C21.4,60.9,21.4,60.9,21.4,60.9L21.4,60.9"/>
<path id="path4860" inkscape:connector-curvature="0" class="st0" d="M23.5,57c0.1-0.1,0.1-0.2,0.1-0.4c0-0.3-0.3-0.3-0.4-0.5
	c-0.1-0.3,0.1-0.5-0.1-0.7c-0.2-0.2-0.4-0.2-0.6-0.3c-0.2-0.1-0.3-0.3-0.6-0.3c-0.4-0.1-0.5,0.3-0.9,0.3c-0.2,0-0.3-0.1-0.5-0.1
	C20,55,20,55.4,19.8,55.7c-0.2,0.3-0.2,0.5-0.5,0.7c-0.2,0.1-0.4,0.1-0.7,0.1c-0.1,0.1-0.1,0.3-0.1,0.4c0,0.3,0,0.6,0.1,0.9
	c0.1,0.2,0.3,0.3,0.5,0.5c0.2,0.2,0.3,0.3,0.5,0.5c0.2,0.2,0.3,0.2,0.4,0.4c0.2,0.2,0.2,0.5,0.4,0.7c0.2,0.2,0.5,0.1,0.7,0.3
	c0.2,0.2,0.1,0.4,0.2,0.6c0,0.1,0.1,0.1,0.1,0.2c0.2-0.3,0.4-0.5,0.6-0.8c0.2-0.3,0.3-0.4,0.5-0.7c0.2-0.2,0.3-0.2,0.5-0.4
	c0.2-0.2,0.3-0.3,0.4-0.5c0.1-0.2,0.1-0.4,0.1-0.6v-0.2c-0.2-0.1-0.5,0-0.5-0.2C22.9,57.3,23.4,57.3,23.5,57"/>
<path id="path4862" inkscape:connector-curvature="0" class="st0" d="M45,59.7c0-0.5,0.1-0.8,0.1-1.3c0-0.6,0.3-1,0.1-1.5
	c-0.1-0.3-0.3-0.3-0.3-0.6c-0.2-0.4,0.2-0.8,0-1.2c-0.1-0.3-0.2-0.4-0.4-0.7c-0.2-0.2-0.3-0.3-0.5-0.5c-0.1-0.3,0-0.5-0.1-0.7
	c-0.1-0.3-0.3-0.3-0.5-0.5c-0.2,0-0.3,0-0.5,0l0.1,0.2c0.1,0.3,0.2,0.5,0.2,0.9c0,0.4,0,0.6,0,0.9c0,0.3,0.1,0.5,0.1,0.9
	c0,0.4,0,0.6,0,0.9c0,0.5,0.1,0.8,0.2,1.3c0,0.4,0.1,0.7,0.1,1.1c0,0.3,0,0.5,0,0.9c0,0.4-0.1,0.6-0.1,1c0,0.3,0,0.5,0.1,0.8
	c0.1,0.3,0.2,0.5,0.4,0.7v0.1c0.1-0.2,0.4-0.1,0.7-0.1c0.3-0.1,0.5-0.1,0.8-0.2l0,0c-0.1-0.4-0.2-0.6-0.3-1
	C45.1,60.5,45,60.2,45,59.7"/>
<path id="path4864" inkscape:connector-curvature="0" class="st0" d="M95.8,77.9c-0.1-0.3-0.4-0.3-0.7-0.5l-0.2-0.3
	c-0.4,0.2-0.4,0.8-0.9,0.7c-0.4,0-0.4-0.4-0.7-0.6l-0.1,0.3c-0.1,0.2-0.2,0.3-0.2,0.5c-0.1,0.3,0.1,0.4,0,0.7
	c-0.1,0.3-0.5,0.2-0.6,0.5c-0.1,0.1-0.1,0.2-0.1,0.4c0,0.2,0.2,0.3,0.3,0.5c0.2-0.1,0.2-0.2,0.4-0.2c0.2,0,0.2,0.3,0.5,0.3
	c0.3,0,0.4-0.2,0.6-0.4c0.2-0.1,0.2-0.3,0.4-0.4c0.2-0.2,0.3-0.4,0.5-0.3c0.2,0,0.2,0.4,0.4,0.4c0.2,0,0.3-0.2,0.4-0.4
	c0.1-0.3,0-0.5,0-0.7C95.8,78.2,95.8,78.1,95.8,77.9"/>
<path id="path4866" inkscape:connector-curvature="0" class="st0" d="M91.8,119.4L91.8,119.4C91.8,119.4,91.8,119.4,91.8,119.4
	C91.8,119.4,91.8,119.4,91.8,119.4"/>
<path id="path4868" inkscape:connector-curvature="0" class="st0" d="M91.4,118.8c-0.2-0.3-0.1-0.7-0.3-0.9c-0.3-0.3-0.6-0.1-1-0.3
	c-0.4-0.1-0.7-0.1-0.9-0.3c-0.3-0.3-0.3-0.6-0.3-1.1c0-0.2,0.1-0.3,0.1-0.5c-0.1-0.3-0.5-0.2-0.7-0.3c-0.3-0.1-0.4-0.2-0.7-0.4
	c-0.3-0.2-0.4-0.3-0.6-0.6c-0.2-0.3-0.3-0.5-0.5-0.8c-0.3-0.5-0.6-0.8-0.7-1.4c0-0.3,0.1-0.5,0-0.7c-0.1-0.3-0.4-0.2-0.5-0.5
	c-0.2-0.3-0.2-0.5-0.3-0.8l-0.4,0.1c-0.2,0.1-0.3,0.2-0.5,0.3c-0.2,0.1-0.3,0.1-0.5,0.1c-0.2,0.1-0.4,0.1-0.6,0.2
	c-0.3,0.2-0.5,0.4-0.7,0.7l-0.5-0.7c-0.2-0.2-0.2-0.4-0.4-0.4c-0.2,0-0.3,0.2-0.5,0.3c-0.3,0.1-0.6,0-0.9,0.1
	c-0.3,0.1-0.5,0.2-0.8,0.3c-0.4,0.1-0.7,0.1-1.1,0.1c-0.2,0-0.3,0-0.4,0.1c-0.2,0.1,0,0.3,0,0.5c0,0.4,0,0.6,0,0.9
	c0,0.5-0.1,0.8-0.1,1.3l-0.1,4.4l-1.3,0.1l-0.3,5.7l0.2,0.1c0.2,0.3,0.3,0.5,0.5,0.9c0.2,0.4,0.2,0.6,0.3,1c0,0.3,0.1,0.5-0.1,0.7
	c-0.1,0.2-0.3,0.2-0.3,0.4c-0.1,0.2,0,0.4,0.1,0.5c0.2,0.3,0.6,0.1,1,0.1c0.3,0,0.5,0,0.7-0.1c0.5-0.2,0.5-0.6,0.9-0.9
	c0.3-0.2,0.6-0.2,0.8-0.5c0.2-0.2,0.2-0.5,0.3-0.7c0.2-0.3,0.2-0.6,0.5-0.7c0.2-0.1,0.4,0,0.7,0.1c0.4,0.1,0.5,0.4,0.8,0.5
	c0.3,0.1,0.4,0.3,0.7,0.3c0.5,0.1,0.8,0.1,1.2,0c0.4-0.1,0.7-0.1,0.9-0.4c0.1-0.2,0.2-0.3,0.2-0.5c0.1-0.3-0.1-0.5,0-0.8
	c0.1-0.5,0.5-0.5,0.9-0.9c0.3-0.3,0.5-0.6,0.9-0.8c0.3-0.1,0.5-0.1,0.8-0.2c0.5-0.2,0.7-0.5,1.2-0.9c0.5-0.4,0.8-0.6,1.3-0.9
	c0.3-0.3,0.5-0.4,0.9-0.7c0.2-0.2,0.4-0.3,0.6-0.4C91.6,119.3,91.5,119.1,91.4,118.8"/>
<path id="path4870" inkscape:connector-curvature="0" class="st0" d="M116.2,50.2c0.3-0.1,0.3-0.3,0.5-0.5l0.4-0.2
	c-0.2-0.2-0.4-0.1-0.6-0.3c-0.2-0.2-0.2-0.3-0.3-0.5c-0.2-0.3-0.3-0.5-0.5-0.8c-0.1-0.2-0.1-0.4-0.3-0.6c-0.2-0.1-0.3-0.1-0.5-0.2
	c-0.4-0.1-0.7,0-1-0.3c-0.2-0.2-0.2-0.5-0.3-0.7c-0.2-0.3-0.4-0.4-0.7-0.6c-0.2-0.2-0.3-0.3-0.5-0.4c-0.3-0.2-0.5-0.3-0.7-0.5
	c-0.3-0.2-0.4-0.4-0.7-0.6L111,44c-0.3-0.2-0.7-0.2-0.9-0.5c-0.2-0.3,0-0.6-0.1-1c-0.1-0.5-0.2-0.8-0.3-1.3
	c-0.1-0.5-0.1-0.8-0.3-1.3c-0.1-0.4-0.2-0.5-0.4-0.9l-0.1-0.1c-0.1,0.2-0.2,0.3-0.3,0.5c-0.1,0.2-0.1,0.3-0.2,0.4
	c-0.2,0.2-0.4,0.2-0.6,0.3c-0.2,0.1-0.2,0.1-0.4,0.1c-0.2,0-0.4-0.1-0.5,0.1c-0.2,0.2,0.1,0.5-0.1,0.7c-0.2,0.2-0.7-0.2-0.8,0.1
	c-0.1,0.2,0.1,0.3,0.1,0.5c-0.1,0.2-0.3,0.1-0.3,0.3c-0.2,0.3,0.2,0.5,0.2,0.8c0,0.3-0.1,0.5-0.1,0.8c-0.1,0.4-0.2,0.7-0.4,1.1
	c-0.1,0.3-0.4,0.4-0.3,0.7c0,0.2,0.2,0.3,0.3,0.5c0.1,0.3,0.1,0.5,0.1,0.8c0,0.2-0.1,0.3-0.1,0.5c0,0.2,0,0.4-0.1,0.6v0.1
	c0.3,0,0.5-0.1,0.8-0.1c0.3,0,0.4,0,0.7,0c0.2,0,0.3,0.2,0.5,0.1s0.2-0.2,0.3-0.4c0.1-0.3,0-0.5,0.1-0.7c0.1-0.3,0.2-0.8,0.6-0.7
	c0.3,0,0.3,0.3,0.5,0.5c0.2,0.2,0.1,0.5,0.3,0.6c0.3,0.1,0.5-0.1,0.8-0.3c0.2-0.1,0.3-0.2,0.5-0.3c0.2-0.1,0.4-0.3,0.6-0.2
	c0.2,0,0.2,0.3,0.4,0.3c0.2,0.1,0.4,0,0.6,0.1c0.4,0.1,0.6,0.2,0.9,0.4c0.3,0.2,0.4,0.3,0.6,0.5c0.3,0.2,0.4,0.4,0.7,0.7
	c0.2,0.2,0.4,0.3,0.6,0.6c0.2,0.3,0.2,0.5,0.3,0.8c0.1,0.2,0.2,0.3,0.4,0.5h0.3C115.9,50,116,50.3,116.2,50.2"/>
<path id="path4872" inkscape:connector-curvature="0" class="st0" d="M56.7,66.9c-0.3,0.1-0.5,0.2-0.5,0.5c-0.1,0.2,0,0.4,0.1,0.6
	c0,0,0.4,0.2,0.6,0.1c0.2-0.1,0.3-0.3,0.4-0.5c0.1-0.3,0.2-0.5-0.1-0.7C57,66.7,56.9,66.9,56.7,66.9"/>
<path id="path4874" inkscape:connector-curvature="0" class="st0" d="M1.3,44.1c-0.2-0.1-0.4,0-0.5,0.1c-0.1,0.1-0.3,0.2-0.3,0.3
	c0,0.1,0,0.2,0.1,0.3c0,0.1,0,0.3,0.1,0.3c0.1,0.1,0.3,0,0.4-0.1c0.2-0.1,0.4-0.2,0.5-0.5C1.6,44.4,1.5,44.2,1.3,44.1"/>
<path id="path4876" inkscape:connector-curvature="0" class="st0" d="M0.9,42.2c0-0.2-0.2-0.2-0.3-0.3c-0.2-0.1-0.4-0.2-0.5-0.1
	c-0.1,0.1,0,0.3,0.1,0.4C0.3,42.5,0.9,42.5,0.9,42.2"/>
<path id="path4878" inkscape:connector-curvature="0" class="st0" d="M44.4,81.1c-0.2,0-0.5,0-0.5,0.2c0,0.2,0.2,0.2,0.3,0.3
	c0.2,0.1,0.5,0.1,0.5-0.1C44.9,81.3,44.6,81.2,44.4,81.1"/>
<path id="path4880" inkscape:connector-curvature="0" class="st0" d="M129.2,104.6c-0.1-0.3-0.3-0.5-0.4-0.8c-0.2-0.6,0-1,0-1.7
	c0-0.3,0-0.5,0-0.7c-0.1-0.5-0.3-0.7-0.5-1.1c-0.2-0.4-0.1-0.8-0.4-1c-0.2-0.2-0.4-0.3-0.7-0.2c-0.2,0.1-0.3,0.2-0.5,0.4
	c-0.2,0.2-0.5,0.4-0.4,0.7c0.1,0.2,0.4,0.2,0.5,0.4c0.1,0.3-0.2,0.5-0.4,0.8c-0.2,0.3-0.4,0.4-0.7,0.5c-0.2,0.1-0.4,0-0.6,0.2
	c-0.2,0.2-0.1,0.5-0.2,0.8c-0.1,0.3-0.4,0.4-0.5,0.7c-0.1,0.2,0.1,0.4-0.1,0.5c-0.2,0.1-0.3-0.2-0.5-0.1c-0.1,0-0.2,0.1-0.3,0.1
	c-0.3,0.2-0.1,0.6-0.4,0.7c-0.2,0.1-0.4-0.1-0.5,0c-0.2,0.1,0,0.3-0.1,0.5c-0.2,0.4-0.6,0.5-1,0.7c-0.3,0.1-0.5,0.1-0.7,0.3
	c-0.3,0.1-0.3,0.3-0.6,0.4c-0.2,0.1-0.4,0-0.7,0.1c-0.2,0.1-0.3,0.3-0.5,0.4c-0.2,0.1-0.4,0-0.5,0.1c-0.3,0.2,0.1,0.6-0.1,0.9
	c-0.1,0.2-0.3,0.3-0.5,0.5c-0.3,0.4-0.4,0.8-0.5,1.3c-0.1,0.6-0.3,1-0.1,1.5c0.1,0.3,0.4,0.3,0.5,0.6c0.2,0.3,0.2,0.5,0.3,0.9
	c0.1,0.3,0.2,0.5,0.2,0.8c0,0.4,0,0.7-0.2,1.1c-0.1,0.3-0.4,0.5-0.5,0.8c-0.2,0.4-0.1,0.7-0.3,1.1c-0.2,0.3-0.3,0.4-0.5,0.6
	c-0.3,0.4-0.6,0.6-0.8,1c-0.2,0.5-0.3,0.9-0.2,1.4c0.1,0.4,0.2,0.5,0.4,0.9c0.2,0.3,0.3,0.5,0.4,0.9c0.1,0.3,0,0.4,0.1,0.7
	c0.1,0.5,0.1,0.8,0.2,1.3c0.1,0.4,0.1,0.6,0.3,0.9c0.2,0.3,0.4,0.4,0.6,0.6c0.3,0.3,0.5,0.6,0.9,0.7c0.3,0.1,0.5,0,0.7,0
	c0.4,0,0.6-0.1,1-0.3c0.7-0.3,1.1-0.6,1.7-1c0.2-0.2,0.4-0.2,0.6-0.5c0.3-0.3,0.2-0.7,0.3-1.1c0.2-0.7,0.1-1.2,0.4-1.8
	c0.2-0.3,0.3-0.4,0.5-0.7c0.1-0.3,0.1-0.5,0.2-0.8c0.1-0.5,0.1-0.9,0.3-1.3c0.2-0.4,0.4-0.5,0.5-0.9c0.1-0.4-0.1-0.7,0.1-1.1
	c0.2-0.4,0.6-0.5,0.7-0.9c0.1-0.2,0.1-0.3,0.1-0.5c0.1-0.4,0.3-0.5,0.4-0.9c0.1-0.2,0-0.4,0.1-0.6c0.1-0.3,0.4-0.4,0.6-0.7
	c0.1-0.3,0.2-0.5,0.2-0.9c0.1-0.4,0-0.7,0-1.1c0-0.5,0.1-0.8,0.3-1.3c0.1-0.3,0.2-0.5,0.4-0.8c0.2-0.3,0.4-0.4,0.5-0.7
	c0.1-0.3-0.1-0.6,0-0.9c0-0.1,0-0.2,0.1-0.3c0.2-0.3,0.5,0.4,0.8,0.3c0.3-0.2,0-0.6,0.1-0.9C129.1,105.3,129.3,105,129.2,104.6"/>
<path id="path4906" inkscape:connector-curvature="0" class="st0" d="M100.6,9.4c0,0,0.1-0.1,0.1-0.1c0,0,0,0,0,0L100.6,9.4"/>
<path id="path5068" inkscape:connector-curvature="0" class="st0" d="M27.4,19.6l0.1,0.1v-1.8c0.2-0.1,0.3-0.2,0.5-0.3
	c0.2-0.2,0.3-0.4,0.5-0.5c0.2-0.1,0.3,0,0.5-0.1c0.4-0.1,0.5-0.4,0.8-0.6c0.3-0.2,0.5-0.2,0.9-0.4c0.4-0.2,0.6-0.3,1-0.5
	c0.3-0.1,0.5-0.1,0.9-0.2c0.4-0.1,0.6-0.2,0.9-0.4c0.3-0.2,0.4-0.6,0.8-0.6c0.2,0,0.4,0.2,0.6,0.1c0.3,0,0.4-0.3,0.7-0.4
	c0.4-0.2,0.8,0,1-0.4c0.2-0.4-0.4-0.7-0.3-1.1c0-0.3,0.1-0.5,0.3-0.8c0.4-0.5,0.8-0.5,1.3-0.6c0.3,0,0.5,0,0.8,0
	c0.3,0,0.5,0.3,0.8,0.2c0.3-0.1,0.4-0.2,0.5-0.4c0.1-0.2,0.3-0.3,0.3-0.5c0-0.3-0.5-0.2-0.7-0.4c-0.2-0.3-0.1-0.6-0.1-1
	c0-0.4,0.1-0.7,0-1.1c0-0.2-0.1-0.3-0.1-0.5c0-0.4,0.1-0.6,0.1-0.9c-0.1-0.4-0.4-0.5-0.5-0.9c-0.1-0.3-0.1-0.5-0.1-0.8V4.5
	c-0.4,0.1-0.6,0-1,0l-0.6-0.3c-0.2-0.1-0.7,0-1.1,0.1c-0.3,0-0.5,0-0.7,0.1c-0.3,0.1-0.5,0.3-0.8,0.3c-0.4,0-0.6-0.3-0.9-0.5
	c-0.3-0.3-0.3-0.6-0.7-0.8C33,3.1,32.9,3,32.7,3c-0.2,0-0.3,0.2-0.4,0.4C32,3.8,32.2,4.2,32,4.6c-0.2,0.4-0.3,0.5-0.5,0.9
	c-0.2,0.4-0.3,0.6-0.5,1c-0.1,0.2-0.2,0.3-0.4,0.5c-0.2,0.3-0.4,0.4-0.7,0.6C29.6,7.8,29.3,7.8,29,8c-0.4,0.2-0.6,0.3-1.1,0.4
	c-0.5,0.2-0.9,0.1-1.3,0.3c-0.4,0.2-0.8,0.3-0.9,0.7c-0.1,0.4,0.4,0.6,0.3,1.1c0,0.2-0.1,0.4-0.1,0.6c0,0.2,0,0.3-0.1,0.5
	c-0.1,0.2-0.3,0.3-0.4,0.5c-0.1,0.2-0.1,0.4-0.1,0.7c0,0.2,0.1,0.3,0.2,0.5c0.1,0.3,0.3,0.4,0.3,0.7c0.1,0.3,0,0.6-0.1,0.9
	c-0.1,0.3-0.3,0.4-0.5,0.7c-0.3,0.4-0.3,0.7-0.7,1c-0.2,0.2-0.4,0.3-0.7,0.5c-0.2,0.2-0.3,0.4-0.5,0.5c-0.2,0.2-0.4,0.3-0.6,0.4
	c-0.3,0.2-0.6,0.3-0.9,0.4c-0.3,0.1-0.5,0-0.7,0.1c-0.3,0.1-0.5,0.1-0.8,0.3c-0.3,0.3-0.3,0.6-0.5,0.9l0.1-0.1L27.4,19.6"/>
<path id="path5074" inkscape:connector-curvature="0" class="st0" d="M133.9,41.7C133.9,41.7,133.9,41.6,133.9,41.7
	c-0.1-0.1-0.1-0.1-0.1-0.1L133.9,41.7"/>
<path id="path5080" inkscape:connector-curvature="0" class="st0" d="M44.7,33.8c-0.1-0.2-0.3,0-0.5-0.2c-0.2-0.2-0.2-0.5,0-0.7
	l-10.4-7.7l-0.1-0.1l-2.5,0.1l0.2,4.6l0.5,6.9c0,0,0.1,1.6,0.2,3.1c0.1,1.2,0.1,2.3,0.1,2.3c0.2,0,0.3,0,0.5,0.1
	c0.2,0.1,0.3,0.3,0.3,0.6c0,0.2-0.2,0.3-0.3,0.5c-0.1,0.2,0,0.4-0.1,0.6c-0.1,0.1-0.2,0.2-0.3,0.2l-0.5-0.1l-5.6-0.1
	c-0.1-0.3-0.3-0.4-0.6-0.4c-0.3,0-0.3,0.3-0.5,0.5c-0.2,0.1-0.3,0.3-0.5,0.3c-0.2,0-0.3-0.2-0.5-0.3c-0.2-0.1-0.3-0.2-0.5-0.1
	c-0.2,0-0.3,0.3-0.5,0.4c-0.2,0.1-0.3,0.3-0.5,0.2c-0.2-0.1-0.1-0.4-0.3-0.6c-0.2-0.1-0.3-0.2-0.5-0.1c-0.2,0-0.2,0.1-0.3,0.3
	c-0.1,0.2-0.1,0.3-0.1,0.5c0,0.3,0.2,0.5,0,0.7c-0.1,0.2-0.4,0.1-0.6,0.2l-0.3-0.1c0.1,0.2,0.2,0.4,0.3,0.6c0.1,0.3,0.2,0.4,0.2,0.7
	c0,0.3,0,0.5,0,0.7c0,0.2,0,0.3,0.1,0.5c0.1,0.3,0.4,0.3,0.6,0.6c0.1,0.2,0.2,0.3,0.3,0.5c0.1,0.3,0.2,0.6-0.1,0.9
	c-0.2,0.2-0.4,0.1-0.7,0.2l-0.2-0.1c0.3,0.1,0.3,0.3,0.6,0.4c0.2,0.1,0.3,0.1,0.5,0.1c0.3,0.1,0.5,0,0.7,0.1c0.1,0.1,0,0.3,0.2,0.4
	c0.2,0.1,0.2-0.4,0.5-0.5c0.3-0.1,0.6,0.2,0.9,0.1c0.3,0,0.5-0.1,0.7-0.3c0.2-0.1,0.3-0.5,0.5-0.5c0.2,0,0.2,0.2,0.3,0.3
	c0.2,0.3-0.1,0.6,0.1,0.9c0.1,0.2,0.3,0.3,0.5,0.5c0.2,0.3,0,0.7,0.3,0.9c0.1,0.1,0.2,0,0.3,0.1c0.2,0.2-0.2,0.5-0.1,0.8
	c0.1,0.3,0.3,0.4,0.5,0.6v0.1c0.2-0.1,0.3-0.3,0.6-0.3c0.3,0,0.4,0.2,0.6,0.3c0.2,0.1,0.3,0.2,0.5,0.1c0.3-0.1,0.3-0.4,0.5-0.5
	c0.2-0.1,0.3-0.3,0.5-0.3c0.1,0,0.2,0,0.3,0.1c0.2,0.1-0.1,0.4,0,0.5c0.1,0.2,0.3,0.1,0.5,0.1c0.3,0,0.4-0.2,0.6-0.3l0.1,0.1
	c0.1-0.5,0.1-0.9,0.3-1.3c0.1-0.2,0.3-0.3,0.3-0.5c0.1-0.3-0.1-0.5-0.1-0.8c0-0.3,0-0.6,0.3-0.7c0.2-0.2,0.5,0.2,0.7,0.1
	c0.3-0.1,0.4-0.5,0.5-0.8c0.1-0.4,0-0.6,0.1-1c0.1-0.3,0.2-0.4,0.3-0.7c0.3-0.4,0.4-0.7,0.8-0.9c0.5-0.2,0.8,0.3,1.3,0.3
	c0.3,0,0.5,0,0.7-0.1c0.2-0.2,0.2-0.4,0.3-0.6l1-1c0.2-0.1,0.3-0.1,0.5-0.2c0.2-0.1,0.2-0.3,0.4-0.3c0.2-0.1,0.3,0,0.5,0
	c0.3-0.1,0.3-0.5,0.6-0.5c0.2,0,0.3,0.1,0.5,0.1c0.4,0.1,0.7,0.1,1.1,0.1v-0.1c0.3,0,0.5,0.1,0.7,0.1c0.2,0,0.4-0.1,0.6-0.2
	c0.2-0.1,0.3-0.3,0.5-0.4c0.3-0.1,0.5,0,0.9,0c0.5,0,0.8,0.1,1.2-0.1c0.2-0.1,0.3-0.3,0.5-0.3c0.4-0.1,0.6,0.4,0.9,0.3
	c0.2-0.1,0.3-0.2,0.5-0.4c0.2-0.2,0.4-0.3,0.5-0.5c0.1-0.2,0-0.4,0.1-0.7c0.1-0.4,0.3-0.6,0.4-0.9c0.1-0.6-0.1-1-0.1-1.7
	c0-0.1,0-0.3,0-0.4c0-0.6,0.1-1,0-1.7c0-0.3-0.1-0.5-0.1-0.9L49.1,37c-0.3,0-0.5,0.1-0.9,0.1c-0.2,0-0.4,0-0.5-0.2
	c-0.1-0.2,0-0.3,0-0.5c0-0.4,0.1-0.7-0.1-0.9c-0.2-0.2-0.4-0.2-0.7-0.3c-0.2,0-0.4,0.1-0.6,0c-0.2-0.1-0.1-0.4-0.2-0.6l-1.1-0.3
	C44.8,34,44.8,33.9,44.7,33.8"/>
<path id="path5082" inkscape:connector-curvature="0" class="st0" d="M13.5,50.6c0.3,0.1,0.5,0,0.7,0.1c0.3,0.1,0.5,0.3,0.8,0.5
	l0.1,1.3c0.1,0.1,0.3,0.1,0.4,0.1l0,0.1c0.1-0.3,0.1-0.5,0.3-0.7c0.2-0.3,0.5-0.3,0.7-0.5c0.1-0.1,0.2-0.2,0.3-0.3
	c0.3-0.1,0.6,0.1,0.8-0.1c0.1-0.1,0.2-0.2,0.2-0.4c0.1-0.3-0.2-0.5-0.1-0.7c0-0.1,0.2-0.2,0.2-0.3c0-0.1,0-0.2,0-0.3l-0.2-0.1
	c-0.4,0-0.6,0-0.9,0c-0.5,0-0.8-0.1-1.2,0c-0.2,0.1-0.3,0.2-0.5,0.3c-0.2,0.1-0.4,0.2-0.6,0.2c-0.3,0.1-0.5,0-0.9,0
	c-0.3,0-0.5,0-0.7,0.1l-0.1,0.1C13.1,50.2,13.2,50.4,13.5,50.6"/>
<path id="path5084" inkscape:connector-curvature="0" class="st0" d="M47.6,55.2c0.2-0.2,0.4-0.3,0.5-0.6c0.1-0.3,0-0.5,0.1-0.7
	c0.1-0.3,0.4-0.3,0.5-0.6c0-0.3-0.3-0.4-0.5-0.7C48,52.2,48,52,47.9,51.6c0-0.3,0-0.5,0-0.7l0.2-0.2c-0.3,0-0.5,0.2-0.8,0
	c-0.2-0.1-0.2-0.4-0.4-0.5c-0.1-0.1-0.2-0.3-0.4-0.3c-0.3-0.1-0.4,0.4-0.6,0.6l-0.1-0.1c0,0.4,0.1,0.7-0.1,1
	c-0.1,0.2-0.2,0.4-0.4,0.5c-0.3,0.2-0.5,0-0.8,0c-0.2,0-0.4,0-0.5,0.1c-0.3,0.2-0.2,0.4-0.4,0.7l-0.2-0.1c0.2,0.2,0.3,0.3,0.5,0.5
	c0.1,0.3,0,0.5,0.1,0.7c0.1,0.3,0.3,0.3,0.5,0.5c0.2,0.2,0.3,0.4,0.4,0.7c0.2,0.4-0.2,0.8,0,1.2c0.1,0.3,0.2,0.4,0.3,0.6
	c0.2,0.6,0,0.9-0.1,1.5c0,0.5-0.1,0.8-0.1,1.3c0,0.5,0,0.8,0.1,1.3c0.1,0.4,0.2,0.6,0.3,1l0,0c0.1,0,0.1,0,0.2,0
	c0.5-0.1,0.7,0,1.2,0l-0.3-0.1c0-0.6,0-0.9,0-1.4c0-0.4-0.1-0.7-0.1-1.1c0-0.5,0-0.8,0-1.3c0-0.6-0.1-1,0.2-1.4
	c0.2-0.3,0.6-0.2,0.6-0.5c0-0.2-0.2-0.2-0.2-0.3C47,55.6,47.4,55.5,47.6,55.2"/>
<path id="path5086" inkscape:connector-curvature="0" class="st0" d="M63.4,86.4c0,0.1,0,0.2-0.1,0.2l0.2,0.1c0.1,0,0.2,0,0.3,0
	c0.3-0.1,0.3-0.4,0.5-0.5c0.3-0.1,0.6,0.1,0.9,0.1c0.5,0,0.7-0.1,1.2-0.1c0.4,0,0.6,0,1,0c0.4,0,0.6,0.1,1,0.1
	c0.5,0,0.8-0.1,1.3-0.1c0.3,0,0.5-0.1,0.7,0.1c0.1,0.1,0.2,0.2,0.2,0.3c0.1,0.2-0.1,0.4-0.1,0.6c0,0.3,0.1,0.4,0.2,0.7
	c0.1,0.4,0,0.6,0.1,0.9c0.1,0.2,0.2,0.2,0.3,0.4c0.2,0.3,0.1,0.5,0.3,0.8c0.3,0.3,0.6,0.6,1,0.5c0.3,0,0.3-0.3,0.6-0.3
	c0.3-0.1,0.4,0,0.7,0c0.3,0,0.5,0,0.9,0c0.2,0,0.3,0.1,0.5-0.1c0.2-0.2-0.1-0.4,0-0.7c0.1-0.2,0.2-0.3,0.3-0.5
	c0.1-0.2,0-0.4,0.2-0.6c0.3-0.3,0.6-0.1,1-0.1c0.3,0,0.6-0.2,0.7,0.1c0.1,0.1,0,0.3,0.1,0.5c0.2,0.3,0.6,0,0.9,0
	c0.3,0,0.7-0.3,0.9,0c0.1,0.2,0,0.3,0,0.5c0,0.4-0.1,0.6,0,1c0,0.2,0.1,0.4,0.2,0.6c0,0.1,0,0.1,0,0.2c0.1,0.4,0,0.7,0,1.2
	c0,0.4-0.3,0.7-0.2,1.1c0.1,0.5,0.6,0.6,0.7,1c0.2,0.4,0.2,0.6,0.2,1c0,0.3-0.1,0.4-0.1,0.7c0,0.1-0.1,0.2,0,0.3
	c0.1,0.3,0.5,0,0.7,0c0.2,0,0.3,0.1,0.5,0.1c0.4,0,0.6-0.3,0.9-0.3c0.3,0,0.5,0.1,0.8,0.2l0.2,0.1c0.1,0.1,0.2,0.1,0.3,0.2
	c0.2,0.1,0.2,0.4,0.5,0.4c0.3,0,0.3-0.4,0.6-0.3c0.2,0,0.3,0.1,0.4,0.2c0.3,0.2-0.1,0.6,0.2,0.9c0.3,0.3,0.7-0.1,1.1,0
	c0.3,0.1,0.4,0.3,0.7,0.4c0.3,0.1,0.5,0.2,0.7,0.1c0.2-0.1,0.1-0.5,0.3-0.5c0.2,0,0.3,0.1,0.4,0.1c0.3,0.2,0.3,0.4,0.5,0.6
	c0.3,0.3,0.5,0.3,0.8,0.5c0.4,0.4,0.2,1,0.7,1.2c0.3,0.1,0.7,0.1,1.3,0c0,0,0.1-0.6,0.1-0.6c-0.1-0.6,0.5-1-0.2-1
	c-0.4,0-0.7-0.1-1-0.3c-0.5-0.4-0.3-1-0.2-1.7c0.1-0.4,0.3-0.6,0.3-1c0.1-0.4,0.1-0.6,0.1-0.9c0-0.2,0.1-0.3,0-0.5
	c-0.1-0.3-0.5-0.1-0.6-0.4c-0.1-0.3,0.1-0.4,0.3-0.7c0.2-0.4,0.4-0.5,0.7-0.8c0.2-0.2,0.3-0.3,0.5-0.5c0.2-0.2,0.3-0.5,0.6-0.7
	c0,0,0,0,0,0c0.4-0.2,0.7,0.1,1.1,0c0.2,0,0.3-0.1,0.5-0.1c0.2,0,0.3,0,0.5-0.1L95,91c-0.1-0.2-0.2-0.4-0.3-0.6
	c-0.1-0.4-0.2-0.6-0.3-0.9c-0.1-0.4-0.1-0.7-0.3-0.9c-0.2-0.2-0.4-0.1-0.6-0.3c-0.1-0.2-0.2-0.3-0.2-0.5c-0.1-0.3-0.1-0.4-0.1-0.7
	c0-0.4,0-0.7,0-1.1c0-0.6-0.1-0.9-0.1-1.4c0-0.3,0-0.5,0-0.7c0-0.3,0-0.5-0.1-0.7c-0.1-0.4-0.5-0.6-0.3-0.9c0,0,0,0,0,0
	c0-0.1,0.1-0.3,0.1-0.3c-0.1-0.3-0.1-0.4-0.1-0.7c-0.1-0.3-0.1-0.5-0.1-0.7l0.1-0.2c-0.1-0.2-0.2-0.3-0.3-0.5c0-0.2,0-0.3,0.1-0.4
	c0.1-0.3,0.5-0.2,0.6-0.5c0.1-0.2-0.1-0.4,0-0.7c0-0.2,0.1-0.3,0.2-0.5l0.1-0.2c0.2-0.7,0.4-1.1,0.5-1.8c0.1-0.6,0-0.9,0.1-1.5
	c0.1-0.6,0.2-0.9,0.5-1.3c0.2-0.2,0.4-0.3,0.6-0.5l1.5-1.5c-0.1-0.2-0.1-0.3-0.2-0.4c-0.2-0.3-0.4-0.5-0.5-0.8
	c-0.2-0.3-0.2-0.5-0.3-0.9c-0.1-0.4,0-0.6,0-0.9l-0.2-0.3c-0.2-0.2-0.2-0.3-0.4-0.4c-0.2-0.2-0.4-0.2-0.5-0.4
	c-0.2-0.2-0.2-0.3-0.3-0.5c-0.2-0.2-0.2-0.4-0.5-0.4c-0.3-0.1-0.4,0.4-0.7,0.3c-0.2,0-0.2-0.2-0.4-0.2c-0.3-0.1-0.5,0.2-0.8,0.2
	c-0.2,0-0.4,0-0.6,0c-0.3-0.1-0.5-0.2-0.7-0.4c-0.2-0.2-0.3-0.4-0.5-0.6c-0.2-0.2-0.3-0.3-0.5-0.5l0.1-0.1c-0.2,0.1-0.2,0.1-0.4,0.1
	c-0.3,0.1-0.5,0.1-0.7,0.1c-0.3,0-0.4-0.1-0.7-0.2c-0.2,0-0.3,0-0.5-0.1c-0.3-0.1-0.3-0.5-0.5-0.5c-0.2,0-0.2,0.3-0.4,0.5
	c-0.3,0.3-0.5,0.5-0.9,0.5c-0.2,0-0.2-0.1-0.4-0.1c-0.2,0-0.3,0-0.5,0c-0.3,0.1-0.3,0.3-0.5,0.4c-0.2,0.1-0.4,0.2-0.6,0.3
	c-0.3,0.1-0.4,0.1-0.7,0.1c-0.3,0-0.4-0.4-0.7-0.3c-0.2,0-0.2,0.2-0.3,0.3l-0.2,1.1c-0.3-0.1-0.6-0.2-0.9-0.3
	c-0.3,0-0.4-0.1-0.7-0.1c-0.3,0-0.5,0-0.7,0c-0.4,0-0.5-0.2-0.9-0.3c-0.2,0-0.3,0-0.4-0.1c-0.3-0.1-0.3-0.4-0.5-0.7
	c-0.2-0.2-0.4-0.4-0.7-0.5c-0.3-0.1-0.5-0.1-0.7-0.1c-0.3,0.1-0.4,0.3-0.7,0.5c-0.3,0.2-0.5,0.4-0.6,0.7c-0.1,0.3-0.1,0.4-0.1,0.7
	c0,0.3,0.1,0.5,0,0.7c-0.1,0.2-0.2,0.2-0.3,0.3h0.1c0,0.4,0,0.6-0.1,0.9c-0.1,0.4-0.1,0.6-0.3,0.9c-0.2,0.3-0.4,0.3-0.6,0.6
	c-0.2,0.4-0.1,0.6-0.1,1c0,0.2-0.1,0.4-0.1,0.6c-0.1,0.4,0,0.7,0,1.1c0,0.4,0.2,0.6,0.1,0.9c-0.1,0.3-0.3,0.3-0.4,0.6
	c-0.2,0.5,0.2,0.9-0.1,1.3c-0.2,0.3-0.4,0.4-0.6,0.6c-0.2,0.2-0.3,0.2-0.5,0.4c-0.3,0.3-0.2,0.6-0.4,1c-0.1,0.2-0.2,0.3-0.3,0.5
	c-0.1,0.1-0.3,0.1-0.4,0.3c-0.1,0.2-0.2,0.3-0.2,0.5c0,0.2,0.1,0.3,0.1,0.5c0.1,0.3,0.1,0.5,0.1,0.7c0,0.3,0,0.5,0,0.9
	c0,0.2,0,0.3-0.1,0.5c-0.1,0.3-0.4,0.4-0.6,0.6c0,0-0.1,0.1-0.1,0.1c-0.2,0.2-0.4,0.3-0.6,0.5c-0.3,0.3-0.3,0.6-0.7,0.9
	c-0.3,0.2-0.4,0.3-0.7,0.5c-0.2,0.1-0.3,0.2-0.5,0.1c-0.2-0.1,0.1-0.4-0.1-0.6c-0.1-0.2-0.2-0.2-0.4-0.3c-0.2,0-0.3,0.1-0.5,0.3
	c-0.1,0.1-0.2,0.2-0.3,0.3l-0.3,0.1c-0.2,0-0.4,0-0.6,0c-0.3,0-0.6-0.1-0.9,0.1c-0.3,0.2-0.3,0.4-0.4,0.7c-0.1,0.3,0.1,0.6-0.1,0.9
	c-0.1,0.1-0.2,0.1-0.4,0.2l-0.2,0.1c0,0.1,0,0.2,0.1,0.3C63.1,86.3,63.3,86.2,63.4,86.4"/>
<path id="path5088" inkscape:connector-curvature="0" class="st0" d="M102.6,97.9C102.6,97.9,102.6,97.9,102.6,97.9
	c0-0.1,0.1-0.2,0.1-0.2L102.6,97.9"/>
<path id="path5090" inkscape:connector-curvature="0" class="st0" d="M95.8,104c-0.3,0.1-0.5-0.1-0.7,0c-0.3,0.1-0.4,0.1-0.7,0.3
	c-0.2,0.1-0.3,0.1-0.5,0.3c-0.1,0.2-0.2,0.3-0.1,0.5c0.1,0.2,0.4,0.1,0.5,0.3c0,0.2-0.1,0.2-0.2,0.4l-0.1,0.1
	c0.2,0.2,0.4,0.3,0.6,0.5c0.4,0.3,0.7,0.3,1.1,0.5c0.4,0.2,0.6,0.4,1.1,0.5c0.4,0.2,0.6,0.2,0.9,0.3c0.3,0.1,0.5,0.1,0.7,0.4
	c0.1,0.2,0,0.4,0,0.7c0,0.5,0,0.7,0,1.2c0,0.5,0,0.8,0,1.3c0,0.1,0,0.2,0,0.3c0,0.4,0,0.8-0.1,1.3c0,0.5,0,0.8-0.1,1.3
	c-0.1,0.6-0.2,0.9-0.4,1.4c-0.1,0.3-0.1,0.4-0.2,0.7c-0.1,0.4-0.3,0.5-0.5,0.9c-0.2,0.3-0.3,0.4-0.5,0.7c-0.1,0.2-0.1,0.3-0.2,0.5
	c-0.2,0.3-0.5,0.2-0.8,0.5c-0.3,0.2-0.5,0.3-0.6,0.7c-0.1,0.3,0.2,0.4,0.2,0.7c0,0.4-0.1,0.6-0.1,1c0.1,0.5,0.3,0.6,0.5,1.1
	c0.1,0.3,0.3,0.5,0.3,0.8c0.1,0.3-0.1,0.5-0.1,0.9c0,0.3,0,0.5,0,0.8c0,0.5-0.1,0.7-0.1,1.2c0,0.3,0.1,0.4,0.1,0.7
	c0,0.3,0,0.5-0.1,0.9l1.6,0.2c0-0.2,0-0.3,0-0.5c0-0.2,0-0.4,0-0.6c0-0.4,0.1-0.7,0.3-1c0.1-0.2,0.3-0.2,0.5-0.4
	c0.3-0.2,0.4-0.4,0.7-0.5c0.3-0.2,0.5-0.3,0.9-0.4c0.4-0.2,0.7-0.1,1.1-0.3c0.3-0.1,0.4-0.3,0.7-0.5c0.2-0.2,0.4-0.3,0.5-0.5
	c0.1-0.3,0.1-0.5,0.1-0.8c0-0.4-0.1-0.7,0-1.1c0.1-0.4,0.2-0.5,0.3-0.9c0.1-0.3,0.2-0.4,0.1-0.7c0-0.4-0.3-0.5-0.4-0.9
	c-0.1-0.4,0.1-0.6,0-1c-0.1-0.3-0.2-0.4-0.3-0.7c-0.1-0.4,0.1-0.6-0.1-0.9c-0.1-0.2-0.4-0.2-0.5-0.4c-0.2-0.3-0.1-0.6,0.1-0.9
	c0.1-0.2,0.2-0.2,0.3-0.3c0.3-0.2,0.5-0.1,0.8-0.2c0.3-0.1,0.5-0.1,0.7-0.3c0.3-0.3,0.2-0.6,0.4-0.9c0.3-0.4,0.6-0.5,0.9-0.9
	c0.2-0.2,0.3-0.3,0.4-0.4c0,0,0,0,0.1-0.1c0.3-0.3,0.4-0.4,0.7-0.7c0.3-0.3,0.4-0.6,0.7-0.9c0.4-0.3,0.6-0.5,1.1-0.7
	c0.5-0.2,0.9-0.2,1.3-0.4c0.5-0.3,0.8-0.6,1.2-1c0.3-0.3,0.6-0.4,0.7-0.8c0.1-0.3-0.1-0.6,0.1-0.9c0.2-0.5,0.5-0.6,0.9-0.9
	c0.2-0.2,0.4-0.3,0.5-0.6c0.2-0.3,0.3-0.5,0.4-0.8c0.1-0.4-0.1-0.7-0.1-1.1c0-0.5,0-0.8,0-1.3c0-0.6,0-0.9,0.1-1.5
	c0-0.5,0.1-0.7,0.1-1.2c0-0.5-0.2-0.8,0-1.3c0.1-0.3,0.3-0.4,0.3-0.7c0-0.3,0-0.5-0.2-0.7c-0.2-0.2-0.4-0.2-0.6-0.3
	c-0.1-0.1-0.2-0.2-0.3-0.3l0.1,0.1c-0.1,0.1-0.2,0.2-0.3,0.3c-0.2,0.2-0.2,0.3-0.4,0.5c-0.1,0.1-0.2,0.2-0.3,0.2
	c-0.2,0-0.2-0.2-0.4-0.1c-0.2,0.1-0.1,0.4-0.3,0.5c-0.1,0.1-0.2,0-0.4,0c-0.3,0-0.5-0.2-0.7,0c-0.2,0.1-0.1,0.5-0.3,0.6
	c-0.2,0.1-0.3-0.2-0.5-0.3c-0.2-0.1-0.3-0.1-0.5-0.1c-0.3,0.1-0.3,0.3-0.5,0.5c-0.2,0.2-0.3,0.5-0.5,0.5c-0.3,0.1-0.4-0.1-0.7-0.2
	c-0.2-0.1-0.3-0.2-0.5-0.1c-0.2,0-0.2,0.2-0.4,0.3c-0.2,0.1-0.4,0.1-0.6-0.1c-0.1-0.1-0.1-0.3-0.3-0.3c-0.2-0.1-0.4,0-0.6,0.1
	c-0.3,0-0.5,0-0.8,0.1c-0.1,0-0.2,0-0.3,0.1c0,0,0,0.1,0,0.1c0,0.2,0,0.3-0.1,0.5c-0.1,0.2-0.3,0.1-0.4,0.3c-0.2,0.3-0.1,0.6,0,0.9
	c0,0.3,0.1,0.4,0.2,0.7c0.1,0.3,0.1,0.4,0.1,0.7c0,0.3,0.1,0.4,0.1,0.7v-0.1c0.2,0.2,0.4,0.3,0.5,0.6c0.1,0.1,0,0.2,0.1,0.4
	c0.1,0.3,0.1,0.4,0.3,0.7c0.1,0.3,0.4,0.4,0.5,0.7c0.2,0.4,0.1,0.7,0,1.1c-0.1,0.4-0.3,0.6-0.6,0.9c-0.2,0.3-0.3,0.5-0.6,0.6
	c-0.2,0.1-0.4,0.1-0.7,0c-0.3-0.1-0.4-0.2-0.5-0.4c-0.1-0.3,0.2-0.5,0.3-0.8c0.1-0.4,0.1-0.6-0.1-1c-0.1-0.4-0.2-0.7-0.6-0.8
	c-0.2,0-0.4,0.1-0.6,0.1c-0.3,0-0.4,0.1-0.7,0c-0.2-0.1-0.2-0.3-0.3-0.5c-0.1-0.2,0.1-0.5-0.1-0.6c-0.1-0.1-0.3,0-0.5-0.1h-0.2
	c-0.1,0.2,0,0.4-0.1,0.5c-0.2,0.2-0.4,0.1-0.7,0.1c-0.2,0-0.4,0-0.6,0.1c-0.2,0.1-0.3,0.1-0.5,0.2C96.3,103.7,96.2,103.9,95.8,104"
	/>
<path id="path5092" inkscape:connector-curvature="0" class="st0" d="M66.2,47.3c0.1,0.2,0,0.4,0.1,0.6c0.1,0.3,0.3,0.4,0.5,0.5
	l-0.5,0.3c0.2,0,0.3-0.1,0.5-0.1c0.3,0.1,0.3,0.4,0.5,0.7c0.2,0.3,0.5,0.3,0.6,0.7c0.1,0.3,0,0.5,0.1,0.7c0.1,0.3,0.1,0.4,0.2,0.7
	c0.1,0.1,0.1,0.2,0.2,0.3c0.2,0.5-0.4,0.8-0.3,1.3c0,0.3,0.1,0.5,0.3,0.7c0.1,0.1,0.2,0.1,0.3,0.2c0.2,0.2,0.5,0.5,0.3,0.7
	c-0.1,0.2-0.4,0.1-0.6,0.1c-0.4,0-0.6-0.1-0.9-0.1c-0.3,0-0.5-0.1-0.7,0.1c-0.2,0.2-0.3,0.4-0.3,0.7c0,0.3,0.3,0.3,0.5,0.6
	c0.1,0.2,0,0.4,0.2,0.6c0.1,0.2,0.3,0.2,0.5,0.3c0.4,0.2,0.8,0.2,1,0.7c0.1,0.2,0,0.4,0.1,0.7c0.1,0.4,0.2,0.6,0.4,1l0.1,0.1
	c0.3,0,0.4,0.1,0.7,0.1c0.3,0,0.4,0,0.7-0.1c0.2-0.1,0.2-0.3,0.4-0.3c0.2,0,0.2,0.3,0.4,0.4c0.4,0.1,0.3-0.6,0.7-0.7
	c0.3-0.1,0.5,0.2,0.7,0c0.2-0.1,0.2-0.4,0.3-0.6c0.2-0.3,0.2-0.6,0.5-0.8c0.2-0.2,0.4-0.3,0.7-0.3c0.3-0.1,0.5,0,0.8,0
	c0.3,0,0.5-0.1,0.8-0.2c0.3-0.1,0.5-0.1,0.7-0.2c0.2-0.1,0.4-0.1,0.6-0.2c0.2,0,0.3,0,0.5-0.1c0.2-0.1,0.2-0.3,0.4-0.5
	c0.1-0.1,0.2-0.2,0.3-0.3l0.5-0.7c0.2-0.1,0.3-0.2,0.5-0.3c0.2-0.2,0.3-0.2,0.4-0.5c0.1-0.2,0-0.3,0.1-0.5c0.1-0.2,0.2-0.3,0.3-0.4
	c0.2-0.2,0.4-0.2,0.7-0.3c0.3,0,0.4,0,0.7,0h0.2c0.1-0.2,0.1-0.2,0.1-0.4c0-0.2-0.1-0.4-0.3-0.5c-0.2-0.1-0.4,0.1-0.5-0.1
	c-0.1-0.1,0-0.3,0-0.5c0-0.2,0.1-0.3,0.1-0.5c0-0.2-0.1-0.2-0.1-0.4c-0.1-0.4,0.1-0.6,0.1-0.9c0-0.4-0.2-0.6-0.1-1
	c0-0.3,0.2-0.4,0.3-0.7c0-0.4,0-0.6-0.2-0.9c-0.1-0.3-0.5-0.4-0.5-0.7c0-0.2,0.1-0.3,0.3-0.5c0.2-0.3,0.4-0.4,0.7-0.7l0.2-0.7
	c0.1-0.2,0-0.3,0.1-0.5c0,0,0,0,0,0c0.1-0.1,0.2-0.2,0.4-0.2l1.3-0.1l-0.1-7.1l0.1-0.3c-0.4-0.3-0.5-0.5-0.9-0.7
	c-0.3-0.2-0.4-0.2-0.7-0.3c-0.4-0.2-0.6-0.2-1-0.3c-0.5-0.2-0.7-0.4-1.1-0.7c-0.3-0.2-0.5-0.3-0.8-0.5c-0.2-0.2-0.3-0.3-0.5-0.4
	c-0.3-0.2-0.5-0.1-0.7-0.3c-0.7-0.3-1-0.6-1.6-0.9c-0.4-0.3-0.7-0.5-1.1-0.7c-0.2-0.1-0.4-0.1-0.5-0.3c-0.2-0.2-0.2-0.4-0.5-0.6
	C73.4,30,73,30.2,72.5,30c-0.6-0.3-0.9-0.6-1.5-0.9c-0.4-0.2-0.7-0.3-1.1-0.5c-0.2-0.1-0.4-0.5-0.6-0.3c-0.2,0.1-0.1,0.3-0.2,0.5
	c-0.2,0.2-0.3,0.1-0.5,0.2c-0.2,0.1-0.4,0.2-0.6,0.3l-0.2,0.3c0.1,0.2,0.2,0.3,0.3,0.5c0.1,0.3,0.1,0.5,0.1,0.8c0,0.3,0,0.5,0,0.9
	c0,0.3,0,0.6,0.2,0.9c0.1,0.2,0.4,0.2,0.5,0.4c0.1,0.2-0.1,0.3-0.1,0.5c0.1,0.2,0.3,0.2,0.5,0.4c0.1,0.1,0.1,0.2,0.1,0.4
	c0.1,0.4-0.1,0.6-0.2,0.9c-0.1,0.7-0.3,1.1-0.3,1.8c0.1,1.8,1,2.9,0,4.3c-0.1,0.2-0.2,0.3-0.4,0.5c-0.2,0.2-0.3,0.3-0.5,0.4
	c-0.2,0.2-0.4,0.2-0.5,0.4c-0.1,0.1,0,0.3,0,0.4c-0.1,0.4-0.3,0.5-0.5,0.7c0,0-0.1,0.1-0.1,0.1c-0.1,0.1-0.3,0.2-0.4,0.3
	c-0.3,0.3-0.5,0.5-0.6,0.9c-0.1,0.3,0,0.5,0,0.8c0,0.3,0,0.5-0.1,0.9c-0.1,0.3-0.2,0.5-0.3,0.7l0.6-0.5C66,47.1,66.1,47.1,66.2,47.3
	"/>
<path id="path5094" inkscape:connector-curvature="0" class="st0" d="M101.1,66.4l0.2,0.1c0.2,0.2,0.3,0.3,0.4,0.5
	c0.1,0.2,0.1,0.4,0.3,0.6c0.2,0.3,0.5,0.4,0.7,0.7c0.2,0.3,0.2,0.4,0.3,0.7c0.1,0.4,0,0.7,0,1.1c0,0.3,0.1,0.4,0.1,0.7
	c0,0.4,0.2,0.7-0.1,1c-0.2,0.2-0.4,0.1-0.5,0.3c-0.3,0.2-0.3,0.5-0.5,0.8c-0.2,0.3-0.5,0.4-0.6,0.7c-0.1,0.3,0,0.5,0,0.8l-0.1,0
	c0.1,0,0.2,0.1,0.3,0.1c0.2,0.1,0.5,0.1,0.5,0.3c0,0.2-0.2,0.3-0.3,0.5c-0.1,0.2-0.2,0.2-0.3,0.4c-0.1,0.2,0.2,0.4,0.1,0.6l-0.1,0.3
	c0.5,0.3,0.8,0.5,1.3,0.7c0.6,0.3,1.1,0.2,1.7,0.5c0.4,0.3,0.5,0.7,0.9,1c0.4,0.4,0.7,0.5,1.1,0.8c0.4,0.2,0.7,0.1,0.9,0.5
	c0.3,0.4,0,0.8,0.1,1.2c0.2,0.5,0.4,0.8,0.9,1.2c0.3,0.3,0.5,0.4,0.9,0.5c0.3,0.2,0.5,0.3,0.9,0.4c0.2,0.1,0.4,0.1,0.6,0.2h0.1
	c-0.1-0.2,0.2-0.2,0.3-0.4c0.1-0.2,0.2-0.4,0.3-0.7c0.1-0.3,0-0.5,0.1-0.9c0.1-0.3,0.1-0.5,0.3-0.8c0.1-0.2,0.3-0.2,0.4-0.3
	c0.2-0.2,0.2-0.3,0.3-0.5c0.1-0.2,0.1-0.4,0.3-0.6c0.2-0.2,0.4-0.2,0.5-0.3c0.1-0.1,0.1-0.2,0.2-0.3c0.1-0.2,0.3-0.2,0.4-0.4
	c0.1-0.2,0.1-0.3,0.1-0.5c0.1-0.3,0.3-0.4,0.5-0.6l-0.3,0.1c-0.2-0.2-0.2-0.3-0.4-0.5c-0.1-0.2-0.2-0.3-0.3-0.5
	c-0.2-0.3-0.3-0.4-0.4-0.7c-0.2-0.6,0-1.1,0.1-1.8c0-0.4,0.1-0.6,0.1-1c0.1-0.5,0.1-0.8,0.1-1.3c0-0.5,0.1-0.7,0.1-1.2
	c0-0.4-0.1-0.6-0.1-1c0-0.4-0.2-0.8,0.1-1.1c0.2-0.2,0.4-0.2,0.6-0.3c0.2-0.2,0.2-0.4,0.4-0.6c0.1-0.1,0.3-0.2,0.4-0.3
	c0.1-0.2,0-0.4,0-0.6h-0.1c-0.3,0.1-0.4,0.2-0.7,0.2c-0.3,0-0.5-0.1-0.8-0.3c-0.2-0.2-0.2-0.5-0.4-0.5c-0.2,0-0.2,0.2-0.3,0.3
	c-0.2,0.2-0.4,0.1-0.7,0.3c-0.2,0.1-0.2,0.2-0.3,0.4c-0.2,0.3-0.2,0.6-0.5,0.7c-0.2,0.1-0.4,0.1-0.6,0c-0.2-0.1-0.2-0.3-0.4-0.3
	c-0.2-0.1-0.3-0.1-0.5-0.1c-0.3,0-0.5,0.2-0.8,0.1c-0.2-0.1-0.3-0.1-0.5-0.3c-0.3-0.2-0.4-0.4-0.7-0.7c-0.3-0.2-0.4-0.4-0.7-0.5
	c-0.2-0.1-0.3-0.1-0.5-0.1c-0.3,0-0.5,0-0.8,0c-0.3,0-0.5-0.1-0.9-0.2l-0.2-0.1l-0.8-0.3l-0.7-0.1c0,0-1.1,0-1.2,0.2
	C101.5,65.7,101.1,66.4,101.1,66.4"/>
<path id="path5096" inkscape:connector-curvature="0" class="st0" d="M117.1,49.5l-0.4,0.2c-0.2,0.2-0.2,0.5-0.5,0.5
	c-0.2,0.1-0.4-0.2-0.6-0.1c-0.3,0.1-0.2,0.5-0.4,0.7c-0.2,0.3-0.4,0.5-0.5,0.9c-0.1,0.4-0.2,0.7,0,1.1c0.1,0.2,0.1,0.4,0.3,0.4
	c0.2,0,0.2-0.4,0.5-0.3c0.2,0,0.2,0.2,0.3,0.2c0.2,0,0.2-0.5,0.4-0.5c0.3,0,0,0.6,0.3,0.6c0.3,0,0.2-0.4,0.4-0.6
	c0.1-0.2,0.2-0.2,0.3-0.4l0.3-0.1c-0.2-0.1-0.3-0.1-0.5-0.1c-0.2,0-0.4,0.2-0.5,0.1c-0.2-0.1-0.3-0.4-0.2-0.6c0.1-0.3,0.6,0,0.8-0.3
	c0.1-0.1,0.2-0.2,0.3-0.4c0-0.3-0.2-0.4-0.3-0.6C117.1,50,117.3,49.7,117.1,49.5"/>
<path id="path5216" inkscape:connector-curvature="0" class="st0" d="M90.3,132.2c-0.3-0.3-0.5-0.5-0.9-0.5
	c-0.3-0.1-0.6-0.1-0.9,0.1c-0.4,0.1-0.6,0.4-0.8,0.7c-0.2,0.2-0.2,0.4-0.4,0.7c-0.2,0.2-0.5,0.2-0.5,0.5c-0.1,0.3,0.1,0.5,0.3,0.7
	c0.1,0.2,0.3,0.3,0.4,0.5c0.2,0.3,0.1,0.7,0.5,0.7c0.2,0,0.4-0.1,0.5-0.2c0.2-0.2,0.2-0.5,0.4-0.6c0.3-0.1,0.5,0.1,0.7,0
	c0.3-0.1,0.3-0.3,0.5-0.5c0.2-0.2,0.3-0.4,0.5-0.7c0.1-0.3,0.3-0.4,0.2-0.7C90.7,132.5,90.5,132.4,90.3,132.2"/>
<path id="path5218" inkscape:connector-curvature="0" class="st0" d="M95.6,126.8c0-0.3,0.1-0.5-0.1-0.7c-0.2-0.2-0.5-0.1-0.8,0
	c-0.3,0.1-0.4,0.3-0.5,0.5c-0.2,0.2-0.3,0.4-0.4,0.7c-0.1,0.3-0.1,0.5,0,0.7c0.1,0.3,0.1,0.5,0.3,0.7c0.2,0.2,0.3,0.3,0.5,0.3
	c0.2,0.1,0.4,0,0.6-0.1c0.2-0.1,0.3-0.2,0.5-0.4c0.1-0.2,0.2-0.3,0.3-0.5c0-0.3-0.2-0.4-0.3-0.7C95.6,127.1,95.6,127,95.6,126.8"/>
<g id="Layer_7" transform="translate(-273.19333,-86.525361)">
</g>
</svg>
