<?xml version="1.0" encoding="utf-8"?>
<!-- Generator: Adobe Illustrator 23.0.1, SVG Export Plug-In . SVG Version: 6.00 Build 0)  -->
<svg version="1.1" id="Layer_1" xmlns="http://www.w3.org/2000/svg" xmlns:xlink="http://www.w3.org/1999/xlink" x="0px" y="0px"
	 viewBox="0 0 1208 975.2" style="enable-background:new 0 0 1208 975.2;" xml:space="preserve">
<style type="text/css">
	.st0{fill-rule:evenodd;clip-rule:evenodd;fill:#DDDDDD;}
	.st1{fill:#DDDDDD;stroke:#DDDDDD;stroke-width:6.29;stroke-linecap:round;}
	.st2{fill:#DDDDDD;stroke:#DDDDDD;stroke-width:8.6884;stroke-linecap:round;}
	.st3{fill:#DDDDDD;stroke:#DDDDDD;stroke-width:6.9993;stroke-linecap:round;}
	.st4{fill:#DDDDDD;stroke:#DDDDDD;stroke-width:10.7516;stroke-linecap:round;}
	.st5{fill:#DDDDDD;stroke:#DDDDDD;stroke-width:7.5193;stroke-linecap:round;}
	.st6{fill:#DDDDDD;stroke:#DDDDDD;stroke-width:10.4029;stroke-linecap:round;}
</style>
<g>
	<g>
		<path class="st0" d="M361.9,0c4.9,0,9.8,0,14.6,0c2.6,7.6,14.8,5.6,22.6,8c3.4,6.7-3.6,15.7,0,25.3c2,5.1,6.5,2.7,9.3,6.7
			c2.6,3.7,1.3,13.4,8,14.6c12.1,2.2,15-18.6,21.3-21.3c3.1-1.3,8.4,1.4,10.6,0c1.4-0.9,1.1-4.6,2.7-6.7
			c12.9-16.6,30.6,4.4,46.6,9.3c8.2,2.5,20.7,2.7,31.9,5.3c5.8,1.4,9.7,7.2,16,9.3c6.6,2.3,14.8,0.7,20,2.7c4.7,1.8,7.8,7.3,12,9.3
			c2.7,1.3,6.9-0.9,9.3,0c11.1,3.9,17.4,18.6,27.9,14.6c1.6,6.8-6.5,7.5-2.7,14.6c0,0.1,14.6,7,20,9.3c9.5,4.2,22.6,4.1,17.3,16
			c-2.8,6.2-10.8,1.1-16,2.7c-1.6,13.4,16.7,15.8,21.3,21.3c1,1.2-0.6,5.1,0,6.7c0.6,1.5,8.9,11.7,6.7,10.6c4.4,2,9.1-4.6,12-1.3
			c2.3,2.2,3.3,5.6,2.7,10.6c4.1,5.9,13.6-6,10.6-5.3c7.6-1.7,19.6,3.4,17.3,9.3c-3.2,8.1-11.9-3-14.6-2.7c4.2-0.6-6.1,3.6-4,6.7
			c2.6,3.9,9.7-0.6,16,4c1.6,1.2,4,10.7,4,10.6c-0.2,0.3-16.2,3-18.6,2.7c-3.4-0.5-4.6-5.1-8-6.7c-10.6-5-26.4-0.5-35.9-5.3
			c-3-1.5-20.8-20-22.6-22.6c-4.8-6.7-3.1-12.7-10.6-16c-6.9-3-18.4,3.7-18.6-8c-3.6,5.9-6.8,3.3-12,5.3c-10.8,4.3-5.4,13.5-12,21.3
			c-6.8,8-18,4.5-23.9,4c-10.1-0.9-17.3,2.4-25.3-2.7c-8-5.1-7-14.6-17.3-17.3c-15.9-4.1-23.7,9.7-41.2,5.3
			c2.3-8.4,5.8-18.1,12-21.3c3.2-1.6,5.3,1.4,6.7-1.3c3.8-7.4-6.9-27.1-10.6-31.9c-9.2-11.7-37.8-13.9-55.9-20
			c-9.6-3.2-16.4-9.1-21.3-13.3c-5.8,4.7-5.6,9.2-10.6,9.3c-12.3,0.3-5.3-10.8-6.7-13.3c-3.7-6.9-11.5-6.9-17.3-10.6
			c-0.1-10.7,17.9-1.2,20-6.7c-5.4-7.7-6.5,0.1-13.3-4c-4-2.4-3.2-10.5-5.3-12c-5.3-3.8-13,0.3-18.6-4C339.7,7.9,354.2,7.4,361.9,0z
			"/>
		<path class="st0" d="M620,35.9c-0.5-11.6,19.4-10,20-4C640.6,39.4,627.3,38.1,620,35.9z"/>
		<path class="st0" d="M737,65.2c9.7,2.4,11.2,14.1,4,20c-3.4,2.7-4.9-3.6-9.3-2.7c1.2-0.3-7.6,6.5-6.7,5.3c-1,1.2,2.4,5.1,1.3,8
			c-1.6,4.4-6.4,1.4-9.3,2.7c-9,3.9-22.3,16.3-38.6,13.3c-3.7-0.7-3.8-3.9-6.7-5.3c-3-1.5-10.3-0.5-14.6-2.7
			c-3.5-1.8-5.7-6.6-13.3-4c0-2.2,0-4.4,0-6.7c2.9-3.6,6.5,3.9,8,4c0.3,0,2.5-3.5,4-4c5.4-1.7,20,1.8,23.9,0
			c5.1-2.3,3.4-13,10.6-9.3c-2,21.5,15.6,0.1,22.6-1.3c1.1-6.5-3.8-6.8-2.7-13.3c11.1,0.9,13.4,1.7,21.3,1.3l4.7-0.7L737,65.2z"/>
		<path class="st0" d="M784.9,103.8c13.2,2.3,13.1,22.6,1.3,26.6c6-12.1-12.2-7-9.3-20l4.9-2.2L784.9,103.8z"/>
		<path class="st0" d="M401.8,94.5c17.4-7.4,5.6,27.6-1.3,27.9C388.3,123.1,396.9,96.5,401.8,94.5z"/>
		<path class="st0" d="M802.2,113.1c9.8,3,20.9,10.5,20,20C811.5,131.2,799.4,124.1,802.2,113.1z"/>
		<path class="st0" d="M351.2,122.4c8.3,7.8-3.2,25.4-9.3,21.3C333.8,138.2,348.4,125.9,351.2,122.4z"/>
		<path class="st0" d="M820.9,138.4C842,147.6,818.5,165.7,820.9,138.4L820.9,138.4z"/>
		<path class="st0" d="M892.7,173c-7.8-1.7-24.6-27.1-13.3-29.3c6.5-1.2,4.3,6.4,6.7,10.6C889.9,161.4,898.8,169.1,892.7,173z"/>
		<path class="st0" d="M883.4,176.9c-7.1,1.5-22.8,0.8-25.3-4C850.4,158.1,885.9,160.8,883.4,176.9z"/>
		<path class="st0" d="M888.7,179.6c10.5-2.2,29.5,9.2,20,16C903.4,199.3,887.5,185,888.7,179.6z"/>
		<path class="st0" d="M441.7,244.8c2.5-1.2,6.3-1.5,8,1.3c-0.2-0.3-2.5,13.2-2.7,13.3C437.3,263.7,431.3,249.8,441.7,244.8z"/>
		<path class="st0" d="M960.5,396.5c-11.9-5.9-16.8-18.7-23.9-29.3c12.8-1.6,24,9.6,30.6,18.6l-5.1,4.2L960.5,396.5z"/>
		<path class="st0" d="M993.8,379.2c8-8,12.7,7.6,8,10.6C996.7,393.1,988,384.9,993.8,379.2z"/>
		<path class="st0" d="M1008.4,391.1c2.1-2.1,10.8,3.1,8,8C1013.9,403.5,1002.1,397.5,1008.4,391.1z"/>
		<path class="st0" d="M574.7,780.9c10.3-5.3,6.8,19.9-2.7,13.3C567.8,791.3,573.1,781.8,574.7,780.9z"/>
		<path class="st0" d="M646.6,783.6c2.2-1,15.5,4.8,10.6,12C652.7,802.3,636.7,787.9,646.6,783.6z"/>
		<path class="st0" d="M588,803.6c2.6,3.5,7,0.4,10.6,1.3c6.6,1.7,10.7,8.4,16,9.3c5.5,0.9,8-2.5,14.6-4c2.5-0.5,4.7,2,6.7,1.3
			c3.7-1.2,10.6-7.1,13.3-6.7c9.3,1.5,12.9,21.7,8,37.3c-0.2,0.5-4.8-0.4-5.3,0c-7.5,5.5,5.1,18.9-2.7,26.6c-4,4.1-7.5-5.3-8-5.3
			c-5.7-0.2-7.3,13-10.6,14.6c-4.1,1.9-16.5,0-18.6-1.3c-3.6-2.2-14.7-21.5-16-27.9c-0.9-4.8,1.2-8.3,0-12
			C592.9,827.6,578.8,816.5,588,803.6z"/>
		<path class="st0" d="M1001.8,972.5c5-3.6,0.7-12.8,4-16c3.7-3.5,15.8,0.5,12,10.6C1015.9,972,1007.8,972.6,1001.8,972.5z"/>
		<path class="st0" d="M456.3,662.5c-6.9-6.9,7.5-16.8,8-21.3c0-0.1-3-6.7-2.7-6.7c-6.1-1.2-2.3,5.3-5.3,9.3
			c-4.8,6.5-32.9,18.7-25.3,31.9c-9.8,1.1-10.5-6.1-18.6-9.3c9-10.6-0.3-11.8-5.3-21.3c-0.8-1.5,1.1-5.4,0-6.7
			c-3.1-3.7-7.1-2.1-10.6-5.3c-5.7-5.1-5.8-14.8-8-20c-6.9,4.6-11.7-3.1-17.3-4c-3.1-0.5-6.3,2.3-9.3,1.3
			c-5.3-1.7-10.5-9.7-17.3-10.6c-2.9-0.4-5,3.7-8,4c-2.3,0.2-4.8-2.2-8-2.7c-21-2.8-44.8,17.3-65.2,17.3c-4.1,0-8.3-2-12-1.3
			c-6.3,1.1-18.1,12.2-25.3,14.6c-1.6,0.5-5.3-1-6.7,0c-5.1,3.8-5.7,18.3-12,21.3c-15,7.2-34.3-3.3-46.6-2.7c-2.7,0.1-7.8,3.8-12,4
			c-3.6,0.2-7.5-2.2-9.3-1.3c-4.1,1.9-4.7,10.4-9.3,13.3c-2.5,1.6-5.2-1.8-8-1.3c-6.6,1.2-9.9,12.8-17.3,14.6c-5.4,1.3-7.4-2-12-2.7
			c-7.1-1-12.8,1.7-18.6,0c-7-2.1-7.4-8.8-14.6-13.3c-8.2-5.1-18.9-3.6-12-22.6c15.1,5.2,9.8-6.3,10.6-20c0.3-4.8,3.2-8.6,2.7-14.6
			c-0.9-9.6-12.9-22.2-14.6-35.9c-0.8-6.1,1-12.8,0-17.3c-1.4-6-12.9-21.6-14.6-26.6c-1.1-3.1,0.7-7.3,0-10.6
			c-3.5-18.3-28-28.5-20-43.9c4.3,1,4,6.6,6.7,9.3c2.9-0.2,0.6-5.6,1.3-8c4.4-3.1,6.3,5.5,10.6,6.7c-2.3-13.6-17.7-24.2-13.3-37.3
			c1.4-4.2,7.1-5.2,8-9.3c2.4-11-5.3-27.8,5.3-34.6c3.3-2.1,5.1,2.7,6.7,2.7c13.5-0.1,33.6-26.6,43.9-27.9c4.7-0.6,9.4,4.5,13.3,4
			c2.5-0.3,6.2-6.5,12-8c3-0.8,7.1,0.9,9.3,0c3.1-1.3,5.3-5.8,8-6.7c6.7-2.1,14.8,0,22.6-2.7c5.6-1.9,12.2-4.6,14.6-6.7
			c7.8-6.6,6.6-20.8,20-23.9c-2.8-4.6-6.4-13.9-1.3-22.6c2.9-4.9,3.2,1.4,6.7-1.3c4.2-3.3,2.3-11.6,6.7-12
			c6.3-0.5,5.3,10.4,10.6,13.3c-1-6.4-3.2-15.4,4-18.6c2.7-1.2,4.9,5.4,8,5.3c4.8-0.1,3.8-8.5,8-6.7c1-3.6-6.3,1-5.3-2.7
			c5.4-11.9,15-19.6,22.6-29.3c4.2-0.6,5.9,1.2,5.3,5.3c6.8-3.3,0-7.9,2.7-12c12.2,3.7,16.4-7.5,27.9,0c5.8,3.8,7.1,12.6,14.6,16
			c4.9,2.2,16.2-0.6,22.6,4c-0.2-1.5,0.3-2.4,1.3-2.7c-11.5-6.1-2.4-23.3,9.3-25.3c0.3-3.9-3-4.1-2.7-8c7.6-3.4,11.1-11.1,16-17.3
			c-2.6-3.6-13.2,0.8-16-2.7c3.1-2.3,1.5-12.6,5.3-14.6c1.3-0.7,23.5,3.4,23.9,4c4.3,6.3-11.4,10.3-2.7,16c5.8,3.7,19.2,0.5,20-4
			c1.9-11.1-26-1.3-16-14.6c4.4-5.8,15.3-2.1,16,4c5,1.4,3.8-3.3,8-2.7c2.6,8.4,6.3,6.9,14.6,8c2.1,0.3,4.1,3.1,8,4
			c3.2,0.7,6.9-0.8,9.3,0c3.2,1.1,6.7,5.3,8,5.3c4.4,0.2,6.4-4.3,10.6-5.3c2.8-0.7,1.9,2.5,5.3,2.7c6.5,0.4,6-4.7,10.6-2.7
			c3.3,1.4,2.5,11.4,8,8c-4.9,4.4-7.2,11.4-8,20c-5.6,0.3-6.3-2.2-10.6,0c7.1,17.7-10.9,16-9.3,26.6c0.3,1.7,12.3,11.8,16,14.6
			c6,4.7,15.6,4.7,22.6,9.3c5.5,3.6,7.2,10.3,14.6,12c3.1,0.7,7.8-0.8,9.3,0c5.4,3,18.1,27.2,31.9,12c1.4-1.5,0.3-6.6,1.3-9.3
			c2.1-5.6,7.4-9.6,8-12c1.1-4.7-1.1-8.5,0-12c0.8-2.5,5-5.4,5.3-8c0.9-6.4-4.4-18.7-4-27.9c0.2-3.5,2.6-1.7,4-6.7
			c1.4-5.1-2.1-14-1.3-17.3c0.6-2.5,5.2-4.1,8-12c2.4-7,2.4-20.8,10.6-20c5.4,0.5,6.4,10.1,8,18.6c1.8,9.9,11.8,17,13.3,22.6
			c1.9,6.9-0.9,19.4,2.7,26.6c6.8,0.6,6.5-5.9,13.3-5.3c0,8.7,13.5,10.4,16,16c1.5,3.4-2.6,5-2.7,8c-0.1,2.1,4.8,8.1,5.3,13.3
			c0.5,4.6-2.5,3.7-1.3,6.7c3.5,8.7,12.3,11.8,13.3,23.9c0.3,3-2.1,7.4-1.3,10.6c0.9,3.9,3.2,1,5.3,5.3c2.9,6,1,12.5,8,14.6
			c2.8,0.9,7-2.7,12,0c2.6,1.4,0.1,5.2,2.7,8c4.1,4.5,18.4,5.4,21.3,9.3c3.1,4.2-1.6,6.8,0,10.6c1.2,2.9,6.9,4.1,8,6.7
			c0.7,1.8-0.9,4.9,0,6.7c0.6,1.1,5.2,1,5.3,1.3c1.4,4-1,8.9,0,13.3c3.8,3.9,4.2-2.6,9.3-1.3c1.8,6.2,7.7,8.3,14.6,9.3
			c-4.8,30.5,25.5,28.2,31.9,51.9c4.1,0,8.7-3.1,12,0c-4,9.7-0.6,20.6-1.3,30.6c-0.2,2.9-3.1,7.6-2.7,10.6
			c1.6,10.9,9.7,14.2,10.6,21.3c1.7,13-7.8,36.1-10.6,50.6c-1.1,5.8,0.3,13.4-1.3,18.6c-1.2,4.1-6.8,7.8-8,12
			c-2,7.4-0.4,12.7-6.7,17.3c-1.7,1.3-6.2,0.7-8,2.7c-3.7,4.1-2.6,11.6-6.7,20c-1.9,4-8,7.3-9.3,10.6c-1.3,3.5,1.1,9.7,0,13.3
			c-2.3,7.1-9.6,13-12,20c-5.8,17.2,2.9,39.9-14.6,45.2c-5.8,1.8-12.1-0.6-17.3,0c-18.8,2.3-23.4,19.8-38.6,21.3
			c-2.6,1,3.6,4.2,1.3,9.3c-4.2,3.7-3.7-3.5-6.7-5.3c-1.1-0.7-4.3,0.9-5.3,0c-0.7-0.6-0.7-5-1.3-5.3c-0.7-0.4-6,1.6-6.7,1.3
			c-1.7-0.6-1.2-4.6-2.7-5.3c-2.6-1.4-15.5-3.8-13.3-4c-7.2,0.6-10.8,11.1-16,12c-7.7,1.3-20.7-12.4-30.6-12c-1,0-7.7,2.7-8,2.7
			c-4.1-1.2-3-5.7-6.7-8c-2.5-1.5-6.7,0.7-9.3,0c-7.7-2.1-19.1-19.3-20-25.3c-0.5-3.4,3-8.7,2.7-13.3c-0.7-8.7-7.8-20.9-20-18.6
			l0.7-5.3l-4.7-2.7c2.8-7.3,0.5-19.6-5.3-17.3l-6-0.7L456.3,662.5z"/>
		<path class="st0" d="M458.3,692.5l3.3,4.7c0.7,2.5-15.5,5-17.3,4c-16.3-9,10.3-21.4,18.6-12L458.3,692.5z"/>
		<path class="st0" d="M1145.5,717.1c0.8-5-3.4-8.4,0-12c7.9,5.4,12,10.2,13.3,14.6c0.8,2.9-1.9,7.7,0,10.6
			c3.2,4.8,16.9,9.8,21.3,9.3c4.9-0.6,21-20.2,26.6-5.3c-0.9-2.3-4,16.4-5.3,20c-2.5,6.9-10.4,8.4-6.7,18.6
			c-5.3-3.6-14.9-7.1-18.6,1.3c-0.9,2,4.1,6.3,4,9.3c0,1-6.9,14.7-9.3,18.6c-7.3,11.9-19.8,28.2-26.6,27.9
			c-5.9-0.2-14.9-16.8-21.3-5.3c-1.6,2.9,3.7,4.1,4,8c0.6,8.8-21.4,29.4-25.3,35.9c-4.1,6.9,11.7,12.9,2.7,17.3
			c-3.9,1.9-24.6,0.6-27.9,4c-3.7,3.9,0,9.1-2.7,18.6c-3.3,11.9-13.7,16.8-9.3,27.9c-15.2,4.4-21.4,29.1-46.6,20
			c-2.7-1,1.1-4.8-1.3-6.7c-2.3-1.8-4.4,2.5-9.3,0c-0.9-0.5-2.3-5.3-2.7-5.3c-4.1-0.8-8.6,3.8-13.3,2.7c-11.8-3-7.6-12.3-4-20
			c2.4-5.1,2.9-14.5,5.3-17.3c0.7-0.8,4.3,0.5,5.3,0c7.1-3.7,11-19.1,21.3-25.3c6.8-4.1,13.5-4.5,21.3-9.3c2.9-1.8,9.8-5.7,10.6-6.7
			c0.6-0.6,0.3-5.8,1.3-6.7c1.2-1,5.6,1.1,6.7,0c2.2-2.4,1.3-7.2,2.7-9.3c2.9-4.4,7.5-5,9.3-9.3c3.6-8.7-0.5-9.9,8-14.6
			c11.9-6.6,3.2-35.7,25.3-29.3c-2.4,2-2.1,14.5,1.3,16c4.6,1.9,15.3-8.1,21.3-5.3c-3.9-1.8,6.9,5,5.3,5.3c7-1.5,11.7-17.1,8-22.6
			c-6-8.8-31.2-10.6-23.9-25.3c1.4-2.9,11.4-1.7,14.6-8c1.8-3.5,2.9-26.2,1.3-30.6c-5.3-15.1-17.5-30.2-25.3-41.2
			c-2-2.9-0.3-8.1-2.7-13.3c-0.1-0.3-17.4-21,0-16c4,1.1-1.1,5.4,4,10.6c3.3,3.4,11.5,2.2,14.6,4c1.9,1.1,7.6,5.9,9.3,9.3
			c1.6,3.2-0.3,9.1,1.3,13.3c2.1,5.5,7.7,6,4,13.3C1133.9,716.3,1137.9,711.7,1145.5,717.1z"/>
		<g>
			<path class="st1" d="M689.5,40.9c17.6,5.2,34.9,14.4,46.9,29"/>
			<path class="st2" d="M781.8,108.2c-5.2-5.8-11-12.1-12.7-19.7"/>
			<path class="st3" d="M840.7,133.2c6.4,6.9,15,9.6,22.3,15"/>
			<path class="st4" d="M991.1,406.4c-10.6-3.6-19.8-10.2-29-16.4"/>
			<path class="st5" d="M458.3,692.5c8.7,3.8,12.9-5.9,20-8.6"/>
			<path class="st6" d="M449.8,677.8c6.3-3.3,14.1-4.7,12.5-14.6"/>
		</g>
	</g>
</g>
</svg>
