<?xml version="1.0" encoding="utf-8"?>
<!-- Generator: Adobe Illustrator 23.0.1, SVG Export Plug-In . SVG Version: 6.00 Build 0)  -->
<svg version="1.1" id="Layer_1" xmlns="http://www.w3.org/2000/svg" xmlns:xlink="http://www.w3.org/1999/xlink" x="0px" y="0px"
	 viewBox="0 0 100.2 142.8" style="enable-background:new 0 0 100.2 142.8;" xml:space="preserve">
<style type="text/css">
	.st0{fill:#DDDDDD;}
</style>
<g>
	<title>Layer 1</title>
	<path id="path4140" class="st0" d="M54.9,1.8C55,1.7,55.1,1.5,55,1.4c-0.1-0.2-0.5-0.3-0.7-0.1c-0.1,0.1-0.1,0.3,0,0.5
		C54.4,2,54.7,2,54.9,1.8"/>
	<path id="path4146" class="st0" d="M66.6,28.1c0.3-0.1,0.4-0.2,0.7-0.2c0.3,0,0.5,0.2,0.9,0.1c0.4-0.1,0.6-0.2,0.8-0.5
		c0.2-0.2,0.2-0.4,0.3-0.6c0.2-0.4,0.3-0.7,0.5-1.1c0.2-0.4,0.3-0.5,0.5-0.9c0.2-0.3,0.3-0.5,0.5-0.8l0.1-0.1
		c-0.3-0.2-0.3-0.4-0.5-0.7c-0.2-0.3-0.1-0.7-0.5-0.9c-0.3-0.1-0.5,0.1-0.8,0c-0.2-0.1-0.3-0.3-0.5-0.4c-0.3-0.2-0.6,0-0.9-0.1
		c-0.3-0.2-0.2-0.4-0.5-0.6C67,21,66.9,21,66.7,20.9l0,0.2c-0.1,0.3-0.2,0.5-0.3,0.7c-0.1,0.2-0.2,0.4-0.3,0.6
		c-0.3,0.7-0.3,1.2-0.1,1.9c0.1,0.4,0.4,0.6,0.5,1.1c0.1,0.4,0.2,0.6,0.1,0.9c-0.1,0.3-0.2,0.4-0.4,0.7c-0.2,0.3-0.3,0.5-0.5,0.9
		h-0.1c0.2,0.1,0.3,0.3,0.5,0.3C66.2,28.3,66.3,28.2,66.6,28.1"/>
	<path id="path4148" class="st0" d="M56.6,15.3c-0.2-0.1-0.3-0.2-0.5-0.2c-0.4-0.1-0.7,0.3-1.1,0.1c-0.3-0.1-0.5-0.2-0.5-0.5
		c-0.1-0.3,0.4-0.4,0.5-0.7c0.1-0.3,0.2-0.6,0.1-0.9c-0.1-0.3-0.4-0.4-0.7-0.5c-0.2-0.1-0.4-0.2-0.7-0.2c-0.3,0-0.5,0-0.9,0.1
		l0.1-0.1c-0.1,0-0.2,0.1-0.3,0.1c-0.2,0-0.3-0.2-0.3-0.3c-0.1-0.3,0-0.5,0.1-0.7c0.2-0.3,1,0,0.9-0.4c-0.1-0.2-0.3-0.3-0.5-0.4
		c-0.2-0.1-0.3-0.2-0.5-0.2c-0.4,0-0.5,0.2-0.9,0.3c-0.2,0.1-0.3,0.2-0.5,0.3c-0.3,0.1-0.6-0.1-0.9,0c-0.2,0.1-0.3,0.2-0.5,0.3
		c-0.2,0.1-0.5,0-0.7,0.2c-0.2,0.2-0.1,0.5-0.4,0.7c-0.4,0.2-0.7-0.2-1.1-0.3c-0.4-0.2-0.5-0.3-0.9-0.5c-0.2-0.1-0.2-0.2-0.4-0.3
		c-0.3-0.1-0.6,0-0.9,0c-0.5,0-0.8,0.1-1.3,0.1c-0.6,0-1.2,0.3-1.5-0.1c-0.2-0.3,0-0.5-0.1-0.8c-0.1-0.2-0.1-0.3-0.3-0.5
		c-0.3-0.2-0.5-0.2-0.9-0.2c-0.4,0-0.7,0.2-0.9,0c-0.3-0.3,0.3-0.7,0-1.1c-0.2-0.2-0.3-0.3-0.6-0.3c-0.3-0.1-0.8-0.1-0.8,0.2
		c0,0.3,0.3,0.3,0.5,0.5c0.1,0.2,0.3,0.3,0.3,0.5c0,0.2-0.3,0.2-0.5,0.3c-0.4,0.2-0.7,0-1.1,0.1c-0.3,0.1-0.4,0.3-0.7,0.5
		c-0.3,0.3-0.5,0.9-0.7,0.7c-0.2-0.2,0.1-0.5,0-0.7c-0.1-0.2-0.2-0.3-0.3-0.4l-0.2,0c-0.4,0.1-0.8,0-1.1,0.3
		c-0.3,0.3-0.2,0.6-0.3,0.9c-0.1,0.3-0.1,0.5-0.1,0.8c-0.1,0.4-0.1,0.6-0.3,0.9c-0.2,0.3-0.5,0.3-0.5,0.6c0,0.4,0.4,0.4,0.6,0.7
		c0.1,0.3,0.1,0.5,0.2,0.8c0.1,0.4,0.3,0.5,0.4,0.9c0.1,0.4,0,0.6,0,1c0.1,0.5,0,0.9,0.3,1.2c0.3,0.3,0.6,0.3,0.9,0.3
		c0.7,0.2,1.1-0.1,1.8,0c0.4,0.1,0.7,0,1,0.2c0.3,0.2,0.2,0.6,0.3,0.9c0,0.1,0.1,0.1,0.1,0.2c0.1,0.2,0.2,0.2,0.4,0.3
		c0.4,0.2,0.7,0,1.1,0c0.5,0,0.8,0.1,1.3,0c0.3,0,0.5-0.3,0.8-0.2c0.2,0.1,0.2,0.1,0.3,0.3c0.3,0.4-0.3,0.8-0.4,1.3
		c-0.1,0.4-0.2,0.7-0.3,1.1c-0.1,0.5-0.3,0.8-0.2,1.3c0.1,0.3,0.2,0.5,0.3,0.8c0.2,0.4,0.7,0.5,0.6,0.9c-0.1,0.4-0.6,0.3-0.7,0.7
		c-0.1,0.3,0.1,0.5,0.2,0.7c0.2,0.4,0.7,0.3,0.9,0.7c0.2,0.3,0.2,0.5,0.3,0.9c0.1,0.4,0,0.6,0.1,0.9c0.1,0.6,0.2,0.6,0.3,0.8
		l0.1,0.2c0.4,0.2,0.6,0.3,1,0.4c0.4,0.1,0.7,0.1,1.1,0c0.4-0.1,0.6-0.5,0.9-0.7c0.5-0.4,0.8-0.6,1.2-0.9c0.3-0.3,0.5-0.4,0.7-0.7
		c0.3-0.4,0.8-0.7,0.5-1.1c-0.2-0.4-0.9,0.2-1.2-0.1c-0.3-0.3,0-0.7-0.1-1.1c0-0.3,0-0.5-0.1-0.9c-0.2-0.5-1.1-0.8-0.7-1.1
		c0.2-0.1,0.3-0.1,0.5-0.1c0.3,0,0.5,0.1,0.9,0.2c0.3,0,0.4,0,0.7,0.1c0.2,0,0.3,0.1,0.5,0.1c0.3,0.1,0.3,0.5,0.7,0.5
		c0.4,0,0.4-0.6,0.7-0.8c0.2-0.1,0.3-0.1,0.5-0.1c0.4-0.1,0.6-0.3,0.9-0.4c0.2-0.1,0.4-0.1,0.6-0.2c0.3-0.2,0.4-0.3,0.6-0.5
		c0.2-0.2,0.3-0.4,0.5-0.7v-0.1c-0.2-0.4-0.3-0.7-0.4-1.1c-0.1-0.4-0.3-0.7-0.3-1.1c0-0.2-0.1-0.4-0.1-0.5c-0.1-0.2-0.1-0.5,0.1-0.7
		c0.3-0.3,0.6-0.1,0.9-0.3c0.2-0.1,0.4-0.1,0.5-0.3c0-0.2-0.3-0.2-0.4-0.5c-0.1-0.3,0-0.5,0.1-0.7c0.2-0.3,0.4-0.4,0.7-0.6
		c0.2-0.2,0.4-0.2,0.5-0.4c0.1-0.2,0-0.3,0-0.5V15.3"/>
	<path id="path4150" class="st0" d="M71.9,97.8c-0.3-0.3-0.2-0.6-0.4-0.9c-0.2-0.4-0.2-0.8-0.6-1c-0.2-0.1-0.4,0-0.6-0.1
		c-0.4-0.1-0.4-0.4-0.7-0.6C69.3,95,69.2,95,69,94.9c-0.3-0.1-0.5-0.2-0.7-0.4c-0.2-0.3-0.1-0.7-0.4-0.8c-0.3-0.1-0.5-0.1-0.7,0.1
		c-0.1,0.1-0.1,0.3-0.2,0.3c-0.2,0.1-0.2-0.4-0.3-0.6c-0.1-0.3-0.1-0.5-0.3-0.7c-0.2-0.2-0.4-0.2-0.6-0.3c-0.2-0.1-0.4-0.1-0.6-0.1
		c-0.3,0-0.4,0.1-0.7,0.1L64,92.4l-0.1,0.3c-0.1,0.1-0.2,0.2-0.3,0.3c0,0.2,0.1,0.3,0.1,0.5c0.1,0.5-0.1,0.7-0.1,1.2
		c0,0.3,0.1,0.5,0.1,0.9c0,0.5-0.2,0.7-0.1,1.2c0.1,0.3,0.3,0.4,0.3,0.7c0,0.3,0,0.4,0,0.7c0,0.3-0.2,0.5-0.2,0.8
		c0,0.3,0,0.4,0.1,0.7c0.1,0.3,0.2,0.5,0.3,0.7l0.3-0.1c0.3-0.1,0.4,0.2,0.6,0.3c0.1,0.1,0.2,0.3,0.3,0.3c0.2,0.1,0.3,0,0.5,0.1
		c0.2,0,0.4,0.1,0.6,0.1l0.9,0.4c0.2,0.2,0.3,0.4,0.6,0.5c0.3,0.1,0.5-0.1,0.8-0.2c0.2-0.1,0.3-0.3,0.5-0.3c0.2,0,0.3,0.1,0.5,0.2
		c0.2,0.1,0.3,0.2,0.5,0.3c0.4,0.1,0.5-0.4,0.9-0.6c0.2-0.1,0.4-0.2,0.6-0.3c0.3-0.2,0.5-0.3,0.6-0.7c0.1-0.3-0.1-0.5,0-0.7
		c0.1-0.4,0.5-0.5,0.7-0.8c0.2-0.2,0.3-0.4,0.4-0.6l-0.1,0C72.7,98.1,72.3,98.2,71.9,97.8"/>
	<path id="path4216" class="st0" d="M39.6,54.3c0.1,0,0.1,0,0.2,0c0,0,0,0,0,0H39.6"/>
	<path id="path4218" class="st0" d="M61.2,67.7c-0.1-0.2-0.1-0.4-0.3-0.6c-0.3-0.3-0.7,0-1-0.3c-0.2-0.3-0.2-0.5-0.2-0.9
		c0-0.3,0.3-0.4,0.2-0.7c-0.1-0.2-0.4-0.1-0.7-0.1c-0.7-0.1-1-0.1-1.7-0.1l-0.8-0.3c0-0.1,0-0.1,0-0.2c0-0.2,0-0.3,0-0.5
		c0-0.3,0-0.5-0.1-0.8c-0.2-0.3-0.6-0.2-0.7-0.5c-0.2-0.4,0.3-0.8,0.2-1.3c0-0.2-0.1-0.3-0.2-0.5c-0.1-0.3,0-0.5-0.1-0.8
		c-0.1-0.3-0.3-0.4-0.5-0.5c-0.3-0.1-0.4-0.1-0.7-0.2c-0.3-0.1-0.6,0.1-0.9-0.1c-0.3-0.1-0.3-0.3-0.5-0.5c-0.2-0.2-0.4-0.3-0.7-0.4
		c-0.4-0.2-0.6-0.2-1-0.5c-0.3-0.2-0.4-0.4-0.7-0.5c-0.2-0.1-0.4-0.1-0.7-0.1c-0.2,0-0.4,0.2-0.6,0.1c-0.3,0-0.4-0.1-0.6-0.3
		c-0.2-0.2-0.2-0.4-0.4-0.6c-0.3-0.2-0.6-0.1-0.9-0.3c-0.2-0.3-0.1-0.6-0.2-0.9c-0.1-0.4-0.1-0.7-0.1-1.1c0-0.4-0.1-0.7-0.1-1.1
		c0-0.3,0-0.5,0-0.9c0-0.2,0.1-0.4-0.1-0.5c-0.2-0.1-0.2,0.1-0.4,0.2c-0.3,0.1-0.4,0.2-0.7,0.2c-0.2,0-0.3,0-0.5,0
		c-0.4,0-0.6,0.1-0.9,0.3c-0.3,0.2-0.3,0.5-0.5,0.7c-0.1,0.1-0.2,0.1-0.3,0.2c-0.3,0.2-0.7,0-0.9,0.2c-0.1,0.1-0.2,0.2-0.3,0.3
		c-0.2,0.2-0.3,0.4-0.6,0.5c-0.4,0.2-0.7,0-1.1-0.1c-0.3,0-0.5,0-0.8-0.1c0.2,0.3,0.5,0.4,0.6,0.8c0.1,0.3,0,0.5,0.1,0.7
		c0.1,0.4,0.4,0.5,0.5,0.9c0.1,0.3,0.1,0.5,0.1,0.9c0.1,0.5,0.1,0.8,0.1,1.3c0,0.3-0.1,0.5-0.1,0.8c0,0.3,0.1,0.6,0.2,0.9
		c0.1,0.3,0.4,0.4,0.4,0.7c0,0.3-0.4,0.3-0.6,0.5c-0.2,0.3-0.5,0.5-0.5,0.9c0,0.4,0.3,0.5,0.5,0.9c0.1,0.3,0.3,0.4,0.3,0.7
		c0,0.1,0,0.2,0.1,0.3c0,0,0,0.1,0,0.1c0,0.1,0,0.1,0,0.2c0,0,0,0.1,0,0.1c0,0,0,0,0,0c0,0,0,0-0.1,0l0.1,0.1c0,0.2-0.1,0.3-0.1,0.6
		c-0.1,0.4-0.3,0.5-0.6,0.8l0.2-0.2c0.4,0.2,0.4,0.2,0.7,0.5c0.2,0.2,0.4,0.5,0.5,0.7c0.2,0.2,0.7,0.6,1,0.9
		c0.3,0.2,0.6,0.6,0.9,0.8c0.6,0.3,0.3,0.2,0.5,0.8c0.2,0.7,0.2,0.1,0.3,0.9c0,0.4,0.2,0.7,0.4,1c0.1,0.3,0.5,0.2,0.7,0.4
		c0.2,0.3,0.3,0.2,0.3,0.6c0.1,0.4,0,0.7-0.1,1.1c-0.1,0.3-0.1,0.5-0.2,0.7c-0.1,0.4-0.3,0.6-0.3,1c0,0.4,0.1,0.5,0.3,0.9
		c0.1,0.3,0.2,0.5,0.3,0.7l0.1-0.1c0.1-0.1,0.2-0.2,0.3-0.4c0.1-0.1,0.2-0.2,0.4-0.3c0.3-0.2,0.5-0.2,0.8-0.2c0.4,0,0.6,0.3,0.9,0.4
		c0.3,0.1,0.6,0.2,0.9,0.3c0.2,0.1,0.3,0.4,0.5,0.3c0.2-0.1,0.2-0.3,0.3-0.4c0.2-0.3,0.4-0.5,0.7-0.6c0.3-0.1,0.4-0.1,0.7-0.1
		c0.3,0,0.5,0,0.8,0.1c0.2,0.1,0.2,0.2,0.3,0.4l0.2-0.1c0-0.2,0-0.3,0-0.5c0-0.3,0-0.5,0.1-0.7c0-0.5,0-0.8,0.1-1.3
		c0.1-0.6,0.1-0.9,0.3-1.4c0.2-0.4,0.3-0.6,0.7-0.8c0.3-0.2,0.5-0.2,0.8-0.3c0.5-0.2,0.8-0.3,1.3-0.5c0.3-0.1,0.5-0.2,0.9-0.2
		c0.6-0.1,0.9,0,1.5,0.2c0.4,0.1,0.6,0.2,0.9,0.4c0.3,0.2,0.4,0.5,0.7,0.7l-0.1,0.1c0.3,0,0.5,0.2,0.7,0c0.1-0.2-0.2-0.4-0.3-0.6
		c-0.1-0.4,0.2-0.7,0.3-1.1c0.1-0.5,0.1-0.8,0.1-1.3c0-0.4,0.3-0.6,0.1-0.9C61.6,68,61.4,68,61.2,67.7"/>
	<path id="path4310" class="st0" d="M54,12.3c0.2,0,0.3,0.1,0.5,0c0.2-0.1,0-0.3,0.1-0.5c0.1-0.2,0.4-0.2,0.4-0.5
		c0-0.2,0-0.4-0.1-0.5c-0.2-0.1-0.3-0.1-0.5,0c-0.2,0.1-0.4,0.1-0.5,0.3c-0.1,0.2,0.2,0.3,0.1,0.5c0,0.2-0.5,0.2-0.4,0.5
		C53.6,12.2,53.8,12.2,54,12.3"/>
	<path id="path4320" class="st0" d="M99.5,44.6c-0.1-0.4,0-0.7-0.1-1.1c-0.1-0.2-0.2-0.3-0.4-0.5c-0.3-0.3-0.5-0.5-0.9-0.6
		c-0.4-0.1-0.6,0-1,0c-0.5,0-0.8,0.1-1.1-0.2c-0.2-0.1-0.1-0.3-0.3-0.5c-0.2-0.2-0.5,0-0.7-0.1c-0.2-0.1-0.2-0.3-0.3-0.5
		c0,0,0-0.1-0.1-0.1c-0.2-0.3-0.3-0.4-0.5-0.7c-0.2-0.2-0.2-0.3-0.4-0.5c-0.3-0.3-0.5-0.4-0.8-0.6c-0.3-0.2-0.4-0.4-0.7-0.5
		c-0.2-0.2-0.5-0.1-0.7-0.3c-0.2-0.2-0.1-0.4-0.3-0.6c-0.3-0.2-0.6-0.1-0.9,0c-0.4,0.1-0.6,0.2-0.9,0.3c-0.4,0.1-0.7,0.2-1.1,0.1
		c-0.3,0-0.5-0.1-0.7-0.2c-0.3-0.1-0.4-0.2-0.7-0.3c-0.3-0.1-0.5-0.1-0.8-0.2c-0.4-0.1-0.5-0.4-0.9-0.4c-0.1,0-0.2,0-0.3,0.1
		c-0.5,0.1-0.7,0.2-1.1,0.4c-0.2,0.1-0.3,0.3-0.5,0.3c-0.3-0.1,0.3-0.3,0.3-0.6c0.1-0.3,0.1-0.5-0.1-0.7c-0.1-0.2-0.3-0.3-0.5-0.5
		c-0.2-0.2-0.2-0.4-0.4-0.5c-0.3-0.2-0.5-0.1-0.8-0.3c-0.2-0.2-0.2-0.3-0.4-0.5c-0.4-0.3-0.8,0-1.3-0.2c-0.3-0.2-0.3-0.4-0.6-0.5
		c-0.3-0.1-0.5,0-0.7-0.1c-0.3-0.1-0.4-0.2-0.7-0.2c-0.4,0-0.6-0.1-0.9,0.1c-0.2,0.1-0.2,0.3-0.3,0.5c-0.2,0.3-0.2,0.6-0.5,0.9
		c-0.2,0.2-0.4,0.3-0.6,0.5c-0.2,0.2-0.2,0.3-0.4,0.4c-0.2,0.1-0.3,0.2-0.5,0.3c-0.2,0-0.3,0-0.4-0.1c-0.1-0.1,0-0.3,0-0.5l-0.1,0.1
		c0.1-0.2,0.2-0.3,0.3-0.4c0.2-0.1,0.4,0,0.6-0.1c0.3-0.1,0.4-0.4,0.6-0.7c0.2-0.3,0.2-0.6,0.4-0.9c0.1-0.3,0.4-0.4,0.3-0.7
		c-0.1-0.2-0.1-0.2-0.3-0.3c-0.3-0.2-0.5,0-0.9-0.1c-0.3,0-0.4-0.1-0.7-0.1c-0.3,0-0.5,0.1-0.8,0.1c-0.3,0-0.5,0-0.9,0
		c-0.2,0-0.4-0.1-0.6,0.1c-0.2,0.1-0.2,0.3-0.3,0.5c-0.1,0.4,0,0.7,0,1.1c0,0.2,0.1,0.4-0.1,0.5c-0.2,0.2-0.5,0-0.7,0.1
		c-0.2,0.1-0.2,0.2-0.4,0.3c-0.2,0.2-0.3,0.3-0.5,0.4c-0.3,0.1-0.5-0.1-0.7-0.1c-0.3,0,0.3-0.3,0.5-0.5c0.2-0.2,0.2-0.3,0.4-0.5
		c0.2-0.2,0.4-0.2,0.5-0.5c0.2-0.3,0.2-0.5,0.3-0.9c0.2-0.4,0.2-0.6,0.5-0.9c0.3-0.3,0.6-0.2,0.8-0.5c0.1-0.1,0.1-0.2,0.1-0.2
		c0.1-0.2,0.1-0.4,0.2-0.6c0.2-0.4,0.6-0.5,0.7-0.9c0.1-0.3,0.3-0.6,0.1-0.9c-0.1-0.2-0.4-0.2-0.6-0.3c-0.4-0.2-0.7-0.1-0.9-0.4
		c-0.1-0.3,0-0.5-0.1-0.7c0-0.4,0-0.7-0.1-1c0-0.1-0.1-0.3-0.2-0.5c-0.1-0.2-0.3-0.3-0.4-0.5c-0.2-0.4-0.1-0.7-0.1-1.1
		c0-0.2,0.1-0.4,0-0.6C71.3,24,71,24.2,70.8,24l-0.1,0.1c-0.2,0.3-0.3,0.5-0.5,0.8c-0.2,0.3-0.3,0.5-0.5,0.9
		c-0.2,0.4-0.3,0.7-0.4,1.1c0,0,0,0.1,0,0.1c-0.1,0.2-0.1,0.4-0.3,0.6c-0.2,0.3-0.4,0.5-0.8,0.5c-0.3,0.1-0.5-0.2-0.9-0.1
		c-0.3,0-0.4,0.1-0.7,0.2c-0.2,0-0.4,0.1-0.6,0.1c-0.2-0.1-0.3-0.2-0.5-0.3c-0.2-0.1-0.4-0.2-0.6-0.3c-0.3-0.1-0.5-0.2-0.8-0.1
		c-0.3,0.1-0.3,0.3-0.5,0.5c-0.2,0.1-0.3,0-0.5,0.1c-0.2,0.2,0,0.4-0.2,0.6c-0.2,0.2-0.3,0.2-0.5,0.3l0.2-0.1
		c-0.5-0.1-0.7-0.5-1.2-0.3c-0.3,0.1-0.4,0.2-0.6,0.3c-0.4,0.2-0.5,0.5-0.9,0.6c-0.3,0.1-0.6-0.1-0.9,0.1c-0.2,0.1-0.2,0.5-0.5,0.5
		c-0.2,0-0.3-0.1-0.5-0.2c-0.3-0.1-0.5-0.1-0.7-0.3c-0.3-0.2-0.4-0.4-0.5-0.7c-0.1-0.3,0.1-0.7-0.1-0.9c-0.1-0.1-0.3-0.1-0.5-0.2
		c-0.2-0.2-0.1-0.5,0-0.8c0-0.1,0.1-0.2,0.1-0.3c0-0.4-0.1-0.6,0.1-0.9c0.1-0.2,0.2-0.3,0.3-0.5c0.2-0.2,0.5-0.3,0.5-0.6
		c0-0.3-0.3-0.3-0.5-0.5c-0.2-0.2-0.4-0.4-0.5-0.7c-0.1-0.3,0.1-0.5,0.1-0.8c0-0.2,0-0.3-0.1-0.5c-0.2-0.3-0.5,0.1-0.9,0.1l-0.1,0.2
		c-0.2,0.3-0.3,0.4-0.5,0.7c-0.2,0.2-0.3,0.4-0.6,0.5c-0.2,0.1-0.4,0.1-0.6,0.2c-0.4,0.1-0.6,0.3-0.9,0.4c-0.2,0.1-0.3,0-0.5,0.1
		c-0.4,0.2-0.3,0.8-0.7,0.8c-0.3,0-0.4-0.4-0.7-0.5c-0.2-0.1-0.3-0.1-0.5-0.1c-0.3-0.1-0.4,0-0.7-0.1c-0.3-0.1-0.5-0.2-0.9-0.2
		c-0.2,0-0.3,0-0.5,0.1c-0.4,0.2,0.5,0.6,0.7,1.1c0.1,0.3,0.1,0.5,0.1,0.9c0,0.2,0,0.4-0.1,0.6c0,0.2,0,0.4,0.1,0.6
		c0.3,0.4,1-0.3,1.2,0.1c0.2,0.4-0.2,0.7-0.5,1.1c-0.2,0.3-0.4,0.4-0.7,0.7c-0.5,0.4-0.7,0.6-1.2,0.9c-0.4,0.3-0.5,0.6-0.9,0.7
		c-0.4,0.1-0.7,0.1-1.1,0c-0.4-0.1-0.6-0.2-1-0.4c-0.3-0.1-0.6-0.1-0.8-0.3c-0.2-0.2-0.1-0.4-0.2-0.7c-0.1-0.4,0-0.9-0.5-1
		c-0.3-0.1-0.5,0.2-0.7,0.3L40.6,29c-0.5-0.1-0.8-0.4-1.3-0.1c-0.2,0.1-0.3,0.2-0.4,0.3c-0.3,0.3-0.5,0.7-0.3,1
		c0.2,0.3,0.6,0,0.7,0.3c0.1,0.2,0.2,0.4,0.1,0.6c-0.2,0.3-0.6,0-0.9,0.2c-0.1,0.1-0.2,0.2-0.3,0.3c0,0-0.1,0.1-0.1,0.2
		c-0.1,0.3-0.1,0.5,0,0.9c0.1,0.3,0.4,0.4,0.5,0.7c0.2,0.4,0.2,0.7,0.3,1.2c0.1,0.5,0.1,0.7,0.1,1.2c0,0.6,0.2,0.9,0.1,1.4
		c-0.1,0.4-0.2,0.5-0.3,0.9c-0.1,0.4,0,0.7-0.1,1.1c-0.1,0.4-0.4,0.6-0.3,0.9c0,0.2,0.2,0.3,0.1,0.5c-0.1,0.3-0.5,0.1-0.7,0.1
		c-0.2,0-0.2,0-0.4-0.1l-0.1,0.1c-0.1,0.2-0.1,0.3-0.3,0.4c0,0,0,0-0.1,0c-0.2,0.1-0.3,0-0.5,0c-0.1,0-0.2-0.1-0.3-0.1
		c-0.3,0-0.4-0.1-0.7,0c-0.1,0-0.1,0.1-0.2,0.1c-0.2,0.1-0.3,0.3-0.4,0.5c-0.2,0.2-0.2,0.4-0.5,0.5c-0.3,0.1-0.6-0.2-0.8,0
		c-0.2,0.2,0,0.5,0,0.7c0,0.4-0.2,0.6-0.3,0.9c-0.2,0.5-0.1,0.8-0.5,1.2c-0.2,0.2-0.4,0.2-0.5,0.4c-0.3,0.4-0.1,0.8-0.2,1.3
		c0,0.3-0.2,0.4-0.1,0.7c0.1,0.3,0.3,0.4,0.5,0.7c0.1,0.2,0.2,0.3,0.3,0.5c0.1,0.3,0,0.5,0.2,0.8c0.1,0.2,0.3,0.3,0.5,0.5
		c0.1,0.1,0.2,0.2,0.2,0.3c0,0.2-0.4,0.3-0.3,0.5c0.1,0.2,0.4,0.1,0.6,0.1c0.3,0.1,0.5,0,0.7,0.2c0.2,0.2,0.2,0.5,0.4,0.7
		c0.3,0.2,0.6,0.2,0.9,0.3c0.3,0,0.4,0.1,0.7,0c0.3-0.1,0.4-0.3,0.6-0.5c0,0,0.5-0.2,0.3,0.7c-0.1,0.4,0.1,0.7,0.1,1.1
		c0,0.3-0.3,0.6-0.1,0.9c0.2,0.3,0.5,0,0.9,0c0.2,0,0.3-0.1,0.5-0.1c0.3,0,0.4,0.1,0.7,0.1h-0.1c0.4,0,0.6,0,1,0.1
		c0.4,0,0.7,0.2,1.1,0.1c0.3-0.1,0.4-0.3,0.6-0.5c0.1-0.1,0.1-0.2,0.3-0.3c0.3-0.2,0.6,0,0.9-0.2c0.1-0.1,0.2-0.1,0.3-0.2
		c0.3-0.2,0.3-0.5,0.5-0.7c0.3-0.2,0.5-0.3,0.9-0.3c0.2,0,0.3,0,0.5,0c0.3,0,0.5-0.1,0.7-0.2c0.2-0.1,0.2-0.3,0.4-0.2
		c0.2,0.1,0,0.3,0.1,0.5c0,0.3,0,0.5,0,0.9c0,0.4,0,0.7,0.1,1.1c0,0.4,0.1,0.7,0.1,1.1c0.1,0.4,0,0.7,0.2,0.9
		c0.2,0.3,0.6,0.1,0.9,0.3c0.2,0.2,0.2,0.4,0.4,0.6c0.2,0.2,0.3,0.2,0.6,0.3c0.2,0,0.4-0.1,0.6-0.1c0.3,0,0.4,0,0.7,0.1
		c0.3,0.1,0.4,0.4,0.7,0.5c0.4,0.2,0.6,0.3,1,0.5c0.3,0.1,0.4,0.2,0.7,0.4c0.2,0.2,0.3,0.4,0.5,0.5c0.3,0.1,0.5,0,0.9,0.1
		c0.3,0.1,0.5,0.1,0.7,0.2c0.3,0.1,0.4,0.3,0.5,0.5c0,0,0,0.1,0,0.1c0.1,0.2,0,0.4,0.1,0.7c0.1,0.2,0.2,0.3,0.2,0.5
		c0.1,0.5-0.4,0.8-0.2,1.3c0.2,0.3,0.6,0.2,0.7,0.5c0.2,0.3,0.1,0.5,0.1,0.8c0,0.3,0,0.4,0,0.7l0.8,0.3c0.7,0.1,1,0,1.7,0.1
		c0.3,0,0.5-0.1,0.7,0.1c0.1,0.2-0.2,0.4-0.2,0.7c0,0.3,0,0.6,0.2,0.9c0.3,0.3,0.7,0,1,0.3c0.2,0.2,0.1,0.4,0.3,0.6
		c0.1,0.2,0.3,0.3,0.4,0.5c0.1,0.4-0.1,0.6-0.1,0.9c-0.1,0.5,0,0.8-0.1,1.3c-0.1,0.5-0.4,0.7-0.3,1.1c0,0.3,0.4,0.4,0.3,0.6
		c-0.1,0.2-0.4,0-0.7,0l0.1,0.3c0.1,0.6,0.3,0.9,0.2,1.4c0,0.2-0.2,0.4-0.2,0.6c0,0.3,0.2,0.4,0.4,0.7c0.1,0.2,0.2,0.2,0.3,0.4
		c0.1,0.2-0.2,0.4-0.1,0.6c0.1,0.3,0.6,0.1,0.9,0.1c0.3,0,0.4,0,0.7,0c0.4,0,0.6-0.1,1,0c0.2,0,0.3,0.1,0.5,0.1
		c0.3,0.1,0.6,0,0.9,0.2c0.3,0.3,0.1,0.6,0.1,0.9c0,0.4,0,0.6,0,0.9c0,0.3,0,0.5,0,0.7c0,0.2,0.1,0.4,0.3,0.5
		c0.2,0.2,0.4,0.2,0.7,0.2c0.3,0,0.4-0.1,0.7-0.1c0.2,0,0.4,0,0.5,0.1c0.3,0.2,0.2,0.5,0.3,0.8c0.1,0.4,0.1,0.6,0.1,1
		c-0.1,0.4-0.3,0.6-0.3,0.9c0,0.3-0.1,0.5,0,0.8l0.3-0.1c0.3,0,0.5-0.1,0.8,0.1c0.2,0.1,0.3,0.1,0.5,0.3c0.2,0.2,0,0.5,0.1,0.7
		c0,0.4,0.1,0.7,0.1,1.1c0,0.3,0,0.4-0.1,0.7c-0.2,0.4-0.5,0.4-0.9,0.5c-0.2,0.1-0.4,0-0.5,0.1c-0.2,0.1-0.1,0.4-0.3,0.5
		c-0.1,0.2-0.3,0.2-0.5,0.4c-0.2,0.2-0.3,0.2-0.5,0.4c-0.3,0.3-0.3,0.5-0.5,0.8c-0.2,0.2-0.3,0.3-0.4,0.5c-0.2,0.3-0.2,0.5-0.3,0.7
		c-0.2,0.3-0.3,0.4-0.5,0.6l-0.5,0.8c-0.2,0.2-0.4,0.4-0.6,0.6l0.5,0.3c0.3-0.1,0.4-0.1,0.7-0.1c0.2,0,0.4,0,0.6,0.1
		c0.3,0.1,0.4,0.1,0.6,0.3c0.2,0.2,0.2,0.4,0.3,0.7c0.1,0.2,0,0.7,0.3,0.6c0.1-0.1,0.1-0.2,0.2-0.3c0.2-0.2,0.5-0.2,0.7-0.1
		c0.3,0.1,0.2,0.6,0.4,0.8c0.2,0.2,0.4,0.3,0.7,0.4c0.2,0.1,0.3,0.1,0.5,0.3c0.3,0.2,0.4,0.5,0.7,0.6c0.2,0.1,0.4,0,0.6,0.1
		c0.4,0.2,0.4,0.6,0.6,1c0.2,0.4,0.1,0.6,0.4,0.9c0.4,0.4,0.8,0.4,1.3,0.6l0.1,0c0.1-0.2,0.2-0.4,0.3-0.6c0.1-0.4,0.1-0.7,0.3-1.1
		c0.1-0.4,0.1-0.6,0.4-0.9c0.2-0.2,0.5,0,0.7-0.2c0.2-0.2,0.1-0.3,0.2-0.5c0.2-0.3,0.5-0.3,0.7-0.7c0.2-0.4,0.1-0.6,0.2-1
		c0.1-0.4,0.1-0.7,0.3-1.1c0.1-0.3,0.2-0.5,0.3-0.9c0.2-0.4,0.4-0.7,0.7-1.1c0.2-0.3,0.2-0.4,0.4-0.7c0.3-0.5,0.6-0.6,0.7-1.1
		c0.2-0.6,0-1.1,0-1.8c0-0.3,0.1-0.5,0-0.7c-0.1-0.4-0.4-0.5-0.5-0.8c-0.2-0.6-0.2-1.1,0.1-1.7c0.1-0.2,0.2-0.3,0.4-0.5
		c0.2-0.3,0.4-0.4,0.6-0.6c0.2-0.2,0.4-0.3,0.6-0.5s0.4-0.3,0.6-0.5c0.3-0.3,0.3-0.6,0.6-0.8c0.3-0.2,0.5-0.3,0.9-0.4
		c0.4-0.1,0.7,0.1,1.1-0.1c0.4-0.2,0.4-0.4,0.7-0.7c0,0,0.1-0.1,0.1-0.1c0.2-0.1,0.3-0.2,0.5-0.4c0.3-0.2,0.4-0.3,0.7-0.5
		c0.3-0.1,0.4-0.1,0.7-0.2c0.6-0.1,0.9,0,1.5,0c0.5,0,0.9,0.2,1.3-0.1c0.2-0.1,0.2-0.3,0.3-0.5c0.1-0.2,0.2-0.3,0.3-0.4
		c0.2-0.3,0.3-0.4,0.5-0.6c0.2-0.2,0.4-0.2,0.6-0.4c0.3-0.3,0.1-0.7,0.2-1.1c0.1-0.4-0.2-0.8,0.1-1.1c0.2-0.2,0.4-0.1,0.6-0.3
		c0.2-0.1,0.3-0.3,0.3-0.5c0.2-0.4-0.2-0.7,0-1c0.1-0.2,0.2-0.3,0.4-0.4c0.2-0.2,0.4-0.2,0.6-0.3c0.6-0.5,0-1.2,0-2
		c0-0.5-0.2-0.8,0.1-1.3c0.2-0.3,0.5-0.3,0.6-0.6c0.1-0.4-0.2-0.6-0.2-1c0-0.3-0.1-0.6,0.1-0.9c0.1-0.2,0.3-0.3,0.4-0.5
		c0.3-0.5-0.1-0.9-0.2-1.5c0-0.4,0-0.6-0.1-0.9c0-0.4,0-0.6-0.1-1c-0.1-0.4-0.3-0.5-0.3-0.9c0-0.3,0.2-0.5,0.3-0.7
		c0-0.1,0-0.1,0-0.2c0-0.4-0.3-0.5-0.3-0.9c0-0.4,0.1-0.7,0.4-0.9c0.2-0.2,0.4-0.2,0.6-0.3c0.2-0.1,0.4-0.1,0.6-0.2
		c0.3-0.2,0.2-0.5,0.4-0.8c0.1-0.2,0.2-0.2,0.3-0.4c0.2-0.3,0.2-0.6,0.4-0.9c0.2-0.5,0.4-0.8,0.6-1.3c0.1-0.2,0.1-0.4,0.3-0.5
		c0.2-0.1,0.3,0,0.5-0.1c0.3-0.1,0.3-0.5,0.5-0.7c0.3-0.4,0.4-0.6,0.7-1c0.3-0.4,0.5-0.5,0.7-0.9c0.2-0.2,0.3-0.3,0.4-0.5
		c0.1-0.3,0-0.5,0.1-0.9c0-0.4,0-0.7,0.1-1.1c0.1-0.4,0.2-0.5,0.3-0.9c0.1-0.5,0.3-0.7,0.3-1.2c0-0.4-0.2-0.6-0.3-0.9
		C99.7,45.2,99.6,45,99.5,44.6"/>
	<path id="path4576" class="st0" d="M43.3,29.6c0.1,0.3,0,0.5,0.2,0.7c0.2,0.3,0.5,0.2,0.8,0.3l-0.1-0.2c-0.1-0.3-0.2-0.5-0.3-0.8
		c-0.1-0.4-0.1-0.6-0.1-0.9c-0.1-0.3-0.1-0.6-0.3-0.9c-0.2-0.4-0.7-0.3-0.9-0.7c-0.1-0.3-0.3-0.4-0.2-0.7c0.1-0.4,0.6-0.3,0.7-0.7
		c0.1-0.4-0.4-0.6-0.6-0.9c-0.1-0.2-0.2-0.3-0.2-0.4c0-0.1-0.1-0.2-0.1-0.4c-0.1-0.5,0.1-0.8,0.2-1.3c0.1-0.4,0.2-0.7,0.3-1.1
		c0.1-0.5,0.7-0.9,0.4-1.3c-0.1-0.1-0.2-0.2-0.3-0.3c-0.3-0.1-0.5,0.2-0.8,0.2c-0.5,0.1-0.8,0-1.3,0c-0.4,0-0.7,0.2-1.1,0
		c-0.2-0.1-0.3-0.2-0.4-0.3c-0.3-0.3-0.1-0.8-0.5-1.1c-0.3-0.2-0.6-0.2-1-0.2c-0.7-0.1-1.1,0.2-1.8,0c-0.4-0.1-0.7-0.1-0.9-0.3
		c-0.4-0.3-0.3-0.7-0.3-1.2c0-0.4,0.1-0.6,0-1c-0.1-0.4-0.3-0.5-0.4-0.9c-0.1-0.3-0.1-0.5-0.2-0.8c-0.2-0.3-0.6-0.3-0.6-0.7
		c0-0.3,0.4-0.3,0.5-0.6c0.2-0.3,0.2-0.5,0.3-0.9c0.1-0.3,0.1-0.5,0.1-0.8c0.1-0.4,0-0.7,0.3-0.9c0.3-0.3,0.7-0.2,1.1-0.3l0.2,0
		c0-0.1-0.1-0.1-0.1-0.2c0-0.1,0.1-0.2,0.2-0.3c0.2-0.2,0.3-0.1,0.5-0.3c0.3-0.2,0.7-0.3,0.7-0.7c0-0.2,0.1-0.4-0.1-0.5
		c-0.2-0.2-0.4-0.1-0.7-0.1c-0.3,0-0.6,0-0.8,0.3c-0.2,0.2,0,0.5-0.2,0.7c-0.3,0.3-0.6,0-1,0.1c-0.4,0.2-0.4,0.5-0.7,0.7
		c-0.4,0.2-0.7,0.2-1.1,0.3C32.3,10,32,9.8,31.7,10c-0.1,0.1-0.1,0.3-0.3,0.4c-0.2,0.1-0.3,0.1-0.5,0.2c-0.3,0.1-0.5,0-0.8,0.1
		c-0.3,0.1-0.4,0.2-0.6,0.4c-0.5,0.5-0.5,1-0.5,1.7c0,0.3,0.2,0.6,0,0.8c-0.2,0.3-0.6-0.1-0.9,0.1c-0.2,0.2-0.3,0.3-0.4,0.6
		c-0.1,0.3,0.1,0.4,0,0.7c-0.2,0.3-0.7,0-0.9,0.3c-0.1,0.2,0.2,0.5-0.1,0.7c-0.2,0.1-0.4-0.1-0.6-0.2v0.1c-0.1,0.3,0,0.5-0.1,0.7
		c-0.1,0.3-0.3,0.4-0.5,0.6c-0.2,0.1-0.3,0.2-0.5,0.3l-0.1,0.1c0.1,0,0.1,0.1,0.2,0.1c0.2,0.3,0,0.6,0.1,0.9
		c0.1,0.2,0.4,0.3,0.5,0.5c0.2,0.4-0.1,0.7-0.1,1.1c0,0.6,0.1,0.9,0.1,1.4c0,0.4,0.2,0.6,0,0.9c-0.1,0.2-0.3,0.3-0.5,0.5
		c-0.2,0.4-0.1,0.7-0.1,1c0,0.1,0,0.1,0,0.2c-0.1,0.7-0.2,1.1-0.3,1.8c0,0.5,0.3,0.9,0,1.2c-0.3,0.3-0.7,0-1.1,0.2
		c-0.4,0.3-0.5,0.7-0.6,1.2c0,0.2,0,0.3,0,0.5l-0.1,0.3c0.2,0.2,0.4,0.3,0.6,0.5c0.2,0.3,0.2,0.6,0.5,0.8c0.2,0.2,0.4,0.2,0.7,0.3
		c0.3,0.1,0.5,0.1,0.7,0.3c0.3,0.2,0.3,0.5,0.7,0.5c0.3,0.1,0.4,0,0.7-0.1c0.3-0.1,0.3-0.3,0.6-0.3c0.4,0,0.4,0.4,0.7,0.6
		c0.3,0.3,0.5,0.4,0.7,0.7l0.1-0.1c0.2,0,0.4-0.1,0.6,0c0.3,0.1,0.4,0.2,0.5,0.4c0.2,0.2,0.2,0.3,0.3,0.5c0.1,0.2,0.1,0.4,0.3,0.7
		c0.3,0.5,1.1,0.1,1.3,0.6c0.1,0.2,0.1,0.3,0.1,0.5c0.1,0.3,0.3,0.4,0.4,0.6c0.2,0.3,0.2,0.5,0.5,0.8c0.1,0.2,0.2,0.3,0.4,0.4
		c0.3,0.1,0.5,0,0.7,0c0.3,0,0.4,0.2,0.7,0.1c0.2-0.1,0.2-0.4,0.5-0.5c0.2-0.1,0.4,0.2,0.6,0.2c0.4,0,0.8-0.5,1-0.2
		c0.1,0.1,0,0.3,0.1,0.4c0.2,0.1,0.3,0.1,0.5,0.1c0.3,0,0.6-0.3,0.8,0c0.2,0.3-0.2,0.5-0.3,0.7c-0.1,0.3-0.2,0.4-0.4,0.7
		c-0.1,0.2-0.2,0.2-0.3,0.4c-0.1,0.2-0.1,0.4-0.1,0.6c0,0.4,0.1,0.5,0.2,0.9h0.1c0.2,0,0.2,0.1,0.4,0.1c0.3,0,0.6,0.2,0.7-0.1
		c0.1-0.2-0.1-0.3-0.1-0.5c0-0.4,0.2-0.6,0.3-0.9c0.1-0.4,0-0.7,0.1-1.1c0.1-0.4,0.3-0.5,0.3-0.9c0.1-0.5,0-0.9-0.1-1.4
		c0-0.5,0-0.7-0.1-1.2c-0.1-0.5-0.1-0.8-0.3-1.2c-0.2-0.3-0.4-0.4-0.5-0.7c-0.1-0.3-0.1-0.6,0-0.9c0.1-0.2,0.2-0.3,0.4-0.5
		c0.3-0.2,0.8,0.1,0.9-0.2c0.1-0.2,0.1-0.4-0.1-0.6c-0.2-0.3-0.6,0-0.7-0.3c-0.2-0.3,0-0.7,0.3-1c0.1-0.2,0.2-0.2,0.4-0.3
		c0.4-0.2,0.8,0.1,1.3,0.1l1.5-0.1c0.3-0.1,0.4-0.4,0.7-0.3C43.3,28.6,43.2,29.2,43.3,29.6"/>
	<path id="path4578" class="st0" d="M69.5,84.5c0-0.3,0.1-0.5-0.1-0.7c-0.1-0.2-0.3-0.2-0.5-0.3c-0.3-0.1-0.5,0-0.8-0.1l-0.3,0.1
		c0,0.1,0.1,0.2,0.1,0.3c0.1,0.3,0.1,0.6,0.1,0.9c0,0.3,0,0.5-0.1,0.8c-0.2,0.4-0.5,0.5-0.9,0.8c-0.3,0.2-0.5,0.3-0.7,0.5
		c-0.2,0.1-0.3,0.2-0.5,0.3c-0.4,0.2-0.7,0.1-1.1,0.1c-0.3,0-0.5,0-0.7-0.1c-0.4,0-0.6-0.1-1-0.1c-0.3,0-0.5,0.1-0.7,0.1
		c-0.2,0-0.3,0-0.5,0l0.1,0.3c-0.1-0.2-0.2-0.4-0.3-0.6c-0.1-0.4-0.1-0.6,0.1-0.9c0.1-0.2,0.3-0.2,0.5-0.3c0.3-0.4,0-0.8,0.1-1.3
		c0-0.2,0-0.4,0.1-0.6c0.1-0.2,0.3-0.3,0.3-0.5c0-0.3-0.1-0.5-0.3-0.7c-0.2-0.1-0.4-0.1-0.6-0.1c-0.4-0.1-0.5-0.3-0.9-0.5
		c-0.5-0.2-0.7-0.4-1.2-0.5c-0.3-0.1-0.5,0-0.7-0.1c-0.3-0.2-0.3-0.5-0.5-0.7c-0.4-0.4-0.8-0.5-1.2-0.8c-0.3-0.2-0.4-0.4-0.7-0.5
		c-0.8-0.5-1.8,0-2.2-0.8c-0.1-0.2,0-0.3-0.1-0.5c-0.1-0.2-0.3-0.3-0.5-0.5c-0.2-0.2-0.2-0.4-0.4-0.6v0.1c-0.1-0.2-0.2-0.3-0.3-0.4
		c-0.3-0.2-0.5-0.1-0.8-0.1c-0.3,0-0.5,0-0.7,0.1c-0.3,0.1-0.4,0.3-0.7,0.6c-0.1,0.2-0.1,0.4-0.3,0.4c-0.2,0.1-0.3-0.2-0.5-0.3
		c-0.3-0.2-0.5-0.2-0.9-0.3c-0.4-0.1-0.5-0.4-0.9-0.4c-0.3,0-0.5,0-0.8,0.2c-0.2,0.1-0.3,0.2-0.4,0.3c-0.1,0.1-0.2,0.2-0.3,0.4
		l0.4-0.3c0.1,0.8,0.2,1.3,0.2,2.1c0,0.4,0.1,0.6,0,0.9c-0.1,0.3-0.5,0.3-0.7,0.7c-0.2,0.4,0.2,0.7,0.2,1.2c0,0.4,0,0.7-0.1,1.1
		c-0.1,0.4-0.3,0.7-0.5,1.1c-0.2,0.4-0.3,0.6-0.5,1c-0.3,0.5-0.5,0.7-0.8,1.2c-0.4,0.7-0.6,1.1-1.1,1.8c-0.3,0.5-0.6,0.7-0.9,1.3
		c-0.3,0.7-0.2,1.3-0.2,2.1c0,0,0,0,0,0c0,0.9,0.2,1.4,0.3,2.2c0.1,0.9,0.2,1.4,0.3,2.2c0.1,0.8,0.3,1.2,0.4,2c0.1,0.7,0,1,0.1,1.7
		c0.1,0.8,0.5,1.2,0.6,2.1c0.1,0.5,0,0.9,0.1,1.4c0,0.4,0.4,0.8,0.1,1.1c-0.1,0.2-0.3,0.1-0.5,0.3c-0.4,0.4-0.2,0.8-0.3,1.3
		c0,0.2-0.1,0.5-0.1,0.7c0,0.3,0,0.5,0.1,0.8c0.2,0.3,0.4,0.3,0.6,0.5c0.4,0.5,1,0.8,0.9,1.4c-0.1,0.4-0.5,0.4-0.7,0.8
		c-0.5,0.9,0.1,1.5,0,2.5c0,0.3-0.1,0.5-0.1,0.8c0,0.5,0.3,0.8,0.4,1.3c0,0.2,0,0.4,0.1,0.6c0.1,0.3,0.1,0.5,0.3,0.7
		c0.1,0.3,0.2,0.4,0.3,0.7c0.2,0.5-0.1,0.9,0.2,1.3c0.2,0.3,0.5,0.3,0.7,0.6c0.2,0.3,0,0.6,0.1,0.9c0.2,0.4,0.5,0.4,0.7,0.7
		c0.1,0.3,0,0.6,0.2,0.7c0.2,0.2,0.6-0.2,0.7,0.1c0.1,0.2-0.4,0.3-0.6,0.4c-0.1,0-0.1,0.1-0.1,0.2c0,0.4,0.8,0.1,1,0.5
		c0.1,0.2,0,0.4,0,0.7c0,0.4,0,0.7,0.1,1.1c0.1,0.3,0.1,0.4,0.2,0.7c0.1,0.2,0.3,0.3,0.3,0.5c-0.1,0.2-0.5,0.1-0.5,0.3
		c-0.1,0.3,0.3,0.3,0.3,0.6c0.1,0.3,0.1,0.5,0.1,0.7c-0.1,0.3-0.3,0.3-0.3,0.6c-0.1,0.4,0.3,0.6,0.4,0.9c0.1,0.5,0.2,0.9-0.1,1.3
		c-0.2,0.4-0.8,0.3-0.8,0.7c0,0.3,0.2,0.4,0.3,0.7c0.1,0.3,0,0.7,0.3,0.9c0.3,0.2,0.7-0.2,0.9,0.1c0.2,0.2-0.2,0.6,0,0.8
		c0.2,0.3,0.5,0.1,0.9,0.1c0.2,0,0.3-0.1,0.5,0c0.2,0.1,0.3,0.2,0.5,0.3c0.2,0.3,0,0.6,0,0.9c0,0.2,0,0.4,0.1,0.6
		c0.2,0.2,0.4,0.1,0.6,0.2c0.3,0.2,0.4,0.4,0.7,0.6c0.7,0.3,1.3,0.4,2,0.1c0.2-0.1,0.2-0.2,0.4-0.3c0.5-0.2,0.9,0.2,1.4,0.3
		c0.3,0.1,0.5,0.2,0.9,0.3l0.8,0.4c0.2-0.3-0.1-0.5-0.3-0.7c-0.3-0.2-0.7,0.2-0.8-0.1c-0.1-0.1,0-0.3,0-0.4
		c-0.1-0.3-0.3-0.3-0.5-0.5c-0.1-0.2-0.2-0.3-0.3-0.5c-0.2-0.5-0.2-0.9,0-1.3c0.1-0.2,0.2-0.4,0.3-0.5c0.2-0.1,0.3-0.1,0.5-0.3
		c0.2-0.2,0.1-0.4,0.1-0.7c0-0.3-0.1-0.5-0.1-0.9c0-0.3-0.1-0.5,0.1-0.7c0.1-0.2,0.2-0.3,0.4-0.5c0.2-0.2,0.4-0.3,0.7-0.5
		c0.3-0.2,0.5-0.2,0.7-0.5c0.2-0.4,0.2-0.7,0.1-1.1c-0.1-0.2-0.1-0.3-0.2-0.5c-0.2-0.2-0.4-0.2-0.6-0.2c-0.3,0-0.4,0.1-0.7,0
		c-0.2-0.1-0.3-0.1-0.5-0.3c-0.3-0.2-0.4-0.4-0.7-0.6c-0.1-0.1-0.3-0.1-0.4-0.2c-0.2-0.1-0.4-0.2-0.5-0.5c-0.2-0.3-0.2-0.5-0.2-0.9
		c0-0.3,0-0.5,0.1-0.7c0.2-0.3,0.5-0.4,0.8-0.6c0.4-0.2,0.8,0,1-0.3c0.1-0.2,0-0.4,0.1-0.6c0-0.1,0-0.1,0.1-0.2
		c0.1-0.2,0.2-0.3,0.2-0.5c0-0.4-0.3-0.5-0.3-0.9c0-0.2,0.1-0.3,0.1-0.5c0-0.3-0.2-0.5-0.1-0.7c0.1-0.2,0.5,0,0.6-0.2
		c0.1-0.2-0.3-0.3-0.4-0.5c-0.1-0.1-0.2-0.2-0.2-0.4c0-0.3,0.7,0,0.7-0.3c0-0.2-0.1-0.3-0.2-0.4c-0.2-0.2-0.4,0-0.7-0.1
		c-0.2,0-0.4,0-0.5-0.1c-0.1-0.2-0.1-0.3-0.1-0.5c0-0.2,0.1-0.4,0-0.6c-0.1-0.2-0.3-0.2-0.5-0.3c-0.2-0.2-0.5-0.2-0.6-0.5
		c-0.1-0.3-0.1-0.5,0.1-0.7c0.3-0.3,0.6-0.1,1-0.1c0.4,0.1,0.6,0.4,1,0.5c0.3,0.1,0.5,0.1,0.7,0.1c0.3,0,0.5,0.1,0.8,0
		c0.3-0.1,0.6,0,0.8-0.3c0.1-0.1,0.1-0.2,0.1-0.4c0-0.2,0-0.4-0.1-0.6l-0.1,0.1c-0.1-0.5-0.2-0.8-0.2-1.3c0-0.5-0.1-0.8,0.1-1.3
		c0.1-0.3,0.2-0.5,0.4-0.6c0.3-0.2,0.6,0.1,0.9,0.1c0.3,0.1,0.4,0.2,0.7,0.2c0.3,0,0.4-0.2,0.7-0.3c0.4-0.1,0.6-0.1,0.9-0.2
		c0.4-0.1,0.6-0.3,1.1-0.4c0.4-0.1,0.8,0,1.1-0.2c0.5-0.3,0.6-0.8,0.9-1.3c0.2-0.4,0.3-0.6,0.5-0.9c0.1-0.3,0.3-0.5,0.3-0.8
		c0,0,0,0,0-0.1c0-0.3-0.1-0.4-0.2-0.7c-0.2-0.4-0.4-0.5-0.6-0.8c-0.2-0.3-0.4-0.4-0.5-0.7c-0.1-0.3,0.1-0.4,0-0.7
		c-0.1-0.2-0.2-0.3-0.3-0.5c-0.1-0.2,0-0.4-0.1-0.5c-0.3-0.3-0.7,0.1-1.1,0c-0.4-0.1-0.6-0.3-0.8-0.6c-0.2-0.3-0.3-0.5-0.3-0.8
		c0-0.2,0.1-0.4,0.3-0.5l-0.3,0.1c-0.1-0.3-0.3-0.4-0.3-0.7c-0.1-0.3-0.1-0.4-0.1-0.7c0-0.3,0.2-0.5,0.2-0.8c0-0.3,0.1-0.4,0-0.7
		c-0.1-0.3-0.3-0.4-0.3-0.7c-0.1-0.5,0.1-0.7,0.1-1.2c0-0.3-0.1-0.5-0.1-0.9c0-0.5,0.2-0.7,0.1-1.2c0-0.2-0.2-0.3-0.1-0.5
		c0-0.2,0.2-0.2,0.3-0.3l0.1-0.3c0.2-0.2,0.4-0.4,0.6-0.6c0,0,0.2-0.3,0.3-0.6c0.1-0.1,0.1-0.2,0.1-0.2c0.2-0.2,0.4-0.3,0.5-0.6
		c0.2-0.3,0.2-0.5,0.3-0.7c0.1-0.2,0.3-0.3,0.4-0.5c0.2-0.3,0.3-0.5,0.5-0.8c0.2-0.2,0.3-0.2,0.5-0.4c0.2-0.2,0.3-0.2,0.5-0.4
		c0.1-0.2,0.1-0.4,0.3-0.5c0.2-0.1,0.3-0.1,0.5-0.1c0.4-0.1,0.7-0.2,0.9-0.5c0.1-0.2,0.1-0.4,0.1-0.7C69.6,85.2,69.5,84.9,69.5,84.5
		"/>
	<path id="path4580" class="st0" d="M64.5,140.4c-0.2-0.1-0.3-0.3-0.5-0.3c-0.2,0-0.3,0-0.5,0c-0.4,0-0.6-0.1-0.9-0.3
		c-0.3-0.1-0.5-0.2-0.7-0.3c-0.3-0.1-0.4-0.2-0.7-0.4c-0.2-0.2-0.3-0.3-0.5-0.5c-0.2-0.2-0.3-0.3-0.5-0.5c-0.2-0.1-0.5,0-0.7-0.2
		c-0.2-0.2,0.1-0.4,0-0.7c-0.1-0.3-0.3-0.3-0.6-0.4c-0.2,0-0.3,0-0.5,0l0.2,0c0.2,0.3,0.4,0.4,0.5,0.7c0.2,0.3,0.2,0.5,0.3,0.8
		c0.1,0.3,0.1,0.5,0.2,0.7c0.1,0.4,0.2,0.6,0.5,0.9c0.2,0.3,0.5,0.3,0.7,0.5l0.4,0.1c0.1,0,0.1-0.1,0.2-0.1c0.4-0.1,0.7,0,1.1,0.1
		c0.2,0.1,0.4,0.2,0.6,0.3c0.4,0.1,0.7,0.2,1.1,0.1c0.3-0.1,0.7,0,0.8-0.3c0.1-0.2,0.1-0.3,0-0.5C65.1,140.2,64.7,140.5,64.5,140.4"
		/>
	<path id="path4582" class="st0" d="M58.6,117.3c0.1,0.2,0.3,0.2,0.5,0.3c0.2,0.1,0.4,0.2,0.6,0.1c0.1-0.1,0.2-0.3,0.1-0.5
		c0-0.2-0.3-0.2-0.3-0.3c-0.1-0.2,0.2-0.4,0.1-0.5c-0.1-0.1-0.2-0.1-0.3-0.1c-0.2,0-0.5-0.1-0.6,0.1c-0.1,0.2,0,0.3,0,0.5
		C58.6,117.1,58.5,117.2,58.6,117.3"/>
	<path id="path4796" class="st0" d="M53.8,8.7c0.2,0,0.3-0.4,0.1-0.5c-0.1-0.1-0.3,0-0.3,0.1C53.6,8.5,53.7,8.7,53.8,8.7"/>
	<path id="path4798" class="st0" d="M55.1,3.8c0,0,0.1,0.2,0.3-0.2c0.1-0.2,0.2-0.5,0-0.6C55.2,3,55.1,3,55,3
		c-0.2,0.1-0.3,0.2-0.3,0.4C54.7,3.7,54.9,3.8,55.1,3.8"/>
	<path id="path4800" class="st0" d="M54,0.8c0.2,0,0.4,0,0.5-0.2c0.1-0.2,0.1-0.3-0.1-0.5C54.4,0,54.2,0,54,0.1
		c-0.2,0.1-0.4,0.3-0.3,0.5C53.8,0.7,53.9,0.7,54,0.8"/>
	<path id="path4806" class="st0" d="M62.5,28.8c-0.1,0-0.2-0.1-0.2-0.1c0,0.1,0.1,0.1,0.1,0.2L62.5,28.8"/>
	<path id="path4808" class="st0" d="M55.3,17.1c-0.1,0.3-0.2,0.5-0.1,0.7c0.1,0.2,0.4,0.2,0.4,0.5c0,0.2-0.3,0.2-0.5,0.3
		c-0.3,0.2-0.7,0-0.9,0.3c-0.3,0.4-0.1,0.7,0,1.2c0.1,0.5,0.2,0.7,0.3,1.1c0.1,0.4,0.2,0.7,0.4,1.1l0.1-0.1c0.3-0.1,0.6-0.4,0.9-0.1
		c0.1,0.1,0.1,0.3,0.1,0.5c0,0.3-0.2,0.5-0.1,0.8c0.1,0.3,0.3,0.4,0.5,0.7c0.2,0.2,0.5,0.2,0.5,0.5c0,0.3-0.3,0.4-0.5,0.6
		c-0.1,0.2-0.2,0.3-0.3,0.5c-0.1,0.3,0,0.6-0.1,0.9c0,0.4-0.4,0.8-0.1,1.1c0.1,0.1,0.3,0.1,0.5,0.2c0.3,0.3,0,0.6,0.1,0.9
		c0.1,0.3,0.2,0.5,0.5,0.7c0.2,0.2,0.4,0.2,0.7,0.3c0.2,0.1,0.3,0.2,0.5,0.2c0.3,0,0.2-0.4,0.5-0.5c0.3-0.2,0.6,0.1,0.9-0.1
		c0.4-0.1,0.5-0.4,0.9-0.6c0.2-0.1,0.3-0.3,0.6-0.3c0.4-0.1,0.6,0.1,1,0.2c-0.1-0.2-0.2-0.4-0.4-0.7c-0.2-0.3-0.4-0.4-0.5-0.7
		c-0.1-0.3-0.2-0.5-0.3-0.7c-0.1-0.3,0-0.5-0.3-0.7c-0.2-0.2-0.4,0-0.7-0.1c-0.3-0.2-0.4-0.5-0.5-0.8c-0.2-0.7,0-1.1,0.2-1.8
		c0.1-0.3,0-0.6,0.3-0.7c0.3-0.1,0.4,0.3,0.7,0.3c0.4-0.1,0.4-0.5,0.3-0.9c0-0.3-0.3-0.4-0.3-0.7c0-0.3,0.2-0.4,0.3-0.7h0.2
		c-0.3-0.2-0.2-0.5-0.4-0.7c-0.2-0.3-0.5-0.3-0.7-0.6C60,19,60,18.7,59.8,18.7c-0.2-0.1-0.3,0-0.5,0c-0.3-0.1-0.5-0.1-0.7-0.4
		c-0.2-0.3,0-0.5-0.1-0.9c-0.1-0.4-0.3-0.6-0.5-0.9c-0.2-0.3-0.4-0.4-0.6-0.6c-0.3-0.3-0.5-0.4-0.8-0.6v0.3c0,0.2,0.1,0.3,0,0.5
		c-0.1,0.2-0.3,0.2-0.5,0.4C55.8,16.7,55.5,16.8,55.3,17.1"/>
	<path id="path4810" class="st0" d="M18.7,36.6c0.1,0.2,0,0.4,0.2,0.6c0.2,0.3,0.5,0.2,0.8,0.3c0.4,0.1,0.9-0.1,0.9,0.3
		c0,0.3-0.2,0.3-0.4,0.5c-0.1,0.1-0.2,0.2-0.3,0.3l-0.1,0.1c0.2,0.2,0.3,0.2,0.5,0.5c0.1,0.2,0.3,0.4,0.2,0.7
		c-0.1,0.3-0.4,0.2-0.5,0.5c-0.1,0.2-0.1,0.5,0.1,0.7c0.2,0.2,0.4,0,0.6,0.1c0.3,0.1,0.5,0,0.8,0.2c0.3,0.2,0.1,0.7,0.5,0.7
		c0.3,0.1,0.5-0.1,0.7-0.4c0.2-0.3,0-0.6,0.1-1c0.1-0.5,0.3-0.7,0.6-1.1c0.2-0.3,0.4-0.5,0.6-0.8c0.2-0.3,0.3-0.5,0.6-0.7
		c0.3-0.2,0.5-0.1,0.8-0.3c0.3-0.1,0.4-0.2,0.7-0.3c0.3-0.1,0.5,0,0.8-0.2c0.3-0.1,0.3-0.3,0.5-0.5c0.3-0.2,0.5-0.3,0.7-0.6
		c0.3-0.3,0.3-0.6,0.4-1c0.1-0.4,0.1-0.6,0.2-1c0.1-0.2,0.2-0.4,0.2-0.6c0-0.4-0.3-0.5-0.5-0.8l0.2,0.1c-0.3-0.3-0.5-0.4-0.7-0.7
		c-0.3-0.2-0.3-0.6-0.7-0.6c-0.3,0-0.3,0.3-0.6,0.3c-0.3,0.1-0.4,0.1-0.7,0.1c-0.3-0.1-0.4-0.4-0.7-0.5c-0.3-0.1-0.5-0.2-0.7-0.3
		C24.4,31,24.2,31,24,30.8c-0.3-0.2-0.2-0.5-0.5-0.8c-0.2-0.2-0.4-0.3-0.6-0.5l0.1-0.3c-0.1,0.5-0.4,0.8-0.9,1.1
		c-0.4,0.2-0.9-0.1-1.1,0.2c-0.2,0.2-0.1,0.5-0.2,0.7c-0.1,0.4,0,0.8-0.3,1.1c-0.2,0.2-0.3,0.2-0.5,0.3c-0.2,0.1-0.4,0-0.6,0.1
		c-0.4,0.2-0.6,0.6-0.7,1c-0.2,0.4-0.2,0.7-0.2,1.1c0,0.3-0.1,0.5,0,0.9C18.5,36.2,18.6,36.3,18.7,36.6"/>
	<path id="path4812" class="st0" d="M55.5,139c0.1-0.2,0-0.4,0-0.6c0.1-0.4,0.2-0.6,0.4-0.9c0.1-0.1,0.2-0.2,0.3-0.3
		c0.1-0.1,0.1-0.2,0.2-0.3c0.2-0.3,0.2-0.6,0.5-0.7c0.3-0.1,0.5,0,0.7,0c0.3,0,0.7,0.3,0.9,0l-0.8-0.4c-0.3-0.1-0.5-0.2-0.9-0.3
		c-0.5-0.2-0.9-0.6-1.4-0.3c-0.2,0.1-0.2,0.2-0.4,0.3c-0.7,0.3-1.3,0.3-2-0.1c-0.3-0.2-0.4-0.4-0.7-0.6c-0.2-0.1-0.4,0-0.6-0.2
		c-0.2-0.2-0.1-0.4-0.1-0.6c0-0.4,0.2-0.6,0-0.9c-0.1-0.2-0.3-0.3-0.5-0.3c-0.2-0.1-0.3,0-0.5,0c-0.3,0-0.7,0.2-0.9-0.1
		c-0.2-0.2,0.2-0.6,0-0.8c-0.2-0.3-0.6,0.1-0.9-0.1c-0.3-0.2-0.1-0.5-0.3-0.9c-0.1-0.3-0.4-0.4-0.3-0.7c0,0,0,0,0-0.1
		c0.1-0.3,0.6-0.3,0.8-0.6c0.3-0.5,0.2-0.8,0.1-1.3c-0.1-0.4-0.5-0.5-0.4-0.9c0-0.3,0.3-0.3,0.3-0.6c0.1-0.3,0-0.5-0.1-0.7
		c-0.1-0.3-0.4-0.4-0.3-0.6c0.1-0.2,0.5,0,0.5-0.3c0.1-0.2-0.2-0.3-0.3-0.5c-0.1-0.3-0.1-0.4-0.2-0.7c-0.1-0.4-0.1-0.7-0.1-1.1
		c0-0.3,0.1-0.4,0-0.7c-0.2-0.4-1-0.1-1-0.5c0-0.4,0.9-0.3,0.7-0.6c0,0,0,0,0-0.1c-0.1-0.1-0.2,0-0.3,0c-0.1,0-0.2,0.1-0.3,0
		c0,0,0,0,0,0c-0.2-0.2-0.1-0.5-0.2-0.7c-0.2-0.3-0.5-0.4-0.7-0.7c-0.1-0.3,0-0.6-0.1-0.9c-0.2-0.3-0.5-0.3-0.7-0.6
		c-0.3-0.4,0-0.8-0.2-1.3c-0.1-0.3-0.2-0.4-0.3-0.7c-0.1-0.3-0.2-0.4-0.3-0.7c0-0.2,0-0.4-0.1-0.6c-0.1-0.5-0.4-0.8-0.4-1.3
		c0-0.3,0-0.5,0.1-0.8c0.1-1-0.5-1.6,0-2.5c0.2-0.4,0.6-0.4,0.7-0.8c0.1-0.6-0.4-0.9-0.9-1.4c-0.2-0.2-0.4-0.3-0.6-0.5
		c-0.3-0.5-0.1-0.9,0-1.5c0.1-0.5-0.1-0.9,0.3-1.3c0.2-0.1,0.3-0.1,0.5-0.3c0.3-0.3-0.1-0.7-0.1-1.1c0-0.3,0-0.5,0-0.7
		c0-0.2,0-0.4,0-0.7c-0.1-0.8-0.5-1.3-0.6-2.1c-0.1-0.6,0-1-0.1-1.7c-0.1-0.8-0.3-1.2-0.4-2c-0.2-0.9-0.2-1.4-0.3-2.2
		c-0.1-0.9-0.3-1.3-0.3-2.2c0-0.8-0.1-1.3,0.2-2.1c0.2-0.6,0.5-0.8,0.9-1.3c0.4-0.7,0.6-1.1,1.1-1.8c0.3-0.5,0.5-0.7,0.8-1.2
		c0.2-0.4,0.3-0.6,0.5-1c0.2-0.4,0.4-0.6,0.5-1.1c0.1-0.4,0.1-0.7,0.1-1.1c0-0.5-0.4-0.8-0.2-1.2c0.1-0.3,0.5-0.3,0.7-0.7
		c0.1-0.3,0-0.6,0-0.9c0-0.8-0.1-1.3-0.2-2.1l-0.5,0.4c-0.1-0.3-0.2-0.4-0.3-0.7c-0.1-0.3-0.3-0.5-0.3-0.9c0-0.4,0.2-0.6,0.3-1
		c0.1-0.3,0.1-0.4,0.2-0.7c0.1-0.4,0.1-0.7,0.1-1.1c-0.1-0.4-0.1-0.6-0.3-0.9c-0.2-0.2-0.4-0.3-0.5-0.5c-0.2-0.4,0-0.6,0-1
		c0-0.7-0.1-1.1-0.3-1.8C45,67.9,45,67.3,44.5,67c-0.3-0.2-0.6,0-0.9-0.2c-0.3-0.2-0.2-0.5-0.4-0.7c-0.2-0.2-0.4-0.3-0.6-0.5
		c-0.4-0.3-0.6-0.4-0.9-0.6l0.1,0.1c0,0.2-0.1,0.3-0.1,0.5c-0.1,0.4-0.3,0.5-0.6,0.8c-0.3,0.3-0.5,0.5-0.9,0.8
		c-0.2,0.2-0.4,0.2-0.6,0.4c-0.2,0.2-0.2,0.4-0.3,0.6c-0.1,0.2-0.2,0.4-0.3,0.6l-0.3-0.1c0.1,0,0.2,0.1,0.3,0.1
		c0.3,0.1,0.5,0,0.7,0.2c0.2,0.2,0,0.5,0.1,0.9c0.1,0.4,0.3,0.6,0.4,0.9c0.2,0.6,0.3,0.9,0.3,1.5c0.1,0.8-0.1,1.2,0.1,2
		c0.1,0.3,0.2,0.4,0.2,0.7c0.1,0.6-0.2,0.9-0.3,1.4c-0.1,0.5-0.2,0.7-0.3,1.2c-0.1,0.4-0.3,0.6-0.3,1c0,0.3,0.2,0.4,0.3,0.7
		c0.1,0.3,0.1,0.4,0.1,0.7c0.1,0.4,0.1,0.6,0.1,1c0,0.5-0.2,0.8,0,1.2c0.1,0.3,0.4,0.3,0.4,0.6c0,0.3-0.2,0.4-0.2,0.7
		c0,0.3,0,0.5,0,0.8c0,0.3,0,0.5,0.1,0.9c0,0.5,0.1,0.7,0.1,1.2c0,0.2,0.1,0.4,0.1,0.6c0,0.4,0,0.6-0.1,1c0,0.5,0.2,0.8-0.1,1.2
		c-0.2,0.3-0.5,0.3-0.6,0.6c0,0.2,0,0.3,0.1,0.5c0.1,0.2,0.3,0.2,0.4,0.5c0.1,0.3,0,0.5,0,0.9c0,0.3,0,0.4-0.1,0.7
		c-0.1,0.2-0.3,0.3-0.4,0.5c-0.1,0.4,0.1,0.6,0.1,1c0.1,0.5,0.1,0.7,0.3,1.1c0.1,0.4,0.3,0.6,0.4,1c0.1,0.4,0.1,0.7,0.2,1.1
		c0.1,0.3,0.4,0.5,0.4,0.8c0.1,0.3,0,0.6-0.1,0.9c-0.1,0.3-0.3,0.4-0.4,0.7c-0.2,0.5-0.1,0.9-0.1,1.5c0,0.4,0.1,0.6,0.1,1
		c0,0,0,0,0,0c0,0.3,0,0.6,0,0.9c0,0.5-0.1,0.8-0.1,1.3c0,0.3,0.1,0.5,0.1,0.8c0,0.3-0.1,0.5-0.2,0.9c-0.1,0.5-0.3,0.8-0.2,1.2
		c0.1,0.3,0.3,0.4,0.5,0.7c0.2,0.4,0.3,0.6,0.4,1.1c0.1,0.5-0.1,0.8,0,1.3c0.1,0.3,0.3,0.5,0.3,0.8c0,0.3-0.4,0.4-0.4,0.7
		c0,0.3,0.3,0.5,0.3,0.8c0.1,0.3,0,0.5,0.1,0.7c0.1,0.3,0.2,0.5,0.3,0.7c0.2,0.3,0.2,0.5,0.4,0.8c0.1,0.2,0.2,0.3,0.4,0.3
		c0.3,0.1,0.4-0.3,0.7-0.3c0.2,0,0.4,0.1,0.5,0.2c0.2,0.2,0.1,0.5,0.3,0.7c0.1,0.2,0.3,0.2,0.5,0.3c0.1,0.1,0.2,0.2,0.2,0.4
		c0,0.3-0.2,0.4-0.2,0.7c0,0.2,0.2,0.3,0.2,0.5c0,0.3-0.2,0.4-0.3,0.7c0,0.2-0.1,0.3,0,0.5c0.1,0.2,0.3,0,0.5,0.1
		c0.3,0.3-0.3,0.7-0.1,1.1c0.1,0.1,0.2,0.2,0.3,0.3c0.2,0.2,0.4,0.1,0.6,0.3c0,0,0,0,0,0.1c0.1,0.2,0.2,0.3,0.2,0.5
		c0,0.3-0.1,0.4-0.1,0.7c-0.1,0.2-0.1,0.3-0.2,0.5c-0.1,0.3-0.3,0.5-0.3,0.8c0,0.2,0.2,0.3,0.3,0.5c0.2,0.4,0.1,0.7,0.1,1.2
		c0,0.4,0.1,0.7,0,1.1c-0.1,0.3-0.4,0.3-0.4,0.6c0,0.3,0.3,0.3,0.4,0.5c0.1,0.2,0.1,0.4,0.3,0.5c0.2,0.2,0.5-0.1,0.7,0
		c0.2,0.1,0.5,0.1,0.5,0.3c0,0.3-0.4,0.2-0.5,0.4c-0.2,0.2-0.2,0.4-0.2,0.7c0,0.3-0.2,0.6-0.1,0.8c0,0,0,0.1,0.1,0.1
		c0.1,0.2,0.2,0.2,0.4,0.3c0.2,0.2,0.4,0.2,0.5,0.5c0.2,0.3-0.1,0.6,0.1,0.9c0.1,0.2,0.1,0.3,0.2,0.4c0.1,0.1,0.3,0.1,0.4,0.2
		c0.3,0.2,0.2,0.6,0.3,0.9c0.1,0.3,0.2,0.4,0.4,0.6c0.2,0.1,0.4,0.1,0.5,0.2c0.3,0.2,0.3,0.4,0.5,0.7c0.2,0.2,0.5,0.2,0.6,0.5
		c0.1,0.2,0.1,0.4,0.1,0.6c0.1,0.2,0.1,0.4,0.3,0.6c0.1,0.2,0.2,0.4,0.4,0.4c0.2,0,0.3-0.2,0.5-0.3c0.3-0.2,0.6-0.2,0.9-0.2
		c0.2,0,0.3,0,0.5,0.1c0.3,0.1,0.5,0.1,0.7,0.2c0.3,0.1,0.7,0.2,0.7,0.5c0,0.3-0.1,0.5-0.4,0.6c-0.2,0.1-0.4,0.1-0.7-0.1
		c-0.3-0.2-0.2-0.6-0.5-0.7c-0.3-0.1-0.7-0.2-0.9,0.1c-0.1,0.1-0.1,0.2-0.1,0.3c0,0.3,0.2,0.4,0.4,0.6c0.2,0.2,0.7,0,0.7,0.3
		c0,0.3-0.7-0.1-0.7,0.2c0,0.3,0.4,0.2,0.7,0.3c0.4,0.2,0.6,0.3,0.9,0.4c0.3,0.1,0.4,0.1,0.7,0.1C55.3,139.2,55.4,139.2,55.5,139"/>
	<path id="path4814" class="st0" d="M1.1,32.5c-0.2-0.2-0.4-0.5-0.7-0.4c-0.2,0-0.3,0.1-0.4,0.3c-0.1,0.2,0,0.3,0.1,0.5
		c0.1,0.2,0.3,0.2,0.3,0.4c0,0.2-0.3,0.2-0.3,0.4C0,34-0.1,34.2,0.1,34.4c0.1,0.1,0.1,0.2,0.3,0.3c0.2,0.1,0.4,0,0.6-0.1
		c0.2-0.1,0.3-0.2,0.4-0.4c0.2-0.3,0.1-0.5,0.1-0.9C1.4,33,1.3,32.8,1.1,32.5"/>
	<path id="path4816" class="st0" d="M2.1,33.7c-0.1,0.2,0,0.3,0.1,0.5c0.2,0.1,0.4,0.2,0.5,0.1c0.1-0.2,0-0.4-0.1-0.5
		C2.4,33.6,2.2,33.6,2.1,33.7"/>
	<path id="path4818" class="st0" d="M3.8,33.9c-0.2,0.1-0.3,0.5-0.1,0.5c0.1,0,0.2,0,0.3-0.1c0.2-0.1,0.5-0.3,0.3-0.5
		C4.3,33.7,4,33.7,3.8,33.9"/>
	<path id="path4820" class="st0" d="M43.7,118.9c0.3-0.2,0.1-0.5,0.1-0.8c0-0.2,0.1-0.4,0-0.6c-0.1-0.2-0.2-0.3-0.3-0.5
		c-0.1-0.3,0-0.4-0.1-0.7c-0.1-0.2-0.2-0.3-0.4-0.4c-0.2-0.1-0.3-0.1-0.5,0c-0.2,0.1-0.3,0.2-0.3,0.4c-0.1,0.2,0.1,0.3,0.1,0.5
		c0.1,0.2,0.2,0.3,0.3,0.5c0.1,0.3-0.1,0.4-0.1,0.7c0,0.3-0.2,0.5,0,0.7c0.2,0.2,0.4,0,0.6,0.1C43.4,118.9,43.5,119,43.7,118.9"/>
	<path id="path4822" class="st0" d="M45.8,121.2c-0.1-0.1-0.2-0.2-0.3-0.2c-0.2,0-0.2,0.1-0.4,0.1c0,0,0.3,0.1,0.2,0.4
		c-0.1,0.3,0.3,0.2,0.3,0.2c0,0,0,0,0,0.1C45.6,121.9,45.9,121.4,45.8,121.2"/>
	<path id="path4824" class="st0" d="M44.3,121.5c-0.2,0.1-0.3,0.3-0.4,0.5c-0.1,0.2-0.2,0.3-0.1,0.5c0.1,0.3,0.4,0.3,0.7,0.3
		c0.3,0,0.7,0,0.7-0.3c0-0.2-0.1-0.3-0.1-0.4C44.9,121.8,44.7,121.4,44.3,121.5"/>
	<path id="path4826" class="st0" d="M44.9,125.4c0.3,0,0.5,0.1,0.7-0.1c0.3-0.3,0.2-0.7-0.1-1.1c-0.2-0.2-0.3-0.3-0.5-0.3
		c-0.2-0.1-0.4-0.1-0.5,0c-0.2,0.1-0.1,0.3-0.3,0.4c-0.1,0.1-0.3,0.2-0.4,0.3c-0.3,0.2-1,0.3-0.7,0.6c0.2,0.2,0.4,0.1,0.6,0.1
		c0.2,0,0.3-0.1,0.5-0.1C44.5,125.2,44.6,125.4,44.9,125.4"/>
	<path id="path4828" class="st0" d="M45.3,128.8c0.1-0.1,0.1-0.2,0.1-0.4c0-0.2,0-0.5-0.3-0.5c-0.2,0-0.3,0.1-0.4,0.1
		c-0.2,0.1-0.6,0-0.5,0.3c0,0.2,0.3,0.2,0.5,0.3C44.9,128.6,45.1,128.9,45.3,128.8"/>
	<path id="path4830" class="st0" d="M46.2,129.5c-0.2-0.1-0.4,0-0.6,0.1c-0.4,0-0.8-0.2-0.9,0.1c-0.2,0.3,0.5,0.5,0.5,0.9
		c0,0.2-0.2,0.3-0.1,0.5c0.1,0.2,0.3,0.2,0.5,0.3c0.2,0,0.4,0.1,0.5-0.1c0.1-0.2-0.2-0.3-0.3-0.5c0-0.2,0-0.3,0.1-0.5
		c0.1-0.2,0.4-0.2,0.4-0.4C46.4,129.7,46.3,129.6,46.2,129.5"/>
	<path id="path4832" class="st0" d="M47.6,135.2c-0.1,0.2,0.1,0.6,0.3,0.5c0.1-0.1,0.2-0.2,0.2-0.3c0.1-0.2,0.1-0.3,0-0.5
		C47.9,134.8,47.6,135,47.6,135.2"/>
	<path id="path4834" class="st0" d="M51.1,137.3c-0.2-0.1-0.3-0.1-0.5-0.2c-0.3-0.1-0.4-0.1-0.7-0.1c-0.2,0-0.5-0.1-0.5,0.1
		c0,0.1,0.1,0.2,0.2,0.3c0.2,0.3,0.4,0.4,0.7,0.5c0.3,0.1,0.5,0,0.8-0.1c0.3,0,0.6,0.2,0.7-0.1C51.8,137.5,51.3,137.5,51.1,137.3"/>
	<path id="path4836" class="st0" d="M52.8,139c-0.1-0.1-0.1-0.3-0.3-0.4c-0.2-0.2-0.4-0.3-0.6-0.2c-0.2,0.2-0.1,0.5,0.1,0.7
		c0.2,0.2,0.5-0.1,0.6,0.1c0.1,0.1-0.1,0.3,0.1,0.5c0.2,0.2,0.5,0.2,0.7-0.1c0.1-0.2,0.1-0.3,0-0.5C53.2,139,52.9,139.2,52.8,139"/>
	<path id="path4838" class="st0" d="M56.3,137.9c-0.2-0.1-0.3,0.1-0.4,0.2c-0.2,0.2-0.2,0.5,0,0.7c0.1,0.1,0.2,0.2,0.4,0.1
		c0.2-0.1,0.2-0.4,0.2-0.6C56.5,138.1,56.5,137.9,56.3,137.9"/>
	<path id="path4840" class="st0" d="M63.9,142c-0.2,0-0.4,0.1-0.6,0.1c-0.3,0.1-0.7,0.1-0.7,0.4c0,0.3,0.5,0.3,0.8,0.3
		c0.2,0,0.4-0.1,0.6-0.1c0.3-0.1,0.6,0.1,0.7-0.1c0.1-0.2,0-0.3-0.1-0.5C64.5,141.8,64.2,142,63.9,142"/>
	<path id="path4842" class="st0" d="M62.7,141.1c-0.2-0.2-0.4-0.1-0.7-0.1c-0.2,0-0.4,0-0.6,0.1c-0.3,0.1-0.6,0.1-0.9,0.2
		c-0.2,0.1-0.3,0.2-0.5,0.3c-0.2,0.1-0.4,0-0.7,0.1l0.3,0.5c0.3,0,0.5,0,0.8,0.1c0.3,0.1,0.4,0.2,0.7,0.3c0.2,0,0.3,0.1,0.5,0
		c0.2-0.1-0.2-0.4-0.1-0.5c0.2-0.2,0.5,0,0.7,0c0.2,0,0.3,0,0.5-0.1C63,141.6,62.9,141.3,62.7,141.1"/>
	<path id="path4844" class="st0" d="M60.2,141c0.3-0.1,0.5,0,0.8-0.1c0.1,0,0.2-0.1,0.3-0.1l-0.4-0.1c-0.3-0.2-0.5-0.3-0.7-0.5
		c-0.3-0.3-0.3-0.5-0.5-0.9c-0.1-0.3-0.1-0.5-0.2-0.7c-0.1-0.3-0.1-0.5-0.3-0.8c-0.2-0.3-0.3-0.5-0.5-0.7l-0.2,0c0,0-0.1,0-0.2,0
		c-0.3,0-0.4,0-0.7,0c-0.2,0-0.3,0-0.4,0c-0.3,0.1-0.4,0.4-0.5,0.7c0,0.2,0,0.4,0.1,0.6l0.4,0.2c0.1,0,0.2,0,0.3-0.1
		c0.3,0,0.6-0.3,0.7-0.1c0,0.1,0,0.2-0.1,0.3c-0.1,0.2-0.4,0.2-0.5,0.4c-0.1,0.1-0.1,0.3-0.1,0.4c0.1,0.3,0.4,0.2,0.6,0.3
		c0.3,0.1,0.8,0,0.7,0.3c-0.1,0.2-0.4,0.2-0.6,0.2c-0.3,0-0.5,0-0.7-0.1c-0.1-0.1-0.2-0.1-0.3-0.2c-0.3-0.1-0.5,0-0.7,0
		c-0.4,0-0.9-0.3-1.1,0.1c-0.1,0.2-0.1,0.5,0.1,0.6c0.2,0.1,0.3,0,0.5,0c0.3,0,0.5,0.2,0.8,0.3c0.4,0.1,0.7,0.1,1.1,0.1
		c0.4,0,0.6-0.1,0.9,0c0.2,0.1,0.3,0.2,0.5,0.3C59.7,141.3,59.9,141,60.2,141"/>
	<path id="path5056" class="st0" d="M62.3,29C62.3,28.9,62.3,28.9,62.3,29C62.3,28.9,62.3,28.9,62.3,29L62.3,29"/>
	<path id="path5058" class="st0" d="M60.1,25.7c0.2,0.1,0.5,0,0.7,0.1c0.2,0.2,0.2,0.5,0.3,0.7c0.1,0.3,0.1,0.5,0.3,0.7
		c0.2,0.3,0.3,0.4,0.5,0.7c0.2,0.3,0.3,0.6,0.5,0.9c0.2-0.1,0.3-0.1,0.5-0.3c0.2-0.2,0-0.4,0.2-0.6c0.1-0.1,0.3-0.1,0.5-0.1
		c0.3-0.1,0.3-0.4,0.5-0.5c0.3-0.1,0.5,0,0.8,0.1c0.3,0.1,0.4,0.2,0.6,0.3h0.1c0.2-0.3,0.3-0.5,0.5-0.9c0.2-0.3,0.3-0.4,0.4-0.7
		c0.1-0.4,0-0.6-0.1-0.9c-0.1-0.4-0.4-0.6-0.5-1.1c-0.2-0.7-0.1-1.2,0.1-1.9c0.1-0.3,0.2-0.4,0.3-0.6c0.1-0.3,0.2-0.5,0.3-0.7l0-0.2
		c-0.1,0-0.2-0.1-0.3-0.1c-0.5-0.1-0.7,0.1-1.2,0c-0.4-0.1-0.5-0.2-0.9-0.3c-0.3-0.1-0.5-0.1-0.7-0.1c-0.3,0-0.4,0.1-0.7,0.1
		c-0.3,0.1-0.5,0.2-0.8,0.1c-0.3,0-0.6-0.1-0.8-0.3h-0.2c-0.1,0.3-0.3,0.4-0.3,0.7c0,0.3,0.3,0.4,0.3,0.7c0,0.4,0,0.8-0.3,0.9
		c-0.3,0.1-0.4-0.4-0.7-0.3c-0.3,0.1-0.2,0.4-0.3,0.7c-0.2,0.7-0.4,1.1-0.2,1.8C59.7,25.2,59.8,25.5,60.1,25.7"/>
	<path id="path5060" class="st0" d="M34.7,65.7c0.5,0.3,0.8,0.3,1.3,0.5c0.3,0.2,0.5,0.4,0.8,0.5c0.3,0.1,0.5,0.1,0.7,0.3
		c0.3,0.3,0,0.8,0.2,1.1c0.2,0.3,0.5,0.4,0.9,0.6l0.3,0.1c0.1-0.2,0.2-0.4,0.3-0.6c0.1-0.2,0.1-0.4,0.3-0.6c0.2-0.2,0.4-0.2,0.6-0.4
		c0.4-0.3,0.6-0.5,0.9-0.8c0.3-0.3,0.5-0.4,0.6-0.8c0.2-0.5,0.2-0.8,0.1-1.3c-0.1-0.3-0.2-0.4-0.3-0.7c-0.2-0.3-0.5-0.5-0.5-0.9
		c0-0.4,0.2-0.6,0.5-0.9c0.2-0.2,0.6-0.2,0.6-0.5c0-0.3-0.3-0.4-0.4-0.7c-0.1-0.3-0.2-0.5-0.2-0.9c0-0.3,0.1-0.5,0.1-0.8
		c0-0.5,0-0.8-0.1-1.3c0-0.3,0-0.5-0.1-0.9c-0.1-0.4-0.4-0.5-0.5-0.9c-0.1-0.3,0-0.5-0.1-0.7c-0.1-0.4-0.4-0.5-0.6-0.8h-0.1
		c-0.3-0.1-0.4-0.1-0.7-0.1c-0.2,0-0.3,0.1-0.5,0.1c-0.3,0-0.6,0.3-0.9,0c-0.2-0.3,0.1-0.5,0.1-0.9c0-0.4-0.2-0.7-0.1-1.1
		c0.2-0.9-0.3-0.7-0.3-0.7c-0.2,0.2-0.3,0.4-0.6,0.5c-0.2,0.1-0.4,0-0.7,0c-0.4,0-0.6,0-0.9-0.3c-0.2-0.2-0.2-0.5-0.4-0.7
		c-0.2-0.2-0.4-0.1-0.7-0.2c-0.2-0.1-0.5,0.1-0.6-0.1c0-0.1,0-0.1,0-0.2c0.1-0.1,0.3-0.2,0.3-0.4c0-0.2-0.1-0.2-0.2-0.3
		c-0.2-0.2-0.3-0.3-0.5-0.5c-0.2-0.3-0.1-0.5-0.2-0.8c-0.1-0.2-0.2-0.3-0.3-0.5c-0.2-0.3-0.4-0.4-0.5-0.7c0-0.3,0.1-0.4,0.1-0.7
		c0.1-0.5-0.1-0.9,0.2-1.3c0.2-0.2,0.4-0.2,0.5-0.4c0.3-0.4,0.3-0.7,0.5-1.2c0.1-0.4,0.2-0.6,0.3-0.9c0-0.3-0.2-0.5,0-0.7
		c0.2-0.2,0.5,0.1,0.8,0c0.2-0.1,0.3-0.3,0.5-0.5c0.2-0.2,0.3-0.5,0.6-0.6c0.2-0.1,0.4,0,0.7,0c0.3,0,0.5,0.3,0.8,0.1
		c0.2-0.1,0.2-0.3,0.3-0.5l0.1-0.1c-0.1-0.3-0.2-0.5-0.2-0.9c0-0.2,0-0.4,0.1-0.6c0.1-0.2,0.2-0.2,0.3-0.4c0.2-0.2,0.3-0.4,0.4-0.7
		c0.1-0.3,0.5-0.5,0.3-0.7c-0.2-0.3-0.5,0-0.8,0c-0.2,0-0.4,0.1-0.5-0.1c-0.1-0.1,0-0.3-0.1-0.4c-0.3-0.3-0.6,0.3-1,0.2
		c-0.2,0-0.4-0.3-0.6-0.2c-0.3,0.1-0.2,0.4-0.5,0.5c-0.2,0.1-0.4-0.1-0.7-0.1c-0.3,0-0.5,0.1-0.7,0c-0.2-0.1-0.3-0.2-0.4-0.4
		c-0.2-0.3-0.3-0.5-0.5-0.8c-0.2-0.2-0.3-0.3-0.4-0.6c-0.1-0.2,0-0.3-0.1-0.5c-0.3-0.5-1-0.1-1.3-0.6c-0.2-0.2-0.1-0.4-0.3-0.7
		c-0.1-0.2-0.2-0.3-0.3-0.5c-0.2-0.2-0.3-0.3-0.5-0.4c-0.2-0.1-0.4,0-0.6,0l-0.3-0.1c0.2,0.3,0.5,0.4,0.5,0.8c0,0.2-0.1,0.4-0.2,0.6
		c-0.1,0.4-0.1,0.6-0.2,1c-0.1,0.4-0.2,0.7-0.4,1c-0.2,0.3-0.4,0.4-0.7,0.6c-0.2,0.2-0.3,0.4-0.5,0.5c-0.3,0.2-0.5,0.1-0.8,0.2
		c-0.3,0.1-0.4,0.2-0.7,0.3c-0.3,0.1-0.5,0.1-0.8,0.3c-0.3,0.2-0.4,0.4-0.6,0.7c-0.3,0.3-0.4,0.5-0.6,0.8c-0.3,0.4-0.5,0.7-0.6,1.1
		c-0.1,0.4,0.2,0.7-0.1,1c-0.2,0.3-0.4,0.5-0.7,0.4c-0.3-0.1-0.2-0.5-0.5-0.7c-0.3-0.2-0.5-0.1-0.8-0.2c-0.2,0-0.4,0.1-0.6-0.1
		c-0.2-0.2-0.2-0.4-0.1-0.7c0.1-0.2,0.4-0.2,0.5-0.5c0.1-0.3-0.1-0.4-0.2-0.7c-0.1-0.2-0.3-0.3-0.5-0.5l0.1-0.1
		c-0.1,0.1-0.2,0.2-0.4,0.3c-0.3,0.3-0.6,0.3-0.7,0.7c-0.1,0.2-0.1,0.3-0.1,0.5c-0.1,0.3-0.3,0.4-0.4,0.7c-0.1,0.3-0.3,0.4-0.2,0.7
		c0.1,0.3,0.4,0.2,0.5,0.5c0.1,0.2-0.1,0.4-0.1,0.7c0,0.3,0.2,0.5,0.2,0.8c0,0.3-0.3,0.6-0.1,0.9c0.1,0.4,0.4,0.4,0.7,0.6
		c0.3,0.2,0.5,0.2,0.8,0.3c0.3,0.1,0.6-0.1,0.9,0.1c0.4,0.3,0.2,0.7,0.4,1.1c0.3,0.8,0.5,1.3,1,2c0.3,0.4,0.6,0.5,0.9,1
		c0.2,0.3,0.1,0.5,0.3,0.8c0.1,0.2,0.2,0.3,0.3,0.4c0.2,0.2,0.4,0.3,0.6,0.6c0.3,0.6,0.2,1,0.5,1.6c0.2,0.5,0.4,0.8,0.6,1.3
		c0.2,0.5,0.3,0.8,0.6,1.3c0.3,0.5,0.6,0.8,0.9,1.3c0.2,0.4,0.4,0.6,0.5,0.9c0.2,0.4,0.2,0.6,0.4,1c0.1,0.2,0.2,0.4,0.3,0.6
		c0.2,0.5,0,0.9,0.3,1.3c0.2,0.4,0.4,0.5,0.7,0.8c0.3,0.4,0.5,0.6,0.8,1c0.3,0.4,0.6,0.6,0.9,0.9c0.3,0.3,0.5,0.4,0.9,0.7
		c0.4,0.3,0.5,0.5,0.9,0.7c0.3,0.1,0.6,0,0.9,0.1C34.1,65.1,34.3,65.5,34.7,65.7"/>
	<path id="path5062" class="st0" d="M54.6,71.8c-0.3,0.2-0.5,0.4-0.7,0.8c-0.3,0.5-0.3,0.9-0.3,1.4c-0.1,0.5,0,0.8-0.1,1.3
		c0,0.3-0.1,0.5-0.1,0.7c0,0.2,0,0.3,0,0.5l-0.2,0.1c0.2,0.2,0.2,0.4,0.4,0.6c0.2,0.2,0.3,0.2,0.5,0.5c0.1,0.2,0.1,0.3,0.1,0.5
		c0.4,0.8,1.5,0.3,2.2,0.8c0.3,0.2,0.4,0.3,0.7,0.5c0.5,0.3,0.8,0.4,1.2,0.8c0.2,0.3,0.2,0.6,0.5,0.7c0.3,0.1,0.5,0.1,0.7,0.1
		c0.5,0.1,0.7,0.3,1.2,0.5c0.3,0.2,0.5,0.3,0.9,0.5c0.2,0.1,0.4,0,0.6,0.1c0.2,0.2,0.4,0.4,0.3,0.7c0,0.2-0.2,0.3-0.3,0.5
		c-0.1,0.2-0.1,0.4-0.1,0.6c-0.1,0.5,0.2,0.9-0.1,1.3c-0.1,0.2-0.3,0.2-0.5,0.3c-0.2,0.3-0.2,0.6-0.1,0.9c0,0.3,0.2,0.4,0.3,0.6
		l-0.1-0.3c0.2,0,0.3,0,0.5,0c0.3,0,0.5-0.1,0.7-0.1c0.4,0,0.6,0,1,0.1c0.3,0,0.5,0.1,0.7,0.1c0.4,0,0.7,0.1,1.1-0.1
		c0.2-0.1,0.3-0.2,0.5-0.3c0.3-0.2,0.5-0.3,0.7-0.5c0.4-0.3,0.7-0.4,0.9-0.8C68,85.2,68,85,68,84.7c0-0.4,0.1-0.6-0.1-0.9
		c0-0.1-0.1-0.2-0.1-0.3c-0.1-0.3,0-0.5,0-0.8c0.1-0.4,0.3-0.6,0.3-0.9c0.1-0.4,0-0.6-0.1-1c-0.1-0.3,0-0.6-0.3-0.8
		c-0.2-0.1-0.3-0.1-0.5-0.1c-0.3,0-0.4,0.1-0.7,0.1c-0.3,0-0.5,0-0.7-0.2c-0.4-0.3-0.2-0.7-0.3-1.2c0-0.4,0-0.6,0-0.9
		c0-0.4,0.1-0.7-0.1-0.9c-0.2-0.3-0.5-0.1-0.9-0.2c-0.2,0-0.3-0.1-0.5-0.1c-0.4-0.1-0.6,0-1,0c-0.3,0-0.4,0-0.7,0
		c-0.4,0-0.8,0.2-0.9-0.1c-0.1-0.2,0.2-0.4,0.1-0.6c0-0.2-0.2-0.2-0.3-0.4c-0.2-0.3-0.4-0.4-0.4-0.7c0-0.2,0.2-0.4,0.2-0.6
		c0.1-0.5-0.1-0.9-0.2-1.4l-0.1-0.3c-0.3-0.3-0.4-0.5-0.7-0.7c-0.3-0.2-0.6-0.3-0.9-0.4c-0.6-0.2-0.9-0.3-1.5-0.2
		c-0.3,0-0.5,0.1-0.9,0.2c-0.5,0.1-0.8,0.3-1.3,0.5C55.1,71.6,54.9,71.6,54.6,71.8"/>
	<path id="path5064" class="st0" d="M70.6,135.7c0.1-0.1,0.1-0.2,0.2-0.3c0.1-0.2,0.3-0.2,0.4-0.4c0.1-0.1,0.3-0.2,0.3-0.4
		c-0.1-0.2-0.2-0.2-0.4-0.2c-0.2,0-0.3,0.1-0.5,0.1c-0.2,0-0.4,0-0.4,0.1c-0.1,0.2,0.3,0.2,0.3,0.3c0.1,0.3-0.7,0.3-0.5,0.6
		C70.1,135.7,70.4,135.8,70.6,135.7"/>
	<path id="path5066" class="st0" d="M72.3,135.7c0.2,0,0.3,0,0.4-0.1c0.1-0.1,0-0.2,0.1-0.3c0.1-0.2,0.4,0,0.5-0.1
		c0.2-0.1,0.4-0.2,0.3-0.3c0-0.2-0.3,0-0.5-0.1c-0.3,0-0.4-0.2-0.7-0.1c-0.2,0-0.4,0.1-0.5,0.3c-0.2,0.2-0.4,0.6-0.2,0.8
		C71.9,135.7,72.1,135.7,72.3,135.7"/>
	<g id="Layer_7">
	</g>
</g>
</svg>
