<svg viewBox="0 0 946 833" xmlns="http://www.w3.org/2000/svg" id="el_ede72Hlr1"><defs><linearGradient x1="0%" y1="50%" y2="50%" id="linearGradient-1"><stop stop-color="#FFF" offset="0%"></stop><stop stop-color="#E6E6E6" offset="100%"></stop></linearGradient><linearGradient x1="0%" y1="50%" y2="50%" id="linearGradient-2"><stop stop-color="#FFF" offset="0%"></stop><stop stop-color="#E6E6E6" offset="100%"></stop></linearGradient><linearGradient x1="0%" y1="50%" y2="50%" id="linearGradient-3"><stop stop-color="#FFF" offset="0%"></stop><stop stop-color="#E6E6E6" offset="100%"></stop></linearGradient><linearGradient x1="0%" y1="50%" y2="50%" id="linearGradient-4"><stop stop-color="#FFF" offset="0%"></stop><stop stop-color="#E6E6E6" offset="100%"></stop></linearGradient><linearGradient x1="0%" y1="50%" y2="50%" id="linearGradient-5"><stop stop-color="#FFF" offset="0%"></stop><stop stop-color="#E6E6E6" offset="100%"></stop></linearGradient><linearGradient x1="0%" y1="50%" y2="50%" id="linearGradient-6"><stop stop-color="#FFF" offset="0%"></stop><stop stop-color="#E6E6E6" offset="100%"></stop></linearGradient><linearGradient x1="0%" y1="50%" y2="50%" id="linearGradient-7"><stop stop-color="#FFF" offset="0%"></stop><stop stop-color="#E6E6E6" offset="100%"></stop></linearGradient><linearGradient x1="0%" y1="50%" y2="50%" id="linearGradient-8"><stop stop-color="#FFF" offset="0%"></stop><stop stop-color="#E6E6E6" offset="100%"></stop></linearGradient><linearGradient x1="0%" y1="50%" y2="50%" id="linearGradient-9"><stop stop-color="#FFF" offset="0%"></stop><stop stop-color="#E6E6E6" offset="100%"></stop></linearGradient><linearGradient x1="0%" y1="50%" y2="50%" id="linearGradient-10"><stop stop-color="#FFF" offset="0%"></stop><stop stop-color="#E5E5E5" offset="100%"></stop></linearGradient><linearGradient x1="0%" y1="50%" y2="50%" id="linearGradient-11"><stop stop-color="#FFF" offset="0%"></stop><stop stop-color="#E6E6E6" offset="100%"></stop></linearGradient><linearGradient x1="0%" y1="50%" y2="50%" id="linearGradient-12"><stop stop-color="#FFF" offset="0%"></stop><stop stop-color="#E6E6E6" offset="100%"></stop></linearGradient><linearGradient x1="0%" y1="50%" y2="50%" id="linearGradient-13"><stop stop-color="#FFF" offset="0%"></stop><stop stop-color="#E6E6E6" offset="100%"></stop></linearGradient><linearGradient x1="0%" y1="50%" y2="50%" id="linearGradient-14"><stop stop-color="#FFF" offset="0%"></stop><stop stop-color="#E6E6E6" offset="100%"></stop></linearGradient><linearGradient x1="0%" y1="50%" y2="50%" id="linearGradient-15"><stop stop-color="#FFF" offset="0%"></stop><stop stop-color="#E6E6E6" offset="100%"></stop></linearGradient><linearGradient x1="0%" y1="50%" y2="50%" id="linearGradient-16"><stop stop-color="#FFF" offset="0%"></stop><stop stop-color="#E6E6E6" offset="100%"></stop></linearGradient><linearGradient x1="0%" y1="50%" y2="50%" id="linearGradient-17"><stop stop-color="#FFF" offset="0%"></stop><stop stop-color="#E6E6E6" offset="100%"></stop></linearGradient><linearGradient x1="0%" y1="50%" y2="50%" id="linearGradient-18"><stop stop-color="#FFF" offset="0%"></stop><stop stop-color="#E6E6E6" offset="100%"></stop></linearGradient><linearGradient x1="0%" y1="50%" y2="50%" id="linearGradient-19"><stop stop-color="#FFF" offset="0%"></stop><stop stop-color="#E6E6E6" offset="100%"></stop></linearGradient><linearGradient x1="0%" y1="50%" y2="50%" id="linearGradient-20"><stop stop-color="#FFF" offset="0%"></stop><stop stop-color="#E6E6E6" offset="100%"></stop></linearGradient><linearGradient x1="0%" y1="50%" y2="50%" id="linearGradient-21"><stop stop-color="#FFF" offset="0%"></stop><stop stop-color="#E6E6E6" offset="100%"></stop></linearGradient></defs><g id="el_LIcnLtng-F" fill-rule="evenodd"><g id="el_GyW2ST_28p"><g id="el_icTaTi-xVu"><rect id="el_oY-Iv5V8hC" x="1" width="279" height="146" rx="3"></rect><rect id="el_oEdmcLC52X" x="292" y="14" width="289" height="26" rx="13"></rect><rect id="el_LxEh4-jd8s" x="750" y="3" width="167" height="22" rx="11"></rect><rect id="el_Y2M2rHkzFO" x="750" y="163" width="167" height="22" rx="11"></rect><rect id="el_r94aOwdufx" x="751" y="198" width="167" height="22" rx="11"></rect><rect id="el_e5w-orXbPY" x="733" y="42" width="202" height="37" rx="18.5"></rect><rect id="el_9OHQyQhflj" x="733" y="105" width="196" height="50" rx="25"></rect><rect id="el_fzSmO1t4E4" x="292" y="45" width="244" height="26" rx="13"></rect><rect id="el_CgbOQ2LrAa" x="295" y="120" width="50" height="22" rx="11"></rect><rect id="el_eS_T7p82xX" x="349" y="120" width="83" height="22" rx="11"></rect><rect id="el_v9_EmjEetG" x="333" y="86" width="101" height="9" rx="4.5"></rect><circle id="el_p57joje90V" cx="311" cy="91" r="14"></circle><circle id="el_4ERrfZoNOik" cx="39" cy="198" r="21"></circle><rect id="el_9hdACJAjTfu" x="9" y="230" width="59" height="9" rx="4.5"></rect><circle id="el_D6TPcqQVUZH" cx="115" cy="198" r="21"></circle><rect id="el_yqz1tlsPM94" x="85" y="230" width="59" height="9" rx="4.5"></rect><circle id="el_hTAbC94zOh8" cx="199" cy="198" r="21"></circle><rect id="el_wJcCLxvU_wD" x="169" y="230" width="59" height="9" rx="4.5"></rect><circle id="el_l-KSmQSpZ_S" cx="283" cy="198" r="21"></circle><rect id="el_8lraCLc6O7Y" x="253" y="230" width="59" height="9" rx="4.5"></rect><circle id="el_Xm9H5S2pst-" cx="367" cy="198" r="21"></circle><rect id="el_oemsGCdZKnj" x="337" y="230" width="59" height="9" rx="4.5"></rect><rect id="el_opI1eF10Afn" x="436" y="120" width="110" height="22" rx="11"></rect><rect id="el_mSW6h9wCWJs" x="1" y="276" width="673" height="15" rx="7.5"></rect><rect id="el_VriOzycLbZA" x="1" y="298" width="673" height="15" rx="7.5"></rect><rect id="el_xT_z670zB2L" x="1" y="320" width="399" height="15" rx="7.5"></rect><rect id="el_sxDRmmBh_CO" x="1" y="342" width="673" height="15" rx="7.5"></rect><rect id="el_mT-VLcgLLR4" x="1" y="364" width="673" height="15" rx="7.5"></rect><rect id="el_ihaH2mfvin7" x="1" y="386" width="399" height="15" rx="7.5"></rect><rect id="el_5qTSQJL2fp3" x="1" y="447" width="399" height="15" rx="7.5"></rect><rect id="el_UiNgYuNQhAR" y="513" width="111" height="38" rx="19"></rect><rect id="el_on71-CvbwGg" x="626" y="513" width="320" height="50" rx="10"></rect><rect id="el_dZI5_1xcbIt" x="1" y="581" width="945" height="42" rx="21"></rect><rect id="el_ZJDB0ouMrke" x="1" y="653" width="42" height="42" rx="21"></rect><rect id="el_AlDCbXR1_4X" x="1" y="791" width="42" height="42" rx="21"></rect><rect id="el_t1iE5P-BgHO" x="56" y="662" width="358" height="22" rx="11"></rect><rect id="el_bVX68B5nqTV" x="65" y="719" width="257" height="15" rx="7.5"></rect><rect id="el_bTcBHFXdZdn" x="35" y="718" width="14" height="44" rx="7"></rect><rect id="el_yCts9KGa7ek" x="65" y="749" width="257" height="15" rx="7.5"></rect><rect id="el_-B4PNCk2QSX" x="49" y="801" width="358" height="22" rx="11"></rect><rect id="el_YwD2BRboLHG" x="1" y="425" width="673" height="15" rx="7.5"></rect></g></g></g></svg>