<svg width="64" height="65" viewBox="0 0 64 65" fill="none" xmlns="http://www.w3.org/2000/svg">
<g clip-path="url(#clip0)">
<path d="M25.2487 10.0614C25.4342 9.66846 25.6198 9.2864 25.8111 8.91263C25.863 8.81517 25.9832 8.55285 26.1403 8.20863C26.4037 7.63217 27.0745 6.15886 27.358 5.72133C27.6084 5.52693 27.7702 5.22314 27.7702 4.88255C27.7702 4.2952 27.2953 3.82086 26.7085 3.82086C26.2849 3.82086 25.2901 3.82086 20.5592 7.58655C11.3476 14.91 1.49434 27.2289 0.244468 38.2408C-0.349104 43.4772 0.945351 48.1315 4.09206 52.0781C7.98009 56.9521 13.2621 58.978 18.4135 58.978C21.8925 58.978 25.3109 58.0511 28.202 56.4565C29.9018 62.8593 35.821 67.5224 42.5701 67.5224C50.7661 67.5224 57.4338 60.8552 57.4338 52.6587C57.4338 44.4622 50.7661 37.795 42.5701 37.795C40.9501 37.795 39.3669 38.0583 37.8443 38.569C37.5706 36.3492 36.9252 34.1916 36.2901 32.0936C36.047 31.2921 35.806 30.4938 35.5903 29.7048C35.0149 27.569 34.7634 25.8224 34.7982 24.2076C34.8194 23.2849 34.9335 22.4067 35.1372 21.6C35.2476 21.1677 35.442 20.7328 35.6468 20.2709C35.8578 19.7991 36.0755 19.3108 36.2243 18.7779C36.3052 18.4839 36.2559 18.1698 36.0895 17.9137C35.9226 17.6581 35.6541 17.487 35.3513 17.4435C32.9563 17.1024 30.5613 18.4829 29.1216 19.8883C27.9832 20.9956 27.4026 22.3771 26.8422 23.7125C26.7391 23.9557 26.638 24.1988 26.5374 24.4285C26.498 24.5156 26.4197 24.6726 26.3228 24.8624C26.2995 24.8349 26.2751 24.8064 26.2507 24.7773C25.7157 24.161 24.9065 23.2273 24.7909 23.0682C22.695 19.9085 22.7427 15.7701 24.9682 10.6856C25.0563 10.4787 25.1465 10.2719 25.2487 10.0614ZM18.1258 56.5602C16.5872 56.5379 15.1698 55.8873 14.1367 54.7292C9.95677 50.0449 10.7085 42.9624 13.1761 38.3642C13.9734 36.8753 15.0413 35.3989 16.0734 33.9718C16.342 33.6011 16.6136 33.2253 16.8832 32.8453C17.809 34.6426 18.7582 36.2958 20.159 37.9998L20.5768 38.5062C22.0667 40.3082 23.6084 42.1724 24.3777 44.3362C25.582 47.7141 24.7717 52.3549 22.5732 54.6789C21.4368 55.8811 19.7914 56.5467 18.1258 56.5602ZM55.3104 52.6587C55.3104 59.6841 49.595 65.399 42.5701 65.399C36.3378 65.399 30.9231 60.766 29.977 54.6198C29.8796 53.9879 29.8298 53.3284 29.8298 52.6587C29.8298 52.3456 29.8412 52.0345 29.8635 51.7255C29.9314 50.7976 30.1004 49.8909 30.3617 49.0179C31.3181 45.8163 33.5125 43.0692 36.5089 41.4492C36.7806 41.303 37.0589 41.1646 37.343 41.0366C39.0014 40.2942 40.7598 39.9184 42.5701 39.9184C49.595 39.9184 55.3104 45.6333 55.3104 52.6587ZM23.9267 7.93284C23.7199 8.33616 23.5234 8.73948 23.33 9.14746C23.2196 9.37556 23.1206 9.60521 22.9848 9.91522C20.5239 15.5409 20.5348 20.4948 23.0252 24.2491C23.1579 24.4461 23.5457 24.8997 24.6432 26.1672C25.0988 26.6929 25.513 27.1698 25.64 27.331C25.7816 27.542 25.9972 27.7037 26.2559 27.7706C26.7209 27.8924 27.2124 27.6866 27.4503 27.2652C27.653 26.9054 28.2953 25.6877 28.4752 25.2926C28.5841 25.0428 28.6903 24.7893 28.7976 24.5358C29.2989 23.3434 29.7722 22.2159 30.6017 21.4098C31.3321 20.6975 32.4374 19.9427 33.6007 19.6451C33.4021 20.0946 33.2093 20.5617 33.0776 21.0796C32.8345 22.0417 32.6981 23.0791 32.6727 24.163C32.6338 25.9857 32.9086 27.9235 33.5379 30.2631C33.7614 31.0754 34.0076 31.8909 34.2559 32.7105C34.9216 34.9116 35.6074 37.1802 35.8039 39.4217C35.7505 39.4482 35.7018 39.4798 35.6489 39.5073C35.5011 39.585 35.3581 39.668 35.2134 39.7494C35.0512 39.8422 34.8889 39.9355 34.7303 40.034C34.5903 40.1211 34.4534 40.2123 34.3166 40.3035C34.1616 40.4067 34.0086 40.5119 33.8578 40.6213C33.7251 40.7178 33.5955 40.8168 33.4659 40.9163C33.3197 41.0298 33.175 41.1454 33.033 41.2647C32.9086 41.3689 32.7862 41.4746 32.6665 41.583C32.5286 41.7074 32.3928 41.8339 32.259 41.9619C32.1429 42.0734 32.0294 42.1874 31.9179 42.302C31.7883 42.4347 31.6634 42.5705 31.539 42.7074C31.4317 42.8261 31.3254 42.9464 31.2227 43.0692C31.1035 43.2108 30.9879 43.3549 30.8744 43.5005C30.7759 43.626 30.6779 43.752 30.5846 43.8816C30.4742 44.0314 30.3689 44.1854 30.2647 44.3393C30.1766 44.47 30.0874 44.6006 30.004 44.7343C29.9039 44.8925 29.8096 45.0547 29.7152 45.2175C29.6364 45.3533 29.5566 45.4881 29.4825 45.626C29.3933 45.7929 29.3093 45.9624 29.2269 46.1325C29.1585 46.2725 29.0885 46.4109 29.0247 46.5529C28.9464 46.7271 28.8754 46.9044 28.8028 47.0817C28.7448 47.2248 28.6841 47.3663 28.6312 47.5114C28.5633 47.6944 28.5047 47.88 28.4441 48.0646C28.3974 48.2092 28.3477 48.3513 28.3041 48.498C28.2476 48.6903 28.201 48.8852 28.1522 49.0806C28.1159 49.2242 28.0771 49.3652 28.0449 49.5099C28.0003 49.7157 27.9666 49.9246 27.9304 50.133C27.907 50.2699 27.8785 50.4047 27.8583 50.5425C27.8241 50.7774 27.8028 51.0153 27.7795 51.2517C27.7691 51.3658 27.752 51.4793 27.7432 51.5939C27.7199 51.9453 27.7064 52.301 27.7064 52.6587C27.7064 53.1377 27.736 53.6099 27.7795 54.077C27.7847 54.1335 27.7826 54.1906 27.7878 54.2471C26.7339 54.8873 25.5841 55.4114 24.3819 55.8287C26.9122 52.8645 27.7966 47.6073 26.3783 43.625C25.4819 41.1086 23.8204 39.0977 22.2118 37.1537L21.7982 36.6524C20.1429 34.6384 19.1372 32.6244 17.9718 30.2921C17.8018 29.9521 17.4633 29.7291 17.0843 29.7069C16.7116 29.6856 16.342 29.8665 16.133 30.1848C15.583 31.0246 14.9853 31.8505 14.3513 32.7276C13.2766 34.2107 12.1662 35.7457 11.302 37.3595C8.58507 42.4238 7.76029 50.1828 12.1258 55.6146C9.78362 54.64 7.58922 53.0589 5.75147 50.7541C2.96972 47.2652 1.82664 43.1351 2.35437 38.4808C3.53478 28.0728 13.0112 16.2999 21.9055 9.22782C22.7629 8.5456 23.4933 7.99453 24.1061 7.55182C24.0242 7.73118 23.963 7.86701 23.9267 7.93284Z" fill="white"/>
<path d="M30.2087 33.989C30.7002 35.6121 31.1641 37.1455 31.4244 38.6084L33.5146 38.2388C33.2346 36.6515 32.7302 34.9848 32.2419 33.3731C31.9837 32.5193 31.7271 31.6691 31.4964 30.822C31.2605 29.962 31.075 29.1636 30.9272 28.3798L28.8412 28.7717C28.9982 29.6126 29.1978 30.4664 29.4477 31.3803C29.683 32.2445 29.9443 33.1149 30.2087 33.989Z" fill="white"/>
<path d="M35.8889 60.8411L47.8786 48.8515V51.597H50.0019V46.2885C50.0019 45.7011 49.5271 45.2268 48.9403 45.2268H43.6318V47.3502H46.3773L34.3876 59.3398L35.8889 60.8411Z" fill="white"/>
<path d="M34.0766 49.4736C34.0766 51.2294 35.5053 52.6587 37.2616 52.6587C39.0175 52.6587 40.4467 51.2294 40.4467 49.4736C40.4467 47.7178 39.0175 46.2885 37.2616 46.2885C35.5053 46.2885 34.0766 47.7178 34.0766 49.4736ZM38.3233 49.4736C38.3233 50.0594 37.8474 50.5353 37.2616 50.5353C36.6753 50.5353 36.2 50.0594 36.2 49.4736C36.2 48.8878 36.6753 48.4119 37.2616 48.4119C37.8474 48.4119 38.3233 48.8878 38.3233 49.4736Z" fill="white"/>
<path d="M45.7552 54.7821C43.9989 54.7821 42.5701 56.2113 42.5701 57.9672C42.5701 59.723 43.9989 61.1523 45.7552 61.1523C47.5111 61.1523 48.9403 59.723 48.9403 57.9672C48.9403 56.2113 47.5111 54.7821 45.7552 54.7821ZM45.7552 59.0289C45.1689 59.0289 44.6935 58.553 44.6935 57.9672C44.6935 57.3814 45.1689 56.9055 45.7552 56.9055C46.341 56.9055 46.8169 57.3814 46.8169 57.9672C46.8169 58.553 46.341 59.0289 45.7552 59.0289Z" fill="white"/>
<path d="M42.57 18.6846V20.808H40.4466V22.9313H42.57V25.0547H44.6933V22.9313H46.8167V20.808H44.6933V18.6846H42.57Z" fill="white"/>
<path d="M48.9402 11.2527V14.4378H45.7551V16.5611H48.9402V19.7462H51.0636V16.5611H54.2487V14.4378H51.0636V11.2527H48.9402Z" fill="white"/>
</g>
<defs>
<clipPath id="clip0">
<rect width="63.7015" height="63.7015" fill="white" transform="translate(0.10437 0.925354)"/>
</clipPath>
</defs>
</svg>
