<svg width="43" height="51" viewBox="0 0 43 51" fill="none" xmlns="http://www.w3.org/2000/svg">
<path d="M35.4334 50.0933H25.3477C22.7268 50.0933 20.2845 48.675 18.974 46.392L18.3119 45.2385C17.9955 44.6871 18.1833 43.9821 18.7314 43.6638C19.2793 43.3455 19.9806 43.5344 20.2969 44.0857L20.959 45.2392C21.8613 46.8113 23.5429 47.7879 25.3477 47.7879H33.3956L29.3941 40.7247C28.4909 39.1565 26.8115 38.1826 25.0094 38.1826H18.5112C17.925 38.1826 17.3477 38.1118 16.7902 37.9761L18.0444 40.1612C18.3608 40.7125 18.173 41.4175 17.6249 41.7358C17.0771 42.0541 16.3758 41.8652 16.0595 41.3139L0.258091 13.7852C0.0533332 13.4286 0.0533332 12.989 0.258091 12.6325C0.462849 12.2759 0.841041 12.0561 1.25056 12.0561H6.94115V1.29831C6.94115 0.886395 7.15966 0.505991 7.51416 0.300036C7.86867 0.09408 8.30569 0.09408 8.6602 0.300036L17.9224 5.67901L20.7677 0.722092C20.9724 0.365512 21.3506 0.145724 21.7601 0.145724C22.1696 0.145724 22.5478 0.365358 22.7526 0.722092L27.7956 9.50763C29.1061 11.7907 29.1061 14.6273 27.7956 16.9104L24.5464 22.5711C23.6447 24.1422 23.6441 26.0938 24.5448 27.6655L24.5464 27.6683L24.5479 27.6709L28.7152 34.9315C28.8773 34.378 29.1048 33.8396 29.3979 33.329L32.6471 27.6683C33.5488 26.097 33.5495 24.1452 32.6487 22.5737L32.6471 22.5711L29.9278 17.8335C29.6114 17.2822 29.7992 16.5771 30.3473 16.2588C30.8952 15.9404 31.5965 16.1293 31.9128 16.6807L41.4687 33.329C42.7792 35.612 42.7792 38.4485 41.4687 40.7317L36.4257 49.5173C36.2211 49.8735 35.8427 50.0933 35.4334 50.0933ZM31.3894 39.5899L35.4068 46.6814L39.4839 39.5787C40.3862 38.0067 40.3862 36.0535 39.4839 34.4814L35.315 27.2183C35.1528 27.7719 34.9253 28.3103 34.6322 28.8209L31.383 34.4816C30.4807 36.0536 30.4807 38.0068 31.383 39.5788C31.3853 39.5824 31.3873 39.5862 31.3894 39.5899ZM9.95354 26.0655L14.1225 33.3285C15.0248 34.9006 16.7064 35.8772 18.5112 35.8772H25.0094C25.5955 35.8772 26.1728 35.9482 26.7304 36.0837L22.5616 28.8207L22.5601 28.8181C21.6574 27.2478 19.9766 26.272 18.1729 26.272H11.6746C11.0883 26.2721 10.5111 26.2013 9.95354 26.0655ZM7.2897 21.4246C8.19292 22.9928 9.87224 23.9666 11.6744 23.9666H18.1727C18.7589 23.9666 19.336 24.0375 19.8938 24.1732L15.7248 16.9102C14.8225 15.3382 13.1409 14.3616 11.3361 14.3616H3.23533L7.28389 21.4148L7.28572 21.418L7.2897 21.4246ZM17.7097 15.7575L21.8787 23.0206C22.0408 22.4672 22.2684 21.9288 22.5614 21.4182L25.8107 15.7575C26.713 14.1854 26.713 12.2322 25.8107 10.6602L21.7601 3.60378L19.3373 7.82495L19.3344 7.83002L19.3313 7.83524L17.7097 10.6604C16.8074 12.2322 16.8074 14.1854 17.7097 15.7575ZM9.23322 12.0561H11.3363C12.5425 12.0561 13.7107 12.3564 14.7482 12.9033C14.7962 11.7261 15.1218 10.5582 15.725 9.50748L16.7766 7.67555L9.23337 3.295L9.23322 12.0561Z" fill="white"/>
</svg>
