<?xml version="1.0" encoding="utf-8"?>
<!-- Generator: Adobe Illustrator 23.0.1, SVG Export Plug-In . SVG Version: 6.00 Build 0)  -->
<svg version="1.1" id="Layer_1" xmlns="http://www.w3.org/2000/svg" xmlns:xlink="http://www.w3.org/1999/xlink" x="0px" y="0px"
	 viewBox="0 0 512 512" style="enable-background:new 0 0 512 512;" xml:space="preserve">
<style type="text/css">
	.st0{fill:#E4C05C;}
	.st1{fill:#CB8252;}
	.st2{fill:#0A99FF;stroke:#007DF8;stroke-width:10;stroke-miterlimit:10;}
	.st3{fill:#FFFFFF;}
	.st4{fill:#A56A43;}
	.st5{fill-rule:evenodd;clip-rule:evenodd;fill:#FF9EB1;}
</style>
<g id="Page-1">
	<g>
		<path id="Shape" class="st0" d="M213,336.9L94.1,455.8c1.2,0.9,2.4,1.8,3.5,2.8c8.9,8.9,11.6,22.4,6.8,34.1
			C99.6,504.4,88.2,512,75.5,512s-24.1-7.6-28.9-19.3c-4.8-11.7-2.2-25.1,6.8-34.1c-8.9,8.9-22.4,11.6-34.1,6.8S0,449.1,0,436.5
			c0-12.7,7.6-24.1,19.3-28.9s25.1-2.2,34.1,6.8c1,1.1,2,2.3,2.8,3.5l101.5-101.5L213,336.9z"/>
		<path class="st1" d="M268.7,357.7l-0.5,0.4c-26.5-2.5-52.8,6.1-72.8,23.6c-1.5,1.4-3,2.9-4.4,4.4c-3,3.2-7.6,4.5-11.8,3.3
			s-7.5-4.7-8.3-9l-0.2-1.1c-1.9-9.4-6.4-18-13-25c-6.9-6.6-15.6-11.1-25-13l-1.1-0.2c-4.3-0.9-7.8-4.1-9-8.3
			c-1.2-4.2,0.1-8.8,3.3-11.8c1.5-1.4,3-2.9,4.4-4.4c16.1-18.2,24.7-41.8,23.9-66.1c-0.5-63.6,34.1-141.6,85.5-193.1
			C316.6-19.3,408-14.5,467.3,44.8s64.1,150.7-12.6,227.5c-2.5,2.5-5,4.9-7.7,7.3L268.7,357.7z"/>
		<path class="st2" d="M512,388.4c0,68.3-55.3,123.6-123.6,123.6s-123.6-55.3-123.6-123.6c0-10.4,1.3-20.7,3.9-30.7
			c15.5-60.3,73.4-99.7,135.2-91.9C465.7,273.6,512,326.2,512,388.4z"/>
		<path class="st3" d="M466.5,397.3l-24.3,12l-36.2-20.9l36.2-20.9l24.3,12.1c4.4,2.1,9.6,0.3,11.8-4c2.2-4.4,0.4-9.6-4-11.8
			l-13.7-6.8l8.6-5c2.8-1.6,4.5-4.5,4.5-7.7c0-3.2-1.7-6.1-4.4-7.7c-2.7-1.6-6.1-1.6-8.9,0l-8.7,5l1-15.3c0.1-2.3-0.6-4.6-2.2-6.4
			c-1.5-1.8-3.7-2.8-6.1-3c-2.3-0.2-4.7,0.6-6.4,2.1c-1.8,1.6-2.8,3.7-3,6.1l-1.7,27l-36.2,20.9v-41.8l22.6-15
			c2.6-1.8,4.1-4.8,3.9-7.9c-0.2-3.1-2.1-5.9-4.9-7.3c-2.8-1.4-6.2-1.2-8.8,0.6l-12.8,8.5v-10c0-4.9-4-8.8-8.8-8.8s-8.8,4-8.8,8.8
			v10l-12.8-8.5c-2.6-1.8-6-2-8.8-0.6c-2.8,1.4-4.7,4.2-4.9,7.3c-0.2,3.1,1.3,6.2,3.9,7.9l22.6,15v41.8l-36.2-20.9l-1.8-27
			c-0.3-4.9-4.5-8.6-9.4-8.3c-4.9,0.3-8.6,4.5-8.3,9.4l1.1,15.3l-8.7-5c-2.7-1.6-6.1-1.6-8.9,0c-2.7,1.6-4.4,4.5-4.4,7.7
			s1.7,6.1,4.5,7.7l8.6,5l-13.7,6.8c-4.4,2.2-6.2,7.5-4,11.8c2.2,4.4,7.5,6.2,11.8,4l24.3-12.1l36.2,20.9l-36.2,20.9l-24.3-12
			c-4.4-2.1-9.6-0.3-11.8,4s-0.4,9.6,4,11.8l13.7,6.8l-8.6,5c-2.8,1.6-4.5,4.5-4.5,7.7s1.7,6.1,4.4,7.7c2.7,1.6,6.1,1.6,8.9,0l8.7-5
			l-1,15.3c-0.1,2.3,0.6,4.6,2.2,6.4c1.5,1.8,3.7,2.8,6.1,3h0.6c4.7,0,8.5-3.6,8.8-8.3l1.8-27l36.1-20.9v41.8l-22.6,15
			c-4.1,2.7-5.2,8.2-2.4,12.2c2.7,4.1,8.2,5.2,12.2,2.4l12.8-8.5v10c0,4.9,4,8.8,8.8,8.8s8.8-4,8.8-8.8v-10l12.8,8.5
			c4.1,2.7,9.5,1.6,12.2-2.4c2.7-4.1,1.6-9.5-2.4-12.2l-22.6-15v-41.8l36.2,20.9l1.8,27c0.3,4.7,4.2,8.3,8.8,8.3h0.6
			c2.3-0.1,4.5-1.2,6.1-3c1.5-1.8,2.3-4.1,2.2-6.4l-1.1-15.3l8.7,5c2.7,1.6,6.1,1.6,8.9,0c2.7-1.6,4.4-4.5,4.4-7.7s-1.7-6.1-4.5-7.7
			l-8.6-5l13.7-6.8c4.3-2.2,6.1-7.4,4-11.8S470.9,395.2,466.5,397.3L466.5,397.3z"/>
		<g>
			<circle id="Oval" class="st4" cx="378.8" cy="44.8" r="8.9"/>
			<circle class="st4" cx="340.9" cy="44.8" r="8.9"/>
			<circle class="st4" cx="303" cy="57.4" r="8.9"/>
			<circle class="st4" cx="309.3" cy="89" r="8.9"/>
			<circle class="st4" cx="340.9" cy="107.9" r="8.9"/>
			<circle class="st4" cx="347.2" cy="76.4" r="8.9"/>
			<circle class="st4" cx="385.1" cy="76.4" r="8.9"/>
			<circle class="st4" cx="416.7" cy="57.4" r="8.9"/>
			<circle class="st4" cx="378.8" cy="107.9" r="8.9"/>
			<circle class="st4" cx="271.4" cy="76.4" r="8.9"/>
		</g>
	</g>
</g>
<g>
	<path class="st5" d="M425.6,330.8c44.8,0,81.1-36.3,81.1-81.1c0-44.8-36.3-81.1-81.1-81.1c-44.8,0-81.1,36.3-81.1,81.1
		C344.5,294.4,380.8,330.8,425.6,330.8L425.6,330.8z"/>
</g>
<path d="M425.6,158.5c-50.2,0-91.1,40.9-91.1,91.1c0,50.2,40.9,91.1,91.1,91.1c50.2,0,91.1-40.9,91.1-91.1
	C516.7,199.4,475.9,158.5,425.6,158.5L425.6,158.5z M425.6,320.8c-39.2,0-71.1-31.9-71.1-71.1c0-39.2,31.9-71.1,71.1-71.1
	c39.2,0,71.1,31.9,71.1,71.1C496.7,288.9,464.8,320.8,425.6,320.8z"/>
<path d="M462.5,212.8c-3.9-3.9-10.2-3.9-14.1,0l-22.7,22.7l-22.7-22.7c-3.9-3.9-10.2-3.9-14.1,0c-3.9,3.9-3.9,10.2,0,14.1l22.7,22.7
	l-22.7,22.7c-3.9,3.9-3.9,10.2,0,14.1c2,2,4.5,2.9,7.1,2.9c2.6,0,5.1-1,7.1-2.9l22.7-22.7l22.7,22.7c2,2,4.5,2.9,7.1,2.9
	s5.1-1,7.1-2.9c3.9-3.9,3.9-10.2,0-14.1l-22.7-22.7l22.7-22.7C466.4,223,466.4,216.7,462.5,212.8z"/>
</svg>
