<svg id="_x33_0" enable-background="new 0 0 64 64" height="512" viewBox="0 0 64 64" width="512" xmlns="http://www.w3.org/2000/svg"><g><g><g><path d="m10.47 48.33c.61.45 1.24.84 1.91 1.2 2.85 1.58 6.13 2.47 9.62 2.47h6 4 10c5.52 0 10.52-2.24 14.14-5.86s5.86-8.62 5.86-14.14v6c0 11.05-8.95 20-20 20h-20c-11.05 0-20-8.95-20-20v-6c0 6.75 3.34 12.72 8.47 16.33z" fill="#aab2bd"/></g><g><path d="m42 12c11.05 0 20 8.95 20 20 0 5.52-2.24 10.52-5.86 14.14s-8.62 5.86-14.14 5.86h-10v-20-20z" fill="#e6e9ed"/></g><g><path d="m20.49 38.67c-1.27-1.63-3.26-2.67-5.49-2.67-3.87 0-7 3.13-7 7 0 2.14.96 4.06 2.47 5.33-5.13-3.61-8.47-9.58-8.47-16.33h4 4 6 4 8 4v20h-4c0-1.95-.7-3.73-1.85-5.12 1.12-.91 1.85-2.31 1.85-3.88 0-2.76-2.24-5-5-5-.91 0-1.77.24-2.5.67z" fill="#e6e9ed"/></g><g><path d="m2 32c0-2.16.34-4.25.98-6.2.23.35.49.67.78.96l2.66 2.66h.01c-.28.81-.43 1.68-.43 2.58z" fill="#e6e9ed"/></g><g><path d="m15.37 17.67c1.5.19 2.63 1.47 2.63 2.98v2.35l-6.62-6.62.12-.13c.71.68 1.65 1.14 2.7 1.27z" fill="#e6e9ed"/></g><g><path d="m25.32 12h6.68v20c0-3.22-1.9-5.99-4.63-7.26l-.98-1.96c-.26-.51-.39-1.08-.39-1.66 0-.73.22-1.45.62-2.06l.78-1.16c.39-.59.6-1.28.6-1.98 0-1.2-.6-2.32-1.59-2.98l-.51-.34c-.24-.16-.43-.36-.58-.6z" fill="#e6e9ed"/></g><g><path d="m5.76 22.76 3.11 3.11c-1.11.92-1.97 2.15-2.44 3.55h-.01l-2.66-2.66c-.29-.29-.55-.61-.78-.96-.64-.97-.98-2.11-.98-3.29v-1.51c1.28 0 2.51.51 3.41 1.41z" fill="#dfb28b"/></g><g><path d="m7.76 18.76 5.3 5.3c-1.58.18-3.03.83-4.19 1.81l-3.11-3.11c-1.13-1.13-1.76-2.65-1.76-4.25v-1.51c1.28 0 2.51.51 3.41 1.41z" fill="#dfb28b"/></g><g><path d="m18 23 2.04 2.04.01.01c-.37.2-.72.44-1.05.7-1.37-1.09-3.11-1.75-5-1.75-.32 0-.63.02-.94.06l-5.3-5.3c-1.13-1.13-1.76-2.65-1.76-4.25v-1.51c1.28 0 2.51.51 3.41 1.41l1.97 1.97z" fill="#dfb28b"/></g><g><path d="m28 15.92c0 .7-.21 1.39-.6 1.98l-.78 1.16c-.4.61-.62 1.33-.62 2.06 0 .58.13 1.15.39 1.66l.98 1.96c-1.02-.47-2.17-.74-3.37-.74-1.44 0-2.79.38-3.95 1.05l-.01-.01-2.04-2.04v-2.35c0-1.51-1.13-2.79-2.63-2.98l-1.17-.15c-1.05-.13-1.99-.59-2.7-1.27-.11-.1-.21-.2-.3-.31-.75-.85-1.2-1.96-1.2-3.17 0-1.14.41-2.25 1.15-3.12l3.49-4.07c.86-1 2.12-1.58 3.44-1.58 1.26 0 2.49.34 3.56.99 1.04.63 1.88 1.5 2.46 2.52.58 1.03.9 2.19.9 3.41 0 .39.11.76.32 1.08.15.24.34.44.58.6l.51.34c.99.66 1.59 1.78 1.59 2.98z" fill="#b4dd7f"/></g><g><path d="m19 25.75c-1.05.85-1.88 1.95-2.4 3.21-.7-.6-1.61-.96-2.6-.96-2.21 0-4 1.79-4 4h-4c0-.9.15-1.77.43-2.58.47-1.4 1.33-2.63 2.44-3.55 1.16-.98 2.61-1.63 4.19-1.81.31-.04.62-.06.94-.06 1.89 0 3.63.66 5 1.75z" fill="#ff826e"/></g><g><path d="m16.6 28.96c-.39.94-.6 1.96-.6 3.04h-6c0-2.21 1.79-4 4-4 .99 0 1.9.36 2.6.96z" fill="#fc6e51"/></g><g><path d="m32 32h-4c0-2.21-1.79-4-4-4s-4 1.79-4 4h-4c0-1.08.21-2.1.6-3.04.52-1.26 1.35-2.36 2.4-3.21.33-.26.68-.5 1.05-.7 1.16-.67 2.51-1.05 3.95-1.05 1.2 0 2.35.27 3.37.74 2.73 1.27 4.63 4.04 4.63 7.26z" fill="#ff826e"/></g><g><path d="m28 32h-8c0-2.21 1.79-4 4-4s4 1.79 4 4z" fill="#fc6e51"/></g><g><path d="m23 38c2.76 0 5 2.24 5 5 0 1.57-.73 2.97-1.85 3.88-1.08-1.3-2.56-2.25-4.26-2.65v-.01c.07-.4.11-.8.11-1.22 0-1.64-.56-3.14-1.51-4.33h.01c.73-.43 1.59-.67 2.5-.67z" fill="#ff826e"/></g><g><path d="m26.15 46.88c1.15 1.39 1.85 3.17 1.85 5.12h-6c-3.49 0-6.77-.89-9.62-2.47 1.05-3.2 4.06-5.53 7.62-5.53.65 0 1.29.08 1.89.22v.01c1.7.4 3.18 1.35 4.26 2.65z" fill="#fc6e51"/></g><g><path d="m20 44c-3.56 0-6.57 2.33-7.62 5.53-.67-.36-1.3-.75-1.91-1.2-1.51-1.27-2.47-3.19-2.47-5.33 0-3.87 3.13-7 7-7 2.23 0 4.22 1.04 5.49 2.67.95 1.19 1.51 2.69 1.51 4.33 0 .42-.04.82-.11 1.22-.6-.14-1.24-.22-1.89-.22z" fill="#ff826e"/></g><g><path d="m56 28c0 5.28-1.01 10.52-2.97 15.43l-.43 1.07c-.36.91-1.24 1.5-2.21 1.5-.66 0-1.26-.27-1.69-.7s-.7-1.03-.7-1.69v-3.61c0-1.1-.9-2-2-2-.55 0-1.05.22-1.41.59-.37.36-.59.86-.59 1.41v3.61c0 1.32-1.07 2.39-2.39 2.39-.97 0-1.85-.59-2.21-1.5l-.43-1.07c-1.96-4.91-2.97-10.15-2.97-15.43 0-2.76 1.12-5.26 2.93-7.07s4.31-2.93 7.07-2.93 5.26 1.12 7.07 2.93 2.93 4.31 2.93 7.07z" fill="#ecc19c"/></g><g><circle cx="46" cy="32" fill="#cf9e76" r="2"/></g></g><g><path d="m46 35c1.302 0 2.402-.839 2.816-2h2.184v-2h-2.184c-.302-.847-.969-1.514-1.816-1.816v-2.184h-2v2.184c-.847.302-1.514.969-1.816 1.816h-2.184v2h2.184c.414 1.161 1.514 2 2.816 2zm0-4c.551 0 1 .449 1 1s-.449 1-1 1-1-.449-1-1 .449-1 1-1z"/><path d="m38.043 43.799.429 1.073c.517 1.293 1.751 2.128 3.143 2.128 1.866 0 3.385-1.519 3.385-3.385v-3.615c0-.551.449-1 1-1s1 .449 1 1v3.615c0 1.866 1.519 3.385 3.385 3.385 1.392 0 2.625-.835 3.143-2.128l.429-1.073c2.019-5.047 3.043-10.362 3.043-15.799 0-6.065-4.935-11-11-11s-11 4.935-11 11c0 5.437 1.024 10.752 3.043 15.799zm7.957-24.799c4.962 0 9 4.038 9 9 0 5.181-.976 10.247-2.899 15.056l-.43 1.073c-.212.529-.716.871-1.286.871-.763 0-1.385-.622-1.385-1.385v-3.615c0-1.654-1.346-3-3-3s-3 1.346-3 3v3.615c0 .763-.622 1.385-1.385 1.385-.569 0-1.074-.342-1.286-.871l-.429-1.073c-1.924-4.809-2.9-9.875-2.9-15.056 0-4.962 4.038-9 9-9z"/><path d="m42 11h-15.99c-.002-.028-.01-.056-.01-.084 0-2.764-1.473-5.365-3.843-6.788-1.23-.738-2.638-1.128-4.073-1.128-1.617 0-3.148.704-4.2 1.932l-3.491 4.073c-.898 1.048-1.393 2.386-1.393 3.767 0 .023.006.045.006.069-.899-.544-1.928-.841-3.006-.841h-1v2.515c0 .549.07 1.087.193 1.609-.389-.081-.787-.124-1.193-.124h-1v2.515c0 .549.07 1.087.193 1.609-.389-.081-.787-.124-1.193-.124h-1v2.515c0 1.222.316 2.393.901 3.429-.59 1.958-.901 3.991-.901 6.056v6c0 11.58 9.42 21 21 21h20c11.58 0 21-9.42 21-21v-6c0-11.58-9.42-21-21-21zm19 21c0 10.477-8.523 19-19 19h-9v-38h9c10.477 0 19 8.523 19 19zm-49.989 15.471c-1.277-1.139-2.011-2.754-2.011-4.471 0-3.309 2.691-6 6-6s6 2.691 6 6c0 .02-.005.039-.005.058-.327-.036-.658-.058-.995-.058-3.495 0-6.606 1.994-8.094 5.068-.304-.192-.603-.389-.895-.597zm15.146-2.017c-.905-.852-1.984-1.516-3.179-1.937.01-.172.022-.345.022-.517 0-1.404-.366-2.722-1.004-3.87.327-.085.663-.13 1.004-.13 2.206 0 4 1.794 4 4 0 .902-.302 1.759-.843 2.454zm-6.157-.454c3.519 0 6.432 2.613 6.92 6h-4.92c-2.992 0-5.813-.714-8.333-1.951 1.137-2.448 3.576-4.049 6.333-4.049zm8.941 6c-.164-1.472-.681-2.84-1.47-4.011.976-1.092 1.529-2.497 1.529-3.989 0-3.309-2.691-6-6-6-.777 0-1.544.153-2.258.443-1.455-1.504-3.489-2.443-5.742-2.443-4.411 0-8 3.589-8 8 0 .225.018.446.037.668-2.327-2.977-3.776-6.657-3.986-10.668h27.949v18zm-23.637-21.282c-.109.418-.196.844-.245 1.282h-2.02c.055-1.056.193-2.101.421-3.126zm8.696-4.718c1.217 0 2.377.306 3.413.888-.464.499-.872 1.049-1.214 1.643-.681-.336-1.428-.531-2.199-.531-2.414 0-4.434 1.721-4.899 4h-2.021c.488-3.387 3.401-6 6.92-6zm13.286-2.664c-.187-.374-.286-.794-.286-1.212 0-.537.158-1.058.456-1.504l.775-1.163c.503-.755.769-1.633.769-2.541 0-1.083-.385-2.106-1.057-2.916h3.057v13.356c-.783-.969-1.763-1.769-2.877-2.347zm3.634 8.664h-2.021c-.465-2.279-2.484-4-4.899-4s-4.434 1.721-4.899 4h-2.021c.488-3.387 3.401-6 6.92-6s6.432 2.613 6.92 6zm-4.104 0h-5.631c.414-1.161 1.514-2 2.816-2s2.401.839 2.815 2zm-11.757 0h-3.875c.414-1.161 1.514-2 2.816-2 .492 0 .969.129 1.398.355-.163.529-.276 1.08-.339 1.645zm-3.147-20.694 3.491-4.072c.672-.784 1.649-1.234 2.681-1.234 1.072 0 2.124.292 3.043.843 1.772 1.063 2.873 3.007 2.873 5.073 0 1.014.504 1.956 1.348 2.518l.503.335c.719.48 1.149 1.282 1.149 2.147 0 .511-.15 1.006-.433 1.431l-.775 1.163c-.518.777-.792 1.68-.792 2.614 0 .691.16 1.38.454 2.004-.475-.077-.958-.128-1.454-.128-1.341 0-2.61.303-3.755.831l-1.245-1.245v-1.938c0-2.013-1.506-3.719-3.504-3.969l-1.177-.147c-1.892-.237-3.319-1.853-3.319-3.76 0-.904.324-1.78.912-2.466zm5.082 10.274-1.94-1.94.195.024c.974.122 1.711.94 1.745 1.916zm-9.994-6.449c.64.172 1.226.509 1.707.99l8.464 8.464c-1.009-.38-2.083-.585-3.171-.585-.188 0-.372.017-.558.028l-4.978-4.978c-.944-.944-1.464-2.2-1.464-3.535zm-2 4c.64.172 1.226.509 1.707.99l4.374 4.374c-.756.26-1.47.611-2.12 1.052l-2.497-2.497c-.944-.944-1.464-2.2-1.464-3.535zm-2 4c.64.172 1.226.509 1.707.99l2.735 2.735c-.518.552-.972 1.164-1.339 1.833l-1.639-1.639c-.944-.944-1.464-2.2-1.464-3.535zm39 34.869h-20c-9.237 0-16.946-6.628-18.644-15.376 1.52 2.933 3.712 5.456 6.37 7.38.054.047.101.1.157.146l.015-.018c3.424 2.427 7.594 3.868 12.102 3.868h9 2 9c8.11 0 15.147-4.629 18.644-11.376-1.698 8.748-9.407 15.376-18.644 15.376z"/><path d="m17 41v-2h-1.586c-.635 0-1.258-.258-1.707-.707l-1.414 1.414c.833.834 1.942 1.293 3.121 1.293z"/><path d="m19.5 9.458h1.999v12.083h-1.999z" transform="matrix(.91 -.414 .414 .91 -4.577 9.872)"/></g></g></svg>