<svg width="53" height="53" viewBox="0 0 53 53" fill="none" xmlns="http://www.w3.org/2000/svg">
<path d="M49.8073 43.9427L49.8056 26.563C49.8056 24.2811 47.9209 22.4246 45.6041 22.4246H38.3864L30.8207 14.9755C30.3794 14.541 29.8036 14.2927 29.2042 14.2124L16.7754 1.97427C16.0751 1.28399 15.1429 0.904907 14.1518 0.904907H14.008C13.0161 0.904907 12.0838 1.28481 11.3827 1.9751C10.6825 2.66539 10.2966 3.58246 10.2966 4.5583V4.70066C10.2966 5.67567 10.6825 6.59357 11.3827 7.28385L23.7846 19.4946C23.8678 20.1038 24.1377 20.67 24.5874 21.1128L25.9198 22.4246H22.9658C21.6174 22.4246 20.3514 22.9411 19.399 23.8789L19.051 24.2215C18.0599 25.1974 16.7426 25.7354 15.3404 25.7354C13.9584 25.7354 12.6067 25.1833 11.6299 24.2215L11.2818 23.8789C10.3294 22.9411 9.06256 22.4246 7.71586 22.4246H6.93407C4.61559 22.4246 2.73089 24.2811 2.73089 26.563V43.9435C1.34132 43.9435 0.208984 45.0584 0.208984 46.4266C0.208984 49.6214 2.84942 52.2212 6.09343 52.2212H46.4448C49.6879 52.2212 52.3275 49.6214 52.3292 46.4266C52.3292 45.0576 51.1969 43.9427 49.8073 43.9427ZM11.9779 4.69983V4.5583C11.9779 4.02527 12.1889 3.52369 12.5731 3.14461C12.9555 2.76719 13.4658 2.56027 14.008 2.56027H14.1518C14.694 2.56027 15.2034 2.76802 15.5859 3.14544L27.2304 14.6105C27.0622 14.714 26.9034 14.834 26.7605 14.9755L24.5874 17.1151C24.4445 17.2558 24.3209 17.4105 24.2125 17.5736L12.5722 6.11268C12.1889 5.73526 11.9779 5.23286 11.9779 4.69983ZM25.428 19.1139C25.428 18.8019 25.5508 18.508 25.7769 18.2862L27.95 16.1467C28.1744 15.924 28.4728 15.8032 28.7914 15.8032C29.1033 15.8032 29.4101 15.9282 29.6312 16.1467L43.5732 29.8738C43.7985 30.0948 43.9212 30.3886 43.9212 30.7023C43.9212 31.0143 43.7985 31.3082 43.5732 31.5291L41.4001 33.6687C40.9537 34.1107 40.1686 34.1123 39.7188 33.6687L39.718 33.6679V30.8024C39.718 29.4484 39.1825 28.1754 38.2108 27.2186C37.239 26.2618 35.9469 25.7354 34.5733 25.7354H31.6614L25.7769 19.9416C25.5516 19.7198 25.428 19.4251 25.428 19.1139ZM38.0367 32.0117L33.3426 27.3899H34.5733C35.4989 27.3899 36.3689 27.745 37.0229 28.3897C37.6769 29.0329 38.0367 29.8895 38.0367 30.8016V32.0117ZM4.41216 26.563C4.41216 25.1941 5.54366 24.08 6.93407 24.08H7.71586C8.61282 24.08 9.45766 24.4243 10.0923 25.05L10.4404 25.3927C11.7501 26.6806 13.4902 27.3907 15.3413 27.3907C17.1915 27.3899 18.9316 26.6806 20.2405 25.3919L20.5885 25.0484C21.2232 24.4243 22.068 24.08 22.9658 24.08H27.6011L38.5294 34.8399C39.0724 35.3737 39.7928 35.6667 40.5603 35.6667C41.3261 35.6667 42.0474 35.3737 42.5896 34.8399L44.7627 32.7003C45.3049 32.1656 45.6025 31.4563 45.6025 30.7006C45.6025 29.9466 45.3049 29.2365 44.7627 28.7026L40.0677 24.08H45.6041C46.9937 24.08 48.1244 25.1941 48.1244 26.563L48.1252 43.9435H4.41216V26.563ZM46.4448 50.565H6.09343C4.72572 50.565 3.52025 49.9086 2.75275 48.9096H49.7855C49.0171 49.9086 47.8116 50.565 46.4448 50.565ZM50.563 47.2534H1.97516C1.91968 46.9861 1.89026 46.7088 1.89026 46.4258C1.89026 45.9697 2.26686 45.5981 2.73005 45.5981H3.57153H48.9667H49.8073C50.2705 45.5981 50.648 45.9697 50.648 46.4258C50.648 46.7097 50.6185 46.9861 50.563 47.2534Z" fill="white"/>
<path d="M18.1592 38.3414C17.3303 39.1602 15.8751 39.1635 15.0429 38.3414L14.3048 37.6146C13.5701 36.8919 12.595 36.4937 11.556 36.4937C10.5195 36.4937 9.54349 36.891 8.80878 37.6146L7.17963 39.219L8.36912 40.3904L9.99827 38.786C10.8305 37.9656 12.2823 37.9648 13.1145 38.786L13.8526 39.5128C14.5865 40.2347 15.5624 40.6329 16.6006 40.6329C17.6388 40.6329 18.6148 40.2356 19.3486 39.5128L20.9786 37.9076L19.7891 36.7362L18.1592 38.3414Z" fill="#E9E9E9"/>
<path d="M26.5655 30.8923C25.7366 31.711 24.2815 31.7135 23.4492 30.8923L22.7112 30.1654C21.9764 29.4427 21.0013 29.0446 19.9623 29.0446C18.9258 29.0446 17.9498 29.4419 17.2151 30.1654L15.5859 31.7698L16.7754 32.9412L18.4046 31.3368C19.2368 30.5164 20.6886 30.5156 21.5208 31.3368L22.2589 32.0637C22.9928 32.7855 23.9687 33.1837 25.0069 33.1837C26.0451 33.1837 27.0211 32.7864 27.755 32.0637L29.3849 30.4585L28.1955 29.2871L26.5655 30.8923Z" fill="#E9E9E9"/>
<path d="M42.5375 38.3414C41.7086 39.1602 40.2543 39.1635 39.4212 38.3414L38.6832 37.6146C37.9485 36.8919 36.9733 36.4937 35.9343 36.4937C34.8978 36.4937 33.9218 36.891 33.1871 37.6146L31.5579 39.219L32.7474 40.3904L34.3766 38.786C35.2088 37.9656 36.6606 37.9648 37.4928 38.786L38.2309 39.5128C38.9648 40.2347 39.9408 40.6329 40.979 40.6329C42.0171 40.6329 42.9931 40.2356 43.727 39.5128L45.357 37.9076L44.1675 36.7362L42.5375 38.3414Z" fill="#E9E9E9"/>
</svg>
