<svg id="Capa_1" enable-background="new 0 0 512 512" height="512" viewBox="0 0 512 512" width="512" xmlns="http://www.w3.org/2000/svg"><g><g><path clip-rule="evenodd" d="m82.283 131.973c23.612-6.066 48.443-3.883 71.006 6.491-10.375-22.563-12.557-47.394-6.491-71.006-24.69-29.083-62.985-45.864-107.233-42.717-3.146 44.248 13.635 82.543 42.718 107.232z" fill="#ffda8f" fill-rule="evenodd"/></g><g><path clip-rule="evenodd" d="m99.46 209.414c33.505-25.568 75.372-29.905 111.456-13.323l-57.627-57.627c-22.563-10.375-47.394-12.557-71.006-6.491-20.891 5.357-40.846 17.178-57.457 35.517 20.522 24.747 47.167 38.778 74.634 41.924z" fill="#fff3da" fill-rule="evenodd"/></g><g><path clip-rule="evenodd" d="m153.289 138.464 57.627 57.627c-16.582-36.084-12.245-77.951 13.323-111.428-3.175-27.495-17.178-54.141-41.952-74.663-18.311 16.611-30.132 36.566-35.489 57.457-6.066 23.613-3.884 48.444 6.491 71.007z" fill="#fff3da" fill-rule="evenodd"/></g><g><path clip-rule="evenodd" d="m210.916 196.092 57.627 57.627c-16.582-36.084-12.245-77.951 13.323-111.428-3.175-27.495-17.178-54.141-41.923-74.663-5.924 5.357-11.14 11.055-15.704 17.036-25.568 33.476-29.905 75.343-13.323 111.428z" fill="#ffda8f" fill-rule="evenodd"/></g><g><path clip-rule="evenodd" d="m157.087 267.041c33.505-25.568 75.372-29.905 111.456-13.323l-57.627-57.627c-36.084-16.582-77.951-12.245-111.456 13.323-5.953 4.564-11.65 9.779-17.008 15.704 20.523 24.746 47.168 38.777 74.635 41.923z" fill="#ffda8f" fill-rule="evenodd"/></g><g><path clip-rule="evenodd" d="m214.714 324.668c33.505-25.568 75.372-29.905 111.456-13.323l-57.627-57.627c-36.084-16.582-77.951-12.245-111.456 13.323-5.953 4.564-11.65 9.808-17.008 15.704 20.523 24.746 47.168 38.777 74.635 41.923z" fill="#fff3da" fill-rule="evenodd"/></g><g><path clip-rule="evenodd" d="m268.543 253.719 57.627 57.627c-16.582-36.084-12.245-77.951 13.323-111.428-3.175-27.495-17.178-54.141-41.924-74.663-5.924 5.357-11.14 11.055-15.704 17.036-25.567 33.477-29.904 75.343-13.322 111.428z" fill="#fff3da" fill-rule="evenodd"/></g><g><path clip-rule="evenodd" d="m368.236 344.142c43.568-48.358 38.862-118.202-13.039-161.26-5.924 5.357-11.14 11.055-15.704 17.036-25.568 33.476-29.905 75.343-13.323 111.428l37.558 37.558.51-.539c1.361-1.361 2.693-2.778 4.025-4.224h-.027z" fill="#ffda8f" fill-rule="evenodd"/></g><g><path clip-rule="evenodd" d="m197.707 340.372c43.029 51.901 112.873 56.607 161.231 13.067h.028c1.446-1.304 2.863-2.664 4.224-4.025l.539-.51-37.558-37.558c-36.084-16.582-77.951-12.245-111.456 13.323-5.953 4.563-11.651 9.807-17.008 15.703z" fill="#ffda8f" fill-rule="evenodd"/></g><g><path clip-rule="evenodd" d="m91.098 502c44.815 0 81.126-36.311 81.126-81.126 0-44.786-36.311-81.097-81.126-81.097-44.786 0-81.097 36.311-81.097 81.097 0 44.815 36.311 81.126 81.097 81.126z" fill="#ff9eb1" fill-rule="evenodd"/></g><g><path d="m91.098 329.777c-50.231 0-91.097 40.866-91.097 91.097 0 50.247 40.866 91.126 91.097 91.126 50.247 0 91.126-40.879 91.126-91.126 0-50.231-40.879-91.097-91.126-91.097zm0 162.223c-39.203 0-71.098-31.907-71.098-71.126 0-39.203 31.894-71.098 71.098-71.098 39.219 0 71.126 31.894 71.126 71.098 0 39.219-31.907 71.126-71.126 71.126z"/><path d="m127.99 384.011c-3.906-3.904-10.236-3.904-14.143 0l-22.735 22.735-22.735-22.735c-3.906-3.904-10.236-3.904-14.143 0-3.905 3.905-3.905 10.237 0 14.143l22.735 22.735-22.735 22.735c-3.905 3.905-3.905 10.237 0 14.143 1.953 1.952 4.512 2.929 7.071 2.929 2.56 0 5.118-.977 7.071-2.929l22.735-22.735 22.735 22.735c1.953 1.952 4.512 2.929 7.071 2.929s5.118-.977 7.071-2.929c3.905-3.905 3.905-10.237 0-14.143l-22.735-22.735 22.735-22.735c3.907-3.906 3.907-10.238.002-14.143z"/><path d="m377.598 348.631c21.591-25.034 32.208-55.953 29.925-87.392-2.388-32.894-18.704-63.455-45.942-86.053-3.83-3.179-9.418-3.055-13.103.29-1.106 1.003-2.191 2.019-3.255 3.048-7.01-23.191-21.232-44.349-41.269-60.966-3.83-3.177-9.417-3.053-13.103.29-1.106 1.003-2.191 2.02-3.256 3.049-7.01-23.192-21.232-44.35-41.268-60.966-3.83-3.177-9.416-3.053-13.103.291-1.106 1.004-2.192 2.02-3.256 3.049-7.015-23.199-21.248-44.359-41.303-60.971-3.83-3.175-9.414-3.05-13.098.295-14.849 13.469-25.921 29.263-32.986 46.194-27.173-24.558-64.096-36.841-103.725-34.022-4.964.353-8.913 4.302-9.266 9.266-2.819 39.647 9.469 76.565 34.034 103.737-16.941 7.068-32.74 18.147-46.208 33.006-3.342 3.687-3.465 9.27-.288 13.1 16.633 20.055 37.785 34.279 60.955 41.278-1.026 1.062-2.039 2.145-3.04 3.249-3.342 3.687-3.465 9.27-.288 13.1 16.632 20.055 37.786 34.28 60.956 41.279-1.025 1.061-2.038 2.143-3.038 3.245-3.345 3.687-3.469 9.271-.291 13.103 16.632 20.055 37.786 34.28 60.957 41.279-1.026 1.061-2.039 2.143-3.039 3.246-3.343 3.687-3.468 9.27-.291 13.101 22.575 27.231 53.119 43.549 86.004 45.946 2.815.206 5.625.308 8.429.308 28.517 0 56.211-10.563 79.017-30.232l37.333 37.333c1.953 1.952 4.512 2.929 7.071 2.929 2.56 0 5.118-.977 7.071-2.929 3.905-3.905 3.905-10.237 0-14.143zm-79.724-209.694c16.89 16.309 27.775 36.666 31.165 58.383-17.165 24.147-24.882 52.492-22.158 80.594l-29.934-29.934c-16.142-36.792-7.943-78.558 20.927-109.043zm-57.627-57.628c16.889 16.309 27.774 36.666 31.164 58.384-17.165 24.148-24.882 52.491-22.157 80.593l-29.935-29.935c-16.159-36.774-7.958-78.542 20.928-109.042zm-57.652-57.63c16.903 16.304 27.797 36.663 31.189 58.385-17.173 24.15-24.894 52.49-22.171 80.583l-29.922-29.922c-16.165-36.787-7.976-78.555 20.904-109.046zm-133.398 10.694c.248-.002.495-.002.743-.002 33.767 0 64.46 12.777 85.953 35.882-3.564 17.033-3.293 34.676 1.054 51.876-17.196-4.339-34.831-4.608-51.854-1.048-23.285-21.652-36.085-52.641-35.896-86.708zm-10.693 133.421c30.469-28.874 72.238-37.073 109.047-20.925l29.93 29.929c-28.109-2.727-56.46 4.992-80.604 22.163-21.694-3.368-42.047-14.253-58.373-31.167zm57.627 57.627c30.471-28.874 72.238-37.073 109.047-20.925l29.935 29.935c-28.102-2.724-56.449 4.995-80.598 22.16-21.697-3.367-42.057-14.255-58.384-31.17zm57.63 57.629c30.485-28.87 72.254-37.069 109.044-20.928l29.935 29.935c-28.104-2.725-56.45 4.993-80.598 22.16-21.697-3.366-42.054-14.252-58.381-31.167zm123.707 89.704c-24.632-1.797-47.802-13.103-66.083-32.073 30.485-28.876 72.25-37.074 109.049-20.93l28.836 28.836c-20.803 17.471-46.157 26.036-71.802 24.167zm85.942-38.311-28.837-28.837c-16.141-36.792-7.939-78.559 20.929-109.044 18.979 18.3 30.284 41.483 32.073 66.125 1.862 25.636-6.704 50.966-24.165 71.756z"/><path d="m509.067 480.101-30.698-30.67c-3.906-3.905-10.239-3.901-14.142.007-3.903 3.906-3.9 10.238.007 14.142l30.698 30.67c1.952 1.951 4.51 2.926 7.067 2.926 2.561 0 5.122-.978 7.074-2.933 3.904-3.907 3.901-10.239-.006-14.142z"/><path d="m432.454 417.687c-3.905 3.905-3.905 10.237 0 14.143l.028.028c1.949 1.949 4.499 2.922 7.051 2.922 2.56 0 5.121-.98 7.077-2.937 3.905-3.905 3.892-10.251-.014-14.156s-10.236-3.905-14.142 0z"/></g></g></svg>