<svg id="_x33_0" enable-background="new 0 0 64 64" height="512" viewBox="0 0 64 64" width="512" xmlns="http://www.w3.org/2000/svg"><g><path d="m32 29c-1.654 0-3 1.346-3 3s1.346 3 3 3 3-1.346 3-3-1.346-3-3-3zm0 4c-.551 0-1-.449-1-1s.449-1 1-1 1 .449 1 1-.449 1-1 1z"/><path d="m32 25c-3.86 0-7 3.14-7 7 0 3.859 3.14 7 7 7s7-3.141 7-7c0-3.86-3.14-7-7-7zm0 12c-2.757 0-5-2.243-5-5s2.243-5 5-5 5 2.243 5 5-2.243 5-5 5z"/><path d="m43.316 24.932-4.248-4.248-1.858 1.867c-.337.338-.873.423-1.41.198-.493-.205-.8-.629-.8-1.11v-2.639h-6v2.639c0 .48-.307.905-.842 1.128-.494.207-1.031.122-1.367-.216l-1.859-1.867-4.248 4.248 1.867 1.858c.338.337.423.874.198 1.41-.205.493-.629.8-1.11.8h-2.639v6h2.639c.473 0 .909.313 1.128.842.21.502.127 1.025-.216 1.368l-1.867 1.859 4.248 4.247 1.858-1.868c.343-.343.866-.427 1.41-.197.494.204.8.63.8 1.109v2.64h6v-2.64c0-.479.307-.905.843-1.127.5-.211 1.025-.128 1.367.215l1.858 1.868 4.248-4.247-1.867-1.86c-.333-.331-.42-.84-.23-1.33l.042-.101c.208-.48.629-.778 1.1-.778h2.639v-6h-2.639c-.48 0-.905-.307-1.128-.842-.207-.494-.123-1.031.216-1.367zm-.955 6.068h.639v2h-.639c-1.26 0-2.413.777-2.939 1.99l-.062.15c-.484 1.228-.218 2.597.677 3.486l.447.445-1.413 1.413-.445-.446c-.914-.919-2.311-1.173-3.592-.635-1.235.513-2.034 1.673-2.034 2.957v.64h-2v-.64c0-1.284-.799-2.444-2.067-2.971-1.25-.526-2.646-.271-3.56.648l-.444.446-1.413-1.413.447-.445c.918-.914 1.172-2.311.634-3.592-.513-1.234-1.673-2.033-2.958-2.033h-.639v-2h.639c1.285 0 2.446-.799 2.972-2.068.524-1.248.27-2.645-.648-3.56l-.446-.444 1.413-1.413.444.446c.914.917 2.312 1.172 3.592.634 1.235-.51 2.034-1.671 2.034-2.956v-.639h2v.639c0 1.285.799 2.446 2.068 2.972 1.25.524 2.645.27 3.56-.648l.444-.446 1.413 1.413-.446.444c-.918.914-1.172 2.311-.634 3.592.51 1.235 1.671 2.034 2.956 2.034z"/><path d="m20.15 41.208c-2.061-2.66-3.15-5.844-3.15-9.208s1.089-6.548 3.15-9.207l.54-.697-9.903-9.903-.703.813c-3.12 3.604-5.304 7.942-6.355 12.565-1.612.831-2.729 2.494-2.729 4.429 0 .945.27 1.861.773 2.654-.498.678-.773 1.496-.773 2.346 0 1.792 1.192 3.294 2.818 3.802 1.081 4.481 3.231 8.687 6.265 12.193l.704.813 9.903-9.902zm-17.15-6.208c0-.58.263-1.135.722-1.521l.803-.677-.715-.768c-.522-.562-.81-1.284-.81-2.034 0-1.654 1.346-3 3-3s3 1.346 3.001 2.957l-.054.919.706.246c.805.281 1.347 1.036 1.347 1.878 0 1.351-1.412 2.385-2.744 1.853l-1.044-.419-.293 1.086c-.236.871-1.025 1.48-1.919 1.48-1.103 0-2-.897-2-2zm9.964 4.378c-.153.801-.786 1.433-1.585 1.586l-3.364-3.364c.17-.198.327-.406.457-.636.175.024.351.036.528.036.472 0 .918-.097 1.339-.247zm-2.056 9.479c-2.346-2.94-4.054-6.35-5.009-9.969.151-.035.299-.08.444-.133l4.243 4.245h.414c2.206 0 4-1.794 4-4v-.414l-2.986-2.986c.606-.701.986-1.603.986-2.6 0-1.446-.789-2.761-2.021-3.463-.234-2.541-2.378-4.537-4.979-4.537-.028 0-.053.008-.081.008.961-3.582 2.663-6.952 4.988-9.866l7.138 7.138c-1.995 2.862-3.045 6.204-3.045 9.72s1.05 6.858 3.045 9.721z"/><path d="m22.793 20.15c2.659-2.061 5.843-3.15 9.207-3.15 1.132 0 2.257.135 3.355.385.502.955 1.493 1.615 2.645 1.615.383 0 .745-.079 1.082-.21.741.397 1.46.844 2.126 1.36l.696.54 9.903-9.903-.813-.704c-4.334-3.751-9.601-6.099-15.25-6.83-1.122-1.384-2.815-2.253-4.69-2.253-2.063 0-3.887 1.039-4.98 2.62-4.815 1.004-9.327 3.226-13.068 6.464l-.813.704 9.903 9.903zm14.207-4.15v-1.414l-1.586-1.586 1.586-1.586 1.586 1.586h1.414c.551 0 1 .449 1 1s-.449 1-1 1h-1v1c0 .551-.449 1-1 1s-1-.449-1-1zm11.858-5.092-7.139 7.138c-.343-.238-.695-.464-1.055-.677.082-.159.154-.324.207-.498 1.231-.374 2.129-1.519 2.129-2.871 0-1.654-1.346-3-3-3h-.586l-1.511-1.511-.976-3.903c-.012-.049-.035-.093-.048-.141 4.381.799 8.476 2.662 11.979 5.463zm-17.804-7.908c1.863 0 3.48 1.263 3.933 3.071l.906 3.622-2.199 2.199-3.622-.906c-1.809-.451-3.072-2.069-3.072-3.932 0-2.235 1.819-4.054 4.054-4.054zm-5.94 2.894c-.073.376-.114.763-.114 1.16 0 2.783 1.886 5.198 4.585 5.873l3.903.976 1.341 1.341c-.933-.157-1.879-.244-2.829-.244-3.516 0-6.858 1.05-9.72 3.045l-7.138-7.138c2.945-2.35 6.349-4.057 9.972-5.013z"/><path d="m41.207 43.85c-2.659 2.06-5.843 3.15-9.207 3.15s-6.548-1.09-9.207-3.15l-.697-.54-9.903 9.903.813.703c4.047 3.504 8.95 5.799 14.199 6.675 1.095 1.459 2.834 2.409 4.795 2.409s3.7-.95 4.796-2.409c5.248-.876 10.151-3.171 14.199-6.675l.813-.703-9.903-9.903zm-26.065 9.243 7.138-7.139c2.324 1.621 4.967 2.605 7.759 2.923-1.561 2.078-4.039 5.747-4.039 8.123 0 .47.06.926.163 1.365-4.02-.888-7.785-2.687-11.021-5.272zm16.858 7.907c-2.206 0-4-1.794-4-4 0-1.669 2.211-5.082 4-7.399 1.789 2.317 4 5.73 4 7.399 0 2.206-1.794 4-4 4zm5.837-2.635c.103-.439.163-.895.163-1.365 0-2.376-2.478-6.045-4.039-8.123 2.793-.318 5.435-1.302 7.759-2.923l7.138 7.139c-3.236 2.585-7.001 4.384-11.021 5.272z"/><path d="m62.538 26.97.743-2.97h-2.938c-.158 0-.311.021-.465.039-1.156-4.041-3.197-7.84-5.961-11.033l-.703-.813-9.903 9.903.54.697c2.06 2.659 3.149 5.843 3.149 9.207s-1.089 6.548-3.15 9.208l-.54.696 9.903 9.902.704-.813c2.82-3.258 4.892-7.151 6.033-11.284.643-.327 1.146-.907 1.353-1.629l1.175-4.11c.346-1.215.522-2.471.522-3.734 0-.839-.328-1.631-.885-2.222.186-.32.33-.67.423-1.044zm-1.819-.97-.122.485c-.222.892-1.02 1.515-1.939 1.515h-.377l.122-.485c.222-.892 1.02-1.515 1.939-1.515zm-7.627 22.857-7.137-7.137c1.995-2.862 3.045-6.204 3.045-9.72s-1.05-6.858-3.045-9.72l7.138-7.138c2.266 2.841 3.943 6.137 4.913 9.62-.745.538-1.308 1.323-1.544 2.267l-.129.519-.202-.101c-.586-.292-1.241-.447-1.895-.447-1.784 0-3.236 1.452-3.236 3.236 0 1.263.176 2.52.523 3.735l1.175 4.11c.323 1.13 1.368 1.919 2.543 1.919.647 0 1.261-.216 1.759-.612.252.2.534.354.834.457-.992 3.258-2.609 6.338-4.742 9.012zm7.462-15.435-1.175 4.11c-.14.489-.847.583-1.209.224l-1.17-1.169-1.17 1.169c-.361.359-1.069.266-1.209-.224l-1.175-4.11c-.296-1.037-.446-2.109-.446-3.186 0-.682.554-1.236 1.236-1.236.345 0 .691.082 1 .236l1.528.764h1.894c.743 0 1.445-.203 2.049-.563.185.22.293.501.293.799 0 1.077-.15 2.149-.446 3.186z"/></g></svg>