<svg width="47" height="49" viewBox="0 0 47 49" fill="none" xmlns="http://www.w3.org/2000/svg">
<path d="M39.0775 28.9218C39.0756 28.9206 39.0736 28.9191 39.0716 28.9178C38.0256 28.2251 36.7727 27.8273 35.4434 27.8273C34.2095 27.8273 33.6288 28.1838 31.5465 28.1838C28.0058 28.1839 24.5451 26.9118 21.8018 24.6016C17.5802 21.0469 11.0782 20.9818 6.79135 25.095C4.64006 27.1591 3.44098 29.913 3.41493 32.8492C3.37486 37.3719 6.09587 41.4001 10.347 43.1114C14.1595 44.6467 27.1558 47.741 39.1829 39.5016C42.8772 36.9711 42.9023 31.4609 39.0775 28.9218ZM8.00352 26.3199C9.81968 24.5773 12.2053 23.6409 14.7161 23.6831C15.1698 23.6903 15.6201 23.7318 16.0643 23.8026L5.27174 34.4289C5.18906 33.918 5.14702 33.3953 5.15166 32.8641C5.17377 30.3875 6.18654 28.0633 8.00352 26.3199ZM5.79503 36.3325L17.9935 24.3219C19.9435 25.0739 20.5364 25.9035 21.9895 26.904L8.57879 40.1082C7.33224 39.1027 6.37679 37.8024 5.79503 36.3325ZM10.0475 41.0808L23.5021 27.8336C25.0211 28.661 26.6552 29.251 28.3448 29.582L15.0679 42.6542C13.4745 42.3474 11.4667 41.8417 10.0475 41.0808ZM17.1818 42.9915L30.5174 29.8614C34.2542 30.0938 35.013 29.042 37.1488 29.8488L23.6043 43.1845C21.389 43.3408 19.2762 43.2589 17.1818 42.9915ZM38.1907 38.0978C34.582 40.57 30.6292 42.1628 26.3913 42.8589L38.6662 30.7731C40.9309 32.8171 40.6626 36.4048 38.1907 38.0978Z" fill="white"/>
<path d="M1.20399 27.1949C0.378127 29.0565 0.0085017 30.9755 -0.000183105 32.9477C-0.000183105 39.0622 3.92211 44.2798 9.06814 46.2285C16.4048 49.0447 26.5888 49.2754 35.3128 45.4876C35.7517 45.2971 35.9506 44.7923 35.757 44.3602C35.5634 43.9281 35.0507 43.7324 34.612 43.9228C26.3485 47.5105 16.6324 47.2963 9.70584 44.6378C4.86435 42.6863 1.73666 38.0983 1.73666 32.9478C1.767 26.2165 6.99942 21.042 13.4085 20.3762C16.5322 20.0858 19.6159 20.9253 22.1549 22.7704C23.0538 23.4278 26.2604 26.6692 31.9046 26.5155C34.224 26.4515 35.1336 25.7878 37.6298 26.4692C44.3356 28.3003 45.7624 37.0068 40.1412 40.8577C39.4815 41.3097 38.8005 41.7419 38.1172 42.1422C37.705 42.3836 37.5696 42.9084 37.815 43.3142C38.0602 43.72 38.5931 43.8535 39.0054 43.6118C39.7239 43.1908 40.4399 42.7365 41.1333 42.2614C43.7843 40.4452 45.3672 37.4566 45.3672 34.2669C45.3672 32.5158 44.9047 30.7553 43.9301 29.1725C44.1244 28.0224 44.2239 26.8502 44.2239 25.6821C44.2239 24.6807 44.1494 23.6734 44.0047 22.6776C44.4334 22.4029 44.7181 21.9278 44.7181 21.3876V19.7344H45.2392C46.1012 19.7344 46.8025 19.0439 46.8025 18.1952V16.371C46.8025 15.5223 46.1012 14.8318 45.2392 14.8318H41.1798C39.5063 12.0777 37.2052 9.71356 34.4834 7.95161C34.4406 7.65597 34.3673 7.36273 34.2587 7.07747C33.8326 5.95866 32.9566 5.10869 31.8438 4.70087C31.7992 2.76459 30.4243 1.0292 28.4509 0.569496C26.5225 0.120969 24.5668 0.989862 23.6127 2.62914C22.9592 2.40978 22.2649 2.3595 21.5764 2.48332C20.5324 0.824885 18.4605 0.035801 16.5188 0.631747C15.3448 0.992028 14.3922 1.81931 13.8666 2.8851C13.1595 2.68022 12.3871 2.67269 11.6369 2.903C9.97924 3.41195 8.89966 4.95626 8.93776 6.6091C8.03442 7.04053 7.35608 7.81718 7.06277 8.78937C6.83754 9.53582 6.86776 10.324 7.12252 11.0383C3.26484 15.006 1.14725 20.1826 1.14725 25.6821C1.14725 26.1779 1.16705 26.6856 1.20399 27.1949ZM42.9812 21.2166H31.4014V19.7344H42.9812V21.2166ZM45.0655 18.0242C43.7071 18.0242 34.8269 18.0242 33.4858 18.0242V16.542H45.0655V18.0242ZM39.1252 14.8318H33.3121C32.4501 14.8318 31.7488 15.5223 31.7488 16.371V18.0242H31.2277C30.3657 18.0242 29.6645 18.7147 29.6645 19.5634V21.3876C29.6645 22.2363 30.3657 22.9268 31.2277 22.9268H42.2875C42.4199 23.8401 42.4869 24.764 42.4869 25.6821C42.4869 26.2175 42.4645 26.7541 42.4198 27.2885C41.1659 26.0663 39.5715 25.1719 37.7968 24.7449C35.5215 24.1981 33.881 24.6071 33.1036 24.7077C29.2352 25.2087 26.6295 24.0983 23.6583 21.7509C20.4627 19.22 16.6251 18.2366 12.845 18.716C8.95501 19.1848 5.41914 21.1057 2.93273 24.308C3.24319 19.9028 5.04303 15.7853 8.09545 12.5155C8.52008 12.9709 9.25782 13.74 10.8292 15.3963C11.3828 15.9799 12.1738 16.3381 13.0478 16.3381C14.1107 16.3325 16.277 16.3208 17.3623 16.3153C18.6147 17.8089 20.8204 18.0699 22.3992 16.9369C23.995 18.0833 26.2489 17.7967 27.4957 16.2456L27.7937 16.244C28.8224 16.2384 29.7838 15.7842 30.4315 14.9977L33.5871 11.1664C33.8811 10.8095 34.1339 10.376 34.2996 9.9026C36.1847 11.2527 37.8232 12.9268 39.1252 14.8318ZM22.1829 13.8C22.2923 14.9447 21.3734 15.9265 20.2189 15.9265C19.1313 15.9265 18.2454 15.0545 18.2454 13.9835C18.2454 12.9122 19.1307 12.0406 20.2189 12.0406C21.2183 12.0407 22.0857 12.795 22.1829 13.8ZM25.68 12.3693C25.6865 12.3735 25.6926 12.3782 25.6991 12.3825C26.6608 13.0343 26.8447 14.3596 26.0893 15.2363C25.4552 15.974 24.3672 16.1441 23.5329 15.6257C24.057 14.5995 24.0643 13.3812 23.5325 12.3408C24.211 11.9194 25.0521 11.9545 25.68 12.3693ZM24.9221 3.90095C25.3817 2.64214 26.7266 1.92477 28.0509 2.23386C29.4047 2.54922 30.2938 3.85478 30.075 5.20606C30.0002 5.66793 30.316 6.10323 30.7841 6.18327C31.6536 6.33194 32.3273 6.87669 32.6325 7.67786C32.9364 8.47607 32.814 9.39011 32.2382 10.0891C28.8878 14.1566 28.9227 14.2651 28.2619 14.4608C28.44 13.1351 27.8577 11.7845 26.7144 10.9929C27.0523 10.1353 27.0375 9.18226 26.6947 8.33446C26.3254 7.42133 25.6046 6.71924 24.6978 6.35987C24.6671 5.71957 24.4566 5.07723 24.1277 4.55174C24.4834 4.49553 24.7927 4.25542 24.9221 3.90095ZM17.0356 2.26441C18.0093 1.96513 19.037 2.24115 19.7208 2.91394C18.8091 3.19145 18.0516 3.79093 17.5796 4.54923C17.0643 4.39383 16.5056 4.36214 15.9973 4.44024C15.8382 4.20069 15.6255 3.9469 15.3818 3.72674C15.6891 3.03377 16.2893 2.49358 17.0356 2.26441ZM8.72758 9.27644C8.92155 8.63352 9.41785 8.17142 10.0894 8.00827C10.5505 7.89642 10.8348 7.44037 10.7273 6.98466C10.4794 5.93301 11.1059 4.8573 12.1538 4.53566C13.1854 4.21859 14.2795 4.7223 14.7077 5.6734C14.9145 6.1331 15.4536 6.36865 15.936 6.20983C16.8715 5.90097 17.4352 6.38074 17.6865 6.44424C18.1887 6.57114 18.6987 6.30617 18.8734 5.82777C19.236 4.83461 20.297 4.26887 21.3419 4.51263C22.41 4.76141 23.1114 5.7914 22.9387 6.85742C22.8639 7.31929 23.1798 7.75459 23.6479 7.83463C24.8923 8.04726 25.5094 9.29445 25.0962 10.3653C24.1643 10.2377 23.1848 10.4665 22.4011 11.0287C21.796 10.5948 21.0263 10.3303 20.2187 10.3303C17.925 10.3303 16.1693 12.3711 16.5631 14.609L13.0383 14.6277C12.6872 14.6255 12.3408 14.4843 12.0986 14.2288C9.27994 11.258 9.13392 11.1138 9.00202 10.939C8.68046 10.4933 8.54324 9.88755 8.72758 9.27644Z" fill="white"/>
</svg>
